<svg width="40" height="40" viewBox="0 0 40 40" fill="none" xmlns="http://www.w3.org/2000/svg">
<path d="M20 20.9756L24.0703 17.4868C24.6693 16.9733 25.5712 17.0427 26.0847 17.6417C26.5981 18.2408 26.5287 19.1426 25.9297 19.6561L20.9297 23.9418C20.3947 24.4004 19.6053 24.4004 19.0703 23.9418L14.0703 19.6561C13.4713 19.1426 13.4019 18.2408 13.9153 17.6417C14.4288 17.0427 15.3307 16.9733 15.9297 17.4868L20 20.9756ZM20 35C11.7157 35 5 28.2843 5 20C5 11.7157 11.7157 5 20 5C28.2843 5 35 11.7157 35 20C35 28.2843 28.2843 35 20 35ZM20 32.1429C26.7063 32.1429 32.1429 26.7063 32.1429 20C32.1429 13.2937 26.7063 7.85714 20 7.85714C13.2937 7.85714 7.85714 13.2937 7.85714 20C7.85714 26.7063 13.2937 32.1429 20 32.1429Z" fill="#33313B"/>
</svg>
