<svg width="40" height="29" viewBox="0 0 40 29" fill="none" xmlns="http://www.w3.org/2000/svg">
<g clip-path="url(#clip0)">
<path d="M35.3569 1.92279C35.3108 1.92279 35.3108 1.7817 35.2647 1.7817C35.1264 1.7817 34.9881 1.64062 34.8038 1.64062H4.24551C4.10724 1.64062 3.96896 1.7817 3.7846 1.7817C3.73851 1.7817 3.73851 1.82873 3.69242 1.82873C2.2636 2.11089 1.11133 3.47467 1.11133 5.07358V25.4832C1.11133 27.0821 2.2636 28.3988 3.73851 28.634C3.7846 28.634 3.7846 28.7751 3.83069 28.7751C3.96896 28.7751 4.10724 28.9161 4.24551 28.9161H34.8499C34.9881 28.9161 35.1264 28.7751 35.2647 28.7751C35.3108 28.7751 35.3108 28.728 35.3569 28.728C36.8318 28.4929 37.9841 27.1291 37.9841 25.5302V5.07358C37.9841 3.47467 36.8318 2.15792 35.3569 1.92279ZM25.9543 15.2784L36.1404 6.01411V24.5426L25.9543 15.2784ZM34.8499 3.52169C35.2647 3.52169 35.6334 3.75683 35.91 4.03899L19.5477 18.9465L3.18542 4.03899V3.99196C3.46196 3.7098 3.83069 3.47467 4.24551 3.47467H34.8499V3.52169ZM2.95496 6.01411L13.1411 15.2784L2.95496 24.5426V6.01411ZM4.24551 27.0351C3.83069 27.0351 3.46196 26.7999 3.18542 26.5178L14.2472 16.454L18.9946 20.7805C19.1329 20.9216 19.3633 21.0156 19.5477 21.0156C19.7321 21.0156 19.9625 20.9216 20.1008 20.7805L24.8481 16.454L35.91 26.5648C35.6334 26.847 35.2647 27.0821 34.8499 27.0821L4.24551 27.0351Z" fill="#E0E0E0"/>
</g>
<defs>
<clipPath id="clip0">
<rect width="39" height="28.3636" fill="white" transform="translate(0.0478516 0.62793)"/>
</clipPath>
</defs>
</svg>
