<svg width="26" height="19" viewBox="0 0 26 19" fill="none" xmlns="http://www.w3.org/2000/svg">
<g clip-path="url(#clip0)">
<path d="M22.3603 0.161621H3.81052C2.16711 0.161621 0.830078 1.47934 0.830078 3.09898V15.466C0.830078 17.0856 2.16711 18.4033 3.81052 18.4033H22.3603C24.0038 18.4033 25.3408 17.0856 25.3408 15.466V3.09898C25.3408 1.47934 24.0038 0.161621 22.3603 0.161621ZM20.9323 1.14757L13.0787 7.40417L5.22506 1.14757H20.9323ZM21.3255 17.4173H4.83184V5.90343L12.7649 12.2016C12.948 12.3471 13.2093 12.3471 13.3925 12.2016L21.3255 5.90343V17.4173H21.3255ZM24.3404 15.4659C24.3404 16.5419 23.4521 17.4173 22.3603 17.4173H22.326V4.87323C22.326 4.68342 22.2155 4.5105 22.0417 4.42854C21.8678 4.34654 21.6619 4.37028 21.512 4.48931L13.0787 11.1847L4.64537 4.48931C4.49534 4.37028 4.2893 4.34654 4.11566 4.42854C3.94189 4.5105 3.83135 4.68342 3.83135 4.87323V17.4173H3.81048C2.71874 17.4173 1.83052 16.5419 1.83052 15.466V3.09898C1.83052 2.07864 2.62941 1.23919 3.64302 1.15511L12.7643 8.42158C12.8559 8.49466 12.9673 8.53118 13.0787 8.53118C13.1901 8.53118 13.3014 8.49466 13.3931 8.42158L22.5155 1.15412C23.5349 1.23244 24.3404 2.07449 24.3404 3.09893V15.4659Z" fill="url(#paint0_linear)"/>
</g>
<defs>
<linearGradient id="paint0_linear" x1="13.0854" y1="0.161621" x2="13.0854" y2="18.4033" gradientUnits="userSpaceOnUse">
<stop stop-color="#AEFFF1"/>
<stop offset="1" stop-color="#D0EBFF"/>
</linearGradient>
<clipPath id="clip0">
<rect width="24.5107" height="17.9745" fill="white" transform="translate(0.830078 0.161621)"/>
</clipPath>
</defs>
</svg>
