<svg width="198" height="341" viewBox="0 0 198 341" fill="none" xmlns="http://www.w3.org/2000/svg">
<g clip-path="url(#clip0)">
<rect x="198" width="341" height="198" rx="3.06764" transform="rotate(90 198 0)" fill="url(#paint0_radial)"/>
<path d="M197.904 0.034097L197.798 41.6733C188.49 41.1746 179.6 37.9246 177.247 31.0168C176.647 29.2829 175.929 27.576 175.097 25.9036C174.269 24.2389 173.308 22.6179 172.22 21.0504C167.558 13.1063 158.136 9.70554 149.325 5.09667C146.838 3.7591 144.754 1.99992 143.224 -0.0543407L197.904 0.034097Z" fill="url(#paint1_linear)"/>
<path d="M0.000112268 0.0941561L0.106697 41.7333C9.41458 41.2346 18.3047 37.9847 20.6569 31.0769C21.2571 29.3429 21.9748 27.636 22.8068 25.9637C23.6352 24.2989 24.5964 22.6779 25.6845 21.1105C30.3461 13.1663 39.7683 9.7656 48.5789 5.15673C51.0666 3.81916 53.1504 2.05998 54.6805 0.00571785L0.000112268 0.0941561Z" fill="url(#paint2_linear)"/>
<path opacity="0.15" d="M150.35 0.711668C160.498 5.80635 171.014 9.6514 176.852 17.8272C178.2 19.4726 179.426 21.1791 180.523 22.938C181.635 24.7123 182.644 26.5518 183.524 28.4249C185.981 33.6885 191.494 36.95 197.796 38.5489L197.788 41.6733C188.481 41.1746 179.59 37.9246 177.238 31.0168C176.638 29.2828 175.92 27.576 175.088 25.9036C174.26 24.2389 173.299 22.6178 172.211 21.0504C167.549 13.1063 158.127 9.70552 149.316 5.09665C146.832 3.75826 144.751 1.99915 143.224 -0.0543407L148.977 -0.0450364C149.417 0.212007 149.873 0.466656 150.35 0.711668Z" fill="white"/>
<path opacity="0.15" d="M47.5546 0.771727C37.4067 5.8664 26.8905 9.71146 21.0521 17.8872C19.7044 19.5326 18.4787 21.2391 17.3811 22.998C16.2691 24.7724 15.2608 26.6119 14.3803 28.485C11.9235 33.7486 6.41024 37.01 0.10784 38.609L0.115838 41.7333C9.42372 41.2346 18.3138 37.9847 20.666 31.0768C21.2663 29.3429 21.984 27.636 22.816 25.9637C23.6444 24.2989 24.6056 22.6779 25.6936 21.1105C30.3553 13.1663 39.7774 9.76558 48.588 5.15671C51.0724 3.81832 53.153 2.05921 54.6805 0.00571785L48.9277 0.0150222C48.4873 0.272066 48.0316 0.526715 47.5546 0.771727Z" fill="white"/>
<path d="M37.3623 245.49H33.6423L32.8723 247.24H31.8423L35.0123 240.24H36.0023L39.1823 247.24H38.1323L37.3623 245.49ZM37.0123 244.69L35.5023 241.26L33.9923 244.69H37.0123ZM42.0077 247.3C41.5744 247.3 41.1577 247.243 40.7577 247.13C40.3577 247.01 40.0444 246.86 39.8177 246.68L40.2177 245.92C40.4511 246.087 40.7344 246.22 41.0677 246.32C41.4011 246.42 41.7377 246.47 42.0777 246.47C42.9177 246.47 43.3377 246.23 43.3377 245.75C43.3377 245.59 43.2811 245.463 43.1677 245.37C43.0544 245.277 42.9111 245.21 42.7377 245.17C42.5711 245.123 42.3311 245.073 42.0177 245.02C41.5911 244.953 41.2411 244.877 40.9677 244.79C40.7011 244.703 40.4711 244.557 40.2777 244.35C40.0844 244.143 39.9877 243.853 39.9877 243.48C39.9877 243 40.1877 242.617 40.5877 242.33C40.9877 242.037 41.5244 241.89 42.1977 241.89C42.5511 241.89 42.9044 241.933 43.2577 242.02C43.6111 242.107 43.9011 242.223 44.1277 242.37L43.7177 243.13C43.2844 242.85 42.7744 242.71 42.1877 242.71C41.7811 242.71 41.4711 242.777 41.2577 242.91C41.0444 243.043 40.9377 243.22 40.9377 243.44C40.9377 243.613 40.9977 243.75 41.1177 243.85C41.2377 243.95 41.3844 244.023 41.5577 244.07C41.7377 244.117 41.9877 244.17 42.3077 244.23C42.7344 244.303 43.0777 244.383 43.3377 244.47C43.6044 244.55 43.8311 244.69 44.0177 244.89C44.2044 245.09 44.2977 245.37 44.2977 245.73C44.2977 246.21 44.0911 246.593 43.6777 246.88C43.2711 247.16 42.7144 247.3 42.0077 247.3ZM47.4675 247.3C47.0342 247.3 46.6175 247.243 46.2175 247.13C45.8175 247.01 45.5042 246.86 45.2775 246.68L45.6775 245.92C45.9108 246.087 46.1942 246.22 46.5275 246.32C46.8608 246.42 47.1975 246.47 47.5375 246.47C48.3775 246.47 48.7975 246.23 48.7975 245.75C48.7975 245.59 48.7408 245.463 48.6275 245.37C48.5142 245.277 48.3708 245.21 48.1975 245.17C48.0308 245.123 47.7908 245.073 47.4775 245.02C47.0508 244.953 46.7008 244.877 46.4275 244.79C46.1608 244.703 45.9308 244.557 45.7375 244.35C45.5442 244.143 45.4475 243.853 45.4475 243.48C45.4475 243 45.6475 242.617 46.0475 242.33C46.4475 242.037 46.9842 241.89 47.6575 241.89C48.0108 241.89 48.3642 241.933 48.7175 242.02C49.0708 242.107 49.3608 242.223 49.5875 242.37L49.1775 243.13C48.7442 242.85 48.2342 242.71 47.6475 242.71C47.2408 242.71 46.9308 242.777 46.7175 242.91C46.5042 243.043 46.3975 243.22 46.3975 243.44C46.3975 243.613 46.4575 243.75 46.5775 243.85C46.6975 243.95 46.8442 244.023 47.0175 244.07C47.1975 244.117 47.4475 244.17 47.7675 244.23C48.1942 244.303 48.5375 244.383 48.7975 244.47C49.0642 244.55 49.2908 244.69 49.4775 244.89C49.6642 245.09 49.7575 245.37 49.7575 245.73C49.7575 246.21 49.5508 246.593 49.1375 246.88C48.7308 247.16 48.1742 247.3 47.4675 247.3ZM53.6773 247.3C53.1506 247.3 52.6773 247.183 52.2573 246.95C51.8373 246.717 51.5073 246.397 51.2673 245.99C51.0339 245.577 50.9173 245.11 50.9173 244.59C50.9173 244.07 51.0339 243.607 51.2673 243.2C51.5073 242.787 51.8373 242.467 52.2573 242.24C52.6773 242.007 53.1506 241.89 53.6773 241.89C54.2039 241.89 54.6739 242.007 55.0873 242.24C55.5073 242.467 55.8339 242.787 56.0673 243.2C56.3073 243.607 56.4273 244.07 56.4273 244.59C56.4273 245.11 56.3073 245.577 56.0673 245.99C55.8339 246.397 55.5073 246.717 55.0873 246.95C54.6739 247.183 54.2039 247.3 53.6773 247.3ZM53.6773 246.46C54.0173 246.46 54.3206 246.383 54.5873 246.23C54.8606 246.07 55.0739 245.85 55.2273 245.57C55.3806 245.283 55.4573 244.957 55.4573 244.59C55.4573 244.223 55.3806 243.9 55.2273 243.62C55.0739 243.333 54.8606 243.113 54.5873 242.96C54.3206 242.807 54.0173 242.73 53.6773 242.73C53.3373 242.73 53.0306 242.807 52.7573 242.96C52.4906 243.113 52.2773 243.333 52.1173 243.62C51.9639 243.9 51.8873 244.223 51.8873 244.59C51.8873 244.957 51.9639 245.283 52.1173 245.57C52.2773 245.85 52.4906 246.07 52.7573 246.23C53.0306 246.383 53.3373 246.46 53.6773 246.46ZM60.5149 247.3C59.9749 247.3 59.4916 247.183 59.0649 246.95C58.6449 246.717 58.3149 246.397 58.0749 245.99C57.8349 245.577 57.7149 245.11 57.7149 244.59C57.7149 244.07 57.8349 243.607 58.0749 243.2C58.3149 242.787 58.6449 242.467 59.0649 242.24C59.4916 242.007 59.9749 241.89 60.5149 241.89C60.9949 241.89 61.4216 241.987 61.7949 242.18C62.1749 242.373 62.4683 242.653 62.6749 243.02L61.9449 243.49C61.7783 243.237 61.5716 243.047 61.3249 242.92C61.0783 242.793 60.8049 242.73 60.5049 242.73C60.1583 242.73 59.8449 242.807 59.5649 242.96C59.2916 243.113 59.0749 243.333 58.9149 243.62C58.7616 243.9 58.6849 244.223 58.6849 244.59C58.6849 244.963 58.7616 245.293 58.9149 245.58C59.0749 245.86 59.2916 246.077 59.5649 246.23C59.8449 246.383 60.1583 246.46 60.5049 246.46C60.8049 246.46 61.0783 246.397 61.3249 246.27C61.5716 246.143 61.7783 245.953 61.9449 245.7L62.6749 246.16C62.4683 246.527 62.1749 246.81 61.7949 247.01C61.4216 247.203 60.9949 247.3 60.5149 247.3ZM64.3678 241.94H65.3278V247.24H64.3678V241.94ZM64.8478 240.92C64.6611 240.92 64.5045 240.86 64.3778 240.74C64.2578 240.62 64.1978 240.473 64.1978 240.3C64.1978 240.127 64.2578 239.98 64.3778 239.86C64.5045 239.733 64.6611 239.67 64.8478 239.67C65.0345 239.67 65.1878 239.73 65.3078 239.85C65.4345 239.963 65.4978 240.107 65.4978 240.28C65.4978 240.46 65.4345 240.613 65.3078 240.74C65.1878 240.86 65.0345 240.92 64.8478 240.92ZM69.5408 241.89C70.2741 241.89 70.8341 242.07 71.2208 242.43C71.6141 242.79 71.8108 243.327 71.8108 244.04V247.24H70.9008V246.54C70.7408 246.787 70.5108 246.977 70.2108 247.11C69.9174 247.237 69.5674 247.3 69.1608 247.3C68.5674 247.3 68.0908 247.157 67.7308 246.87C67.3774 246.583 67.2008 246.207 67.2008 245.74C67.2008 245.273 67.3708 244.9 67.7108 244.62C68.0508 244.333 68.5908 244.19 69.3308 244.19H70.8508V244C70.8508 243.587 70.7308 243.27 70.4908 243.05C70.2508 242.83 69.8974 242.72 69.4308 242.72C69.1174 242.72 68.8108 242.773 68.5108 242.88C68.2108 242.98 67.9574 243.117 67.7508 243.29L67.3508 242.57C67.6241 242.35 67.9508 242.183 68.3308 242.07C68.7108 241.95 69.1141 241.89 69.5408 241.89ZM69.3208 246.56C69.6874 246.56 70.0041 246.48 70.2708 246.32C70.5374 246.153 70.7308 245.92 70.8508 245.62V244.88H69.3708C68.5574 244.88 68.1508 245.153 68.1508 245.7C68.1508 245.967 68.2541 246.177 68.4608 246.33C68.6674 246.483 68.9541 246.56 69.3208 246.56ZM77.0173 246.93C76.8773 247.05 76.704 247.143 76.4973 247.21C76.2907 247.27 76.0773 247.3 75.8573 247.3C75.324 247.3 74.9107 247.157 74.6173 246.87C74.324 246.583 74.1773 246.173 74.1773 245.64V242.73H73.2773V241.94H74.1773V240.78H75.1373V241.94H76.6573V242.73H75.1373V245.6C75.1373 245.887 75.2073 246.107 75.3473 246.26C75.494 246.413 75.7007 246.49 75.9673 246.49C76.2607 246.49 76.5107 246.407 76.7173 246.24L77.0173 246.93ZM83.2422 244.62C83.2422 244.693 83.2355 244.79 83.2222 244.91H78.9222C78.9822 245.377 79.1855 245.753 79.5322 246.04C79.8855 246.32 80.3222 246.46 80.8422 246.46C81.4755 246.46 81.9855 246.247 82.3722 245.82L82.9022 246.44C82.6622 246.72 82.3622 246.933 82.0022 247.08C81.6488 247.227 81.2522 247.3 80.8122 247.3C80.2522 247.3 79.7555 247.187 79.3222 246.96C78.8888 246.727 78.5522 246.403 78.3122 245.99C78.0788 245.577 77.9622 245.11 77.9622 244.59C77.9622 244.077 78.0755 243.613 78.3022 243.2C78.5355 242.787 78.8522 242.467 79.2522 242.24C79.6588 242.007 80.1155 241.89 80.6222 241.89C81.1288 241.89 81.5788 242.007 81.9722 242.24C82.3722 242.467 82.6822 242.787 82.9022 243.2C83.1288 243.613 83.2422 244.087 83.2422 244.62ZM80.6222 242.7C80.1622 242.7 79.7755 242.84 79.4622 243.12C79.1555 243.4 78.9755 243.767 78.9222 244.22H82.3222C82.2688 243.773 82.0855 243.41 81.7722 243.13C81.4655 242.843 81.0822 242.7 80.6222 242.7ZM94.3808 240.24L91.3108 247.24H90.3208L87.2408 240.24H88.3208L90.8408 245.99L93.3808 240.24H94.3808ZM95.5932 241.94H96.5532V247.24H95.5932V241.94ZM96.0732 240.92C95.8865 240.92 95.7299 240.86 95.6032 240.74C95.4832 240.62 95.4232 240.473 95.4232 240.3C95.4232 240.127 95.4832 239.98 95.6032 239.86C95.7299 239.733 95.8865 239.67 96.0732 239.67C96.2599 239.67 96.4132 239.73 96.5332 239.85C96.6599 239.963 96.7232 240.107 96.7232 240.28C96.7232 240.46 96.6599 240.613 96.5332 240.74C96.4132 240.86 96.2599 240.92 96.0732 240.92ZM101.146 247.3C100.606 247.3 100.123 247.183 99.6962 246.95C99.2762 246.717 98.9462 246.397 98.7062 245.99C98.4662 245.577 98.3462 245.11 98.3462 244.59C98.3462 244.07 98.4662 243.607 98.7062 243.2C98.9462 242.787 99.2762 242.467 99.6962 242.24C100.123 242.007 100.606 241.89 101.146 241.89C101.626 241.89 102.053 241.987 102.426 242.18C102.806 242.373 103.1 242.653 103.306 243.02L102.576 243.49C102.41 243.237 102.203 243.047 101.956 242.92C101.71 242.793 101.436 242.73 101.136 242.73C100.79 242.73 100.476 242.807 100.196 242.96C99.9228 243.113 99.7062 243.333 99.5462 243.62C99.3928 243.9 99.3162 244.223 99.3162 244.59C99.3162 244.963 99.3928 245.293 99.5462 245.58C99.7062 245.86 99.9228 246.077 100.196 246.23C100.476 246.383 100.79 246.46 101.136 246.46C101.436 246.46 101.71 246.397 101.956 246.27C102.203 246.143 102.41 245.953 102.576 245.7L103.306 246.16C103.1 246.527 102.806 246.81 102.426 247.01C102.053 247.203 101.626 247.3 101.146 247.3ZM109.711 244.62C109.711 244.693 109.704 244.79 109.691 244.91H105.391C105.451 245.377 105.654 245.753 106.001 246.04C106.354 246.32 106.791 246.46 107.311 246.46C107.944 246.46 108.454 246.247 108.841 245.82L109.371 246.44C109.131 246.72 108.831 246.933 108.471 247.08C108.118 247.227 107.721 247.3 107.281 247.3C106.721 247.3 106.224 247.187 105.791 246.96C105.358 246.727 105.021 246.403 104.781 245.99C104.548 245.577 104.431 245.11 104.431 244.59C104.431 244.077 104.544 243.613 104.771 243.2C105.004 242.787 105.321 242.467 105.721 242.24C106.128 242.007 106.584 241.89 107.091 241.89C107.598 241.89 108.048 242.007 108.441 242.24C108.841 242.467 109.151 242.787 109.371 243.2C109.598 243.613 109.711 244.087 109.711 244.62ZM107.091 242.7C106.631 242.7 106.244 242.84 105.931 243.12C105.624 243.4 105.444 243.767 105.391 244.22H108.791C108.738 243.773 108.554 243.41 108.241 243.13C107.934 242.843 107.551 242.7 107.091 242.7ZM117.5 240.24C118.406 240.24 119.12 240.457 119.64 240.89C120.16 241.323 120.42 241.92 120.42 242.68C120.42 243.44 120.16 244.037 119.64 244.47C119.12 244.903 118.406 245.12 117.5 245.12H115.77V247.24H114.77V240.24H117.5ZM117.47 244.25C118.103 244.25 118.586 244.117 118.92 243.85C119.253 243.577 119.42 243.187 119.42 242.68C119.42 242.173 119.253 241.787 118.92 241.52C118.586 241.247 118.103 241.11 117.47 241.11H115.77V244.25H117.47ZM123.031 242.83C123.197 242.523 123.444 242.29 123.771 242.13C124.097 241.97 124.494 241.89 124.961 241.89V242.82C124.907 242.813 124.834 242.81 124.741 242.81C124.221 242.81 123.811 242.967 123.511 243.28C123.217 243.587 123.071 244.027 123.071 244.6V247.24H122.111V241.94H123.031V242.83ZM131.335 244.62C131.335 244.693 131.328 244.79 131.315 244.91H127.015C127.075 245.377 127.278 245.753 127.625 246.04C127.978 246.32 128.415 246.46 128.935 246.46C129.568 246.46 130.078 246.247 130.465 245.82L130.995 246.44C130.755 246.72 130.455 246.933 130.095 247.08C129.742 247.227 129.345 247.3 128.905 247.3C128.345 247.3 127.848 247.187 127.415 246.96C126.982 246.727 126.645 246.403 126.405 245.99C126.172 245.577 126.055 245.11 126.055 244.59C126.055 244.077 126.168 243.613 126.395 243.2C126.628 242.787 126.945 242.467 127.345 242.24C127.752 242.007 128.208 241.89 128.715 241.89C129.222 241.89 129.672 242.007 130.065 242.24C130.465 242.467 130.775 242.787 130.995 243.2C131.222 243.613 131.335 244.087 131.335 244.62ZM128.715 242.7C128.255 242.7 127.868 242.84 127.555 243.12C127.248 243.4 127.068 243.767 127.015 244.22H130.415C130.362 243.773 130.178 243.41 129.865 243.13C129.558 242.843 129.175 242.7 128.715 242.7ZM134.638 247.3C134.205 247.3 133.788 247.243 133.388 247.13C132.988 247.01 132.675 246.86 132.448 246.68L132.848 245.92C133.082 246.087 133.365 246.22 133.698 246.32C134.032 246.42 134.368 246.47 134.708 246.47C135.548 246.47 135.968 246.23 135.968 245.75C135.968 245.59 135.912 245.463 135.798 245.37C135.685 245.277 135.542 245.21 135.368 245.17C135.202 245.123 134.962 245.073 134.648 245.02C134.222 244.953 133.872 244.877 133.598 244.79C133.332 244.703 133.102 244.557 132.908 244.35C132.715 244.143 132.618 243.853 132.618 243.48C132.618 243 132.818 242.617 133.218 242.33C133.618 242.037 134.155 241.89 134.828 241.89C135.182 241.89 135.535 241.933 135.888 242.02C136.242 242.107 136.532 242.223 136.758 242.37L136.348 243.13C135.915 242.85 135.405 242.71 134.818 242.71C134.412 242.71 134.102 242.777 133.888 242.91C133.675 243.043 133.568 243.22 133.568 243.44C133.568 243.613 133.628 243.75 133.748 243.85C133.868 243.95 134.015 244.023 134.188 244.07C134.368 244.117 134.618 244.17 134.938 244.23C135.365 244.303 135.708 244.383 135.968 244.47C136.235 244.55 136.462 244.69 136.648 244.89C136.835 245.09 136.928 245.37 136.928 245.73C136.928 246.21 136.722 246.593 136.308 246.88C135.902 247.16 135.345 247.3 134.638 247.3ZM138.578 241.94H139.538V247.24H138.578V241.94ZM139.058 240.92C138.871 240.92 138.715 240.86 138.588 240.74C138.468 240.62 138.408 240.473 138.408 240.3C138.408 240.127 138.468 239.98 138.588 239.86C138.715 239.733 138.871 239.67 139.058 239.67C139.245 239.67 139.398 239.73 139.518 239.85C139.645 239.963 139.708 240.107 139.708 240.28C139.708 240.46 139.645 240.613 139.518 240.74C139.398 240.86 139.245 240.92 139.058 240.92ZM146.821 239.82V247.24H145.901V246.4C145.688 246.693 145.418 246.917 145.091 247.07C144.764 247.223 144.404 247.3 144.011 247.3C143.498 247.3 143.038 247.187 142.631 246.96C142.224 246.733 141.904 246.417 141.671 246.01C141.444 245.597 141.331 245.123 141.331 244.59C141.331 244.057 141.444 243.587 141.671 243.18C141.904 242.773 142.224 242.457 142.631 242.23C143.038 242.003 143.498 241.89 144.011 241.89C144.391 241.89 144.741 241.963 145.061 242.11C145.381 242.25 145.648 242.46 145.861 242.74V239.82H146.821ZM144.091 246.46C144.424 246.46 144.728 246.383 145.001 246.23C145.274 246.07 145.488 245.85 145.641 245.57C145.794 245.283 145.871 244.957 145.871 244.59C145.871 244.223 145.794 243.9 145.641 243.62C145.488 243.333 145.274 243.113 145.001 242.96C144.728 242.807 144.424 242.73 144.091 242.73C143.751 242.73 143.444 242.807 143.171 242.96C142.904 243.113 142.691 243.333 142.531 243.62C142.378 243.9 142.301 244.223 142.301 244.59C142.301 244.957 142.378 245.283 142.531 245.57C142.691 245.85 142.904 246.07 143.171 246.23C143.444 246.383 143.751 246.46 144.091 246.46ZM153.877 244.62C153.877 244.693 153.871 244.79 153.857 244.91H149.557C149.617 245.377 149.821 245.753 150.167 246.04C150.521 246.32 150.957 246.46 151.477 246.46C152.111 246.46 152.621 246.247 153.007 245.82L153.537 246.44C153.297 246.72 152.997 246.933 152.637 247.08C152.284 247.227 151.887 247.3 151.447 247.3C150.887 247.3 150.391 247.187 149.957 246.96C149.524 246.727 149.187 246.403 148.947 245.99C148.714 245.577 148.597 245.11 148.597 244.59C148.597 244.077 148.711 243.613 148.937 243.2C149.171 242.787 149.487 242.467 149.887 242.24C150.294 242.007 150.751 241.89 151.257 241.89C151.764 241.89 152.214 242.007 152.607 242.24C153.007 242.467 153.317 242.787 153.537 243.2C153.764 243.613 153.877 244.087 153.877 244.62ZM151.257 242.7C150.797 242.7 150.411 242.84 150.097 243.12C149.791 243.4 149.611 243.767 149.557 244.22H152.957C152.904 243.773 152.721 243.41 152.407 243.13C152.101 242.843 151.717 242.7 151.257 242.7ZM158.49 241.89C159.164 241.89 159.697 242.087 160.09 242.48C160.49 242.867 160.69 243.437 160.69 244.19V247.24H159.73V244.3C159.73 243.787 159.607 243.4 159.36 243.14C159.114 242.88 158.76 242.75 158.3 242.75C157.78 242.75 157.37 242.903 157.07 243.21C156.77 243.51 156.62 243.943 156.62 244.51V247.24H155.66V241.94H156.58V242.74C156.774 242.467 157.034 242.257 157.36 242.11C157.694 241.963 158.07 241.89 158.49 241.89ZM165.897 246.93C165.757 247.05 165.584 247.143 165.377 247.21C165.17 247.27 164.957 247.3 164.737 247.3C164.204 247.3 163.79 247.157 163.497 246.87C163.204 246.583 163.057 246.173 163.057 245.64V242.73H162.157V241.94H163.057V240.78H164.017V241.94H165.537V242.73H164.017V245.6C164.017 245.887 164.087 246.107 164.227 246.26C164.374 246.413 164.58 246.49 164.847 246.49C165.14 246.49 165.39 246.407 165.597 246.24L165.897 246.93ZM89.0786 255.84H86.1026L85.4866 257.24H84.6626L87.1986 251.64H87.9906L90.5346 257.24H89.6946L89.0786 255.84ZM88.7986 255.2L87.5906 252.456L86.3826 255.2H88.7986ZM91.73 251.64H94.09C94.682 251.64 95.2073 251.757 95.666 251.992C96.1247 252.227 96.4793 252.557 96.73 252.984C96.986 253.405 97.114 253.891 97.114 254.44C97.114 254.989 96.986 255.477 96.73 255.904C96.4793 256.325 96.1247 256.653 95.666 256.888C95.2073 257.123 94.682 257.24 94.09 257.24H91.73V251.64ZM94.042 256.544C94.4953 256.544 94.8927 256.456 95.234 256.28C95.5807 256.104 95.8473 255.859 96.034 255.544C96.2207 255.224 96.314 254.856 96.314 254.44C96.314 254.024 96.2207 253.659 96.034 253.344C95.8473 253.024 95.5807 252.776 95.234 252.6C94.8927 252.424 94.4953 252.336 94.042 252.336H92.53V256.544H94.042ZM102.189 255.84H99.2133L98.5973 257.24H97.7732L100.309 251.64H101.101L103.645 257.24H102.805L102.189 255.84ZM101.909 255.2L100.701 252.456L99.4933 255.2H101.909ZM109.657 251.64V257.24H109.001L105.641 253.064V257.24H104.841V251.64H105.497L108.857 255.816V251.64H109.657ZM111.693 251.64H112.493V257.24H111.693V251.64ZM74.4982 270.544V271.24H70.4342V265.64H74.3862V266.336H71.2342V268.056H74.0422V268.736H71.2342V270.544H74.4982ZM78.6518 271.24L77.4278 269.616L76.1878 271.24H75.3318L77.0038 269.072L75.4118 267H76.2678L77.4358 268.528L78.5958 267H79.4358L77.8358 269.072L79.5238 271.24H78.6518ZM80.2624 268.712H82.4144V269.376H80.2624V268.712ZM89.0813 271.304C88.5213 271.304 88.0147 271.181 87.5613 270.936C87.1133 270.685 86.7613 270.344 86.5053 269.912C86.2493 269.475 86.1213 268.984 86.1213 268.44C86.1213 267.896 86.2493 267.408 86.5053 266.976C86.7613 266.539 87.116 266.197 87.5693 265.952C88.0227 265.701 88.5293 265.576 89.0893 265.576C89.5267 265.576 89.9267 265.651 90.2893 265.8C90.652 265.944 90.9613 266.16 91.2173 266.448L90.6973 266.952C90.276 266.509 89.7507 266.288 89.1213 266.288C88.7053 266.288 88.3293 266.381 87.9933 266.568C87.6573 266.755 87.3933 267.013 87.2013 267.344C87.0147 267.669 86.9213 268.035 86.9213 268.44C86.9213 268.845 87.0147 269.213 87.2013 269.544C87.3933 269.869 87.6573 270.125 87.9933 270.312C88.3293 270.499 88.7053 270.592 89.1213 270.592C89.7453 270.592 90.2707 270.368 90.6973 269.92L91.2173 270.424C90.9613 270.712 90.6493 270.931 90.2813 271.08C89.9187 271.229 89.5187 271.304 89.0813 271.304ZM94.8706 266.96C95.4093 266.96 95.8359 267.117 96.1506 267.432C96.4706 267.741 96.6306 268.197 96.6306 268.8V271.24H95.8626V268.888C95.8626 268.477 95.7639 268.168 95.5666 267.96C95.3693 267.752 95.0866 267.648 94.7186 267.648C94.3026 267.648 93.9746 267.771 93.7346 268.016C93.4946 268.256 93.3746 268.603 93.3746 269.056V271.24H92.6066V265.304H93.3746V267.6C93.5346 267.397 93.7426 267.24 93.9986 267.128C94.2599 267.016 94.5506 266.96 94.8706 266.96ZM99.9559 266.96C100.543 266.96 100.991 267.104 101.3 267.392C101.615 267.68 101.772 268.109 101.772 268.68V271.24H101.044V270.68C100.916 270.877 100.732 271.029 100.492 271.136C100.257 271.237 99.9772 271.288 99.6519 271.288C99.1772 271.288 98.7959 271.173 98.5079 270.944C98.2252 270.715 98.0839 270.413 98.0839 270.04C98.0839 269.667 98.2199 269.368 98.4919 269.144C98.7639 268.915 99.1959 268.8 99.7879 268.8H101.004V268.648C101.004 268.317 100.908 268.064 100.716 267.888C100.524 267.712 100.241 267.624 99.8679 267.624C99.6172 267.624 99.3719 267.667 99.1319 267.752C98.8919 267.832 98.6892 267.941 98.5239 268.08L98.2039 267.504C98.4226 267.328 98.6839 267.195 98.9879 267.104C99.2919 267.008 99.6146 266.96 99.9559 266.96ZM99.7799 270.696C100.073 270.696 100.327 270.632 100.54 270.504C100.753 270.371 100.908 270.184 101.004 269.944V269.352H99.8199C99.1692 269.352 98.8439 269.571 98.8439 270.008C98.8439 270.221 98.9266 270.389 99.0919 270.512C99.2572 270.635 99.4866 270.696 99.7799 270.696ZM103.553 267H104.321V271.24H103.553V267ZM103.937 266.184C103.788 266.184 103.662 266.136 103.561 266.04C103.465 265.944 103.417 265.827 103.417 265.688C103.417 265.549 103.465 265.432 103.561 265.336C103.662 265.235 103.788 265.184 103.937 265.184C104.086 265.184 104.209 265.232 104.305 265.328C104.406 265.419 104.457 265.533 104.457 265.672C104.457 265.816 104.406 265.939 104.305 266.04C104.209 266.136 104.086 266.184 103.937 266.184ZM106.884 267.712C107.017 267.467 107.214 267.28 107.476 267.152C107.737 267.024 108.054 266.96 108.428 266.96V267.704C108.385 267.699 108.326 267.696 108.252 267.696C107.836 267.696 107.508 267.821 107.268 268.072C107.033 268.317 106.916 268.669 106.916 269.128V271.24H106.148V267H106.884V267.712ZM115.038 266.96C115.571 266.96 115.993 267.115 116.302 267.424C116.617 267.733 116.774 268.192 116.774 268.8V271.24H116.006V268.888C116.006 268.477 115.91 268.168 115.718 267.96C115.531 267.752 115.262 267.648 114.91 267.648C114.521 267.648 114.211 267.771 113.982 268.016C113.753 268.256 113.638 268.603 113.638 269.056V271.24H112.87V268.888C112.87 268.477 112.774 268.168 112.582 267.96C112.395 267.752 112.126 267.648 111.774 267.648C111.385 267.648 111.075 267.771 110.846 268.016C110.617 268.256 110.502 268.603 110.502 269.056V271.24H109.734V267H110.47V267.632C110.625 267.413 110.827 267.248 111.078 267.136C111.329 267.019 111.614 266.96 111.934 266.96C112.265 266.96 112.558 267.027 112.814 267.16C113.07 267.293 113.267 267.488 113.406 267.744C113.566 267.499 113.787 267.307 114.07 267.168C114.358 267.029 114.681 266.96 115.038 266.96ZM120.091 266.96C120.678 266.96 121.126 267.104 121.435 267.392C121.75 267.68 121.907 268.109 121.907 268.68V271.24H121.179V270.68C121.051 270.877 120.867 271.029 120.627 271.136C120.393 271.237 120.113 271.288 119.787 271.288C119.313 271.288 118.931 271.173 118.643 270.944C118.361 270.715 118.219 270.413 118.219 270.04C118.219 269.667 118.355 269.368 118.627 269.144C118.899 268.915 119.331 268.8 119.923 268.8H121.139V268.648C121.139 268.317 121.043 268.064 120.851 267.888C120.659 267.712 120.377 267.624 120.003 267.624C119.753 267.624 119.507 267.667 119.267 267.752C119.027 267.832 118.825 267.941 118.659 268.08L118.339 267.504C118.558 267.328 118.819 267.195 119.123 267.104C119.427 267.008 119.75 266.96 120.091 266.96ZM119.915 270.696C120.209 270.696 120.462 270.632 120.675 270.504C120.889 270.371 121.043 270.184 121.139 269.944V269.352H119.955C119.305 269.352 118.979 269.571 118.979 270.008C118.979 270.221 119.062 270.389 119.227 270.512C119.393 270.635 119.622 270.696 119.915 270.696ZM125.952 266.96C126.491 266.96 126.918 267.117 127.232 267.432C127.552 267.741 127.712 268.197 127.712 268.8V271.24H126.944V268.888C126.944 268.477 126.846 268.168 126.648 267.96C126.451 267.752 126.168 267.648 125.8 267.648C125.384 267.648 125.056 267.771 124.816 268.016C124.576 268.256 124.456 268.603 124.456 269.056V271.24H123.688V267H124.424V267.64C124.579 267.421 124.787 267.253 125.048 267.136C125.315 267.019 125.616 266.96 125.952 266.96ZM41.0513 281.304C40.4913 281.304 39.9847 281.181 39.5313 280.936C39.0833 280.685 38.7313 280.344 38.4753 279.912C38.2193 279.475 38.0913 278.984 38.0913 278.44C38.0913 277.896 38.2193 277.408 38.4753 276.976C38.7313 276.539 39.086 276.197 39.5393 275.952C39.9927 275.701 40.4993 275.576 41.0593 275.576C41.4967 275.576 41.8967 275.651 42.2593 275.8C42.622 275.944 42.9313 276.16 43.1873 276.448L42.6673 276.952C42.246 276.509 41.7207 276.288 41.0913 276.288C40.6753 276.288 40.2993 276.381 39.9633 276.568C39.6273 276.755 39.3633 277.013 39.1713 277.344C38.9847 277.669 38.8913 278.035 38.8913 278.44C38.8913 278.845 38.9847 279.213 39.1713 279.544C39.3633 279.869 39.6273 280.125 39.9633 280.312C40.2993 280.499 40.6753 280.592 41.0913 280.592C41.7153 280.592 42.2407 280.368 42.6673 279.92L43.1873 280.424C42.9313 280.712 42.6193 280.931 42.2513 281.08C41.8887 281.229 41.4887 281.304 41.0513 281.304ZM46.0659 276.96C46.6526 276.96 47.1006 277.104 47.4099 277.392C47.7246 277.68 47.8819 278.109 47.8819 278.68V281.24H47.1539V280.68C47.0259 280.877 46.8419 281.029 46.6019 281.136C46.3672 281.237 46.0872 281.288 45.7619 281.288C45.2872 281.288 44.9059 281.173 44.6179 280.944C44.3352 280.715 44.1939 280.413 44.1939 280.04C44.1939 279.667 44.3299 279.368 44.6019 279.144C44.8739 278.915 45.3059 278.8 45.8979 278.8H47.1139V278.648C47.1139 278.317 47.0179 278.064 46.8259 277.888C46.6339 277.712 46.3512 277.624 45.9779 277.624C45.7272 277.624 45.4819 277.667 45.2419 277.752C45.0019 277.832 44.7992 277.941 44.6339 278.08L44.3139 277.504C44.5326 277.328 44.7939 277.195 45.0979 277.104C45.4019 277.008 45.7246 276.96 46.0659 276.96ZM45.8899 280.696C46.1832 280.696 46.4366 280.632 46.6499 280.504C46.8632 280.371 47.0179 280.184 47.1139 279.944V279.352H45.9299C45.2792 279.352 44.9539 279.571 44.9539 280.008C44.9539 280.221 45.0366 280.389 45.2019 280.512C45.3672 280.635 45.5966 280.696 45.8899 280.696ZM50.3992 277.712C50.5325 277.467 50.7298 277.28 50.9912 277.152C51.2525 277.024 51.5698 276.96 51.9432 276.96V277.704C51.9005 277.699 51.8418 277.696 51.7672 277.696C51.3512 277.696 51.0232 277.821 50.7832 278.072C50.5485 278.317 50.4312 278.669 50.4312 279.128V281.24H49.6632V277H50.3992V277.712ZM57.0427 279.144C57.0427 279.203 57.0373 279.28 57.0267 279.376H53.5867C53.6347 279.749 53.7973 280.051 54.0747 280.28C54.3573 280.504 54.7067 280.616 55.1227 280.616C55.6293 280.616 56.0373 280.445 56.3467 280.104L56.7707 280.6C56.5787 280.824 56.3387 280.995 56.0507 281.112C55.768 281.229 55.4507 281.288 55.0987 281.288C54.6507 281.288 54.2533 281.197 53.9067 281.016C53.56 280.829 53.2907 280.571 53.0987 280.24C52.912 279.909 52.8187 279.536 52.8187 279.12C52.8187 278.709 52.9093 278.339 53.0907 278.008C53.2773 277.677 53.5307 277.421 53.8507 277.24C54.176 277.053 54.5413 276.96 54.9467 276.96C55.352 276.96 55.712 277.053 56.0267 277.24C56.3467 277.421 56.5947 277.677 56.7707 278.008C56.952 278.339 57.0427 278.717 57.0427 279.144ZM54.9467 277.608C54.5787 277.608 54.2693 277.72 54.0187 277.944C53.7733 278.168 53.6293 278.461 53.5867 278.824H56.3067C56.264 278.467 56.1173 278.176 55.8667 277.952C55.6213 277.723 55.3147 277.608 54.9467 277.608ZM62.3011 279.144C62.3011 279.203 62.2958 279.28 62.2851 279.376H58.8451C58.8931 279.749 59.0558 280.051 59.3331 280.28C59.6158 280.504 59.9651 280.616 60.3811 280.616C60.8878 280.616 61.2958 280.445 61.6051 280.104L62.0291 280.6C61.8371 280.824 61.5971 280.995 61.3091 281.112C61.0264 281.229 60.7091 281.288 60.3571 281.288C59.9091 281.288 59.5118 281.197 59.1651 281.016C58.8184 280.829 58.5491 280.571 58.3571 280.24C58.1704 279.909 58.0771 279.536 58.0771 279.12C58.0771 278.709 58.1678 278.339 58.3491 278.008C58.5358 277.677 58.7891 277.421 59.1091 277.24C59.4344 277.053 59.7998 276.96 60.2051 276.96C60.6104 276.96 60.9704 277.053 61.2851 277.24C61.6051 277.421 61.8531 277.677 62.0291 278.008C62.2104 278.339 62.3011 278.717 62.3011 279.144ZM60.2051 277.608C59.8371 277.608 59.5278 277.72 59.2771 277.944C59.0318 278.168 58.8878 278.461 58.8451 278.824H61.5651C61.5224 278.467 61.3758 278.176 61.1251 277.952C60.8798 277.723 60.5731 277.608 60.2051 277.608ZM64.4635 277.712C64.5969 277.467 64.7942 277.28 65.0555 277.152C65.3169 277.024 65.6342 276.96 66.0075 276.96V277.704C65.9649 277.699 65.9062 277.696 65.8315 277.696C65.4155 277.696 65.0875 277.821 64.8475 278.072C64.6129 278.317 64.4955 278.669 64.4955 279.128V281.24H63.7275V277H64.4635V277.712ZM69.9892 275.64H72.3492C72.9412 275.64 73.4666 275.757 73.9252 275.992C74.3839 276.227 74.7386 276.557 74.9892 276.984C75.2452 277.405 75.3732 277.891 75.3732 278.44C75.3732 278.989 75.2452 279.477 74.9892 279.904C74.7386 280.325 74.3839 280.653 73.9252 280.888C73.4666 281.123 72.9412 281.24 72.3492 281.24H69.9892V275.64ZM72.3012 280.544C72.7546 280.544 73.1519 280.456 73.4932 280.28C73.8399 280.104 74.1066 279.859 74.2932 279.544C74.4799 279.224 74.5732 278.856 74.5732 278.44C74.5732 278.024 74.4799 277.659 74.2932 277.344C74.1066 277.024 73.8399 276.776 73.4932 276.6C73.1519 276.424 72.7546 276.336 72.3012 276.336H70.7892V280.544H72.3012ZM80.6786 279.144C80.6786 279.203 80.6733 279.28 80.6626 279.376H77.2226C77.2706 279.749 77.4333 280.051 77.7106 280.28C77.9933 280.504 78.3426 280.616 78.7586 280.616C79.2653 280.616 79.6733 280.445 79.9826 280.104L80.4066 280.6C80.2146 280.824 79.9746 280.995 79.6866 281.112C79.4039 281.229 79.0866 281.288 78.7346 281.288C78.2866 281.288 77.8893 281.197 77.5426 281.016C77.1959 280.829 76.9266 280.571 76.7346 280.24C76.5479 279.909 76.4546 279.536 76.4546 279.12C76.4546 278.709 76.5453 278.339 76.7266 278.008C76.9133 277.677 77.1666 277.421 77.4866 277.24C77.8119 277.053 78.1773 276.96 78.5826 276.96C78.9879 276.96 79.3479 277.053 79.6626 277.24C79.9826 277.421 80.2306 277.677 80.4066 278.008C80.5879 278.339 80.6786 278.717 80.6786 279.144ZM78.5826 277.608C78.2146 277.608 77.9053 277.72 77.6546 277.944C77.4093 278.168 77.2653 278.461 77.2226 278.824H79.9426C79.8999 278.467 79.7533 278.176 79.5026 277.952C79.2573 277.723 78.9506 277.608 78.5826 277.608ZM85.7789 277L83.9229 281.24H83.1389L81.2829 277H82.0829L83.5389 280.4L85.0269 277H85.7789ZM90.5705 279.144C90.5705 279.203 90.5651 279.28 90.5545 279.376H87.1145C87.1625 279.749 87.3251 280.051 87.6025 280.28C87.8851 280.504 88.2345 280.616 88.6505 280.616C89.1571 280.616 89.5651 280.445 89.8745 280.104L90.2985 280.6C90.1065 280.824 89.8665 280.995 89.5785 281.112C89.2958 281.229 88.9785 281.288 88.6265 281.288C88.1785 281.288 87.7811 281.197 87.4345 281.016C87.0878 280.829 86.8185 280.571 86.6265 280.24C86.4398 279.909 86.3465 279.536 86.3465 279.12C86.3465 278.709 86.4371 278.339 86.6185 278.008C86.8051 277.677 87.0585 277.421 87.3785 277.24C87.7038 277.053 88.0691 276.96 88.4745 276.96C88.8798 276.96 89.2398 277.053 89.5545 277.24C89.8745 277.421 90.1225 277.677 90.2985 278.008C90.4798 278.339 90.5705 278.717 90.5705 279.144ZM88.4745 277.608C88.1065 277.608 87.7971 277.72 87.5465 277.944C87.3011 278.168 87.1571 278.461 87.1145 278.824H89.8345C89.7918 278.467 89.6451 278.176 89.3945 277.952C89.1491 277.723 88.8425 277.608 88.4745 277.608ZM91.9969 275.304H92.7649V281.24H91.9969V275.304ZM96.4073 281.288C95.9859 281.288 95.6073 281.195 95.2713 281.008C94.9353 280.821 94.6713 280.565 94.4793 280.24C94.2926 279.909 94.1993 279.536 94.1993 279.12C94.1993 278.704 94.2926 278.333 94.4793 278.008C94.6713 277.677 94.9353 277.421 95.2713 277.24C95.6073 277.053 95.9859 276.96 96.4073 276.96C96.8286 276.96 97.2046 277.053 97.5353 277.24C97.8713 277.421 98.1326 277.677 98.3193 278.008C98.5113 278.333 98.6073 278.704 98.6073 279.12C98.6073 279.536 98.5113 279.909 98.3193 280.24C98.1326 280.565 97.8713 280.821 97.5353 281.008C97.2046 281.195 96.8286 281.288 96.4073 281.288ZM96.4073 280.616C96.6793 280.616 96.9219 280.555 97.1353 280.432C97.3539 280.304 97.5246 280.128 97.6473 279.904C97.7699 279.675 97.8313 279.413 97.8313 279.12C97.8313 278.827 97.7699 278.568 97.6473 278.344C97.5246 278.115 97.3539 277.939 97.1353 277.816C96.9219 277.693 96.6793 277.632 96.4073 277.632C96.1353 277.632 95.8899 277.693 95.6713 277.816C95.4579 277.939 95.2873 278.115 95.1593 278.344C95.0366 278.568 94.9753 278.827 94.9753 279.12C94.9753 279.413 95.0366 279.675 95.1593 279.904C95.2873 280.128 95.4579 280.304 95.6713 280.432C95.8899 280.555 96.1353 280.616 96.4073 280.616ZM102.277 276.96C102.688 276.96 103.056 277.051 103.381 277.232C103.707 277.413 103.96 277.667 104.141 277.992C104.328 278.317 104.421 278.693 104.421 279.12C104.421 279.547 104.328 279.925 104.141 280.256C103.96 280.581 103.707 280.835 103.381 281.016C103.056 281.197 102.688 281.288 102.277 281.288C101.973 281.288 101.693 281.229 101.437 281.112C101.187 280.995 100.973 280.824 100.797 280.6V282.792H100.029V277H100.765V277.672C100.936 277.437 101.152 277.261 101.413 277.144C101.675 277.021 101.963 276.96 102.277 276.96ZM102.213 280.616C102.485 280.616 102.728 280.555 102.941 280.432C103.16 280.304 103.331 280.128 103.453 279.904C103.581 279.675 103.645 279.413 103.645 279.12C103.645 278.827 103.581 278.568 103.453 278.344C103.331 278.115 103.16 277.939 102.941 277.816C102.728 277.693 102.485 277.632 102.213 277.632C101.947 277.632 101.704 277.696 101.485 277.824C101.272 277.947 101.101 278.12 100.973 278.344C100.851 278.568 100.789 278.827 100.789 279.12C100.789 279.413 100.851 279.675 100.973 279.904C101.096 280.128 101.267 280.304 101.485 280.432C101.704 280.555 101.947 280.616 102.213 280.616ZM111.147 276.96C111.68 276.96 112.101 277.115 112.411 277.424C112.725 277.733 112.883 278.192 112.883 278.8V281.24H112.115V278.888C112.115 278.477 112.019 278.168 111.827 277.96C111.64 277.752 111.371 277.648 111.019 277.648C110.629 277.648 110.32 277.771 110.091 278.016C109.861 278.256 109.747 278.603 109.747 279.056V281.24H108.979V278.888C108.979 278.477 108.883 278.168 108.691 277.96C108.504 277.752 108.235 277.648 107.883 277.648C107.493 277.648 107.184 277.771 106.955 278.016C106.725 278.256 106.611 278.603 106.611 279.056V281.24H105.843V277H106.579V277.632C106.733 277.413 106.936 277.248 107.187 277.136C107.437 277.019 107.723 276.96 108.043 276.96C108.373 276.96 108.667 277.027 108.923 277.16C109.179 277.293 109.376 277.488 109.515 277.744C109.675 277.499 109.896 277.307 110.179 277.168C110.467 277.029 110.789 276.96 111.147 276.96ZM118.511 279.144C118.511 279.203 118.506 279.28 118.495 279.376H115.055C115.103 279.749 115.266 280.051 115.543 280.28C115.826 280.504 116.175 280.616 116.591 280.616C117.098 280.616 117.506 280.445 117.815 280.104L118.239 280.6C118.047 280.824 117.807 280.995 117.519 281.112C117.236 281.229 116.919 281.288 116.567 281.288C116.119 281.288 115.722 281.197 115.375 281.016C115.028 280.829 114.759 280.571 114.567 280.24C114.38 279.909 114.287 279.536 114.287 279.12C114.287 278.709 114.378 278.339 114.559 278.008C114.746 277.677 114.999 277.421 115.319 277.24C115.644 277.053 116.01 276.96 116.415 276.96C116.82 276.96 117.18 277.053 117.495 277.24C117.815 277.421 118.063 277.677 118.239 278.008C118.42 278.339 118.511 278.717 118.511 279.144ZM116.415 277.608C116.047 277.608 115.738 277.72 115.487 277.944C115.242 278.168 115.098 278.461 115.055 278.824H117.775C117.732 278.467 117.586 278.176 117.335 277.952C117.09 277.723 116.783 277.608 116.415 277.608ZM122.202 276.96C122.74 276.96 123.167 277.117 123.482 277.432C123.802 277.741 123.962 278.197 123.962 278.8V281.24H123.194V278.888C123.194 278.477 123.095 278.168 122.898 277.96C122.7 277.752 122.418 277.648 122.05 277.648C121.634 277.648 121.306 277.771 121.066 278.016C120.826 278.256 120.706 278.603 120.706 279.056V281.24H119.938V277H120.674V277.64C120.828 277.421 121.036 277.253 121.298 277.136C121.564 277.019 121.866 276.96 122.202 276.96ZM128.127 280.992C128.015 281.088 127.876 281.163 127.711 281.216C127.546 281.264 127.375 281.288 127.199 281.288C126.772 281.288 126.442 281.173 126.207 280.944C125.972 280.715 125.855 280.387 125.855 279.96V277.632H125.135V277H125.855V276.072H126.623V277H127.839V277.632H126.623V279.928C126.623 280.157 126.679 280.333 126.791 280.456C126.908 280.579 127.074 280.64 127.287 280.64C127.522 280.64 127.722 280.573 127.887 280.44L128.127 280.992ZM134.54 281.304C133.98 281.304 133.473 281.181 133.02 280.936C132.572 280.685 132.22 280.344 131.964 279.912C131.708 279.475 131.58 278.984 131.58 278.44C131.58 277.896 131.708 277.408 131.964 276.976C132.22 276.539 132.574 276.197 133.028 275.952C133.481 275.701 133.988 275.576 134.548 275.576C134.985 275.576 135.385 275.651 135.748 275.8C136.11 275.944 136.42 276.16 136.676 276.448L136.156 276.952C135.734 276.509 135.209 276.288 134.58 276.288C134.164 276.288 133.788 276.381 133.452 276.568C133.116 276.755 132.852 277.013 132.66 277.344C132.473 277.669 132.38 278.035 132.38 278.44C132.38 278.845 132.473 279.213 132.66 279.544C132.852 279.869 133.116 280.125 133.452 280.312C133.788 280.499 134.164 280.592 134.58 280.592C135.204 280.592 135.729 280.368 136.156 279.92L136.676 280.424C136.42 280.712 136.108 280.931 135.74 281.08C135.377 281.229 134.977 281.304 134.54 281.304ZM141.717 279.144C141.717 279.203 141.712 279.28 141.701 279.376H138.261C138.309 279.749 138.472 280.051 138.749 280.28C139.032 280.504 139.381 280.616 139.797 280.616C140.304 280.616 140.712 280.445 141.021 280.104L141.445 280.6C141.253 280.824 141.013 280.995 140.725 281.112C140.443 281.229 140.125 281.288 139.773 281.288C139.325 281.288 138.928 281.197 138.581 281.016C138.235 280.829 137.965 280.571 137.773 280.24C137.587 279.909 137.493 279.536 137.493 279.12C137.493 278.709 137.584 278.339 137.765 278.008C137.952 277.677 138.205 277.421 138.525 277.24C138.851 277.053 139.216 276.96 139.621 276.96C140.027 276.96 140.387 277.053 140.701 277.24C141.021 277.421 141.269 277.677 141.445 278.008C141.627 278.339 141.717 278.717 141.717 279.144ZM139.621 277.608C139.253 277.608 138.944 277.72 138.693 277.944C138.448 278.168 138.304 278.461 138.261 278.824H140.981C140.939 278.467 140.792 278.176 140.541 277.952C140.296 277.723 139.989 277.608 139.621 277.608ZM145.408 276.96C145.946 276.96 146.373 277.117 146.688 277.432C147.008 277.741 147.168 278.197 147.168 278.8V281.24H146.4V278.888C146.4 278.477 146.301 278.168 146.104 277.96C145.906 277.752 145.624 277.648 145.256 277.648C144.84 277.648 144.512 277.771 144.272 278.016C144.032 278.256 143.912 278.603 143.912 279.056V281.24H143.144V277H143.88V277.64C144.034 277.421 144.242 277.253 144.504 277.136C144.77 277.019 145.072 276.96 145.408 276.96ZM151.333 280.992C151.221 281.088 151.082 281.163 150.917 281.216C150.752 281.264 150.581 281.288 150.405 281.288C149.978 281.288 149.648 281.173 149.413 280.944C149.178 280.715 149.061 280.387 149.061 279.96V277.632H148.341V277H149.061V276.072H149.829V277H151.045V277.632H149.829V279.928C149.829 280.157 149.885 280.333 149.997 280.456C150.114 280.579 150.28 280.64 150.493 280.64C150.728 280.64 150.928 280.573 151.093 280.44L151.333 280.992ZM156.313 279.144C156.313 279.203 156.308 279.28 156.297 279.376H152.857C152.905 279.749 153.068 280.051 153.345 280.28C153.628 280.504 153.977 280.616 154.393 280.616C154.9 280.616 155.308 280.445 155.617 280.104L156.041 280.6C155.849 280.824 155.609 280.995 155.321 281.112C155.038 281.229 154.721 281.288 154.369 281.288C153.921 281.288 153.524 281.197 153.177 281.016C152.83 280.829 152.561 280.571 152.369 280.24C152.182 279.909 152.089 279.536 152.089 279.12C152.089 278.709 152.18 278.339 152.361 278.008C152.548 277.677 152.801 277.421 153.121 277.24C153.446 277.053 153.812 276.96 154.217 276.96C154.622 276.96 154.982 277.053 155.297 277.24C155.617 277.421 155.865 277.677 156.041 278.008C156.222 278.339 156.313 278.717 156.313 279.144ZM154.217 277.608C153.849 277.608 153.54 277.72 153.289 277.944C153.044 278.168 152.9 278.461 152.857 278.824H155.577C155.534 278.467 155.388 278.176 155.137 277.952C154.892 277.723 154.585 277.608 154.217 277.608ZM158.475 277.712C158.609 277.467 158.806 277.28 159.067 277.152C159.329 277.024 159.646 276.96 160.019 276.96V277.704C159.977 277.699 159.918 277.696 159.843 277.696C159.427 277.696 159.099 277.821 158.859 278.072C158.625 278.317 158.507 278.669 158.507 279.128V281.24H157.739V277H158.475V277.712ZM60.9991 285.64H61.7991V291.24H60.9991V285.64ZM63.8356 285.64H64.6356V291.24H63.8356V285.64ZM67.7842 286.336H65.8642V285.64H70.4962V286.336H68.5762V291.24H67.7842V286.336ZM72.4745 292.792C72.1705 292.301 71.9358 291.739 71.7705 291.104C71.6052 290.464 71.5225 289.779 71.5225 289.048C71.5225 288.317 71.6052 287.632 71.7705 286.992C71.9358 286.347 72.1705 285.784 72.4745 285.304H73.2025C72.8825 285.864 72.6478 286.451 72.4985 287.064C72.3492 287.677 72.2745 288.339 72.2745 289.048C72.2745 289.757 72.3492 290.419 72.4985 291.032C72.6478 291.645 72.8825 292.232 73.2025 292.792H72.4745ZM74.6578 285.64H75.4578V291.24H74.6578V285.64ZM79.1264 291.304C78.705 291.304 78.297 291.24 77.9024 291.112C77.513 290.979 77.2064 290.808 76.9824 290.6L77.2784 289.976C77.4917 290.168 77.7637 290.325 78.0944 290.448C78.4304 290.565 78.7744 290.624 79.1264 290.624C79.5904 290.624 79.937 290.547 80.1664 290.392C80.3957 290.232 80.5104 290.021 80.5104 289.76C80.5104 289.568 80.4464 289.413 80.3184 289.296C80.1957 289.173 80.041 289.08 79.8544 289.016C79.673 288.952 79.4144 288.88 79.0784 288.8C78.657 288.699 78.3157 288.597 78.0544 288.496C77.7984 288.395 77.577 288.24 77.3904 288.032C77.209 287.819 77.1184 287.533 77.1184 287.176C77.1184 286.877 77.1957 286.608 77.3504 286.368C77.5104 286.128 77.7504 285.936 78.0704 285.792C78.3904 285.648 78.7877 285.576 79.2624 285.576C79.593 285.576 79.9184 285.619 80.2384 285.704C80.5584 285.789 80.833 285.912 81.0624 286.072L80.7984 286.712C80.5637 286.563 80.313 286.451 80.0464 286.376C79.7797 286.296 79.5184 286.256 79.2624 286.256C78.809 286.256 78.4677 286.339 78.2384 286.504C78.0144 286.669 77.9024 286.883 77.9024 287.144C77.9024 287.336 77.9664 287.493 78.0944 287.616C78.2224 287.733 78.3797 287.827 78.5664 287.896C78.7584 287.96 79.017 288.029 79.3424 288.104C79.7637 288.205 80.1024 288.307 80.3584 288.408C80.6144 288.509 80.833 288.664 81.0144 288.872C81.201 289.08 81.2944 289.36 81.2944 289.712C81.2944 290.005 81.2144 290.275 81.0544 290.52C80.8944 290.76 80.6517 290.952 80.3264 291.096C80.001 291.235 79.601 291.304 79.1264 291.304ZM88.0151 291.24L88.0071 287.16L85.9831 290.56H85.6151L83.5911 287.184V291.24H82.8231V285.64H83.4791L85.8151 289.576L88.1191 285.64H88.7751L88.7831 291.24H88.0151ZM90.2397 292.792C90.5597 292.232 90.7944 291.645 90.9437 291.032C91.0984 290.419 91.1757 289.757 91.1757 289.048C91.1757 288.339 91.0984 287.677 90.9437 287.064C90.7944 286.451 90.5597 285.864 90.2397 285.304H90.9677C91.2771 285.784 91.5144 286.344 91.6797 286.984C91.8451 287.624 91.9277 288.312 91.9277 289.048C91.9277 289.779 91.8451 290.464 91.6797 291.104C91.5144 291.744 91.2771 292.307 90.9677 292.792H90.2397ZM93.9669 290.192C94.1162 290.192 94.2389 290.245 94.3349 290.352C94.4362 290.453 94.4869 290.581 94.4869 290.736C94.4869 290.816 94.4762 290.893 94.4549 290.968C94.4389 291.043 94.4042 291.157 94.3509 291.312L93.9749 292.424H93.4709L93.7669 291.232C93.6655 291.195 93.5829 291.133 93.5189 291.048C93.4602 290.957 93.4309 290.853 93.4309 290.736C93.4309 290.576 93.4815 290.445 93.5829 290.344C93.6842 290.243 93.8122 290.192 93.9669 290.192ZM98.5678 285.64H100.928C101.52 285.64 102.045 285.757 102.504 285.992C102.962 286.227 103.317 286.557 103.568 286.984C103.824 287.405 103.952 287.891 103.952 288.44C103.952 288.989 103.824 289.477 103.568 289.904C103.317 290.325 102.962 290.653 102.504 290.888C102.045 291.123 101.52 291.24 100.928 291.24H98.5678V285.64ZM100.88 290.544C101.333 290.544 101.73 290.456 102.072 290.28C102.418 290.104 102.685 289.859 102.872 289.544C103.058 289.224 103.152 288.856 103.152 288.44C103.152 288.024 103.058 287.659 102.872 287.344C102.685 287.024 102.418 286.776 102.072 286.6C101.73 286.424 101.333 286.336 100.88 286.336H99.3678V290.544H100.88ZM107.689 286.96C108.228 286.96 108.655 287.117 108.969 287.432C109.289 287.741 109.449 288.197 109.449 288.8V291.24H108.681V288.888C108.681 288.477 108.583 288.168 108.385 287.96C108.188 287.752 107.905 287.648 107.537 287.648C107.121 287.648 106.793 287.771 106.553 288.016C106.313 288.256 106.193 288.603 106.193 289.056V291.24H105.425V285.304H106.193V287.6C106.353 287.397 106.561 287.24 106.817 287.128C107.079 287.016 107.369 286.96 107.689 286.96ZM112.775 286.96C113.361 286.96 113.809 287.104 114.119 287.392C114.433 287.68 114.591 288.109 114.591 288.68V291.24H113.863V290.68C113.735 290.877 113.551 291.029 113.311 291.136C113.076 291.237 112.796 291.288 112.471 291.288C111.996 291.288 111.615 291.173 111.327 290.944C111.044 290.715 110.903 290.413 110.903 290.04C110.903 289.667 111.039 289.368 111.311 289.144C111.583 288.915 112.015 288.8 112.607 288.8H113.823V288.648C113.823 288.317 113.727 288.064 113.535 287.888C113.343 287.712 113.06 287.624 112.687 287.624C112.436 287.624 112.191 287.667 111.951 287.752C111.711 287.832 111.508 287.941 111.343 288.08L111.023 287.504C111.241 287.328 111.503 287.195 111.807 287.104C112.111 287.008 112.433 286.96 112.775 286.96ZM112.599 290.696C112.892 290.696 113.145 290.632 113.359 290.504C113.572 290.371 113.727 290.184 113.823 289.944V289.352H112.639C111.988 289.352 111.663 289.571 111.663 290.008C111.663 290.221 111.745 290.389 111.911 290.512C112.076 290.635 112.305 290.696 112.599 290.696ZM118.636 286.96C119.174 286.96 119.601 287.117 119.916 287.432C120.236 287.741 120.396 288.197 120.396 288.8V291.24H119.628V288.888C119.628 288.477 119.529 288.168 119.332 287.96C119.134 287.752 118.852 287.648 118.484 287.648C118.068 287.648 117.74 287.771 117.5 288.016C117.26 288.256 117.14 288.603 117.14 289.056V291.24H116.372V287H117.108V287.64C117.262 287.421 117.47 287.253 117.732 287.136C117.998 287.019 118.3 286.96 118.636 286.96ZM124.425 286.96C124.836 286.96 125.204 287.051 125.529 287.232C125.854 287.413 126.108 287.667 126.289 287.992C126.476 288.317 126.569 288.693 126.569 289.12C126.569 289.547 126.476 289.925 126.289 290.256C126.108 290.581 125.854 290.835 125.529 291.016C125.204 291.197 124.836 291.288 124.425 291.288C124.11 291.288 123.822 291.227 123.561 291.104C123.3 290.981 123.084 290.803 122.913 290.568V291.24H122.177V285.304H122.945V287.64C123.116 287.416 123.329 287.248 123.585 287.136C123.841 287.019 124.121 286.96 124.425 286.96ZM124.361 290.616C124.633 290.616 124.876 290.555 125.089 290.432C125.308 290.304 125.478 290.128 125.601 289.904C125.729 289.675 125.793 289.413 125.793 289.12C125.793 288.827 125.729 288.568 125.601 288.344C125.478 288.115 125.308 287.939 125.089 287.816C124.876 287.693 124.633 287.632 124.361 287.632C124.094 287.632 123.852 287.693 123.633 287.816C123.414 287.939 123.244 288.115 123.121 288.344C122.998 288.568 122.937 288.827 122.937 289.12C122.937 289.413 122.998 289.675 123.121 289.904C123.244 290.128 123.414 290.304 123.633 290.432C123.852 290.555 124.094 290.616 124.361 290.616ZM129.495 286.96C130.082 286.96 130.53 287.104 130.839 287.392C131.154 287.68 131.311 288.109 131.311 288.68V291.24H130.583V290.68C130.455 290.877 130.271 291.029 130.031 291.136C129.796 291.237 129.516 291.288 129.191 291.288C128.716 291.288 128.335 291.173 128.047 290.944C127.764 290.715 127.623 290.413 127.623 290.04C127.623 289.667 127.759 289.368 128.031 289.144C128.303 288.915 128.735 288.8 129.327 288.8H130.543V288.648C130.543 288.317 130.447 288.064 130.255 287.888C130.063 287.712 129.78 287.624 129.407 287.624C129.156 287.624 128.911 287.667 128.671 287.752C128.431 287.832 128.228 287.941 128.063 288.08L127.743 287.504C127.962 287.328 128.223 287.195 128.527 287.104C128.831 287.008 129.154 286.96 129.495 286.96ZM129.319 290.696C129.612 290.696 129.866 290.632 130.079 290.504C130.292 290.371 130.447 290.184 130.543 289.944V289.352H129.359C128.708 289.352 128.383 289.571 128.383 290.008C128.383 290.221 128.466 290.389 128.631 290.512C128.796 290.635 129.026 290.696 129.319 290.696ZM137.116 285.304V291.24H136.38V290.568C136.209 290.803 135.993 290.981 135.732 291.104C135.47 291.227 135.182 291.288 134.868 291.288C134.457 291.288 134.089 291.197 133.764 291.016C133.438 290.835 133.182 290.581 132.996 290.256C132.814 289.925 132.724 289.547 132.724 289.12C132.724 288.693 132.814 288.317 132.996 287.992C133.182 287.667 133.438 287.413 133.764 287.232C134.089 287.051 134.457 286.96 134.868 286.96C135.172 286.96 135.452 287.019 135.708 287.136C135.964 287.248 136.177 287.416 136.348 287.64V285.304H137.116ZM134.932 290.616C135.198 290.616 135.441 290.555 135.66 290.432C135.878 290.304 136.049 290.128 136.172 289.904C136.294 289.675 136.356 289.413 136.356 289.12C136.356 288.827 136.294 288.568 136.172 288.344C136.049 288.115 135.878 287.939 135.66 287.816C135.441 287.693 135.198 287.632 134.932 287.632C134.66 287.632 134.414 287.693 134.196 287.816C133.982 287.939 133.812 288.115 133.684 288.344C133.561 288.568 133.5 288.827 133.5 289.12C133.5 289.413 133.561 289.675 133.684 289.904C133.812 290.128 133.982 290.304 134.196 290.432C134.414 290.555 134.66 290.616 134.932 290.616Z" fill="white"/>
<path d="M18.0714 218.6H21.7434C22.6394 218.6 23.4354 218.776 24.1314 219.128C24.8274 219.472 25.3674 219.964 25.7514 220.604C26.1354 221.236 26.3274 221.968 26.3274 222.8C26.3274 223.632 26.1354 224.368 25.7514 225.008C25.3674 225.64 24.8274 226.132 24.1314 226.484C23.4354 226.828 22.6394 227 21.7434 227H18.0714V218.6ZM21.6714 225.68C22.2874 225.68 22.8274 225.564 23.2914 225.332C23.7634 225.092 24.1234 224.756 24.3714 224.324C24.6274 223.884 24.7554 223.376 24.7554 222.8C24.7554 222.224 24.6274 221.72 24.3714 221.288C24.1234 220.848 23.7634 220.512 23.2914 220.28C22.8274 220.04 22.2874 219.92 21.6714 219.92H19.6314V225.68H21.6714ZM33.4814 227L31.7654 224.54C31.6934 224.548 31.5854 224.552 31.4414 224.552H29.5454V227H27.9854V218.6H31.4414C32.1694 218.6 32.8014 218.72 33.3374 218.96C33.8814 219.2 34.2974 219.544 34.5854 219.992C34.8734 220.44 35.0174 220.972 35.0174 221.588C35.0174 222.22 34.8614 222.764 34.5494 223.22C34.2454 223.676 33.8054 224.016 33.2294 224.24L35.1614 227H33.4814ZM33.4454 221.588C33.4454 221.052 33.2694 220.64 32.9174 220.352C32.5654 220.064 32.0494 219.92 31.3694 219.92H29.5454V223.268H31.3694C32.0494 223.268 32.5654 223.124 32.9174 222.836C33.2694 222.54 33.4454 222.124 33.4454 221.588ZM37.0988 227.084C36.8268 227.084 36.5948 226.992 36.4028 226.808C36.2108 226.616 36.1148 226.376 36.1148 226.088C36.1148 225.792 36.2068 225.552 36.3908 225.368C36.5828 225.184 36.8188 225.092 37.0988 225.092C37.3788 225.092 37.6108 225.184 37.7948 225.368C37.9868 225.552 38.0828 225.792 38.0828 226.088C38.0828 226.376 37.9868 226.616 37.7948 226.808C37.6028 226.992 37.3708 227.084 37.0988 227.084ZM45.6129 227.12C44.9649 227.12 44.3369 227.028 43.7289 226.844C43.1289 226.66 42.6529 226.416 42.3009 226.112L42.8409 224.9C43.1849 225.172 43.6049 225.396 44.1009 225.572C44.6049 225.74 45.1089 225.824 45.6129 225.824C46.2369 225.824 46.7009 225.724 47.0049 225.524C47.3169 225.324 47.4729 225.06 47.4729 224.732C47.4729 224.492 47.3849 224.296 47.2089 224.144C47.0409 223.984 46.8249 223.86 46.5609 223.772C46.2969 223.684 45.9369 223.584 45.4809 223.472C44.8409 223.32 44.3209 223.168 43.9209 223.016C43.5289 222.864 43.1889 222.628 42.9009 222.308C42.6209 221.98 42.4809 221.54 42.4809 220.988C42.4809 220.524 42.6049 220.104 42.8529 219.728C43.1089 219.344 43.4889 219.04 43.9929 218.816C44.5049 218.592 45.1289 218.48 45.8649 218.48C46.3769 218.48 46.8809 218.544 47.3769 218.672C47.8729 218.8 48.3009 218.984 48.6609 219.224L48.1689 220.436C47.8009 220.22 47.4169 220.056 47.0169 219.944C46.6169 219.832 46.2289 219.776 45.8529 219.776C45.2369 219.776 44.7769 219.88 44.4729 220.088C44.1769 220.296 44.0289 220.572 44.0289 220.916C44.0289 221.156 44.1129 221.352 44.2809 221.504C44.4569 221.656 44.6769 221.776 44.9409 221.864C45.2049 221.952 45.5649 222.052 46.0209 222.164C46.6449 222.308 47.1569 222.46 47.5569 222.62C47.9569 222.772 48.2969 223.008 48.5769 223.328C48.8649 223.648 49.0089 224.08 49.0089 224.624C49.0089 225.088 48.8809 225.508 48.6249 225.884C48.3769 226.26 47.9969 226.56 47.4849 226.784C46.9729 227.008 46.3489 227.12 45.6129 227.12ZM56.0037 225.056H51.8037L50.9757 227H49.3677L53.1477 218.6H54.6837L58.4757 227H56.8437L56.0037 225.056ZM55.4877 223.832L53.9037 220.16L52.3317 223.832H55.4877ZM60.8261 219.92H58.0421V218.6H65.1701V219.92H62.3861V227H60.8261V219.92ZM66.3409 218.6H67.9009V227H66.3409V218.6ZM72.7769 227.12C72.1289 227.12 71.5009 227.028 70.8929 226.844C70.2929 226.66 69.8169 226.416 69.4649 226.112L70.0049 224.9C70.3489 225.172 70.7689 225.396 71.2649 225.572C71.7689 225.74 72.2729 225.824 72.7769 225.824C73.4009 225.824 73.8649 225.724 74.1689 225.524C74.4809 225.324 74.6369 225.06 74.6369 224.732C74.6369 224.492 74.5489 224.296 74.3729 224.144C74.2049 223.984 73.9889 223.86 73.7249 223.772C73.4609 223.684 73.1009 223.584 72.6449 223.472C72.0049 223.32 71.4849 223.168 71.0849 223.016C70.6929 222.864 70.3529 222.628 70.0649 222.308C69.7849 221.98 69.6449 221.54 69.6449 220.988C69.6449 220.524 69.7689 220.104 70.0169 219.728C70.2729 219.344 70.6529 219.04 71.1569 218.816C71.6689 218.592 72.2929 218.48 73.0289 218.48C73.5409 218.48 74.0449 218.544 74.5409 218.672C75.0369 218.8 75.4649 218.984 75.8249 219.224L75.3329 220.436C74.9649 220.22 74.5809 220.056 74.1809 219.944C73.7809 219.832 73.3929 219.776 73.0169 219.776C72.4009 219.776 71.9409 219.88 71.6369 220.088C71.3409 220.296 71.1929 220.572 71.1929 220.916C71.1929 221.156 71.2769 221.352 71.4449 221.504C71.6209 221.656 71.8409 221.776 72.1049 221.864C72.3689 221.952 72.7289 222.052 73.1849 222.164C73.8089 222.308 74.3209 222.46 74.7209 222.62C75.1209 222.772 75.4609 223.008 75.7409 223.328C76.0289 223.648 76.1729 224.08 76.1729 224.624C76.1729 225.088 76.0449 225.508 75.7889 225.884C75.5409 226.26 75.1609 226.56 74.6489 226.784C74.1369 227.008 73.5129 227.12 72.7769 227.12ZM85.1838 218.6V227H83.6238V223.4H79.2798V227H77.7198V218.6H79.2798V222.068H83.6238V218.6H85.1838ZM93.643 223.484L92.311 224.852V227H90.751V218.6H92.311V222.908L96.463 218.6H98.215L94.687 222.356L98.431 227H96.607L93.643 223.484ZM102.988 227.12C101.828 227.12 100.924 226.796 100.276 226.148C99.628 225.492 99.304 224.556 99.304 223.34V218.6H100.864V223.28C100.864 224.928 101.576 225.752 103 225.752C104.416 225.752 105.124 224.928 105.124 223.28V218.6H106.66V223.34C106.66 224.556 106.336 225.492 105.688 226.148C105.048 226.796 104.148 227.12 102.988 227.12ZM116.561 227L116.549 221.432L113.789 226.04H113.093L110.333 221.504V227H108.845V218.6H110.129L113.465 224.168L116.741 218.6H118.025L118.037 227H116.561ZM125.754 225.056H121.554L120.726 227H119.118L122.898 218.6H124.434L128.226 227H126.594L125.754 225.056ZM125.238 223.832L123.654 220.16L122.082 223.832H125.238ZM134.79 227L133.074 224.54C133.002 224.548 132.894 224.552 132.75 224.552H130.854V227H129.294V218.6H132.75C133.478 218.6 134.11 218.72 134.646 218.96C135.19 219.2 135.606 219.544 135.894 219.992C136.182 220.44 136.326 220.972 136.326 221.588C136.326 222.22 136.17 222.764 135.858 223.22C135.554 223.676 135.114 224.016 134.538 224.24L136.47 227H134.79ZM134.754 221.588C134.754 221.052 134.578 220.64 134.226 220.352C133.874 220.064 133.358 219.92 132.678 219.92H130.854V223.268H132.678C133.358 223.268 133.874 223.124 134.226 222.836C134.578 222.54 134.754 222.124 134.754 221.588ZM143.992 227.12C143.344 227.12 142.716 227.028 142.108 226.844C141.508 226.66 141.032 226.416 140.68 226.112L141.22 224.9C141.564 225.172 141.984 225.396 142.48 225.572C142.984 225.74 143.488 225.824 143.992 225.824C144.616 225.824 145.08 225.724 145.384 225.524C145.696 225.324 145.852 225.06 145.852 224.732C145.852 224.492 145.764 224.296 145.588 224.144C145.42 223.984 145.204 223.86 144.94 223.772C144.676 223.684 144.316 223.584 143.86 223.472C143.22 223.32 142.7 223.168 142.3 223.016C141.908 222.864 141.568 222.628 141.28 222.308C141 221.98 140.86 221.54 140.86 220.988C140.86 220.524 140.984 220.104 141.232 219.728C141.488 219.344 141.868 219.04 142.372 218.816C142.884 218.592 143.508 218.48 144.244 218.48C144.756 218.48 145.26 218.544 145.756 218.672C146.252 218.8 146.68 218.984 147.04 219.224L146.548 220.436C146.18 220.22 145.796 220.056 145.396 219.944C144.996 219.832 144.608 219.776 144.232 219.776C143.616 219.776 143.156 219.88 142.852 220.088C142.556 220.296 142.408 220.572 142.408 220.916C142.408 221.156 142.492 221.352 142.66 221.504C142.836 221.656 143.056 221.776 143.32 221.864C143.584 221.952 143.944 222.052 144.4 222.164C145.024 222.308 145.536 222.46 145.936 222.62C146.336 222.772 146.676 223.008 146.956 223.328C147.244 223.648 147.388 224.08 147.388 224.624C147.388 225.088 147.26 225.508 147.004 225.884C146.756 226.26 146.376 226.56 145.864 226.784C145.352 227.008 144.728 227.12 143.992 227.12ZM148.935 218.6H150.495V227H148.935V218.6ZM160.231 218.6V227H158.947L154.315 221.312V227H152.767V218.6H154.051L158.683 224.288V218.6H160.231ZM169.946 218.6V227H168.386V223.4H164.042V227H162.482V218.6H164.042V222.068H168.386V218.6H169.946ZM177.644 225.056H173.444L172.616 227H171.008L174.788 218.6H176.324L180.116 227H178.484L177.644 225.056ZM177.128 223.832L175.544 220.16L173.972 223.832H177.128Z" fill="url(#paint3_linear)"/>
<path d="M197.734 341.599L197.627 300C188.329 300.498 179.447 303.745 177.097 310.646C176.497 312.378 175.78 314.084 174.949 315.754C174.122 317.418 173.161 319.037 172.074 320.603C167.417 328.539 158.004 331.937 149.202 336.541C146.717 337.877 144.635 339.635 143.106 341.687L197.734 341.599Z" fill="url(#paint4_linear)"/>
<path d="M-0.999522 341.599L-0.89304 300C8.40582 300.498 17.2873 303.745 19.6373 310.646C20.2369 312.378 20.9539 314.084 21.7851 315.754C22.6127 317.418 23.5729 319.037 24.66 320.603C29.3171 328.539 38.7301 331.937 47.5322 336.541C50.0174 337.877 52.0992 339.635 53.6279 341.687L-0.999522 341.599Z" fill="url(#paint5_linear)"/>
<path opacity="0.15" d="M150.226 340.922C160.364 335.832 170.87 331.991 176.702 323.823C178.049 322.179 179.273 320.474 180.37 318.717C181.481 316.945 182.488 315.107 183.368 313.236C185.822 307.977 191.33 304.719 197.626 303.121L197.618 300C188.319 300.498 179.438 303.745 177.088 310.646C176.488 312.378 175.771 314.084 174.94 315.754C174.113 317.418 173.152 319.037 172.065 320.603C167.408 328.539 157.995 331.937 149.193 336.541C146.711 337.878 144.633 339.636 143.106 341.687L148.854 341.678C149.294 341.421 149.749 341.167 150.226 340.922Z" fill="white"/>
<path opacity="0.15" d="M46.5089 340.922C36.3708 335.832 25.8648 331.991 20.0321 323.823C18.6857 322.179 17.4611 320.474 16.3646 318.717C15.2537 316.945 14.2464 315.107 13.3667 313.236C10.9123 307.977 5.40439 304.719 -0.891907 303.121L-0.883917 300C8.41494 300.498 17.2964 303.745 19.6464 310.646C20.246 312.378 20.963 314.084 21.7942 315.754C22.6218 317.418 23.5821 319.037 24.6691 320.603C29.3262 328.539 38.7392 331.937 47.5413 336.541C50.0232 337.878 52.1019 339.636 53.6279 341.687L47.8807 341.678C47.4407 341.421 46.9854 341.167 46.5089 340.922Z" fill="white"/>
<g clip-path="url(#clip1)">
<path d="M39.9878 35.2541C39.2172 35.2541 38.5928 34.6297 38.5928 33.8591V24.0277C38.5928 23.2571 39.2172 22.6327 39.9878 22.6327H49.8192C50.5898 22.6327 51.2142 23.2571 51.2142 24.0277C51.2142 24.7983 50.5898 25.4227 49.8192 25.4227H41.3828V33.8591C41.3828 34.6297 40.7583 35.2541 39.9878 35.2541Z" fill="url(#paint6_linear)"/>
</g>
<g clip-path="url(#clip2)">
<path d="M157.069 34.9536C157.839 34.9536 158.464 34.3292 158.464 33.5586V23.7272C158.464 22.9566 157.839 22.3322 157.069 22.3322H147.237C146.467 22.3322 145.842 22.9566 145.842 23.7272C145.842 24.4977 146.467 25.1222 147.237 25.1222H155.674V33.5586C155.674 34.3292 156.298 34.9536 157.069 34.9536Z" fill="url(#paint7_linear)"/>
</g>
<g clip-path="url(#clip3)">
<path d="M39.688 194.572C38.9174 194.572 38.293 195.196 38.293 195.967V205.798C38.293 206.569 38.9174 207.193 39.688 207.193H49.5194C50.29 207.193 50.9144 206.569 50.9144 205.798C50.9144 205.028 50.29 204.403 49.5194 204.403H41.083V195.967C41.083 195.196 40.4585 194.572 39.688 194.572Z" fill="url(#paint8_linear)"/>
</g>
<g clip-path="url(#clip4)">
<path d="M157.369 194.873C158.139 194.873 158.764 195.497 158.764 196.268V206.099C158.764 206.87 158.139 207.494 157.369 207.494H147.537C146.767 207.494 146.142 206.87 146.142 206.099C146.142 205.329 146.767 204.704 147.537 204.704H155.974V196.268C155.974 195.497 156.598 194.873 157.369 194.873Z" fill="url(#paint9_linear)"/>
</g>
<g clip-path="url(#clip5)">
<path d="M103.757 318.857H93.6341C92.963 318.857 92.3193 319.124 91.8447 319.598C91.3701 320.073 91.1035 320.717 91.1035 321.388V331.51C91.1035 332.182 91.3701 332.825 91.8447 333.3C92.3193 333.774 92.963 334.041 93.6341 334.041H103.757C104.428 334.041 105.071 333.774 105.546 333.3C106.021 332.825 106.287 332.182 106.287 331.51V321.388C106.287 320.717 106.021 320.073 105.546 319.598C105.071 319.124 104.428 318.857 103.757 318.857V318.857ZM105.022 331.51C105.022 331.846 104.889 332.168 104.651 332.405C104.414 332.642 104.092 332.776 103.757 332.776H93.6341C93.2985 332.776 92.9767 332.642 92.7394 332.405C92.5021 332.168 92.3688 331.846 92.3688 331.51V321.388C92.3688 321.052 92.5021 320.73 92.7394 320.493C92.9767 320.256 93.2985 320.123 93.6341 320.123H103.757C104.092 320.123 104.414 320.256 104.651 320.493C104.889 320.73 105.022 321.052 105.022 321.388V331.51Z" fill="url(#paint10_linear)"/>
<path d="M98.6953 322.653C97.9446 322.653 97.2107 322.876 96.5864 323.293C95.9622 323.71 95.4757 324.303 95.1884 324.997C94.9011 325.69 94.8259 326.453 94.9724 327.19C95.1188 327.926 95.4803 328.602 96.0112 329.133C96.5421 329.664 97.2185 330.026 97.9548 330.172C98.6911 330.319 99.4544 330.244 100.148 329.956C100.842 329.669 101.434 329.182 101.852 328.558C102.269 327.934 102.491 327.2 102.491 326.449C102.491 325.442 102.091 324.477 101.379 323.765C100.668 323.053 99.7021 322.653 98.6953 322.653ZM98.6953 328.98C98.1948 328.98 97.7056 328.831 97.2894 328.553C96.8732 328.275 96.5489 327.88 96.3574 327.418C96.1658 326.955 96.1157 326.446 96.2133 325.956C96.311 325.465 96.552 325.014 96.9059 324.66C97.2598 324.306 97.7107 324.065 98.2016 323.967C98.6925 323.87 99.2014 323.92 99.6638 324.111C100.126 324.303 100.521 324.627 100.799 325.043C101.078 325.459 101.226 325.949 101.226 326.449C101.226 327.12 100.959 327.764 100.485 328.239C100.01 328.713 99.3665 328.98 98.6953 328.98Z" fill="url(#paint11_linear)"/>
<path d="M102.807 323.286C103.331 323.286 103.756 322.861 103.756 322.337C103.756 321.813 103.331 321.388 102.807 321.388C102.283 321.388 101.858 321.813 101.858 322.337C101.858 322.861 102.283 323.286 102.807 323.286Z" fill="url(#paint12_linear)"/>
</g>
<g clip-path="url(#clip6)">
<path d="M82.8757 334.041V334.04H82.8795V328.472C82.8795 325.747 82.293 323.649 79.1082 323.649C77.5772 323.649 76.5498 324.489 76.1303 325.285H76.0861V323.903H73.0664V334.04H76.2107V329.021C76.2107 327.699 76.4612 326.421 78.0979 326.421C79.7105 326.421 79.7346 327.929 79.7346 329.105V334.041H82.8757Z" fill="url(#paint13_linear)"/>
<path d="M67.9453 323.904H71.0934V334.041H67.9453V323.904Z" fill="url(#paint14_linear)"/>
<path d="M69.5186 318.857C68.5121 318.857 67.6953 319.674 67.6953 320.681C67.6953 321.687 68.5121 322.521 69.5186 322.521C70.5252 322.521 71.3419 321.687 71.3419 320.681C71.3413 319.674 70.5245 318.857 69.5186 318.857V318.857Z" fill="url(#paint15_linear)"/>
</g>
<g clip-path="url(#clip7)">
<path d="M130.072 321.388H116.666C115.478 321.388 114.512 322.316 114.512 323.456V332.161C114.512 333.302 115.478 334.229 116.666 334.229H130.072C131.26 334.229 132.226 333.302 132.226 332.161V323.456C132.226 322.316 131.26 321.388 130.072 321.388ZM129.04 322.082L123.364 326.486L117.688 322.082H129.04ZM129.324 333.535H117.404V325.43L123.137 329.863C123.27 329.966 123.458 329.966 123.591 329.863L129.324 325.43V333.535H129.324ZM131.503 332.161C131.503 332.919 130.861 333.535 130.072 333.535H130.047V324.705C130.047 324.571 129.967 324.449 129.842 324.392C129.716 324.334 129.567 324.351 129.459 324.434L123.364 329.148L117.269 324.434C117.161 324.351 117.012 324.334 116.886 324.392C116.761 324.449 116.681 324.571 116.681 324.705V333.535H116.666C115.877 333.535 115.235 332.919 115.235 332.161V323.456C115.235 322.737 115.812 322.146 116.545 322.087L123.137 327.202C123.203 327.254 123.284 327.28 123.364 327.28C123.444 327.28 123.525 327.254 123.591 327.202L130.184 322.087C130.921 322.142 131.503 322.734 131.503 323.456V332.161Z" fill="url(#paint16_linear)"/>
</g>
<path d="M64.6455 311.635C64.1984 311.635 63.7935 311.538 63.4308 311.344C63.0723 311.146 62.7897 310.874 62.583 310.528C62.3806 310.182 62.2793 309.792 62.2793 309.357C62.2793 308.923 62.3827 308.533 62.5893 308.187C62.796 307.841 63.0786 307.571 63.4371 307.377C63.7998 307.179 64.2047 307.08 64.6518 307.08C65.0145 307.08 65.3456 307.143 65.6451 307.269C65.9445 307.396 66.1976 307.579 66.4042 307.82L65.8728 308.32C65.5523 307.974 65.1579 307.801 64.6898 307.801C64.3861 307.801 64.114 307.868 63.8736 308.003C63.6332 308.134 63.4455 308.318 63.3106 308.554C63.1756 308.79 63.1081 309.058 63.1081 309.357C63.1081 309.657 63.1756 309.925 63.3106 310.161C63.4455 310.397 63.6332 310.582 63.8736 310.717C64.114 310.848 64.3861 310.914 64.6898 310.914C65.1579 310.914 65.5523 310.739 65.8728 310.388L66.4042 310.895C66.1976 311.135 65.9424 311.318 65.6387 311.445C65.3393 311.572 65.0082 311.635 64.6455 311.635ZM69.4531 311.635C69.0018 311.635 68.5948 311.538 68.2321 311.344C67.8693 311.146 67.5847 310.874 67.378 310.528C67.1713 310.178 67.068 309.787 67.068 309.357C67.068 308.927 67.1713 308.539 67.378 308.193C67.5847 307.843 67.8693 307.571 68.2321 307.377C68.5948 307.179 69.0018 307.08 69.4531 307.08C69.9044 307.08 70.3114 307.179 70.6741 307.377C71.0368 307.571 71.3215 307.841 71.5282 308.187C71.7349 308.533 71.8382 308.923 71.8382 309.357C71.8382 309.792 71.7349 310.182 71.5282 310.528C71.3215 310.874 71.0368 311.146 70.6741 311.344C70.3114 311.538 69.9044 311.635 69.4531 311.635ZM69.4531 310.914C69.7483 310.914 70.014 310.848 70.2502 310.717C70.4864 310.582 70.672 310.397 70.807 310.161C70.9419 309.92 71.0094 309.652 71.0094 309.357C71.0094 309.062 70.9419 308.796 70.807 308.56C70.672 308.32 70.4864 308.134 70.2502 308.003C70.014 307.868 69.7483 307.801 69.4531 307.801C69.1579 307.801 68.8921 307.868 68.6559 308.003C68.4198 308.134 68.2342 308.32 68.0992 308.56C67.9642 308.796 67.8968 309.062 67.8968 309.357C67.8968 309.652 67.9642 309.92 68.0992 310.161C68.2342 310.397 68.4198 310.582 68.6559 310.717C68.8921 310.848 69.1579 310.914 69.4531 310.914ZM76.9298 307.143V311.572H76.2528L73.8108 308.573V311.572H72.9947V307.143H73.6716L76.1136 310.142V307.143H76.9298ZM82.3362 307.143V311.572H81.6593L79.2173 308.573V311.572H78.4011V307.143H79.0781L81.5201 310.142V307.143H82.3362ZM87.129 310.882V311.572H83.8076V307.143H87.0405V307.833H84.63V308.984H86.7684V309.661H84.63V310.882H87.129ZM90.3618 311.635C89.9148 311.635 89.5099 311.538 89.1471 311.344C88.7886 311.146 88.5061 310.874 88.2994 310.528C88.0969 310.182 87.9957 309.792 87.9957 309.357C87.9957 308.923 88.099 308.533 88.3057 308.187C88.5124 307.841 88.795 307.571 89.1535 307.377C89.5162 307.179 89.9211 307.08 90.3682 307.08C90.7309 307.08 91.062 307.143 91.3614 307.269C91.6609 307.396 91.9139 307.579 92.1206 307.82L91.5892 308.32C91.2686 307.974 90.8743 307.801 90.4061 307.801C90.1025 307.801 89.8304 307.868 89.59 308.003C89.3496 308.134 89.1619 308.318 89.0269 308.554C88.892 308.79 88.8245 309.058 88.8245 309.357C88.8245 309.657 88.892 309.925 89.0269 310.161C89.1619 310.397 89.3496 310.582 89.59 310.717C89.8304 310.848 90.1025 310.914 90.4061 310.914C90.8743 310.914 91.2686 310.739 91.5892 310.388L92.1206 310.895C91.9139 311.135 91.6588 311.318 91.3551 311.445C91.0556 311.572 90.7246 311.635 90.3618 311.635ZM94.0423 307.839H92.5745V307.143H96.3325V307.839H94.8647V311.572H94.0423V307.839ZM105.74 307.143L104.272 311.572H103.399L102.304 308.294L101.191 311.572H100.311L98.8437 307.143H99.6978L100.799 310.509L101.944 307.143H102.703L103.823 310.528L104.955 307.143H105.74ZM106.694 307.143H107.517V311.572H106.694V307.143ZM109.898 307.839H108.43V307.143H112.188V307.839H110.72V311.572H109.898V307.839ZM117.025 307.143V311.572H116.202V309.674H113.912V311.572H113.09V307.143H113.912V308.971H116.202V307.143H117.025ZM121.428 307.839H119.96V307.143H123.718V307.839H122.25V311.572H121.428V307.839ZM128.555 307.143V311.572H127.733V309.674H125.442V311.572H124.62V307.143H125.442V308.971H127.733V307.143H128.555ZM133.348 310.882V311.572H130.026V307.143H133.259V307.833H130.849V308.984H132.987V309.661H130.849V310.882H133.348ZM138.617 311.572L138.611 308.636L137.156 311.065H136.789L135.334 308.674V311.572H134.549V307.143H135.226L136.985 310.078L138.712 307.143H139.389L139.395 311.572H138.617Z" fill="white"/>
<path d="M121.298 59.1794L120.11 57.9402L121.298 59.1794Z" fill="#2B2924"/>
<path d="M71.0056 82.5358C71.0382 80.5443 71.1819 78.5561 71.4359 76.5805C73.6562 60.4186 87.7355 46.3738 104.775 49.0416C123.02 51.8988 132.073 65.3068 133.88 83.2759C134.5 89.4549 133.398 94.6013 135.189 100.591C137.099 106.994 139.25 113.328 141.006 119.782C144.003 130.005 146.366 140.404 148.08 150.918C148.958 157.27 148.562 165.256 142.796 168.13C140.221 169.14 137.431 169.477 134.689 169.111C116.135 168.216 97.5807 167.097 79.0263 166.443C73.5874 166.237 65.9453 168.543 60.9539 166.443C42.0209 158.646 60.3515 133.466 64.2758 122.553C67.0349 114.884 69.0916 106.98 70.4204 98.9387C71.3843 93.362 70.9023 87.9747 71.0056 82.5358Z" fill="#2B0D04"/>
<path d="M83.4326 125.032C85.7098 119.521 86.5049 113.51 85.739 107.596C84.6719 100.419 114.517 110.247 114.517 110.247C113.822 114.487 113.822 118.812 114.517 123.053C115.739 129.025 100.249 140.471 100.249 140.471L90.042 135.307L88.6134 136.753L83.4326 125.032Z" fill="#DEB09D"/>
<path d="M109.336 73.7406C111.057 72.5358 117.942 69.3515 117.598 66.9763C117.908 69.7474 119.319 72.1399 120.059 74.7216C120.885 77.6649 122.073 80.4704 122.658 83.4997C123.91 89.3471 123.661 95.4164 121.935 101.142C119.996 106.075 116.812 110.422 112.692 113.758L111.849 114.515C109.341 117.056 105.935 118.509 102.365 118.56V77.2518C104.774 76.2584 107.104 75.0847 109.336 73.7406Z" fill="#F9CFB3"/>
<path d="M91.1764 84.3775C94.9114 82.2948 102.226 77.0969 102.433 77.2001V118.508C98.8985 118.434 95.5327 116.983 93.0525 114.464C92.7599 114.223 92.4845 113.965 92.2091 113.706C87.9062 109.851 84.068 105.909 83.1041 100.281C82.9836 99.5411 82.5705 98.6461 81.8132 98.56C79.3519 98.4051 78.1987 94.1366 77.7168 91.5376C81.6067 88.4394 86.8735 86.7183 91.1764 84.3775Z" fill="#E2BBA1"/>
<path d="M94.8255 172.657H103.724L112.984 150.832C113.126 150.495 113.177 150.127 113.131 149.765C113.086 149.402 112.946 149.058 112.726 148.767C109.507 144.567 104.671 140.04 99.2661 138.646C93.8616 140.04 89.0423 144.567 85.8237 148.767C85.5972 149.055 85.4521 149.398 85.4037 149.762C85.3553 150.125 85.4052 150.495 85.5483 150.832L94.8255 172.657Z" fill="#E6E7E8"/>
<path d="M154.999 172.657C154.436 165.001 153.349 157.393 151.746 149.886C149.285 140.66 143.846 138.216 134.792 135.445C133.415 135.032 114.001 130.901 115.24 126.839C111.143 140.253 107.03 153.632 102.899 166.977C102.331 168.87 101.746 170.764 101.178 172.657H154.999Z" fill="#728D96"/>
<path d="M64.2579 172.657H96.9604C96.3752 170.764 95.8072 168.87 95.2392 166.977C91.1198 153.632 87.0005 140.259 82.8811 126.856C82.8811 127.51 74.8088 132.553 73.8621 132.932C70.1272 134.412 66.9774 134.447 63.6211 135.118C65.6693 147.27 64.7743 159.972 64.2579 172.657Z" fill="#647C82"/>
<path d="M92.0393 169.989C92.0051 170.095 92.0051 170.21 92.0393 170.316L92.9516 172.657H105.43L106.342 170.316C106.377 170.21 106.377 170.095 106.342 169.989L101.678 148.836C101.535 148.164 101.632 147.463 101.953 146.856L103.675 143.534C103.715 143.436 103.725 143.328 103.704 143.223C103.682 143.119 103.63 143.024 103.554 142.949L101.73 141.228C101.26 140.827 100.822 140.39 100.422 139.92C100.153 139.394 99.7919 138.922 99.3544 138.526C98.7347 138.113 98.2184 139.076 98.0118 139.507C97.6786 140.082 97.2408 140.59 96.721 141.004L94.69 143.035C94.6138 143.11 94.5616 143.205 94.5401 143.309C94.5187 143.414 94.5289 143.522 94.5695 143.62L96.2907 146.942C96.6075 147.551 96.6989 148.252 96.5488 148.922L92.0393 169.989Z" fill="#3D5872"/>
<path d="M80.4374 133.311L83.8798 123.328L86.6681 128.405C89.835 132.88 96.7714 137.39 99.2155 137.459C101.66 137.527 108.286 133.087 111.763 128.405L114.568 123.328L118.011 133.311C118.054 133.457 118.054 133.612 118.011 133.758L111.625 154.412C111.453 154.98 110.679 158.078 110.317 154.619L106.737 148.405C106.322 147.683 105.838 147.003 105.291 146.374L99.1639 138.732L93.0537 146.374C92.5014 147.002 92.0115 147.683 91.5907 148.405L88.0278 154.619C87.6664 158.061 86.8918 154.98 86.7025 154.412L80.3341 133.758C80.3149 133.601 80.3514 133.443 80.4374 133.311Z" fill="white"/>
<path d="M112.693 172.657C118.287 164.292 123.467 156.805 123.226 156.374L117.34 145.841L125.361 146.701C124.534 144.154 122.693 131.658 120.335 130.402L115.808 126.753L106.169 155.462L101.006 172.674L112.693 172.657Z" fill="#647C82"/>
<path d="M75.3758 156.169C75.1349 156.6 80.1952 164.052 85.7029 172.452H97.5963L92.4328 155.24L82.7941 126.531L78.2674 130.197C75.9266 131.453 74.0677 143.966 73.2588 146.496L81.2623 145.636L75.3758 156.169Z" fill="#728D96"/>
<path d="M66.0651 172.452C65.4944 167.74 65.1899 162.999 65.1528 158.252C65.3917 150.441 64.8788 142.626 63.621 134.913C61.8641 135.255 60.1618 135.834 58.5607 136.634C51.0908 140.335 45.8067 151.918 43.5004 159.44C42.2357 163.73 41.2299 168.093 40.4883 172.504L66.0651 172.452Z" fill="#647C82"/>
<line x1="38.5938" y1="299.561" x2="158.798" y2="299.598" stroke="black" stroke-width="0.632653"/>
</g>
<defs>
<radialGradient id="paint0_radial" cx="0" cy="0" r="1" gradientUnits="userSpaceOnUse" gradientTransform="translate(368.5 99) rotate(90) scale(99 170.5)">
<stop stop-color="#335063"/>
<stop offset="1" stop-color="#1B3342"/>
</radialGradient>
<linearGradient id="paint1_linear" x1="170.457" y1="41.6291" x2="170.525" y2="-0.0101858" gradientUnits="userSpaceOnUse">
<stop stop-color="#379BE7"/>
<stop offset="1" stop-color="#1DE9C4"/>
</linearGradient>
<linearGradient id="paint2_linear" x1="27.4469" y1="41.6891" x2="27.3796" y2="0.0498731" gradientUnits="userSpaceOnUse">
<stop stop-color="#379BE7"/>
<stop offset="1" stop-color="#1DE9C4"/>
</linearGradient>
<linearGradient id="paint3_linear" x1="98.5" y1="215" x2="98.5" y2="229" gradientUnits="userSpaceOnUse">
<stop stop-color="#379BE7"/>
<stop offset="1" stop-color="#1DE9C4"/>
</linearGradient>
<linearGradient id="paint4_linear" x1="170.314" y1="300.044" x2="170.381" y2="341.643" gradientUnits="userSpaceOnUse">
<stop stop-color="#379BE7"/>
<stop offset="1" stop-color="#1DE9C4"/>
</linearGradient>
<linearGradient id="paint5_linear" x1="26.4207" y1="300.044" x2="26.3534" y2="341.643" gradientUnits="userSpaceOnUse">
<stop stop-color="#379BE7"/>
<stop offset="1" stop-color="#1DE9C4"/>
</linearGradient>
<linearGradient id="paint6_linear" x1="44.9035" y1="22.6327" x2="44.9035" y2="35.2541" gradientUnits="userSpaceOnUse">
<stop stop-color="#379BE7"/>
<stop offset="1" stop-color="#1DE9C4"/>
</linearGradient>
<linearGradient id="paint7_linear" x1="152.153" y1="22.3322" x2="152.153" y2="34.9536" gradientUnits="userSpaceOnUse">
<stop stop-color="#379BE7"/>
<stop offset="1" stop-color="#1DE9C4"/>
</linearGradient>
<linearGradient id="paint8_linear" x1="44.6037" y1="207.193" x2="44.6037" y2="194.572" gradientUnits="userSpaceOnUse">
<stop stop-color="#379BE7"/>
<stop offset="1" stop-color="#1DE9C4"/>
</linearGradient>
<linearGradient id="paint9_linear" x1="152.453" y1="207.494" x2="152.453" y2="194.873" gradientUnits="userSpaceOnUse">
<stop stop-color="#379BE7"/>
<stop offset="1" stop-color="#1DE9C4"/>
</linearGradient>
<linearGradient id="paint10_linear" x1="98.6954" y1="318.857" x2="98.6954" y2="334.041" gradientUnits="userSpaceOnUse">
<stop stop-color="#379BE7"/>
<stop offset="1" stop-color="#1DE9C4"/>
</linearGradient>
<linearGradient id="paint11_linear" x1="98.6953" y1="322.653" x2="98.6953" y2="330.245" gradientUnits="userSpaceOnUse">
<stop stop-color="#379BE7"/>
<stop offset="1" stop-color="#1DE9C4"/>
</linearGradient>
<linearGradient id="paint12_linear" x1="102.807" y1="321.388" x2="102.807" y2="323.286" gradientUnits="userSpaceOnUse">
<stop stop-color="#379BE7"/>
<stop offset="1" stop-color="#1DE9C4"/>
</linearGradient>
<linearGradient id="paint13_linear" x1="77.9729" y1="323.649" x2="77.9729" y2="334.041" gradientUnits="userSpaceOnUse">
<stop stop-color="#379BE7"/>
<stop offset="1" stop-color="#1DE9C4"/>
</linearGradient>
<linearGradient id="paint14_linear" x1="69.5194" y1="323.904" x2="69.5194" y2="334.041" gradientUnits="userSpaceOnUse">
<stop stop-color="#379BE7"/>
<stop offset="1" stop-color="#1DE9C4"/>
</linearGradient>
<linearGradient id="paint15_linear" x1="69.5186" y1="318.857" x2="69.5186" y2="322.521" gradientUnits="userSpaceOnUse">
<stop stop-color="#379BE7"/>
<stop offset="1" stop-color="#1DE9C4"/>
</linearGradient>
<linearGradient id="paint16_linear" x1="123.369" y1="321.388" x2="123.369" y2="334.229" gradientUnits="userSpaceOnUse">
<stop stop-color="#379BE7"/>
<stop offset="1" stop-color="#1DE9C4"/>
</linearGradient>
<clipPath id="clip0">
<rect x="198" width="341" height="198" rx="3.06764" transform="rotate(90 198 0)" fill="white"/>
</clipPath>
<clipPath id="clip1">
<rect width="13.2857" height="16.6071" fill="white" transform="translate(37.96 22)"/>
</clipPath>
<clipPath id="clip2">
<rect width="13.2857" height="16.6071" fill="white" transform="matrix(-1 0 0 1 158.795 22.0001)"/>
</clipPath>
<clipPath id="clip3">
<rect width="13.2857" height="16.6071" fill="white" transform="matrix(1 0 0 -1 37.959 207.526)"/>
</clipPath>
<clipPath id="clip4">
<rect width="13.2857" height="16.6071" fill="white" transform="translate(159.097 207.826) rotate(-180)"/>
</clipPath>
<clipPath id="clip5">
<rect width="15.1837" height="15.1837" fill="white" transform="translate(91.1035 318.857)"/>
</clipPath>
<clipPath id="clip6">
<rect width="15.1837" height="15.1837" fill="white" transform="translate(67.6953 318.857)"/>
</clipPath>
<clipPath id="clip7">
<rect width="17.7143" height="12.6531" fill="white" transform="translate(114.512 321.388)"/>
</clipPath>
</defs>
</svg>
