<svg width="198" height="341" viewBox="0 0 198 341" fill="none" xmlns="http://www.w3.org/2000/svg">
<g clip-path="url(#clip0)">
<rect x="198" width="341" height="198" rx="3.07505" transform="rotate(90 198 0)" fill="url(#paint0_radial)"/>
<path d="M198.383 0.0345579L198.276 41.7743C188.946 41.2744 180.034 38.0166 177.677 31.0921C177.075 29.354 176.355 27.643 175.521 25.9666C174.691 24.2978 173.727 22.6729 172.637 21.1017C167.964 13.1383 158.519 9.72936 149.687 5.10936C147.193 3.76856 145.105 2.00513 143.571 -0.0540935L198.383 0.0345579Z" fill="url(#paint1_linear)"/>
<path d="M-0.000388468 0.0943729L0.106454 41.8341C9.43682 41.3342 18.3484 38.0764 20.7063 31.1519C21.308 29.4138 22.0274 27.7028 22.8614 26.0264C23.6918 24.3576 24.6553 22.7327 25.746 21.1615C30.4189 13.1981 39.8638 9.78918 48.6957 5.16917C51.1894 3.82837 53.2783 2.06494 54.8121 0.00572097L-0.000388468 0.0943729Z" fill="url(#paint2_linear)"/>
<path opacity="0.15" d="M150.714 0.713766C160.886 5.82075 171.428 9.67509 177.28 17.8706C178.631 19.52 179.86 21.2306 180.96 22.9938C182.075 24.7724 183.086 26.6163 183.968 28.494C186.431 33.7703 191.958 37.0396 198.275 38.6424L198.267 41.7743C188.937 41.2744 180.025 38.0166 177.667 31.0921C177.066 29.354 176.346 27.643 175.512 25.9666C174.682 24.2978 173.718 22.6729 172.628 21.1016C167.955 13.1383 158.51 9.72935 149.678 5.10934C147.188 3.76772 145.102 2.00436 143.571 -0.0540935L149.337 -0.0447667C149.779 0.212898 150.236 0.468162 150.714 0.713766Z" fill="white"/>
<path opacity="0.15" d="M47.669 0.77358C37.4965 5.88056 26.9549 9.73491 21.1024 17.9304C19.7515 19.5798 18.5228 21.2904 17.4226 23.0536C16.3079 24.8322 15.2971 26.6761 14.4145 28.5538C11.9518 33.8301 6.42522 37.0994 0.107589 38.7022L0.115606 41.8341C9.44597 41.3342 18.3576 38.0764 20.7154 31.1519C21.3171 29.4138 22.0366 27.7028 22.8706 26.0264C23.701 24.3576 24.6645 22.7327 25.7552 21.1615C30.4281 13.1981 39.873 9.78916 48.7049 5.16916C51.1952 3.82754 53.2809 2.06417 54.8121 0.00572097L49.0454 0.0150478C48.6039 0.272713 48.1471 0.527977 47.669 0.77358Z" fill="white"/>
<g clip-path="url(#clip1)">
<path d="M40.1243 34.2473C39.3512 34.2473 38.7246 33.6208 38.7246 32.8476V22.9829C38.7246 22.2097 39.3512 21.5831 40.1243 21.5831H49.9891C50.7623 21.5831 51.3888 22.2097 51.3888 22.9829C51.3888 23.756 50.7623 24.3826 49.9891 24.3826H41.5241V32.8476C41.5241 33.6208 40.8975 34.2473 40.1243 34.2473Z" fill="url(#paint3_linear)"/>
</g>
<g clip-path="url(#clip2)">
<path d="M157.6 33.9457C158.373 33.9457 159 33.3191 159 32.546V22.6812C159 21.908 158.373 21.2815 157.6 21.2815H147.736C146.962 21.2815 146.336 21.908 146.336 22.6812C146.336 23.4544 146.962 24.0809 147.736 24.0809H156.201V32.546C156.201 33.3191 156.827 33.9457 157.6 33.9457Z" fill="url(#paint4_linear)"/>
</g>
<g clip-path="url(#clip3)">
<path d="M39.8216 194.105C39.0484 194.105 38.4219 194.732 38.4219 195.505V205.37C38.4219 206.143 39.0484 206.769 39.8216 206.769H49.6863C50.4595 206.769 51.0861 206.143 51.0861 205.37C51.0861 204.596 50.4595 203.97 49.6863 203.97H41.2213V195.505C41.2213 194.732 40.5948 194.105 39.8216 194.105Z" fill="url(#paint5_linear)"/>
</g>
<g clip-path="url(#clip4)">
<path d="M157.904 194.407C158.677 194.407 159.304 195.033 159.304 195.806V205.671C159.304 206.444 158.677 207.071 157.904 207.071H148.039C147.266 207.071 146.64 206.444 146.64 205.671C146.64 204.898 147.266 204.271 148.039 204.271H156.504V195.806C156.504 195.033 157.131 194.407 157.904 194.407Z" fill="url(#paint6_linear)"/>
</g>
<path d="M197.734 341.599L197.627 300C188.329 300.498 179.447 303.745 177.097 310.646C176.497 312.378 175.78 314.084 174.949 315.754C174.122 317.418 173.161 319.037 172.074 320.603C167.417 328.539 158.004 331.937 149.202 336.541C146.717 337.877 144.635 339.635 143.106 341.687L197.734 341.599Z" fill="url(#paint7_linear)"/>
<path d="M-0.999522 341.599L-0.89304 300C8.40582 300.498 17.2873 303.745 19.6373 310.646C20.2369 312.378 20.9539 314.084 21.7851 315.754C22.6127 317.418 23.5729 319.037 24.66 320.603C29.3171 328.539 38.7301 331.937 47.5322 336.541C50.0174 337.877 52.0992 339.635 53.6279 341.687L-0.999522 341.599Z" fill="url(#paint8_linear)"/>
<path opacity="0.15" d="M150.226 340.922C160.364 335.832 170.87 331.991 176.702 323.823C178.049 322.179 179.273 320.474 180.37 318.717C181.481 316.945 182.488 315.107 183.368 313.236C185.822 307.977 191.33 304.719 197.626 303.121L197.618 300C188.319 300.498 179.438 303.745 177.088 310.646C176.488 312.378 175.771 314.084 174.94 315.754C174.113 317.418 173.152 319.037 172.065 320.603C167.408 328.539 157.995 331.937 149.193 336.541C146.711 337.878 144.633 339.636 143.106 341.687L148.854 341.678C149.294 341.421 149.749 341.167 150.226 340.922Z" fill="white"/>
<path opacity="0.15" d="M46.5089 340.922C36.3708 335.832 25.8648 331.991 20.0321 323.823C18.6857 322.179 17.4611 320.474 16.3646 318.717C15.2537 316.945 14.2464 315.107 13.3667 313.236C10.9123 307.977 5.40439 304.719 -0.891907 303.121L-0.883917 300C8.41494 300.498 17.2964 303.745 19.6464 310.646C20.246 312.378 20.963 314.084 21.7942 315.754C22.6218 317.418 23.5821 319.037 24.6691 320.603C29.3262 328.539 38.7392 331.937 47.5413 336.541C50.0232 337.878 52.1019 339.636 53.6279 341.687L47.8807 341.678C47.4407 341.421 46.9854 341.167 46.5089 340.922Z" fill="white"/>
<g clip-path="url(#clip5)">
<path d="M39.9878 35.2541C39.2172 35.2541 38.5928 34.6297 38.5928 33.8591V24.0277C38.5928 23.2571 39.2172 22.6327 39.9878 22.6327H49.8192C50.5898 22.6327 51.2142 23.2571 51.2142 24.0277C51.2142 24.7983 50.5898 25.4227 49.8192 25.4227H41.3828V33.8591C41.3828 34.6297 40.7583 35.2541 39.9878 35.2541Z" fill="url(#paint9_linear)"/>
</g>
<g clip-path="url(#clip6)">
<path d="M157.069 34.9536C157.839 34.9536 158.464 34.3292 158.464 33.5586V23.7272C158.464 22.9566 157.839 22.3322 157.069 22.3322H147.237C146.467 22.3322 145.842 22.9566 145.842 23.7272C145.842 24.4977 146.467 25.1222 147.237 25.1222H155.674V33.5586C155.674 34.3292 156.298 34.9536 157.069 34.9536Z" fill="url(#paint10_linear)"/>
</g>
<g clip-path="url(#clip7)">
<path d="M39.688 194.572C38.9174 194.572 38.293 195.196 38.293 195.967V205.798C38.293 206.569 38.9174 207.193 39.688 207.193H49.5194C50.29 207.193 50.9144 206.569 50.9144 205.798C50.9144 205.028 50.29 204.403 49.5194 204.403H41.083V195.967C41.083 195.196 40.4585 194.572 39.688 194.572Z" fill="url(#paint11_linear)"/>
</g>
<g clip-path="url(#clip8)">
<path d="M157.369 194.873C158.139 194.873 158.764 195.497 158.764 196.268V206.099C158.764 206.87 158.139 207.494 157.369 207.494H147.537C146.767 207.494 146.142 206.87 146.142 206.099C146.142 205.329 146.767 204.704 147.537 204.704H155.974V196.268C155.974 195.497 156.598 194.873 157.369 194.873Z" fill="url(#paint12_linear)"/>
</g>
<g clip-path="url(#clip9)">
<path d="M103.757 318.857H93.6341C92.963 318.857 92.3193 319.124 91.8447 319.598C91.3701 320.073 91.1035 320.717 91.1035 321.388V331.51C91.1035 332.182 91.3701 332.825 91.8447 333.3C92.3193 333.774 92.963 334.041 93.6341 334.041H103.757C104.428 334.041 105.071 333.774 105.546 333.3C106.021 332.825 106.287 332.182 106.287 331.51V321.388C106.287 320.717 106.021 320.073 105.546 319.598C105.071 319.124 104.428 318.857 103.757 318.857V318.857ZM105.022 331.51C105.022 331.846 104.889 332.168 104.651 332.405C104.414 332.642 104.092 332.776 103.757 332.776H93.6341C93.2985 332.776 92.9767 332.642 92.7394 332.405C92.5021 332.168 92.3688 331.846 92.3688 331.51V321.388C92.3688 321.052 92.5021 320.73 92.7394 320.493C92.9767 320.256 93.2985 320.123 93.6341 320.123H103.757C104.092 320.123 104.414 320.256 104.651 320.493C104.889 320.73 105.022 321.052 105.022 321.388V331.51Z" fill="url(#paint13_linear)"/>
<path d="M98.6953 322.653C97.9446 322.653 97.2107 322.876 96.5864 323.293C95.9622 323.71 95.4757 324.303 95.1884 324.997C94.9011 325.69 94.8259 326.453 94.9724 327.19C95.1188 327.926 95.4803 328.602 96.0112 329.133C96.5421 329.664 97.2185 330.026 97.9548 330.172C98.6911 330.319 99.4544 330.244 100.148 329.956C100.842 329.669 101.434 329.182 101.852 328.558C102.269 327.934 102.491 327.2 102.491 326.449C102.491 325.442 102.091 324.477 101.379 323.765C100.668 323.053 99.7021 322.653 98.6953 322.653ZM98.6953 328.98C98.1948 328.98 97.7056 328.831 97.2894 328.553C96.8732 328.275 96.5489 327.88 96.3574 327.418C96.1658 326.955 96.1157 326.446 96.2133 325.956C96.311 325.465 96.552 325.014 96.9059 324.66C97.2598 324.306 97.7107 324.065 98.2016 323.967C98.6925 323.87 99.2014 323.92 99.6638 324.111C100.126 324.303 100.521 324.627 100.799 325.043C101.078 325.459 101.226 325.949 101.226 326.449C101.226 327.12 100.959 327.764 100.485 328.239C100.01 328.713 99.3665 328.98 98.6953 328.98Z" fill="url(#paint14_linear)"/>
<path d="M102.807 323.286C103.331 323.286 103.756 322.861 103.756 322.337C103.756 321.813 103.331 321.388 102.807 321.388C102.283 321.388 101.858 321.813 101.858 322.337C101.858 322.861 102.283 323.286 102.807 323.286Z" fill="url(#paint15_linear)"/>
</g>
<g clip-path="url(#clip10)">
<path d="M82.8757 334.041V334.04H82.8795V328.472C82.8795 325.747 82.293 323.649 79.1082 323.649C77.5772 323.649 76.5498 324.489 76.1303 325.285H76.0861V323.903H73.0664V334.04H76.2107V329.021C76.2107 327.699 76.4612 326.421 78.0979 326.421C79.7105 326.421 79.7346 327.929 79.7346 329.105V334.041H82.8757Z" fill="url(#paint16_linear)"/>
<path d="M67.9453 323.904H71.0934V334.041H67.9453V323.904Z" fill="url(#paint17_linear)"/>
<path d="M69.5186 318.857C68.5121 318.857 67.6953 319.674 67.6953 320.681C67.6953 321.687 68.5121 322.521 69.5186 322.521C70.5252 322.521 71.3419 321.687 71.3419 320.681C71.3413 319.674 70.5245 318.857 69.5186 318.857V318.857Z" fill="url(#paint18_linear)"/>
</g>
<g clip-path="url(#clip11)">
<path d="M130.072 321.388H116.666C115.478 321.388 114.512 322.316 114.512 323.456V332.161C114.512 333.302 115.478 334.229 116.666 334.229H130.072C131.26 334.229 132.226 333.302 132.226 332.161V323.456C132.226 322.316 131.26 321.388 130.072 321.388ZM129.04 322.082L123.364 326.486L117.688 322.082H129.04ZM129.324 333.535H117.404V325.43L123.137 329.863C123.27 329.966 123.458 329.966 123.591 329.863L129.324 325.43V333.535H129.324ZM131.503 332.161C131.503 332.919 130.861 333.535 130.072 333.535H130.047V324.705C130.047 324.571 129.967 324.449 129.842 324.392C129.716 324.334 129.567 324.351 129.459 324.434L123.364 329.148L117.269 324.434C117.161 324.351 117.012 324.334 116.886 324.392C116.761 324.449 116.681 324.571 116.681 324.705V333.535H116.666C115.877 333.535 115.235 332.919 115.235 332.161V323.456C115.235 322.737 115.812 322.146 116.545 322.087L123.137 327.202C123.203 327.254 123.284 327.28 123.364 327.28C123.444 327.28 123.525 327.254 123.591 327.202L130.184 322.087C130.921 322.142 131.503 322.734 131.503 323.456V332.161Z" fill="url(#paint19_linear)"/>
</g>
<line x1="38.5938" y1="299.561" x2="158.798" y2="299.598" stroke="black" stroke-width="0.632653"/>
</g>
<defs>
<radialGradient id="paint0_radial" cx="0" cy="0" r="1" gradientUnits="userSpaceOnUse" gradientTransform="translate(368.5 99) rotate(90) scale(99 170.5)">
<stop stop-color="#335063"/>
<stop offset="1" stop-color="#1B3342"/>
</radialGradient>
<linearGradient id="paint1_linear" x1="170.87" y1="41.73" x2="170.938" y2="-0.00983083" gradientUnits="userSpaceOnUse">
<stop stop-color="#379BE7"/>
<stop offset="1" stop-color="#1DE9C4"/>
</linearGradient>
<linearGradient id="paint2_linear" x1="27.5127" y1="41.7898" x2="27.4452" y2="0.0499839" gradientUnits="userSpaceOnUse">
<stop stop-color="#379BE7"/>
<stop offset="1" stop-color="#1DE9C4"/>
</linearGradient>
<linearGradient id="paint3_linear" x1="45.0567" y1="21.5831" x2="45.0567" y2="34.2473" gradientUnits="userSpaceOnUse">
<stop stop-color="#379BE7"/>
<stop offset="1" stop-color="#1DE9C4"/>
</linearGradient>
<linearGradient id="paint4_linear" x1="152.668" y1="21.2815" x2="152.668" y2="33.9457" gradientUnits="userSpaceOnUse">
<stop stop-color="#379BE7"/>
<stop offset="1" stop-color="#1DE9C4"/>
</linearGradient>
<linearGradient id="paint5_linear" x1="44.754" y1="206.769" x2="44.754" y2="194.105" gradientUnits="userSpaceOnUse">
<stop stop-color="#379BE7"/>
<stop offset="1" stop-color="#1DE9C4"/>
</linearGradient>
<linearGradient id="paint6_linear" x1="152.972" y1="207.071" x2="152.972" y2="194.407" gradientUnits="userSpaceOnUse">
<stop stop-color="#379BE7"/>
<stop offset="1" stop-color="#1DE9C4"/>
</linearGradient>
<linearGradient id="paint7_linear" x1="170.314" y1="300.044" x2="170.381" y2="341.643" gradientUnits="userSpaceOnUse">
<stop stop-color="#379BE7"/>
<stop offset="1" stop-color="#1DE9C4"/>
</linearGradient>
<linearGradient id="paint8_linear" x1="26.4207" y1="300.044" x2="26.3534" y2="341.643" gradientUnits="userSpaceOnUse">
<stop stop-color="#379BE7"/>
<stop offset="1" stop-color="#1DE9C4"/>
</linearGradient>
<linearGradient id="paint9_linear" x1="44.9035" y1="22.6327" x2="44.9035" y2="35.2541" gradientUnits="userSpaceOnUse">
<stop stop-color="#379BE7"/>
<stop offset="1" stop-color="#1DE9C4"/>
</linearGradient>
<linearGradient id="paint10_linear" x1="152.153" y1="22.3322" x2="152.153" y2="34.9536" gradientUnits="userSpaceOnUse">
<stop stop-color="#379BE7"/>
<stop offset="1" stop-color="#1DE9C4"/>
</linearGradient>
<linearGradient id="paint11_linear" x1="44.6037" y1="207.193" x2="44.6037" y2="194.572" gradientUnits="userSpaceOnUse">
<stop stop-color="#379BE7"/>
<stop offset="1" stop-color="#1DE9C4"/>
</linearGradient>
<linearGradient id="paint12_linear" x1="152.453" y1="207.494" x2="152.453" y2="194.873" gradientUnits="userSpaceOnUse">
<stop stop-color="#379BE7"/>
<stop offset="1" stop-color="#1DE9C4"/>
</linearGradient>
<linearGradient id="paint13_linear" x1="98.6954" y1="318.857" x2="98.6954" y2="334.041" gradientUnits="userSpaceOnUse">
<stop stop-color="#379BE7"/>
<stop offset="1" stop-color="#1DE9C4"/>
</linearGradient>
<linearGradient id="paint14_linear" x1="98.6953" y1="322.653" x2="98.6953" y2="330.245" gradientUnits="userSpaceOnUse">
<stop stop-color="#379BE7"/>
<stop offset="1" stop-color="#1DE9C4"/>
</linearGradient>
<linearGradient id="paint15_linear" x1="102.807" y1="321.388" x2="102.807" y2="323.286" gradientUnits="userSpaceOnUse">
<stop stop-color="#379BE7"/>
<stop offset="1" stop-color="#1DE9C4"/>
</linearGradient>
<linearGradient id="paint16_linear" x1="77.9729" y1="323.649" x2="77.9729" y2="334.041" gradientUnits="userSpaceOnUse">
<stop stop-color="#379BE7"/>
<stop offset="1" stop-color="#1DE9C4"/>
</linearGradient>
<linearGradient id="paint17_linear" x1="69.5194" y1="323.904" x2="69.5194" y2="334.041" gradientUnits="userSpaceOnUse">
<stop stop-color="#379BE7"/>
<stop offset="1" stop-color="#1DE9C4"/>
</linearGradient>
<linearGradient id="paint18_linear" x1="69.5186" y1="318.857" x2="69.5186" y2="322.521" gradientUnits="userSpaceOnUse">
<stop stop-color="#379BE7"/>
<stop offset="1" stop-color="#1DE9C4"/>
</linearGradient>
<linearGradient id="paint19_linear" x1="123.369" y1="321.388" x2="123.369" y2="334.229" gradientUnits="userSpaceOnUse">
<stop stop-color="#379BE7"/>
<stop offset="1" stop-color="#1DE9C4"/>
</linearGradient>
<clipPath id="clip0">
<rect x="198" width="341" height="198" rx="3.07505" transform="rotate(90 198 0)" fill="white"/>
</clipPath>
<clipPath id="clip1">
<rect width="13.3307" height="16.6634" fill="white" transform="translate(38.0889 20.9482)"/>
</clipPath>
<clipPath id="clip2">
<rect width="13.3307" height="16.6634" fill="white" transform="matrix(-1 0 0 1 159.334 20.9482)"/>
</clipPath>
<clipPath id="clip3">
<rect width="13.3307" height="16.6634" fill="white" transform="matrix(1 0 0 -1 38.0889 207.102)"/>
</clipPath>
<clipPath id="clip4">
<rect width="13.3307" height="16.6634" fill="white" transform="translate(159.637 207.404) rotate(-180)"/>
</clipPath>
<clipPath id="clip5">
<rect width="13.2857" height="16.6071" fill="white" transform="translate(37.96 22)"/>
</clipPath>
<clipPath id="clip6">
<rect width="13.2857" height="16.6071" fill="white" transform="matrix(-1 0 0 1 158.795 22.0001)"/>
</clipPath>
<clipPath id="clip7">
<rect width="13.2857" height="16.6071" fill="white" transform="matrix(1 0 0 -1 37.959 207.526)"/>
</clipPath>
<clipPath id="clip8">
<rect width="13.2857" height="16.6071" fill="white" transform="translate(159.097 207.826) rotate(-180)"/>
</clipPath>
<clipPath id="clip9">
<rect width="15.1837" height="15.1837" fill="white" transform="translate(91.1035 318.857)"/>
</clipPath>
<clipPath id="clip10">
<rect width="15.1837" height="15.1837" fill="white" transform="translate(67.6953 318.857)"/>
</clipPath>
<clipPath id="clip11">
<rect width="17.7143" height="12.6531" fill="white" transform="translate(114.512 321.388)"/>
</clipPath>
</defs>
</svg>
