<svg width="198" height="341" viewBox="0 0 198 341" fill="none" xmlns="http://www.w3.org/2000/svg">
<g clip-path="url(#clip0)">
<rect x="198" width="341" height="198" rx="3.07505" transform="rotate(90 198 0)" fill="url(#paint0_radial)"/>
<path d="M198.383 0.0345579L198.276 41.7743C188.946 41.2744 180.034 38.0166 177.677 31.0921C177.075 29.354 176.355 27.643 175.521 25.9666C174.691 24.2978 173.727 22.6729 172.637 21.1017C167.964 13.1383 158.519 9.72936 149.687 5.10936C147.193 3.76856 145.105 2.00513 143.571 -0.0540935L198.383 0.0345579Z" fill="url(#paint1_linear)"/>
<path d="M0.000588094 0.0943729L0.10743 41.8341C9.43779 41.3342 18.3494 38.0764 20.7073 31.1519C21.309 29.4138 22.0284 27.7028 22.8624 26.0264C23.6928 24.3576 24.6563 22.7327 25.747 21.1615C30.4199 13.1981 39.8648 9.78918 48.6967 5.16917C51.1904 3.82837 53.2793 2.06494 54.8131 0.00572097L0.000588094 0.0943729Z" fill="url(#paint2_linear)"/>
<path opacity="0.15" d="M150.714 0.713766C160.886 5.82075 171.428 9.67509 177.28 17.8706C178.631 19.52 179.86 21.2306 180.96 22.9938C182.075 24.7724 183.086 26.6163 183.968 28.494C186.431 33.7703 191.958 37.0396 198.275 38.6424L198.267 41.7743C188.937 41.2744 180.025 38.0166 177.667 31.0921C177.066 29.354 176.346 27.643 175.512 25.9666C174.682 24.2978 173.718 22.6729 172.628 21.1016C167.955 13.1383 158.51 9.72935 149.678 5.10934C147.188 3.76772 145.102 2.00436 143.571 -0.0540935L149.337 -0.0447667C149.779 0.212898 150.236 0.468162 150.714 0.713766Z" fill="white"/>
<path opacity="0.15" d="M47.6699 0.77358C37.4975 5.88056 26.9559 9.73491 21.1034 17.9304C19.7525 19.5798 18.5238 21.2904 17.4235 23.0536C16.3089 24.8322 15.2981 26.6761 14.4155 28.5538C11.9528 33.8301 6.42619 37.0994 0.108566 38.7022L0.116582 41.8341C9.44695 41.3342 18.3585 38.0764 20.7164 31.1519C21.3181 29.4138 22.0375 27.7028 22.8716 26.0264C23.702 24.3576 24.6655 22.7327 25.7562 21.1615C30.4291 13.1981 39.8739 9.78916 48.7058 5.16916C51.1962 3.82754 53.2819 2.06417 54.8131 0.00572097L49.0464 0.0150478C48.6049 0.272713 48.1481 0.527977 47.6699 0.77358Z" fill="white"/>
<g clip-path="url(#clip1)">
<path d="M40.1214 34.2473C39.3482 34.2473 38.7217 33.6208 38.7217 32.8476V22.9829C38.7217 22.2097 39.3482 21.5831 40.1214 21.5831H49.9861C50.7593 21.5831 51.3859 22.2097 51.3859 22.9829C51.3859 23.756 50.7593 24.3826 49.9861 24.3826H41.5211V32.8476C41.5211 33.6208 40.8946 34.2473 40.1214 34.2473Z" fill="url(#paint3_linear)"/>
</g>
<g clip-path="url(#clip2)">
<path d="M157.6 33.9465C158.373 33.9465 159 33.32 159 32.5468V22.6821C159 21.9089 158.373 21.2823 157.6 21.2823H147.736C146.962 21.2823 146.336 21.9089 146.336 22.6821C146.336 23.4553 146.962 24.0818 147.736 24.0818H156.201V32.5468C156.201 33.32 156.827 33.9465 157.6 33.9465Z" fill="url(#paint4_linear)"/>
</g>
<g clip-path="url(#clip3)">
<path d="M39.8206 194.105C39.0474 194.105 38.4209 194.731 38.4209 195.505V205.369C38.4209 206.142 39.0474 206.769 39.8206 206.769H49.6854C50.4585 206.769 51.0851 206.142 51.0851 205.369C51.0851 204.596 50.4585 203.97 49.6854 203.97H41.2204V195.505C41.2204 194.731 40.5938 194.105 39.8206 194.105Z" fill="url(#paint5_linear)"/>
</g>
<g clip-path="url(#clip4)">
<path d="M157.902 194.407C158.675 194.407 159.302 195.033 159.302 195.806V205.671C159.302 206.444 158.675 207.071 157.902 207.071H148.037C147.264 207.071 146.638 206.444 146.638 205.671C146.638 204.898 147.264 204.271 148.037 204.271H156.502V195.806C156.502 195.033 157.129 194.407 157.902 194.407Z" fill="url(#paint6_linear)"/>
</g>
<path d="M197.734 341.599L197.627 300C188.329 300.498 179.447 303.745 177.097 310.646C176.497 312.378 175.78 314.084 174.949 315.754C174.122 317.418 173.161 319.037 172.074 320.603C167.417 328.539 158.004 331.937 149.202 336.541C146.717 337.877 144.635 339.635 143.106 341.687L197.734 341.599Z" fill="url(#paint7_linear)"/>
<path d="M-0.999522 341.599L-0.89304 300C8.40582 300.498 17.2873 303.745 19.6373 310.646C20.2369 312.378 20.9539 314.084 21.7851 315.754C22.6127 317.418 23.5729 319.037 24.66 320.603C29.3171 328.539 38.7301 331.937 47.5322 336.541C50.0174 337.877 52.0992 339.635 53.6279 341.687L-0.999522 341.599Z" fill="url(#paint8_linear)"/>
<path opacity="0.15" d="M150.226 340.922C160.364 335.832 170.87 331.991 176.702 323.823C178.049 322.179 179.273 320.474 180.37 318.717C181.481 316.945 182.488 315.107 183.368 313.236C185.822 307.977 191.33 304.719 197.626 303.121L197.618 300C188.319 300.498 179.438 303.745 177.088 310.646C176.488 312.378 175.771 314.084 174.94 315.754C174.113 317.418 173.152 319.037 172.065 320.603C167.408 328.539 157.995 331.937 149.193 336.541C146.711 337.878 144.633 339.636 143.106 341.687L148.854 341.678C149.294 341.421 149.749 341.167 150.226 340.922Z" fill="white"/>
<path opacity="0.15" d="M46.5089 340.922C36.3708 335.832 25.8648 331.991 20.0321 323.823C18.6857 322.179 17.4611 320.474 16.3646 318.717C15.2537 316.945 14.2464 315.107 13.3667 313.236C10.9123 307.977 5.40439 304.719 -0.891907 303.121L-0.883917 300C8.41494 300.498 17.2964 303.745 19.6464 310.646C20.246 312.378 20.963 314.084 21.7942 315.754C22.6218 317.418 23.5821 319.037 24.6691 320.603C29.3262 328.539 38.7392 331.937 47.5413 336.541C50.0232 337.878 52.1019 339.636 53.6279 341.687L47.8807 341.678C47.4407 341.421 46.9854 341.167 46.5089 340.922Z" fill="white"/>
<g clip-path="url(#clip5)">
<path d="M39.9878 35.2541C39.2172 35.2541 38.5928 34.6297 38.5928 33.8591V24.0277C38.5928 23.2571 39.2172 22.6327 39.9878 22.6327H49.8192C50.5898 22.6327 51.2142 23.2571 51.2142 24.0277C51.2142 24.7983 50.5898 25.4227 49.8192 25.4227H41.3828V33.8591C41.3828 34.6297 40.7583 35.2541 39.9878 35.2541Z" fill="url(#paint9_linear)"/>
</g>
<g clip-path="url(#clip6)">
<path d="M157.069 34.9536C157.839 34.9536 158.464 34.3292 158.464 33.5586V23.7272C158.464 22.9566 157.839 22.3322 157.069 22.3322H147.237C146.467 22.3322 145.842 22.9566 145.842 23.7272C145.842 24.4977 146.467 25.1222 147.237 25.1222H155.674V33.5586C155.674 34.3292 156.298 34.9536 157.069 34.9536Z" fill="url(#paint10_linear)"/>
</g>
<g clip-path="url(#clip7)">
<path d="M39.688 194.572C38.9174 194.572 38.293 195.196 38.293 195.967V205.798C38.293 206.569 38.9174 207.193 39.688 207.193H49.5194C50.29 207.193 50.9144 206.569 50.9144 205.798C50.9144 205.028 50.29 204.403 49.5194 204.403H41.083V195.967C41.083 195.196 40.4585 194.572 39.688 194.572Z" fill="url(#paint11_linear)"/>
</g>
<g clip-path="url(#clip8)">
<path d="M157.369 194.873C158.139 194.873 158.764 195.497 158.764 196.268V206.099C158.764 206.87 158.139 207.494 157.369 207.494H147.537C146.767 207.494 146.142 206.87 146.142 206.099C146.142 205.329 146.767 204.704 147.537 204.704H155.974V196.268C155.974 195.497 156.598 194.873 157.369 194.873Z" fill="url(#paint12_linear)"/>
</g>
<line x1="38.5938" y1="299.561" x2="158.798" y2="299.598" stroke="black" stroke-width="0.632653"/>
</g>
<defs>
<radialGradient id="paint0_radial" cx="0" cy="0" r="1" gradientUnits="userSpaceOnUse" gradientTransform="translate(368.5 99) rotate(90) scale(99 170.5)">
<stop stop-color="#335063"/>
<stop offset="1" stop-color="#1B3342"/>
</radialGradient>
<linearGradient id="paint1_linear" x1="170.87" y1="41.73" x2="170.938" y2="-0.00983083" gradientUnits="userSpaceOnUse">
<stop stop-color="#379BE7"/>
<stop offset="1" stop-color="#1DE9C4"/>
</linearGradient>
<linearGradient id="paint2_linear" x1="27.5137" y1="41.7898" x2="27.4462" y2="0.0499839" gradientUnits="userSpaceOnUse">
<stop stop-color="#379BE7"/>
<stop offset="1" stop-color="#1DE9C4"/>
</linearGradient>
<linearGradient id="paint3_linear" x1="45.0538" y1="21.5831" x2="45.0538" y2="34.2473" gradientUnits="userSpaceOnUse">
<stop stop-color="#379BE7"/>
<stop offset="1" stop-color="#1DE9C4"/>
</linearGradient>
<linearGradient id="paint4_linear" x1="152.668" y1="21.2823" x2="152.668" y2="33.9465" gradientUnits="userSpaceOnUse">
<stop stop-color="#379BE7"/>
<stop offset="1" stop-color="#1DE9C4"/>
</linearGradient>
<linearGradient id="paint5_linear" x1="44.753" y1="206.769" x2="44.753" y2="194.105" gradientUnits="userSpaceOnUse">
<stop stop-color="#379BE7"/>
<stop offset="1" stop-color="#1DE9C4"/>
</linearGradient>
<linearGradient id="paint6_linear" x1="152.97" y1="207.071" x2="152.97" y2="194.407" gradientUnits="userSpaceOnUse">
<stop stop-color="#379BE7"/>
<stop offset="1" stop-color="#1DE9C4"/>
</linearGradient>
<linearGradient id="paint7_linear" x1="170.314" y1="300.044" x2="170.381" y2="341.643" gradientUnits="userSpaceOnUse">
<stop stop-color="#379BE7"/>
<stop offset="1" stop-color="#1DE9C4"/>
</linearGradient>
<linearGradient id="paint8_linear" x1="26.4207" y1="300.044" x2="26.3534" y2="341.643" gradientUnits="userSpaceOnUse">
<stop stop-color="#379BE7"/>
<stop offset="1" stop-color="#1DE9C4"/>
</linearGradient>
<linearGradient id="paint9_linear" x1="44.9035" y1="22.6327" x2="44.9035" y2="35.2541" gradientUnits="userSpaceOnUse">
<stop stop-color="#379BE7"/>
<stop offset="1" stop-color="#1DE9C4"/>
</linearGradient>
<linearGradient id="paint10_linear" x1="152.153" y1="22.3322" x2="152.153" y2="34.9536" gradientUnits="userSpaceOnUse">
<stop stop-color="#379BE7"/>
<stop offset="1" stop-color="#1DE9C4"/>
</linearGradient>
<linearGradient id="paint11_linear" x1="44.6037" y1="207.193" x2="44.6037" y2="194.572" gradientUnits="userSpaceOnUse">
<stop stop-color="#379BE7"/>
<stop offset="1" stop-color="#1DE9C4"/>
</linearGradient>
<linearGradient id="paint12_linear" x1="152.453" y1="207.494" x2="152.453" y2="194.873" gradientUnits="userSpaceOnUse">
<stop stop-color="#379BE7"/>
<stop offset="1" stop-color="#1DE9C4"/>
</linearGradient>
<clipPath id="clip0">
<rect x="198" width="341" height="198" rx="3.07505" transform="rotate(90 198 0)" fill="white"/>
</clipPath>
<clipPath id="clip1">
<rect width="13.3307" height="16.6634" fill="white" transform="translate(38.0869 20.9482)"/>
</clipPath>
<clipPath id="clip2">
<rect width="13.3307" height="16.6634" fill="white" transform="matrix(-1 0 0 1 159.334 20.9482)"/>
</clipPath>
<clipPath id="clip3">
<rect width="13.3307" height="16.6634" fill="white" transform="matrix(1 0 0 -1 38.0869 207.102)"/>
</clipPath>
<clipPath id="clip4">
<rect width="13.3307" height="16.6634" fill="white" transform="translate(159.635 207.404) rotate(-180)"/>
</clipPath>
<clipPath id="clip5">
<rect width="13.2857" height="16.6071" fill="white" transform="translate(37.96 22)"/>
</clipPath>
<clipPath id="clip6">
<rect width="13.2857" height="16.6071" fill="white" transform="matrix(-1 0 0 1 158.795 22.0001)"/>
</clipPath>
<clipPath id="clip7">
<rect width="13.2857" height="16.6071" fill="white" transform="matrix(1 0 0 -1 37.959 207.526)"/>
</clipPath>
<clipPath id="clip8">
<rect width="13.2857" height="16.6071" fill="white" transform="translate(159.097 207.826) rotate(-180)"/>
</clipPath>
</defs>
</svg>
