<svg width="198" height="341" viewBox="0 0 198 341" fill="none" xmlns="http://www.w3.org/2000/svg">
<g clip-path="url(#clip0)">
<rect x="198" width="341" height="198" rx="3.06764" transform="rotate(90 198 0)" fill="url(#paint0_radial)"/>
<path d="M198.145 0.034097L198.039 41.6733C188.731 41.1746 179.841 37.9246 177.489 31.0168C176.888 29.2829 176.171 27.576 175.339 25.9036C174.51 24.2389 173.549 22.6179 172.461 21.0504C167.799 13.1063 158.377 9.70554 149.567 5.09667C147.079 3.7591 144.995 1.99992 143.465 -0.0543407L198.145 0.034097Z" fill="url(#paint1_linear)"/>
<path d="M0.241323 0.0941561L0.347908 41.7333C9.65579 41.2346 18.5459 37.9847 20.8981 31.0769C21.4984 29.3429 22.216 27.636 23.048 25.9637C23.8764 24.2989 24.8376 22.6779 25.9257 21.1105C30.5873 13.1663 40.0095 9.7656 48.8201 5.15673C51.3078 3.81916 53.3916 2.05998 54.9217 0.00571785L0.241323 0.0941561Z" fill="url(#paint2_linear)"/>
<path opacity="0.15" d="M150.591 0.711668C160.739 5.80635 171.255 9.6514 177.093 17.8272C178.441 19.4726 179.667 21.1791 180.764 22.938C181.876 24.7123 182.885 26.5518 183.765 28.4249C186.222 33.6885 191.735 36.95 198.038 38.5489L198.03 41.6733C188.722 41.1746 179.832 37.9246 177.479 31.0168C176.879 29.2828 176.162 27.576 175.33 25.9036C174.501 24.2389 173.54 22.6178 172.452 21.0504C167.79 13.1063 158.368 9.70552 149.558 5.09665C147.073 3.75826 144.992 1.99915 143.465 -0.0543407L149.218 -0.0450364C149.658 0.212007 150.114 0.466656 150.591 0.711668Z" fill="white"/>
<path opacity="0.15" d="M47.7958 0.771727C37.6479 5.8664 27.1317 9.71146 21.2933 17.8872C19.9457 19.5326 18.7199 21.2391 17.6223 22.998C16.5103 24.7724 15.502 26.6119 14.6215 28.485C12.1647 33.7486 6.65145 37.01 0.349051 38.609L0.357049 41.7333C9.66493 41.2346 18.5551 37.9847 20.9072 31.0768C21.5075 29.3429 22.2252 27.636 23.0572 25.9637C23.8856 24.2989 24.8468 22.6779 25.9349 21.1105C30.5965 13.1663 40.0186 9.76558 48.8292 5.15671C51.3136 3.81832 53.3942 2.05921 54.9217 0.00571785L49.169 0.0150222C48.7285 0.272066 48.2728 0.526715 47.7958 0.771727Z" fill="white"/>
<path d="M84.225 245.25H80.505L79.735 247H78.705L81.875 240H82.865L86.045 247H84.995L84.225 245.25ZM83.875 244.45L82.365 241.02L80.855 244.45H83.875ZM92.3504 239.58V247H91.4304V246.16C91.2171 246.453 90.9471 246.677 90.6204 246.83C90.2937 246.983 89.9337 247.06 89.5404 247.06C89.0271 247.06 88.5671 246.947 88.1604 246.72C87.7537 246.493 87.4337 246.177 87.2004 245.77C86.9737 245.357 86.8604 244.883 86.8604 244.35C86.8604 243.817 86.9737 243.347 87.2004 242.94C87.4337 242.533 87.7537 242.217 88.1604 241.99C88.5671 241.763 89.0271 241.65 89.5404 241.65C89.9204 241.65 90.2704 241.723 90.5904 241.87C90.9104 242.01 91.1771 242.22 91.3904 242.5V239.58H92.3504ZM89.6204 246.22C89.9537 246.22 90.2571 246.143 90.5304 245.99C90.8037 245.83 91.0171 245.61 91.1704 245.33C91.3237 245.043 91.4004 244.717 91.4004 244.35C91.4004 243.983 91.3237 243.66 91.1704 243.38C91.0171 243.093 90.8037 242.873 90.5304 242.72C90.2571 242.567 89.9537 242.49 89.6204 242.49C89.2804 242.49 88.9737 242.567 88.7004 242.72C88.4337 242.873 88.2204 243.093 88.0604 243.38C87.9071 243.66 87.8304 243.983 87.8304 244.35C87.8304 244.717 87.9071 245.043 88.0604 245.33C88.2204 245.61 88.4337 245.83 88.7004 245.99C88.9737 246.143 89.2804 246.22 89.6204 246.22ZM99.3068 241.7L96.9868 247H96.0068L93.6868 241.7H94.6868L96.5068 245.95L98.3668 241.7H99.3068ZM100.653 241.7H101.613V247H100.653V241.7ZM101.133 240.68C100.946 240.68 100.789 240.62 100.663 240.5C100.543 240.38 100.483 240.233 100.483 240.06C100.483 239.887 100.543 239.74 100.663 239.62C100.789 239.493 100.946 239.43 101.133 239.43C101.319 239.43 101.473 239.49 101.593 239.61C101.719 239.723 101.783 239.867 101.783 240.04C101.783 240.22 101.719 240.373 101.593 240.5C101.473 240.62 101.319 240.68 101.133 240.68ZM105.416 247.06C104.982 247.06 104.566 247.003 104.166 246.89C103.766 246.77 103.452 246.62 103.226 246.44L103.626 245.68C103.859 245.847 104.142 245.98 104.476 246.08C104.809 246.18 105.146 246.23 105.486 246.23C106.326 246.23 106.746 245.99 106.746 245.51C106.746 245.35 106.689 245.223 106.576 245.13C106.462 245.037 106.319 244.97 106.146 244.93C105.979 244.883 105.739 244.833 105.426 244.78C104.999 244.713 104.649 244.637 104.376 244.55C104.109 244.463 103.879 244.317 103.686 244.11C103.492 243.903 103.396 243.613 103.396 243.24C103.396 242.76 103.596 242.377 103.996 242.09C104.396 241.797 104.932 241.65 105.606 241.65C105.959 241.65 106.312 241.693 106.666 241.78C107.019 241.867 107.309 241.983 107.536 242.13L107.126 242.89C106.692 242.61 106.182 242.47 105.596 242.47C105.189 242.47 104.879 242.537 104.666 242.67C104.452 242.803 104.346 242.98 104.346 243.2C104.346 243.373 104.406 243.51 104.526 243.61C104.646 243.71 104.792 243.783 104.966 243.83C105.146 243.877 105.396 243.93 105.716 243.99C106.142 244.063 106.486 244.143 106.746 244.23C107.012 244.31 107.239 244.45 107.426 244.65C107.612 244.85 107.706 245.13 107.706 245.49C107.706 245.97 107.499 246.353 107.086 246.64C106.679 246.92 106.122 247.06 105.416 247.06ZM111.625 247.06C111.099 247.06 110.625 246.943 110.205 246.71C109.785 246.477 109.455 246.157 109.215 245.75C108.982 245.337 108.865 244.87 108.865 244.35C108.865 243.83 108.982 243.367 109.215 242.96C109.455 242.547 109.785 242.227 110.205 242C110.625 241.767 111.099 241.65 111.625 241.65C112.152 241.65 112.622 241.767 113.035 242C113.455 242.227 113.782 242.547 114.015 242.96C114.255 243.367 114.375 243.83 114.375 244.35C114.375 244.87 114.255 245.337 114.015 245.75C113.782 246.157 113.455 246.477 113.035 246.71C112.622 246.943 112.152 247.06 111.625 247.06ZM111.625 246.22C111.965 246.22 112.269 246.143 112.535 245.99C112.809 245.83 113.022 245.61 113.175 245.33C113.329 245.043 113.405 244.717 113.405 244.35C113.405 243.983 113.329 243.66 113.175 243.38C113.022 243.093 112.809 242.873 112.535 242.72C112.269 242.567 111.965 242.49 111.625 242.49C111.285 242.49 110.979 242.567 110.705 242.72C110.439 242.873 110.225 243.093 110.065 243.38C109.912 243.66 109.835 243.983 109.835 244.35C109.835 244.717 109.912 245.043 110.065 245.33C110.225 245.61 110.439 245.83 110.705 245.99C110.979 246.143 111.285 246.22 111.625 246.22ZM117.073 242.59C117.24 242.283 117.486 242.05 117.813 241.89C118.14 241.73 118.536 241.65 119.003 241.65V242.58C118.95 242.573 118.876 242.57 118.783 242.57C118.263 242.57 117.853 242.727 117.553 243.04C117.26 243.347 117.113 243.787 117.113 244.36V247H116.153V241.7H117.073V242.59ZM54.5585 258.071C54.0935 258.071 53.6432 258 53.2076 257.859C52.7778 257.712 52.4393 257.523 52.1921 257.294L52.5188 256.605C52.7543 256.817 53.0545 256.99 53.4195 257.126C53.7903 257.255 54.17 257.32 54.5585 257.32C55.0707 257.32 55.4533 257.235 55.7064 257.064C55.9596 256.887 56.0861 256.655 56.0861 256.366C56.0861 256.155 56.0155 255.984 55.8742 255.854C55.7388 255.719 55.5681 255.616 55.3621 255.545C55.1619 255.475 54.8764 255.395 54.5056 255.307C54.0405 255.195 53.6638 255.083 53.3753 254.971C53.0928 254.859 52.8485 254.689 52.6424 254.459C52.4423 254.224 52.3422 253.909 52.3422 253.514C52.3422 253.185 52.4276 252.887 52.5983 252.623C52.7749 252.358 53.0398 252.146 53.393 251.987C53.7462 251.828 54.1847 251.748 54.7087 251.748C55.0736 251.748 55.4327 251.795 55.7859 251.89C56.1391 251.984 56.4423 252.119 56.6954 252.296L56.404 253.002C56.145 252.837 55.8683 252.714 55.574 252.631C55.2797 252.543 54.9912 252.499 54.7087 252.499C54.2083 252.499 53.8315 252.59 53.5784 252.773C53.3312 252.955 53.2076 253.191 53.2076 253.479C53.2076 253.691 53.2782 253.865 53.4195 254C53.5608 254.13 53.7344 254.233 53.9404 254.309C54.1524 254.38 54.4379 254.456 54.797 254.539C55.262 254.65 55.6358 254.762 55.9184 254.874C56.2009 254.986 56.4423 255.157 56.6424 255.386C56.8485 255.616 56.9515 255.925 56.9515 256.313C56.9515 256.637 56.8632 256.935 56.6866 257.205C56.51 257.47 56.2421 257.682 55.883 257.841C55.524 257.994 55.0825 258.071 54.5585 258.071ZM61.1465 257.726C61.0229 257.832 60.8699 257.915 60.6874 257.974C60.5049 258.026 60.3165 258.053 60.1223 258.053C59.6513 258.053 59.2864 257.926 59.0273 257.673C58.7683 257.42 58.6388 257.058 58.6388 256.587V254.018H57.8441V253.32H58.6388V252.296H59.4865V253.32H60.8287V254.018H59.4865V256.552C59.4865 256.805 59.5483 256.999 59.6719 257.135C59.8014 257.27 59.9839 257.338 60.2194 257.338C60.4784 257.338 60.6992 257.264 60.8816 257.117L61.1465 257.726ZM64.2729 253.276C64.9205 253.276 65.4149 253.435 65.7564 253.753C66.1037 254.071 66.2773 254.545 66.2773 255.174V258H65.4738V257.382C65.3325 257.6 65.1294 257.767 64.8645 257.885C64.6055 257.997 64.2965 258.053 63.9374 258.053C63.4135 258.053 62.9926 257.926 62.6747 257.673C62.3627 257.42 62.2067 257.088 62.2067 256.675C62.2067 256.263 62.3568 255.934 62.657 255.687C62.9572 255.433 63.4341 255.307 64.0875 255.307H65.4296V255.139C65.4296 254.774 65.3237 254.494 65.1118 254.3C64.8998 254.106 64.5879 254.009 64.1758 254.009C63.8991 254.009 63.6283 254.056 63.3634 254.15C63.0985 254.238 62.8748 254.359 62.6923 254.512L62.3391 253.876C62.5805 253.682 62.8689 253.535 63.2045 253.435C63.54 253.329 63.8962 253.276 64.2729 253.276ZM64.0787 257.4C64.4024 257.4 64.682 257.329 64.9175 257.188C65.153 257.04 65.3237 256.834 65.4296 256.57V255.916H64.1228C63.4046 255.916 63.0455 256.157 63.0455 256.64C63.0455 256.876 63.1368 257.061 63.3193 257.196C63.5018 257.332 63.7549 257.4 64.0787 257.4ZM69.0557 254.106C69.2029 253.835 69.4207 253.629 69.7092 253.488C69.9976 253.347 70.3479 253.276 70.7599 253.276V254.097C70.7128 254.091 70.6481 254.088 70.5657 254.088C70.1065 254.088 69.7445 254.227 69.4796 254.503C69.2206 254.774 69.0911 255.163 69.0911 255.669V258H68.2434V253.32H69.0557V254.106ZM75.0231 257.726C74.8995 257.832 74.7464 257.915 74.5639 257.974C74.3815 258.026 74.1931 258.053 73.9988 258.053C73.5279 258.053 73.1629 257.926 72.9039 257.673C72.6449 257.42 72.5154 257.058 72.5154 256.587V254.018H71.7207V253.32H72.5154V252.296H73.3631V253.32H74.7052V254.018H73.3631V256.552C73.3631 256.805 73.4249 256.999 73.5485 257.135C73.678 257.27 73.8605 257.338 74.096 257.338C74.355 257.338 74.5757 257.264 74.7582 257.117L75.0231 257.726ZM76.0588 255.21H78.4341V255.943H76.0588V255.21ZM84.4987 253.32V258H83.6951V257.294C83.5244 257.535 83.2978 257.723 83.0152 257.859C82.7385 257.988 82.4354 258.053 82.1057 258.053C81.4817 258.053 80.9902 257.882 80.6311 257.541C80.272 257.194 80.0925 256.684 80.0925 256.013V253.32H80.9402V255.916C80.9402 256.369 81.0491 256.714 81.2669 256.949C81.4847 257.179 81.7967 257.294 82.2029 257.294C82.6502 257.294 83.0034 257.158 83.2625 256.887C83.5215 256.617 83.651 256.234 83.651 255.74V253.32H84.4987ZM88.991 253.276C89.4443 253.276 89.8504 253.376 90.2095 253.576C90.5686 253.776 90.8482 254.056 91.0484 254.415C91.2544 254.774 91.3574 255.189 91.3574 255.66C91.3574 256.131 91.2544 256.549 91.0484 256.914C90.8482 257.273 90.5686 257.553 90.2095 257.753C89.8504 257.953 89.4443 258.053 88.991 258.053C88.6554 258.053 88.3464 257.988 88.0638 257.859C87.7872 257.729 87.5517 257.541 87.3574 257.294V259.713H86.5098V253.32H87.3221V254.062C87.5105 253.803 87.7489 253.609 88.0373 253.479C88.3258 253.344 88.6437 253.276 88.991 253.276ZM88.9203 257.311C89.2206 257.311 89.4884 257.244 89.7239 257.108C89.9652 256.967 90.1536 256.773 90.289 256.525C90.4303 256.272 90.5009 255.984 90.5009 255.66C90.5009 255.336 90.4303 255.051 90.289 254.804C90.1536 254.55 89.9652 254.356 89.7239 254.221C89.4884 254.085 89.2206 254.018 88.9203 254.018C88.626 254.018 88.3582 254.088 88.1168 254.23C87.8813 254.365 87.693 254.556 87.5517 254.804C87.4163 255.051 87.3486 255.336 87.3486 255.66C87.3486 255.984 87.4163 256.272 87.5517 256.525C87.6871 256.773 87.8755 256.967 88.1168 257.108C88.3582 257.244 88.626 257.311 88.9203 257.311ZM96.613 258.071C96.2421 258.071 95.8978 257.994 95.5799 257.841C95.262 257.682 95.0059 257.461 94.8117 257.179L95.3238 256.578C95.6652 257.067 96.095 257.311 96.613 257.311C96.9603 257.311 97.2223 257.205 97.3989 256.993C97.5814 256.781 97.6726 256.469 97.6726 256.057V252.587H95.4386V251.819H98.5468V256.013C98.5468 256.696 98.3819 257.211 98.0523 257.558C97.7285 257.9 97.2488 258.071 96.613 258.071ZM103.118 253.276C103.713 253.276 104.184 253.45 104.531 253.797C104.884 254.138 105.061 254.642 105.061 255.307V258H104.213V255.404C104.213 254.951 104.104 254.609 103.886 254.38C103.668 254.15 103.356 254.035 102.95 254.035C102.491 254.035 102.129 254.171 101.864 254.442C101.599 254.706 101.467 255.089 101.467 255.589V258H100.619V251.448H101.467V253.982C101.643 253.759 101.873 253.585 102.156 253.461C102.444 253.338 102.765 253.276 103.118 253.276ZM108.731 253.276C109.378 253.276 109.873 253.435 110.214 253.753C110.562 254.071 110.735 254.545 110.735 255.174V258H109.932V257.382C109.791 257.6 109.587 257.767 109.323 257.885C109.064 257.997 108.754 258.053 108.395 258.053C107.871 258.053 107.451 257.926 107.133 257.673C106.821 257.42 106.665 257.088 106.665 256.675C106.665 256.263 106.815 255.934 107.115 255.687C107.415 255.433 107.892 255.307 108.546 255.307H109.888V255.139C109.888 254.774 109.782 254.494 109.57 254.3C109.358 254.106 109.046 254.009 108.634 254.009C108.357 254.009 108.086 254.056 107.821 254.15C107.557 254.238 107.333 254.359 107.15 254.512L106.797 253.876C107.039 253.682 107.327 253.535 107.663 253.435C107.998 253.329 108.354 253.276 108.731 253.276ZM108.537 257.4C108.86 257.4 109.14 257.329 109.376 257.188C109.611 257.04 109.782 256.834 109.888 256.57V255.916H108.581C107.863 255.916 107.504 256.157 107.504 256.64C107.504 256.876 107.595 257.061 107.777 257.196C107.96 257.332 108.213 257.4 108.537 257.4ZM113.514 254.106C113.661 253.835 113.879 253.629 114.167 253.488C114.456 253.347 114.806 253.276 115.218 253.276V254.097C115.171 254.091 115.106 254.088 115.024 254.088C114.565 254.088 114.203 254.227 113.938 254.503C113.679 254.774 113.549 255.163 113.549 255.669V258H112.701V253.32H113.514V254.106ZM118.479 255.819L117.508 256.72V258H116.66V251.448H117.508V255.651L120.06 253.32H121.084L119.115 255.254L121.278 258H120.236L118.479 255.819ZM124.997 253.276C125.592 253.276 126.063 253.45 126.41 253.797C126.763 254.138 126.94 254.642 126.94 255.307V258H126.092V255.404C126.092 254.951 125.983 254.609 125.766 254.38C125.548 254.15 125.236 254.035 124.83 254.035C124.371 254.035 124.008 254.171 123.744 254.442C123.479 254.706 123.346 255.089 123.346 255.589V258H122.499V251.448H123.346V253.982C123.523 253.759 123.752 253.585 124.035 253.461C124.323 253.338 124.644 253.276 124.997 253.276ZM130.61 253.276C131.258 253.276 131.752 253.435 132.094 253.753C132.441 254.071 132.615 254.545 132.615 255.174V258H131.811V257.382C131.67 257.6 131.467 257.767 131.202 257.885C130.943 257.997 130.634 258.053 130.275 258.053C129.751 258.053 129.33 257.926 129.012 257.673C128.7 257.42 128.544 257.088 128.544 256.675C128.544 256.263 128.694 255.934 128.994 255.687C129.295 255.433 129.772 255.307 130.425 255.307H131.767V255.139C131.767 254.774 131.661 254.494 131.449 254.3C131.237 254.106 130.925 254.009 130.513 254.009C130.237 254.009 129.966 254.056 129.701 254.15C129.436 254.238 129.212 254.359 129.03 254.512L128.677 253.876C128.918 253.682 129.206 253.535 129.542 253.435C129.877 253.329 130.234 253.276 130.61 253.276ZM130.416 257.4C130.74 257.4 131.019 257.329 131.255 257.188C131.49 257.04 131.661 256.834 131.767 256.57V255.916H130.46C129.742 255.916 129.383 256.157 129.383 256.64C129.383 256.876 129.474 257.061 129.657 257.196C129.839 257.332 130.092 257.4 130.416 257.4ZM137.08 253.276C137.674 253.276 138.145 253.45 138.493 253.797C138.846 254.138 139.022 254.642 139.022 255.307V258H138.175V255.404C138.175 254.951 138.066 254.609 137.848 254.38C137.63 254.15 137.318 254.035 136.912 254.035C136.453 254.035 136.091 254.171 135.826 254.442C135.561 254.706 135.429 255.089 135.429 255.589V258H134.581V253.32H135.393V254.026C135.564 253.785 135.793 253.6 136.082 253.47C136.376 253.341 136.709 253.276 137.08 253.276ZM145.429 251.448V258H144.617V257.258C144.429 257.517 144.19 257.714 143.902 257.85C143.613 257.985 143.295 258.053 142.948 258.053C142.495 258.053 142.089 257.953 141.73 257.753C141.37 257.553 141.088 257.273 140.882 256.914C140.682 256.549 140.582 256.131 140.582 255.66C140.582 255.189 140.682 254.774 140.882 254.415C141.088 254.056 141.37 253.776 141.73 253.576C142.089 253.376 142.495 253.276 142.948 253.276C143.284 253.276 143.593 253.341 143.875 253.47C144.158 253.594 144.393 253.779 144.582 254.026V251.448H145.429ZM143.019 257.311C143.313 257.311 143.581 257.244 143.822 257.108C144.064 256.967 144.252 256.773 144.387 256.525C144.523 256.272 144.59 255.984 144.59 255.66C144.59 255.336 144.523 255.051 144.387 254.804C144.252 254.55 144.064 254.356 143.822 254.221C143.581 254.085 143.313 254.018 143.019 254.018C142.718 254.018 142.448 254.085 142.206 254.221C141.971 254.356 141.783 254.55 141.641 254.804C141.506 255.051 141.438 255.336 141.438 255.66C141.438 255.984 141.506 256.272 141.641 256.525C141.783 256.773 141.971 256.967 142.206 257.108C142.448 257.244 142.718 257.311 143.019 257.311Z" fill="white"/>
<path d="M18.6506 227L18.6386 221.432L15.8786 226.04H15.1826L12.4226 221.504V227H10.9346V218.6H12.2186L15.5546 224.168L18.8306 218.6H20.1146L20.1266 227H18.6506ZM27.8916 227L26.1756 224.54C26.1036 224.548 25.9956 224.552 25.8516 224.552H23.9556V227H22.3956V218.6H25.8516C26.5796 218.6 27.2116 218.72 27.7476 218.96C28.2916 219.2 28.7076 219.544 28.9956 219.992C29.2836 220.44 29.4276 220.972 29.4276 221.588C29.4276 222.22 29.2716 222.764 28.9596 223.22C28.6556 223.676 28.2156 224.016 27.6396 224.24L29.5716 227H27.8916ZM27.8556 221.588C27.8556 221.052 27.6796 220.64 27.3276 220.352C26.9756 220.064 26.4596 219.92 25.7796 219.92H23.9556V223.268H25.7796C26.4596 223.268 26.9756 223.124 27.3276 222.836C27.6796 222.54 27.8556 222.124 27.8556 221.588ZM31.5089 227.084C31.2369 227.084 31.0049 226.992 30.8129 226.808C30.6209 226.616 30.5249 226.376 30.5249 226.088C30.5249 225.792 30.6169 225.552 30.8009 225.368C30.9929 225.184 31.2289 225.092 31.5089 225.092C31.7889 225.092 32.0209 225.184 32.2049 225.368C32.3969 225.552 32.4929 225.792 32.4929 226.088C32.4929 226.376 32.3969 226.616 32.2049 226.808C32.0129 226.992 31.7809 227.084 31.5089 227.084ZM40.023 227.12C39.375 227.12 38.747 227.028 38.139 226.844C37.539 226.66 37.063 226.416 36.711 226.112L37.251 224.9C37.595 225.172 38.015 225.396 38.511 225.572C39.015 225.74 39.519 225.824 40.023 225.824C40.647 225.824 41.111 225.724 41.415 225.524C41.727 225.324 41.883 225.06 41.883 224.732C41.883 224.492 41.795 224.296 41.619 224.144C41.451 223.984 41.235 223.86 40.971 223.772C40.707 223.684 40.347 223.584 39.891 223.472C39.251 223.32 38.731 223.168 38.331 223.016C37.939 222.864 37.599 222.628 37.311 222.308C37.031 221.98 36.891 221.54 36.891 220.988C36.891 220.524 37.015 220.104 37.263 219.728C37.519 219.344 37.899 219.04 38.403 218.816C38.915 218.592 39.539 218.48 40.275 218.48C40.787 218.48 41.291 218.544 41.787 218.672C42.283 218.8 42.711 218.984 43.071 219.224L42.579 220.436C42.211 220.22 41.827 220.056 41.427 219.944C41.027 219.832 40.639 219.776 40.263 219.776C39.647 219.776 39.187 219.88 38.883 220.088C38.587 220.296 38.439 220.572 38.439 220.916C38.439 221.156 38.523 221.352 38.691 221.504C38.867 221.656 39.087 221.776 39.351 221.864C39.615 221.952 39.975 222.052 40.431 222.164C41.055 222.308 41.567 222.46 41.967 222.62C42.367 222.772 42.707 223.008 42.987 223.328C43.275 223.648 43.419 224.08 43.419 224.624C43.419 225.088 43.291 225.508 43.035 225.884C42.787 226.26 42.407 226.56 41.895 226.784C41.383 227.008 40.759 227.12 40.023 227.12ZM52.4299 218.6V227H50.8699V223.4H46.5259V227H44.9659V218.6H46.5259V222.068H50.8699V218.6H52.4299ZM60.1287 225.056H55.9287L55.1007 227H53.4927L57.2727 218.6H58.8087L62.6007 227H60.9687L60.1287 225.056ZM59.6127 223.832L58.0287 220.16L56.4567 223.832H59.6127ZM71.133 218.6V227H69.849L65.217 221.312V227H63.669V218.6H64.953L69.585 224.288V218.6H71.133ZM75.0879 219.92H72.3039V218.6H79.4319V219.92H76.6479V227H75.0879V219.92ZM85.6287 225.056H81.4287L80.6007 227H78.9927L82.7727 218.6H84.3087L88.1007 227H86.4687L85.6287 225.056ZM85.1127 223.832L83.5287 220.16L81.9567 223.832H85.1127ZM96.633 218.6V227H95.349L90.717 221.312V227H89.169V218.6H90.453L95.085 224.288V218.6H96.633ZM102.496 227.12C101.336 227.12 100.432 226.796 99.7839 226.148C99.1359 225.492 98.8119 224.556 98.8119 223.34V218.6H100.372V223.28C100.372 224.928 101.084 225.752 102.508 225.752C103.924 225.752 104.632 224.928 104.632 223.28V218.6H106.168V223.34C106.168 224.556 105.844 225.492 105.196 226.148C104.556 226.796 103.656 227.12 102.496 227.12ZM117.621 222.632C118.085 222.784 118.453 223.04 118.725 223.4C118.997 223.752 119.133 224.192 119.133 224.72C119.133 225.448 118.853 226.012 118.293 226.412C117.733 226.804 116.917 227 115.845 227H111.669V218.6H115.605C116.597 218.6 117.361 218.796 117.897 219.188C118.433 219.572 118.701 220.104 118.701 220.784C118.701 221.2 118.605 221.568 118.413 221.888C118.221 222.208 117.957 222.456 117.621 222.632ZM113.229 219.824V222.14H115.437C115.981 222.14 116.397 222.044 116.685 221.852C116.981 221.652 117.129 221.364 117.129 220.988C117.129 220.604 116.981 220.316 116.685 220.124C116.397 219.924 115.981 219.824 115.437 219.824H113.229ZM115.749 225.776C116.957 225.776 117.561 225.372 117.561 224.564C117.561 223.756 116.957 223.352 115.749 223.352H113.229V225.776H115.749ZM126.246 225.056H122.046L121.218 227H119.61L123.39 218.6H124.926L128.718 227H127.086L126.246 225.056ZM125.73 223.832L124.146 220.16L122.574 223.832H125.73ZM137.25 218.6V227H135.966L131.334 221.312V227H129.786V218.6H131.07L135.702 224.288V218.6H137.25ZM146.965 218.6V227H145.681L141.049 221.312V227H139.501V218.6H140.785L145.417 224.288V218.6H146.965ZM155.516 225.692V227H149.216V218.6H155.348V219.908H150.776V222.092H154.832V223.376H150.776V225.692H155.516ZM162.751 227L161.035 224.54C160.963 224.548 160.855 224.552 160.711 224.552H158.815V227H157.255V218.6H160.711C161.439 218.6 162.071 218.72 162.607 218.96C163.151 219.2 163.567 219.544 163.855 219.992C164.143 220.44 164.287 220.972 164.287 221.588C164.287 222.22 164.131 222.764 163.819 223.22C163.515 223.676 163.075 224.016 162.499 224.24L164.431 227H162.751ZM162.715 221.588C162.715 221.052 162.539 220.64 162.187 220.352C161.835 220.064 161.319 219.92 160.639 219.92H158.815V223.268H160.639C161.319 223.268 161.835 223.124 162.187 222.836C162.539 222.54 162.715 222.124 162.715 221.588ZM167.223 227.12C166.687 227.12 166.191 227.016 165.735 226.808C165.287 226.592 164.919 226.292 164.631 225.908L165.519 224.84C165.983 225.48 166.539 225.8 167.187 225.8C168.059 225.8 168.495 225.284 168.495 224.252V219.908H165.507V218.6H170.055V224.168C170.055 225.152 169.815 225.892 169.335 226.388C168.855 226.876 168.151 227.12 167.223 227.12ZM178.543 225.692V227H172.243V218.6H178.375V219.908H173.803V222.092H177.859V223.376H173.803V225.692H178.543ZM186.582 225.692V227H180.282V218.6H186.414V219.908H181.842V222.092H185.898V223.376H181.842V225.692H186.582Z" fill="url(#paint3_linear)"/>
<path d="M197.734 341.599L197.627 300C188.329 300.498 179.447 303.745 177.097 310.646C176.497 312.378 175.78 314.084 174.949 315.754C174.122 317.418 173.161 319.037 172.074 320.603C167.417 328.539 158.004 331.937 149.202 336.541C146.717 337.877 144.635 339.635 143.106 341.687L197.734 341.599Z" fill="url(#paint4_linear)"/>
<path d="M-0.999522 341.599L-0.89304 300C8.40582 300.498 17.2873 303.745 19.6373 310.646C20.2369 312.378 20.9539 314.084 21.7851 315.754C22.6127 317.418 23.5729 319.037 24.66 320.603C29.3171 328.539 38.7301 331.937 47.5322 336.541C50.0174 337.877 52.0992 339.635 53.6279 341.687L-0.999522 341.599Z" fill="url(#paint5_linear)"/>
<path opacity="0.15" d="M150.226 340.922C160.364 335.832 170.87 331.991 176.702 323.823C178.049 322.179 179.273 320.474 180.37 318.717C181.481 316.945 182.488 315.107 183.368 313.236C185.822 307.977 191.33 304.719 197.626 303.121L197.618 300C188.319 300.498 179.438 303.745 177.088 310.646C176.488 312.378 175.771 314.084 174.94 315.754C174.113 317.418 173.152 319.037 172.065 320.603C167.408 328.539 157.995 331.937 149.193 336.541C146.711 337.878 144.633 339.636 143.106 341.687L148.854 341.678C149.294 341.421 149.749 341.167 150.226 340.922Z" fill="white"/>
<path opacity="0.15" d="M46.5089 340.922C36.3708 335.832 25.8648 331.991 20.0321 323.823C18.6857 322.179 17.4611 320.474 16.3646 318.717C15.2537 316.945 14.2464 315.107 13.3667 313.236C10.9123 307.977 5.40439 304.719 -0.891907 303.121L-0.883917 300C8.41494 300.498 17.2964 303.745 19.6464 310.646C20.246 312.378 20.963 314.084 21.7942 315.754C22.6218 317.418 23.5821 319.037 24.6691 320.603C29.3262 328.539 38.7392 331.937 47.5413 336.541C50.0232 337.878 52.1019 339.636 53.6279 341.687L47.8807 341.678C47.4407 341.421 46.9854 341.167 46.5089 340.922Z" fill="white"/>
<g clip-path="url(#clip1)">
<path d="M39.9878 35.2541C39.2172 35.2541 38.5928 34.6297 38.5928 33.8591V24.0277C38.5928 23.2571 39.2172 22.6327 39.9878 22.6327H49.8192C50.5898 22.6327 51.2142 23.2571 51.2142 24.0277C51.2142 24.7983 50.5898 25.4227 49.8192 25.4227H41.3828V33.8591C41.3828 34.6297 40.7583 35.2541 39.9878 35.2541Z" fill="url(#paint6_linear)"/>
</g>
<g clip-path="url(#clip2)">
<path d="M157.069 34.9536C157.839 34.9536 158.464 34.3292 158.464 33.5586V23.7272C158.464 22.9566 157.839 22.3322 157.069 22.3322H147.237C146.467 22.3322 145.842 22.9566 145.842 23.7272C145.842 24.4977 146.467 25.1222 147.237 25.1222H155.674V33.5586C155.674 34.3292 156.298 34.9536 157.069 34.9536Z" fill="url(#paint7_linear)"/>
</g>
<g clip-path="url(#clip3)">
<path d="M39.688 194.572C38.9174 194.572 38.293 195.196 38.293 195.967V205.798C38.293 206.569 38.9174 207.193 39.688 207.193H49.5194C50.29 207.193 50.9144 206.569 50.9144 205.798C50.9144 205.028 50.29 204.403 49.5194 204.403H41.083V195.967C41.083 195.196 40.4585 194.572 39.688 194.572Z" fill="url(#paint8_linear)"/>
</g>
<g clip-path="url(#clip4)">
<path d="M157.369 194.873C158.139 194.873 158.764 195.497 158.764 196.268V206.099C158.764 206.87 158.139 207.494 157.369 207.494H147.537C146.767 207.494 146.142 206.87 146.142 206.099C146.142 205.329 146.767 204.704 147.537 204.704H155.974V196.268C155.974 195.497 156.598 194.873 157.369 194.873Z" fill="url(#paint9_linear)"/>
</g>
<g clip-path="url(#clip5)">
<path d="M103.757 318.857H93.6341C92.963 318.857 92.3193 319.124 91.8447 319.598C91.3701 320.073 91.1035 320.717 91.1035 321.388V331.51C91.1035 332.182 91.3701 332.825 91.8447 333.3C92.3193 333.774 92.963 334.041 93.6341 334.041H103.757C104.428 334.041 105.071 333.774 105.546 333.3C106.021 332.825 106.287 332.182 106.287 331.51V321.388C106.287 320.717 106.021 320.073 105.546 319.598C105.071 319.124 104.428 318.857 103.757 318.857V318.857ZM105.022 331.51C105.022 331.846 104.889 332.168 104.651 332.405C104.414 332.642 104.092 332.776 103.757 332.776H93.6341C93.2985 332.776 92.9767 332.642 92.7394 332.405C92.5021 332.168 92.3688 331.846 92.3688 331.51V321.388C92.3688 321.052 92.5021 320.73 92.7394 320.493C92.9767 320.256 93.2985 320.123 93.6341 320.123H103.757C104.092 320.123 104.414 320.256 104.651 320.493C104.889 320.73 105.022 321.052 105.022 321.388V331.51Z" fill="url(#paint10_linear)"/>
<path d="M98.6953 322.653C97.9446 322.653 97.2107 322.876 96.5864 323.293C95.9622 323.71 95.4757 324.303 95.1884 324.997C94.9011 325.69 94.8259 326.453 94.9724 327.19C95.1188 327.926 95.4803 328.602 96.0112 329.133C96.5421 329.664 97.2185 330.026 97.9548 330.172C98.6911 330.319 99.4544 330.244 100.148 329.956C100.842 329.669 101.434 329.182 101.852 328.558C102.269 327.934 102.491 327.2 102.491 326.449C102.491 325.442 102.091 324.477 101.379 323.765C100.668 323.053 99.7021 322.653 98.6953 322.653ZM98.6953 328.98C98.1948 328.98 97.7056 328.831 97.2894 328.553C96.8732 328.275 96.5489 327.88 96.3574 327.418C96.1658 326.955 96.1157 326.446 96.2133 325.956C96.311 325.465 96.552 325.014 96.9059 324.66C97.2598 324.306 97.7107 324.065 98.2016 323.967C98.6925 323.87 99.2014 323.92 99.6638 324.111C100.126 324.303 100.521 324.627 100.799 325.043C101.078 325.459 101.226 325.949 101.226 326.449C101.226 327.12 100.959 327.764 100.485 328.239C100.01 328.713 99.3665 328.98 98.6953 328.98Z" fill="url(#paint11_linear)"/>
<path d="M102.807 323.286C103.331 323.286 103.756 322.861 103.756 322.337C103.756 321.813 103.331 321.388 102.807 321.388C102.283 321.388 101.858 321.813 101.858 322.337C101.858 322.861 102.283 323.286 102.807 323.286Z" fill="url(#paint12_linear)"/>
</g>
<g clip-path="url(#clip6)">
<path d="M82.8757 334.041V334.04H82.8795V328.472C82.8795 325.747 82.293 323.649 79.1082 323.649C77.5772 323.649 76.5498 324.489 76.1303 325.285H76.0861V323.903H73.0664V334.04H76.2107V329.021C76.2107 327.699 76.4612 326.421 78.0979 326.421C79.7105 326.421 79.7346 327.929 79.7346 329.105V334.041H82.8757Z" fill="url(#paint13_linear)"/>
<path d="M67.9453 323.904H71.0934V334.041H67.9453V323.904Z" fill="url(#paint14_linear)"/>
<path d="M69.5186 318.857C68.5121 318.857 67.6953 319.674 67.6953 320.681C67.6953 321.687 68.5121 322.521 69.5186 322.521C70.5252 322.521 71.3419 321.687 71.3419 320.681C71.3413 319.674 70.5245 318.857 69.5186 318.857V318.857Z" fill="url(#paint15_linear)"/>
</g>
<g clip-path="url(#clip7)">
<path d="M130.072 321.388H116.666C115.478 321.388 114.512 322.316 114.512 323.456V332.161C114.512 333.302 115.478 334.229 116.666 334.229H130.072C131.26 334.229 132.226 333.302 132.226 332.161V323.456C132.226 322.316 131.26 321.388 130.072 321.388ZM129.04 322.082L123.364 326.486L117.688 322.082H129.04ZM129.324 333.535H117.404V325.43L123.137 329.863C123.27 329.966 123.458 329.966 123.591 329.863L129.324 325.43V333.535H129.324ZM131.503 332.161C131.503 332.919 130.861 333.535 130.072 333.535H130.047V324.705C130.047 324.571 129.967 324.449 129.842 324.392C129.716 324.334 129.567 324.351 129.459 324.434L123.364 329.148L117.269 324.434C117.161 324.351 117.012 324.334 116.886 324.392C116.761 324.449 116.681 324.571 116.681 324.705V333.535H116.666C115.877 333.535 115.235 332.919 115.235 332.161V323.456C115.235 322.737 115.812 322.146 116.545 322.087L123.137 327.202C123.203 327.254 123.284 327.28 123.364 327.28C123.444 327.28 123.525 327.254 123.591 327.202L130.184 322.087C130.921 322.142 131.503 322.734 131.503 323.456V332.161Z" fill="url(#paint16_linear)"/>
</g>
<path d="M64.6455 311.635C64.1984 311.635 63.7935 311.538 63.4308 311.344C63.0723 311.146 62.7897 310.874 62.583 310.528C62.3806 310.182 62.2793 309.792 62.2793 309.357C62.2793 308.923 62.3827 308.533 62.5893 308.187C62.796 307.841 63.0786 307.571 63.4371 307.377C63.7998 307.179 64.2047 307.08 64.6518 307.08C65.0145 307.08 65.3456 307.143 65.6451 307.269C65.9445 307.396 66.1976 307.579 66.4042 307.82L65.8728 308.32C65.5523 307.974 65.1579 307.801 64.6898 307.801C64.3861 307.801 64.114 307.868 63.8736 308.003C63.6332 308.134 63.4455 308.318 63.3106 308.554C63.1756 308.79 63.1081 309.058 63.1081 309.357C63.1081 309.657 63.1756 309.925 63.3106 310.161C63.4455 310.397 63.6332 310.582 63.8736 310.717C64.114 310.848 64.3861 310.914 64.6898 310.914C65.1579 310.914 65.5523 310.739 65.8728 310.388L66.4042 310.895C66.1976 311.135 65.9424 311.318 65.6387 311.445C65.3393 311.572 65.0082 311.635 64.6455 311.635ZM69.4531 311.635C69.0018 311.635 68.5948 311.538 68.2321 311.344C67.8693 311.146 67.5847 310.874 67.378 310.528C67.1713 310.178 67.068 309.787 67.068 309.357C67.068 308.927 67.1713 308.539 67.378 308.193C67.5847 307.843 67.8693 307.571 68.2321 307.377C68.5948 307.179 69.0018 307.08 69.4531 307.08C69.9044 307.08 70.3114 307.179 70.6741 307.377C71.0368 307.571 71.3215 307.841 71.5282 308.187C71.7349 308.533 71.8382 308.923 71.8382 309.357C71.8382 309.792 71.7349 310.182 71.5282 310.528C71.3215 310.874 71.0368 311.146 70.6741 311.344C70.3114 311.538 69.9044 311.635 69.4531 311.635ZM69.4531 310.914C69.7483 310.914 70.014 310.848 70.2502 310.717C70.4864 310.582 70.672 310.397 70.807 310.161C70.9419 309.92 71.0094 309.652 71.0094 309.357C71.0094 309.062 70.9419 308.796 70.807 308.56C70.672 308.32 70.4864 308.134 70.2502 308.003C70.014 307.868 69.7483 307.801 69.4531 307.801C69.1579 307.801 68.8921 307.868 68.6559 308.003C68.4198 308.134 68.2342 308.32 68.0992 308.56C67.9642 308.796 67.8968 309.062 67.8968 309.357C67.8968 309.652 67.9642 309.92 68.0992 310.161C68.2342 310.397 68.4198 310.582 68.6559 310.717C68.8921 310.848 69.1579 310.914 69.4531 310.914ZM76.9298 307.143V311.572H76.2528L73.8108 308.573V311.572H72.9947V307.143H73.6716L76.1136 310.142V307.143H76.9298ZM82.3362 307.143V311.572H81.6593L79.2173 308.573V311.572H78.4011V307.143H79.0781L81.5201 310.142V307.143H82.3362ZM87.129 310.882V311.572H83.8076V307.143H87.0405V307.833H84.63V308.984H86.7684V309.661H84.63V310.882H87.129ZM90.3618 311.635C89.9148 311.635 89.5099 311.538 89.1471 311.344C88.7886 311.146 88.5061 310.874 88.2994 310.528C88.0969 310.182 87.9957 309.792 87.9957 309.357C87.9957 308.923 88.099 308.533 88.3057 308.187C88.5124 307.841 88.795 307.571 89.1535 307.377C89.5162 307.179 89.9211 307.08 90.3682 307.08C90.7309 307.08 91.062 307.143 91.3614 307.269C91.6609 307.396 91.9139 307.579 92.1206 307.82L91.5892 308.32C91.2686 307.974 90.8743 307.801 90.4061 307.801C90.1025 307.801 89.8304 307.868 89.59 308.003C89.3496 308.134 89.1619 308.318 89.0269 308.554C88.892 308.79 88.8245 309.058 88.8245 309.357C88.8245 309.657 88.892 309.925 89.0269 310.161C89.1619 310.397 89.3496 310.582 89.59 310.717C89.8304 310.848 90.1025 310.914 90.4061 310.914C90.8743 310.914 91.2686 310.739 91.5892 310.388L92.1206 310.895C91.9139 311.135 91.6588 311.318 91.3551 311.445C91.0556 311.572 90.7246 311.635 90.3618 311.635ZM94.0423 307.839H92.5745V307.143H96.3325V307.839H94.8647V311.572H94.0423V307.839ZM105.74 307.143L104.272 311.572H103.399L102.304 308.294L101.191 311.572H100.311L98.8437 307.143H99.6978L100.799 310.509L101.944 307.143H102.703L103.823 310.528L104.955 307.143H105.74ZM106.694 307.143H107.517V311.572H106.694V307.143ZM109.898 307.839H108.43V307.143H112.188V307.839H110.72V311.572H109.898V307.839ZM117.025 307.143V311.572H116.202V309.674H113.912V311.572H113.09V307.143H113.912V308.971H116.202V307.143H117.025ZM121.428 307.839H119.96V307.143H123.718V307.839H122.25V311.572H121.428V307.839ZM128.555 307.143V311.572H127.733V309.674H125.442V311.572H124.62V307.143H125.442V308.971H127.733V307.143H128.555ZM133.348 310.882V311.572H130.026V307.143H133.259V307.833H130.849V308.984H132.987V309.661H130.849V310.882H133.348ZM138.617 311.572L138.611 308.636L137.156 311.065H136.789L135.334 308.674V311.572H134.549V307.143H135.226L136.985 310.078L138.712 307.143H139.389L139.395 311.572H138.617Z" fill="white"/>
<path d="M121.298 59.1794L120.11 57.9402L121.298 59.1794Z" fill="#2B2924"/>
<path d="M71.0056 82.5358C71.0382 80.5443 71.1819 78.5561 71.4359 76.5805C73.6562 60.4186 87.7355 46.3738 104.775 49.0416C123.02 51.8988 132.073 65.3068 133.88 83.2759C134.5 89.4549 133.398 94.6013 135.189 100.591C137.099 106.994 139.25 113.328 141.006 119.782C144.003 130.005 146.366 140.404 148.08 150.918C148.958 157.27 148.562 165.256 142.796 168.13C140.221 169.14 137.431 169.477 134.689 169.111C116.135 168.216 97.5807 167.097 79.0263 166.443C73.5874 166.237 65.9453 168.543 60.9539 166.443C42.0209 158.646 60.3515 133.466 64.2758 122.553C67.0349 114.884 69.0916 106.98 70.4204 98.9387C71.3843 93.362 70.9023 87.9747 71.0056 82.5358Z" fill="#2B0D04"/>
<path d="M83.4326 125.032C85.7098 119.521 86.5049 113.51 85.739 107.596C84.6719 100.419 114.517 110.247 114.517 110.247C113.822 114.487 113.822 118.812 114.517 123.053C115.739 129.025 100.249 140.471 100.249 140.471L90.042 135.307L88.6134 136.753L83.4326 125.032Z" fill="#DEB09D"/>
<path d="M109.336 73.7406C111.057 72.5358 117.942 69.3515 117.598 66.9763C117.908 69.7474 119.319 72.1399 120.059 74.7216C120.885 77.6649 122.073 80.4704 122.658 83.4997C123.91 89.3471 123.661 95.4164 121.935 101.142C119.996 106.075 116.812 110.422 112.692 113.758L111.849 114.515C109.341 117.056 105.935 118.509 102.365 118.56V77.2518C104.774 76.2584 107.104 75.0847 109.336 73.7406Z" fill="#F9CFB3"/>
<path d="M91.1764 84.3775C94.9114 82.2948 102.226 77.0969 102.433 77.2001V118.508C98.8985 118.434 95.5327 116.983 93.0525 114.464C92.7599 114.223 92.4845 113.965 92.2091 113.706C87.9062 109.851 84.068 105.909 83.1041 100.281C82.9836 99.5411 82.5705 98.6461 81.8132 98.56C79.3519 98.4051 78.1987 94.1366 77.7168 91.5376C81.6067 88.4394 86.8735 86.7183 91.1764 84.3775Z" fill="#E2BBA1"/>
<path d="M94.8255 172.657H103.724L112.984 150.832C113.126 150.495 113.177 150.127 113.131 149.765C113.086 149.402 112.946 149.058 112.726 148.767C109.507 144.567 104.671 140.04 99.2661 138.646C93.8616 140.04 89.0423 144.567 85.8237 148.767C85.5972 149.055 85.4521 149.398 85.4037 149.762C85.3553 150.125 85.4052 150.495 85.5483 150.832L94.8255 172.657Z" fill="#E6E7E8"/>
<path d="M154.999 172.657C154.436 165.001 153.349 157.393 151.746 149.886C149.285 140.66 143.846 138.216 134.792 135.445C133.415 135.032 114.001 130.901 115.24 126.839C111.143 140.253 107.03 153.632 102.899 166.977C102.331 168.87 101.746 170.764 101.178 172.657H154.999Z" fill="#728D96"/>
<path d="M64.2579 172.657H96.9604C96.3752 170.764 95.8072 168.87 95.2392 166.977C91.1198 153.632 87.0005 140.259 82.8811 126.856C82.8811 127.51 74.8088 132.553 73.8621 132.932C70.1272 134.412 66.9774 134.447 63.6211 135.118C65.6693 147.27 64.7743 159.972 64.2579 172.657Z" fill="#647C82"/>
<path d="M92.0393 169.989C92.0051 170.095 92.0051 170.21 92.0393 170.316L92.9516 172.657H105.43L106.342 170.316C106.377 170.21 106.377 170.095 106.342 169.989L101.678 148.836C101.535 148.164 101.632 147.463 101.953 146.856L103.675 143.534C103.715 143.436 103.725 143.328 103.704 143.223C103.682 143.119 103.63 143.024 103.554 142.949L101.73 141.228C101.26 140.827 100.822 140.39 100.422 139.92C100.153 139.394 99.7919 138.922 99.3544 138.526C98.7347 138.113 98.2184 139.076 98.0118 139.507C97.6786 140.082 97.2408 140.59 96.721 141.004L94.69 143.035C94.6138 143.11 94.5616 143.205 94.5401 143.309C94.5187 143.414 94.5289 143.522 94.5695 143.62L96.2907 146.942C96.6075 147.551 96.6989 148.252 96.5488 148.922L92.0393 169.989Z" fill="#3D5872"/>
<path d="M80.4374 133.311L83.8798 123.328L86.6681 128.405C89.835 132.88 96.7714 137.39 99.2155 137.459C101.66 137.527 108.286 133.087 111.763 128.405L114.568 123.328L118.011 133.311C118.054 133.457 118.054 133.612 118.011 133.758L111.625 154.412C111.453 154.98 110.679 158.078 110.317 154.619L106.737 148.405C106.322 147.683 105.838 147.003 105.291 146.374L99.1639 138.732L93.0537 146.374C92.5014 147.002 92.0115 147.683 91.5907 148.405L88.0278 154.619C87.6664 158.061 86.8918 154.98 86.7025 154.412L80.3341 133.758C80.3149 133.601 80.3514 133.443 80.4374 133.311Z" fill="white"/>
<path d="M112.693 172.657C118.287 164.292 123.467 156.805 123.226 156.374L117.34 145.841L125.361 146.701C124.534 144.154 122.693 131.658 120.335 130.402L115.808 126.753L106.169 155.462L101.006 172.674L112.693 172.657Z" fill="#647C82"/>
<path d="M75.3758 156.169C75.1349 156.6 80.1952 164.052 85.7029 172.452H97.5963L92.4328 155.24L82.7941 126.531L78.2674 130.197C75.9266 131.453 74.0677 143.966 73.2588 146.496L81.2623 145.636L75.3758 156.169Z" fill="#728D96"/>
<path d="M66.0651 172.452C65.4944 167.74 65.1899 162.999 65.1528 158.252C65.3917 150.441 64.8788 142.626 63.621 134.913C61.8641 135.255 60.1618 135.834 58.5607 136.634C51.0908 140.335 45.8067 151.918 43.5004 159.44C42.2357 163.73 41.2299 168.093 40.4883 172.504L66.0651 172.452Z" fill="#647C82"/>
<line x1="38.5938" y1="299.561" x2="158.798" y2="299.598" stroke="black" stroke-width="0.632653"/>
</g>
<defs>
<radialGradient id="paint0_radial" cx="0" cy="0" r="1" gradientUnits="userSpaceOnUse" gradientTransform="translate(368.5 99) rotate(90) scale(99 170.5)">
<stop stop-color="#335063"/>
<stop offset="1" stop-color="#1B3342"/>
</radialGradient>
<linearGradient id="paint1_linear" x1="170.699" y1="41.6291" x2="170.766" y2="-0.0101858" gradientUnits="userSpaceOnUse">
<stop stop-color="#379BE7"/>
<stop offset="1" stop-color="#1DE9C4"/>
</linearGradient>
<linearGradient id="paint2_linear" x1="27.6881" y1="41.6891" x2="27.6208" y2="0.0498731" gradientUnits="userSpaceOnUse">
<stop stop-color="#379BE7"/>
<stop offset="1" stop-color="#1DE9C4"/>
</linearGradient>
<linearGradient id="paint3_linear" x1="98.5" y1="215" x2="98.5" y2="229" gradientUnits="userSpaceOnUse">
<stop stop-color="#379BE7"/>
<stop offset="1" stop-color="#1DE9C4"/>
</linearGradient>
<linearGradient id="paint4_linear" x1="170.314" y1="300.044" x2="170.381" y2="341.643" gradientUnits="userSpaceOnUse">
<stop stop-color="#379BE7"/>
<stop offset="1" stop-color="#1DE9C4"/>
</linearGradient>
<linearGradient id="paint5_linear" x1="26.4207" y1="300.044" x2="26.3534" y2="341.643" gradientUnits="userSpaceOnUse">
<stop stop-color="#379BE7"/>
<stop offset="1" stop-color="#1DE9C4"/>
</linearGradient>
<linearGradient id="paint6_linear" x1="44.9035" y1="22.6327" x2="44.9035" y2="35.2541" gradientUnits="userSpaceOnUse">
<stop stop-color="#379BE7"/>
<stop offset="1" stop-color="#1DE9C4"/>
</linearGradient>
<linearGradient id="paint7_linear" x1="152.153" y1="22.3322" x2="152.153" y2="34.9536" gradientUnits="userSpaceOnUse">
<stop stop-color="#379BE7"/>
<stop offset="1" stop-color="#1DE9C4"/>
</linearGradient>
<linearGradient id="paint8_linear" x1="44.6037" y1="207.193" x2="44.6037" y2="194.572" gradientUnits="userSpaceOnUse">
<stop stop-color="#379BE7"/>
<stop offset="1" stop-color="#1DE9C4"/>
</linearGradient>
<linearGradient id="paint9_linear" x1="152.453" y1="207.494" x2="152.453" y2="194.873" gradientUnits="userSpaceOnUse">
<stop stop-color="#379BE7"/>
<stop offset="1" stop-color="#1DE9C4"/>
</linearGradient>
<linearGradient id="paint10_linear" x1="98.6954" y1="318.857" x2="98.6954" y2="334.041" gradientUnits="userSpaceOnUse">
<stop stop-color="#379BE7"/>
<stop offset="1" stop-color="#1DE9C4"/>
</linearGradient>
<linearGradient id="paint11_linear" x1="98.6953" y1="322.653" x2="98.6953" y2="330.245" gradientUnits="userSpaceOnUse">
<stop stop-color="#379BE7"/>
<stop offset="1" stop-color="#1DE9C4"/>
</linearGradient>
<linearGradient id="paint12_linear" x1="102.807" y1="321.388" x2="102.807" y2="323.286" gradientUnits="userSpaceOnUse">
<stop stop-color="#379BE7"/>
<stop offset="1" stop-color="#1DE9C4"/>
</linearGradient>
<linearGradient id="paint13_linear" x1="77.9729" y1="323.649" x2="77.9729" y2="334.041" gradientUnits="userSpaceOnUse">
<stop stop-color="#379BE7"/>
<stop offset="1" stop-color="#1DE9C4"/>
</linearGradient>
<linearGradient id="paint14_linear" x1="69.5194" y1="323.904" x2="69.5194" y2="334.041" gradientUnits="userSpaceOnUse">
<stop stop-color="#379BE7"/>
<stop offset="1" stop-color="#1DE9C4"/>
</linearGradient>
<linearGradient id="paint15_linear" x1="69.5186" y1="318.857" x2="69.5186" y2="322.521" gradientUnits="userSpaceOnUse">
<stop stop-color="#379BE7"/>
<stop offset="1" stop-color="#1DE9C4"/>
</linearGradient>
<linearGradient id="paint16_linear" x1="123.369" y1="321.388" x2="123.369" y2="334.229" gradientUnits="userSpaceOnUse">
<stop stop-color="#379BE7"/>
<stop offset="1" stop-color="#1DE9C4"/>
</linearGradient>
<clipPath id="clip0">
<rect x="198" width="341" height="198" rx="3.06764" transform="rotate(90 198 0)" fill="white"/>
</clipPath>
<clipPath id="clip1">
<rect width="13.2857" height="16.6071" fill="white" transform="translate(37.96 22)"/>
</clipPath>
<clipPath id="clip2">
<rect width="13.2857" height="16.6071" fill="white" transform="matrix(-1 0 0 1 158.795 22.0001)"/>
</clipPath>
<clipPath id="clip3">
<rect width="13.2857" height="16.6071" fill="white" transform="matrix(1 0 0 -1 37.959 207.526)"/>
</clipPath>
<clipPath id="clip4">
<rect width="13.2857" height="16.6071" fill="white" transform="translate(159.097 207.826) rotate(-180)"/>
</clipPath>
<clipPath id="clip5">
<rect width="15.1837" height="15.1837" fill="white" transform="translate(91.1035 318.857)"/>
</clipPath>
<clipPath id="clip6">
<rect width="15.1837" height="15.1837" fill="white" transform="translate(67.6953 318.857)"/>
</clipPath>
<clipPath id="clip7">
<rect width="17.7143" height="12.6531" fill="white" transform="translate(114.512 321.388)"/>
</clipPath>
</defs>
</svg>
