<svg width="198" height="341" viewBox="0 0 198 341" fill="none" xmlns="http://www.w3.org/2000/svg">
<g clip-path="url(#clip0)">
<rect x="198" width="341" height="198" rx="3.06764" transform="rotate(90 198 0)" fill="url(#paint0_radial)"/>
<path d="M198.411 0.034097L198.304 41.6733C188.997 41.1746 180.106 37.9246 177.754 31.0168C177.154 29.2829 176.436 27.576 175.604 25.9036C174.776 24.2389 173.815 22.6179 172.727 21.0504C168.065 13.1063 158.643 9.70554 149.832 5.09667C147.345 3.7591 145.261 1.99992 143.731 -0.0543407L198.411 0.034097Z" fill="url(#paint1_linear)"/>
<path opacity="0.15" d="M150.857 0.711668C161.004 5.80635 171.521 9.6514 177.359 17.8272C178.707 19.4726 179.932 21.1791 181.03 22.938C182.142 24.7123 183.15 26.5518 184.031 28.4249C186.488 33.6885 192.001 36.95 198.303 38.5489L198.295 41.6733C188.987 41.1746 180.097 37.9246 177.745 31.0168C177.145 29.2828 176.427 27.576 175.595 25.9036C174.767 24.2389 173.806 22.6178 172.717 21.0504C168.056 13.1063 158.634 9.70552 149.823 5.09665C147.339 3.75826 145.258 1.99915 143.731 -0.0543407L149.483 -0.0450364C149.924 0.212007 150.38 0.466656 150.857 0.711668Z" fill="white"/>
<path d="M91.4839 240C92.3906 240 93.1039 240.217 93.6239 240.65C94.1439 241.083 94.4039 241.68 94.4039 242.44C94.4039 243.2 94.1439 243.797 93.6239 244.23C93.1039 244.663 92.3906 244.88 91.4839 244.88H89.7539V247H88.7539V240H91.4839ZM91.4539 244.01C92.0872 244.01 92.5706 243.877 92.9039 243.61C93.2372 243.337 93.4039 242.947 93.4039 242.44C93.4039 241.933 93.2372 241.547 92.9039 241.28C92.5706 241.007 92.0872 240.87 91.4539 240.87H89.7539V244.01H91.4539ZM99.1107 241.65C99.784 241.65 100.317 241.847 100.711 242.24C101.111 242.627 101.311 243.197 101.311 243.95V247H100.351V244.06C100.351 243.547 100.227 243.16 99.9807 242.9C99.734 242.64 99.3807 242.51 98.9207 242.51C98.4007 242.51 97.9907 242.663 97.6907 242.97C97.3907 243.27 97.2407 243.703 97.2407 244.27V247H96.2807V239.58H97.2407V242.45C97.4407 242.197 97.7007 242 98.0207 241.86C98.3474 241.72 98.7107 241.65 99.1107 241.65ZM103.677 240H106.627C107.367 240 108.024 240.147 108.597 240.44C109.171 240.733 109.614 241.147 109.927 241.68C110.247 242.207 110.407 242.813 110.407 243.5C110.407 244.187 110.247 244.797 109.927 245.33C109.614 245.857 109.171 246.267 108.597 246.56C108.024 246.853 107.367 247 106.627 247H103.677V240ZM106.567 246.13C107.134 246.13 107.631 246.02 108.057 245.8C108.491 245.58 108.824 245.273 109.057 244.88C109.291 244.48 109.407 244.02 109.407 243.5C109.407 242.98 109.291 242.523 109.057 242.13C108.824 241.73 108.491 241.42 108.057 241.2C107.631 240.98 107.134 240.87 106.567 240.87H104.677V246.13H106.567ZM77.8641 251.4H78.6641V257H77.8641V251.4ZM80.7007 251.4H81.5007V257H80.7007V251.4ZM88.7293 257L88.7213 252.92L86.6973 256.32H86.3293L84.3053 252.944V257H83.5373V251.4H84.1933L86.5293 255.336L88.8333 251.4H89.4893L89.4973 257H88.7293ZM94.0463 251.4H94.8463V257H94.0463V251.4ZM99.0349 252.72C99.5735 252.72 100 252.877 100.315 253.192C100.635 253.501 100.795 253.957 100.795 254.56V257H100.027V254.648C100.027 254.237 99.9282 253.928 99.7309 253.72C99.5335 253.512 99.2509 253.408 98.8829 253.408C98.4669 253.408 98.1389 253.531 97.8989 253.776C97.6589 254.016 97.5389 254.363 97.5389 254.816V257H96.7709V252.76H97.5069V253.4C97.6615 253.181 97.8695 253.013 98.1309 252.896C98.3975 252.779 98.6989 252.72 99.0349 252.72ZM106.6 251.064V257H105.864V256.328C105.693 256.563 105.477 256.741 105.216 256.864C104.954 256.987 104.666 257.048 104.352 257.048C103.941 257.048 103.573 256.957 103.248 256.776C102.922 256.595 102.666 256.341 102.48 256.016C102.298 255.685 102.208 255.307 102.208 254.88C102.208 254.453 102.298 254.077 102.48 253.752C102.666 253.427 102.922 253.173 103.248 252.992C103.573 252.811 103.941 252.72 104.352 252.72C104.656 252.72 104.936 252.779 105.192 252.896C105.448 253.008 105.661 253.176 105.832 253.4V251.064H106.6ZM104.416 256.376C104.682 256.376 104.925 256.315 105.144 256.192C105.362 256.064 105.533 255.888 105.656 255.664C105.778 255.435 105.84 255.173 105.84 254.88C105.84 254.587 105.778 254.328 105.656 254.104C105.533 253.875 105.362 253.699 105.144 253.576C104.925 253.453 104.682 253.392 104.416 253.392C104.144 253.392 103.898 253.453 103.68 253.576C103.466 253.699 103.296 253.875 103.168 254.104C103.045 254.328 102.984 254.587 102.984 254.88C102.984 255.173 103.045 255.435 103.168 255.664C103.296 255.888 103.466 256.064 103.68 256.192C103.898 256.315 104.144 256.376 104.416 256.376ZM110.229 257.048C109.807 257.048 109.429 256.955 109.093 256.768C108.757 256.581 108.493 256.325 108.301 256C108.114 255.669 108.021 255.296 108.021 254.88C108.021 254.464 108.114 254.093 108.301 253.768C108.493 253.437 108.757 253.181 109.093 253C109.429 252.813 109.807 252.72 110.229 252.72C110.65 252.72 111.026 252.813 111.357 253C111.693 253.181 111.954 253.437 112.141 253.768C112.333 254.093 112.429 254.464 112.429 254.88C112.429 255.296 112.333 255.669 112.141 256C111.954 256.325 111.693 256.581 111.357 256.768C111.026 256.955 110.65 257.048 110.229 257.048ZM110.229 256.376C110.501 256.376 110.743 256.315 110.957 256.192C111.175 256.064 111.346 255.888 111.469 255.664C111.591 255.435 111.653 255.173 111.653 254.88C111.653 254.587 111.591 254.328 111.469 254.104C111.346 253.875 111.175 253.699 110.957 253.576C110.743 253.453 110.501 253.392 110.229 253.392C109.957 253.392 109.711 253.453 109.493 253.576C109.279 253.699 109.109 253.875 108.981 254.104C108.858 254.328 108.797 254.587 108.797 254.88C108.797 255.173 108.858 255.435 108.981 255.664C109.109 255.888 109.279 256.064 109.493 256.192C109.711 256.315 109.957 256.376 110.229 256.376ZM114.587 253.472C114.72 253.227 114.918 253.04 115.179 252.912C115.44 252.784 115.758 252.72 116.131 252.72V253.464C116.088 253.459 116.03 253.456 115.955 253.456C115.539 253.456 115.211 253.581 114.971 253.832C114.736 254.077 114.619 254.429 114.619 254.888V257H113.851V252.76H114.587V253.472ZM121.23 254.904C121.23 254.963 121.225 255.04 121.214 255.136H117.774C117.822 255.509 117.985 255.811 118.262 256.04C118.545 256.264 118.894 256.376 119.31 256.376C119.817 256.376 120.225 256.205 120.534 255.864L120.958 256.36C120.766 256.584 120.526 256.755 120.238 256.872C119.956 256.989 119.638 257.048 119.286 257.048C118.838 257.048 118.441 256.957 118.094 256.776C117.748 256.589 117.478 256.331 117.286 256C117.1 255.669 117.006 255.296 117.006 254.88C117.006 254.469 117.097 254.099 117.278 253.768C117.465 253.437 117.718 253.181 118.038 253C118.364 252.813 118.729 252.72 119.134 252.72C119.54 252.72 119.9 252.813 120.214 253C120.534 253.181 120.782 253.437 120.958 253.768C121.14 254.099 121.23 254.477 121.23 254.904ZM119.134 253.368C118.766 253.368 118.457 253.48 118.206 253.704C117.961 253.928 117.817 254.221 117.774 254.584H120.494C120.452 254.227 120.305 253.936 120.054 253.712C119.809 253.483 119.502 253.368 119.134 253.368Z" fill="white"/>
<path d="M21.7991 227L21.7871 221.432L19.0271 226.04H18.3311L15.5711 221.504V227H14.0831V218.6H15.3671L18.7031 224.168L21.9791 218.6H23.2631L23.2751 227H21.7991ZM31.04 227L29.324 224.54C29.252 224.548 29.144 224.552 29 224.552H27.104V227H25.544V218.6H29C29.728 218.6 30.36 218.72 30.896 218.96C31.44 219.2 31.856 219.544 32.144 219.992C32.432 220.44 32.576 220.972 32.576 221.588C32.576 222.22 32.42 222.764 32.108 223.22C31.804 223.676 31.364 224.016 30.788 224.24L32.72 227H31.04ZM31.004 221.588C31.004 221.052 30.828 220.64 30.476 220.352C30.124 220.064 29.608 219.92 28.928 219.92H27.104V223.268H28.928C29.608 223.268 30.124 223.124 30.476 222.836C30.828 222.54 31.004 222.124 31.004 221.588ZM34.6574 227.084C34.3854 227.084 34.1534 226.992 33.9614 226.808C33.7694 226.616 33.6734 226.376 33.6734 226.088C33.6734 225.792 33.7654 225.552 33.9494 225.368C34.1414 225.184 34.3774 225.092 34.6574 225.092C34.9374 225.092 35.1694 225.184 35.3534 225.368C35.5454 225.552 35.6414 225.792 35.6414 226.088C35.6414 226.376 35.5454 226.616 35.3534 226.808C35.1614 226.992 34.9294 227.084 34.6574 227.084ZM48.0315 218.6V227H46.4715V223.4H42.1275V227H40.5675V218.6H42.1275V222.068H46.4715V218.6H48.0315ZM56.5823 225.692V227H50.2823V218.6H56.4143V219.908H51.8423V222.092H55.8983V223.376H51.8423V225.692H56.5823ZM66.0374 227L66.0254 221.432L63.2654 226.04H62.5694L59.8094 221.504V227H58.3214V218.6H59.6054L62.9414 224.168L66.2174 218.6H67.5014L67.5134 227H66.0374ZM75.2303 225.056H71.0303L70.2023 227H68.5943L72.3743 218.6H73.9103L77.7023 227H76.0703L75.2303 225.056ZM74.7143 223.832L73.1303 220.16L71.5583 223.832H74.7143ZM86.2346 218.6V227H84.9506L80.3186 221.312V227H78.7706V218.6H80.0546L84.6866 224.288V218.6H86.2346ZM90.1894 219.92H87.4054V218.6H94.5334V219.92H91.7494V227H90.1894V219.92ZM101.625 227.12C100.977 227.12 100.349 227.028 99.7406 226.844C99.1406 226.66 98.6646 226.416 98.3126 226.112L98.8526 224.9C99.1966 225.172 99.6166 225.396 100.113 225.572C100.617 225.74 101.121 225.824 101.625 225.824C102.249 225.824 102.713 225.724 103.017 225.524C103.329 225.324 103.485 225.06 103.485 224.732C103.485 224.492 103.397 224.296 103.221 224.144C103.053 223.984 102.837 223.86 102.573 223.772C102.309 223.684 101.949 223.584 101.493 223.472C100.853 223.32 100.333 223.168 99.9326 223.016C99.5406 222.864 99.2006 222.628 98.9126 222.308C98.6326 221.98 98.4926 221.54 98.4926 220.988C98.4926 220.524 98.6166 220.104 98.8646 219.728C99.1206 219.344 99.5006 219.04 100.005 218.816C100.517 218.592 101.141 218.48 101.877 218.48C102.389 218.48 102.893 218.544 103.389 218.672C103.885 218.8 104.313 218.984 104.673 219.224L104.181 220.436C103.813 220.22 103.429 220.056 103.029 219.944C102.629 219.832 102.241 219.776 101.865 219.776C101.249 219.776 100.789 219.88 100.485 220.088C100.189 220.296 100.041 220.572 100.041 220.916C100.041 221.156 100.125 221.352 100.293 221.504C100.469 221.656 100.689 221.776 100.953 221.864C101.217 221.952 101.577 222.052 102.033 222.164C102.657 222.308 103.169 222.46 103.569 222.62C103.969 222.772 104.309 223.008 104.589 223.328C104.877 223.648 105.021 224.08 105.021 224.624C105.021 225.088 104.893 225.508 104.637 225.884C104.389 226.26 104.009 226.56 103.497 226.784C102.985 227.008 102.361 227.12 101.625 227.12ZM114.031 218.6V227H112.471V223.4H108.127V227H106.567V218.6H108.127V222.068H112.471V218.6H114.031ZM121.778 227L120.062 224.54C119.99 224.548 119.882 224.552 119.738 224.552H117.842V227H116.282V218.6H119.738C120.466 218.6 121.098 218.72 121.634 218.96C122.178 219.2 122.594 219.544 122.882 219.992C123.17 220.44 123.314 220.972 123.314 221.588C123.314 222.22 123.158 222.764 122.846 223.22C122.542 223.676 122.102 224.016 121.526 224.24L123.458 227H121.778ZM121.742 221.588C121.742 221.052 121.566 220.64 121.214 220.352C120.862 220.064 120.346 219.92 119.666 219.92H117.842V223.268H119.666C120.346 223.268 120.862 223.124 121.214 222.836C121.566 222.54 121.742 222.124 121.742 221.588ZM125.06 218.6H126.62V227H125.06V218.6ZM136.513 218.6L132.853 227H131.317L127.645 218.6H129.337L132.133 225.08L134.953 218.6H136.513ZM142.578 225.056H138.378L137.55 227H135.942L139.722 218.6H141.258L145.05 227H143.418L142.578 225.056ZM142.062 223.832L140.478 220.16L138.906 223.832H142.062ZM148.722 227.12C148.074 227.12 147.446 227.028 146.838 226.844C146.238 226.66 145.762 226.416 145.41 226.112L145.95 224.9C146.294 225.172 146.714 225.396 147.21 225.572C147.714 225.74 148.218 225.824 148.722 225.824C149.346 225.824 149.81 225.724 150.114 225.524C150.426 225.324 150.582 225.06 150.582 224.732C150.582 224.492 150.494 224.296 150.318 224.144C150.15 223.984 149.934 223.86 149.67 223.772C149.406 223.684 149.046 223.584 148.59 223.472C147.95 223.32 147.43 223.168 147.03 223.016C146.638 222.864 146.298 222.628 146.01 222.308C145.73 221.98 145.59 221.54 145.59 220.988C145.59 220.524 145.714 220.104 145.962 219.728C146.218 219.344 146.598 219.04 147.102 218.816C147.614 218.592 148.238 218.48 148.974 218.48C149.486 218.48 149.99 218.544 150.486 218.672C150.982 218.8 151.41 218.984 151.77 219.224L151.278 220.436C150.91 220.22 150.526 220.056 150.126 219.944C149.726 219.832 149.338 219.776 148.962 219.776C148.346 219.776 147.886 219.88 147.582 220.088C147.286 220.296 147.138 220.572 147.138 220.916C147.138 221.156 147.222 221.352 147.39 221.504C147.566 221.656 147.786 221.776 148.05 221.864C148.314 221.952 148.674 222.052 149.13 222.164C149.754 222.308 150.266 222.46 150.666 222.62C151.066 222.772 151.406 223.008 151.686 223.328C151.974 223.648 152.118 224.08 152.118 224.624C152.118 225.088 151.99 225.508 151.734 225.884C151.486 226.26 151.106 226.56 150.594 226.784C150.082 227.008 149.458 227.12 148.722 227.12ZM155.252 219.92H152.468V218.6H159.596V219.92H156.812V227H155.252V219.92ZM165.793 225.056H161.593L160.765 227H159.157L162.937 218.6H164.473L168.265 227H166.633L165.793 225.056ZM165.277 223.832L163.693 220.16L162.121 223.832H165.277ZM176.568 218.6L172.908 227H171.372L167.7 218.6H169.392L172.188 225.08L175.008 218.6H176.568ZM182.633 225.056H178.433L177.605 227H175.997L179.777 218.6H181.313L185.105 227H183.473L182.633 225.056ZM182.117 223.832L180.533 220.16L178.961 223.832H182.117Z" fill="url(#paint2_linear)"/>
<path d="M197.734 341.599L197.627 300C188.329 300.498 179.447 303.745 177.097 310.646C176.497 312.378 175.78 314.084 174.949 315.754C174.122 317.418 173.161 319.037 172.074 320.603C167.417 328.539 158.004 331.937 149.202 336.541C146.717 337.877 144.635 339.635 143.106 341.687L197.734 341.599Z" fill="url(#paint3_linear)"/>
<path d="M-0.999522 341.599L-0.89304 300C8.40582 300.498 17.2873 303.745 19.6373 310.646C20.2369 312.378 20.9539 314.084 21.7851 315.754C22.6127 317.418 23.5729 319.037 24.66 320.603C29.3171 328.539 38.7301 331.937 47.5322 336.541C50.0174 337.877 52.0992 339.635 53.6279 341.687L-0.999522 341.599Z" fill="url(#paint4_linear)"/>
<path opacity="0.15" d="M150.226 340.922C160.364 335.832 170.87 331.991 176.702 323.823C178.049 322.179 179.273 320.474 180.37 318.717C181.481 316.945 182.488 315.107 183.368 313.236C185.822 307.977 191.33 304.719 197.626 303.121L197.618 300C188.319 300.498 179.438 303.745 177.088 310.646C176.488 312.378 175.771 314.084 174.94 315.754C174.113 317.418 173.152 319.037 172.065 320.603C167.408 328.539 157.995 331.937 149.193 336.541C146.711 337.878 144.633 339.636 143.106 341.687L148.854 341.678C149.294 341.421 149.749 341.167 150.226 340.922Z" fill="white"/>
<path opacity="0.15" d="M46.5089 340.922C36.3708 335.832 25.8648 331.991 20.0321 323.823C18.6857 322.179 17.4611 320.474 16.3646 318.717C15.2537 316.945 14.2464 315.107 13.3667 313.236C10.9123 307.977 5.40439 304.719 -0.891907 303.121L-0.883917 300C8.41494 300.498 17.2964 303.745 19.6464 310.646C20.246 312.378 20.963 314.084 21.7942 315.754C22.6218 317.418 23.5821 319.037 24.6691 320.603C29.3262 328.539 38.7392 331.937 47.5413 336.541C50.0232 337.878 52.1019 339.636 53.6279 341.687L47.8807 341.678C47.4407 341.421 46.9854 341.167 46.5089 340.922Z" fill="white"/>
<g clip-path="url(#clip1)">
<path d="M39.9878 35.2541C39.2172 35.2541 38.5928 34.6297 38.5928 33.8591V24.0277C38.5928 23.2571 39.2172 22.6327 39.9878 22.6327H49.8192C50.5898 22.6327 51.2142 23.2571 51.2142 24.0277C51.2142 24.7983 50.5898 25.4227 49.8192 25.4227H41.3828V33.8591C41.3828 34.6297 40.7583 35.2541 39.9878 35.2541Z" fill="url(#paint5_linear)"/>
</g>
<g clip-path="url(#clip2)">
<path d="M157.069 34.9536C157.839 34.9536 158.464 34.3292 158.464 33.5586V23.7272C158.464 22.9566 157.839 22.3322 157.069 22.3322H147.237C146.467 22.3322 145.842 22.9566 145.842 23.7272C145.842 24.4977 146.467 25.1222 147.237 25.1222H155.674V33.5586C155.674 34.3292 156.298 34.9536 157.069 34.9536Z" fill="url(#paint6_linear)"/>
</g>
<g clip-path="url(#clip3)">
<path d="M39.688 194.572C38.9174 194.572 38.293 195.196 38.293 195.967V205.798C38.293 206.569 38.9174 207.193 39.688 207.193H49.5194C50.29 207.193 50.9144 206.569 50.9144 205.798C50.9144 205.028 50.29 204.403 49.5194 204.403H41.083V195.967C41.083 195.196 40.4585 194.572 39.688 194.572Z" fill="url(#paint7_linear)"/>
</g>
<g clip-path="url(#clip4)">
<path d="M157.369 194.873C158.139 194.873 158.764 195.497 158.764 196.268V206.099C158.764 206.87 158.139 207.494 157.369 207.494H147.537C146.767 207.494 146.142 206.87 146.142 206.099C146.142 205.329 146.767 204.704 147.537 204.704H155.974V196.268C155.974 195.497 156.598 194.873 157.369 194.873Z" fill="url(#paint8_linear)"/>
</g>
<g clip-path="url(#clip5)">
<path d="M103.757 318.857H93.6341C92.963 318.857 92.3193 319.124 91.8447 319.598C91.3701 320.073 91.1035 320.717 91.1035 321.388V331.51C91.1035 332.182 91.3701 332.825 91.8447 333.3C92.3193 333.774 92.963 334.041 93.6341 334.041H103.757C104.428 334.041 105.071 333.774 105.546 333.3C106.021 332.825 106.287 332.182 106.287 331.51V321.388C106.287 320.717 106.021 320.073 105.546 319.598C105.071 319.124 104.428 318.857 103.757 318.857V318.857ZM105.022 331.51C105.022 331.846 104.889 332.168 104.651 332.405C104.414 332.642 104.092 332.776 103.757 332.776H93.6341C93.2985 332.776 92.9767 332.642 92.7394 332.405C92.5021 332.168 92.3688 331.846 92.3688 331.51V321.388C92.3688 321.052 92.5021 320.73 92.7394 320.493C92.9767 320.256 93.2985 320.123 93.6341 320.123H103.757C104.092 320.123 104.414 320.256 104.651 320.493C104.889 320.73 105.022 321.052 105.022 321.388V331.51Z" fill="url(#paint9_linear)"/>
<path d="M98.6953 322.653C97.9446 322.653 97.2107 322.876 96.5864 323.293C95.9622 323.71 95.4757 324.303 95.1884 324.997C94.9011 325.69 94.8259 326.453 94.9724 327.19C95.1188 327.926 95.4803 328.602 96.0112 329.133C96.5421 329.664 97.2185 330.026 97.9548 330.172C98.6911 330.319 99.4544 330.244 100.148 329.956C100.842 329.669 101.434 329.182 101.852 328.558C102.269 327.934 102.491 327.2 102.491 326.449C102.491 325.442 102.091 324.477 101.379 323.765C100.668 323.053 99.7021 322.653 98.6953 322.653ZM98.6953 328.98C98.1948 328.98 97.7056 328.831 97.2894 328.553C96.8732 328.275 96.5489 327.88 96.3574 327.418C96.1658 326.955 96.1157 326.446 96.2133 325.956C96.311 325.465 96.552 325.014 96.9059 324.66C97.2598 324.306 97.7107 324.065 98.2016 323.967C98.6925 323.87 99.2014 323.92 99.6638 324.111C100.126 324.303 100.521 324.627 100.799 325.043C101.078 325.459 101.226 325.949 101.226 326.449C101.226 327.12 100.959 327.764 100.485 328.239C100.01 328.713 99.3665 328.98 98.6953 328.98Z" fill="url(#paint10_linear)"/>
<path d="M102.807 323.286C103.331 323.286 103.756 322.861 103.756 322.337C103.756 321.813 103.331 321.388 102.807 321.388C102.283 321.388 101.858 321.813 101.858 322.337C101.858 322.861 102.283 323.286 102.807 323.286Z" fill="url(#paint11_linear)"/>
</g>
<g clip-path="url(#clip6)">
<path d="M82.8757 334.041V334.04H82.8795V328.472C82.8795 325.747 82.293 323.649 79.1082 323.649C77.5772 323.649 76.5498 324.489 76.1303 325.285H76.0861V323.903H73.0664V334.04H76.2107V329.021C76.2107 327.699 76.4612 326.421 78.0979 326.421C79.7105 326.421 79.7346 327.929 79.7346 329.105V334.041H82.8757Z" fill="url(#paint12_linear)"/>
<path d="M67.9453 323.904H71.0934V334.041H67.9453V323.904Z" fill="url(#paint13_linear)"/>
<path d="M69.5186 318.857C68.5121 318.857 67.6953 319.674 67.6953 320.681C67.6953 321.687 68.5121 322.521 69.5186 322.521C70.5252 322.521 71.3419 321.687 71.3419 320.681C71.3413 319.674 70.5245 318.857 69.5186 318.857V318.857Z" fill="url(#paint14_linear)"/>
</g>
<g clip-path="url(#clip7)">
<path d="M130.072 321.388H116.666C115.478 321.388 114.512 322.316 114.512 323.456V332.161C114.512 333.302 115.478 334.229 116.666 334.229H130.072C131.26 334.229 132.226 333.302 132.226 332.161V323.456C132.226 322.316 131.26 321.388 130.072 321.388ZM129.04 322.082L123.364 326.486L117.688 322.082H129.04ZM129.324 333.535H117.404V325.43L123.137 329.863C123.27 329.966 123.458 329.966 123.591 329.863L129.324 325.43V333.535H129.324ZM131.503 332.161C131.503 332.919 130.861 333.535 130.072 333.535H130.047V324.705C130.047 324.571 129.967 324.449 129.842 324.392C129.716 324.334 129.567 324.351 129.459 324.434L123.364 329.148L117.269 324.434C117.161 324.351 117.012 324.334 116.886 324.392C116.761 324.449 116.681 324.571 116.681 324.705V333.535H116.666C115.877 333.535 115.235 332.919 115.235 332.161V323.456C115.235 322.737 115.812 322.146 116.545 322.087L123.137 327.202C123.203 327.254 123.284 327.28 123.364 327.28C123.444 327.28 123.525 327.254 123.591 327.202L130.184 322.087C130.921 322.142 131.503 322.734 131.503 323.456V332.161Z" fill="url(#paint15_linear)"/>
</g>
<path d="M64.6455 311.635C64.1984 311.635 63.7935 311.538 63.4308 311.344C63.0723 311.146 62.7897 310.874 62.583 310.528C62.3806 310.182 62.2793 309.792 62.2793 309.357C62.2793 308.923 62.3827 308.533 62.5893 308.187C62.796 307.841 63.0786 307.571 63.4371 307.377C63.7998 307.179 64.2047 307.08 64.6518 307.08C65.0145 307.08 65.3456 307.143 65.6451 307.269C65.9445 307.396 66.1976 307.579 66.4042 307.82L65.8728 308.32C65.5523 307.974 65.1579 307.801 64.6898 307.801C64.3861 307.801 64.114 307.868 63.8736 308.003C63.6332 308.134 63.4455 308.318 63.3106 308.554C63.1756 308.79 63.1081 309.058 63.1081 309.357C63.1081 309.657 63.1756 309.925 63.3106 310.161C63.4455 310.397 63.6332 310.582 63.8736 310.717C64.114 310.848 64.3861 310.914 64.6898 310.914C65.1579 310.914 65.5523 310.739 65.8728 310.388L66.4042 310.895C66.1976 311.135 65.9424 311.318 65.6387 311.445C65.3393 311.572 65.0082 311.635 64.6455 311.635ZM69.4531 311.635C69.0018 311.635 68.5948 311.538 68.2321 311.344C67.8693 311.146 67.5847 310.874 67.378 310.528C67.1713 310.178 67.068 309.787 67.068 309.357C67.068 308.927 67.1713 308.539 67.378 308.193C67.5847 307.843 67.8693 307.571 68.2321 307.377C68.5948 307.179 69.0018 307.08 69.4531 307.08C69.9044 307.08 70.3114 307.179 70.6741 307.377C71.0368 307.571 71.3215 307.841 71.5282 308.187C71.7349 308.533 71.8382 308.923 71.8382 309.357C71.8382 309.792 71.7349 310.182 71.5282 310.528C71.3215 310.874 71.0368 311.146 70.6741 311.344C70.3114 311.538 69.9044 311.635 69.4531 311.635ZM69.4531 310.914C69.7483 310.914 70.014 310.848 70.2502 310.717C70.4864 310.582 70.672 310.397 70.807 310.161C70.9419 309.92 71.0094 309.652 71.0094 309.357C71.0094 309.062 70.9419 308.796 70.807 308.56C70.672 308.32 70.4864 308.134 70.2502 308.003C70.014 307.868 69.7483 307.801 69.4531 307.801C69.1579 307.801 68.8921 307.868 68.6559 308.003C68.4198 308.134 68.2342 308.32 68.0992 308.56C67.9642 308.796 67.8968 309.062 67.8968 309.357C67.8968 309.652 67.9642 309.92 68.0992 310.161C68.2342 310.397 68.4198 310.582 68.6559 310.717C68.8921 310.848 69.1579 310.914 69.4531 310.914ZM76.9298 307.143V311.572H76.2528L73.8108 308.573V311.572H72.9947V307.143H73.6716L76.1136 310.142V307.143H76.9298ZM82.3362 307.143V311.572H81.6593L79.2173 308.573V311.572H78.4011V307.143H79.0781L81.5201 310.142V307.143H82.3362ZM87.129 310.882V311.572H83.8076V307.143H87.0405V307.833H84.63V308.984H86.7684V309.661H84.63V310.882H87.129ZM90.3618 311.635C89.9148 311.635 89.5099 311.538 89.1471 311.344C88.7886 311.146 88.5061 310.874 88.2994 310.528C88.0969 310.182 87.9957 309.792 87.9957 309.357C87.9957 308.923 88.099 308.533 88.3057 308.187C88.5124 307.841 88.795 307.571 89.1535 307.377C89.5162 307.179 89.9211 307.08 90.3682 307.08C90.7309 307.08 91.062 307.143 91.3614 307.269C91.6609 307.396 91.9139 307.579 92.1206 307.82L91.5892 308.32C91.2686 307.974 90.8743 307.801 90.4061 307.801C90.1025 307.801 89.8304 307.868 89.59 308.003C89.3496 308.134 89.1619 308.318 89.0269 308.554C88.892 308.79 88.8245 309.058 88.8245 309.357C88.8245 309.657 88.892 309.925 89.0269 310.161C89.1619 310.397 89.3496 310.582 89.59 310.717C89.8304 310.848 90.1025 310.914 90.4061 310.914C90.8743 310.914 91.2686 310.739 91.5892 310.388L92.1206 310.895C91.9139 311.135 91.6588 311.318 91.3551 311.445C91.0556 311.572 90.7246 311.635 90.3618 311.635ZM94.0423 307.839H92.5745V307.143H96.3325V307.839H94.8647V311.572H94.0423V307.839ZM105.74 307.143L104.272 311.572H103.399L102.304 308.294L101.191 311.572H100.311L98.8437 307.143H99.6978L100.799 310.509L101.944 307.143H102.703L103.823 310.528L104.955 307.143H105.74ZM106.694 307.143H107.517V311.572H106.694V307.143ZM109.898 307.839H108.43V307.143H112.188V307.839H110.72V311.572H109.898V307.839ZM117.025 307.143V311.572H116.202V309.674H113.912V311.572H113.09V307.143H113.912V308.971H116.202V307.143H117.025ZM121.428 307.839H119.96V307.143H123.718V307.839H122.25V311.572H121.428V307.839ZM128.555 307.143V311.572H127.733V309.674H125.442V311.572H124.62V307.143H125.442V308.971H127.733V307.143H128.555ZM133.348 310.882V311.572H130.026V307.143H133.259V307.833H130.849V308.984H132.987V309.661H130.849V310.882H133.348ZM138.617 311.572L138.611 308.636L137.156 311.065H136.789L135.334 308.674V311.572H134.549V307.143H135.226L136.985 310.078L138.712 307.143H139.389L139.395 311.572H138.617Z" fill="white"/>
<path d="M121.298 59.1794L120.11 57.9402L121.298 59.1794Z" fill="#2B2924"/>
<path d="M71.0056 82.5358C71.0382 80.5443 71.1819 78.5561 71.4359 76.5805C73.6562 60.4186 87.7355 46.3738 104.775 49.0416C123.02 51.8988 132.073 65.3068 133.88 83.2759C134.5 89.4549 133.398 94.6013 135.189 100.591C137.099 106.994 139.25 113.328 141.006 119.782C144.003 130.005 146.366 140.404 148.08 150.918C148.958 157.27 148.562 165.256 142.796 168.13C140.221 169.14 137.431 169.477 134.689 169.111C116.135 168.216 97.5807 167.097 79.0263 166.443C73.5874 166.237 65.9453 168.543 60.9539 166.443C42.0209 158.646 60.3515 133.466 64.2758 122.553C67.0349 114.884 69.0916 106.98 70.4204 98.9387C71.3843 93.362 70.9023 87.9747 71.0056 82.5358Z" fill="#2B0D04"/>
<path d="M83.4326 125.032C85.7098 119.521 86.5049 113.51 85.739 107.596C84.6719 100.419 114.517 110.247 114.517 110.247C113.822 114.487 113.822 118.812 114.517 123.053C115.739 129.025 100.249 140.471 100.249 140.471L90.042 135.307L88.6134 136.753L83.4326 125.032Z" fill="#DEB09D"/>
<path d="M109.336 73.7406C111.057 72.5358 117.942 69.3515 117.598 66.9763C117.908 69.7474 119.319 72.1399 120.059 74.7216C120.885 77.6649 122.073 80.4704 122.658 83.4997C123.91 89.3471 123.661 95.4164 121.935 101.142C119.996 106.075 116.812 110.422 112.692 113.758L111.849 114.515C109.341 117.056 105.935 118.509 102.365 118.56V77.2518C104.774 76.2584 107.104 75.0847 109.336 73.7406Z" fill="#F9CFB3"/>
<path d="M91.1764 84.3775C94.9114 82.2948 102.226 77.0969 102.433 77.2001V118.508C98.8985 118.434 95.5327 116.983 93.0525 114.464C92.7599 114.223 92.4845 113.965 92.2091 113.706C87.9062 109.851 84.068 105.909 83.1041 100.281C82.9836 99.5411 82.5705 98.6461 81.8132 98.56C79.3519 98.4051 78.1987 94.1366 77.7168 91.5376C81.6067 88.4394 86.8735 86.7183 91.1764 84.3775Z" fill="#E2BBA1"/>
<path d="M94.8255 172.657H103.724L112.984 150.832C113.126 150.495 113.177 150.127 113.131 149.765C113.086 149.402 112.946 149.058 112.726 148.767C109.507 144.567 104.671 140.04 99.2661 138.646C93.8616 140.04 89.0423 144.567 85.8237 148.767C85.5972 149.055 85.4521 149.398 85.4037 149.762C85.3553 150.125 85.4052 150.495 85.5483 150.832L94.8255 172.657Z" fill="#E6E7E8"/>
<path d="M154.999 172.657C154.436 165.001 153.349 157.393 151.746 149.886C149.285 140.66 143.846 138.216 134.792 135.445C133.415 135.032 114.001 130.901 115.24 126.839C111.143 140.253 107.03 153.632 102.899 166.977C102.331 168.87 101.746 170.764 101.178 172.657H154.999Z" fill="#728D96"/>
<path d="M64.2579 172.657H96.9604C96.3752 170.764 95.8072 168.87 95.2392 166.977C91.1198 153.632 87.0005 140.259 82.8811 126.856C82.8811 127.51 74.8088 132.553 73.8621 132.932C70.1272 134.412 66.9774 134.447 63.6211 135.118C65.6693 147.27 64.7743 159.972 64.2579 172.657Z" fill="#647C82"/>
<path d="M92.0393 169.989C92.0051 170.095 92.0051 170.21 92.0393 170.316L92.9516 172.657H105.43L106.342 170.316C106.377 170.21 106.377 170.095 106.342 169.989L101.678 148.836C101.535 148.164 101.632 147.463 101.953 146.856L103.675 143.534C103.715 143.436 103.725 143.328 103.704 143.223C103.682 143.119 103.63 143.024 103.554 142.949L101.73 141.228C101.26 140.827 100.822 140.39 100.422 139.92C100.153 139.394 99.7919 138.922 99.3544 138.526C98.7347 138.113 98.2184 139.076 98.0118 139.507C97.6786 140.082 97.2408 140.59 96.721 141.004L94.69 143.035C94.6138 143.11 94.5616 143.205 94.5401 143.309C94.5187 143.414 94.5289 143.522 94.5695 143.62L96.2907 146.942C96.6075 147.551 96.6989 148.252 96.5488 148.922L92.0393 169.989Z" fill="#3D5872"/>
<path d="M80.4374 133.311L83.8798 123.328L86.6681 128.405C89.835 132.88 96.7714 137.39 99.2155 137.459C101.66 137.527 108.286 133.087 111.763 128.405L114.568 123.328L118.011 133.311C118.054 133.457 118.054 133.612 118.011 133.758L111.625 154.412C111.453 154.98 110.679 158.078 110.317 154.619L106.737 148.405C106.322 147.683 105.838 147.003 105.291 146.374L99.1639 138.732L93.0537 146.374C92.5014 147.002 92.0115 147.683 91.5907 148.405L88.0278 154.619C87.6664 158.061 86.8918 154.98 86.7025 154.412L80.3341 133.758C80.3149 133.601 80.3514 133.443 80.4374 133.311Z" fill="white"/>
<path d="M112.693 172.657C118.287 164.292 123.467 156.805 123.226 156.374L117.34 145.841L125.361 146.701C124.534 144.154 122.693 131.658 120.335 130.402L115.808 126.753L106.169 155.462L101.006 172.674L112.693 172.657Z" fill="#647C82"/>
<path d="M75.3758 156.169C75.1349 156.6 80.1952 164.052 85.7029 172.452H97.5963L92.4328 155.24L82.7941 126.531L78.2674 130.197C75.9266 131.453 74.0677 143.966 73.2588 146.496L81.2623 145.636L75.3758 156.169Z" fill="#728D96"/>
<path d="M66.0651 172.452C65.4944 167.74 65.1899 162.999 65.1528 158.252C65.3917 150.441 64.8788 142.626 63.621 134.913C61.8641 135.255 60.1618 135.834 58.5607 136.634C51.0908 140.335 45.8067 151.918 43.5004 159.44C42.2357 163.73 41.2299 168.093 40.4883 172.504L66.0651 172.452Z" fill="#647C82"/>
<line x1="38.5938" y1="299.561" x2="158.798" y2="299.598" stroke="black" stroke-width="0.632653"/>
<path d="M-1.99989 0.0884188L-1.8933 41.7276C7.41458 41.2289 16.3047 37.9789 18.6569 31.0711C19.2571 29.3372 19.9748 27.6303 20.8068 25.9579C21.6352 24.2932 22.5964 22.6722 23.6845 21.1047C28.3461 13.1606 37.7683 9.75986 46.5789 5.15099C49.0666 3.81342 51.1504 2.05424 52.6805 -1.94584e-05L-1.99989 0.0884188Z" fill="url(#paint16_linear)"/>
<path opacity="0.15" d="M45.5546 0.76599C35.4067 5.86067 24.8905 9.70572 19.0521 17.8815C17.7044 19.5269 16.4787 21.2334 15.3811 22.9923C14.2691 24.7667 13.2608 26.6061 12.3803 28.4793C9.9235 33.7429 4.41024 37.0043 -1.89216 38.6033L-1.88416 41.7276C7.42372 41.2289 16.3138 37.9789 18.666 31.0711C19.2663 29.3372 19.984 27.6303 20.816 25.9579C21.6444 24.2932 22.6056 22.6722 23.6936 21.1047C28.3553 13.1606 37.7774 9.75985 46.588 5.15098C49.0724 3.81259 51.153 2.05347 52.6805 -1.94584e-05L46.9277 0.0092849C46.4873 0.266329 46.0316 0.520978 45.5546 0.76599Z" fill="white"/>
</g>
<defs>
<radialGradient id="paint0_radial" cx="0" cy="0" r="1" gradientUnits="userSpaceOnUse" gradientTransform="translate(368.5 99) rotate(90) scale(99 170.5)">
<stop stop-color="#335063"/>
<stop offset="1" stop-color="#1B3342"/>
</radialGradient>
<linearGradient id="paint1_linear" x1="170.964" y1="41.6291" x2="171.032" y2="-0.0101858" gradientUnits="userSpaceOnUse">
<stop stop-color="#379BE7"/>
<stop offset="1" stop-color="#1DE9C4"/>
</linearGradient>
<linearGradient id="paint2_linear" x1="99" y1="215" x2="99" y2="229" gradientUnits="userSpaceOnUse">
<stop stop-color="#379BE7"/>
<stop offset="1" stop-color="#1DE9C4"/>
</linearGradient>
<linearGradient id="paint3_linear" x1="170.314" y1="300.044" x2="170.381" y2="341.643" gradientUnits="userSpaceOnUse">
<stop stop-color="#379BE7"/>
<stop offset="1" stop-color="#1DE9C4"/>
</linearGradient>
<linearGradient id="paint4_linear" x1="26.4207" y1="300.044" x2="26.3534" y2="341.643" gradientUnits="userSpaceOnUse">
<stop stop-color="#379BE7"/>
<stop offset="1" stop-color="#1DE9C4"/>
</linearGradient>
<linearGradient id="paint5_linear" x1="44.9035" y1="22.6327" x2="44.9035" y2="35.2541" gradientUnits="userSpaceOnUse">
<stop stop-color="#379BE7"/>
<stop offset="1" stop-color="#1DE9C4"/>
</linearGradient>
<linearGradient id="paint6_linear" x1="152.153" y1="22.3322" x2="152.153" y2="34.9536" gradientUnits="userSpaceOnUse">
<stop stop-color="#379BE7"/>
<stop offset="1" stop-color="#1DE9C4"/>
</linearGradient>
<linearGradient id="paint7_linear" x1="44.6037" y1="207.193" x2="44.6037" y2="194.572" gradientUnits="userSpaceOnUse">
<stop stop-color="#379BE7"/>
<stop offset="1" stop-color="#1DE9C4"/>
</linearGradient>
<linearGradient id="paint8_linear" x1="152.453" y1="207.494" x2="152.453" y2="194.873" gradientUnits="userSpaceOnUse">
<stop stop-color="#379BE7"/>
<stop offset="1" stop-color="#1DE9C4"/>
</linearGradient>
<linearGradient id="paint9_linear" x1="98.6954" y1="318.857" x2="98.6954" y2="334.041" gradientUnits="userSpaceOnUse">
<stop stop-color="#379BE7"/>
<stop offset="1" stop-color="#1DE9C4"/>
</linearGradient>
<linearGradient id="paint10_linear" x1="98.6953" y1="322.653" x2="98.6953" y2="330.245" gradientUnits="userSpaceOnUse">
<stop stop-color="#379BE7"/>
<stop offset="1" stop-color="#1DE9C4"/>
</linearGradient>
<linearGradient id="paint11_linear" x1="102.807" y1="321.388" x2="102.807" y2="323.286" gradientUnits="userSpaceOnUse">
<stop stop-color="#379BE7"/>
<stop offset="1" stop-color="#1DE9C4"/>
</linearGradient>
<linearGradient id="paint12_linear" x1="77.9729" y1="323.649" x2="77.9729" y2="334.041" gradientUnits="userSpaceOnUse">
<stop stop-color="#379BE7"/>
<stop offset="1" stop-color="#1DE9C4"/>
</linearGradient>
<linearGradient id="paint13_linear" x1="69.5194" y1="323.904" x2="69.5194" y2="334.041" gradientUnits="userSpaceOnUse">
<stop stop-color="#379BE7"/>
<stop offset="1" stop-color="#1DE9C4"/>
</linearGradient>
<linearGradient id="paint14_linear" x1="69.5186" y1="318.857" x2="69.5186" y2="322.521" gradientUnits="userSpaceOnUse">
<stop stop-color="#379BE7"/>
<stop offset="1" stop-color="#1DE9C4"/>
</linearGradient>
<linearGradient id="paint15_linear" x1="123.369" y1="321.388" x2="123.369" y2="334.229" gradientUnits="userSpaceOnUse">
<stop stop-color="#379BE7"/>
<stop offset="1" stop-color="#1DE9C4"/>
</linearGradient>
<linearGradient id="paint16_linear" x1="25.4469" y1="41.6834" x2="25.3796" y2="0.0441358" gradientUnits="userSpaceOnUse">
<stop stop-color="#379BE7"/>
<stop offset="1" stop-color="#1DE9C4"/>
</linearGradient>
<clipPath id="clip0">
<rect x="198" width="341" height="198" rx="3.06764" transform="rotate(90 198 0)" fill="white"/>
</clipPath>
<clipPath id="clip1">
<rect width="13.2857" height="16.6071" fill="white" transform="translate(37.96 22)"/>
</clipPath>
<clipPath id="clip2">
<rect width="13.2857" height="16.6071" fill="white" transform="matrix(-1 0 0 1 158.795 22.0001)"/>
</clipPath>
<clipPath id="clip3">
<rect width="13.2857" height="16.6071" fill="white" transform="matrix(1 0 0 -1 37.959 207.526)"/>
</clipPath>
<clipPath id="clip4">
<rect width="13.2857" height="16.6071" fill="white" transform="translate(159.097 207.826) rotate(-180)"/>
</clipPath>
<clipPath id="clip5">
<rect width="15.1837" height="15.1837" fill="white" transform="translate(91.1035 318.857)"/>
</clipPath>
<clipPath id="clip6">
<rect width="15.1837" height="15.1837" fill="white" transform="translate(67.6953 318.857)"/>
</clipPath>
<clipPath id="clip7">
<rect width="17.7143" height="12.6531" fill="white" transform="translate(114.512 321.388)"/>
</clipPath>
</defs>
</svg>
