<svg width="198" height="341" viewBox="0 0 198 341" fill="none" xmlns="http://www.w3.org/2000/svg">
<g clip-path="url(#clip0)">
<rect x="198" width="341" height="198" rx="3.06764" transform="rotate(90 198 0)" fill="url(#paint0_radial)"/>
<path d="M198.12 0.0343412L198.013 41.6735C188.706 41.1748 179.815 37.9249 177.463 31.017C176.863 29.2831 176.145 27.5762 175.313 25.9039C174.485 24.2391 173.524 22.6181 172.436 21.0507C167.774 13.1065 158.352 9.70578 149.541 5.09691C147.054 3.75934 144.97 2.00016 143.44 -0.0540966L198.12 0.0343412Z" fill="url(#paint1_linear)"/>
<path d="M0.215933 0.0945223L0.322517 41.7337C9.6304 41.235 18.5205 37.985 20.8727 31.0772C21.473 29.3433 22.1906 27.6364 23.0227 25.964C23.8511 24.2993 24.8122 22.6783 25.9003 21.1108C30.562 13.1667 39.9841 9.76596 48.7947 5.15709C51.2824 3.81952 53.3662 2.06034 54.8963 0.00608406L0.215933 0.0945223Z" fill="url(#paint2_linear)"/>
<path opacity="0.15" d="M150.566 0.711912C160.713 5.80659 171.23 9.65164 177.068 17.8274C178.416 19.4728 179.641 21.1793 180.739 22.9382C181.851 24.7126 182.859 26.5521 183.74 28.4252C186.197 33.6888 191.71 36.9502 198.012 38.5492L198.004 41.6735C188.696 41.1748 179.806 37.9249 177.454 31.017C176.854 29.2831 176.136 27.5762 175.304 25.9038C174.476 24.2391 173.515 22.6181 172.426 21.0507C167.765 13.1065 158.343 9.70577 149.532 5.0969C147.048 3.75851 144.967 1.99939 143.44 -0.0540966L149.192 -0.0447923C149.633 0.212252 150.089 0.466901 150.566 0.711912Z" fill="white"/>
<path opacity="0.15" d="M47.7704 0.772093C37.6225 5.86677 27.1063 9.71182 21.2679 17.8876C19.9203 19.533 18.6945 21.2395 17.5969 22.9984C16.4849 24.7728 15.4766 26.6122 14.5961 28.4854C12.1393 33.749 6.62606 37.0104 0.323661 38.6094L0.331658 41.7337C9.63954 41.235 18.5297 37.985 20.8819 31.0772C21.4821 29.3433 22.1998 27.6364 23.0318 25.964C23.8602 24.2993 24.8214 22.6783 25.9095 21.1108C30.5711 13.1667 39.9932 9.76595 48.8038 5.15708C51.2882 3.81869 53.3688 2.05957 54.8963 0.00608406L49.1436 0.0153884C48.7031 0.272432 48.2474 0.527081 47.7704 0.772093Z" fill="white"/>
<path d="M59.5023 240.87V243.31H63.0123V244.17H59.5023V247H58.5023V240H63.4423V240.87H59.5023ZM67.264 247.06C66.7373 247.06 66.264 246.943 65.844 246.71C65.424 246.477 65.094 246.157 64.854 245.75C64.6207 245.337 64.504 244.87 64.504 244.35C64.504 243.83 64.6207 243.367 64.854 242.96C65.094 242.547 65.424 242.227 65.844 242C66.264 241.767 66.7373 241.65 67.264 241.65C67.7907 241.65 68.2607 241.767 68.674 242C69.094 242.227 69.4207 242.547 69.654 242.96C69.894 243.367 70.014 243.83 70.014 244.35C70.014 244.87 69.894 245.337 69.654 245.75C69.4207 246.157 69.094 246.477 68.674 246.71C68.2607 246.943 67.7907 247.06 67.264 247.06ZM67.264 246.22C67.604 246.22 67.9073 246.143 68.174 245.99C68.4473 245.83 68.6607 245.61 68.814 245.33C68.9673 245.043 69.044 244.717 69.044 244.35C69.044 243.983 68.9673 243.66 68.814 243.38C68.6607 243.093 68.4473 242.873 68.174 242.72C67.9073 242.567 67.604 242.49 67.264 242.49C66.924 242.49 66.6173 242.567 66.344 242.72C66.0773 242.873 65.864 243.093 65.704 243.38C65.5507 243.66 65.474 243.983 65.474 244.35C65.474 244.717 65.5507 245.043 65.704 245.33C65.864 245.61 66.0773 245.83 66.344 245.99C66.6173 246.143 66.924 246.22 67.264 246.22ZM76.7316 241.7V247H75.8216V246.2C75.6283 246.473 75.3716 246.687 75.0516 246.84C74.7383 246.987 74.395 247.06 74.0216 247.06C73.315 247.06 72.7583 246.867 72.3516 246.48C71.945 246.087 71.7416 245.51 71.7416 244.75V241.7H72.7016V244.64C72.7016 245.153 72.825 245.543 73.0716 245.81C73.3183 246.07 73.6716 246.2 74.1316 246.2C74.6383 246.2 75.0383 246.047 75.3316 245.74C75.625 245.433 75.7716 245 75.7716 244.44V241.7H76.7316ZM81.8392 241.65C82.5126 241.65 83.0459 241.847 83.4392 242.24C83.8392 242.627 84.0392 243.197 84.0392 243.95V247H83.0792V244.06C83.0792 243.547 82.9559 243.16 82.7092 242.9C82.4626 242.64 82.1092 242.51 81.6492 242.51C81.1292 242.51 80.7192 242.663 80.4192 242.97C80.1192 243.27 79.9692 243.703 79.9692 244.27V247H79.0092V241.7H79.9292V242.5C80.1226 242.227 80.3826 242.017 80.7092 241.87C81.0426 241.723 81.4192 241.65 81.8392 241.65ZM91.2952 239.58V247H90.3752V246.16C90.1618 246.453 89.8918 246.677 89.5652 246.83C89.2385 246.983 88.8785 247.06 88.4852 247.06C87.9718 247.06 87.5118 246.947 87.1052 246.72C86.6985 246.493 86.3785 246.177 86.1452 245.77C85.9185 245.357 85.8052 244.883 85.8052 244.35C85.8052 243.817 85.9185 243.347 86.1452 242.94C86.3785 242.533 86.6985 242.217 87.1052 241.99C87.5118 241.763 87.9718 241.65 88.4852 241.65C88.8652 241.65 89.2152 241.723 89.5352 241.87C89.8552 242.01 90.1218 242.22 90.3352 242.5V239.58H91.2952ZM88.5652 246.22C88.8985 246.22 89.2018 246.143 89.4752 245.99C89.7485 245.83 89.9618 245.61 90.1152 245.33C90.2685 245.043 90.3452 244.717 90.3452 244.35C90.3452 243.983 90.2685 243.66 90.1152 243.38C89.9618 243.093 89.7485 242.873 89.4752 242.72C89.2018 242.567 88.8985 242.49 88.5652 242.49C88.2252 242.49 87.9185 242.567 87.6452 242.72C87.3785 242.873 87.1652 243.093 87.0052 243.38C86.8518 243.66 86.7752 243.983 86.7752 244.35C86.7752 244.717 86.8518 245.043 87.0052 245.33C87.1652 245.61 87.3785 245.83 87.6452 245.99C87.9185 246.143 88.2252 246.22 88.5652 246.22ZM98.3516 244.38C98.3516 244.453 98.3449 244.55 98.3316 244.67H94.0316C94.0916 245.137 94.2949 245.513 94.6416 245.8C94.9949 246.08 95.4316 246.22 95.9516 246.22C96.5849 246.22 97.0949 246.007 97.4816 245.58L98.0116 246.2C97.7716 246.48 97.4716 246.693 97.1116 246.84C96.7582 246.987 96.3616 247.06 95.9216 247.06C95.3616 247.06 94.8649 246.947 94.4316 246.72C93.9982 246.487 93.6616 246.163 93.4216 245.75C93.1882 245.337 93.0716 244.87 93.0716 244.35C93.0716 243.837 93.1849 243.373 93.4116 242.96C93.6449 242.547 93.9616 242.227 94.3616 242C94.7682 241.767 95.2249 241.65 95.7316 241.65C96.2382 241.65 96.6882 241.767 97.0816 242C97.4816 242.227 97.7916 242.547 98.0116 242.96C98.2382 243.373 98.3516 243.847 98.3516 244.38ZM95.7316 242.46C95.2716 242.46 94.8849 242.6 94.5716 242.88C94.2649 243.16 94.0849 243.527 94.0316 243.98H97.4316C97.3782 243.533 97.1949 243.17 96.8816 242.89C96.5749 242.603 96.1916 242.46 95.7316 242.46ZM101.055 242.59C101.221 242.283 101.468 242.05 101.795 241.89C102.121 241.73 102.518 241.65 102.985 241.65V242.58C102.931 242.573 102.858 242.57 102.765 242.57C102.245 242.57 101.835 242.727 101.535 243.04C101.241 243.347 101.095 243.787 101.095 244.36V247H100.135V241.7H101.055V242.59ZM113.082 247.11L112.152 246.18C111.532 246.78 110.752 247.08 109.812 247.08C109.345 247.08 108.925 247.003 108.552 246.85C108.178 246.697 107.885 246.483 107.672 246.21C107.465 245.93 107.362 245.613 107.362 245.26C107.362 244.833 107.492 244.457 107.752 244.13C108.018 243.797 108.455 243.457 109.062 243.11C108.755 242.803 108.538 242.527 108.412 242.28C108.285 242.033 108.222 241.777 108.222 241.51C108.222 241.037 108.392 240.657 108.732 240.37C109.078 240.083 109.538 239.94 110.112 239.94C110.645 239.94 111.068 240.07 111.382 240.33C111.695 240.59 111.852 240.947 111.852 241.4C111.852 241.753 111.735 242.07 111.502 242.35C111.275 242.63 110.895 242.923 110.362 243.23L112.092 244.95C112.292 244.57 112.435 244.147 112.522 243.68L113.292 243.93C113.172 244.543 112.968 245.077 112.682 245.53L113.622 246.47L113.082 247.11ZM110.112 240.64C109.798 240.64 109.552 240.72 109.372 240.88C109.198 241.033 109.112 241.237 109.112 241.49C109.112 241.67 109.158 241.843 109.252 242.01C109.352 242.177 109.542 242.403 109.822 242.69C110.282 242.43 110.598 242.207 110.772 242.02C110.952 241.833 111.042 241.63 111.042 241.41C111.042 241.177 110.958 240.99 110.792 240.85C110.632 240.71 110.405 240.64 110.112 240.64ZM109.872 246.28C110.565 246.28 111.135 246.06 111.582 245.62L109.592 243.64C109.112 243.907 108.775 244.157 108.582 244.39C108.395 244.617 108.302 244.873 108.302 245.16C108.302 245.493 108.445 245.763 108.732 245.97C109.025 246.177 109.405 246.28 109.872 246.28ZM121.533 247.08C120.833 247.08 120.199 246.927 119.633 246.62C119.073 246.307 118.633 245.88 118.313 245.34C117.993 244.793 117.833 244.18 117.833 243.5C117.833 242.82 117.993 242.21 118.313 241.67C118.633 241.123 119.076 240.697 119.643 240.39C120.209 240.077 120.843 239.92 121.543 239.92C122.089 239.92 122.589 240.013 123.043 240.2C123.496 240.38 123.883 240.65 124.203 241.01L123.553 241.64C123.026 241.087 122.369 240.81 121.583 240.81C121.063 240.81 120.593 240.927 120.173 241.16C119.753 241.393 119.423 241.717 119.183 242.13C118.949 242.537 118.833 242.993 118.833 243.5C118.833 244.007 118.949 244.467 119.183 244.88C119.423 245.287 119.753 245.607 120.173 245.84C120.593 246.073 121.063 246.19 121.583 246.19C122.363 246.19 123.019 245.91 123.553 245.35L124.203 245.98C123.883 246.34 123.493 246.613 123.033 246.8C122.579 246.987 122.079 247.08 121.533 247.08ZM131.159 246.13V247H126.079V240H131.019V240.87H127.079V243.02H130.589V243.87H127.079V246.13H131.159ZM136.359 247.08C135.653 247.08 135.016 246.927 134.449 246.62C133.883 246.307 133.436 245.877 133.109 245.33C132.789 244.783 132.629 244.173 132.629 243.5C132.629 242.827 132.789 242.217 133.109 241.67C133.436 241.123 133.883 240.697 134.449 240.39C135.016 240.077 135.653 239.92 136.359 239.92C137.059 239.92 137.693 240.077 138.259 240.39C138.826 240.697 139.269 241.123 139.589 241.67C139.909 242.21 140.069 242.82 140.069 243.5C140.069 244.18 139.909 244.793 139.589 245.34C139.269 245.88 138.826 246.307 138.259 246.62C137.693 246.927 137.059 247.08 136.359 247.08ZM136.359 246.19C136.873 246.19 137.333 246.073 137.739 245.84C138.153 245.607 138.476 245.287 138.709 244.88C138.949 244.467 139.069 244.007 139.069 243.5C139.069 242.993 138.949 242.537 138.709 242.13C138.476 241.717 138.153 241.393 137.739 241.16C137.333 240.927 136.873 240.81 136.359 240.81C135.846 240.81 135.379 240.927 134.959 241.16C134.546 241.393 134.219 241.717 133.979 242.13C133.746 242.537 133.629 242.993 133.629 243.5C133.629 244.007 133.746 244.467 133.979 244.88C134.219 245.287 134.546 245.607 134.959 245.84C135.379 246.073 135.846 246.19 136.359 246.19ZM67.4367 252.096V254.048H70.2447V254.736H67.4367V257H66.6367V251.4H70.5887V252.096H67.4367ZM73.646 257.048C73.2247 257.048 72.846 256.955 72.51 256.768C72.174 256.581 71.91 256.325 71.718 256C71.5314 255.669 71.438 255.296 71.438 254.88C71.438 254.464 71.5314 254.093 71.718 253.768C71.91 253.437 72.174 253.181 72.51 253C72.846 252.813 73.2247 252.72 73.646 252.72C74.0674 252.72 74.4434 252.813 74.774 253C75.11 253.181 75.3714 253.437 75.558 253.768C75.75 254.093 75.846 254.464 75.846 254.88C75.846 255.296 75.75 255.669 75.558 256C75.3714 256.325 75.11 256.581 74.774 256.768C74.4434 256.955 74.0674 257.048 73.646 257.048ZM73.646 256.376C73.918 256.376 74.1607 256.315 74.374 256.192C74.5927 256.064 74.7634 255.888 74.886 255.664C75.0087 255.435 75.07 255.173 75.07 254.88C75.07 254.587 75.0087 254.328 74.886 254.104C74.7634 253.875 74.5927 253.699 74.374 253.576C74.1607 253.453 73.918 253.392 73.646 253.392C73.374 253.392 73.1287 253.453 72.91 253.576C72.6967 253.699 72.526 253.875 72.398 254.104C72.2754 254.328 72.214 254.587 72.214 254.88C72.214 255.173 72.2754 255.435 72.398 255.664C72.526 255.888 72.6967 256.064 72.91 256.192C73.1287 256.315 73.374 256.376 73.646 256.376ZM78.0042 253.472C78.1375 253.227 78.3348 253.04 78.5962 252.912C78.8575 252.784 79.1748 252.72 79.5482 252.72V253.464C79.5055 253.459 79.4468 253.456 79.3722 253.456C78.9562 253.456 78.6282 253.581 78.3882 253.832C78.1535 254.077 78.0362 254.429 78.0362 254.888V257H77.2682V252.76H78.0042V253.472ZM84.6477 254.904C84.6477 254.963 84.6423 255.04 84.6317 255.136H81.1917C81.2397 255.509 81.4023 255.811 81.6797 256.04C81.9623 256.264 82.3117 256.376 82.7277 256.376C83.2343 256.376 83.6423 256.205 83.9517 255.864L84.3757 256.36C84.1837 256.584 83.9437 256.755 83.6557 256.872C83.373 256.989 83.0557 257.048 82.7037 257.048C82.2557 257.048 81.8583 256.957 81.5117 256.776C81.165 256.589 80.8957 256.331 80.7037 256C80.517 255.669 80.4237 255.296 80.4237 254.88C80.4237 254.469 80.5143 254.099 80.6957 253.768C80.8823 253.437 81.1357 253.181 81.4557 253C81.781 252.813 82.1463 252.72 82.5517 252.72C82.957 252.72 83.317 252.813 83.6317 253C83.9517 253.181 84.1997 253.437 84.3757 253.768C84.557 254.099 84.6477 254.477 84.6477 254.904ZM82.5517 253.368C82.1837 253.368 81.8743 253.48 81.6237 253.704C81.3783 253.928 81.2343 254.221 81.1917 254.584H83.9117C83.869 254.227 83.7223 253.936 83.4717 253.712C83.2263 253.483 82.9197 253.368 82.5517 253.368ZM86.0741 252.76H86.8421V257H86.0741V252.76ZM86.4581 251.944C86.3088 251.944 86.1834 251.896 86.0821 251.8C85.9861 251.704 85.9381 251.587 85.9381 251.448C85.9381 251.309 85.9861 251.192 86.0821 251.096C86.1834 250.995 86.3088 250.944 86.4581 250.944C86.6074 250.944 86.7301 250.992 86.8261 251.088C86.9274 251.179 86.9781 251.293 86.9781 251.432C86.9781 251.576 86.9274 251.699 86.8261 251.8C86.7301 251.896 86.6074 251.944 86.4581 251.944ZM92.7245 252.76V256.424C92.7245 257.165 92.5405 257.712 92.1725 258.064C91.8045 258.421 91.2551 258.6 90.5245 258.6C90.1245 258.6 89.7431 258.544 89.3805 258.432C89.0178 258.325 88.7245 258.171 88.5005 257.968L88.8685 257.376C89.0658 257.547 89.3085 257.68 89.5965 257.776C89.8898 257.877 90.1911 257.928 90.5005 257.928C90.9965 257.928 91.3618 257.811 91.5965 257.576C91.8365 257.341 91.9565 256.984 91.9565 256.504V256.168C91.7751 256.387 91.5511 256.552 91.2845 256.664C91.0231 256.771 90.7378 256.824 90.4285 256.824C90.0231 256.824 89.6551 256.739 89.3245 256.568C88.9991 256.392 88.7431 256.149 88.5565 255.84C88.3698 255.525 88.2765 255.168 88.2765 254.768C88.2765 254.368 88.3698 254.013 88.5565 253.704C88.7431 253.389 88.9991 253.147 89.3245 252.976C89.6551 252.805 90.0231 252.72 90.4285 252.72C90.7485 252.72 91.0445 252.779 91.3165 252.896C91.5938 253.013 91.8205 253.187 91.9965 253.416V252.76H92.7245ZM90.5165 256.152C90.7938 256.152 91.0418 256.093 91.2605 255.976C91.4845 255.859 91.6578 255.696 91.7805 255.488C91.9085 255.275 91.9725 255.035 91.9725 254.768C91.9725 254.357 91.8365 254.027 91.5645 253.776C91.2925 253.52 90.9431 253.392 90.5165 253.392C90.0845 253.392 89.7325 253.52 89.4605 253.776C89.1885 254.027 89.0525 254.357 89.0525 254.768C89.0525 255.035 89.1138 255.275 89.2365 255.488C89.3645 255.696 89.5378 255.859 89.7565 255.976C89.9805 256.093 90.2338 256.152 90.5165 256.152ZM96.8159 252.72C97.3546 252.72 97.7812 252.877 98.0959 253.192C98.4159 253.501 98.5759 253.957 98.5759 254.56V257H97.8079V254.648C97.8079 254.237 97.7092 253.928 97.5119 253.72C97.3146 253.512 97.0319 253.408 96.6639 253.408C96.2479 253.408 95.9199 253.531 95.6799 253.776C95.4399 254.016 95.3199 254.363 95.3199 254.816V257H94.5519V252.76H95.2879V253.4C95.4426 253.181 95.6506 253.013 95.9119 252.896C96.1786 252.779 96.4799 252.72 96.8159 252.72ZM104.41 252.72C104.996 252.72 105.444 252.864 105.754 253.152C106.068 253.44 106.226 253.869 106.226 254.44V257H105.498V256.44C105.37 256.637 105.186 256.789 104.946 256.896C104.711 256.997 104.431 257.048 104.106 257.048C103.631 257.048 103.25 256.933 102.962 256.704C102.679 256.475 102.538 256.173 102.538 255.8C102.538 255.427 102.674 255.128 102.946 254.904C103.218 254.675 103.65 254.56 104.242 254.56H105.458V254.408C105.458 254.077 105.362 253.824 105.17 253.648C104.978 253.472 104.695 253.384 104.322 253.384C104.071 253.384 103.826 253.427 103.586 253.512C103.346 253.592 103.143 253.701 102.978 253.84L102.658 253.264C102.876 253.088 103.138 252.955 103.442 252.864C103.746 252.768 104.068 252.72 104.41 252.72ZM104.234 256.456C104.527 256.456 104.78 256.392 104.994 256.264C105.207 256.131 105.362 255.944 105.458 255.704V255.112H104.274C103.623 255.112 103.298 255.331 103.298 255.768C103.298 255.981 103.38 256.149 103.546 256.272C103.711 256.395 103.94 256.456 104.234 256.456ZM112.03 251.064V257H111.294V256.328C111.124 256.563 110.908 256.741 110.646 256.864C110.385 256.987 110.097 257.048 109.782 257.048C109.372 257.048 109.004 256.957 108.678 256.776C108.353 256.595 108.097 256.341 107.91 256.016C107.729 255.685 107.638 255.307 107.638 254.88C107.638 254.453 107.729 254.077 107.91 253.752C108.097 253.427 108.353 253.173 108.678 252.992C109.004 252.811 109.372 252.72 109.782 252.72C110.086 252.72 110.366 252.779 110.622 252.896C110.878 253.008 111.092 253.176 111.262 253.4V251.064H112.03ZM109.846 256.376C110.113 256.376 110.356 256.315 110.574 256.192C110.793 256.064 110.964 255.888 111.086 255.664C111.209 255.435 111.27 255.173 111.27 254.88C111.27 254.587 111.209 254.328 111.086 254.104C110.964 253.875 110.793 253.699 110.574 253.576C110.356 253.453 110.113 253.392 109.846 253.392C109.574 253.392 109.329 253.453 109.11 253.576C108.897 253.699 108.726 253.875 108.598 254.104C108.476 254.328 108.414 254.587 108.414 254.88C108.414 255.173 108.476 255.435 108.598 255.664C108.726 255.888 108.897 256.064 109.11 256.192C109.329 256.315 109.574 256.376 109.846 256.376ZM119.147 252.72C119.681 252.72 120.102 252.875 120.411 253.184C120.726 253.493 120.883 253.952 120.883 254.56V257H120.115V254.648C120.115 254.237 120.019 253.928 119.827 253.72C119.641 253.512 119.371 253.408 119.019 253.408C118.63 253.408 118.321 253.531 118.091 253.776C117.862 254.016 117.747 254.363 117.747 254.816V257H116.979V254.648C116.979 254.237 116.883 253.928 116.691 253.72C116.505 253.512 116.235 253.408 115.883 253.408C115.494 253.408 115.185 253.531 114.955 253.776C114.726 254.016 114.611 254.363 114.611 254.816V257H113.843V252.76H114.579V253.392C114.734 253.173 114.937 253.008 115.187 252.896C115.438 252.779 115.723 252.72 116.043 252.72C116.374 252.72 116.667 252.787 116.923 252.92C117.179 253.053 117.377 253.248 117.515 253.504C117.675 253.259 117.897 253.067 118.179 252.928C118.467 252.789 118.79 252.72 119.147 252.72ZM122.657 252.76H123.425V257H122.657V252.76ZM123.041 251.944C122.891 251.944 122.766 251.896 122.665 251.8C122.569 251.704 122.521 251.587 122.521 251.448C122.521 251.309 122.569 251.192 122.665 251.096C122.766 250.995 122.891 250.944 123.041 250.944C123.19 250.944 123.313 250.992 123.409 251.088C123.51 251.179 123.561 251.293 123.561 251.432C123.561 251.576 123.51 251.699 123.409 251.8C123.313 251.896 123.19 251.944 123.041 251.944ZM127.635 256.752C127.523 256.848 127.384 256.923 127.219 256.976C127.054 257.024 126.883 257.048 126.707 257.048C126.28 257.048 125.95 256.933 125.715 256.704C125.48 256.475 125.363 256.147 125.363 255.72V253.392H124.643V252.76H125.363V251.832H126.131V252.76H127.347V253.392H126.131V255.688C126.131 255.917 126.187 256.093 126.299 256.216C126.416 256.339 126.582 256.4 126.795 256.4C127.03 256.4 127.23 256.333 127.395 256.2L127.635 256.752ZM130.139 257.048C129.793 257.048 129.459 257.003 129.139 256.912C128.819 256.816 128.569 256.696 128.387 256.552L128.707 255.944C128.894 256.077 129.121 256.184 129.387 256.264C129.654 256.344 129.923 256.384 130.195 256.384C130.867 256.384 131.203 256.192 131.203 255.808C131.203 255.68 131.158 255.579 131.067 255.504C130.977 255.429 130.862 255.376 130.723 255.344C130.59 255.307 130.398 255.267 130.147 255.224C129.806 255.171 129.526 255.109 129.307 255.04C129.094 254.971 128.91 254.853 128.755 254.688C128.601 254.523 128.523 254.291 128.523 253.992C128.523 253.608 128.683 253.301 129.003 253.072C129.323 252.837 129.753 252.72 130.291 252.72C130.574 252.72 130.857 252.755 131.139 252.824C131.422 252.893 131.654 252.987 131.835 253.104L131.507 253.712C131.161 253.488 130.753 253.376 130.283 253.376C129.958 253.376 129.71 253.429 129.539 253.536C129.369 253.643 129.283 253.784 129.283 253.96C129.283 254.099 129.331 254.208 129.427 254.288C129.523 254.368 129.641 254.427 129.779 254.464C129.923 254.501 130.123 254.544 130.379 254.592C130.721 254.651 130.995 254.715 131.203 254.784C131.417 254.848 131.598 254.96 131.747 255.12C131.897 255.28 131.971 255.504 131.971 255.792C131.971 256.176 131.806 256.483 131.475 256.712C131.15 256.936 130.705 257.048 130.139 257.048ZM92.7499 265.4C93.4753 265.4 94.0459 265.573 94.4619 265.92C94.8779 266.267 95.0859 266.744 95.0859 267.352C95.0859 267.96 94.8779 268.437 94.4619 268.784C94.0459 269.131 93.4753 269.304 92.7499 269.304H91.3659V271H90.5659V265.4H92.7499ZM92.7259 268.608C93.2326 268.608 93.6193 268.501 93.8859 268.288C94.1526 268.069 94.2859 267.757 94.2859 267.352C94.2859 266.947 94.1526 266.637 93.8859 266.424C93.6193 266.205 93.2326 266.096 92.7259 266.096H91.3659V268.608H92.7259ZM98.8514 266.72C99.39 266.72 99.8167 266.877 100.131 267.192C100.451 267.501 100.611 267.957 100.611 268.56V271H99.8434V268.648C99.8434 268.237 99.7447 267.928 99.5474 267.72C99.35 267.512 99.0674 267.408 98.6994 267.408C98.2834 267.408 97.9554 267.531 97.7154 267.776C97.4754 268.016 97.3554 268.363 97.3554 268.816V271H96.5874V265.064H97.3554V267.36C97.5154 267.157 97.7234 267 97.9794 266.888C98.2407 266.776 98.5314 266.72 98.8514 266.72ZM102.505 265.4H104.865C105.457 265.4 105.982 265.517 106.441 265.752C106.899 265.987 107.254 266.317 107.505 266.744C107.761 267.165 107.889 267.651 107.889 268.2C107.889 268.749 107.761 269.237 107.505 269.664C107.254 270.085 106.899 270.413 106.441 270.648C105.982 270.883 105.457 271 104.865 271H102.505V265.4ZM104.817 270.304C105.27 270.304 105.667 270.216 106.009 270.04C106.355 269.864 106.622 269.619 106.809 269.304C106.995 268.984 107.089 268.616 107.089 268.2C107.089 267.784 106.995 267.419 106.809 267.104C106.622 266.784 106.355 266.536 106.009 266.36C105.667 266.184 105.27 266.096 104.817 266.096H103.305V270.304H104.817ZM64.6481 281L64.6401 276.92L62.6161 280.32H62.2481L60.2241 276.944V281H59.4561V275.4H60.1121L62.4481 279.336L64.7521 275.4H65.4081L65.4161 281H64.6481ZM69.1607 281.048C68.7394 281.048 68.3607 280.955 68.0247 280.768C67.6887 280.581 67.4247 280.325 67.2327 280C67.0461 279.669 66.9527 279.296 66.9527 278.88C66.9527 278.464 67.0461 278.093 67.2327 277.768C67.4247 277.437 67.6887 277.181 68.0247 277C68.3607 276.813 68.7394 276.72 69.1607 276.72C69.5821 276.72 69.9581 276.813 70.2887 277C70.6247 277.181 70.8861 277.437 71.0727 277.768C71.2647 278.093 71.3607 278.464 71.3607 278.88C71.3607 279.296 71.2647 279.669 71.0727 280C70.8861 280.325 70.6247 280.581 70.2887 280.768C69.9581 280.955 69.5821 281.048 69.1607 281.048ZM69.1607 280.376C69.4327 280.376 69.6754 280.315 69.8887 280.192C70.1074 280.064 70.2781 279.888 70.4007 279.664C70.5234 279.435 70.5847 279.173 70.5847 278.88C70.5847 278.587 70.5234 278.328 70.4007 278.104C70.2781 277.875 70.1074 277.699 69.8887 277.576C69.6754 277.453 69.4327 277.392 69.1607 277.392C68.8887 277.392 68.6434 277.453 68.4247 277.576C68.2114 277.699 68.0407 277.875 67.9127 278.104C67.7901 278.328 67.7287 278.587 67.7287 278.88C67.7287 279.173 67.7901 279.435 67.9127 279.664C68.0407 279.888 68.2114 280.064 68.4247 280.192C68.6434 280.315 68.8887 280.376 69.1607 280.376ZM75.0468 276.72C75.5855 276.72 76.0122 276.877 76.3268 277.192C76.6468 277.501 76.8068 277.957 76.8068 278.56V281H76.0388V278.648C76.0388 278.237 75.9402 277.928 75.7428 277.72C75.5455 277.512 75.2628 277.408 74.8948 277.408C74.4788 277.408 74.1508 277.531 73.9108 277.776C73.6708 278.016 73.5508 278.363 73.5508 278.816V281H72.7828V276.76H73.5188V277.4C73.6735 277.181 73.8815 277.013 74.1428 276.896C74.4095 276.779 74.7108 276.72 75.0468 276.72ZM80.1322 276.72C80.7188 276.72 81.1668 276.864 81.4762 277.152C81.7908 277.44 81.9482 277.869 81.9482 278.44V281H81.2202V280.44C81.0922 280.637 80.9082 280.789 80.6682 280.896C80.4335 280.997 80.1535 281.048 79.8282 281.048C79.3535 281.048 78.9722 280.933 78.6842 280.704C78.4015 280.475 78.2602 280.173 78.2602 279.8C78.2602 279.427 78.3962 279.128 78.6682 278.904C78.9402 278.675 79.3722 278.56 79.9642 278.56H81.1802V278.408C81.1802 278.077 81.0842 277.824 80.8922 277.648C80.7002 277.472 80.4175 277.384 80.0442 277.384C79.7935 277.384 79.5482 277.427 79.3082 277.512C79.0682 277.592 78.8655 277.701 78.7002 277.84L78.3802 277.264C78.5988 277.088 78.8602 276.955 79.1642 276.864C79.4682 276.768 79.7908 276.72 80.1322 276.72ZM79.9562 280.456C80.2495 280.456 80.5028 280.392 80.7162 280.264C80.9295 280.131 81.0842 279.944 81.1802 279.704V279.112H79.9962C79.3455 279.112 79.0202 279.331 79.0202 279.768C79.0202 279.981 79.1028 280.149 79.2682 280.272C79.4335 280.395 79.6628 280.456 79.9562 280.456ZM84.9454 281.048C84.5987 281.048 84.2654 281.003 83.9454 280.912C83.6254 280.816 83.3747 280.696 83.1934 280.552L83.5134 279.944C83.7001 280.077 83.9267 280.184 84.1934 280.264C84.4601 280.344 84.7294 280.384 85.0014 280.384C85.6734 280.384 86.0094 280.192 86.0094 279.808C86.0094 279.68 85.9641 279.579 85.8734 279.504C85.7827 279.429 85.6681 279.376 85.5294 279.344C85.3961 279.307 85.2041 279.267 84.9534 279.224C84.6121 279.171 84.3321 279.109 84.1134 279.04C83.9001 278.971 83.7161 278.853 83.5614 278.688C83.4067 278.523 83.3294 278.291 83.3294 277.992C83.3294 277.608 83.4894 277.301 83.8094 277.072C84.1294 276.837 84.5587 276.72 85.0974 276.72C85.3801 276.72 85.6627 276.755 85.9454 276.824C86.2281 276.893 86.4601 276.987 86.6414 277.104L86.3134 277.712C85.9667 277.488 85.5587 277.376 85.0894 277.376C84.7641 277.376 84.5161 277.429 84.3454 277.536C84.1747 277.643 84.0894 277.784 84.0894 277.96C84.0894 278.099 84.1374 278.208 84.2334 278.288C84.3294 278.368 84.4467 278.427 84.5854 278.464C84.7294 278.501 84.9294 278.544 85.1854 278.592C85.5267 278.651 85.8014 278.715 86.0094 278.784C86.2227 278.848 86.4041 278.96 86.5534 279.12C86.7027 279.28 86.7774 279.504 86.7774 279.792C86.7774 280.176 86.6121 280.483 86.2814 280.712C85.9561 280.936 85.5107 281.048 84.9454 281.048ZM90.3612 276.72C90.8999 276.72 91.3266 276.877 91.6412 277.192C91.9612 277.501 92.1212 277.957 92.1212 278.56V281H91.3532V278.648C91.3532 278.237 91.2546 277.928 91.0572 277.72C90.8599 277.512 90.5772 277.408 90.2092 277.408C89.7932 277.408 89.4652 277.531 89.2252 277.776C88.9852 278.016 88.8652 278.363 88.8652 278.816V281H88.0972V275.064H88.8652V277.36C89.0252 277.157 89.2332 277 89.4892 276.888C89.7506 276.776 90.0412 276.72 90.3612 276.72ZM98.843 281.064C98.0963 281.064 97.515 280.851 97.099 280.424C96.683 279.997 96.475 279.384 96.475 278.584V275.4H97.275V278.552C97.275 279.752 97.8003 280.352 98.851 280.352C99.363 280.352 99.755 280.205 100.027 279.912C100.299 279.613 100.435 279.16 100.435 278.552V275.4H101.211V278.584C101.211 279.389 101.003 280.005 100.587 280.432C100.171 280.853 99.5896 281.064 98.843 281.064ZM105.363 276.72C105.902 276.72 106.328 276.877 106.643 277.192C106.963 277.501 107.123 277.957 107.123 278.56V281H106.355V278.648C106.355 278.237 106.256 277.928 106.059 277.72C105.862 277.512 105.579 277.408 105.211 277.408C104.795 277.408 104.467 277.531 104.227 277.776C103.987 278.016 103.867 278.363 103.867 278.816V281H103.099V276.76H103.835V277.4C103.99 277.181 104.198 277.013 104.459 276.896C104.726 276.779 105.027 276.72 105.363 276.72ZM108.904 276.76H109.672V281H108.904V276.76ZM109.288 275.944C109.139 275.944 109.014 275.896 108.912 275.8C108.816 275.704 108.768 275.587 108.768 275.448C108.768 275.309 108.816 275.192 108.912 275.096C109.014 274.995 109.139 274.944 109.288 274.944C109.438 274.944 109.56 274.992 109.656 275.088C109.758 275.179 109.808 275.293 109.808 275.432C109.808 275.576 109.758 275.699 109.656 275.8C109.56 275.896 109.438 275.944 109.288 275.944ZM115.251 276.76L113.395 281H112.611L110.755 276.76H111.555L113.011 280.16L114.499 276.76H115.251ZM120.042 278.904C120.042 278.963 120.037 279.04 120.026 279.136H116.586C116.634 279.509 116.797 279.811 117.074 280.04C117.357 280.264 117.706 280.376 118.122 280.376C118.629 280.376 119.037 280.205 119.346 279.864L119.77 280.36C119.578 280.584 119.338 280.755 119.05 280.872C118.768 280.989 118.45 281.048 118.098 281.048C117.65 281.048 117.253 280.957 116.906 280.776C116.56 280.589 116.29 280.331 116.098 280C115.912 279.669 115.818 279.296 115.818 278.88C115.818 278.469 115.909 278.099 116.09 277.768C116.277 277.437 116.53 277.181 116.85 277C117.176 276.813 117.541 276.72 117.946 276.72C118.352 276.72 118.712 276.813 119.026 277C119.346 277.181 119.594 277.437 119.77 277.768C119.952 278.099 120.042 278.477 120.042 278.904ZM117.946 277.368C117.578 277.368 117.269 277.48 117.018 277.704C116.773 277.928 116.629 278.221 116.586 278.584H119.306C119.264 278.227 119.117 277.936 118.866 277.712C118.621 277.483 118.314 277.368 117.946 277.368ZM122.205 277.472C122.338 277.227 122.535 277.04 122.797 276.912C123.058 276.784 123.375 276.72 123.749 276.72V277.464C123.706 277.459 123.647 277.456 123.573 277.456C123.157 277.456 122.829 277.581 122.589 277.832C122.354 278.077 122.237 278.429 122.237 278.888V281H121.469V276.76H122.205V277.472ZM126.303 281.048C125.956 281.048 125.623 281.003 125.303 280.912C124.983 280.816 124.732 280.696 124.551 280.552L124.871 279.944C125.057 280.077 125.284 280.184 125.551 280.264C125.817 280.344 126.087 280.384 126.359 280.384C127.031 280.384 127.367 280.192 127.367 279.808C127.367 279.68 127.321 279.579 127.231 279.504C127.14 279.429 127.025 279.376 126.887 279.344C126.753 279.307 126.561 279.267 126.311 279.224C125.969 279.171 125.689 279.109 125.471 279.04C125.257 278.971 125.073 278.853 124.919 278.688C124.764 278.523 124.687 278.291 124.687 277.992C124.687 277.608 124.847 277.301 125.167 277.072C125.487 276.837 125.916 276.72 126.455 276.72C126.737 276.72 127.02 276.755 127.303 276.824C127.585 276.893 127.817 276.987 127.999 277.104L127.671 277.712C127.324 277.488 126.916 277.376 126.447 277.376C126.121 277.376 125.873 277.429 125.703 277.536C125.532 277.643 125.447 277.784 125.447 277.96C125.447 278.099 125.495 278.208 125.591 278.288C125.687 278.368 125.804 278.427 125.943 278.464C126.087 278.501 126.287 278.544 126.543 278.592C126.884 278.651 127.159 278.715 127.367 278.784C127.58 278.848 127.761 278.96 127.911 279.12C128.06 279.28 128.135 279.504 128.135 279.792C128.135 280.176 127.969 280.483 127.639 280.712C127.313 280.936 126.868 281.048 126.303 281.048ZM129.454 276.76H130.222V281H129.454V276.76ZM129.838 275.944C129.689 275.944 129.564 275.896 129.462 275.8C129.366 275.704 129.318 275.587 129.318 275.448C129.318 275.309 129.366 275.192 129.462 275.096C129.564 274.995 129.689 274.944 129.838 274.944C129.988 274.944 130.11 274.992 130.206 275.088C130.308 275.179 130.358 275.293 130.358 275.432C130.358 275.576 130.308 275.699 130.206 275.8C130.11 275.896 129.988 275.944 129.838 275.944ZM134.433 280.752C134.321 280.848 134.182 280.923 134.017 280.976C133.851 281.024 133.681 281.048 133.505 281.048C133.078 281.048 132.747 280.933 132.513 280.704C132.278 280.475 132.161 280.147 132.161 279.72V277.392H131.441V276.76H132.161V275.832H132.929V276.76H134.145V277.392H132.929V279.688C132.929 279.917 132.985 280.093 133.097 280.216C133.214 280.339 133.379 280.4 133.593 280.4C133.827 280.4 134.027 280.333 134.193 280.2L134.433 280.752ZM139.395 276.76L137.339 281.424C137.158 281.856 136.944 282.16 136.699 282.336C136.459 282.512 136.168 282.6 135.827 282.6C135.619 282.6 135.416 282.565 135.219 282.496C135.027 282.432 134.867 282.336 134.739 282.208L135.067 281.632C135.286 281.84 135.539 281.944 135.827 281.944C136.014 281.944 136.168 281.893 136.291 281.792C136.419 281.696 136.534 281.528 136.635 281.288L136.771 280.992L134.899 276.76H135.699L137.179 280.152L138.643 276.76H139.395Z" fill="white"/>
<path d="M56.5901 227L56.5781 221.432L53.8181 226.04H53.1221L50.3621 221.504V227H48.8741V218.6H50.1581L53.4941 224.168L56.7701 218.6H58.0541L58.0661 227H56.5901ZM65.831 227L64.115 224.54C64.043 224.548 63.935 224.552 63.791 224.552H61.895V227H60.335V218.6H63.791C64.519 218.6 65.151 218.72 65.687 218.96C66.231 219.2 66.647 219.544 66.935 219.992C67.223 220.44 67.367 220.972 67.367 221.588C67.367 222.22 67.211 222.764 66.899 223.22C66.595 223.676 66.155 224.016 65.579 224.24L67.511 227H65.831ZM65.795 221.588C65.795 221.052 65.619 220.64 65.267 220.352C64.915 220.064 64.399 219.92 63.719 219.92H61.895V223.268H63.719C64.399 223.268 64.915 223.124 65.267 222.836C65.619 222.54 65.795 222.124 65.795 221.588ZM69.4484 227.084C69.1764 227.084 68.9444 226.992 68.7524 226.808C68.5604 226.616 68.4644 226.376 68.4644 226.088C68.4644 225.792 68.5564 225.552 68.7404 225.368C68.9324 225.184 69.1684 225.092 69.4484 225.092C69.7284 225.092 69.9604 225.184 70.1444 225.368C70.3364 225.552 70.4324 225.792 70.4324 226.088C70.4324 226.376 70.3364 226.616 70.1444 226.808C69.9524 226.992 69.7204 227.084 69.4484 227.084ZM82.8225 218.6V227H81.5385L76.9065 221.312V227H75.3585V218.6H76.6425L81.2745 224.288V218.6H82.8225ZM85.0733 218.6H86.6333V227H85.0733V218.6ZM91.7973 223.484L90.4653 224.852V227H88.9053V218.6H90.4653V222.908L94.6173 218.6H96.3693L92.8413 222.356L96.5853 227H94.7613L91.7973 223.484ZM105.112 218.6V227H103.552V223.4H99.2075V227H97.6475V218.6H99.2075V222.068H103.552V218.6H105.112ZM107.362 218.6H108.922V227H107.362V218.6ZM111.194 218.6H112.754V225.68H117.146V227H111.194V218.6ZM123.002 227.12C122.466 227.12 121.97 227.016 121.514 226.808C121.066 226.592 120.698 226.292 120.41 225.908L121.298 224.84C121.762 225.48 122.318 225.8 122.966 225.8C123.838 225.8 124.274 225.284 124.274 224.252V219.908H121.286V218.6H125.834V224.168C125.834 225.152 125.594 225.892 125.114 226.388C124.634 226.876 123.93 227.12 123.002 227.12ZM133.295 225.056H129.095L128.267 227H126.659L130.439 218.6H131.975L135.767 227H134.135L133.295 225.056ZM132.779 223.832L131.195 220.16L129.623 223.832H132.779ZM136.835 218.6H138.395V227H136.835V218.6ZM148.131 218.6V227H146.847L142.215 221.312V227H140.667V218.6H141.951L146.583 224.288V218.6H148.131Z" fill="url(#paint3_linear)"/>
<path d="M197.734 341.599L197.627 300C188.329 300.498 179.447 303.745 177.097 310.646C176.497 312.378 175.78 314.084 174.949 315.754C174.122 317.418 173.161 319.037 172.074 320.603C167.417 328.539 158.004 331.937 149.202 336.541C146.717 337.877 144.635 339.635 143.106 341.687L197.734 341.599Z" fill="url(#paint4_linear)"/>
<path d="M-0.999522 341.599L-0.89304 300C8.40582 300.498 17.2873 303.745 19.6373 310.646C20.2369 312.378 20.9539 314.084 21.7851 315.754C22.6127 317.418 23.5729 319.037 24.66 320.603C29.3171 328.539 38.7301 331.937 47.5322 336.541C50.0174 337.877 52.0992 339.635 53.6279 341.687L-0.999522 341.599Z" fill="url(#paint5_linear)"/>
<path opacity="0.15" d="M150.226 340.922C160.364 335.832 170.87 331.991 176.702 323.823C178.049 322.179 179.273 320.474 180.37 318.717C181.481 316.945 182.488 315.107 183.368 313.236C185.822 307.977 191.33 304.719 197.626 303.121L197.618 300C188.319 300.498 179.438 303.745 177.088 310.646C176.488 312.378 175.771 314.084 174.94 315.754C174.113 317.418 173.152 319.037 172.065 320.603C167.408 328.539 157.995 331.937 149.193 336.541C146.711 337.878 144.633 339.636 143.106 341.687L148.854 341.678C149.294 341.421 149.749 341.167 150.226 340.922Z" fill="white"/>
<path opacity="0.15" d="M46.5089 340.922C36.3708 335.832 25.8648 331.991 20.0321 323.823C18.6857 322.179 17.4611 320.474 16.3646 318.717C15.2537 316.945 14.2464 315.107 13.3667 313.236C10.9123 307.977 5.40439 304.719 -0.891907 303.121L-0.883917 300C8.41494 300.498 17.2964 303.745 19.6464 310.646C20.246 312.378 20.963 314.084 21.7942 315.754C22.6218 317.418 23.5821 319.037 24.6691 320.603C29.3262 328.539 38.7392 331.937 47.5413 336.541C50.0232 337.878 52.1019 339.636 53.6279 341.687L47.8807 341.678C47.4407 341.421 46.9854 341.167 46.5089 340.922Z" fill="white"/>
<g clip-path="url(#clip1)">
<path d="M39.9878 35.2541C39.2172 35.2541 38.5928 34.6297 38.5928 33.8591V24.0277C38.5928 23.2571 39.2172 22.6327 39.9878 22.6327H49.8192C50.5898 22.6327 51.2142 23.2571 51.2142 24.0277C51.2142 24.7983 50.5898 25.4227 49.8192 25.4227H41.3828V33.8591C41.3828 34.6297 40.7583 35.2541 39.9878 35.2541Z" fill="url(#paint6_linear)"/>
</g>
<g clip-path="url(#clip2)">
<path d="M157.069 34.9536C157.839 34.9536 158.464 34.3292 158.464 33.5586V23.7272C158.464 22.9566 157.839 22.3322 157.069 22.3322H147.237C146.467 22.3322 145.842 22.9566 145.842 23.7272C145.842 24.4977 146.467 25.1222 147.237 25.1222H155.674V33.5586C155.674 34.3292 156.298 34.9536 157.069 34.9536Z" fill="url(#paint7_linear)"/>
</g>
<g clip-path="url(#clip3)">
<path d="M39.688 194.572C38.9174 194.572 38.293 195.196 38.293 195.967V205.798C38.293 206.569 38.9174 207.193 39.688 207.193H49.5194C50.29 207.193 50.9144 206.569 50.9144 205.798C50.9144 205.028 50.29 204.403 49.5194 204.403H41.083V195.967C41.083 195.196 40.4585 194.572 39.688 194.572Z" fill="url(#paint8_linear)"/>
</g>
<g clip-path="url(#clip4)">
<path d="M157.369 194.873C158.139 194.873 158.764 195.497 158.764 196.268V206.099C158.764 206.87 158.139 207.494 157.369 207.494H147.537C146.767 207.494 146.142 206.87 146.142 206.099C146.142 205.329 146.767 204.704 147.537 204.704H155.974V196.268C155.974 195.497 156.598 194.873 157.369 194.873Z" fill="url(#paint9_linear)"/>
</g>
<g clip-path="url(#clip5)">
<path d="M103.757 318.857H93.6341C92.963 318.857 92.3193 319.124 91.8447 319.598C91.3701 320.073 91.1035 320.717 91.1035 321.388V331.51C91.1035 332.182 91.3701 332.825 91.8447 333.3C92.3193 333.774 92.963 334.041 93.6341 334.041H103.757C104.428 334.041 105.071 333.774 105.546 333.3C106.021 332.825 106.287 332.182 106.287 331.51V321.388C106.287 320.717 106.021 320.073 105.546 319.598C105.071 319.124 104.428 318.857 103.757 318.857V318.857ZM105.022 331.51C105.022 331.846 104.889 332.168 104.651 332.405C104.414 332.642 104.092 332.776 103.757 332.776H93.6341C93.2985 332.776 92.9767 332.642 92.7394 332.405C92.5021 332.168 92.3688 331.846 92.3688 331.51V321.388C92.3688 321.052 92.5021 320.73 92.7394 320.493C92.9767 320.256 93.2985 320.123 93.6341 320.123H103.757C104.092 320.123 104.414 320.256 104.651 320.493C104.889 320.73 105.022 321.052 105.022 321.388V331.51Z" fill="url(#paint10_linear)"/>
<path d="M98.6953 322.653C97.9446 322.653 97.2107 322.876 96.5864 323.293C95.9622 323.71 95.4757 324.303 95.1884 324.997C94.9011 325.69 94.8259 326.453 94.9724 327.19C95.1188 327.926 95.4803 328.602 96.0112 329.133C96.5421 329.664 97.2185 330.026 97.9548 330.172C98.6911 330.319 99.4544 330.244 100.148 329.956C100.842 329.669 101.434 329.182 101.852 328.558C102.269 327.934 102.491 327.2 102.491 326.449C102.491 325.442 102.091 324.477 101.379 323.765C100.668 323.053 99.7021 322.653 98.6953 322.653ZM98.6953 328.98C98.1948 328.98 97.7056 328.831 97.2894 328.553C96.8732 328.275 96.5489 327.88 96.3574 327.418C96.1658 326.955 96.1157 326.446 96.2133 325.956C96.311 325.465 96.552 325.014 96.9059 324.66C97.2598 324.306 97.7107 324.065 98.2016 323.967C98.6925 323.87 99.2014 323.92 99.6638 324.111C100.126 324.303 100.521 324.627 100.799 325.043C101.078 325.459 101.226 325.949 101.226 326.449C101.226 327.12 100.959 327.764 100.485 328.239C100.01 328.713 99.3665 328.98 98.6953 328.98Z" fill="url(#paint11_linear)"/>
<path d="M102.807 323.286C103.331 323.286 103.756 322.861 103.756 322.337C103.756 321.813 103.331 321.388 102.807 321.388C102.283 321.388 101.858 321.813 101.858 322.337C101.858 322.861 102.283 323.286 102.807 323.286Z" fill="url(#paint12_linear)"/>
</g>
<g clip-path="url(#clip6)">
<path d="M82.8757 334.041V334.04H82.8795V328.472C82.8795 325.747 82.293 323.649 79.1082 323.649C77.5772 323.649 76.5498 324.489 76.1303 325.285H76.0861V323.903H73.0664V334.04H76.2107V329.021C76.2107 327.699 76.4612 326.421 78.0979 326.421C79.7105 326.421 79.7346 327.929 79.7346 329.105V334.041H82.8757Z" fill="url(#paint13_linear)"/>
<path d="M67.9453 323.904H71.0934V334.041H67.9453V323.904Z" fill="url(#paint14_linear)"/>
<path d="M69.5186 318.857C68.5121 318.857 67.6953 319.674 67.6953 320.681C67.6953 321.687 68.5121 322.521 69.5186 322.521C70.5252 322.521 71.3419 321.687 71.3419 320.681C71.3413 319.674 70.5245 318.857 69.5186 318.857V318.857Z" fill="url(#paint15_linear)"/>
</g>
<g clip-path="url(#clip7)">
<path d="M130.072 321.388H116.666C115.478 321.388 114.512 322.316 114.512 323.456V332.161C114.512 333.302 115.478 334.229 116.666 334.229H130.072C131.26 334.229 132.226 333.302 132.226 332.161V323.456C132.226 322.316 131.26 321.388 130.072 321.388ZM129.04 322.082L123.364 326.486L117.688 322.082H129.04ZM129.324 333.535H117.404V325.43L123.137 329.863C123.27 329.966 123.458 329.966 123.591 329.863L129.324 325.43V333.535H129.324ZM131.503 332.161C131.503 332.919 130.861 333.535 130.072 333.535H130.047V324.705C130.047 324.571 129.967 324.449 129.842 324.392C129.716 324.334 129.567 324.351 129.459 324.434L123.364 329.148L117.269 324.434C117.161 324.351 117.012 324.334 116.886 324.392C116.761 324.449 116.681 324.571 116.681 324.705V333.535H116.666C115.877 333.535 115.235 332.919 115.235 332.161V323.456C115.235 322.737 115.812 322.146 116.545 322.087L123.137 327.202C123.203 327.254 123.284 327.28 123.364 327.28C123.444 327.28 123.525 327.254 123.591 327.202L130.184 322.087C130.921 322.142 131.503 322.734 131.503 323.456V332.161Z" fill="url(#paint16_linear)"/>
</g>
<path d="M64.6455 311.635C64.1984 311.635 63.7935 311.538 63.4308 311.344C63.0723 311.146 62.7897 310.874 62.583 310.528C62.3806 310.182 62.2793 309.792 62.2793 309.357C62.2793 308.923 62.3827 308.533 62.5893 308.187C62.796 307.841 63.0786 307.571 63.4371 307.377C63.7998 307.179 64.2047 307.08 64.6518 307.08C65.0145 307.08 65.3456 307.143 65.6451 307.269C65.9445 307.396 66.1976 307.579 66.4042 307.82L65.8728 308.32C65.5523 307.974 65.1579 307.801 64.6898 307.801C64.3861 307.801 64.114 307.868 63.8736 308.003C63.6332 308.134 63.4455 308.318 63.3106 308.554C63.1756 308.79 63.1081 309.058 63.1081 309.357C63.1081 309.657 63.1756 309.925 63.3106 310.161C63.4455 310.397 63.6332 310.582 63.8736 310.717C64.114 310.848 64.3861 310.914 64.6898 310.914C65.1579 310.914 65.5523 310.739 65.8728 310.388L66.4042 310.895C66.1976 311.135 65.9424 311.318 65.6387 311.445C65.3393 311.572 65.0082 311.635 64.6455 311.635ZM69.4531 311.635C69.0018 311.635 68.5948 311.538 68.2321 311.344C67.8693 311.146 67.5847 310.874 67.378 310.528C67.1713 310.178 67.068 309.787 67.068 309.357C67.068 308.927 67.1713 308.539 67.378 308.193C67.5847 307.843 67.8693 307.571 68.2321 307.377C68.5948 307.179 69.0018 307.08 69.4531 307.08C69.9044 307.08 70.3114 307.179 70.6741 307.377C71.0368 307.571 71.3215 307.841 71.5282 308.187C71.7349 308.533 71.8382 308.923 71.8382 309.357C71.8382 309.792 71.7349 310.182 71.5282 310.528C71.3215 310.874 71.0368 311.146 70.6741 311.344C70.3114 311.538 69.9044 311.635 69.4531 311.635ZM69.4531 310.914C69.7483 310.914 70.014 310.848 70.2502 310.717C70.4864 310.582 70.672 310.397 70.807 310.161C70.9419 309.92 71.0094 309.652 71.0094 309.357C71.0094 309.062 70.9419 308.796 70.807 308.56C70.672 308.32 70.4864 308.134 70.2502 308.003C70.014 307.868 69.7483 307.801 69.4531 307.801C69.1579 307.801 68.8921 307.868 68.6559 308.003C68.4198 308.134 68.2342 308.32 68.0992 308.56C67.9642 308.796 67.8968 309.062 67.8968 309.357C67.8968 309.652 67.9642 309.92 68.0992 310.161C68.2342 310.397 68.4198 310.582 68.6559 310.717C68.8921 310.848 69.1579 310.914 69.4531 310.914ZM76.9298 307.143V311.572H76.2528L73.8108 308.573V311.572H72.9947V307.143H73.6716L76.1136 310.142V307.143H76.9298ZM82.3362 307.143V311.572H81.6593L79.2173 308.573V311.572H78.4011V307.143H79.0781L81.5201 310.142V307.143H82.3362ZM87.129 310.882V311.572H83.8076V307.143H87.0405V307.833H84.63V308.984H86.7684V309.661H84.63V310.882H87.129ZM90.3618 311.635C89.9148 311.635 89.5099 311.538 89.1471 311.344C88.7886 311.146 88.5061 310.874 88.2994 310.528C88.0969 310.182 87.9957 309.792 87.9957 309.357C87.9957 308.923 88.099 308.533 88.3057 308.187C88.5124 307.841 88.795 307.571 89.1535 307.377C89.5162 307.179 89.9211 307.08 90.3682 307.08C90.7309 307.08 91.062 307.143 91.3614 307.269C91.6609 307.396 91.9139 307.579 92.1206 307.82L91.5892 308.32C91.2686 307.974 90.8743 307.801 90.4061 307.801C90.1025 307.801 89.8304 307.868 89.59 308.003C89.3496 308.134 89.1619 308.318 89.0269 308.554C88.892 308.79 88.8245 309.058 88.8245 309.357C88.8245 309.657 88.892 309.925 89.0269 310.161C89.1619 310.397 89.3496 310.582 89.59 310.717C89.8304 310.848 90.1025 310.914 90.4061 310.914C90.8743 310.914 91.2686 310.739 91.5892 310.388L92.1206 310.895C91.9139 311.135 91.6588 311.318 91.3551 311.445C91.0556 311.572 90.7246 311.635 90.3618 311.635ZM94.0423 307.839H92.5745V307.143H96.3325V307.839H94.8647V311.572H94.0423V307.839ZM105.74 307.143L104.272 311.572H103.399L102.304 308.294L101.191 311.572H100.311L98.8437 307.143H99.6978L100.799 310.509L101.944 307.143H102.703L103.823 310.528L104.955 307.143H105.74ZM106.694 307.143H107.517V311.572H106.694V307.143ZM109.898 307.839H108.43V307.143H112.188V307.839H110.72V311.572H109.898V307.839ZM117.025 307.143V311.572H116.202V309.674H113.912V311.572H113.09V307.143H113.912V308.971H116.202V307.143H117.025ZM121.428 307.839H119.96V307.143H123.718V307.839H122.25V311.572H121.428V307.839ZM128.555 307.143V311.572H127.733V309.674H125.442V311.572H124.62V307.143H125.442V308.971H127.733V307.143H128.555ZM133.348 310.882V311.572H130.026V307.143H133.259V307.833H130.849V308.984H132.987V309.661H130.849V310.882H133.348ZM138.617 311.572L138.611 308.636L137.156 311.065H136.789L135.334 308.674V311.572H134.549V307.143H135.226L136.985 310.078L138.712 307.143H139.389L139.395 311.572H138.617Z" fill="white"/>
<path d="M121.298 59.1794L120.11 57.9402L121.298 59.1794Z" fill="#2B2924"/>
<path d="M71.0056 82.5358C71.0382 80.5443 71.1819 78.5561 71.4359 76.5805C73.6562 60.4186 87.7355 46.3738 104.775 49.0416C123.02 51.8988 132.073 65.3068 133.88 83.2759C134.5 89.4549 133.398 94.6013 135.189 100.591C137.099 106.994 139.25 113.328 141.006 119.782C144.003 130.005 146.366 140.404 148.08 150.918C148.958 157.27 148.562 165.256 142.796 168.13C140.221 169.14 137.431 169.477 134.689 169.111C116.135 168.216 97.5807 167.097 79.0263 166.443C73.5874 166.237 65.9453 168.543 60.9539 166.443C42.0209 158.646 60.3515 133.466 64.2758 122.553C67.0349 114.884 69.0916 106.98 70.4204 98.9387C71.3843 93.362 70.9023 87.9747 71.0056 82.5358Z" fill="#2B0D04"/>
<path d="M83.4326 125.032C85.7098 119.521 86.5049 113.51 85.739 107.596C84.6719 100.419 114.517 110.247 114.517 110.247C113.822 114.487 113.822 118.812 114.517 123.053C115.739 129.025 100.249 140.471 100.249 140.471L90.042 135.307L88.6134 136.753L83.4326 125.032Z" fill="#DEB09D"/>
<path d="M109.336 73.7406C111.057 72.5358 117.942 69.3515 117.598 66.9763C117.908 69.7474 119.319 72.1399 120.059 74.7216C120.885 77.6649 122.073 80.4704 122.658 83.4997C123.91 89.3471 123.661 95.4164 121.935 101.142C119.996 106.075 116.812 110.422 112.692 113.758L111.849 114.515C109.341 117.056 105.935 118.509 102.365 118.56V77.2518C104.774 76.2584 107.104 75.0847 109.336 73.7406Z" fill="#F9CFB3"/>
<path d="M91.1764 84.3775C94.9114 82.2948 102.226 77.0969 102.433 77.2001V118.508C98.8985 118.434 95.5327 116.983 93.0525 114.464C92.7599 114.223 92.4845 113.965 92.2091 113.706C87.9062 109.851 84.068 105.909 83.1041 100.281C82.9836 99.5411 82.5705 98.6461 81.8132 98.56C79.3519 98.4051 78.1987 94.1366 77.7168 91.5376C81.6067 88.4394 86.8735 86.7183 91.1764 84.3775Z" fill="#E2BBA1"/>
<path d="M94.8255 172.657H103.724L112.984 150.832C113.126 150.495 113.177 150.127 113.131 149.765C113.086 149.402 112.946 149.058 112.726 148.767C109.507 144.567 104.671 140.04 99.2661 138.646C93.8616 140.04 89.0423 144.567 85.8237 148.767C85.5972 149.055 85.4521 149.398 85.4037 149.762C85.3553 150.125 85.4052 150.495 85.5483 150.832L94.8255 172.657Z" fill="#E6E7E8"/>
<path d="M154.999 172.657C154.436 165.001 153.349 157.393 151.746 149.886C149.285 140.66 143.846 138.216 134.792 135.445C133.415 135.032 114.001 130.901 115.24 126.839C111.143 140.253 107.03 153.632 102.899 166.977C102.331 168.87 101.746 170.764 101.178 172.657H154.999Z" fill="#728D96"/>
<path d="M64.2579 172.657H96.9604C96.3752 170.764 95.8072 168.87 95.2392 166.977C91.1198 153.632 87.0005 140.259 82.8811 126.856C82.8811 127.51 74.8088 132.553 73.8621 132.932C70.1272 134.412 66.9774 134.447 63.6211 135.118C65.6693 147.27 64.7743 159.972 64.2579 172.657Z" fill="#647C82"/>
<path d="M92.0393 169.989C92.0051 170.095 92.0051 170.21 92.0393 170.316L92.9516 172.657H105.43L106.342 170.316C106.377 170.21 106.377 170.095 106.342 169.989L101.678 148.836C101.535 148.164 101.632 147.463 101.953 146.856L103.675 143.534C103.715 143.436 103.725 143.328 103.704 143.223C103.682 143.119 103.63 143.024 103.554 142.949L101.73 141.228C101.26 140.827 100.822 140.39 100.422 139.92C100.153 139.394 99.7919 138.922 99.3544 138.526C98.7347 138.113 98.2184 139.076 98.0118 139.507C97.6786 140.082 97.2408 140.59 96.721 141.004L94.69 143.035C94.6138 143.11 94.5616 143.205 94.5401 143.309C94.5187 143.414 94.5289 143.522 94.5695 143.62L96.2907 146.942C96.6075 147.551 96.6989 148.252 96.5488 148.922L92.0393 169.989Z" fill="#3D5872"/>
<path d="M80.4374 133.311L83.8798 123.328L86.6681 128.405C89.835 132.88 96.7714 137.39 99.2155 137.459C101.66 137.527 108.286 133.087 111.763 128.405L114.568 123.328L118.011 133.311C118.054 133.457 118.054 133.612 118.011 133.758L111.625 154.412C111.453 154.98 110.679 158.078 110.317 154.619L106.737 148.405C106.322 147.683 105.838 147.003 105.291 146.374L99.1639 138.732L93.0537 146.374C92.5014 147.002 92.0115 147.683 91.5907 148.405L88.0278 154.619C87.6664 158.061 86.8918 154.98 86.7025 154.412L80.3341 133.758C80.3149 133.601 80.3514 133.443 80.4374 133.311Z" fill="white"/>
<path d="M112.693 172.657C118.287 164.292 123.467 156.805 123.226 156.374L117.34 145.841L125.361 146.701C124.534 144.154 122.693 131.658 120.335 130.402L115.808 126.753L106.169 155.462L101.006 172.674L112.693 172.657Z" fill="#647C82"/>
<path d="M75.3758 156.169C75.1349 156.6 80.1952 164.052 85.7029 172.452H97.5963L92.4328 155.24L82.7941 126.531L78.2674 130.197C75.9266 131.453 74.0677 143.966 73.2588 146.496L81.2623 145.636L75.3758 156.169Z" fill="#728D96"/>
<path d="M66.0651 172.452C65.4944 167.74 65.1899 162.999 65.1528 158.252C65.3917 150.441 64.8788 142.626 63.621 134.913C61.8641 135.255 60.1618 135.834 58.5607 136.634C51.0908 140.335 45.8067 151.918 43.5004 159.44C42.2357 163.73 41.2299 168.093 40.4883 172.504L66.0651 172.452Z" fill="#647C82"/>
<line x1="38.5938" y1="299.561" x2="158.798" y2="299.598" stroke="black" stroke-width="0.632653"/>
</g>
<defs>
<radialGradient id="paint0_radial" cx="0" cy="0" r="1" gradientUnits="userSpaceOnUse" gradientTransform="translate(368.5 99) rotate(90) scale(99 170.5)">
<stop stop-color="#335063"/>
<stop offset="1" stop-color="#1B3342"/>
</radialGradient>
<linearGradient id="paint1_linear" x1="170.673" y1="41.6293" x2="170.741" y2="-0.00994163" gradientUnits="userSpaceOnUse">
<stop stop-color="#379BE7"/>
<stop offset="1" stop-color="#1DE9C4"/>
</linearGradient>
<linearGradient id="paint2_linear" x1="27.6627" y1="41.6895" x2="27.5954" y2="0.0502393" gradientUnits="userSpaceOnUse">
<stop stop-color="#379BE7"/>
<stop offset="1" stop-color="#1DE9C4"/>
</linearGradient>
<linearGradient id="paint3_linear" x1="98.5" y1="215" x2="98.5" y2="229" gradientUnits="userSpaceOnUse">
<stop stop-color="#379BE7"/>
<stop offset="1" stop-color="#1DE9C4"/>
</linearGradient>
<linearGradient id="paint4_linear" x1="170.314" y1="300.044" x2="170.381" y2="341.643" gradientUnits="userSpaceOnUse">
<stop stop-color="#379BE7"/>
<stop offset="1" stop-color="#1DE9C4"/>
</linearGradient>
<linearGradient id="paint5_linear" x1="26.4207" y1="300.044" x2="26.3534" y2="341.643" gradientUnits="userSpaceOnUse">
<stop stop-color="#379BE7"/>
<stop offset="1" stop-color="#1DE9C4"/>
</linearGradient>
<linearGradient id="paint6_linear" x1="44.9035" y1="22.6327" x2="44.9035" y2="35.2541" gradientUnits="userSpaceOnUse">
<stop stop-color="#379BE7"/>
<stop offset="1" stop-color="#1DE9C4"/>
</linearGradient>
<linearGradient id="paint7_linear" x1="152.153" y1="22.3322" x2="152.153" y2="34.9536" gradientUnits="userSpaceOnUse">
<stop stop-color="#379BE7"/>
<stop offset="1" stop-color="#1DE9C4"/>
</linearGradient>
<linearGradient id="paint8_linear" x1="44.6037" y1="207.193" x2="44.6037" y2="194.572" gradientUnits="userSpaceOnUse">
<stop stop-color="#379BE7"/>
<stop offset="1" stop-color="#1DE9C4"/>
</linearGradient>
<linearGradient id="paint9_linear" x1="152.453" y1="207.494" x2="152.453" y2="194.873" gradientUnits="userSpaceOnUse">
<stop stop-color="#379BE7"/>
<stop offset="1" stop-color="#1DE9C4"/>
</linearGradient>
<linearGradient id="paint10_linear" x1="98.6954" y1="318.857" x2="98.6954" y2="334.041" gradientUnits="userSpaceOnUse">
<stop stop-color="#379BE7"/>
<stop offset="1" stop-color="#1DE9C4"/>
</linearGradient>
<linearGradient id="paint11_linear" x1="98.6953" y1="322.653" x2="98.6953" y2="330.245" gradientUnits="userSpaceOnUse">
<stop stop-color="#379BE7"/>
<stop offset="1" stop-color="#1DE9C4"/>
</linearGradient>
<linearGradient id="paint12_linear" x1="102.807" y1="321.388" x2="102.807" y2="323.286" gradientUnits="userSpaceOnUse">
<stop stop-color="#379BE7"/>
<stop offset="1" stop-color="#1DE9C4"/>
</linearGradient>
<linearGradient id="paint13_linear" x1="77.9729" y1="323.649" x2="77.9729" y2="334.041" gradientUnits="userSpaceOnUse">
<stop stop-color="#379BE7"/>
<stop offset="1" stop-color="#1DE9C4"/>
</linearGradient>
<linearGradient id="paint14_linear" x1="69.5194" y1="323.904" x2="69.5194" y2="334.041" gradientUnits="userSpaceOnUse">
<stop stop-color="#379BE7"/>
<stop offset="1" stop-color="#1DE9C4"/>
</linearGradient>
<linearGradient id="paint15_linear" x1="69.5186" y1="318.857" x2="69.5186" y2="322.521" gradientUnits="userSpaceOnUse">
<stop stop-color="#379BE7"/>
<stop offset="1" stop-color="#1DE9C4"/>
</linearGradient>
<linearGradient id="paint16_linear" x1="123.369" y1="321.388" x2="123.369" y2="334.229" gradientUnits="userSpaceOnUse">
<stop stop-color="#379BE7"/>
<stop offset="1" stop-color="#1DE9C4"/>
</linearGradient>
<clipPath id="clip0">
<rect x="198" width="341" height="198" rx="3.06764" transform="rotate(90 198 0)" fill="white"/>
</clipPath>
<clipPath id="clip1">
<rect width="13.2857" height="16.6071" fill="white" transform="translate(37.96 22)"/>
</clipPath>
<clipPath id="clip2">
<rect width="13.2857" height="16.6071" fill="white" transform="matrix(-1 0 0 1 158.795 22.0001)"/>
</clipPath>
<clipPath id="clip3">
<rect width="13.2857" height="16.6071" fill="white" transform="matrix(1 0 0 -1 37.959 207.526)"/>
</clipPath>
<clipPath id="clip4">
<rect width="13.2857" height="16.6071" fill="white" transform="translate(159.097 207.826) rotate(-180)"/>
</clipPath>
<clipPath id="clip5">
<rect width="15.1837" height="15.1837" fill="white" transform="translate(91.1035 318.857)"/>
</clipPath>
<clipPath id="clip6">
<rect width="15.1837" height="15.1837" fill="white" transform="translate(67.6953 318.857)"/>
</clipPath>
<clipPath id="clip7">
<rect width="17.7143" height="12.6531" fill="white" transform="translate(114.512 321.388)"/>
</clipPath>
</defs>
</svg>
