<svg width="125" height="36" viewBox="0 0 125 36" fill="none" xmlns="http://www.w3.org/2000/svg">
<path d="M117.276 23C118.226 22.9576 119.155 22.7456 120.001 22.3778C120.847 22.0101 121.59 21.495 122.183 20.8667C122.775 20.2383 123.203 19.511 123.438 18.7328C123.672 17.9546 123.709 17.1433 123.544 16.3523C123.38 15.5614 123.019 14.8089 122.484 14.1446C121.949 13.4803 121.254 12.9193 120.443 12.4987C119.633 12.0781 118.726 11.8074 117.782 11.7046C116.839 11.6018 115.88 11.6692 114.969 11.9023C114.403 9.94248 113.077 8.19864 111.202 6.948C109.327 5.69737 107.01 5.01175 104.62 5.00015C102.23 4.98855 99.9037 5.65164 98.0115 6.88399C96.1193 8.11633 94.7695 9.8472 94.1768 11.8014C93.2763 11.6298 92.3437 11.6166 91.4369 11.7626C90.5301 11.9086 89.6687 12.2106 88.9063 12.6499C88.1439 13.0893 87.4969 13.6564 87.0056 14.316C86.5143 14.9756 86.1893 15.7135 86.0507 16.4838C85.9122 17.2541 85.9631 18.0402 86.2004 18.7931C86.4376 19.5461 86.8561 20.2497 87.4297 20.8602C88.0032 21.4706 88.7197 21.9748 89.5343 22.3413C90.3489 22.7078 91.2442 22.9288 92.1644 22.9905L117.276 23Z" fill="white" stroke="#1B3342" stroke-width="2.38525" stroke-linejoin="round"/>
<path d="M9.7278 26C8.59378 25.9553 7.48537 25.7314 6.47585 25.3432C5.46633 24.9551 4.57867 24.4114 3.87155 23.7481C3.16442 23.0849 2.65393 22.3172 2.3738 21.4958C2.09367 20.6743 2.05029 19.8179 2.24651 18.983C2.44274 18.1481 2.87411 17.3538 3.51212 16.6526C4.15012 15.9514 4.98023 15.3593 5.94759 14.9153C6.91496 14.4713 7.99756 14.1856 9.12383 14.0771C10.2501 13.9686 11.3944 14.0397 12.4811 14.2858C13.1567 12.2171 14.7394 10.3763 16.9777 9.05623C19.216 7.73612 21.9813 7.0124 24.8339 7.00016C27.6866 6.98791 30.4628 7.68784 32.7213 8.98865C34.9797 10.2895 36.5907 12.1165 37.2982 14.1792C38.3729 13.9981 39.4861 13.9842 40.5684 14.1383C41.6507 14.2924 42.6788 14.6112 43.5888 15.0749C44.4987 15.5387 45.271 16.1373 45.8574 16.8335C46.4437 17.5298 46.8317 18.3087 46.997 19.1218C47.1624 19.9349 47.1016 20.7647 46.8184 21.5594C46.5353 22.3542 46.0358 23.0969 45.3512 23.7413C44.6666 24.3856 43.8115 24.9179 42.8393 25.3047C41.867 25.6916 40.7984 25.9249 39.7001 25.99L9.7278 26Z" fill="white" stroke="#1B3342" stroke-width="2.38525" stroke-linejoin="round"/>
<g filter="url(#filter0_d)">
<path d="M46.0083 26C44.5377 25.9432 43.1005 25.6604 41.7915 25.1702C40.4826 24.6801 39.3315 23.9937 38.4147 23.1565C37.4979 22.3193 36.8361 21.3504 36.4729 20.3136C36.1097 19.2768 36.0535 18.1959 36.3079 17.1422C36.5623 16.0885 37.1217 15.086 37.9489 14.2009C38.7761 13.3158 39.8524 12.5683 41.1068 12.0078C42.3611 11.4473 43.7648 11.0864 45.2252 10.9492C46.6857 10.8119 48.1697 10.9013 49.5791 11.2115C50.4511 8.59702 52.5024 6.26973 55.4063 4.60039C58.3102 2.93106 61.8996 2.01572 65.6027 2.0002C69.3058 1.98468 72.9095 2.86987 75.8397 4.51475C78.7699 6.15963 80.8581 8.46957 81.7716 11.0766C83.1663 10.8469 84.6112 10.8285 86.0162 11.0225C87.4211 11.2165 88.7559 11.6188 89.9374 12.2042C91.1188 12.7896 92.1215 13.5456 92.8829 14.4251C93.6443 15.3045 94.148 16.2885 94.3626 17.3156C94.5772 18.3428 94.4981 19.391 94.1303 20.395C93.7625 21.3989 93.1138 22.337 92.2247 23.1507C91.3356 23.9645 90.2251 24.6364 88.9627 25.1245C87.7003 25.6126 86.3129 25.9065 84.8872 25.9878L46.0083 26Z" fill="white"/>
<path d="M46.0083 26C44.5377 25.9432 43.1005 25.6604 41.7915 25.1702C40.4826 24.6801 39.3315 23.9937 38.4147 23.1565C37.4979 22.3193 36.8361 21.3504 36.4729 20.3136C36.1097 19.2768 36.0535 18.1959 36.3079 17.1422C36.5623 16.0885 37.1217 15.086 37.9489 14.2009C38.7761 13.3158 39.8524 12.5683 41.1068 12.0078C42.3611 11.4473 43.7648 11.0864 45.2252 10.9492C46.6857 10.8119 48.1697 10.9013 49.5791 11.2115C50.4511 8.59702 52.5024 6.26973 55.4063 4.60039C58.3102 2.93106 61.8996 2.01572 65.6027 2.0002C69.3058 1.98468 72.9095 2.86987 75.8397 4.51475C78.7699 6.15963 80.8581 8.46957 81.7716 11.0766C83.1663 10.8469 84.6112 10.8285 86.0162 11.0225C87.4211 11.2165 88.7559 11.6188 89.9374 12.2042C91.1188 12.7896 92.1215 13.5456 92.8829 14.4251C93.6443 15.3045 94.148 16.2885 94.3626 17.3156C94.5772 18.3428 94.4981 19.391 94.1303 20.395C93.7625 21.3989 93.1138 22.337 92.2247 23.1507C91.3356 23.9645 90.2251 24.6364 88.9627 25.1245C87.7003 25.6126 86.3129 25.9065 84.8872 25.9878L46.0083 26Z" stroke="#1B3342" stroke-width="2.38525" stroke-linejoin="round"/>
</g>
<defs>
<filter id="filter0_d" x="30.959" y="0.807373" width="68.7144" height="34.3853" filterUnits="userSpaceOnUse" color-interpolation-filters="sRGB">
<feFlood flood-opacity="0" result="BackgroundImageFix"/>
<feColorMatrix in="SourceAlpha" type="matrix" values="0 0 0 0 0 0 0 0 0 0 0 0 0 0 0 0 0 0 127 0"/>
<feOffset dy="4"/>
<feGaussianBlur stdDeviation="2"/>
<feColorMatrix type="matrix" values="0 0 0 0 0 0 0 0 0 0 0 0 0 0 0 0 0 0 0.25 0"/>
<feBlend mode="normal" in2="BackgroundImageFix" result="effect1_dropShadow"/>
<feBlend mode="normal" in="SourceGraphic" in2="effect1_dropShadow" result="shape"/>
</filter>
</defs>
</svg>
