<svg width="18" height="15" viewBox="0 0 18 15" fill="none" xmlns="http://www.w3.org/2000/svg">
<path d="M16.7247 7.6663C16.7247 8.82473 16.2881 9.95716 15.4705 10.9204C14.6528 11.8836 13.4906 12.6343 12.1308 13.0776C10.7711 13.5209 9.27488 13.6369 7.83139 13.4109C6.38789 13.1849 5.06198 12.6271 4.02127 11.8079C2.98057 10.9888 2.27195 9.94514 1.98482 8.80897C1.6977 7.6728 1.84491 6.49514 2.40813 5.4249C2.97135 4.35465 3.92524 3.43989 5.14898 2.7963C6.37271 2.15272 7.8115 1.8092 9.28327 1.8092C11.2566 1.80984 13.1488 2.42712 14.5442 3.5254C15.9395 4.62369 16.7239 6.11309 16.7247 7.6663Z" fill="white" stroke="#405391" stroke-width="2.38525" stroke-linejoin="round"/>
</svg>
