<svg width="77" height="37" viewBox="0 0 77 37" fill="none" xmlns="http://www.w3.org/2000/svg">
<path d="M63.2654 35C65.135 34.9223 66.9624 34.5335 68.6268 33.8593C70.2911 33.1851 71.7545 32.2408 72.9203 31.0889C74.0861 29.9369 74.9277 28.6035 75.3896 27.1769C75.8514 25.7502 75.9229 24.2626 75.5994 22.8126C75.2759 21.3626 74.5648 19.983 73.5129 18.7651C72.4611 17.5472 71.0925 16.5187 69.4977 15.7476C67.9028 14.9765 66.118 14.4803 64.2612 14.2918C62.4044 14.1033 60.5178 14.2268 58.7262 14.6542C57.6124 11.0612 55.003 7.86417 51.3129 5.57134C47.6228 3.27852 43.0638 2.02154 38.3608 2.00027C33.6578 1.97901 29.0808 3.19467 25.3574 5.45397C21.634 7.71328 18.978 10.8865 17.8117 14.4692C16.0398 14.1546 14.2045 14.1304 12.4202 14.3981C10.6359 14.6657 8.94085 15.2195 7.44067 16.0249C5.94049 16.8303 4.66731 17.87 3.70058 19.0793C2.73386 20.2886 2.09427 21.6415 1.82167 23.0537C1.54907 24.4659 1.6493 25.907 2.11612 27.2874C2.58295 28.6678 3.40638 29.9578 4.53505 31.077C5.66371 32.1961 7.07342 33.1205 8.67635 33.7924C10.2793 34.4644 12.041 34.8695 13.8518 34.9826L63.2654 35Z" fill="white" stroke="#1B3342" stroke-width="2.38525" stroke-linejoin="round"/>
</svg>
