<svg width="1896" height="1391" viewBox="0 0 1896 1391" fill="none" xmlns="http://www.w3.org/2000/svg">
<path d="M26.9759 374.871C-52.6941 552.873 66.4617 751.919 97.4629 803.731C408.2 1322.85 1469.28 1458.8 1789.15 1046.44C1939.1 853.138 1922.31 544.321 1785.63 341.911C1428.19 -187.395 214.178 -43.3738 26.9759 374.871Z" fill="url(#paint0_radial)"/>
<path d="M788.834 487.386C788.835 488.545 788.476 489.678 787.803 490.642C787.13 491.606 786.173 492.357 785.054 492.801C783.934 493.245 782.702 493.361 781.514 493.135C780.325 492.909 779.233 492.351 778.376 491.531C777.519 490.712 776.936 489.667 776.7 488.53C776.463 487.394 776.585 486.215 777.049 485.145C777.513 484.074 778.298 483.159 779.306 482.515C780.314 481.871 781.499 481.528 782.711 481.528C784.335 481.528 785.892 482.146 787.041 483.244C788.189 484.342 788.834 485.832 788.834 487.386Z" fill="white" stroke="#405391" stroke-width="2.38525" stroke-linejoin="round"/>
<path d="M748.46 1144.67C748.46 1145.82 748.101 1146.96 747.428 1147.92C746.755 1148.88 745.799 1149.63 744.68 1150.08C743.561 1150.52 742.33 1150.64 741.142 1150.41C739.954 1150.18 738.863 1149.63 738.006 1148.81C737.15 1147.99 736.567 1146.95 736.331 1145.81C736.094 1144.67 736.215 1143.5 736.679 1142.42C737.142 1141.35 737.927 1140.44 738.934 1139.8C739.941 1139.15 741.125 1138.81 742.337 1138.81C743.96 1138.81 745.518 1139.43 746.666 1140.53C747.814 1141.62 748.46 1143.11 748.46 1144.67V1144.67Z" fill="white" stroke="#405391" stroke-width="2.38525" stroke-linejoin="round"/>
<path d="M1613.64 907.901C1613.64 909.059 1613.28 910.192 1612.61 911.155C1611.94 912.118 1610.98 912.869 1609.86 913.312C1608.74 913.755 1607.51 913.871 1606.32 913.645C1605.13 913.419 1604.04 912.862 1603.19 912.043C1602.33 911.223 1601.75 910.18 1601.51 909.044C1601.27 907.907 1601.4 906.73 1601.86 905.66C1602.32 904.589 1603.11 903.675 1604.11 903.031C1605.12 902.387 1606.31 902.044 1607.52 902.044C1609.14 902.044 1610.7 902.662 1611.85 903.76C1612.99 904.858 1613.64 906.348 1613.64 907.901Z" fill="white" stroke="#405391" stroke-width="2.38525" stroke-linejoin="round"/>
<path d="M1666.25 459.857C1666.25 461.016 1665.89 462.148 1665.22 463.111C1664.54 464.074 1663.59 464.825 1662.47 465.268C1661.35 465.712 1660.12 465.828 1658.93 465.602C1657.74 465.376 1656.65 464.818 1655.79 463.999C1654.94 463.18 1654.35 462.136 1654.12 461C1653.88 459.864 1654 458.686 1654.47 457.616C1654.93 456.545 1655.71 455.631 1656.72 454.987C1657.73 454.344 1658.91 454 1660.12 454C1660.93 454 1661.72 454.151 1662.47 454.445C1663.21 454.739 1663.89 455.171 1664.45 455.715C1665.02 456.259 1665.47 456.905 1665.78 457.615C1666.09 458.326 1666.25 459.088 1666.25 459.857Z" fill="white" stroke="white" stroke-width="2.38525" stroke-linejoin="round"/>
<path d="M1674.69 692C1676.22 691.922 1677.73 691.534 1679.1 690.859C1680.47 690.185 1681.67 689.241 1682.63 688.089C1683.59 686.937 1684.28 685.604 1684.66 684.177C1685.04 682.75 1685.1 681.263 1684.84 679.813C1684.57 678.363 1683.98 676.983 1683.12 675.765C1682.25 674.547 1681.13 673.519 1679.81 672.748C1678.5 671.976 1677.03 671.48 1675.51 671.292C1673.98 671.103 1672.43 671.227 1670.95 671.654C1670.03 668.061 1667.89 664.864 1664.85 662.571C1661.81 660.279 1658.06 659.022 1654.19 659C1650.32 658.979 1646.56 660.195 1643.49 662.454C1640.43 664.713 1638.24 667.887 1637.28 671.469C1635.82 671.155 1634.31 671.13 1632.84 671.398C1631.38 671.666 1629.98 672.22 1628.75 673.025C1627.51 673.83 1626.46 674.87 1625.67 676.079C1624.87 677.289 1624.35 678.641 1624.12 680.054C1623.9 681.466 1623.98 682.907 1624.37 684.287C1624.75 685.668 1625.43 686.958 1626.36 688.077C1627.28 689.196 1628.45 690.12 1629.76 690.792C1631.08 691.464 1632.53 691.87 1634.02 691.983L1674.69 692Z" fill="white" stroke="#1B3342" stroke-width="2.38525" stroke-linejoin="round"/>
<path d="M958.759 647C959.541 646.958 960.305 646.746 961.001 646.378C961.697 646.01 962.309 645.495 962.796 644.867C963.284 644.238 963.636 643.511 963.829 642.733C964.022 641.955 964.052 641.143 963.917 640.352C963.781 639.561 963.484 638.809 963.044 638.145C962.604 637.48 962.032 636.919 961.365 636.499C960.698 636.078 959.952 635.807 959.175 635.705C958.399 635.602 957.61 635.669 956.86 635.902C956.395 633.942 955.303 632.199 953.76 630.948C952.217 629.697 950.31 629.012 948.343 629C946.377 628.989 944.462 629.652 942.905 630.884C941.348 632.116 940.237 633.847 939.75 635.801C939.009 635.63 938.241 635.617 937.495 635.763C936.749 635.909 936.04 636.211 935.413 636.65C934.785 637.089 934.253 637.656 933.848 638.316C933.444 638.976 933.177 639.714 933.063 640.484C932.949 641.254 932.991 642.04 933.186 642.793C933.381 643.546 933.725 644.25 934.197 644.86C934.669 645.471 935.259 645.975 935.929 646.341C936.6 646.708 937.336 646.929 938.094 646.99L958.759 647Z" fill="white" stroke="#1B3342" stroke-width="2.38525" stroke-linejoin="round"/>
<path d="M1410.69 561C1412.22 560.922 1413.73 560.534 1415.1 559.859C1416.47 559.185 1417.67 558.241 1418.63 557.089C1419.59 555.937 1420.28 554.604 1420.66 553.177C1421.04 551.75 1421.1 550.263 1420.84 548.813C1420.57 547.363 1419.98 545.983 1419.12 544.765C1418.25 543.547 1417.13 542.519 1415.81 541.748C1414.5 540.976 1413.03 540.48 1411.51 540.292C1409.98 540.103 1408.43 540.227 1406.95 540.654C1406.03 537.061 1403.89 533.864 1400.85 531.571C1397.81 529.279 1394.06 528.022 1390.19 528C1386.32 527.979 1382.56 529.195 1379.49 531.454C1376.43 533.713 1374.24 536.887 1373.28 540.469C1371.82 540.155 1370.31 540.13 1368.84 540.398C1367.38 540.666 1365.98 541.22 1364.75 542.025C1363.51 542.83 1362.46 543.87 1361.67 545.079C1360.87 546.289 1360.35 547.641 1360.12 549.054C1359.9 550.466 1359.98 551.907 1360.37 553.287C1360.75 554.668 1361.43 555.958 1362.36 557.077C1363.28 558.196 1364.45 559.12 1365.76 559.792C1367.08 560.464 1368.53 560.87 1370.02 560.983L1410.69 561Z" fill="white" stroke="#1B3342" stroke-width="2.38525" stroke-linejoin="round"/>
<path d="M870.256 650C869.323 649.955 868.41 649.731 867.58 649.343C866.749 648.955 866.019 648.411 865.437 647.748C864.855 647.085 864.435 646.317 864.204 645.496C863.974 644.674 863.938 643.818 864.099 642.983C864.261 642.148 864.616 641.354 865.141 640.653C865.666 639.951 866.349 639.359 867.145 638.915C867.941 638.471 868.832 638.186 869.759 638.077C870.686 637.969 871.627 638.04 872.522 638.286C873.077 636.217 874.38 634.376 876.222 633.056C878.064 631.736 880.339 631.012 882.687 631C885.034 630.988 887.319 631.688 889.177 632.989C891.036 634.289 892.362 636.116 892.944 638.179C893.828 637.998 894.744 637.984 895.635 638.138C896.526 638.292 897.372 638.611 898.121 639.075C898.869 639.539 899.505 640.137 899.987 640.834C900.47 641.53 900.789 642.309 900.925 643.122C901.061 643.935 901.011 644.765 900.778 645.559C900.545 646.354 900.134 647.097 899.571 647.741C899.007 648.386 898.304 648.918 897.504 649.305C896.704 649.692 895.824 649.925 894.92 649.99L870.256 650Z" fill="white" stroke="#1B3342" stroke-width="2.38525" stroke-linejoin="round"/>
<path d="M389.608 728C388.473 727.948 387.364 727.689 386.354 727.24C385.343 726.79 384.455 726.161 383.747 725.393C383.039 724.625 382.529 723.736 382.248 722.785C381.968 721.833 381.924 720.842 382.121 719.875C382.317 718.908 382.749 717.989 383.387 717.177C384.026 716.365 384.857 715.679 385.825 715.165C386.793 714.651 387.877 714.32 389.004 714.195C390.131 714.069 391.276 714.151 392.364 714.436C393.04 712.041 394.624 709.909 396.864 708.381C399.105 706.852 401.872 706.014 404.727 706C407.582 705.986 410.361 706.796 412.621 708.303C414.882 709.809 416.494 711.924 417.202 714.313C418.278 714.103 419.392 714.087 420.475 714.265C421.558 714.444 422.587 714.813 423.498 715.35C424.409 715.887 425.182 716.58 425.768 717.386C426.355 718.192 426.744 719.094 426.909 720.036C427.075 720.977 427.014 721.938 426.73 722.858C426.447 723.779 425.947 724.639 425.262 725.385C424.577 726.131 423.721 726.747 422.748 727.195C421.775 727.643 420.705 727.913 419.606 727.988L389.608 728Z" fill="white" stroke="#1B3342" stroke-width="2.38525" stroke-linejoin="round"/>
<path d="M288.223 515C289.383 514.944 290.517 514.661 291.55 514.17C292.582 513.68 293.49 512.993 294.214 512.156C294.937 511.318 295.46 510.348 295.746 509.31C296.033 508.273 296.077 507.191 295.876 506.136C295.676 505.082 295.234 504.079 294.582 503.193C293.929 502.307 293.08 501.559 292.09 500.998C291.1 500.437 289.993 500.077 288.84 499.94C287.688 499.802 286.517 499.892 285.406 500.203C284.714 497.59 283.095 495.265 280.805 493.597C278.515 491.93 275.686 491.016 272.768 491C269.849 490.985 267.009 491.869 264.698 493.512C262.388 495.155 260.739 497.463 260.016 500.069C258.916 499.84 257.777 499.822 256.67 500.017C255.563 500.211 254.511 500.614 253.58 501.2C252.649 501.786 251.859 502.542 251.259 503.421C250.659 504.301 250.262 505.285 250.093 506.312C249.924 507.339 249.986 508.387 250.276 509.391C250.565 510.395 251.076 511.333 251.777 512.147C252.477 512.961 253.352 513.633 254.347 514.122C255.341 514.61 256.435 514.905 257.558 514.987L288.223 515Z" fill="white" stroke="#1B3342" stroke-width="2.38525" stroke-linejoin="round"/>
<g filter="url(#filter0_d)">
<path d="M1364.88 562.163C1367.07 562.052 1369.21 561.497 1371.16 560.535C1373.12 559.574 1374.83 558.227 1376.2 556.585C1377.56 554.942 1378.55 553.041 1379.09 551.007C1379.63 548.973 1379.72 546.852 1379.34 544.785C1378.96 542.718 1378.12 540.751 1376.89 539.014C1375.66 537.278 1374.05 535.811 1372.19 534.712C1370.32 533.612 1368.22 532.904 1366.05 532.635C1363.87 532.366 1361.66 532.541 1359.56 533.15C1358.26 528.02 1355.2 523.454 1350.88 520.179C1346.55 516.904 1341.2 515.108 1335.68 515.078C1330.17 515.047 1324.8 516.784 1320.43 520.011C1316.06 523.238 1312.95 527.77 1311.59 532.885C1309.51 532.434 1307.36 532.398 1305.27 532.779C1303.17 533.159 1301.18 533.948 1299.42 535.097C1297.66 536.246 1296.17 537.729 1295.03 539.454C1293.9 541.18 1293.15 543.11 1292.83 545.125C1292.51 547.14 1292.63 549.197 1293.18 551.167C1293.72 553.136 1294.69 554.977 1296.02 556.573C1297.34 558.17 1299 559.488 1300.88 560.446C1302.76 561.403 1304.82 561.98 1306.95 562.139L1364.88 562.163Z" fill="white"/>
<path d="M1364.88 562.163C1367.07 562.052 1369.21 561.497 1371.16 560.535C1373.12 559.574 1374.83 558.227 1376.2 556.585C1377.56 554.942 1378.55 553.041 1379.09 551.007C1379.63 548.973 1379.72 546.852 1379.34 544.785C1378.96 542.718 1378.12 540.751 1376.89 539.014C1375.66 537.278 1374.05 535.811 1372.19 534.712C1370.32 533.612 1368.22 532.904 1366.05 532.635C1363.87 532.366 1361.66 532.541 1359.56 533.15C1358.26 528.02 1355.2 523.454 1350.88 520.179C1346.55 516.904 1341.2 515.108 1335.68 515.078C1330.17 515.047 1324.8 516.784 1320.43 520.011C1316.06 523.238 1312.95 527.77 1311.59 532.885C1309.51 532.434 1307.36 532.398 1305.27 532.779C1303.17 533.159 1301.18 533.948 1299.42 535.097C1297.66 536.246 1296.17 537.729 1295.03 539.454C1293.9 541.18 1293.15 543.11 1292.83 545.125C1292.51 547.14 1292.63 549.197 1293.18 551.167C1293.72 553.136 1294.69 554.977 1296.02 556.573C1297.34 558.17 1299 559.488 1300.88 560.446C1302.76 561.403 1304.82 561.98 1306.95 562.139L1364.88 562.163Z" stroke="#1B3342" stroke-width="2.38525" stroke-linejoin="round"/>
</g>
<g filter="url(#filter1_d)">
<path d="M900.111 650C898.901 649.943 897.719 649.66 896.641 649.17C895.564 648.68 894.617 647.994 893.863 647.157C893.108 646.319 892.563 645.35 892.265 644.314C891.966 643.277 891.919 642.196 892.129 641.142C892.338 640.088 892.798 639.086 893.479 638.201C894.16 637.316 895.046 636.568 896.078 636.008C897.11 635.447 898.265 635.086 899.467 634.949C900.669 634.812 901.89 634.901 903.05 635.212C903.767 632.597 905.456 630.27 907.845 628.6C910.235 626.931 913.189 626.016 916.236 626C919.283 625.985 922.249 626.87 924.66 628.515C927.072 630.16 928.79 632.47 929.542 635.077C930.689 634.847 931.878 634.828 933.035 635.022C934.191 635.216 935.289 635.619 936.261 636.204C937.234 636.79 938.059 637.546 938.685 638.425C939.312 639.304 939.726 640.288 939.903 641.316C940.08 642.343 940.015 643.391 939.712 644.395C939.409 645.399 938.875 646.337 938.144 647.151C937.412 647.964 936.498 648.636 935.459 649.125C934.42 649.613 933.279 649.907 932.106 649.988L900.111 650Z" fill="white"/>
<path d="M900.111 650C898.901 649.943 897.719 649.66 896.641 649.17C895.564 648.68 894.617 647.994 893.863 647.157C893.108 646.319 892.563 645.35 892.265 644.314C891.966 643.277 891.919 642.196 892.129 641.142C892.338 640.088 892.798 639.086 893.479 638.201C894.16 637.316 895.046 636.568 896.078 636.008C897.11 635.447 898.265 635.086 899.467 634.949C900.669 634.812 901.89 634.901 903.05 635.212C903.767 632.597 905.456 630.27 907.845 628.6C910.235 626.931 913.189 626.016 916.236 626C919.283 625.985 922.249 626.87 924.66 628.515C927.072 630.16 928.79 632.47 929.542 635.077C930.689 634.847 931.878 634.828 933.035 635.022C934.191 635.216 935.289 635.619 936.261 636.204C937.234 636.79 938.059 637.546 938.685 638.425C939.312 639.304 939.726 640.288 939.903 641.316C940.08 642.343 940.015 643.391 939.712 644.395C939.409 645.399 938.875 646.337 938.144 647.151C937.412 647.964 936.498 648.636 935.459 649.125C934.42 649.613 933.279 649.907 932.106 649.988L900.111 650Z" stroke="#1B3342" stroke-width="2.38525" stroke-linejoin="round"/>
</g>
<g filter="url(#filter2_d)">
<path d="M424.153 730C422.489 729.92 420.863 729.519 419.382 728.824C417.901 728.13 416.598 727.158 415.561 725.972C414.524 724.786 413.775 723.413 413.364 721.944C412.953 720.476 412.889 718.944 413.177 717.451C413.465 715.959 414.098 714.538 415.034 713.285C415.97 712.031 417.188 710.972 418.607 710.178C420.026 709.384 421.615 708.872 423.267 708.678C424.92 708.484 426.599 708.61 428.194 709.05C429.18 705.346 431.501 702.049 434.787 699.684C438.073 697.319 442.134 696.022 446.324 696C450.515 695.978 454.592 697.232 457.908 699.563C461.223 701.893 463.586 705.165 464.62 708.858C466.198 708.533 467.833 708.507 469.423 708.782C471.012 709.057 472.523 709.627 473.859 710.456C475.196 711.285 476.331 712.356 477.192 713.602C478.054 714.848 478.624 716.242 478.867 717.697C479.109 719.152 479.02 720.637 478.604 722.06C478.188 723.482 477.454 724.811 476.448 725.964C475.442 727.116 474.185 728.068 472.757 728.76C471.328 729.451 469.758 729.868 468.145 729.983L424.153 730Z" fill="white"/>
<path d="M424.153 730C422.489 729.92 420.863 729.519 419.382 728.824C417.901 728.13 416.598 727.158 415.561 725.972C414.524 724.786 413.775 723.413 413.364 721.944C412.953 720.476 412.889 718.944 413.177 717.451C413.465 715.959 414.098 714.538 415.034 713.285C415.97 712.031 417.188 710.972 418.607 710.178C420.026 709.384 421.615 708.872 423.267 708.678C424.92 708.484 426.599 708.61 428.194 709.05C429.18 705.346 431.501 702.049 434.787 699.684C438.073 697.319 442.134 696.022 446.324 696C450.515 695.978 454.592 697.232 457.908 699.563C461.223 701.893 463.586 705.165 464.62 708.858C466.198 708.533 467.833 708.507 469.423 708.782C471.012 709.057 472.523 709.627 473.859 710.456C475.196 711.285 476.331 712.356 477.192 713.602C478.054 714.848 478.624 716.242 478.867 717.697C479.109 719.152 479.02 720.637 478.604 722.06C478.188 723.482 477.454 724.811 476.448 725.964C475.442 727.116 474.185 728.068 472.757 728.76C471.328 729.451 469.758 729.868 468.145 729.983L424.153 730Z" stroke="#1B3342" stroke-width="2.38525" stroke-linejoin="round"/>
</g>
<line x1="788" y1="1274.5" x2="1103" y2="1274.5" stroke="#1B3342"/>
<path d="M944.596 1261.64L1332.55 1227.92L1557.94 1288.13L1558.98 1303.46L1171.02 1337.18L945.635 1276.97L944.596 1261.64Z" fill="white" stroke="#1B3342" stroke-width="2.38525" stroke-linejoin="round"/>
<path d="M954.675 1262.83L1334.78 1241.5L1276.65 1013.47L905.115 1030.05L954.675 1262.83Z" fill="white" stroke="#1B3342" stroke-width="2.38525" stroke-linejoin="round"/>
<path d="M1107.46 1029.52C1107.52 1030.28 1107.34 1031.04 1106.95 1031.71C1106.57 1032.38 1105.99 1032.93 1105.28 1033.3C1104.58 1033.67 1103.78 1033.83 1102.99 1033.78C1102.19 1033.72 1101.42 1033.45 1100.78 1032.99C1100.14 1032.54 1099.65 1031.91 1099.36 1031.2C1099.08 1030.48 1099.02 1029.7 1099.18 1028.95C1099.35 1028.2 1099.74 1027.52 1100.3 1026.97C1100.86 1026.42 1101.57 1026.04 1102.35 1025.87C1103.53 1025.72 1104.73 1026.01 1105.69 1026.69C1106.64 1027.37 1107.28 1028.39 1107.46 1029.52V1029.52Z" fill="#405391"/>
<path d="M906.791 1029.95L1278.33 1013.37L906.791 1029.95L956.351 1262.74L945.862 1261.73L899.76 1037.02L906.791 1029.95Z" fill="white"/>
<path d="M906.791 1029.95L1278.33 1013.37L906.791 1029.95ZM906.791 1029.95L956.351 1262.74L945.862 1261.73L899.76 1037.02L906.791 1029.95Z" stroke="#1B3342" stroke-width="2.38525" stroke-linejoin="round"/>
<path d="M934.203 1040.34L1259.13 1025.68L1302.4 1205.89L976.181 1233.89L934.203 1040.34Z" fill="#22CDB8" stroke="#1B3342" stroke-width="2.38525" stroke-miterlimit="10"/>
<path d="M945.717 1261.33L1171.1 1321.55L1559.06 1287.82L1333.67 1227.61L945.717 1261.33Z" fill="white" stroke="#1B3342" stroke-width="2.38525" stroke-linejoin="round"/>
<path d="M1111.38 1295.92L999.039 1265.91L1331.05 1237.05L1440.17 1266.2L1111.38 1295.92Z" fill="white" stroke="#1B3342" stroke-width="2.38525" stroke-linejoin="round"/>
<path d="M1023.68 1272.61L1356.87 1244.07" stroke="#1B3342" stroke-width="2.38525" stroke-linejoin="round"/>
<path d="M1050.96 1279.85L1384.15 1251.3" stroke="#1B3342" stroke-width="2.38525" stroke-linejoin="round"/>
<path d="M1078.95 1287.39L1412.13 1258.85" stroke="#1B3342" stroke-width="2.38525" stroke-linejoin="round"/>
<path d="M1039.9 1263.12L1149.98 1292.4" stroke="#1B3342" stroke-width="2.38525" stroke-linejoin="round"/>
<path d="M1076.43 1259.72L1186.51 1289" stroke="#1B3342" stroke-width="2.38525" stroke-linecap="round" stroke-linejoin="round"/>
<path d="M1108.55 1257.05L1218.63 1286.33" stroke="#405391" stroke-width="2.38525" stroke-linecap="round" stroke-linejoin="round"/>
<path d="M1140.53 1254.07L1250.61 1283.35" stroke="#405391" stroke-width="2.38525" stroke-linecap="round" stroke-linejoin="round"/>
<path d="M1172.5 1251.09L1282.58 1280.37" stroke="#405391" stroke-width="2.38525" stroke-linecap="round" stroke-linejoin="round"/>
<path d="M1205.93 1248.49L1314.56 1277.39" stroke="#405391" stroke-width="2.38525" stroke-linecap="round" stroke-linejoin="round"/>
<path d="M1237.77 1245.48L1347.5 1274.67" stroke="#405391" stroke-width="2.38525" stroke-linecap="round" stroke-linejoin="round"/>
<path d="M1270.32 1242.65L1379.51 1271.7" stroke="#405391" stroke-width="2.38525" stroke-linecap="round" stroke-linejoin="round"/>
<path d="M1303.38 1239.96L1411.45 1268.71" stroke="#405391" stroke-width="2.38525" stroke-linecap="round" stroke-linejoin="round"/>
<path d="M1112.43 1070.18L1172.94 1066.29L1233.46 1062.4C1233.92 1062.38 1234.38 1062.53 1234.75 1062.83C1235.12 1063.13 1235.38 1063.55 1235.5 1064.04L1247.55 1115.83C1247.62 1116.13 1247.63 1116.45 1247.57 1116.76C1247.52 1117.07 1247.4 1117.36 1247.23 1117.61C1247.06 1117.87 1246.84 1118.08 1246.59 1118.23C1246.34 1118.39 1246.05 1118.48 1245.76 1118.51L1146.11 1126.34C1145.67 1126.38 1124.91 1128.2 1124.34 1128.57L1129.65 1127.77C1127.76 1128.1 1125.83 1128.16 1123.93 1127.94L1110.52 1072.75C1110.47 1072.44 1110.48 1072.13 1110.55 1071.82C1110.62 1071.52 1110.75 1071.24 1110.93 1071C1111.11 1070.75 1111.34 1070.55 1111.6 1070.41C1111.86 1070.27 1112.14 1070.19 1112.43 1070.18Z" fill="white" stroke="#1B3342" stroke-width="2.38525" stroke-linejoin="round"/>
<path d="M1123.24 1123.78L1247.21 1114.62L1268.05 1191.71L1262.21 1192.3L1256.5 1192.89L1146.36 1201.51L1123.24 1123.78Z" fill="#1B3342" stroke="#1B3342" stroke-width="2.38525" stroke-linejoin="round"/>
<path d="M964.201 1076.75L1100.52 1071.19L1137.99 1205.9L996.089 1217.46L964.201 1076.75Z" fill="#1B3342" stroke="#1B3342" stroke-width="2.38525" stroke-linejoin="round"/>
<path d="M999.701 1102.29L1054.63 1099.07" stroke="white" stroke-width="2.38525" stroke-linecap="round" stroke-linejoin="round"/>
<path d="M1002.89 1112.66L1057.82 1109.43" stroke="white" stroke-width="2.38525" stroke-linecap="round" stroke-linejoin="round"/>
<path d="M1006.88 1124.62L1061.8 1121.39" stroke="white" stroke-width="2.38525" stroke-linecap="round" stroke-linejoin="round"/>
<path d="M999.701 1138.97L1054.63 1135.74" stroke="#1EE7C5" stroke-width="2.38525" stroke-linecap="round" stroke-linejoin="round"/>
<path d="M1012.46 1146.94L1067.38 1143.71" stroke="white" stroke-width="2.38525" stroke-linecap="round" stroke-linejoin="round"/>
<path d="M1015.65 1157.3L1070.57 1154.08" stroke="white" stroke-width="2.38525" stroke-linecap="round" stroke-linejoin="round"/>
<path d="M1197.24 1087.17L1215.7 1085.89" stroke="#1B3342" stroke-width="2.38525" stroke-linecap="round" stroke-linejoin="round"/>
<path d="M1204.48 1093.38L1222.95 1092.11" stroke="#1B3342" stroke-width="2.38525" stroke-linecap="round" stroke-linejoin="round"/>
<path d="M1155.43 1138.78L1223.94 1134.06" stroke="white" stroke-width="2.38525" stroke-linecap="round" stroke-linejoin="round"/>
<path d="M1159.29 1150.15L1227.79 1145.31" stroke="white" stroke-width="2.38525" stroke-linecap="round" stroke-linejoin="round"/>
<path d="M1167.15 1176.16L1235.66 1171.48" stroke="white" stroke-width="2.38525" stroke-linecap="round" stroke-linejoin="round"/>
<path d="M1174.14 1094.96C1175.44 1100.42 1172.55 1105.71 1167.68 1106.77C1162.81 1107.83 1157.81 1104.27 1156.51 1098.81C1155.2 1093.35 1158.09 1088.08 1162.96 1087.01C1167.83 1085.93 1172.84 1089.5 1174.14 1094.96Z" fill="white" stroke="#1B3342" stroke-width="2.38525" stroke-linejoin="round"/>
<path d="M1193.93 1118.88C1193.32 1120.73 1179.28 1120.53 1172.51 1121.15C1167.54 1121.6 1143.82 1123.62 1143.88 1122.73C1144.26 1117.14 1162.8 1106.21 1167.79 1106.15C1175.78 1106.06 1195.67 1113.54 1193.93 1118.88Z" fill="white" stroke="#1B3342" stroke-width="2.38525" stroke-linejoin="round"/>
<path d="M1535.76 892.812C1515.28 859.187 1523.14 788.41 1523.14 788.41L1518.53 792.438C1539.05 741.122 1521.89 720.388 1521.89 720.388C1471.24 648.295 1395.44 695.956 1395.44 695.956C1395.44 695.956 1339.84 704.453 1360.4 768.027C1361.65 772.416 1362.3 776.943 1362.32 781.492C1362.16 782.062 1353.56 812.218 1350.52 817.872C1348.31 821.976 1359.44 827.633 1365.89 830.497C1380.29 890.678 1383.53 888.539 1383.53 888.539C1408.98 889.696 1429.25 885.722 1445.67 878.661C1447.94 889.979 1450.25 902.159 1450.25 902.159C1455.72 943.592 1394.57 970.245 1394.57 970.245L1510.63 1012.17L1625.95 941.804C1625.95 941.804 1560.73 933.793 1535.76 892.812Z" fill="#FFCFCF" stroke="#33313B" stroke-width="2.38525" stroke-miterlimit="10"/>
<path d="M1622.88 960.824C1622.88 960.824 1617.81 934.591 1615.09 1026.28C1612.54 1112.11 1611.54 1202.17 1611.54 1202.17C1576.85 1204.29 1542.81 1212.1 1510.89 1225.26L1477.21 1238.65C1477.21 1238.65 1564.64 1284.97 1626.88 1303.46C1684.19 1320.49 1689.57 1278.65 1682.73 1176.94C1682.74 1176.94 1650.14 968.064 1622.88 960.824Z" fill="#FFCFCF" stroke="#405391" stroke-width="2.38525" stroke-linejoin="round"/>
<path d="M1391.91 672.633C1391.91 672.633 1318.86 709.903 1360.67 747.323L1410.32 699.865L1391.91 672.633Z" fill="#405391"/>
<path d="M1501.13 851.194C1501.13 851.194 1517.55 850.779 1527.38 872.051C1527.38 872.051 1516.6 847.898 1535.4 827.915L1501.13 851.194Z" fill="#121F27"/>
<path d="M1391.91 672.633C1391.91 672.633 1302.56 756.34 1356.11 732.876C1468 683.877 1462.27 807.361 1462.27 807.361C1462.27 807.361 1477.68 793.929 1471.99 807.988L1501.14 851.193C1501.14 851.193 1563.44 828.662 1566.78 753.597C1567.89 728.249 1541.82 612.009 1391.91 672.633Z" fill="#121F27"/>
<path d="M1430.26 722.285C1431.94 735.103 1430.26 786.236 1453.9 789.992C1477.53 793.748 1449.83 725.76 1449.83 725.76L1430.26 722.285Z" fill="#121F27"/>
<path d="M1356.47 997.063C1328.18 1118.71 1315.08 1244.39 1315.08 1244.39C1279.2 1234.86 1242.84 1227.06 1206.14 1221.02L1148.2 1206.13C1146.33 1205.31 1126.24 1196.46 1119.72 1190.29C1112.88 1183.81 1109.11 1201.63 1119.87 1209.78C1122.58 1211.82 1125.18 1213.99 1127.67 1216.28L1113.7 1218.36C1111.31 1218.71 1109.07 1219.73 1107.27 1221.29C1097.55 1229.72 1065.84 1257.73 1071.84 1259.47C1073.47 1259.89 1075.17 1259.96 1076.83 1259.67C1065.99 1268.24 1065.13 1277.17 1068.16 1277.47C1072.7 1277.92 1078.44 1274.81 1084.15 1270.38C1079.14 1275.93 1072.93 1288.2 1079.87 1287.89C1089.2 1287.48 1097.02 1280.55 1104.47 1268.81C1104.47 1268.81 1102.63 1271.86 1103.44 1271.16L1097.91 1279.73C1104 1284.85 1110.52 1289.49 1117.39 1293.6C1125.21 1297.8 1129.79 1282.34 1118.72 1275.98C1121.91 1272.48 1124.35 1268.43 1125.94 1264.05C1125.94 1264.05 1157.02 1278.42 1172.91 1267.03L1183.3 1267.98C1210.45 1284.25 1348.36 1343.53 1367.24 1342.19C1410.15 1339.12 1418.3 1258.43 1439.05 1082.05C1439.06 1082.06 1369.16 942.518 1356.47 997.063Z" fill="#FFCFCF" stroke="#1B3342" stroke-width="2.38525" stroke-linejoin="round"/>
<path d="M1313.67 1244.17C1313.67 1244.17 1300.31 1250.97 1297.62 1269.86" stroke="#1B3342" stroke-width="2.38525" stroke-miterlimit="10"/>
<path d="M1654.55 1177.14C1676.66 1173.63 1712.37 1161.95 1712.4 1161.82C1712.4 1161.82 1698.71 996.808 1655.19 947.95C1652.97 943.419 1645.65 933.987 1622.31 930.691C1615.38 929.713 1608.56 928.492 1602.05 927.152C1579.21 922.454 1560.61 915.924 1555.3 912.7C1555.3 912.7 1555.33 912.898 1555.37 913.191C1555.25 913.12 1555.08 913.043 1554.97 912.977C1555.56 916.165 1555.36 919.442 1554.38 922.542C1554.23 923 1554.08 923.46 1553.88 923.925C1553.8 924.123 1553.71 924.324 1553.62 924.524C1553.27 925.297 1552.87 926.047 1552.42 926.77C1545.28 938.019 1498 942.567 1450.73 918.662C1450.73 918.662 1369.52 962.712 1347.88 977.989C1314.67 1045.67 1300.4 1198.51 1300.4 1191.41C1300.4 1189.47 1368.08 1223.39 1412.06 1225.23C1412.31 1237.23 1401.3 1388.73 1401.3 1388.73C1401.3 1388.73 1592.53 1398.07 1677.27 1354.96C1677.27 1354.96 1643.87 1248.57 1647.8 1218.88C1648.28 1215.38 1653.61 1185.8 1654.55 1177.14Z" fill="url(#paint1_linear)" stroke="#33313B" stroke-width="2.38525" stroke-miterlimit="10"/>
<path d="M1399.74 671.653C1399.74 671.653 1306.09 650.762 1311.98 673.814C1317.87 696.865 1342.09 716.995 1342.09 716.995C1342.09 716.995 1314.49 716.335 1328.98 729.737C1343.47 743.14 1355.58 742.138 1355.58 742.138L1399.74 671.653Z" fill="#121F27"/>
<path d="M1445.41 877.643C1445.41 877.643 1455.05 875.322 1472.71 860.642" stroke="#33313B" stroke-width="2.38525" stroke-miterlimit="10"/>
<path d="M1462.68 769.128C1462.68 769.128 1456.17 653.703 1392.75 667.871" stroke="white" stroke-width="4.7705" stroke-miterlimit="10"/>
<path d="M1500.49 802.33C1501.93 780.908 1485.39 762.451 1463.54 761.104C1441.69 759.757 1422.8 776.031 1421.36 797.453C1419.91 818.874 1436.46 837.332 1458.31 838.679C1480.16 840.025 1499.05 823.752 1500.49 802.33Z" fill="#22CDB8" stroke="#1B3342" stroke-width="2.38525" stroke-miterlimit="10"/>
<path d="M1487.67 800.984C1486.63 816.373 1473.75 828.106 1458.89 827.188C1444.03 826.27 1432.82 813.053 1433.86 797.667C1434.89 782.28 1447.78 770.544 1462.64 771.462C1477.5 772.38 1488.71 785.597 1487.67 800.984Z" fill="white" stroke="#121316" stroke-width="2.38525" stroke-miterlimit="10"/>
<path d="M1373.89 788.74C1374.12 789.545 1374.59 790.271 1375.23 790.837C1375.87 791.403 1376.66 791.785 1377.52 791.942C1378.38 792.099 1379.26 792.023 1380.08 791.722C1380.89 791.422 1381.6 790.91 1382.13 790.244C1382.65 789.578 1382.97 788.785 1383.05 787.954C1383.13 787.123 1382.96 786.287 1382.57 785.542C1382.18 784.797 1381.57 784.171 1380.83 783.737C1380.08 783.302 1379.23 783.076 1378.35 783.083C1376.99 783.288 1375.76 783.993 1374.93 785.048C1374.09 786.104 1373.72 787.428 1373.89 788.74V788.74Z" fill="#1B3342"/>
<path d="M1395.94 772.428C1392.64 768.554 1388.1 765.833 1383.02 764.689C1378.46 763.27 1373.97 761.875 1372.05 763.905C1371.49 764.609 1371.17 765.459 1371.13 766.341C1371.09 767.224 1371.33 768.098 1371.82 768.846C1373.2 770.863 1376.29 770.79 1379.17 771.076C1390.37 772.189 1396.77 778.607 1398.03 777.038C1398.76 776.129 1396.92 773.716 1395.94 772.428Z" fill="#1B3342"/>
<path d="M1374.97 844.507C1374.97 844.507 1387.26 844.03 1395.26 836.179" stroke="#1B3342" stroke-width="2.38525" stroke-miterlimit="10"/>
<path d="M1328.12 654.923C1339.98 652.388 1352.33 652.952 1363.88 656.555C1375.44 660.158 1385.77 666.668 1393.78 675.402" stroke="#121F27" stroke-width="2.38525" stroke-miterlimit="10"/>
<path d="M1549.42 676.661L1546.58 704.182C1546.58 704.182 1553.99 690.541 1568.68 699.756" stroke="#1B3342" stroke-width="2.38525" stroke-miterlimit="10"/>
<path d="M1364.91 706.509C1364.91 706.509 1333.62 748.797 1349.58 748.721C1373.69 748.592 1397.53 718.624 1393.16 717.067C1388.79 715.51 1364.91 706.509 1364.91 706.509Z" fill="#121F27"/>
<path d="M1082.89 1269.92L1095.16 1245.07L1108.43 1235.01" fill="#FFCFCF"/>
<path d="M1082.89 1269.92L1095.16 1245.07L1108.43 1235.01" stroke="#1B3342" stroke-width="2.38525" stroke-miterlimit="10"/>
<path d="M1075.83 1259.45L1090.03 1244.07" stroke="#1B3342" stroke-width="2.38525" stroke-miterlimit="10"/>
<path d="M1126.38 1238.09L1110.52 1248.85L1102.19 1270.7" fill="#FFCFCF"/>
<path d="M1126.38 1238.09L1110.52 1248.85L1102.19 1270.7" stroke="#1B3342" stroke-width="2.38525" stroke-linejoin="round"/>
<path d="M1347.9 978.003C1347.9 978.003 1448.88 954.11 1446.63 1076.45L1442 1223.12C1429.32 1225.36 1416.37 1225.87 1403.54 1224.64" stroke="#33313B" stroke-width="2.38525" stroke-miterlimit="10"/>
<path d="M1650.78 1008.7C1650.78 1008.7 1671.95 1057.68 1672.32 1100.75C1672.52 1123.88 1654.52 1177.42 1654.52 1177.42" stroke="#33313B" stroke-width="2.38525" stroke-miterlimit="10"/>
<path d="M1126.4 1215.81L1143.72 1213.43" stroke="#1B3342" stroke-width="2.38525" stroke-linejoin="round"/>
<line x1="1668" y1="1340.5" x2="1800" y2="1340.5" stroke="black"/>
<path d="M986.136 1092.22L1041.08 1089.25" stroke="#1EE7C5" stroke-width="2.38525" stroke-linecap="round" stroke-linejoin="round"/>
<g filter="url(#filter3_d)">
<path d="M853.012 1242.44C868.092 1242.44 880.316 1240.62 880.316 1238.38C880.316 1236.14 868.092 1234.32 853.012 1234.32C837.932 1234.32 825.707 1236.14 825.707 1238.38C825.707 1240.62 837.932 1242.44 853.012 1242.44Z" fill="#0D71B2"/>
<path d="M846.204 1287.04H859.815C863.846 1286.91 867.852 1286.38 871.77 1285.46L879.338 1238.54H879.255C879.255 1240.7 867.504 1242.44 853.01 1242.44C838.517 1242.44 826.764 1240.7 826.764 1238.54H826.682L834.25 1285.46C838.167 1286.38 842.173 1286.91 846.204 1287.04Z" fill="#1B3342" stroke="#1B3342" stroke-width="1.31301" stroke-linejoin="round"/>
<path d="M814.581 1182.58C811.57 1182.58 808.597 1183.23 805.896 1184.5C803.195 1185.78 800.838 1187.63 799.01 1189.92C797.182 1192.21 795.932 1194.87 795.358 1197.69C794.784 1200.52 794.902 1203.44 795.702 1206.21C796.323 1205.92 797.007 1205.76 797.702 1205.76C798.702 1205.76 799.675 1206.07 800.472 1206.64C801.27 1207.22 801.849 1208.03 802.12 1208.95C802.391 1209.87 802.339 1210.85 801.973 1211.74C801.607 1212.63 800.947 1213.38 800.092 1213.88C802.282 1216.19 805.039 1217.94 808.115 1218.97C811.191 1220 814.487 1220.28 817.705 1219.79C820.923 1219.29 823.96 1218.04 826.541 1216.13C829.122 1214.23 831.165 1211.74 832.485 1208.89C833.805 1206.04 834.359 1202.92 834.098 1199.81C833.837 1196.7 832.769 1193.71 830.99 1191.09C829.212 1188.48 826.779 1186.34 823.914 1184.85C821.048 1183.37 817.84 1182.59 814.581 1182.59V1182.58Z" fill="#1EE6C5" stroke="#1B3342" stroke-width="1.31301" stroke-miterlimit="10"/>
<path d="M829.303 1195.86C829.303 1196.37 829.144 1196.87 828.847 1197.29C828.55 1197.72 828.128 1198.05 827.635 1198.24C827.141 1198.44 826.598 1198.49 826.074 1198.39C825.55 1198.29 825.069 1198.04 824.691 1197.68C824.313 1197.32 824.056 1196.86 823.952 1196.36C823.848 1195.86 823.902 1195.34 824.106 1194.87C824.311 1194.39 824.657 1193.99 825.102 1193.71C825.546 1193.42 826.069 1193.27 826.603 1193.27C827.319 1193.27 828.006 1193.54 828.512 1194.03C829.018 1194.51 829.303 1195.17 829.303 1195.86V1195.86Z" fill="white" stroke="#1B3342" stroke-width="1.31301" stroke-linejoin="round"/>
<path d="M898.605 1199.53C904.731 1191.01 902.474 1179.35 893.564 1173.49C884.654 1167.63 872.465 1169.79 866.338 1178.31C860.212 1186.84 862.469 1198.49 871.38 1204.35C880.29 1210.21 892.479 1208.05 898.605 1199.53Z" fill="#1EE6C5" stroke="#1B3342" stroke-width="1.31301" stroke-miterlimit="10"/>
<path d="M881.278 1189.15C881.278 1189.15 853.114 1204.81 855.455 1236.06" stroke="#1B3342" stroke-width="1.31301" stroke-linejoin="round"/>
<path d="M843.946 1183.06C846.702 1185.66 850.203 1187.42 854.006 1188.12C857.809 1188.82 861.743 1188.42 865.31 1186.98C868.878 1185.54 871.918 1183.12 874.048 1180.03C876.178 1176.93 877.301 1173.3 877.275 1169.6C877.249 1165.9 876.075 1162.28 873.903 1159.22C871.73 1156.15 868.655 1153.77 865.068 1152.38C861.481 1150.98 857.542 1150.64 853.749 1151.38C849.956 1152.13 846.48 1153.94 843.76 1156.57C841.954 1158.32 840.526 1160.4 839.558 1162.68C838.59 1164.95 838.1 1167.39 838.118 1169.85C838.135 1172.31 838.658 1174.74 839.658 1177.01C840.658 1179.27 842.115 1181.33 843.946 1183.06Z" fill="#1EE6C5" stroke="#1B3342" stroke-width="1.31301" stroke-miterlimit="10"/>
<path d="M856.784 1170.67C856.784 1170.67 837.202 1216.98 855.255 1240.23" stroke="#1B3342" stroke-width="1.31301" stroke-linejoin="round"/>
<path d="M815.643 1201.32C815.643 1201.32 846.44 1211.44 850.488 1242.54" stroke="#1B3342" stroke-width="1.31301" stroke-linejoin="round"/>
<path d="M875.358 1196.89C878.369 1196.88 881.341 1197.54 884.042 1198.81C886.743 1200.08 889.1 1201.93 890.929 1204.22C892.757 1206.51 894.007 1209.17 894.581 1212C895.154 1214.82 895.037 1217.74 894.237 1220.52C893.615 1220.22 892.931 1220.06 892.237 1220.06C891.237 1220.06 890.264 1220.37 889.466 1220.95C888.668 1221.52 888.09 1222.33 887.819 1223.25C887.548 1224.18 887.599 1225.16 887.965 1226.05C888.331 1226.94 888.992 1227.69 889.846 1228.18C887.657 1230.49 884.899 1232.24 881.823 1233.28C878.747 1234.31 875.451 1234.59 872.233 1234.09C869.016 1233.6 865.978 1232.34 863.397 1230.43C860.816 1228.53 858.773 1226.04 857.453 1223.19C856.134 1220.34 855.579 1217.22 855.84 1214.11C856.101 1211 857.169 1208.01 858.948 1205.4C860.727 1202.78 863.159 1200.64 866.025 1199.15C868.89 1197.67 872.098 1196.89 875.358 1196.89V1196.89Z" fill="#1EE6C5" stroke="#1B3342" stroke-width="1.31301" stroke-miterlimit="10"/>
<path d="M860.699 1210.28C860.699 1210.79 860.858 1211.29 861.154 1211.71C861.451 1212.14 861.873 1212.47 862.367 1212.66C862.86 1212.86 863.403 1212.91 863.927 1212.81C864.451 1212.71 864.933 1212.47 865.31 1212.1C865.688 1211.74 865.945 1211.28 866.05 1210.78C866.154 1210.28 866.1 1209.76 865.896 1209.29C865.691 1208.82 865.345 1208.41 864.901 1208.13C864.457 1207.85 863.935 1207.69 863.4 1207.69C862.684 1207.69 861.997 1207.97 861.49 1208.45C860.984 1208.94 860.699 1209.59 860.699 1210.28V1210.28Z" fill="white" stroke="#1B3342" stroke-width="1.31301" stroke-linejoin="round"/>
<path d="M879.645 1211.52C879.645 1211.52 857.903 1219.79 852.566 1241.49" stroke="#1B3342" stroke-width="1.31301" stroke-linejoin="round"/>
</g>
<defs>
<filter id="filter0_d" x="1287.46" y="513.885" width="97.3001" height="57.471" filterUnits="userSpaceOnUse" color-interpolation-filters="sRGB">
<feFlood flood-opacity="0" result="BackgroundImageFix"/>
<feColorMatrix in="SourceAlpha" type="matrix" values="0 0 0 0 0 0 0 0 0 0 0 0 0 0 0 0 0 0 127 0"/>
<feOffset dy="4"/>
<feGaussianBlur stdDeviation="2"/>
<feColorMatrix type="matrix" values="0 0 0 0 0 0 0 0 0 0 0 0 0 0 0 0 0 0 0.25 0"/>
<feBlend mode="normal" in2="BackgroundImageFix" result="effect1_dropShadow"/>
<feBlend mode="normal" in="SourceGraphic" in2="effect1_dropShadow" result="shape"/>
</filter>
<filter id="filter1_d" x="886.807" y="624.807" width="58.3852" height="34.3853" filterUnits="userSpaceOnUse" color-interpolation-filters="sRGB">
<feFlood flood-opacity="0" result="BackgroundImageFix"/>
<feColorMatrix in="SourceAlpha" type="matrix" values="0 0 0 0 0 0 0 0 0 0 0 0 0 0 0 0 0 0 127 0"/>
<feOffset dy="4"/>
<feGaussianBlur stdDeviation="2"/>
<feColorMatrix type="matrix" values="0 0 0 0 0 0 0 0 0 0 0 0 0 0 0 0 0 0 0.25 0"/>
<feBlend mode="normal" in2="BackgroundImageFix" result="effect1_dropShadow"/>
<feBlend mode="normal" in="SourceGraphic" in2="effect1_dropShadow" result="shape"/>
</filter>
<filter id="filter2_d" x="407.807" y="694.807" width="76.3852" height="44.3853" filterUnits="userSpaceOnUse" color-interpolation-filters="sRGB">
<feFlood flood-opacity="0" result="BackgroundImageFix"/>
<feColorMatrix in="SourceAlpha" type="matrix" values="0 0 0 0 0 0 0 0 0 0 0 0 0 0 0 0 0 0 127 0"/>
<feOffset dy="4"/>
<feGaussianBlur stdDeviation="2"/>
<feColorMatrix type="matrix" values="0 0 0 0 0 0 0 0 0 0 0 0 0 0 0 0 0 0 0.25 0"/>
<feBlend mode="normal" in2="BackgroundImageFix" result="effect1_dropShadow"/>
<feBlend mode="normal" in="SourceGraphic" in2="effect1_dropShadow" result="shape"/>
</filter>
<filter id="filter3_d" x="788.344" y="1145.34" width="116.379" height="145.35" filterUnits="userSpaceOnUse" color-interpolation-filters="sRGB">
<feFlood flood-opacity="0" result="BackgroundImageFix"/>
<feColorMatrix in="SourceAlpha" type="matrix" values="0 0 0 0 0 0 0 0 0 0 0 0 0 0 0 0 0 0 127 0"/>
<feOffset dx="-2" dy="-1"/>
<feGaussianBlur stdDeviation="2"/>
<feColorMatrix type="matrix" values="0 0 0 0 1 0 0 0 0 1 0 0 0 0 1 0 0 0 0.03 0"/>
<feBlend mode="normal" in2="BackgroundImageFix" result="effect1_dropShadow"/>
<feBlend mode="normal" in="SourceGraphic" in2="effect1_dropShadow" result="shape"/>
</filter>
<radialGradient id="paint0_radial" cx="0" cy="0" r="1" gradientUnits="userSpaceOnUse" gradientTransform="translate(947.505 644.327) rotate(90) scale(644.327 947.505)">
<stop stop-color="#335063"/>
<stop offset="1" stop-color="#1B3342"/>
</radialGradient>
<linearGradient id="paint1_linear" x1="1506.4" y1="912.7" x2="1506.4" y2="1389.59" gradientUnits="userSpaceOnUse">
<stop stop-color="#379BE7"/>
<stop offset="1" stop-color="#1DE9C4"/>
</linearGradient>
</defs>
</svg>
