<svg width="60" height="28" viewBox="0 0 60 28" fill="none" xmlns="http://www.w3.org/2000/svg">
<path d="M48.4476 26C49.8575 25.9435 51.2355 25.6608 52.4906 25.1704C53.7456 24.6801 54.8492 23.9933 55.7283 23.1555C56.6075 22.3178 57.2421 21.348 57.5904 20.3104C57.9387 19.2728 57.9926 18.191 57.7486 17.1364C57.5047 16.0819 56.9684 15.0785 56.1752 14.1928C55.382 13.3071 54.35 12.5591 53.1473 11.9983C51.9446 11.4374 50.5987 11.0766 49.1985 10.9395C47.7983 10.8024 46.3756 10.8922 45.0246 11.2031C44.1847 8.58997 42.2169 6.26485 39.4342 4.59734C36.6515 2.92983 33.2136 2.01567 29.6671 2.0002C26.1205 1.98473 22.669 2.86885 19.8612 4.51198C17.0534 6.15511 15.0505 8.46294 14.171 11.0685C12.8348 10.8397 11.4508 10.8221 10.1053 11.0168C8.75977 11.2114 7.48152 11.6142 6.35024 12.1999C5.21896 12.7857 4.25885 13.5418 3.52985 14.4213C2.80084 15.3008 2.31853 16.2847 2.11296 17.3118C1.90739 18.3388 1.98298 19.3869 2.33501 20.3909C2.68704 21.3948 3.30799 22.3329 4.15911 23.1469C5.01024 23.9608 6.0733 24.6331 7.28206 25.1218C8.49082 25.6105 9.81935 25.9051 11.1849 25.9873L48.4476 26Z" fill="white" stroke="#1B3342" stroke-width="2.38525" stroke-linejoin="round"/>
</svg>
