<svg width="13" height="13" viewBox="0 0 13 13" fill="none" xmlns="http://www.w3.org/2000/svg">
<path d="M6.01647 6.40741L7.648 5.00895C7.88812 4.80314 8.24961 4.83095 8.45543 5.07106C8.66124 5.31118 8.63343 5.67268 8.39332 5.87849L6.38913 7.59637C6.17469 7.78018 5.85825 7.78018 5.64381 7.59637L3.63962 5.87849C3.39951 5.67268 3.3717 5.31118 3.57751 5.07106C3.78333 4.83095 4.14483 4.80314 4.38494 5.00895L6.01647 6.40741ZM6.01647 12.0289C2.69582 12.0289 0.00390625 9.337 0.00390625 6.01635C0.00390625 2.6957 2.69582 0.00378418 6.01647 0.00378418C9.33712 0.00378418 12.029 2.6957 12.029 6.01635C12.029 9.337 9.33712 12.0289 6.01647 12.0289ZM6.01647 10.8837C8.70461 10.8837 10.8838 8.70449 10.8838 6.01635C10.8838 3.32821 8.70461 1.14903 6.01647 1.14903C3.32833 1.14903 1.14916 3.32821 1.14916 6.01635C1.14916 8.70449 3.32833 10.8837 6.01647 10.8837Z" fill="black"/>
</svg>
