<svg width="22" height="16" viewBox="0 0 22 16" fill="none" xmlns="http://www.w3.org/2000/svg">
<path d="M19.9176 0.730457C19.8916 0.730457 19.8916 0.650873 19.8656 0.650873C19.7876 0.650873 19.7096 0.571289 19.6056 0.571289H2.36761C2.28961 0.571289 2.21161 0.650873 2.10761 0.650873C2.08161 0.650873 2.08161 0.677401 2.05561 0.677401C1.24961 0.836568 0.599609 1.60588 0.599609 2.50783V14.0209C0.599609 14.9229 1.24961 15.6657 2.08161 15.7983C2.10761 15.7983 2.10761 15.8779 2.13361 15.8779C2.21161 15.8779 2.28961 15.9575 2.36761 15.9575H19.6316C19.7096 15.9575 19.7876 15.8779 19.8656 15.8779C19.8916 15.8779 19.8916 15.8514 19.9176 15.8514C20.7496 15.7187 21.3996 14.9494 21.3996 14.0475V2.50783C21.3996 1.60588 20.7496 0.863096 19.9176 0.730457ZM14.6136 8.26438L20.3596 3.03838V13.4904L14.6136 8.26438ZM19.6316 1.63241C19.8656 1.63241 20.0736 1.76504 20.2296 1.92421L10.9996 10.3336L1.76961 1.92421V1.89768C1.92561 1.73852 2.13361 1.60588 2.36761 1.60588H19.6316V1.63241ZM1.63961 3.03838L7.38561 8.26438L1.63961 13.4904V3.03838ZM2.36761 14.8964C2.13361 14.8964 1.92561 14.7637 1.76961 14.6046L8.00961 8.92758L10.6876 11.3681C10.7656 11.4477 10.8956 11.5008 10.9996 11.5008C11.1036 11.5008 11.2336 11.4477 11.3116 11.3681L13.9896 8.92758L20.2296 14.6311C20.0736 14.7902 19.8656 14.9229 19.6316 14.9229L2.36761 14.8964Z" fill="#E0E0E0"/>
</svg>
