<svg width="19" height="14" viewBox="0 0 19 14" fill="none" xmlns="http://www.w3.org/2000/svg">
<g clip-path="url(#clip0)">
<path d="M16.7607 0.561035H2.9529C1.72961 0.561035 0.734375 1.5419 0.734375 2.74749V11.953C0.734375 13.1586 1.72961 14.1394 2.9529 14.1394H16.7607C17.984 14.1394 18.9792 13.1586 18.9792 11.953V2.74749C18.9792 1.5419 17.984 0.561035 16.7607 0.561035ZM15.6977 1.29493L9.85176 5.9521L4.00583 1.29493H15.6977ZM15.9904 13.4055H3.71313V4.83501L9.61818 9.52315C9.75451 9.63139 9.94901 9.63139 10.0853 9.52315L15.9904 4.83501V13.4055H15.9904ZM18.2345 11.953C18.2345 12.7539 17.5733 13.4055 16.7607 13.4055H16.7351V4.06817C16.7351 3.92688 16.6528 3.79817 16.5235 3.73717C16.3941 3.67613 16.2408 3.69379 16.1292 3.7824L9.85176 8.76618L3.57433 3.7824C3.46265 3.69379 3.30928 3.67613 3.18004 3.73717C3.05068 3.79817 2.9684 3.92688 2.9684 4.06817V13.4055H2.95287C2.14022 13.4055 1.47906 12.7539 1.47906 11.953V2.74749C1.47906 1.98799 2.07373 1.36314 2.82822 1.30055L9.61771 6.70943C9.68595 6.76383 9.76887 6.79101 9.85176 6.79101C9.93468 6.79101 10.0176 6.76383 10.0858 6.70943L16.8762 1.29982C17.635 1.35811 18.2345 1.9849 18.2345 2.74745V11.953Z" fill="url(#paint0_linear)"/>
</g>
<defs>
<linearGradient id="paint0_linear" x1="9.85678" y1="0.561035" x2="9.85678" y2="14.1394" gradientUnits="userSpaceOnUse">
<stop stop-color="#AEFFF1"/>
<stop offset="1" stop-color="#D0EBFF"/>
</linearGradient>
<clipPath id="clip0">
<rect width="18.2448" height="13.3795" fill="white" transform="translate(0.734375 0.561035)"/>
</clipPath>
</defs>
</svg>
