<svg width="19" height="14" viewBox="0 0 19 14" fill="none" xmlns="http://www.w3.org/2000/svg">
<g clip-path="url(#clip0)">
<path d="M16.1359 0.831665H2.71665C1.52778 0.831665 0.560547 1.76017 0.560547 2.90141V11.6155C0.560547 12.7568 1.52778 13.6853 2.71665 13.6853H16.1359C17.3248 13.6853 18.292 12.7568 18.292 11.6155V2.90141C18.292 1.76017 17.3248 0.831665 16.1359 0.831665ZM15.1028 1.52639L9.42139 5.93496L3.73995 1.52639H15.1028ZM15.3873 12.9905H3.45549V4.8775L9.19438 9.31539C9.32688 9.41785 9.51591 9.41785 9.64841 9.31539L15.3873 4.8775V12.9905H15.3873ZM17.5683 11.6155C17.5683 12.3737 16.9257 12.9905 16.1359 12.9905H16.1111V4.15159C16.1111 4.01784 16.0311 3.896 15.9054 3.83825C15.7796 3.78047 15.6306 3.7972 15.5222 3.88107L9.42139 8.59882L3.32059 3.88107C3.21206 3.7972 3.063 3.78047 2.93739 3.83825C2.81168 3.896 2.73172 4.01784 2.73172 4.15159V12.9905H2.71662C1.92684 12.9905 1.28428 12.3737 1.28428 11.6155V2.90141C1.28428 2.18245 1.86222 1.59095 2.59547 1.53171L9.19393 6.65185C9.26025 6.70335 9.34084 6.72908 9.42139 6.72908C9.50198 6.72908 9.58254 6.70335 9.64886 6.65185L16.2481 1.53101C16.9856 1.5862 17.5683 2.17952 17.5683 2.90137V11.6155Z" fill="url(#paint0_linear)"/>
</g>
<defs>
<linearGradient id="paint0_linear" x1="9.42628" y1="0.831665" x2="9.42628" y2="13.6853" gradientUnits="userSpaceOnUse">
<stop stop-color="#379BE7"/>
<stop offset="1" stop-color="#1DE9C4"/>
</linearGradient>
<clipPath id="clip0">
<rect width="17.7315" height="12.6653" fill="white" transform="translate(0.560547 0.831665)"/>
</clipPath>
</defs>
</svg>
