<svg width="18" height="17" viewBox="0 0 18 17" fill="none" xmlns="http://www.w3.org/2000/svg">
<path d="M1.80322 10C1.80322 10 15.263 10 16.229 10C17.195 10 18 9.31818 18 8.5C18 7.68182 17.195 7 16.229 7H1.77102C0.805008 7 0 7.68182 0 8.5C0.0322004 9.31818 0.80501 10 1.80322 10Z" fill="white"/>
<path d="M1.584 16.997H16.68C17.4 16.997 18 16.422 18 15.732C18 15.042 17.4 14.467 16.68 14.467H1.584C0.864 14.467 0.264 15.042 0.264 15.732C0.264 16.445 0.864 16.997 1.584 16.997Z" fill="white"/>
<path d="M1.3733 3H16.6512C17.3869 3 18 2.31818 18 1.5C18 0.681818 17.3869 0 16.6512 0H1.34877C0.613079 0 2.87418e-07 0.681818 2.87418e-07 1.5C0.0245234 2.31818 0.613079 3 1.3733 3Z" fill="white"/>
</svg>
