<svg width="16" height="16" viewBox="0 0 16 16" fill="none" xmlns="http://www.w3.org/2000/svg">
<g clip-path="url(#clip0)">
<path d="M12.7962 0.298462H2.66393C1.99211 0.298462 1.34782 0.565338 0.872777 1.04038C0.397735 1.51542 0.130859 2.15972 0.130859 2.83153L0.130859 12.9638C0.130859 13.6356 0.397735 14.2799 0.872777 14.7549C1.34782 15.23 1.99211 15.4969 2.66393 15.4969H12.7962C13.468 15.4969 14.1123 15.23 14.5873 14.7549C15.0624 14.2799 15.3293 13.6356 15.3293 12.9638V2.83153C15.3293 2.15972 15.0624 1.51542 14.5873 1.04038C14.1123 0.565338 13.468 0.298462 12.7962 0.298462V0.298462ZM14.0627 12.9638C14.0627 13.2997 13.9293 13.6218 13.6918 13.8594C13.4542 14.0969 13.1321 14.2303 12.7962 14.2303H2.66393C2.32802 14.2303 2.00587 14.0969 1.76835 13.8594C1.53083 13.6218 1.39739 13.2997 1.39739 12.9638V2.83153C1.39739 2.49562 1.53083 2.17347 1.76835 1.93595C2.00587 1.69843 2.32802 1.56499 2.66393 1.56499H12.7962C13.1321 1.56499 13.4542 1.69843 13.6918 1.93595C13.9293 2.17347 14.0627 2.49562 14.0627 2.83153V12.9638Z" fill="url(#paint0_linear)"/>
<path d="M7.73026 4.09839C6.97878 4.09839 6.24416 4.32123 5.61932 4.73874C4.99448 5.15624 4.50748 5.74966 4.21989 6.44394C3.93231 7.13823 3.85707 7.9022 4.00367 8.63925C4.15028 9.3763 4.51216 10.0533 5.04354 10.5847C5.57493 11.1161 6.25195 11.478 6.989 11.6246C7.72605 11.7712 8.49002 11.6959 9.18431 11.4084C9.87859 11.1208 10.472 10.6338 10.8895 10.0089C11.307 9.38409 11.5299 8.64948 11.5299 7.89799C11.5299 6.89027 11.1296 5.92383 10.417 5.21127C9.70442 4.4987 8.73798 4.09839 7.73026 4.09839ZM7.73026 10.4311C7.22927 10.4311 6.73953 10.2825 6.32297 10.0042C5.90641 9.72582 5.58174 9.33021 5.39002 8.86735C5.1983 8.40449 5.14813 7.89518 5.24587 7.40381C5.34361 6.91244 5.58486 6.4611 5.93912 6.10684C6.29337 5.75258 6.74472 5.51133 7.23609 5.41359C7.72746 5.31585 8.23677 5.36602 8.69963 5.55774C9.16248 5.74946 9.5581 6.07413 9.83643 6.49069C10.1148 6.90725 10.2633 7.39699 10.2633 7.89799C10.2633 8.5698 9.99646 9.21409 9.52141 9.68914C9.04637 10.1642 8.40208 10.4311 7.73026 10.4311Z" fill="url(#paint1_linear)"/>
<path d="M11.8454 4.73159C12.37 4.73159 12.7953 4.3063 12.7953 3.78169C12.7953 3.25707 12.37 2.83179 11.8454 2.83179C11.3208 2.83179 10.8955 3.25707 10.8955 3.78169C10.8955 4.3063 11.3208 4.73159 11.8454 4.73159Z" fill="url(#paint2_linear)"/>
</g>
<defs>
<linearGradient id="paint0_linear" x1="7.73006" y1="0.298462" x2="7.73006" y2="15.4969" gradientUnits="userSpaceOnUse">
<stop stop-color="#379BE7"/>
<stop offset="1" stop-color="#1DE9C4"/>
</linearGradient>
<linearGradient id="paint1_linear" x1="7.73026" y1="4.09839" x2="7.73026" y2="11.6976" gradientUnits="userSpaceOnUse">
<stop stop-color="#379BE7"/>
<stop offset="1" stop-color="#1DE9C4"/>
</linearGradient>
<linearGradient id="paint2_linear" x1="11.8454" y1="2.83179" x2="11.8454" y2="4.73159" gradientUnits="userSpaceOnUse">
<stop stop-color="#379BE7"/>
<stop offset="1" stop-color="#1DE9C4"/>
</linearGradient>
<clipPath id="clip0">
<rect width="15.1984" height="15.1984" fill="white" transform="translate(0.130859 0.298462)"/>
</clipPath>
</defs>
</svg>
