<svg width="19" height="19" viewBox="0 0 19 19" fill="none" xmlns="http://www.w3.org/2000/svg">
<g clip-path="url(#clip0)">
<path d="M15.5722 0H3.40897C2.6025 0 1.82906 0.320369 1.25879 0.890631C0.688534 1.46089 0.368164 2.23433 0.368164 3.0408L0.368164 15.204C0.368164 16.0105 0.688534 16.7839 1.25879 17.3542C1.82906 17.9244 2.6025 18.2448 3.40897 18.2448H15.5722C16.3786 18.2448 17.1521 17.9244 17.7224 17.3542C18.2926 16.7839 18.613 16.0105 18.613 15.204V3.0408C18.613 2.23433 18.2926 1.46089 17.7224 0.890631C17.1521 0.320369 16.3786 0 15.5722 0V0ZM17.0926 15.204C17.0926 15.6073 16.9324 15.994 16.6473 16.2791C16.3621 16.5642 15.9754 16.7244 15.5722 16.7244H3.40897C3.00573 16.7244 2.61901 16.5642 2.33388 16.2791C2.04875 15.994 1.88857 15.6073 1.88857 15.204V3.0408C1.88857 2.63757 2.04875 2.25085 2.33388 1.96572C2.61901 1.68059 3.00573 1.5204 3.40897 1.5204H15.5722C15.9754 1.5204 16.3621 1.68059 16.6473 1.96572C16.9324 2.25085 17.0926 2.63757 17.0926 3.0408V15.204Z" fill="url(#paint0_linear)"/>
<path d="M9.48992 4.56091C8.5878 4.56091 7.70593 4.82842 6.95585 5.32961C6.20576 5.83081 5.62114 6.54317 5.27591 7.37662C4.93069 8.21007 4.84036 9.12718 5.01636 10.012C5.19235 10.8968 5.62676 11.7095 6.26466 12.3474C6.90255 12.9853 7.71528 13.4197 8.60007 13.5957C9.48486 13.7717 10.402 13.6813 11.2354 13.3361C12.0689 12.9909 12.7812 12.4063 13.2824 11.6562C13.7836 10.9061 14.0511 10.0242 14.0511 9.12212C14.0511 7.91241 13.5706 6.75225 12.7152 5.89686C11.8598 5.04147 10.6996 4.56091 9.48992 4.56091ZM9.48992 12.1629C8.8885 12.1629 8.3006 11.9846 7.80054 11.6505C7.30048 11.3163 6.91073 10.8414 6.68058 10.2858C6.45043 9.73015 6.39021 9.11874 6.50754 8.52889C6.62487 7.93903 6.91448 7.39721 7.33975 6.97194C7.76501 6.54668 8.30683 6.25707 8.89669 6.13974C9.48654 6.02241 10.0979 6.08263 10.6536 6.31278C11.2092 6.54293 11.6841 6.93268 12.0183 7.43274C12.3524 7.9328 12.5307 8.5207 12.5307 9.12212C12.5307 9.92859 12.2104 10.702 11.6401 11.2723C11.0698 11.8426 10.2964 12.1629 9.48992 12.1629Z" fill="url(#paint1_linear)"/>
<path d="M14.4313 5.3215C15.0611 5.3215 15.5716 4.81097 15.5716 4.18119C15.5716 3.55142 15.0611 3.04089 14.4313 3.04089C13.8015 3.04089 13.291 3.55142 13.291 4.18119C13.291 4.81097 13.8015 5.3215 14.4313 5.3215Z" fill="url(#paint2_linear)"/>
</g>
<defs>
<linearGradient id="paint0_linear" x1="9.49057" y1="0" x2="9.49057" y2="18.2448" gradientUnits="userSpaceOnUse">
<stop stop-color="#AEFFF1"/>
<stop offset="1" stop-color="#D0EBFF"/>
</linearGradient>
<linearGradient id="paint1_linear" x1="9.48992" y1="4.56091" x2="9.48992" y2="13.6833" gradientUnits="userSpaceOnUse">
<stop stop-color="#AEFFF1"/>
<stop offset="1" stop-color="#D0EBFF"/>
</linearGradient>
<linearGradient id="paint2_linear" x1="14.4313" y1="3.04089" x2="14.4313" y2="5.3215" gradientUnits="userSpaceOnUse">
<stop stop-color="#AEFFF1"/>
<stop offset="1" stop-color="#D0EBFF"/>
</linearGradient>
<clipPath id="clip0">
<rect width="18.2448" height="18.2448" fill="white" transform="translate(0.368164)"/>
</clipPath>
</defs>
</svg>
