<svg width="19" height="19" viewBox="0 0 19 19" fill="none" xmlns="http://www.w3.org/2000/svg">
<g clip-path="url(#clip0)">
<path d="M18.24 18.2444V18.2436H18.2446V11.5523C18.2446 8.27891 17.5399 5.75732 13.713 5.75732C11.8734 5.75732 10.6388 6.76687 10.1348 7.72396H10.0816V6.06292H6.45312V18.2436H10.2313V12.2122C10.2313 10.6241 10.5324 9.08852 12.499 9.08852C14.4368 9.08852 14.4656 10.9008 14.4656 12.3141V18.2444H18.24Z" fill="url(#paint0_linear)"/>
<path d="M0.300781 6.06384H4.08354V18.2445H0.300781V6.06384Z" fill="url(#paint1_linear)"/>
<path d="M2.1909 0C0.981419 0 0 0.981419 0 2.1909C0 3.40038 0.981419 4.40232 2.1909 4.40232C3.40038 4.40232 4.3818 3.40038 4.3818 2.1909C4.38104 0.981419 3.39962 0 2.1909 0V0Z" fill="url(#paint2_linear)"/>
</g>
<defs>
<linearGradient id="paint0_linear" x1="12.3489" y1="5.75732" x2="12.3489" y2="18.2444" gradientUnits="userSpaceOnUse">
<stop stop-color="#AEFFF1"/>
<stop offset="1" stop-color="#D0EBFF"/>
</linearGradient>
<linearGradient id="paint1_linear" x1="2.19216" y1="6.06384" x2="2.19216" y2="18.2445" gradientUnits="userSpaceOnUse">
<stop stop-color="#AEFFF1"/>
<stop offset="1" stop-color="#D0EBFF"/>
</linearGradient>
<linearGradient id="paint2_linear" x1="2.1909" y1="0" x2="2.1909" y2="4.40232" gradientUnits="userSpaceOnUse">
<stop stop-color="#AEFFF1"/>
<stop offset="1" stop-color="#D0EBFF"/>
</linearGradient>
<clipPath id="clip0">
<rect width="18.2448" height="18.2448" fill="white"/>
</clipPath>
</defs>
</svg>
