<svg width="20" height="21" viewBox="0 0 20 21" fill="none" xmlns="http://www.w3.org/2000/svg">
<g clip-path="url(#clip0)">
<path d="M6.66633 7.77783H5.39648V14.127H6.66633V7.77783Z" fill="#E0E0E0"/>
<path d="M5.39648 5.55533C5.39648 5.90599 5.68075 6.19025 6.0314 6.19025C6.38206 6.19025 6.66633 5.90599 6.66633 5.55533C6.66633 5.20467 6.38206 4.92041 6.0314 4.92041C5.68075 4.92041 5.39648 5.20467 5.39648 5.55533Z" fill="#E0E0E0"/>
<path d="M9.84113 11.7461V10.9524C9.84113 9.98418 10.6189 9.2064 11.5872 9.2064C12.5554 9.2064 13.3332 9.98418 13.3332 10.9524V14.127H14.603V10.9524C14.603 9.28577 13.2538 7.93656 11.5872 7.93656C10.9364 7.93656 10.3332 8.14291 9.84113 8.49212V7.77783H8.57129V10.9524V11.7461V14.127H9.84113V11.7461Z" fill="#E0E0E0"/>
<path d="M20 2.15869C20 1.05412 19.1046 0.158691 18 0.158691H2C0.895431 0.158691 0 1.05412 0 2.15869V18.1587C0 19.2633 0.895431 20.1587 2 20.1587H18C19.1046 20.1587 20 19.2633 20 18.1587V2.15869ZM18.7302 16.8889C18.7302 17.9934 17.8347 18.8889 16.7302 18.8889H3.26984C2.16527 18.8889 1.26984 17.9934 1.26984 16.8889V3.42853C1.26984 2.32396 2.16527 1.42853 3.26984 1.42853H16.7302C17.8347 1.42853 18.7302 2.32396 18.7302 3.42853V16.8889Z" fill="#E0E0E0"/>
</g>
<defs>
<clipPath id="clip0">
<rect width="20" height="20.1587" fill="white"/>
</clipPath>
</defs>
</svg>
