<svg width="463" height="529" viewBox="0 0 463 529" fill="none" xmlns="http://www.w3.org/2000/svg">
<g filter="url(#filter0_d)">
<rect x="14" y="161" width="435" height="350" rx="8" fill="white"/>
</g>
<g filter="url(#filter1_d)">
<path opacity="0.19" d="M230.296 199.705C264.033 199.705 291.383 194.826 291.383 188.807C291.383 182.788 264.033 177.909 230.296 177.909C196.559 177.909 169.209 182.788 169.209 188.807C169.209 194.826 196.559 199.705 230.296 199.705Z" fill="#272425"/>
<path d="M231 201C279.601 201 319 161.601 319 113C319 64.3989 279.601 25 231 25C182.399 25 143 64.3989 143 113C143 161.601 182.399 201 231 201Z" fill="white"/>
<path d="M232.252 10.252H230.252V80.7519H232.252V10.252Z" fill="#583C1C"/>
<path d="M232.156 12.4238C232.156 12.4238 250.11 10.5975 248.884 14.0738C247.658 17.55 260.323 17.8838 266.322 16.2173C266.322 16.2173 264.989 21.55 263.656 28.8825C262.322 36.215 241.992 31.8825 243.658 28.8825C245.325 25.8825 232.24 27.216 232.24 27.216L232.156 12.4238Z" fill="#A22330"/>
<path d="M207.256 124.506C197.255 101.381 233.63 89.2558 251.005 104.256" stroke="#A22330" stroke-width="1.25" stroke-dasharray="4 2"/>
<path d="M271.06 112.874L227.396 199.569H314.725L271.06 112.874Z" fill="#1C87F1"/>
<path opacity="0.14" d="M314.725 199.818L271.061 113.122V199.818H314.725Z" fill="#272425"/>
<path d="M231.443 75.3638V200.677H284.494L231.443 75.3638Z" fill="#1C87F1"/>
<path d="M188.434 109.685L144.77 196.38H232.098L188.434 109.685Z" fill="#136DC7"/>
<path opacity="0.14" d="M232.098 196.38L188.434 109.685V196.38H232.098Z" fill="#272425"/>
<path d="M231.377 56.252C230.211 56.2517 229.057 56.4795 227.98 56.9224C226.903 57.3653 225.925 58.0145 225.101 58.833C224.277 59.6515 223.623 60.6233 223.177 61.6928C222.731 62.7622 222.502 63.9085 222.502 65.066C222.502 69.9329 231.377 80.752 231.377 80.752C231.377 80.752 235.408 75.8366 238.03 71.1442C239.306 68.8745 240.252 66.6533 240.252 65.066C240.251 62.7285 239.316 60.4869 237.652 58.8341C235.988 57.1812 233.73 56.2525 231.377 56.252V56.252ZM231.377 69.0905C230.308 69.0974 229.278 68.6975 228.497 67.973C227.716 67.2484 227.245 66.2543 227.179 65.1951C227.114 64.1358 227.46 63.092 228.146 62.2782C228.832 61.4645 229.805 60.9427 230.867 60.8201C231.928 60.6975 232.997 60.9835 233.852 61.6193C234.708 62.255 235.285 63.1922 235.467 64.2381C235.648 65.284 235.418 66.359 234.826 67.2421C234.233 68.1253 233.323 68.7493 232.281 68.986C231.985 69.0563 231.681 69.0914 231.377 69.0905Z" fill="#0491EC"/>
<path d="M238.002 71.1564C235.385 75.843 231.361 80.7515 231.361 80.7515C231.361 80.7515 222.502 69.9467 222.502 65.0863C222.501 63.7766 222.795 62.4833 223.361 61.3008C223.928 60.1183 224.753 59.0765 225.777 58.2515C226.113 59.8437 226.659 61.6655 227.533 63.4244C227.273 64.0492 227.172 64.7283 227.239 65.4013C227.306 66.0743 227.539 66.7205 227.918 67.2825C228.296 67.8444 228.809 68.3048 229.409 68.6228C230.01 68.9408 230.681 69.1064 231.361 69.1051C231.665 69.106 231.968 69.071 232.264 69.0008C233.81 70.0509 235.7 70.8226 238.002 71.1564Z" fill="#0C6DAC"/>
<path d="M137.758 178C136.838 178 135.927 178.181 135.077 178.533C134.227 178.885 133.454 179.401 132.804 180.052C132.153 180.702 131.637 181.474 131.285 182.324C130.933 183.174 130.752 184.085 130.752 185.005C130.752 188.875 137.758 197.477 137.758 197.477C137.758 197.477 144.764 188.875 144.764 185.005C144.764 183.147 144.026 181.365 142.712 180.052C141.398 178.738 139.616 178 137.758 178V178ZM137.758 188.209C137.11 188.209 136.477 188.017 135.938 187.657C135.4 187.297 134.98 186.786 134.732 186.187C134.484 185.589 134.419 184.93 134.546 184.295C134.672 183.66 134.984 183.076 135.442 182.618C135.9 182.16 136.483 181.848 137.119 181.722C137.754 181.596 138.413 181.66 139.011 181.908C139.609 182.156 140.121 182.576 140.481 183.115C140.841 183.653 141.033 184.286 141.033 184.934C141.033 185.803 140.688 186.636 140.073 187.25C139.459 187.864 138.626 188.209 137.758 188.209V188.209Z" fill="#11486B"/>
<path d="M231.294 75.021L178.1 200.674H231.437V75.3605L231.294 75.021Z" fill="#2EB5DB"/>
<path opacity="0.14" d="M231.438 75.3589V200.672H284.488L231.438 75.3589Z" fill="#000911"/>
<path d="M233.003 79.3746C266.003 101.5 238.753 150.875 208.753 125.75" stroke="#A22330" stroke-width="1.25" stroke-dasharray="4 2"/>
<path d="M138.127 200.624C155.044 206.54 199.102 209.449 240.002 173.749C280.902 138.049 264.794 112.957 251.627 104.874" stroke="#A22330" stroke-width="1.25" stroke-dasharray="4 2"/>
</g>
<path d="M119.68 247.288C122.608 247.288 125.032 246.232 126.616 244.288L124.12 241.984C122.992 243.304 121.576 243.976 119.896 243.976C116.752 243.976 114.52 241.768 114.52 238.6C114.52 235.432 116.752 233.224 119.896 233.224C121.576 233.224 122.992 233.896 124.12 235.192L126.616 232.888C125.032 230.968 122.608 229.912 119.704 229.912C114.472 229.912 110.584 233.536 110.584 238.6C110.584 243.664 114.472 247.288 119.68 247.288ZM134.677 247.192C138.781 247.192 141.757 244.432 141.757 240.544C141.757 236.656 138.781 233.896 134.677 233.896C130.573 233.896 127.573 236.656 127.573 240.544C127.573 244.432 130.573 247.192 134.677 247.192ZM134.677 244.12C132.805 244.12 131.365 242.776 131.365 240.544C131.365 238.312 132.805 236.968 134.677 236.968C136.549 236.968 137.965 238.312 137.965 240.544C137.965 242.776 136.549 244.12 134.677 244.12ZM152.107 233.896C150.355 233.896 148.843 234.496 147.835 235.6V234.088H144.259V247H148.003V240.616C148.003 238.24 149.299 237.136 151.099 237.136C152.755 237.136 153.715 238.096 153.715 240.184V247H157.459V239.608C157.459 235.672 155.155 233.896 152.107 233.896ZM165.197 247.192C169.061 247.192 171.293 245.488 171.293 243.088C171.293 238 163.493 240.136 163.493 237.928C163.493 237.256 164.213 236.728 165.893 236.728C167.069 236.728 168.341 236.968 169.613 237.688L170.861 235.024C169.637 234.304 167.669 233.896 165.893 233.896C162.125 233.896 159.917 235.624 159.917 238.072C159.917 243.232 167.717 241.072 167.717 243.184C167.717 243.904 167.069 244.36 165.341 244.36C163.757 244.36 162.005 243.856 160.853 243.112L159.605 245.8C160.805 246.592 163.013 247.192 165.197 247.192ZM180.923 243.736C180.515 244.048 179.963 244.216 179.411 244.216C178.403 244.216 177.803 243.616 177.803 242.512V237.256H181.019V234.376H177.803V231.232H174.059V234.376H172.067V237.256H174.059V242.56C174.059 245.632 175.835 247.192 178.883 247.192C180.035 247.192 181.163 246.928 181.931 246.376L180.923 243.736ZM189.241 233.896C187.177 233.896 185.089 234.448 183.673 235.456L185.017 238.072C185.953 237.328 187.369 236.872 188.737 236.872C190.753 236.872 191.713 237.808 191.713 239.416H188.737C184.801 239.416 183.193 241 183.193 243.28C183.193 245.512 184.993 247.192 188.017 247.192C189.913 247.192 191.257 246.568 191.953 245.392V247H195.457V239.632C195.457 235.72 193.177 233.896 189.241 233.896ZM188.953 244.672C187.633 244.672 186.841 244.048 186.841 243.112C186.841 242.248 187.393 241.6 189.145 241.6H191.713V242.92C191.281 244.096 190.201 244.672 188.953 244.672ZM206.693 233.896C204.941 233.896 203.429 234.496 202.421 235.6V234.088H198.845V247H202.589V240.616C202.589 238.24 203.885 237.136 205.685 237.136C207.341 237.136 208.301 238.096 208.301 240.184V247H212.045V239.608C212.045 235.672 209.741 233.896 206.693 233.896ZM222.759 243.736C222.351 244.048 221.799 244.216 221.247 244.216C220.239 244.216 219.639 243.616 219.639 242.512V237.256H222.855V234.376H219.639V231.232H215.895V234.376H213.903V237.256H215.895V242.56C215.895 245.632 217.671 247.192 220.719 247.192C221.871 247.192 222.999 246.928 223.767 246.376L222.759 243.736ZM237.874 233.896C235.81 233.896 233.722 234.448 232.306 235.456L233.65 238.072C234.586 237.328 236.002 236.872 237.37 236.872C239.386 236.872 240.346 237.808 240.346 239.416H237.37C233.434 239.416 231.826 241 231.826 243.28C231.826 245.512 233.626 247.192 236.65 247.192C238.546 247.192 239.89 246.568 240.586 245.392V247H244.09V239.632C244.09 235.72 241.81 233.896 237.874 233.896ZM237.586 244.672C236.266 244.672 235.474 244.048 235.474 243.112C235.474 242.248 236.026 241.6 237.778 241.6H240.346V242.92C239.914 244.096 238.834 244.672 237.586 244.672ZM251.822 247.192C255.686 247.192 257.918 245.488 257.918 243.088C257.918 238 250.118 240.136 250.118 237.928C250.118 237.256 250.838 236.728 252.518 236.728C253.694 236.728 254.966 236.968 256.238 237.688L257.486 235.024C256.262 234.304 254.294 233.896 252.518 233.896C248.75 233.896 246.542 235.624 246.542 238.072C246.542 243.232 254.342 241.072 254.342 243.184C254.342 243.904 253.694 244.36 251.966 244.36C250.382 244.36 248.63 243.856 247.478 243.112L246.23 245.8C247.43 246.592 249.638 247.192 251.822 247.192ZM264.572 247.192C268.436 247.192 270.668 245.488 270.668 243.088C270.668 238 262.868 240.136 262.868 237.928C262.868 237.256 263.588 236.728 265.268 236.728C266.444 236.728 267.716 236.968 268.988 237.688L270.236 235.024C269.012 234.304 267.044 233.896 265.268 233.896C261.5 233.896 259.292 235.624 259.292 238.072C259.292 243.232 267.092 241.072 267.092 243.184C267.092 243.904 266.444 244.36 264.716 244.36C263.132 244.36 261.38 243.856 260.228 243.112L258.98 245.8C260.18 246.592 262.388 247.192 264.572 247.192ZM274.85 232.288C276.242 232.288 277.178 231.376 277.178 230.128C277.178 228.976 276.242 228.112 274.85 228.112C273.458 228.112 272.522 229.024 272.522 230.2C272.522 231.376 273.458 232.288 274.85 232.288ZM272.978 247H276.722V234.088H272.978V247ZM284.541 247.192C288.405 247.192 290.637 245.488 290.637 243.088C290.637 238 282.837 240.136 282.837 237.928C282.837 237.256 283.557 236.728 285.237 236.728C286.413 236.728 287.685 236.968 288.957 237.688L290.205 235.024C288.981 234.304 287.013 233.896 285.237 233.896C281.469 233.896 279.261 235.624 279.261 238.072C279.261 243.232 287.061 241.072 287.061 243.184C287.061 243.904 286.413 244.36 284.685 244.36C283.101 244.36 281.349 243.856 280.197 243.112L278.949 245.8C280.149 246.592 282.357 247.192 284.541 247.192ZM300.267 243.736C299.859 244.048 299.307 244.216 298.755 244.216C297.747 244.216 297.147 243.616 297.147 242.512V237.256H300.363V234.376H297.147V231.232H293.403V234.376H291.411V237.256H293.403V242.56C293.403 245.632 295.179 247.192 298.227 247.192C299.379 247.192 300.507 246.928 301.275 246.376L300.267 243.736ZM308.584 233.896C306.52 233.896 304.432 234.448 303.016 235.456L304.36 238.072C305.296 237.328 306.712 236.872 308.08 236.872C310.096 236.872 311.056 237.808 311.056 239.416H308.08C304.144 239.416 302.536 241 302.536 243.28C302.536 245.512 304.336 247.192 307.36 247.192C309.256 247.192 310.6 246.568 311.296 245.392V247H314.8V239.632C314.8 235.72 312.52 233.896 308.584 233.896ZM308.296 244.672C306.976 244.672 306.184 244.048 306.184 243.112C306.184 242.248 306.736 241.6 308.488 241.6H311.056V242.92C310.624 244.096 309.544 244.672 308.296 244.672ZM326.037 233.896C324.285 233.896 322.773 234.496 321.765 235.6V234.088H318.189V247H321.933V240.616C321.933 238.24 323.229 237.136 325.029 237.136C326.685 237.136 327.645 238.096 327.645 240.184V247H331.389V239.608C331.389 235.672 329.085 233.896 326.037 233.896ZM341.163 247.192C343.875 247.192 346.011 245.992 346.947 243.928L344.043 242.344C343.347 243.592 342.315 244.12 341.139 244.12C339.243 244.12 337.755 242.8 337.755 240.544C337.755 238.288 339.243 236.968 341.139 236.968C342.315 236.968 343.347 237.52 344.043 238.744L346.947 237.184C346.011 235.072 343.875 233.896 341.163 233.896C336.963 233.896 333.963 236.656 333.963 240.544C333.963 244.432 336.963 247.192 341.163 247.192ZM361.587 240.592C361.587 236.44 358.659 233.896 354.867 233.896C350.931 233.896 347.979 236.68 347.979 240.544C347.979 244.384 350.883 247.192 355.347 247.192C357.675 247.192 359.475 246.472 360.675 245.104L358.683 242.944C357.795 243.784 356.811 244.192 355.443 244.192C353.475 244.192 352.107 243.208 351.747 241.6H361.515C361.539 241.288 361.587 240.88 361.587 240.592ZM354.891 236.728C356.571 236.728 357.795 237.784 358.059 239.416H351.699C351.963 237.76 353.187 236.728 354.891 236.728ZM147.736 272.736C147.328 273.048 146.776 273.216 146.224 273.216C145.216 273.216 144.616 272.616 144.616 271.512V266.256H147.832V263.376H144.616V260.232H140.872V263.376H138.88V266.256H140.872V271.56C140.872 274.632 142.648 276.192 145.696 276.192C146.848 276.192 147.976 275.928 148.744 275.376L147.736 272.736ZM158.693 262.896C157.037 262.896 155.597 263.424 154.589 264.432V258.192H150.845V276H154.589V269.616C154.589 267.24 155.885 266.136 157.685 266.136C159.341 266.136 160.301 267.096 160.301 269.184V276H164.045V268.608C164.045 264.672 161.741 262.896 158.693 262.896ZM171.015 264.792V263.088H167.439V276H171.183V269.904C171.183 267.432 172.551 266.304 174.615 266.304C174.903 266.304 175.143 266.328 175.455 266.352V262.896C173.463 262.896 171.927 263.544 171.015 264.792ZM183.708 276.192C187.812 276.192 190.788 273.432 190.788 269.544C190.788 265.656 187.812 262.896 183.708 262.896C179.604 262.896 176.604 265.656 176.604 269.544C176.604 273.432 179.604 276.192 183.708 276.192ZM183.708 273.12C181.836 273.12 180.396 271.776 180.396 269.544C180.396 267.312 181.836 265.968 183.708 265.968C185.58 265.968 186.996 267.312 186.996 269.544C186.996 271.776 185.58 273.12 183.708 273.12ZM202.555 263.088V269.472C202.555 271.848 201.307 272.952 199.579 272.952C197.923 272.952 196.963 271.992 196.963 269.832V263.088H193.219V270.384C193.219 274.368 195.499 276.192 198.739 276.192C200.323 276.192 201.763 275.592 202.747 274.464V276H206.299V263.088H202.555ZM219.535 263.088V264.744C218.551 263.496 217.063 262.896 215.263 262.896C211.687 262.896 208.807 265.368 208.807 269.136C208.807 272.904 211.687 275.376 215.263 275.376C216.943 275.376 218.359 274.848 219.343 273.768V274.32C219.343 276.648 218.191 277.848 215.551 277.848C213.895 277.848 212.095 277.272 210.991 276.384L209.503 279.072C211.015 280.248 213.391 280.848 215.839 280.848C220.495 280.848 223.087 278.64 223.087 273.84V263.088H219.535ZM216.007 272.304C214.039 272.304 212.599 271.032 212.599 269.136C212.599 267.24 214.039 265.968 216.007 265.968C217.975 265.968 219.391 267.24 219.391 269.136C219.391 271.032 217.975 272.304 216.007 272.304ZM234.42 262.896C232.764 262.896 231.324 263.424 230.316 264.432V258.192H226.572V276H230.316V269.616C230.316 267.24 231.612 266.136 233.412 266.136C235.068 266.136 236.028 267.096 236.028 269.184V276H239.772V268.608C239.772 264.672 237.468 262.896 234.42 262.896ZM249.45 276.192C253.554 276.192 256.53 273.432 256.53 269.544C256.53 265.656 253.554 262.896 249.45 262.896C245.346 262.896 242.346 265.656 242.346 269.544C242.346 273.432 245.346 276.192 249.45 276.192ZM249.45 273.12C247.578 273.12 246.138 271.776 246.138 269.544C246.138 267.312 247.578 265.968 249.45 265.968C251.322 265.968 252.738 267.312 252.738 269.544C252.738 271.776 251.322 273.12 249.45 273.12ZM268.297 263.088V269.472C268.297 271.848 267.049 272.952 265.321 272.952C263.665 272.952 262.705 271.992 262.705 269.832V263.088H258.961V270.384C258.961 274.368 261.241 276.192 264.481 276.192C266.065 276.192 267.505 275.592 268.489 274.464V276H272.041V263.088H268.297ZM282.829 272.736C282.421 273.048 281.869 273.216 281.317 273.216C280.309 273.216 279.709 272.616 279.709 271.512V266.256H282.925V263.376H279.709V260.232H275.965V263.376H273.973V266.256H275.965V271.56C275.965 274.632 277.741 276.192 280.789 276.192C281.941 276.192 283.069 275.928 283.837 275.376L282.829 272.736ZM300.056 272.736C299.648 273.048 299.096 273.216 298.544 273.216C297.536 273.216 296.936 272.616 296.936 271.512V266.256H300.152V263.376H296.936V260.232H293.192V263.376H291.2V266.256H293.192V271.56C293.192 274.632 294.968 276.192 298.016 276.192C299.168 276.192 300.296 275.928 301.064 275.376L300.056 272.736ZM311.014 262.896C309.358 262.896 307.918 263.424 306.91 264.432V258.192H303.166V276H306.91V269.616C306.91 267.24 308.206 266.136 310.006 266.136C311.662 266.136 312.622 267.096 312.622 269.184V276H316.366V268.608C316.366 264.672 314.062 262.896 311.014 262.896ZM332.548 269.592C332.548 265.44 329.62 262.896 325.828 262.896C321.892 262.896 318.94 265.68 318.94 269.544C318.94 273.384 321.844 276.192 326.308 276.192C328.636 276.192 330.436 275.472 331.636 274.104L329.644 271.944C328.756 272.784 327.772 273.192 326.404 273.192C324.436 273.192 323.068 272.208 322.708 270.6H332.476C332.5 270.288 332.548 269.88 332.548 269.592ZM325.852 265.728C327.532 265.728 328.756 266.784 329.02 268.416H322.66C322.924 266.76 324.148 265.728 325.852 265.728ZM191.693 290.288C193.085 290.288 194.021 289.376 194.021 288.128C194.021 286.976 193.085 286.112 191.693 286.112C190.301 286.112 189.365 287.024 189.365 288.2C189.365 289.376 190.301 290.288 191.693 290.288ZM188.693 309.848C191.813 309.848 193.565 307.952 193.565 304.976V292.088H189.821V305C189.821 306.272 189.221 306.872 188.285 306.872C187.661 306.872 187.109 306.704 186.701 306.416L185.693 309.128C186.413 309.632 187.541 309.848 188.693 309.848ZM203.157 305.192C207.261 305.192 210.237 302.432 210.237 298.544C210.237 294.656 207.261 291.896 203.157 291.896C199.053 291.896 196.053 294.656 196.053 298.544C196.053 302.432 199.053 305.192 203.157 305.192ZM203.157 302.12C201.285 302.12 199.845 300.776 199.845 298.544C199.845 296.312 201.285 294.968 203.157 294.968C205.029 294.968 206.445 296.312 206.445 298.544C206.445 300.776 205.029 302.12 203.157 302.12ZM222.363 292.088V298.472C222.363 300.848 221.115 301.952 219.387 301.952C217.731 301.952 216.771 300.992 216.771 298.832V292.088H213.027V299.384C213.027 303.368 215.307 305.192 218.547 305.192C220.131 305.192 221.571 304.592 222.555 303.464V305H226.107V292.088H222.363ZM233.152 293.792V292.088H229.576V305H233.32V298.904C233.32 296.432 234.688 295.304 236.752 295.304C237.04 295.304 237.28 295.328 237.592 295.352V291.896C235.6 291.896 234.064 292.544 233.152 293.792ZM247.666 291.896C245.914 291.896 244.402 292.496 243.394 293.6V292.088H239.818V305H243.562V298.616C243.562 296.24 244.858 295.136 246.658 295.136C248.314 295.136 249.274 296.096 249.274 298.184V305H253.018V297.608C253.018 293.672 250.714 291.896 247.666 291.896ZM269.201 298.592C269.201 294.44 266.273 291.896 262.481 291.896C258.545 291.896 255.593 294.68 255.593 298.544C255.593 302.384 258.497 305.192 262.961 305.192C265.289 305.192 267.089 304.472 268.289 303.104L266.297 300.944C265.409 301.784 264.425 302.192 263.057 302.192C261.089 302.192 259.721 301.208 259.361 299.6H269.129C269.153 299.288 269.201 298.88 269.201 298.592ZM262.505 294.728C264.185 294.728 265.409 295.784 265.673 297.416H259.313C259.577 295.76 260.801 294.728 262.505 294.728ZM280.675 292.088L277.027 300.848L273.403 292.088H269.539L275.131 305.096L275.083 305.216C274.579 306.368 274.003 306.824 272.971 306.824C272.227 306.824 271.435 306.512 270.859 306.008L269.491 308.672C270.331 309.416 271.771 309.848 273.091 309.848C275.419 309.848 277.195 308.912 278.443 305.792L284.275 292.088H280.675Z" fill="#136DC7"/>
<path d="M106.218 352H108.318L101.958 338H99.9782L93.6382 352H95.6982L97.2382 348.5H104.678L106.218 352ZM97.9382 346.9L100.958 340.04L103.978 346.9H97.9382ZM113.069 352.12C115.889 352.12 117.649 350.9 117.649 348.98C117.649 344.86 110.929 346.9 110.929 344.4C110.929 343.56 111.749 342.94 113.429 342.94C114.469 342.94 115.529 343.16 116.489 343.78L117.309 342.26C116.389 341.66 114.829 341.3 113.449 341.3C110.729 341.3 109.029 342.58 109.029 344.48C109.029 348.7 115.729 346.64 115.729 349.02C115.729 349.92 114.989 350.46 113.209 350.46C111.829 350.46 110.389 350 109.489 349.36L108.689 350.88C109.569 351.58 111.309 352.12 113.069 352.12ZM123.089 352.12C125.909 352.12 127.669 350.9 127.669 348.98C127.669 344.86 120.949 346.9 120.949 344.4C120.949 343.56 121.769 342.94 123.449 342.94C124.489 342.94 125.549 343.16 126.509 343.78L127.329 342.26C126.409 341.66 124.849 341.3 123.469 341.3C120.749 341.3 119.049 342.58 119.049 344.48C119.049 348.7 125.749 346.64 125.749 349.02C125.749 349.92 125.009 350.46 123.229 350.46C121.849 350.46 120.409 350 119.509 349.36L118.709 350.88C119.589 351.58 121.329 352.12 123.089 352.12ZM131.028 339.36C131.788 339.36 132.328 338.8 132.328 338.08C132.328 337.4 131.768 336.86 131.028 336.86C130.288 336.86 129.728 337.42 129.728 338.12C129.728 338.82 130.288 339.36 131.028 339.36ZM130.068 352H131.988V341.4H130.068V352ZM138.694 352.12C141.514 352.12 143.274 350.9 143.274 348.98C143.274 344.86 136.554 346.9 136.554 344.4C136.554 343.56 137.374 342.94 139.054 342.94C140.094 342.94 141.154 343.16 142.114 343.78L142.934 342.26C142.014 341.66 140.454 341.3 139.074 341.3C136.354 341.3 134.654 342.58 134.654 344.48C134.654 348.7 141.354 346.64 141.354 349.02C141.354 349.92 140.614 350.46 138.834 350.46C137.454 350.46 136.014 350 135.114 349.36L134.314 350.88C135.194 351.58 136.934 352.12 138.694 352.12ZM151.034 350C150.634 350.32 150.094 350.5 149.534 350.5C148.474 350.5 147.874 349.86 147.874 348.72V342.98H150.914V341.4H147.874V339.08H145.954V341.4H144.154V342.98H145.954V348.8C145.954 350.94 147.174 352.12 149.314 352.12C150.174 352.12 151.054 351.88 151.634 351.38L151.034 350ZM157.815 341.3C156.115 341.3 154.535 341.78 153.435 342.66L154.235 344.1C155.055 343.4 156.335 342.96 157.595 342.96C159.495 342.96 160.435 343.9 160.435 345.52V345.9H157.395C154.235 345.9 153.135 347.3 153.135 349C153.135 350.84 154.655 352.12 157.055 352.12C158.715 352.12 159.895 351.56 160.535 350.6V352H162.355V345.6C162.355 342.7 160.715 341.3 157.815 341.3ZM157.375 350.64C155.915 350.64 155.035 349.98 155.035 348.92C155.035 348.02 155.575 347.28 157.475 347.28H160.435V348.76C159.955 349.98 158.815 350.64 157.375 350.64ZM171.568 341.3C169.888 341.3 168.528 341.92 167.748 343V341.4H165.908V352H167.828V346.54C167.828 344.24 169.148 343.02 171.188 343.02C173.008 343.02 174.048 344.04 174.048 346.12V352H175.968V345.9C175.968 342.78 174.148 341.3 171.568 341.3ZM184.2 352.12C186.1 352.12 187.68 351.32 188.52 349.84L187.06 348.92C186.38 349.96 185.34 350.44 184.18 350.44C182.1 350.44 180.54 349 180.54 346.7C180.54 344.44 182.1 342.98 184.18 342.98C185.34 342.98 186.38 343.46 187.06 344.5L188.52 343.56C187.68 342.08 186.1 341.3 184.2 341.3C180.94 341.3 178.6 343.54 178.6 346.7C178.6 349.86 180.94 352.12 184.2 352.12ZM200.429 346.76C200.429 343.5 198.249 341.3 195.189 341.3C192.129 341.3 189.869 343.56 189.869 346.7C189.869 349.86 192.149 352.12 195.569 352.12C197.329 352.12 198.789 351.52 199.749 350.4L198.689 349.16C197.909 350.02 196.869 350.44 195.629 350.44C193.529 350.44 192.029 349.2 191.789 347.34H200.389C200.409 347.16 200.429 346.92 200.429 346.76ZM195.189 342.92C197.049 342.92 198.389 344.18 198.589 345.96H191.789C191.989 344.16 193.349 342.92 195.189 342.92ZM213.826 350C213.426 350.32 212.886 350.5 212.326 350.5C211.266 350.5 210.666 349.86 210.666 348.72V342.98H213.706V341.4H210.666V339.08H208.746V341.4H206.946V342.98H208.746V348.8C208.746 350.94 209.966 352.12 212.106 352.12C212.966 352.12 213.846 351.88 214.426 351.38L213.826 350ZM222.408 341.3C220.788 341.3 219.468 341.88 218.668 342.9V337.16H216.748V352H218.668V346.54C218.668 344.24 219.988 343.02 222.028 343.02C223.848 343.02 224.888 344.04 224.888 346.12V352H226.808V345.9C226.808 342.78 224.988 341.3 222.408 341.3ZM232.201 343.18V341.4H230.361V352H232.281V346.72C232.281 344.4 233.561 343.14 235.621 343.14C235.761 343.14 235.901 343.14 236.061 343.16V341.3C234.201 341.3 232.881 341.94 232.201 343.18ZM242.87 352.12C246.05 352.12 248.37 349.86 248.37 346.7C248.37 343.54 246.05 341.3 242.87 341.3C239.69 341.3 237.35 343.54 237.35 346.7C237.35 349.86 239.69 352.12 242.87 352.12ZM242.87 350.44C240.83 350.44 239.29 348.96 239.29 346.7C239.29 344.44 240.83 342.98 242.87 342.98C244.91 342.98 246.43 344.44 246.43 346.7C246.43 348.96 244.91 350.44 242.87 350.44ZM258.985 341.4V346.88C258.985 349.16 257.705 350.4 255.705 350.4C253.885 350.4 252.845 349.36 252.845 347.28V341.4H250.925V347.5C250.925 350.62 252.745 352.12 255.485 352.12C256.985 352.12 258.305 351.5 259.085 350.4V352H260.905V341.4H258.985ZM272.88 341.4V343.04C271.98 341.88 270.54 341.3 268.96 341.3C265.9 341.3 263.58 343.36 263.58 346.42C263.58 349.48 265.9 351.56 268.96 351.56C270.48 351.56 271.86 351.02 272.78 349.92V350.76C272.78 353.16 271.64 354.32 269.14 354.32C267.58 354.32 266.04 353.78 265.06 352.94L264.14 354.42C265.3 355.46 267.26 356 269.2 356C272.8 356 274.7 354.3 274.7 350.56V341.4H272.88ZM269.18 349.88C267.04 349.88 265.52 348.46 265.52 346.42C265.52 344.36 267.04 342.98 269.18 342.98C271.3 342.98 272.82 344.36 272.82 346.42C272.82 348.46 271.3 349.88 269.18 349.88ZM284.029 341.3C282.409 341.3 281.089 341.88 280.289 342.9V337.16H278.369V352H280.289V346.54C280.289 344.24 281.609 343.02 283.649 343.02C285.469 343.02 286.509 344.04 286.509 346.12V352H288.429V345.9C288.429 342.78 286.609 341.3 284.029 341.3ZM301.213 341.3C299.513 341.3 297.933 341.78 296.833 342.66L297.633 344.1C298.453 343.4 299.733 342.96 300.993 342.96C302.893 342.96 303.833 343.9 303.833 345.52V345.9H300.793C297.633 345.9 296.533 347.3 296.533 349C296.533 350.84 298.053 352.12 300.453 352.12C302.113 352.12 303.293 351.56 303.933 350.6V352H305.753V345.6C305.753 342.7 304.113 341.3 301.213 341.3ZM300.773 350.64C299.313 350.64 298.433 349.98 298.433 348.92C298.433 348.02 298.973 347.28 300.873 347.28H303.833V348.76C303.353 349.98 302.213 350.64 300.773 350.64ZM309.306 352H311.226V337.16H309.306V352ZM314.892 352H316.812V337.16H314.892V352ZM333.349 341.4L329.689 349.88L325.989 341.4H323.989L328.669 351.98L328.329 352.72C327.809 353.94 327.229 354.36 326.309 354.36C325.589 354.36 324.929 354.08 324.409 353.58L323.589 355.02C324.249 355.66 325.289 356 326.309 356C327.929 356 329.149 355.3 330.089 353.06L335.229 341.4H333.349ZM341.268 352.12C344.448 352.12 346.768 349.86 346.768 346.7C346.768 343.54 344.448 341.3 341.268 341.3C338.088 341.3 335.748 343.54 335.748 346.7C335.748 349.86 338.088 352.12 341.268 352.12ZM341.268 350.44C339.228 350.44 337.688 348.96 337.688 346.7C337.688 344.44 339.228 342.98 341.268 342.98C343.308 342.98 344.828 344.44 344.828 346.7C344.828 348.96 343.308 350.44 341.268 350.44ZM357.384 341.4V346.88C357.384 349.16 356.104 350.4 354.104 350.4C352.284 350.4 351.244 349.36 351.244 347.28V341.4H349.324V347.5C349.324 350.62 351.144 352.12 353.884 352.12C355.384 352.12 356.704 351.5 357.484 350.4V352H359.304V341.4H357.384ZM364.799 343.18V341.4H362.959V352H364.879V346.72C364.879 344.4 366.159 343.14 368.219 343.14C368.359 343.14 368.499 343.14 368.659 343.16V341.3C366.799 341.3 365.479 341.94 364.799 343.18ZM64.1705 376.12C66.0705 376.12 67.6505 375.32 68.4905 373.84L67.0305 372.92C66.3505 373.96 65.3105 374.44 64.1505 374.44C62.0705 374.44 60.5105 373 60.5105 370.7C60.5105 368.44 62.0705 366.98 64.1505 366.98C65.3105 366.98 66.3505 367.46 67.0305 368.5L68.4905 367.56C67.6505 366.08 66.0705 365.3 64.1705 365.3C60.9105 365.3 58.5705 367.54 58.5705 370.7C58.5705 373.86 60.9105 376.12 64.1705 376.12ZM75.36 376.12C78.54 376.12 80.86 373.86 80.86 370.7C80.86 367.54 78.54 365.3 75.36 365.3C72.18 365.3 69.84 367.54 69.84 370.7C69.84 373.86 72.18 376.12 75.36 376.12ZM75.36 374.44C73.32 374.44 71.78 372.96 71.78 370.7C71.78 368.44 73.32 366.98 75.36 366.98C77.4 366.98 78.92 368.44 78.92 370.7C78.92 372.96 77.4 374.44 75.36 374.44ZM83.5153 376H85.4353V361.16H83.5153V376ZM89.1013 376H91.0213V361.16H89.1013V376ZM104.267 370.76C104.267 367.5 102.087 365.3 99.0272 365.3C95.9672 365.3 93.7072 367.56 93.7072 370.7C93.7072 373.86 95.9872 376.12 99.4072 376.12C101.167 376.12 102.627 375.52 103.587 374.4L102.527 373.16C101.747 374.02 100.707 374.44 99.4672 374.44C97.3672 374.44 95.8672 373.2 95.6272 371.34H104.227C104.247 371.16 104.267 370.92 104.267 370.76ZM99.0272 366.92C100.887 366.92 102.227 368.18 102.427 369.96H95.6272C95.8272 368.16 97.1872 366.92 99.0272 366.92ZM115.253 365.4V367.04C114.353 365.88 112.913 365.3 111.333 365.3C108.273 365.3 105.953 367.36 105.953 370.42C105.953 373.48 108.273 375.56 111.333 375.56C112.853 375.56 114.233 375.02 115.153 373.92V374.76C115.153 377.16 114.013 378.32 111.513 378.32C109.953 378.32 108.413 377.78 107.433 376.94L106.513 378.42C107.673 379.46 109.633 380 111.573 380C115.173 380 117.073 378.3 117.073 374.56V365.4H115.253ZM111.553 373.88C109.413 373.88 107.893 372.46 107.893 370.42C107.893 368.36 109.413 366.98 111.553 366.98C113.673 366.98 115.193 368.36 115.193 370.42C115.193 372.46 113.673 373.88 111.553 373.88ZM130.322 370.76C130.322 367.5 128.142 365.3 125.082 365.3C122.022 365.3 119.762 367.56 119.762 370.7C119.762 373.86 122.042 376.12 125.462 376.12C127.222 376.12 128.682 375.52 129.642 374.4L128.582 373.16C127.802 374.02 126.762 374.44 125.522 374.44C123.422 374.44 121.922 373.2 121.682 371.34H130.282C130.302 371.16 130.322 370.92 130.322 370.76ZM125.082 366.92C126.942 366.92 128.282 368.18 128.482 369.96H121.682C121.882 368.16 123.242 366.92 125.082 366.92ZM147.939 370.76C147.939 367.5 145.759 365.3 142.699 365.3C139.639 365.3 137.379 367.56 137.379 370.7C137.379 373.86 139.659 376.12 143.079 376.12C144.839 376.12 146.299 375.52 147.259 374.4L146.199 373.16C145.419 374.02 144.379 374.44 143.139 374.44C141.039 374.44 139.539 373.2 139.299 371.34H147.899C147.919 371.16 147.939 370.92 147.939 370.76ZM142.699 366.92C144.559 366.92 145.899 368.18 146.099 369.96H139.299C139.499 368.16 140.859 366.92 142.699 366.92ZM156.265 365.3C154.585 365.3 153.225 365.92 152.445 367V365.4H150.605V376H152.525V370.54C152.525 368.24 153.845 367.02 155.885 367.02C157.705 367.02 158.745 368.04 158.745 370.12V376H160.665V369.9C160.665 366.78 158.845 365.3 156.265 365.3ZM172.357 361.16V367C171.477 365.86 170.157 365.3 168.657 365.3C165.557 365.3 163.297 367.46 163.297 370.7C163.297 373.94 165.557 376.12 168.657 376.12C170.217 376.12 171.577 375.52 172.437 374.32V376H174.277V361.16H172.357ZM168.817 374.44C166.777 374.44 165.237 372.96 165.237 370.7C165.237 368.44 166.777 366.98 168.817 366.98C170.837 366.98 172.377 368.44 172.377 370.7C172.377 372.96 170.837 374.44 168.817 374.44ZM187.49 370.76C187.49 367.5 185.31 365.3 182.25 365.3C179.19 365.3 176.93 367.56 176.93 370.7C176.93 373.86 179.21 376.12 182.63 376.12C184.39 376.12 185.85 375.52 186.81 374.4L185.75 373.16C184.97 374.02 183.93 374.44 182.69 374.44C180.59 374.44 179.09 373.2 178.85 371.34H187.45C187.47 371.16 187.49 370.92 187.49 370.76ZM182.25 366.92C184.11 366.92 185.45 368.18 185.65 369.96H178.85C179.05 368.16 180.41 366.92 182.25 366.92ZM193.723 365.3C192.023 365.3 190.443 365.78 189.343 366.66L190.143 368.1C190.963 367.4 192.243 366.96 193.503 366.96C195.403 366.96 196.343 367.9 196.343 369.52V369.9H193.303C190.143 369.9 189.043 371.3 189.043 373C189.043 374.84 190.563 376.12 192.963 376.12C194.623 376.12 195.803 375.56 196.443 374.6V376H198.263V369.6C198.263 366.7 196.623 365.3 193.723 365.3ZM193.283 374.64C191.823 374.64 190.943 373.98 190.943 372.92C190.943 372.02 191.483 371.28 193.383 371.28H196.343V372.76C195.863 373.98 194.723 374.64 193.283 374.64ZM209.121 365.4L205.401 373.9L201.761 365.4H199.761L204.401 376H206.361L211.001 365.4H209.121ZM217.04 376.12C220.22 376.12 222.54 373.86 222.54 370.7C222.54 367.54 220.22 365.3 217.04 365.3C213.86 365.3 211.52 367.54 211.52 370.7C211.52 373.86 213.86 376.12 217.04 376.12ZM217.04 374.44C215 374.44 213.46 372.96 213.46 370.7C213.46 368.44 215 366.98 217.04 366.98C219.08 366.98 220.6 368.44 220.6 370.7C220.6 372.96 219.08 374.44 217.04 374.44ZM233.155 365.4V370.88C233.155 373.16 231.875 374.4 229.875 374.4C228.055 374.4 227.015 373.36 227.015 371.28V365.4H225.095V371.5C225.095 374.62 226.915 376.12 229.655 376.12C231.155 376.12 232.475 375.5 233.255 374.4V376H235.075V365.4H233.155ZM240.57 367.18V365.4H238.73V376H240.65V370.72C240.65 368.4 241.93 367.14 243.99 367.14C244.13 367.14 244.27 367.14 244.43 367.16V365.3C242.57 365.3 241.25 365.94 240.57 367.18ZM247.452 368.04C248.172 368.04 248.772 367.46 248.772 366.66C248.772 365.86 248.172 365.3 247.452 365.3C246.712 365.3 246.092 365.86 246.092 366.66C246.092 367.46 246.712 368.04 247.452 368.04ZM247.452 376.12C248.172 376.12 248.772 375.54 248.772 374.74C248.772 373.94 248.172 373.38 247.452 373.38C246.712 373.38 246.092 373.94 246.092 374.74C246.092 375.54 246.712 376.12 247.452 376.12ZM263.434 376.16C265.614 376.16 267.494 375.4 268.774 373.96L267.474 372.7C266.394 373.84 265.074 374.38 263.534 374.38C260.374 374.38 258.034 372.1 258.034 369C258.034 365.9 260.374 363.62 263.534 363.62C265.074 363.62 266.394 364.14 267.474 365.28L268.774 364.02C267.494 362.58 265.614 361.84 263.454 361.84C259.194 361.84 256.034 364.86 256.034 369C256.034 373.14 259.194 376.16 263.434 376.16ZM275.438 376.12C278.618 376.12 280.938 373.86 280.938 370.7C280.938 367.54 278.618 365.3 275.438 365.3C272.258 365.3 269.918 367.54 269.918 370.7C269.918 373.86 272.258 376.12 275.438 376.12ZM275.438 374.44C273.398 374.44 271.858 372.96 271.858 370.7C271.858 368.44 273.398 366.98 275.438 366.98C277.478 366.98 278.998 368.44 278.998 370.7C278.998 372.96 277.478 374.44 275.438 374.44ZM291.673 361.16V367C290.793 365.86 289.473 365.3 287.973 365.3C284.873 365.3 282.613 367.46 282.613 370.7C282.613 373.94 284.873 376.12 287.973 376.12C289.533 376.12 290.893 375.52 291.753 374.32V376H293.593V361.16H291.673ZM288.133 374.44C286.093 374.44 284.553 372.96 284.553 370.7C284.553 368.44 286.093 366.98 288.133 366.98C290.153 366.98 291.693 368.44 291.693 370.7C291.693 372.96 290.153 374.44 288.133 374.44ZM298.186 363.36C298.946 363.36 299.486 362.8 299.486 362.08C299.486 361.4 298.926 360.86 298.186 360.86C297.446 360.86 296.886 361.42 296.886 362.12C296.886 362.82 297.446 363.36 298.186 363.36ZM297.226 376H299.146V365.4H297.226V376ZM302.812 376H304.732V361.16H302.812V376ZM315.898 365.4L312.238 373.88L308.538 365.4H306.538L311.218 375.98L310.878 376.72C310.358 377.94 309.778 378.36 308.858 378.36C308.138 378.36 307.478 378.08 306.958 377.58L306.138 379.02C306.798 379.66 307.838 380 308.858 380C310.478 380 311.698 379.3 312.638 377.06L317.778 365.4H315.898ZM325.223 374C324.823 374.32 324.283 374.5 323.723 374.5C322.663 374.5 322.063 373.86 322.063 372.72V366.98H325.103V365.4H322.063V363.08H320.143V365.4H318.343V366.98H320.143V372.8C320.143 374.94 321.363 376.12 323.503 376.12C324.363 376.12 325.243 375.88 325.823 375.38L325.223 374ZM329.104 363.36C329.864 363.36 330.404 362.8 330.404 362.08C330.404 361.4 329.844 360.86 329.104 360.86C328.364 360.86 327.804 361.42 327.804 362.12C327.804 362.82 328.364 363.36 329.104 363.36ZM328.144 376H330.064V365.4H328.144V376ZM338.35 376.12C340.25 376.12 341.83 375.32 342.67 373.84L341.21 372.92C340.53 373.96 339.49 374.44 338.33 374.44C336.25 374.44 334.69 373 334.69 370.7C334.69 368.44 336.25 366.98 338.33 366.98C339.49 366.98 340.53 367.46 341.21 368.5L342.67 367.56C341.83 366.08 340.25 365.3 338.35 365.3C335.09 365.3 332.75 367.54 332.75 370.7C332.75 373.86 335.09 376.12 338.35 376.12ZM348.196 376.12C351.016 376.12 352.776 374.9 352.776 372.98C352.776 368.86 346.056 370.9 346.056 368.4C346.056 367.56 346.876 366.94 348.556 366.94C349.596 366.94 350.656 367.16 351.616 367.78L352.436 366.26C351.516 365.66 349.956 365.3 348.576 365.3C345.856 365.3 344.156 366.58 344.156 368.48C344.156 372.7 350.856 370.64 350.856 373.02C350.856 373.92 350.116 374.46 348.336 374.46C346.956 374.46 345.516 374 344.616 373.36L343.816 374.88C344.696 375.58 346.436 376.12 348.196 376.12ZM361.507 363.36C362.267 363.36 362.807 362.8 362.807 362.08C362.807 361.4 362.247 360.86 361.507 360.86C360.767 360.86 360.207 361.42 360.207 362.12C360.207 362.82 360.767 363.36 361.507 363.36ZM360.547 376H362.467V365.4H360.547V376ZM369.173 376.12C371.993 376.12 373.753 374.9 373.753 372.98C373.753 368.86 367.033 370.9 367.033 368.4C367.033 367.56 367.853 366.94 369.533 366.94C370.573 366.94 371.633 367.16 372.593 367.78L373.413 366.26C372.493 365.66 370.933 365.3 369.553 365.3C366.833 365.3 365.133 366.58 365.133 368.48C365.133 372.7 371.833 370.64 371.833 373.02C371.833 373.92 371.093 374.46 369.312 374.46C367.933 374.46 366.493 374 365.593 373.36L364.793 374.88C365.673 375.58 367.413 376.12 369.173 376.12ZM385.383 365.3C383.683 365.3 382.103 365.78 381.003 366.66L381.803 368.1C382.623 367.4 383.903 366.96 385.163 366.96C387.063 366.96 388.003 367.9 388.003 369.52V369.9H384.963C381.803 369.9 380.703 371.3 380.703 373C380.703 374.84 382.223 376.12 384.623 376.12C386.283 376.12 387.463 375.56 388.103 374.6V376H389.923V369.6C389.923 366.7 388.283 365.3 385.383 365.3ZM384.943 374.64C383.483 374.64 382.603 373.98 382.603 372.92C382.603 372.02 383.143 371.28 385.043 371.28H388.003V372.76C387.523 373.98 386.383 374.64 384.943 374.64ZM399.136 365.3C397.456 365.3 396.096 365.92 395.316 367V365.4H393.476V376H395.396V370.54C395.396 368.24 396.716 367.02 398.756 367.02C400.576 367.02 401.616 368.04 401.616 370.12V376H403.536V369.9C403.536 366.78 401.716 365.3 399.136 365.3ZM74.514 389.3C72.814 389.3 71.234 389.78 70.134 390.66L70.934 392.1C71.754 391.4 73.034 390.96 74.294 390.96C76.194 390.96 77.134 391.9 77.134 393.52V393.9H74.094C70.934 393.9 69.834 395.3 69.834 397C69.834 398.84 71.354 400.12 73.754 400.12C75.414 400.12 76.594 399.56 77.234 398.6V400H79.054V393.6C79.054 390.7 77.414 389.3 74.514 389.3ZM74.074 398.64C72.614 398.64 71.734 397.98 71.734 396.92C71.734 396.02 72.274 395.28 74.174 395.28H77.134V396.76C76.654 397.98 75.514 398.64 74.074 398.64ZM82.6071 400H84.5271V385.16H82.6071V400ZM88.193 400H90.113V385.16H88.193V400ZM93.099 395.34H98.479V393.68H93.099V395.34ZM102.395 387.36C103.155 387.36 103.695 386.8 103.695 386.08C103.695 385.4 103.135 384.86 102.395 384.86C101.655 384.86 101.095 385.42 101.095 386.12C101.095 386.82 101.655 387.36 102.395 387.36ZM101.435 400H103.355V389.4H101.435V400ZM112.681 389.3C111.001 389.3 109.641 389.92 108.861 391V389.4H107.021V400H108.941V394.54C108.941 392.24 110.261 391.02 112.301 391.02C114.121 391.02 115.161 392.04 115.161 394.12V400H117.081V393.9C117.081 390.78 115.261 389.3 112.681 389.3ZM119.954 395.34H125.334V393.68H119.954V395.34ZM133.026 400.12C136.206 400.12 138.526 397.86 138.526 394.7C138.526 391.54 136.206 389.3 133.026 389.3C129.846 389.3 127.506 391.54 127.506 394.7C127.506 397.86 129.846 400.12 133.026 400.12ZM133.026 398.44C130.986 398.44 129.446 396.96 129.446 394.7C129.446 392.44 130.986 390.98 133.026 390.98C135.066 390.98 136.586 392.44 136.586 394.7C136.586 396.96 135.066 398.44 133.026 398.44ZM146.841 389.3C145.161 389.3 143.801 389.92 143.021 391V389.4H141.181V400H143.101V394.54C143.101 392.24 144.421 391.02 146.461 391.02C148.281 391.02 149.321 392.04 149.321 394.12V400H151.241V393.9C151.241 390.78 149.421 389.3 146.841 389.3ZM164.433 394.76C164.433 391.5 162.253 389.3 159.193 389.3C156.133 389.3 153.873 391.56 153.873 394.7C153.873 397.86 156.153 400.12 159.573 400.12C161.333 400.12 162.793 399.52 163.753 398.4L162.693 397.16C161.913 398.02 160.873 398.44 159.633 398.44C157.533 398.44 156.033 397.2 155.793 395.34H164.393C164.413 395.16 164.433 394.92 164.433 394.76ZM159.193 390.92C161.053 390.92 162.393 392.18 162.593 393.96H155.793C155.993 392.16 157.353 390.92 159.193 390.92ZM175.51 400.12C178.33 400.12 180.09 398.9 180.09 396.98C180.09 392.86 173.37 394.9 173.37 392.4C173.37 391.56 174.19 390.94 175.87 390.94C176.91 390.94 177.97 391.16 178.93 391.78L179.75 390.26C178.83 389.66 177.27 389.3 175.89 389.3C173.17 389.3 171.47 390.58 171.47 392.48C171.47 396.7 178.17 394.64 178.17 397.02C178.17 397.92 177.43 398.46 175.65 398.46C174.27 398.46 172.83 398 171.93 397.36L171.13 398.88C172.01 399.58 173.75 400.12 175.51 400.12ZM187.03 400.12C190.21 400.12 192.53 397.86 192.53 394.7C192.53 391.54 190.21 389.3 187.03 389.3C183.85 389.3 181.51 391.54 181.51 394.7C181.51 397.86 183.85 400.12 187.03 400.12ZM187.03 398.44C184.99 398.44 183.45 396.96 183.45 394.7C183.45 392.44 184.99 390.98 187.03 390.98C189.07 390.98 190.59 392.44 190.59 394.7C190.59 396.96 189.07 398.44 187.03 398.44ZM203.145 389.4V394.88C203.145 397.16 201.865 398.4 199.865 398.4C198.045 398.4 197.005 397.36 197.005 395.28V389.4H195.085V395.5C195.085 398.62 196.905 400.12 199.645 400.12C201.145 400.12 202.465 399.5 203.245 398.4V400H205.065V389.4H203.145ZM210.56 391.18V389.4H208.72V400H210.64V394.72C210.64 392.4 211.92 391.14 213.98 391.14C214.12 391.14 214.26 391.14 214.42 391.16V389.3C212.56 389.3 211.24 389.94 210.56 391.18ZM221.309 400.12C223.209 400.12 224.789 399.32 225.629 397.84L224.169 396.92C223.489 397.96 222.449 398.44 221.289 398.44C219.209 398.44 217.649 397 217.649 394.7C217.649 392.44 219.209 390.98 221.289 390.98C222.449 390.98 223.489 391.46 224.169 392.5L225.629 391.56C224.789 390.08 223.209 389.3 221.309 389.3C218.049 389.3 215.709 391.54 215.709 394.7C215.709 397.86 218.049 400.12 221.309 400.12ZM237.539 394.76C237.539 391.5 235.359 389.3 232.299 389.3C229.239 389.3 226.979 391.56 226.979 394.7C226.979 397.86 229.259 400.12 232.679 400.12C234.439 400.12 235.899 399.52 236.859 398.4L235.799 397.16C235.019 398.02 233.979 398.44 232.739 398.44C230.639 398.44 229.139 397.2 228.899 395.34H237.499C237.519 395.16 237.539 394.92 237.539 394.76ZM232.299 390.92C234.159 390.92 235.499 392.18 235.699 393.96H228.899C229.099 392.16 230.459 390.92 232.299 390.92ZM246.536 387.36C247.296 387.36 247.836 386.8 247.836 386.08C247.836 385.4 247.276 384.86 246.536 384.86C245.796 384.86 245.236 385.42 245.236 386.12C245.236 386.82 245.796 387.36 246.536 387.36ZM245.576 400H247.496V389.4H245.576V400ZM256.822 389.3C255.142 389.3 253.782 389.92 253.002 391V389.4H251.162V400H253.082V394.54C253.082 392.24 254.402 391.02 256.442 391.02C258.262 391.02 259.302 392.04 259.302 394.12V400H261.222V393.9C261.222 390.78 259.402 389.3 256.822 389.3ZM274.686 400.12C277.866 400.12 280.186 397.86 280.186 394.7C280.186 391.54 277.866 389.3 274.686 389.3C271.506 389.3 269.166 391.54 269.166 394.7C269.166 397.86 271.506 400.12 274.686 400.12ZM274.686 398.44C272.646 398.44 271.106 396.96 271.106 394.7C271.106 392.44 272.646 390.98 274.686 390.98C276.726 390.98 278.246 392.44 278.246 394.7C278.246 396.96 276.726 398.44 274.686 398.44ZM288.501 389.3C286.821 389.3 285.461 389.92 284.681 391V389.4H282.841V400H284.761V394.54C284.761 392.24 286.081 391.02 288.121 391.02C289.941 391.02 290.981 392.04 290.981 394.12V400H292.901V393.9C292.901 390.78 291.081 389.3 288.501 389.3ZM296.455 400H298.375V385.16H296.455V400ZM303.001 387.36C303.761 387.36 304.301 386.8 304.301 386.08C304.301 385.4 303.741 384.86 303.001 384.86C302.261 384.86 301.701 385.42 301.701 386.12C301.701 386.82 302.261 387.36 303.001 387.36ZM302.041 400H303.961V389.4H302.041V400ZM313.287 389.3C311.607 389.3 310.247 389.92 309.467 391V389.4H307.627V400H309.547V394.54C309.547 392.24 310.867 391.02 312.907 391.02C314.727 391.02 315.767 392.04 315.767 394.12V400H317.687V393.9C317.687 390.78 315.867 389.3 313.287 389.3ZM330.879 394.76C330.879 391.5 328.699 389.3 325.639 389.3C322.579 389.3 320.319 391.56 320.319 394.7C320.319 397.86 322.599 400.12 326.019 400.12C327.779 400.12 329.239 399.52 330.199 398.4L329.139 397.16C328.359 398.02 327.319 398.44 326.079 398.44C323.979 398.44 322.479 397.2 322.239 395.34H330.839C330.859 395.16 330.879 394.92 330.879 394.76ZM325.639 390.92C327.499 390.92 328.839 392.18 329.039 393.96H322.239C322.439 392.16 323.799 390.92 325.639 390.92ZM348.496 394.76C348.496 391.5 346.316 389.3 343.256 389.3C340.196 389.3 337.936 391.56 337.936 394.7C337.936 397.86 340.216 400.12 343.636 400.12C345.396 400.12 346.856 399.52 347.816 398.4L346.756 397.16C345.976 398.02 344.936 398.44 343.696 398.44C341.596 398.44 340.096 397.2 339.856 395.34H348.456C348.476 395.16 348.496 394.92 348.496 394.76ZM343.256 390.92C345.116 390.92 346.456 392.18 346.656 393.96H339.856C340.056 392.16 341.416 390.92 343.256 390.92ZM358.466 389.4L354.746 397.9L351.106 389.4H349.106L353.746 400H355.706L360.346 389.4H358.466ZM371.425 394.76C371.425 391.5 369.245 389.3 366.185 389.3C363.125 389.3 360.865 391.56 360.865 394.7C360.865 397.86 363.145 400.12 366.565 400.12C368.325 400.12 369.785 399.52 370.745 398.4L369.685 397.16C368.905 398.02 367.865 398.44 366.625 398.44C364.525 398.44 363.025 397.2 362.785 395.34H371.385C371.405 395.16 371.425 394.92 371.425 394.76ZM366.185 390.92C368.045 390.92 369.385 392.18 369.585 393.96H362.785C362.985 392.16 364.345 390.92 366.185 390.92ZM379.751 389.3C378.071 389.3 376.711 389.92 375.931 391V389.4H374.091V400H376.011V394.54C376.011 392.24 377.331 391.02 379.371 391.02C381.191 391.02 382.231 392.04 382.231 394.12V400H384.151V393.9C384.151 390.78 382.331 389.3 379.751 389.3ZM393.065 398C392.665 398.32 392.125 398.5 391.565 398.5C390.505 398.5 389.905 397.86 389.905 396.72V390.98H392.945V389.4H389.905V387.08H387.985V389.4H386.185V390.98H387.985V396.8C387.985 398.94 389.205 400.12 391.345 400.12C392.205 400.12 393.085 399.88 393.665 399.38L393.065 398ZM74.6757 413.3C72.8757 413.3 71.3957 414.06 70.5957 415.26C69.8957 413.94 68.5357 413.3 66.9157 413.3C65.3157 413.3 64.0157 413.9 63.2557 414.98V413.4H61.4157V424H63.3357V418.54C63.3357 416.24 64.5957 415.02 66.5157 415.02C68.2557 415.02 69.2557 416.04 69.2557 418.12V424H71.1757V418.54C71.1757 416.24 72.4357 415.02 74.3557 415.02C76.0957 415.02 77.0957 416.04 77.0957 418.12V424H79.0157V417.9C79.0157 414.78 77.2557 413.3 74.6757 413.3ZM86.4085 413.3C84.7085 413.3 83.1285 413.78 82.0285 414.66L82.8285 416.1C83.6485 415.4 84.9285 414.96 86.1885 414.96C88.0885 414.96 89.0285 415.9 89.0285 417.52V417.9H85.9885C82.8285 417.9 81.7285 419.3 81.7285 421C81.7285 422.84 83.2485 424.12 85.6485 424.12C87.3085 424.12 88.4885 423.56 89.1285 422.6V424H90.9485V417.6C90.9485 414.7 89.3085 413.3 86.4085 413.3ZM85.9685 422.64C84.5085 422.64 83.6285 421.98 83.6285 420.92C83.6285 420.02 84.1685 419.28 86.0685 419.28H89.0285V420.76C88.5485 421.98 87.4085 422.64 85.9685 422.64ZM100.162 413.3C98.4816 413.3 97.1216 413.92 96.3416 415V413.4H94.5016V424H96.4216V418.54C96.4216 416.24 97.7416 415.02 99.7816 415.02C101.602 415.02 102.642 416.04 102.642 418.12V424H104.562V417.9C104.562 414.78 102.742 413.3 100.162 413.3ZM111.975 413.3C110.275 413.3 108.695 413.78 107.595 414.66L108.395 416.1C109.215 415.4 110.495 414.96 111.755 414.96C113.655 414.96 114.595 415.9 114.595 417.52V417.9H111.555C108.395 417.9 107.295 419.3 107.295 421C107.295 422.84 108.815 424.12 111.215 424.12C112.875 424.12 114.055 423.56 114.695 422.6V424H116.515V417.6C116.515 414.7 114.875 413.3 111.975 413.3ZM111.535 422.64C110.075 422.64 109.195 421.98 109.195 420.92C109.195 420.02 109.735 419.28 111.635 419.28H114.595V420.76C114.115 421.98 112.975 422.64 111.535 422.64ZM128.447 413.4V415.04C127.547 413.88 126.107 413.3 124.527 413.3C121.467 413.3 119.147 415.36 119.147 418.42C119.147 421.48 121.467 423.56 124.527 423.56C126.047 423.56 127.427 423.02 128.347 421.92V422.76C128.347 425.16 127.207 426.32 124.707 426.32C123.147 426.32 121.607 425.78 120.627 424.94L119.707 426.42C120.867 427.46 122.827 428 124.767 428C128.367 428 130.267 426.3 130.267 422.56V413.4H128.447ZM124.747 421.88C122.607 421.88 121.087 420.46 121.087 418.42C121.087 416.36 122.607 414.98 124.747 414.98C126.867 414.98 128.387 416.36 128.387 418.42C128.387 420.46 126.867 421.88 124.747 421.88ZM143.515 418.76C143.515 415.5 141.335 413.3 138.275 413.3C135.215 413.3 132.955 415.56 132.955 418.7C132.955 421.86 135.235 424.12 138.655 424.12C140.415 424.12 141.875 423.52 142.835 422.4L141.775 421.16C140.995 422.02 139.955 422.44 138.715 422.44C136.615 422.44 135.115 421.2 134.875 419.34H143.475C143.495 419.16 143.515 418.92 143.515 418.76ZM138.275 414.92C140.135 414.92 141.475 416.18 141.675 417.96H134.875C135.075 416.16 136.435 414.92 138.275 414.92ZM159.441 413.3C157.641 413.3 156.161 414.06 155.361 415.26C154.661 413.94 153.301 413.3 151.681 413.3C150.081 413.3 148.781 413.9 148.021 414.98V413.4H146.181V424H148.101V418.54C148.101 416.24 149.361 415.02 151.281 415.02C153.021 415.02 154.021 416.04 154.021 418.12V424H155.941V418.54C155.941 416.24 157.201 415.02 159.121 415.02C160.861 415.02 161.861 416.04 161.861 418.12V424H163.781V417.9C163.781 414.78 162.021 413.3 159.441 413.3ZM176.953 418.76C176.953 415.5 174.773 413.3 171.713 413.3C168.653 413.3 166.393 415.56 166.393 418.7C166.393 421.86 168.673 424.12 172.093 424.12C173.853 424.12 175.313 423.52 176.273 422.4L175.213 421.16C174.433 422.02 173.393 422.44 172.153 422.44C170.053 422.44 168.553 421.2 168.313 419.34H176.913C176.933 419.16 176.953 418.92 176.953 418.76ZM171.713 414.92C173.573 414.92 174.913 416.18 175.113 417.96H168.313C168.513 416.16 169.873 414.92 171.713 414.92ZM185.279 413.3C183.599 413.3 182.239 413.92 181.459 415V413.4H179.619V424H181.539V418.54C181.539 416.24 182.859 415.02 184.899 415.02C186.719 415.02 187.759 416.04 187.759 418.12V424H189.679V417.9C189.679 414.78 187.859 413.3 185.279 413.3ZM198.592 422C198.192 422.32 197.652 422.5 197.092 422.5C196.032 422.5 195.432 421.86 195.432 420.72V414.98H198.472V413.4H195.432V411.08H193.512V413.4H191.712V414.98H193.512V420.8C193.512 422.94 194.732 424.12 196.872 424.12C197.732 424.12 198.612 423.88 199.192 423.38L198.592 422ZM202.189 421.38C201.429 421.38 200.849 421.94 200.849 422.74C200.849 423.34 201.189 423.8 201.689 423.98L200.949 426.96H202.209L203.149 424.18C203.409 423.44 203.489 423.14 203.489 422.74C203.489 421.96 202.949 421.38 202.189 421.38ZM215.491 410.62C216.051 410.62 216.571 410.82 216.971 411.12L217.551 409.66C217.011 409.24 216.211 409.04 215.391 409.04C213.131 409.04 211.891 410.4 211.891 412.46V413.4H210.091V414.98H211.891V424H213.811V414.98H216.851V413.4H213.771V412.48C213.771 411.26 214.351 410.62 215.491 410.62ZM222.103 415.18V413.4H220.263V424H222.183V418.72C222.183 416.4 223.463 415.14 225.523 415.14C225.663 415.14 225.803 415.14 225.963 415.16V413.3C224.103 413.3 222.783 413.94 222.103 415.18ZM237.812 418.76C237.812 415.5 235.632 413.3 232.572 413.3C229.512 413.3 227.252 415.56 227.252 418.7C227.252 421.86 229.532 424.12 232.952 424.12C234.712 424.12 236.172 423.52 237.132 422.4L236.072 421.16C235.292 422.02 234.252 422.44 233.012 422.44C230.912 422.44 229.412 421.2 229.172 419.34H237.772C237.792 419.16 237.812 418.92 237.812 418.76ZM232.572 414.92C234.432 414.92 235.772 416.18 235.972 417.96H229.172C229.372 416.16 230.732 414.92 232.572 414.92ZM250.058 418.76C250.058 415.5 247.878 413.3 244.818 413.3C241.758 413.3 239.498 415.56 239.498 418.7C239.498 421.86 241.778 424.12 245.198 424.12C246.958 424.12 248.418 423.52 249.378 422.4L248.318 421.16C247.538 422.02 246.498 422.44 245.258 422.44C243.158 422.44 241.658 421.2 241.418 419.34H250.018C250.038 419.16 250.058 418.92 250.058 418.76ZM244.818 414.92C246.678 414.92 248.018 416.18 248.218 417.96H241.418C241.618 416.16 242.978 414.92 244.818 414.92ZM259.935 415.18V413.4H258.095V424H260.015V418.72C260.015 416.4 261.295 415.14 263.355 415.14C263.495 415.14 263.635 415.14 263.795 415.16V413.3C261.935 413.3 260.615 413.94 259.935 415.18ZM275.644 418.76C275.644 415.5 273.464 413.3 270.404 413.3C267.344 413.3 265.084 415.56 265.084 418.7C265.084 421.86 267.364 424.12 270.784 424.12C272.544 424.12 274.004 423.52 274.964 422.4L273.904 421.16C273.124 422.02 272.084 422.44 270.844 422.44C268.744 422.44 267.244 421.2 267.004 419.34H275.604C275.624 419.16 275.644 418.92 275.644 418.76ZM270.404 414.92C272.264 414.92 273.604 416.18 273.804 417.96H267.004C267.204 416.16 268.564 414.92 270.404 414.92ZM281.35 424.12C284.17 424.12 285.93 422.9 285.93 420.98C285.93 416.86 279.21 418.9 279.21 416.4C279.21 415.56 280.03 414.94 281.71 414.94C282.75 414.94 283.81 415.16 284.77 415.78L285.59 414.26C284.67 413.66 283.11 413.3 281.73 413.3C279.01 413.3 277.31 414.58 277.31 416.48C277.31 420.7 284.01 418.64 284.01 421.02C284.01 421.92 283.27 422.46 281.49 422.46C280.11 422.46 278.67 422 277.77 421.36L276.97 422.88C277.85 423.58 279.59 424.12 281.35 424.12ZM292.87 424.12C296.05 424.12 298.37 421.86 298.37 418.7C298.37 415.54 296.05 413.3 292.87 413.3C289.69 413.3 287.35 415.54 287.35 418.7C287.35 421.86 289.69 424.12 292.87 424.12ZM292.87 422.44C290.83 422.44 289.29 420.96 289.29 418.7C289.29 416.44 290.83 414.98 292.87 414.98C294.91 414.98 296.43 416.44 296.43 418.7C296.43 420.96 294.91 422.44 292.87 422.44ZM308.985 413.4V418.88C308.985 421.16 307.705 422.4 305.705 422.4C303.885 422.4 302.845 421.36 302.845 419.28V413.4H300.925V419.5C300.925 422.62 302.745 424.12 305.485 424.12C306.985 424.12 308.305 423.5 309.085 422.4V424H310.905V413.4H308.985ZM316.4 415.18V413.4H314.56V424H316.48V418.72C316.48 416.4 317.76 415.14 319.82 415.14C319.96 415.14 320.1 415.14 320.26 415.16V413.3C318.4 413.3 317.08 413.94 316.4 415.18ZM327.149 424.12C329.049 424.12 330.629 423.32 331.469 421.84L330.009 420.92C329.329 421.96 328.289 422.44 327.129 422.44C325.049 422.44 323.489 421 323.489 418.7C323.489 416.44 325.049 414.98 327.129 414.98C328.289 414.98 329.329 415.46 330.009 416.5L331.469 415.56C330.629 414.08 329.049 413.3 327.149 413.3C323.889 413.3 321.549 415.54 321.549 418.7C321.549 421.86 323.889 424.12 327.149 424.12ZM343.379 418.76C343.379 415.5 341.199 413.3 338.139 413.3C335.079 413.3 332.819 415.56 332.819 418.7C332.819 421.86 335.099 424.12 338.519 424.12C340.279 424.12 341.739 423.52 342.699 422.4L341.639 421.16C340.859 422.02 339.819 422.44 338.579 422.44C336.479 422.44 334.979 421.2 334.739 419.34H343.339C343.359 419.16 343.379 418.92 343.379 418.76ZM338.139 414.92C339.999 414.92 341.339 416.18 341.539 417.96H334.739C334.939 416.16 336.299 414.92 338.139 414.92ZM349.085 424.12C351.905 424.12 353.665 422.9 353.665 420.98C353.665 416.86 346.945 418.9 346.945 416.4C346.945 415.56 347.765 414.94 349.445 414.94C350.485 414.94 351.545 415.16 352.505 415.78L353.325 414.26C352.405 413.66 350.845 413.3 349.465 413.3C346.745 413.3 345.045 414.58 345.045 416.48C345.045 420.7 351.745 418.64 351.745 421.02C351.745 421.92 351.005 422.46 349.225 422.46C347.845 422.46 346.405 422 345.505 421.36L344.705 422.88C345.585 423.58 347.325 424.12 349.085 424.12ZM356.544 421.38C355.784 421.38 355.204 421.94 355.204 422.74C355.204 423.34 355.544 423.8 356.044 423.98L355.304 426.96H356.564L357.504 424.18C357.764 423.44 357.844 423.14 357.844 422.74C357.844 421.96 357.304 421.38 356.544 421.38ZM369.826 413.3C368.126 413.3 366.546 413.78 365.446 414.66L366.246 416.1C367.066 415.4 368.346 414.96 369.606 414.96C371.506 414.96 372.446 415.9 372.446 417.52V417.9H369.406C366.246 417.9 365.146 419.3 365.146 421C365.146 422.84 366.666 424.12 369.066 424.12C370.726 424.12 371.906 423.56 372.546 422.6V424H374.366V417.6C374.366 414.7 372.726 413.3 369.826 413.3ZM369.386 422.64C367.926 422.64 367.046 421.98 367.046 420.92C367.046 420.02 367.586 419.28 369.486 419.28H372.446V420.76C371.966 421.98 370.826 422.64 369.386 422.64ZM383.58 413.3C381.9 413.3 380.54 413.92 379.76 415V413.4H377.92V424H379.84V418.54C379.84 416.24 381.16 415.02 383.2 415.02C385.02 415.02 386.06 416.04 386.06 418.12V424H387.98V417.9C387.98 414.78 386.16 413.3 383.58 413.3ZM399.671 409.16V415C398.791 413.86 397.471 413.3 395.971 413.3C392.871 413.3 390.611 415.46 390.611 418.7C390.611 421.94 392.871 424.12 395.971 424.12C397.531 424.12 398.891 423.52 399.751 422.32V424H401.591V409.16H399.671ZM396.131 422.44C394.091 422.44 392.551 420.96 392.551 418.7C392.551 416.44 394.091 414.98 396.131 414.98C398.151 414.98 399.691 416.44 399.691 418.7C399.691 420.96 398.151 422.44 396.131 422.44ZM72.2759 448.12C74.1759 448.12 75.7559 447.32 76.5959 445.84L75.1359 444.92C74.4559 445.96 73.4159 446.44 72.2559 446.44C70.1759 446.44 68.6159 445 68.6159 442.7C68.6159 440.44 70.1759 438.98 72.2559 438.98C73.4159 438.98 74.4559 439.46 75.1359 440.5L76.5959 439.56C75.7559 438.08 74.1759 437.3 72.2759 437.3C69.0159 437.3 66.6759 439.54 66.6759 442.7C66.6759 445.86 69.0159 448.12 72.2759 448.12ZM82.9417 437.3C81.2417 437.3 79.6617 437.78 78.5617 438.66L79.3617 440.1C80.1817 439.4 81.4617 438.96 82.7217 438.96C84.6217 438.96 85.5617 439.9 85.5617 441.52V441.9H82.5217C79.3617 441.9 78.2617 443.3 78.2617 445C78.2617 446.84 79.7817 448.12 82.1817 448.12C83.8417 448.12 85.0217 447.56 85.6617 446.6V448H87.4817V441.6C87.4817 438.7 85.8417 437.3 82.9417 437.3ZM82.5017 446.64C81.0417 446.64 80.1617 445.98 80.1617 444.92C80.1617 444.02 80.7017 443.28 82.6017 443.28H85.5617V444.76C85.0817 445.98 83.9417 446.64 82.5017 446.64ZM92.8748 439.18V437.4H91.0348V448H92.9548V442.72C92.9548 440.4 94.2348 439.14 96.2948 439.14C96.4348 439.14 96.5748 439.14 96.7348 439.16V437.3C94.8748 437.3 93.5548 437.94 92.8748 439.18ZM108.584 442.76C108.584 439.5 106.404 437.3 103.344 437.3C100.284 437.3 98.0236 439.56 98.0236 442.7C98.0236 445.86 100.304 448.12 103.724 448.12C105.484 448.12 106.944 447.52 107.904 446.4L106.844 445.16C106.064 446.02 105.024 446.44 103.784 446.44C101.684 446.44 100.184 445.2 99.9436 443.34H108.544C108.564 443.16 108.584 442.92 108.584 442.76ZM103.344 438.92C105.204 438.92 106.544 440.18 106.744 441.96H99.9436C100.144 440.16 101.504 438.92 103.344 438.92ZM120.83 442.76C120.83 439.5 118.65 437.3 115.59 437.3C112.53 437.3 110.27 439.56 110.27 442.7C110.27 445.86 112.55 448.12 115.97 448.12C117.73 448.12 119.19 447.52 120.15 446.4L119.09 445.16C118.31 446.02 117.27 446.44 116.03 446.44C113.93 446.44 112.43 445.2 112.19 443.34H120.79C120.81 443.16 120.83 442.92 120.83 442.76ZM115.59 438.92C117.45 438.92 118.79 440.18 118.99 441.96H112.19C112.39 440.16 113.75 438.92 115.59 438.92ZM125.336 439.18V437.4H123.496V448H125.416V442.72C125.416 440.4 126.696 439.14 128.756 439.14C128.896 439.14 129.036 439.14 129.196 439.16V437.3C127.336 437.3 126.016 437.94 125.336 439.18ZM138.91 439.18V437.4H137.07V448H138.99V442.72C138.99 440.4 140.27 439.14 142.33 439.14C142.47 439.14 142.61 439.14 142.77 439.16V437.3C140.91 437.3 139.59 437.94 138.91 439.18ZM149.579 448.12C152.759 448.12 155.079 445.86 155.079 442.7C155.079 439.54 152.759 437.3 149.579 437.3C146.399 437.3 144.059 439.54 144.059 442.7C144.059 445.86 146.399 448.12 149.579 448.12ZM149.579 446.44C147.539 446.44 145.999 444.96 145.999 442.7C145.999 440.44 147.539 438.98 149.579 438.98C151.619 438.98 153.139 440.44 153.139 442.7C153.139 444.96 151.619 446.44 149.579 446.44ZM161.496 437.3C159.796 437.3 158.216 437.78 157.116 438.66L157.916 440.1C158.736 439.4 160.016 438.96 161.276 438.96C163.176 438.96 164.116 439.9 164.116 441.52V441.9H161.076C157.916 441.9 156.816 443.3 156.816 445C156.816 446.84 158.336 448.12 160.736 448.12C162.396 448.12 163.576 447.56 164.216 446.6V448H166.036V441.6C166.036 438.7 164.396 437.3 161.496 437.3ZM161.056 446.64C159.596 446.64 158.716 445.98 158.716 444.92C158.716 444.02 159.256 443.28 161.156 443.28H164.116V444.76C163.636 445.98 162.496 446.64 161.056 446.64ZM177.728 433.16V439C176.848 437.86 175.528 437.3 174.028 437.3C170.928 437.3 168.668 439.46 168.668 442.7C168.668 445.94 170.928 448.12 174.028 448.12C175.588 448.12 176.948 447.52 177.808 446.32V448H179.648V433.16H177.728ZM174.188 446.44C172.148 446.44 170.608 444.96 170.608 442.7C170.608 440.44 172.148 438.98 174.188 438.98C176.208 438.98 177.748 440.44 177.748 442.7C177.748 444.96 176.208 446.44 174.188 446.44ZM196.541 437.3C194.741 437.3 193.261 438.06 192.461 439.26C191.761 437.94 190.401 437.3 188.781 437.3C187.181 437.3 185.881 437.9 185.121 438.98V437.4H183.281V448H185.201V442.54C185.201 440.24 186.461 439.02 188.381 439.02C190.121 439.02 191.121 440.04 191.121 442.12V448H193.041V442.54C193.041 440.24 194.301 439.02 196.221 439.02C197.961 439.02 198.961 440.04 198.961 442.12V448H200.881V441.9C200.881 438.78 199.121 437.3 196.541 437.3ZM208.274 437.3C206.574 437.3 204.994 437.78 203.894 438.66L204.694 440.1C205.514 439.4 206.794 438.96 208.054 438.96C209.954 438.96 210.894 439.9 210.894 441.52V441.9H207.854C204.694 441.9 203.594 443.3 203.594 445C203.594 446.84 205.114 448.12 207.514 448.12C209.174 448.12 210.354 447.56 210.994 446.6V448H212.814V441.6C212.814 438.7 211.174 437.3 208.274 437.3ZM207.834 446.64C206.374 446.64 205.494 445.98 205.494 444.92C205.494 444.02 206.034 443.28 207.934 443.28H210.894V444.76C210.414 445.98 209.274 446.64 207.834 446.64ZM221.987 437.3C220.427 437.3 219.067 437.9 218.207 439.08V437.4H216.367V451.88H218.287V446.4C219.167 447.54 220.487 448.12 221.987 448.12C225.087 448.12 227.347 445.96 227.347 442.7C227.347 439.46 225.087 437.3 221.987 437.3ZM221.827 446.44C219.807 446.44 218.267 444.96 218.267 442.7C218.267 440.46 219.807 438.98 221.827 438.98C223.867 438.98 225.407 440.46 225.407 442.7C225.407 444.96 223.867 446.44 221.827 446.44ZM240.731 446C240.331 446.32 239.791 446.5 239.231 446.5C238.171 446.5 237.571 445.86 237.571 444.72V438.98H240.611V437.4H237.571V435.08H235.651V437.4H233.851V438.98H235.651V444.8C235.651 446.94 236.871 448.12 239.011 448.12C239.871 448.12 240.751 447.88 241.331 447.38L240.731 446ZM247.84 448.12C251.02 448.12 253.34 445.86 253.34 442.7C253.34 439.54 251.02 437.3 247.84 437.3C244.66 437.3 242.32 439.54 242.32 442.7C242.32 445.86 244.66 448.12 247.84 448.12ZM247.84 446.44C245.8 446.44 244.26 444.96 244.26 442.7C244.26 440.44 245.8 438.98 247.84 438.98C249.88 438.98 251.4 440.44 251.4 442.7C251.4 444.96 249.88 446.44 247.84 446.44ZM269.687 437.4V439.04C268.787 437.88 267.347 437.3 265.767 437.3C262.707 437.3 260.387 439.36 260.387 442.42C260.387 445.48 262.707 447.56 265.767 447.56C267.287 447.56 268.667 447.02 269.587 445.92V446.76C269.587 449.16 268.447 450.32 265.947 450.32C264.387 450.32 262.847 449.78 261.867 448.94L260.947 450.42C262.107 451.46 264.067 452 266.007 452C269.607 452 271.507 450.3 271.507 446.56V437.4H269.687ZM265.987 445.88C263.847 445.88 262.327 444.46 262.327 442.42C262.327 440.36 263.847 438.98 265.987 438.98C268.107 438.98 269.627 440.36 269.627 442.42C269.627 444.46 268.107 445.88 265.987 445.88ZM283.135 437.4V442.88C283.135 445.16 281.855 446.4 279.855 446.4C278.035 446.4 276.995 445.36 276.995 443.28V437.4H275.075V443.5C275.075 446.62 276.895 448.12 279.635 448.12C281.135 448.12 282.455 447.5 283.235 446.4V448H285.055V437.4H283.135ZM289.671 435.36C290.431 435.36 290.971 434.8 290.971 434.08C290.971 433.4 290.411 432.86 289.671 432.86C288.931 432.86 288.371 433.42 288.371 434.12C288.371 434.82 288.931 435.36 289.671 435.36ZM288.711 448H290.631V437.4H288.711V448ZM302.377 433.16V439C301.497 437.86 300.177 437.3 298.677 437.3C295.577 437.3 293.317 439.46 293.317 442.7C293.317 445.94 295.577 448.12 298.677 448.12C300.237 448.12 301.597 447.52 302.457 446.32V448H304.297V433.16H302.377ZM298.837 446.44C296.797 446.44 295.257 444.96 295.257 442.7C295.257 440.44 296.797 438.98 298.837 438.98C300.857 438.98 302.397 440.44 302.397 442.7C302.397 444.96 300.857 446.44 298.837 446.44ZM317.509 442.76C317.509 439.5 315.329 437.3 312.269 437.3C309.209 437.3 306.949 439.56 306.949 442.7C306.949 445.86 309.229 448.12 312.649 448.12C314.409 448.12 315.869 447.52 316.829 446.4L315.769 445.16C314.989 446.02 313.949 446.44 312.709 446.44C310.609 446.44 309.109 445.2 308.869 443.34H317.469C317.489 443.16 317.509 442.92 317.509 442.76ZM312.269 438.92C314.129 438.92 315.469 440.18 315.669 441.96H308.869C309.069 440.16 310.429 438.92 312.269 438.92ZM330.167 448.12C332.067 448.12 333.647 447.32 334.487 445.84L333.027 444.92C332.347 445.96 331.307 446.44 330.147 446.44C328.067 446.44 326.507 445 326.507 442.7C326.507 440.44 328.067 438.98 330.147 438.98C331.307 438.98 332.347 439.46 333.027 440.5L334.487 439.56C333.647 438.08 332.067 437.3 330.167 437.3C326.907 437.3 324.567 439.54 324.567 442.7C324.567 445.86 326.907 448.12 330.167 448.12ZM341.356 448.12C344.536 448.12 346.856 445.86 346.856 442.7C346.856 439.54 344.536 437.3 341.356 437.3C338.176 437.3 335.836 439.54 335.836 442.7C335.836 445.86 338.176 448.12 341.356 448.12ZM341.356 446.44C339.316 446.44 337.776 444.96 337.776 442.7C337.776 440.44 339.316 438.98 341.356 438.98C343.396 438.98 344.916 440.44 344.916 442.7C344.916 444.96 343.396 446.44 341.356 446.44ZM349.511 448H351.431V433.16H349.511V448ZM355.097 448H357.017V433.16H355.097V448ZM370.263 442.76C370.263 439.5 368.083 437.3 365.023 437.3C361.963 437.3 359.703 439.56 359.703 442.7C359.703 445.86 361.983 448.12 365.403 448.12C367.163 448.12 368.623 447.52 369.583 446.4L368.523 445.16C367.743 446.02 366.703 446.44 365.463 446.44C363.363 446.44 361.863 445.2 361.623 443.34H370.223C370.243 443.16 370.263 442.92 370.263 442.76ZM365.023 438.92C366.883 438.92 368.223 440.18 368.423 441.96H361.623C361.823 440.16 363.183 438.92 365.023 438.92ZM381.249 437.4V439.04C380.349 437.88 378.909 437.3 377.329 437.3C374.269 437.3 371.949 439.36 371.949 442.42C371.949 445.48 374.269 447.56 377.329 447.56C378.849 447.56 380.229 447.02 381.149 445.92V446.76C381.149 449.16 380.009 450.32 377.509 450.32C375.949 450.32 374.409 449.78 373.429 448.94L372.509 450.42C373.669 451.46 375.629 452 377.569 452C381.169 452 383.069 450.3 383.069 446.56V437.4H381.249ZM377.549 445.88C375.409 445.88 373.889 444.46 373.889 442.42C373.889 440.36 375.409 438.98 377.549 438.98C379.669 438.98 381.189 440.36 381.189 442.42C381.189 444.46 379.669 445.88 377.549 445.88ZM396.318 442.76C396.318 439.5 394.138 437.3 391.078 437.3C388.018 437.3 385.758 439.56 385.758 442.7C385.758 445.86 388.038 448.12 391.458 448.12C393.218 448.12 394.678 447.52 395.638 446.4L394.578 445.16C393.798 446.02 392.758 446.44 391.518 446.44C389.418 446.44 387.918 445.2 387.678 443.34H396.278C396.298 443.16 396.318 442.92 396.318 442.76ZM391.078 438.92C392.938 438.92 394.278 440.18 394.478 441.96H387.678C387.878 440.16 389.238 438.92 391.078 438.92ZM189.28 472.12C192.1 472.12 193.86 470.9 193.86 468.98C193.86 464.86 187.14 466.9 187.14 464.4C187.14 463.56 187.96 462.94 189.64 462.94C190.68 462.94 191.74 463.16 192.7 463.78L193.52 462.26C192.6 461.66 191.04 461.3 189.66 461.3C186.94 461.3 185.24 462.58 185.24 464.48C185.24 468.7 191.94 466.64 191.94 469.02C191.94 469.92 191.2 470.46 189.42 470.46C188.04 470.46 186.6 470 185.7 469.36L184.9 470.88C185.78 471.58 187.52 472.12 189.28 472.12ZM201.619 470C201.219 470.32 200.679 470.5 200.119 470.5C199.059 470.5 198.459 469.86 198.459 468.72V462.98H201.499V461.4H198.459V459.08H196.539V461.4H194.739V462.98H196.539V468.8C196.539 470.94 197.759 472.12 199.899 472.12C200.759 472.12 201.639 471.88 202.219 471.38L201.619 470ZM212.501 461.4V466.88C212.501 469.16 211.221 470.4 209.221 470.4C207.401 470.4 206.361 469.36 206.361 467.28V461.4H204.441V467.5C204.441 470.62 206.261 472.12 209.001 472.12C210.501 472.12 211.821 471.5 212.601 470.4V472H214.421V461.4H212.501ZM226.156 457.16V463C225.276 461.86 223.956 461.3 222.456 461.3C219.356 461.3 217.096 463.46 217.096 466.7C217.096 469.94 219.356 472.12 222.456 472.12C224.016 472.12 225.376 471.52 226.236 470.32V472H228.076V457.16H226.156ZM222.616 470.44C220.576 470.44 219.036 468.96 219.036 466.7C219.036 464.44 220.576 462.98 222.616 462.98C224.636 462.98 226.176 464.44 226.176 466.7C226.176 468.96 224.636 470.44 222.616 470.44ZM241.289 466.76C241.289 463.5 239.109 461.3 236.049 461.3C232.989 461.3 230.729 463.56 230.729 466.7C230.729 469.86 233.009 472.12 236.429 472.12C238.189 472.12 239.649 471.52 240.609 470.4L239.549 469.16C238.769 470.02 237.729 470.44 236.489 470.44C234.389 470.44 232.889 469.2 232.649 467.34H241.249C241.269 467.16 241.289 466.92 241.289 466.76ZM236.049 462.92C237.909 462.92 239.249 464.18 239.449 465.96H232.649C232.849 464.16 234.209 462.92 236.049 462.92ZM249.615 461.3C247.935 461.3 246.575 461.92 245.795 463V461.4H243.955V472H245.875V466.54C245.875 464.24 247.195 463.02 249.235 463.02C251.055 463.02 252.095 464.04 252.095 466.12V472H254.015V465.9C254.015 462.78 252.195 461.3 249.615 461.3ZM262.928 470C262.528 470.32 261.988 470.5 261.428 470.5C260.368 470.5 259.768 469.86 259.768 468.72V462.98H262.808V461.4H259.768V459.08H257.848V461.4H256.048V462.98H257.848V468.8C257.848 470.94 259.068 472.12 261.208 472.12C262.068 472.12 262.948 471.88 263.528 471.38L262.928 470ZM268.889 472.12C271.709 472.12 273.469 470.9 273.469 468.98C273.469 464.86 266.749 466.9 266.749 464.4C266.749 463.56 267.569 462.94 269.249 462.94C270.289 462.94 271.349 463.16 272.309 463.78L273.129 462.26C272.209 461.66 270.649 461.3 269.269 461.3C266.549 461.3 264.849 462.58 264.849 464.48C264.849 468.7 271.549 466.64 271.549 469.02C271.549 469.92 270.809 470.46 269.029 470.46C267.649 470.46 266.209 470 265.309 469.36L264.509 470.88C265.389 471.58 267.129 472.12 268.889 472.12ZM276.329 472.12C277.049 472.12 277.649 471.54 277.649 470.74C277.649 469.94 277.049 469.38 276.329 469.38C275.589 469.38 274.969 469.94 274.969 470.74C274.969 471.54 275.589 472.12 276.329 472.12Z" fill="#333333"/>
<defs>
<filter id="filter0_d" x="0" y="151" width="463" height="378" filterUnits="userSpaceOnUse" color-interpolation-filters="sRGB">
<feFlood flood-opacity="0" result="BackgroundImageFix"/>
<feColorMatrix in="SourceAlpha" type="matrix" values="0 0 0 0 0 0 0 0 0 0 0 0 0 0 0 0 0 0 127 0"/>
<feOffset dy="4"/>
<feGaussianBlur stdDeviation="7"/>
<feColorMatrix type="matrix" values="0 0 0 0 0 0 0 0 0 0 0 0 0 0 0 0 0 0 0.15 0"/>
<feBlend mode="normal" in2="BackgroundImageFix" result="effect1_dropShadow"/>
<feBlend mode="normal" in="SourceGraphic" in2="effect1_dropShadow" result="shape"/>
</filter>
<filter id="filter1_d" x="110" y="-7" width="228" height="236.75" filterUnits="userSpaceOnUse" color-interpolation-filters="sRGB">
<feFlood flood-opacity="0" result="BackgroundImageFix"/>
<feColorMatrix in="SourceAlpha" type="matrix" values="0 0 0 0 0 0 0 0 0 0 0 0 0 0 0 0 0 0 127 0"/>
<feOffset dy="4"/>
<feGaussianBlur stdDeviation="7"/>
<feColorMatrix type="matrix" values="0 0 0 0 0 0 0 0 0 0 0 0 0 0 0 0 0 0 0.15 0"/>
<feBlend mode="normal" in2="BackgroundImageFix" result="effect1_dropShadow"/>
<feBlend mode="normal" in="SourceGraphic" in2="effect1_dropShadow" result="shape"/>
</filter>
</defs>
</svg>
