<svg width="360" height="541" viewBox="0 0 360 541" fill="none" xmlns="http://www.w3.org/2000/svg">
<g clip-path="url(#clip0)">
<rect width="360" height="541" fill="url(#paint0_radial)"/>
<line x1="21" y1="293.5" x2="336" y2="293.5" stroke="white"/>
<path d="M37.4691 83.0182C37.4693 83.4176 37.3461 83.808 37.1151 84.1402C36.8841 84.4723 36.5557 84.7312 36.1715 84.8841C35.7872 85.037 35.3643 85.0771 34.9564 84.9992C34.5484 84.9214 34.1737 84.729 33.8796 84.4466C33.5854 84.1642 33.3851 83.8044 33.304 83.4127C33.2229 83.021 33.2647 82.6149 33.4239 82.246C33.5832 81.877 33.8528 81.5617 34.1987 81.3399C34.5446 81.1181 34.9513 80.9998 35.3673 81C35.9247 81 36.4593 81.2126 36.8535 81.5911C37.2477 81.9696 37.4691 82.4829 37.4691 83.0182Z" fill="white"/>
<path d="M79.3063 218.018C79.3063 218.417 79.183 218.808 78.9521 219.139C78.7211 219.471 78.3928 219.73 78.0087 219.883C77.6247 220.035 77.2021 220.075 76.7943 219.998C76.3866 219.92 76.0121 219.727 75.7181 219.445C75.4242 219.163 75.224 218.803 75.1429 218.412C75.0618 218.02 75.1034 217.615 75.2625 217.246C75.4216 216.877 75.691 216.562 76.0367 216.34C76.3823 216.118 76.7887 216 77.2044 216C77.7618 216 78.2963 216.213 78.6904 216.591C79.0845 216.97 79.3061 217.483 79.3063 218.018Z" fill="white"/>
<path d="M310.06 218.4C310.06 218.799 309.937 219.189 309.706 219.521C309.475 219.853 309.147 220.112 308.763 220.265C308.379 220.417 307.956 220.457 307.548 220.379C307.141 220.302 306.766 220.109 306.472 219.827C306.178 219.545 305.978 219.185 305.897 218.794C305.816 218.402 305.857 217.996 306.016 217.628C306.176 217.259 306.445 216.944 306.791 216.722C307.136 216.5 307.543 216.382 307.958 216.382C308.516 216.382 309.05 216.595 309.444 216.973C309.838 217.352 310.06 217.865 310.06 218.4Z" fill="white" stroke="#405391" stroke-width="0.821882" stroke-linejoin="round"/>
<path d="M328.118 64.0182C328.118 64.4173 327.995 64.8075 327.764 65.1394C327.533 65.4713 327.204 65.73 326.82 65.8827C326.436 66.0355 326.014 66.0754 325.606 65.9976C325.198 65.9197 324.824 65.7275 324.53 65.4452C324.236 65.163 324.036 64.8034 323.954 64.4119C323.873 64.0204 323.915 63.6146 324.074 63.2459C324.233 62.8771 324.503 62.5619 324.848 62.3401C325.194 62.1184 325.6 62 326.016 62C326.292 61.9999 326.565 62.052 326.82 62.1534C327.075 62.2548 327.307 62.4034 327.502 62.5909C327.698 62.7783 327.852 63.0008 327.958 63.2457C328.064 63.4906 328.118 63.7531 328.118 64.0182Z" fill="white" stroke="white" stroke-width="0.821882" stroke-linejoin="round"/>
<path d="M356.479 158.371C357.007 158.344 357.523 158.21 357.993 157.978C358.463 157.745 358.877 157.42 359.206 157.023C359.535 156.626 359.773 156.167 359.903 155.675C360.034 155.184 360.054 154.671 359.963 154.171C359.871 153.672 359.67 153.196 359.373 152.777C359.076 152.357 358.69 152.003 358.239 151.737C357.789 151.471 357.284 151.3 356.76 151.235C356.235 151.17 355.703 151.213 355.197 151.36C354.882 150.122 354.145 149.021 353.103 148.231C352.06 147.441 350.773 147.007 349.444 147C348.116 146.993 346.823 147.412 345.771 148.19C344.72 148.969 343.969 150.062 343.64 151.296C343.139 151.188 342.621 151.18 342.117 151.272C341.613 151.364 341.134 151.555 340.71 151.833C340.287 152.11 339.927 152.468 339.654 152.885C339.381 153.302 339.2 153.768 339.123 154.254C339.046 154.741 339.075 155.238 339.207 155.713C339.338 156.189 339.571 156.633 339.89 157.019C340.209 157.405 340.607 157.723 341.06 157.955C341.512 158.186 342.01 158.326 342.521 158.365L356.479 158.371Z" fill="white" stroke="#1B3342" stroke-width="0.821882" stroke-linejoin="round"/>
<path d="M156.589 142C156.915 141.984 157.234 141.901 157.525 141.758C157.816 141.615 158.072 141.415 158.275 141.17C158.479 140.926 158.626 140.643 158.707 140.341C158.787 140.038 158.8 139.722 158.743 139.415C158.687 139.107 158.563 138.815 158.379 138.556C158.195 138.298 157.956 138.08 157.677 137.916C157.399 137.753 157.087 137.647 156.762 137.607C156.438 137.567 156.109 137.594 155.796 137.684C155.601 136.922 155.145 136.244 154.5 135.758C153.856 135.271 153.059 135.005 152.238 135C151.416 134.996 150.616 135.253 149.966 135.733C149.315 136.212 148.852 136.885 148.648 137.645C148.338 137.578 148.018 137.573 147.706 137.63C147.394 137.687 147.098 137.804 146.836 137.975C146.574 138.146 146.351 138.366 146.183 138.623C146.014 138.879 145.902 139.166 145.854 139.466C145.807 139.765 145.824 140.071 145.906 140.364C145.987 140.657 146.131 140.93 146.328 141.168C146.525 141.405 146.772 141.601 147.052 141.744C147.332 141.886 147.64 141.972 147.956 141.996L156.589 142Z" fill="white" stroke="#1B3342" stroke-width="0.821882" stroke-linejoin="round"/>
<path d="M59.8121 177.236C60.0805 177.221 60.3428 177.148 60.5817 177.021C60.8206 176.895 61.0307 176.717 61.198 176.501C61.3654 176.284 61.4862 176.034 61.5525 175.765C61.6188 175.497 61.629 175.218 61.5826 174.945C61.5362 174.673 61.4341 174.413 61.2831 174.184C61.1321 173.956 60.9357 173.762 60.7067 173.617C60.4778 173.472 60.2216 173.379 59.9551 173.344C59.6885 173.308 59.4177 173.331 59.1605 173.412C59.0007 172.737 58.6261 172.136 58.0964 171.705C57.5667 171.274 56.9123 171.038 56.2372 171.034C55.5621 171.03 54.9051 171.258 54.3706 171.683C53.8362 172.107 53.4549 172.704 53.2875 173.377C53.0331 173.318 52.7697 173.313 52.5136 173.364C52.2574 173.414 52.0141 173.518 51.7988 173.669C51.5834 173.821 51.4007 174.016 51.2619 174.244C51.1231 174.471 51.0313 174.725 50.9922 174.99C50.9531 175.256 50.9675 175.527 51.0345 175.786C51.1015 176.046 51.2197 176.288 51.3817 176.498C51.5437 176.709 51.7461 176.882 51.9762 177.009C52.2062 177.135 52.4591 177.211 52.7191 177.232L59.8121 177.236Z" fill="white" stroke="#1B3342" stroke-width="0.821882" stroke-linejoin="round"/>
<path d="M152.473 91.8235C153.001 91.7967 153.517 91.6627 153.987 91.4304C154.457 91.1981 154.871 90.8727 155.2 90.4758C155.529 90.0789 155.767 89.6194 155.897 89.1278C156.028 88.6363 156.048 88.1237 155.957 87.6241C155.865 87.1244 155.664 86.6491 155.367 86.2294C155.07 85.8098 154.684 85.4554 154.233 85.1897C153.783 84.924 153.279 84.753 152.754 84.6881C152.23 84.6231 151.697 84.6657 151.191 84.8129C150.876 83.5749 150.139 82.4733 149.097 81.6833C148.054 80.8932 146.767 80.4601 145.438 80.4528C144.11 80.4455 142.817 80.8643 141.765 81.6428C140.714 82.4213 139.963 83.5147 139.634 84.7492C139.134 84.6408 138.615 84.6325 138.111 84.7247C137.607 84.8169 137.128 85.0077 136.705 85.2852C136.281 85.5628 135.921 85.921 135.648 86.3377C135.375 86.7544 135.195 87.2205 135.118 87.7071C135.041 88.1937 135.069 88.6903 135.201 89.166C135.333 89.6416 135.565 90.0861 135.884 90.4717C136.203 90.8573 136.601 91.1758 137.054 91.4074C137.506 91.6389 138.004 91.7785 138.516 91.8174L152.473 91.8235Z" fill="white" stroke="#1B3342" stroke-width="0.821882" stroke-linejoin="round"/>
<path d="M29.4346 178.27C29.1143 178.254 28.8012 178.177 28.5161 178.043C28.231 177.91 27.9802 177.722 27.7805 177.494C27.5808 177.265 27.4366 177.001 27.3574 176.718C27.2783 176.435 27.2661 176.139 27.3215 175.852C27.3769 175.564 27.4988 175.29 27.679 175.049C27.8592 174.807 28.0937 174.603 28.3669 174.45C28.6401 174.297 28.9459 174.199 29.264 174.161C29.5822 174.124 29.9054 174.148 30.2123 174.233C30.4032 173.52 30.8502 172.886 31.4824 172.431C32.1147 171.976 32.8957 171.727 33.7015 171.723C34.5072 171.719 35.2914 171.96 35.9293 172.408C36.5673 172.856 37.0223 173.486 37.2221 174.197C37.5257 174.134 37.8401 174.129 38.1458 174.182C38.4515 174.236 38.7419 174.345 38.999 174.505C39.256 174.665 39.4741 174.871 39.6397 175.111C39.8054 175.351 39.9149 175.619 39.9616 175.9C40.0083 176.18 39.9912 176.466 39.9112 176.739C39.8312 177.013 39.6901 177.269 39.4968 177.491C39.3034 177.713 39.0619 177.897 38.7872 178.03C38.5126 178.163 38.2108 178.244 37.9006 178.266L29.4346 178.27Z" fill="white" stroke="#1B3342" stroke-width="0.821882" stroke-linejoin="round"/>
<g filter="url(#filter0_d)">
<path d="M136.751 92.2243C137.503 92.1859 138.239 91.9947 138.908 91.6633C139.577 91.332 140.166 90.868 140.635 90.3021C141.104 89.7361 141.442 89.0811 141.628 88.3802C141.814 87.6793 141.843 86.9486 141.713 86.2363C141.583 85.524 141.296 84.8463 140.873 84.2479C140.45 83.6496 139.9 83.1443 139.258 82.7654C138.617 82.3865 137.899 82.1425 137.152 82.0497C136.405 81.957 135.646 82.0174 134.925 82.2271C134.479 80.4597 133.43 78.8864 131.945 77.7579C130.459 76.6294 128.624 76.0106 126.73 76.0001C124.836 75.9896 122.993 76.588 121.494 77.7C119.995 78.812 118.927 80.3735 118.46 82.1359C117.747 81.9806 117.008 81.9682 116.289 82.0993C115.571 82.2305 114.888 82.5024 114.284 82.8981C113.679 83.2939 113.166 83.805 112.777 84.3995C112.388 84.994 112.13 85.6592 112.02 86.3535C111.91 87.0479 111.951 87.7565 112.139 88.4352C112.327 89.1139 112.659 89.748 113.114 90.2981C113.568 90.8482 114.136 91.3024 114.782 91.6324C115.428 91.9624 116.137 92.1611 116.866 92.2161L136.751 92.2243Z" fill="white"/>
<path d="M136.751 92.2243C137.503 92.1859 138.239 91.9947 138.908 91.6633C139.577 91.332 140.166 90.868 140.635 90.3021C141.104 89.7361 141.442 89.0811 141.628 88.3802C141.814 87.6793 141.843 86.9486 141.713 86.2363C141.583 85.524 141.296 84.8463 140.873 84.2479C140.45 83.6496 139.9 83.1443 139.258 82.7654C138.617 82.3865 137.899 82.1425 137.152 82.0497C136.405 81.957 135.646 82.0174 134.925 82.2271C134.479 80.4597 133.43 78.8864 131.945 77.7579C130.459 76.6294 128.624 76.0106 126.73 76.0001C124.836 75.9896 122.993 76.588 121.494 77.7C119.995 78.812 118.927 80.3735 118.46 82.1359C117.747 81.9806 117.008 81.9682 116.289 82.0993C115.571 82.2305 114.888 82.5024 114.284 82.8981C113.679 83.2939 113.166 83.805 112.777 84.3995C112.388 84.994 112.13 85.6592 112.02 86.3535C111.91 87.0479 111.951 87.7565 112.139 88.4352C112.327 89.1139 112.659 89.748 113.114 90.2981C113.568 90.8482 114.136 91.3024 114.782 91.6324C115.428 91.9624 116.137 92.1611 116.866 92.2161L136.751 92.2243Z" stroke="#1B3342" stroke-width="0.821882" stroke-linejoin="round"/>
</g>
<g filter="url(#filter1_d)">
<path d="M39.6826 178.27C39.2673 178.25 38.8613 178.153 38.4916 177.984C38.1218 177.815 37.7967 177.578 37.5378 177.29C37.2788 177.001 37.0919 176.668 36.9893 176.31C36.8867 175.953 36.8708 175.581 36.9427 175.218C37.0145 174.854 37.1725 174.509 37.4062 174.204C37.6399 173.899 37.9439 173.642 38.2982 173.448C38.6524 173.255 39.0489 173.131 39.4615 173.084C39.874 173.036 40.2932 173.067 40.6912 173.174C40.9375 172.273 41.517 171.471 42.3372 170.896C43.1574 170.321 44.1713 170.005 45.2172 170C46.2632 169.995 47.2811 170.3 48.1088 170.867C48.9364 171.433 49.5263 172.229 49.7843 173.128C50.1782 173.048 50.5864 173.042 50.9832 173.109C51.38 173.176 51.7571 173.314 52.0908 173.516C52.4245 173.718 52.7077 173.978 52.9228 174.281C53.1378 174.584 53.2801 174.923 53.3407 175.277C53.4014 175.631 53.379 175.992 53.2751 176.338C53.1712 176.684 52.988 177.007 52.7369 177.288C52.4857 177.568 52.1721 177.8 51.8155 177.968C51.4589 178.136 51.067 178.237 50.6643 178.265L39.6826 178.27Z" fill="white"/>
<path d="M39.6826 178.27C39.2673 178.25 38.8613 178.153 38.4916 177.984C38.1218 177.815 37.7967 177.578 37.5378 177.29C37.2788 177.001 37.0919 176.668 36.9893 176.31C36.8867 175.953 36.8708 175.581 36.9427 175.218C37.0145 174.854 37.1725 174.509 37.4062 174.204C37.6399 173.899 37.9439 173.642 38.2982 173.448C38.6524 173.255 39.0489 173.131 39.4615 173.084C39.874 173.036 40.2932 173.067 40.6912 173.174C40.9375 172.273 41.517 171.471 42.3372 170.896C43.1574 170.321 44.1713 170.005 45.2172 170C46.2632 169.995 47.2811 170.3 48.1088 170.867C48.9364 171.433 49.5263 172.229 49.7843 173.128C50.1782 173.048 50.5864 173.042 50.9832 173.109C51.38 173.176 51.7571 173.314 52.0908 173.516C52.4245 173.718 52.7077 173.978 52.9228 174.281C53.1378 174.584 53.2801 174.923 53.3407 175.277C53.4014 175.631 53.379 175.992 53.2751 176.338C53.1712 176.684 52.988 177.007 52.7369 177.288C52.4857 177.568 52.1721 177.8 51.8155 177.968C51.4589 178.136 51.067 178.237 50.6643 178.265L39.6826 178.27Z" stroke="#1B3342" stroke-width="0.821882" stroke-linejoin="round"/>
</g>
<path d="M102.968 296.514L223.84 286.007L294.062 304.767L294.386 309.543L173.513 320.049L103.292 301.29L102.968 296.514Z" fill="white" stroke="#1B3342" stroke-width="0.743146" stroke-linejoin="round"/>
<path d="M106.111 296.886L224.536 290.24L206.426 219.194L90.6699 224.359L106.111 296.886Z" fill="white" stroke="#1B3342" stroke-width="0.743146" stroke-linejoin="round"/>
<path d="M153.712 224.193C153.728 224.431 153.673 224.669 153.553 224.878C153.433 225.087 153.252 225.258 153.033 225.372C152.814 225.486 152.566 225.538 152.317 225.521C152.068 225.504 151.83 225.419 151.63 225.277C151.43 225.134 151.277 224.94 151.189 224.717C151.101 224.494 151.081 224.251 151.133 224.018C151.184 223.785 151.304 223.57 151.479 223.4C151.654 223.23 151.876 223.112 152.119 223.059C152.487 223.01 152.861 223.101 153.159 223.313C153.457 223.526 153.656 223.842 153.712 224.193V224.193Z" fill="#405391"/>
<path d="M91.1906 224.329L206.947 219.163L91.1906 224.329L106.632 296.855L103.363 296.542L89 226.531L91.1906 224.329Z" fill="white"/>
<path d="M91.1906 224.329L206.947 219.163L91.1906 224.329ZM91.1906 224.329L106.632 296.855L103.363 296.542L89 226.531L91.1906 224.329Z" stroke="#1B3342" stroke-width="0.743146" stroke-linejoin="round"/>
<path d="M99.7314 227.565L200.967 222.999L214.448 279.145L112.81 287.869L99.7314 227.565Z" fill="#22CDB8" stroke="#1B3342" stroke-width="0.743146" stroke-miterlimit="10"/>
<path d="M103.317 296.419L173.539 315.178L294.411 304.672L224.189 285.912L103.317 296.419Z" fill="white" stroke="#1B3342" stroke-width="0.743146" stroke-linejoin="round"/>
<path d="M154.933 307.195L119.932 297.844L223.373 288.853L257.371 297.935L154.933 307.195Z" fill="white" stroke="#1B3342" stroke-width="0.743146" stroke-linejoin="round"/>
<path d="M127.608 299.932L231.417 291.039" stroke="#1B3342" stroke-width="0.743146" stroke-linejoin="round"/>
<path d="M136.108 302.186L239.917 293.294" stroke="#1B3342" stroke-width="0.743146" stroke-linejoin="round"/>
<path d="M144.826 304.537L248.634 295.644" stroke="#1B3342" stroke-width="0.743146" stroke-linejoin="round"/>
<path d="M132.661 296.976L166.957 306.098" stroke="#1B3342" stroke-width="0.743146" stroke-linejoin="round"/>
<path d="M144.044 295.914L178.339 305.038" stroke="#1B3342" stroke-width="0.743146" stroke-linecap="round" stroke-linejoin="round"/>
<path d="M154.052 295.083L188.348 304.205" stroke="#405391" stroke-width="0.743146" stroke-linecap="round" stroke-linejoin="round"/>
<path d="M164.012 294.154L198.307 303.277" stroke="#405391" stroke-width="0.743146" stroke-linecap="round" stroke-linejoin="round"/>
<path d="M173.977 293.227L208.272 302.349" stroke="#405391" stroke-width="0.743146" stroke-linecap="round" stroke-linejoin="round"/>
<path d="M184.39 292.418L218.233 301.42" stroke="#405391" stroke-width="0.743146" stroke-linecap="round" stroke-linejoin="round"/>
<path d="M194.312 291.479L228.496 300.573" stroke="#405391" stroke-width="0.743146" stroke-linecap="round" stroke-linejoin="round"/>
<path d="M204.449 290.598L238.471 299.648" stroke="#405391" stroke-width="0.743146" stroke-linecap="round" stroke-linejoin="round"/>
<path d="M214.753 289.76L248.421 298.716" stroke="#405391" stroke-width="0.743146" stroke-linecap="round" stroke-linejoin="round"/>
<path d="M155.261 236.864L174.114 235.651L192.967 234.439C193.111 234.432 193.254 234.48 193.37 234.573C193.485 234.665 193.568 234.798 193.603 234.949L197.358 251.086C197.38 251.18 197.382 251.279 197.365 251.375C197.348 251.47 197.312 251.561 197.259 251.64C197.206 251.72 197.138 251.786 197.059 251.834C196.98 251.883 196.892 251.912 196.801 251.92L165.755 254.36C165.617 254.373 159.148 254.938 158.972 255.054L160.624 254.806C160.035 254.909 159.436 254.926 158.842 254.857L154.667 237.663C154.649 237.567 154.652 237.469 154.674 237.375C154.695 237.281 154.736 237.193 154.792 237.117C154.849 237.041 154.92 236.979 155.001 236.935C155.081 236.892 155.17 236.867 155.261 236.864Z" fill="white" stroke="#1B3342" stroke-width="0.743146" stroke-linejoin="round"/>
<path d="M158.629 253.563L197.252 250.707L203.744 274.726L201.926 274.911L200.146 275.093L165.832 277.78L158.629 253.563Z" fill="#1B3342" stroke="#1B3342" stroke-width="0.743146" stroke-linejoin="round"/>
<path d="M109.078 238.909L151.551 237.176L163.224 279.146L119.013 282.748L109.078 238.909Z" fill="#1B3342" stroke="#1B3342" stroke-width="0.743146" stroke-linejoin="round"/>
<path d="M120.139 246.868L137.252 245.864" stroke="white" stroke-width="0.743146" stroke-linecap="round" stroke-linejoin="round"/>
<path d="M121.132 250.097L138.245 249.093" stroke="white" stroke-width="0.743146" stroke-linecap="round" stroke-linejoin="round"/>
<path d="M122.374 253.823L139.487 252.818" stroke="white" stroke-width="0.743146" stroke-linecap="round" stroke-linejoin="round"/>
<path d="M120.139 258.294L137.252 257.289" stroke="#1EE7C5" stroke-width="0.743146" stroke-linecap="round" stroke-linejoin="round"/>
<path d="M124.112 260.778L141.226 259.773" stroke="white" stroke-width="0.743146" stroke-linecap="round" stroke-linejoin="round"/>
<path d="M125.105 264.007L142.219 263.002" stroke="white" stroke-width="0.743146" stroke-linecap="round" stroke-linejoin="round"/>
<path d="M181.684 242.156L187.434 241.758" stroke="#1B3342" stroke-width="0.743146" stroke-linecap="round" stroke-linejoin="round"/>
<path d="M183.939 244.092L189.691 243.694" stroke="#1B3342" stroke-width="0.743146" stroke-linecap="round" stroke-linejoin="round"/>
<path d="M168.658 258.235L190.003 256.765" stroke="white" stroke-width="0.743146" stroke-linecap="round" stroke-linejoin="round"/>
<path d="M169.859 261.777L191.201 260.27" stroke="white" stroke-width="0.743146" stroke-linecap="round" stroke-linejoin="round"/>
<path d="M172.309 269.883L193.654 268.425" stroke="white" stroke-width="0.743146" stroke-linecap="round" stroke-linejoin="round"/>
<path d="M174.484 244.583C174.89 246.284 173.989 247.931 172.473 248.263C170.956 248.594 169.397 247.484 168.991 245.783C168.585 244.083 169.486 242.44 171.002 242.105C172.519 241.77 174.081 242.883 174.484 244.583Z" fill="white" stroke="#1B3342" stroke-width="0.743146" stroke-linejoin="round"/>
<path d="M180.651 252.035C180.462 252.612 176.087 252.551 173.978 252.743C172.429 252.883 165.04 253.512 165.059 253.235C165.177 251.494 170.952 248.088 172.508 248.071C174.997 248.042 181.195 250.371 180.651 252.035Z" fill="white" stroke="#1B3342" stroke-width="0.743146" stroke-linejoin="round"/>
<path d="M287.152 181.602C280.772 171.126 283.219 149.075 283.219 149.075L281.785 150.33C288.178 134.342 282.829 127.882 282.829 127.882C267.049 105.421 243.434 120.27 243.434 120.27C243.434 120.27 226.11 122.917 232.517 142.724C232.906 144.092 233.108 145.502 233.117 146.919C233.066 147.097 230.387 156.492 229.438 158.254C228.749 159.533 232.218 161.295 234.227 162.188C238.714 180.937 239.723 180.271 239.723 180.271C247.652 180.631 253.968 179.393 259.085 177.193C259.79 180.72 260.511 184.514 260.511 184.514C262.216 197.423 243.164 205.727 243.164 205.727L279.322 218.79L315.251 196.866C315.251 196.866 294.931 194.37 287.152 181.602Z" fill="#FFCFCF" stroke="#33313B" stroke-width="0.743146" stroke-miterlimit="10"/>
<path d="M314.295 202.792C314.295 202.792 312.714 194.619 311.866 223.184C311.073 249.925 310.76 277.987 310.76 277.987C299.953 278.645 289.346 281.079 279.403 285.18L268.909 289.351C268.909 289.351 296.15 303.783 315.54 309.544C333.395 314.848 335.071 301.812 332.941 270.126C332.943 270.126 322.787 205.048 314.295 202.792Z" fill="#FFCFCF" stroke="#405391" stroke-width="0.743146" stroke-linejoin="round"/>
<path d="M242.335 113.003C242.335 113.003 219.574 124.615 232.602 136.274L248.069 121.488L242.335 113.003Z" fill="#405391"/>
<path d="M276.364 168.636C276.364 168.636 281.48 168.506 284.54 175.134C284.54 175.134 281.182 167.609 287.04 161.383L276.364 168.636Z" fill="#121F27"/>
<path d="M242.335 113.003C242.335 113.003 214.496 139.083 231.18 131.773C266.042 116.507 264.254 154.979 264.254 154.979C264.254 154.979 269.056 150.794 267.284 155.174L276.367 168.636C276.367 168.636 295.776 161.616 296.815 138.229C297.162 130.331 289.04 94.1154 242.335 113.003Z" fill="#121F27"/>
<path d="M254.284 128.473C254.808 132.467 254.284 148.397 261.647 149.568C269.01 150.738 260.381 129.555 260.381 129.555L254.284 128.473Z" fill="#121F27"/>
<path d="M231.293 214.083C222.48 251.984 218.398 291.139 218.398 291.139C207.219 288.17 195.89 285.74 184.456 283.857L166.405 279.22C165.821 278.965 159.564 276.206 157.532 274.283C155.4 272.266 154.227 277.819 157.579 280.356C158.424 280.992 159.234 281.668 160.007 282.381L155.657 283.029C154.91 283.139 154.213 283.457 153.653 283.942C150.624 286.568 140.743 295.294 142.615 295.837C143.121 295.968 143.652 295.99 144.168 295.901C140.791 298.569 140.522 301.351 141.469 301.445C142.882 301.585 144.67 300.616 146.449 299.238C144.887 300.966 142.953 304.788 145.114 304.693C148.022 304.565 150.459 302.404 152.779 298.749C152.779 298.749 152.207 299.697 152.46 299.48L150.737 302.149C152.634 303.746 154.664 305.192 156.806 306.473C159.242 307.78 160.669 302.964 157.22 300.983C158.212 299.892 158.975 298.63 159.468 297.263C159.468 297.263 169.153 301.741 174.103 298.193L177.339 298.491C185.8 303.558 228.765 322.028 234.649 321.609C248.017 320.655 250.558 295.513 257.022 240.561C257.024 240.563 235.245 197.088 231.293 214.083Z" fill="#FFCFCF" stroke="#1B3342" stroke-width="0.743146" stroke-linejoin="round"/>
<path d="M217.958 291.07C217.958 291.07 213.796 293.189 212.957 299.074" stroke="#1B3342" stroke-width="0.743146" stroke-miterlimit="10"/>
<path d="M324.161 270.186C331.05 269.093 342.176 265.453 342.184 265.414C342.184 265.414 337.918 214.003 324.359 198.781C323.67 197.369 321.388 194.431 314.116 193.404C311.957 193.099 309.834 192.719 307.804 192.301C300.689 190.837 294.895 188.803 293.239 187.798C293.239 187.798 293.249 187.86 293.26 187.951C293.222 187.929 293.171 187.905 293.137 187.885C293.32 188.878 293.257 189.899 292.953 190.865C292.905 191.007 292.858 191.151 292.797 191.296C292.772 191.357 292.743 191.42 292.715 191.482C292.607 191.723 292.483 191.957 292.343 192.182C290.117 195.687 275.386 197.104 260.658 189.656C260.658 189.656 235.357 203.38 228.616 208.14C218.267 229.226 213.823 276.844 213.823 274.632C213.823 274.03 234.91 284.596 248.61 285.171C248.688 288.907 245.257 336.111 245.257 336.111C245.257 336.111 304.839 339.02 331.24 325.59C331.24 325.59 320.835 292.443 322.059 283.192C322.207 282.102 323.869 272.886 324.161 270.186Z" fill="url(#paint1_linear)" stroke="#33313B" stroke-width="0.743146" stroke-miterlimit="10"/>
<path d="M244.776 112.698C244.776 112.698 215.596 106.189 217.432 113.371C219.267 120.553 226.815 126.825 226.815 126.825C226.815 126.825 218.215 126.619 222.729 130.795C227.243 134.971 231.017 134.659 231.017 134.659L244.776 112.698Z" fill="#121F27"/>
<path d="M259.003 176.876C259.003 176.876 262.005 176.153 267.509 171.579" stroke="#33313B" stroke-width="0.743146" stroke-miterlimit="10"/>
<path d="M264.383 143.067C264.383 143.067 262.354 107.105 242.596 111.52" stroke="white" stroke-width="1.48629" stroke-miterlimit="10"/>
<path d="M276.162 153.412C276.612 146.738 271.457 140.987 264.649 140.567C257.841 140.148 251.957 145.218 251.508 151.892C251.058 158.566 256.213 164.317 263.021 164.736C269.829 165.156 275.713 160.086 276.162 153.412Z" fill="#22CDB8" stroke="#1B3342" stroke-width="0.743146" stroke-miterlimit="10"/>
<path d="M272.168 152.992C271.845 157.787 267.83 161.443 263.2 161.157C258.57 160.87 255.078 156.753 255.402 151.959C255.725 147.165 259.74 143.509 264.37 143.795C269 144.081 272.492 148.198 272.168 152.992Z" fill="white" stroke="#121316" stroke-width="0.743146" stroke-miterlimit="10"/>
<path d="M236.721 149.178C236.794 149.428 236.938 149.655 237.138 149.831C237.337 150.007 237.585 150.126 237.852 150.175C238.119 150.224 238.395 150.2 238.648 150.107C238.902 150.013 239.123 149.854 239.287 149.646C239.451 149.439 239.55 149.192 239.575 148.933C239.599 148.674 239.547 148.413 239.425 148.181C239.303 147.949 239.115 147.754 238.883 147.619C238.651 147.483 238.384 147.413 238.112 147.415C237.686 147.479 237.303 147.699 237.044 148.027C236.784 148.356 236.669 148.769 236.721 149.178V149.178Z" fill="#1B3342"/>
<path d="M243.589 144.095C242.562 142.889 241.147 142.041 239.564 141.684C238.143 141.242 236.745 140.808 236.146 141.44C235.972 141.659 235.872 141.924 235.86 142.199C235.847 142.474 235.922 142.746 236.075 142.979C236.504 143.608 237.467 143.585 238.364 143.674C241.852 144.021 243.846 146.021 244.242 145.532C244.468 145.249 243.895 144.497 243.589 144.095Z" fill="#1B3342"/>
<path d="M237.057 166.552C237.057 166.552 240.884 166.404 243.378 163.958" stroke="#1B3342" stroke-width="0.743146" stroke-miterlimit="10"/>
<path d="M222.459 107.486C226.154 106.696 230.003 106.872 233.603 107.994C237.202 109.117 240.42 111.145 242.918 113.866" stroke="#121F27" stroke-width="0.743146" stroke-miterlimit="10"/>
<path d="M291.408 114.258L290.523 122.833C290.523 122.833 292.833 118.583 297.408 121.454" stroke="#1B3342" stroke-width="0.743146" stroke-miterlimit="10"/>
<path d="M233.92 123.558C233.92 123.558 224.172 136.733 229.146 136.709C236.655 136.669 244.083 127.333 242.722 126.847C241.361 126.362 233.92 123.558 233.92 123.558Z" fill="#121F27"/>
<path d="M146.058 299.092L149.878 291.352L154.014 288.218" fill="#FFCFCF"/>
<path d="M146.058 299.092L149.878 291.352L154.014 288.218" stroke="#1B3342" stroke-width="0.743146" stroke-miterlimit="10"/>
<path d="M143.856 295.833L148.281 291.039" stroke="#1B3342" stroke-width="0.743146" stroke-miterlimit="10"/>
<path d="M159.603 289.175L154.663 292.528L152.067 299.336" fill="#FFCFCF"/>
<path d="M159.603 289.175L154.663 292.528L152.067 299.336" stroke="#1B3342" stroke-width="0.743146" stroke-linejoin="round"/>
<path d="M228.621 208.144C228.621 208.144 260.082 200.7 259.383 238.816L257.938 284.512C253.988 285.209 249.953 285.369 245.956 284.986" stroke="#33313B" stroke-width="0.743146" stroke-miterlimit="10"/>
<path d="M322.986 217.707C322.986 217.707 329.582 232.97 329.698 246.388C329.761 253.595 324.153 270.275 324.153 270.275" stroke="#33313B" stroke-width="0.743146" stroke-miterlimit="10"/>
<path d="M159.613 282.236L165.008 281.494" stroke="#1B3342" stroke-width="0.743146" stroke-linejoin="round"/>
<path d="M115.911 243.731L133.03 242.806" stroke="#1EE7C5" stroke-width="0.743146" stroke-linecap="round" stroke-linejoin="round"/>
<path d="M50.1446 289.364C57.4608 289.364 63.3917 288.482 63.3917 287.393C63.3917 286.305 57.4608 285.423 50.1446 285.423C42.8284 285.423 36.8975 286.305 36.8975 287.393C36.8975 288.482 42.8284 289.364 50.1446 289.364Z" fill="#0D71B2"/>
<path d="M46.8427 311H53.4462C55.4019 310.937 57.3455 310.681 59.2461 310.236L62.9178 287.471H62.8778C62.8778 288.517 57.1765 289.365 50.1448 289.365C43.113 289.365 37.4111 288.517 37.4111 287.471H37.3711L41.0428 310.236C42.9434 310.681 44.887 310.937 46.8427 311Z" fill="#1B3342" stroke="#1B3342" stroke-width="0.637019" stroke-linejoin="round"/>
<path d="M31.4997 260.323C30.0389 260.319 28.5969 260.638 27.2863 261.255C25.9758 261.872 24.8323 262.771 23.9454 263.881C23.0584 264.992 22.452 266.283 22.1736 267.655C21.8952 269.026 21.9523 270.441 22.3405 271.788C22.6418 271.644 22.9738 271.568 23.3107 271.566C23.7959 271.565 24.268 271.716 24.655 271.996C25.0421 272.276 25.3227 272.669 25.4542 273.116C25.5856 273.563 25.5607 274.038 25.3831 274.47C25.2055 274.902 24.885 275.267 24.4706 275.508C25.5328 276.628 26.8707 277.477 28.3629 277.978C29.8551 278.478 31.4544 278.614 33.0155 278.373C34.5766 278.133 36.0502 277.523 37.3024 276.599C38.5546 275.676 39.5459 274.468 40.1862 273.085C40.8265 271.702 41.0955 270.188 40.9689 268.68C40.8423 267.173 40.324 265.719 39.4611 264.452C38.5982 263.184 37.4181 262.143 36.0278 261.423C34.6374 260.702 33.081 260.325 31.4997 260.326V260.323Z" fill="#1EE6C5" stroke="#1B3342" stroke-width="0.637019" stroke-miterlimit="10"/>
<path d="M38.6424 266.762C38.6424 267.01 38.5655 267.253 38.4215 267.459C38.2775 267.665 38.0728 267.825 37.8333 267.92C37.5938 268.015 37.3303 268.04 37.0761 267.992C36.8218 267.943 36.5883 267.824 36.4051 267.648C36.2218 267.473 36.0971 267.25 36.0466 267.006C35.9961 266.763 36.0222 266.511 36.1214 266.282C36.2207 266.053 36.3888 265.857 36.6044 265.72C36.82 265.582 37.0734 265.509 37.3326 265.509C37.68 265.509 38.0132 265.641 38.2588 265.876C38.5044 266.111 38.6424 266.43 38.6424 266.762V266.762Z" fill="white" stroke="#1B3342" stroke-width="0.637019" stroke-linejoin="round"/>
<path d="M72.2647 268.546C75.2369 264.411 74.1419 258.755 69.819 255.912C65.4961 253.069 59.5822 254.117 56.6101 258.251C53.6379 262.386 54.7329 268.042 59.0558 270.885C63.3787 273.728 69.2925 272.681 72.2647 268.546Z" fill="#1EE6C5" stroke="#1B3342" stroke-width="0.637019" stroke-miterlimit="10"/>
<path d="M63.8593 263.51C63.8593 263.51 50.1954 271.105 51.3307 286.269" stroke="#1B3342" stroke-width="0.637019" stroke-linejoin="round"/>
<path d="M45.7467 260.553C47.084 261.815 48.7826 262.669 50.6276 263.008C52.4725 263.347 54.3811 263.154 56.1119 262.456C57.8427 261.757 59.318 260.583 60.3512 259.082C61.3845 257.582 61.9293 255.821 61.9167 254.025C61.9041 252.228 61.3348 250.475 60.2806 248.987C59.2265 247.5 57.7349 246.345 55.9945 245.669C54.254 244.992 52.343 244.824 50.5029 245.187C48.6628 245.549 46.9764 246.425 45.6568 247.704C44.7805 248.553 44.0877 249.559 43.618 250.665C43.1483 251.77 42.9108 252.953 42.9192 254.146C42.9275 255.339 43.1815 256.519 43.6667 257.619C44.1518 258.718 44.8586 259.715 45.7467 260.553Z" fill="#1EE6C5" stroke="#1B3342" stroke-width="0.637019" stroke-miterlimit="10"/>
<path d="M51.9754 254.545C51.9754 254.545 42.4752 277.012 51.2336 288.291" stroke="#1B3342" stroke-width="0.637019" stroke-linejoin="round"/>
<path d="M32.0156 269.411C32.0156 269.411 46.9574 274.325 48.9211 289.41" stroke="#1B3342" stroke-width="0.637019" stroke-linejoin="round"/>
<path d="M60.986 267.263C62.4468 267.258 63.8888 267.577 65.1993 268.194C66.5099 268.812 67.6534 269.71 68.5403 270.821C69.4273 271.931 70.0337 273.222 70.3121 274.594C70.5905 275.965 70.5334 277.38 70.1452 278.727C69.8439 278.583 69.5119 278.507 69.175 278.505C68.6898 278.504 68.2177 278.656 67.8307 278.935C67.4436 279.215 67.163 279.609 67.0315 280.055C66.9001 280.502 66.925 280.978 67.1026 281.409C67.2802 281.841 67.6007 282.206 68.0151 282.447C66.9529 283.567 65.615 284.416 64.1228 284.917C62.6305 285.417 61.0313 285.553 59.4702 285.313C57.909 285.072 56.4355 284.462 55.1833 283.539C53.931 282.615 52.9398 281.407 52.2995 280.024C51.6592 278.641 51.3902 277.127 51.5168 275.62C51.6434 274.112 52.1617 272.659 53.0246 271.391C53.8875 270.124 55.0676 269.082 56.4579 268.362C57.8483 267.641 59.4047 267.264 60.986 267.265V267.263Z" fill="#1EE6C5" stroke="#1B3342" stroke-width="0.637019" stroke-miterlimit="10"/>
<path d="M53.875 273.759C53.875 274.007 53.9519 274.249 54.0959 274.456C54.2398 274.662 54.4445 274.822 54.684 274.917C54.9234 275.012 55.1869 275.037 55.4411 274.989C55.6953 274.94 55.9288 274.821 56.1121 274.646C56.2954 274.47 56.4202 274.247 56.4707 274.004C56.5213 273.761 56.4954 273.509 56.3962 273.28C56.297 273.051 56.129 272.855 55.9135 272.717C55.698 272.579 55.4446 272.506 55.1855 272.506C54.8379 272.506 54.5046 272.638 54.2588 272.873C54.0131 273.108 53.875 273.427 53.875 273.759V273.759Z" fill="white" stroke="#1B3342" stroke-width="0.637019" stroke-linejoin="round"/>
<path d="M63.0669 274.364C63.0669 274.364 52.5186 278.377 49.9297 288.901" stroke="#1B3342" stroke-width="0.637019" stroke-linejoin="round"/>
</g>
<defs>
<filter id="filter0_d" x="110.171" y="75.5891" width="33.4112" height="19.8027" filterUnits="userSpaceOnUse" color-interpolation-filters="sRGB">
<feFlood flood-opacity="0" result="BackgroundImageFix"/>
<feColorMatrix in="SourceAlpha" type="matrix" values="0 0 0 0 0 0 0 0 0 0 0 0 0 0 0 0 0 0 127 0"/>
<feOffset dy="1.37827"/>
<feGaussianBlur stdDeviation="0.689137"/>
<feColorMatrix type="matrix" values="0 0 0 0 0 0 0 0 0 0 0 0 0 0 0 0 0 0 0.25 0"/>
<feBlend mode="normal" in2="BackgroundImageFix" result="effect1_dropShadow"/>
<feBlend mode="normal" in="SourceGraphic" in2="effect1_dropShadow" result="shape"/>
</filter>
<filter id="filter1_d" x="35.109" y="169.589" width="20.054" height="11.8481" filterUnits="userSpaceOnUse" color-interpolation-filters="sRGB">
<feFlood flood-opacity="0" result="BackgroundImageFix"/>
<feColorMatrix in="SourceAlpha" type="matrix" values="0 0 0 0 0 0 0 0 0 0 0 0 0 0 0 0 0 0 127 0"/>
<feOffset dy="1.37827"/>
<feGaussianBlur stdDeviation="0.689137"/>
<feColorMatrix type="matrix" values="0 0 0 0 0 0 0 0 0 0 0 0 0 0 0 0 0 0 0.25 0"/>
<feBlend mode="normal" in2="BackgroundImageFix" result="effect1_dropShadow"/>
<feBlend mode="normal" in="SourceGraphic" in2="effect1_dropShadow" result="shape"/>
</filter>
<radialGradient id="paint0_radial" cx="0" cy="0" r="1" gradientUnits="userSpaceOnUse" gradientTransform="translate(180 270.5) rotate(90) scale(270.5 180)">
<stop stop-color="#335063"/>
<stop offset="1" stop-color="#1B3342"/>
</radialGradient>
<linearGradient id="paint1_linear" x1="278.003" y1="187.798" x2="278.003" y2="336.377" gradientUnits="userSpaceOnUse">
<stop stop-color="#379BE7"/>
<stop offset="1" stop-color="#1DE9C4"/>
</linearGradient>
<clipPath id="clip0">
<rect width="360" height="541" fill="white"/>
</clipPath>
</defs>
</svg>
