<svg width="361" height="300" viewBox="0 0 361 300" fill="none" xmlns="http://www.w3.org/2000/svg">
<line x1="21" y1="237.5" x2="336" y2="237.5" stroke="white"/>
<path d="M37.4691 27.0182C37.4693 27.4176 37.3461 27.808 37.1151 28.1402C36.8841 28.4723 36.5557 28.7312 36.1715 28.8841C35.7872 29.037 35.3643 29.0771 34.9564 28.9992C34.5484 28.9214 34.1737 28.729 33.8796 28.4466C33.5854 28.1642 33.3851 27.8044 33.304 27.4127C33.2229 27.021 33.2647 26.6149 33.4239 26.246C33.5832 25.877 33.8528 25.5617 34.1987 25.3399C34.5446 25.1181 34.9513 24.9998 35.3673 25C35.9247 25 36.4593 25.2126 36.8535 25.5911C37.2477 25.9696 37.4691 26.4829 37.4691 27.0182Z" fill="white"/>
<path d="M79.3063 162.018C79.3063 162.417 79.183 162.808 78.9521 163.139C78.7211 163.471 78.3928 163.73 78.0087 163.883C77.6247 164.035 77.2021 164.075 76.7943 163.998C76.3866 163.92 76.0121 163.727 75.7181 163.445C75.4242 163.163 75.224 162.803 75.1429 162.412C75.0618 162.02 75.1034 161.615 75.2625 161.246C75.4216 160.877 75.691 160.562 76.0367 160.34C76.3823 160.118 76.7887 160 77.2044 160C77.7618 160 78.2963 160.213 78.6904 160.591C79.0845 160.97 79.3061 161.483 79.3063 162.018Z" fill="white"/>
<path d="M310.06 162.4C310.06 162.799 309.937 163.189 309.706 163.521C309.475 163.853 309.147 164.112 308.763 164.265C308.379 164.417 307.956 164.457 307.548 164.379C307.141 164.302 306.766 164.109 306.472 163.827C306.178 163.545 305.978 163.185 305.897 162.794C305.816 162.402 305.857 161.996 306.016 161.628C306.176 161.259 306.445 160.944 306.791 160.722C307.136 160.5 307.543 160.382 307.958 160.382C308.516 160.382 309.05 160.595 309.444 160.973C309.838 161.352 310.06 161.865 310.06 162.4Z" fill="white" stroke="#405391" stroke-width="0.821882" stroke-linejoin="round"/>
<path d="M328.118 8.01817C328.118 8.41732 327.995 8.80752 327.764 9.13941C327.533 9.4713 327.204 9.72997 326.82 9.88272C326.436 10.0355 326.014 10.0754 325.606 9.99757C325.198 9.91969 324.824 9.72749 324.53 9.44524C324.236 9.16299 324.036 8.80338 323.954 8.41189C323.873 8.02041 323.915 7.61462 324.074 7.24585C324.233 6.87708 324.503 6.56188 324.848 6.34012C325.194 6.11836 325.6 6 326.016 6C326.292 5.99989 326.565 6.05203 326.82 6.15341C327.075 6.25479 327.307 6.40344 327.502 6.59087C327.698 6.7783 327.852 7.00082 327.958 7.24573C328.064 7.49063 328.118 7.75311 328.118 8.01817Z" fill="white" stroke="white" stroke-width="0.821882" stroke-linejoin="round"/>
<path d="M356.479 102.371C357.007 102.344 357.523 102.21 357.993 101.978C358.463 101.745 358.877 101.42 359.206 101.023C359.535 100.626 359.773 100.167 359.903 99.6752C360.034 99.1836 360.054 98.671 359.963 98.1714C359.871 97.6717 359.67 97.1964 359.373 96.7767C359.076 96.3571 358.69 96.0027 358.239 95.737C357.789 95.4713 357.284 95.3003 356.76 95.2354C356.235 95.1704 355.703 95.213 355.197 95.3602C354.882 94.1222 354.145 93.0206 353.103 92.2306C352.06 91.4405 350.773 91.0074 349.444 91.0001C348.116 90.9928 346.823 91.4116 345.771 92.1901C344.72 92.9686 343.969 94.062 343.64 95.2965C343.139 95.1881 342.621 95.1798 342.117 95.272C341.613 95.3642 341.134 95.555 340.71 95.8325C340.287 96.1101 339.927 96.4683 339.654 96.885C339.381 97.3017 339.2 97.7678 339.123 98.2544C339.046 98.741 339.075 99.2376 339.207 99.7133C339.338 100.189 339.571 100.633 339.89 101.019C340.209 101.405 340.607 101.723 341.06 101.955C341.512 102.186 342.01 102.326 342.521 102.365L356.479 102.371Z" fill="white" stroke="#1B3342" stroke-width="0.821882" stroke-linejoin="round"/>
<path d="M156.589 86C156.915 85.9835 157.234 85.9011 157.525 85.758C157.816 85.615 158.072 85.4147 158.275 85.1704C158.479 84.926 158.626 84.6432 158.707 84.3405C158.787 84.0379 158.8 83.7224 158.743 83.4148C158.687 83.1072 158.563 82.8146 158.379 82.5562C158.195 82.2979 157.956 82.0797 157.677 81.9162C157.399 81.7526 157.087 81.6473 156.762 81.6074C156.438 81.5674 156.109 81.5936 155.796 81.6842C155.601 80.9221 155.145 80.2439 154.5 79.7576C153.856 79.2712 153.059 79.0046 152.238 79.0001C151.416 78.9955 150.616 79.2534 149.966 79.7327C149.315 80.2119 148.852 80.885 148.648 81.645C148.338 81.5783 148.018 81.5731 147.706 81.6299C147.394 81.6867 147.098 81.8041 146.836 81.975C146.574 82.1458 146.351 82.3664 146.183 82.6229C146.014 82.8794 145.902 83.1664 145.854 83.4659C145.807 83.7655 145.824 84.0712 145.906 84.364C145.987 84.6568 146.131 84.9304 146.328 85.1678C146.525 85.4052 146.772 85.6013 147.052 85.7439C147.332 85.8864 147.64 85.9723 147.956 85.9963L156.589 86Z" fill="white" stroke="#1B3342" stroke-width="0.821882" stroke-linejoin="round"/>
<path d="M59.8121 121.236C60.0805 121.221 60.3428 121.148 60.5817 121.021C60.8206 120.895 61.0307 120.717 61.198 120.501C61.3654 120.284 61.4862 120.034 61.5525 119.765C61.6188 119.497 61.629 119.218 61.5826 118.945C61.5362 118.673 61.4341 118.413 61.2831 118.184C61.1321 117.956 60.9357 117.762 60.7067 117.617C60.4778 117.472 60.2216 117.379 59.9551 117.344C59.6885 117.308 59.4177 117.331 59.1605 117.412C59.0007 116.737 58.6261 116.136 58.0964 115.705C57.5667 115.274 56.9123 115.038 56.2372 115.034C55.5621 115.03 54.9051 115.258 54.3706 115.683C53.8362 116.107 53.4549 116.704 53.2875 117.377C53.0331 117.318 52.7697 117.313 52.5136 117.364C52.2574 117.414 52.0141 117.518 51.7988 117.669C51.5834 117.821 51.4007 118.016 51.2619 118.244C51.1231 118.471 51.0313 118.725 50.9922 118.99C50.9531 119.256 50.9675 119.527 51.0345 119.786C51.1015 120.046 51.2197 120.288 51.3817 120.498C51.5437 120.709 51.7461 120.882 51.9762 121.009C52.2062 121.135 52.4591 121.211 52.7191 121.232L59.8121 121.236Z" fill="white" stroke="#1B3342" stroke-width="0.821882" stroke-linejoin="round"/>
<path d="M152.473 35.8235C153.001 35.7967 153.517 35.6627 153.987 35.4304C154.457 35.1981 154.871 34.8727 155.2 34.4758C155.529 34.0789 155.767 33.6194 155.897 33.1278C156.028 32.6363 156.048 32.1237 155.957 31.6241C155.865 31.1244 155.664 30.6491 155.367 30.2294C155.07 29.8098 154.684 29.4554 154.233 29.1897C153.783 28.924 153.279 28.753 152.754 28.6881C152.23 28.6231 151.697 28.6657 151.191 28.8129C150.876 27.5749 150.139 26.4733 149.097 25.6833C148.054 24.8932 146.767 24.4601 145.438 24.4528C144.11 24.4455 142.817 24.8643 141.765 25.6428C140.714 26.4213 139.963 27.5147 139.634 28.7492C139.134 28.6408 138.615 28.6325 138.111 28.7247C137.607 28.8169 137.128 29.0077 136.705 29.2852C136.281 29.5628 135.921 29.921 135.648 30.3377C135.375 30.7544 135.195 31.2205 135.118 31.7071C135.041 32.1937 135.069 32.6903 135.201 33.166C135.333 33.6416 135.565 34.0861 135.884 34.4717C136.203 34.8573 136.601 35.1758 137.054 35.4074C137.506 35.6389 138.004 35.7785 138.516 35.8174L152.473 35.8235Z" fill="white" stroke="#1B3342" stroke-width="0.821882" stroke-linejoin="round"/>
<path d="M29.4346 122.27C29.1143 122.254 28.8012 122.177 28.5161 122.043C28.231 121.91 27.9802 121.722 27.7805 121.494C27.5808 121.265 27.4366 121.001 27.3574 120.718C27.2783 120.435 27.2661 120.139 27.3215 119.852C27.3769 119.564 27.4988 119.29 27.679 119.049C27.8592 118.807 28.0937 118.603 28.3669 118.45C28.6401 118.297 28.9459 118.199 29.264 118.161C29.5822 118.124 29.9054 118.148 30.2123 118.233C30.4032 117.52 30.8502 116.886 31.4824 116.431C32.1147 115.976 32.8957 115.727 33.7015 115.723C34.5072 115.719 35.2914 115.96 35.9293 116.408C36.5673 116.856 37.0223 117.486 37.2221 118.197C37.5257 118.134 37.8401 118.129 38.1458 118.182C38.4515 118.236 38.7419 118.345 38.999 118.505C39.256 118.665 39.4741 118.871 39.6397 119.111C39.8054 119.351 39.9149 119.619 39.9616 119.9C40.0083 120.18 39.9912 120.466 39.9112 120.739C39.8312 121.013 39.6901 121.269 39.4968 121.491C39.3034 121.713 39.0619 121.897 38.7872 122.03C38.5126 122.163 38.2108 122.244 37.9006 122.266L29.4346 122.27Z" fill="white" stroke="#1B3342" stroke-width="0.821882" stroke-linejoin="round"/>
<g filter="url(#filter0_d)">
<path d="M136.751 36.2243C137.503 36.1859 138.239 35.9947 138.908 35.6633C139.577 35.332 140.166 34.868 140.635 34.3021C141.104 33.7361 141.442 33.0811 141.628 32.3802C141.814 31.6793 141.843 30.9486 141.713 30.2363C141.583 29.524 141.296 28.8463 140.873 28.2479C140.45 27.6496 139.9 27.1443 139.258 26.7654C138.617 26.3865 137.899 26.1425 137.152 26.0497C136.405 25.957 135.646 26.0174 134.925 26.2271C134.479 24.4597 133.43 22.8864 131.945 21.7579C130.459 20.6294 128.624 20.0106 126.73 20.0001C124.836 19.9896 122.993 20.588 121.494 21.7C119.995 22.812 118.927 24.3735 118.46 26.1359C117.747 25.9806 117.008 25.9682 116.289 26.0993C115.571 26.2305 114.888 26.5024 114.284 26.8981C113.679 27.2939 113.166 27.805 112.777 28.3995C112.388 28.994 112.13 29.6592 112.02 30.3535C111.91 31.0479 111.951 31.7565 112.139 32.4352C112.327 33.1139 112.659 33.748 113.114 34.2981C113.568 34.8482 114.136 35.3024 114.782 35.6324C115.428 35.9624 116.137 36.1611 116.866 36.2161L136.751 36.2243Z" fill="white"/>
<path d="M136.751 36.2243C137.503 36.1859 138.239 35.9947 138.908 35.6633C139.577 35.332 140.166 34.868 140.635 34.3021C141.104 33.7361 141.442 33.0811 141.628 32.3802C141.814 31.6793 141.843 30.9486 141.713 30.2363C141.583 29.524 141.296 28.8463 140.873 28.2479C140.45 27.6496 139.9 27.1443 139.258 26.7654C138.617 26.3865 137.899 26.1425 137.152 26.0497C136.405 25.957 135.646 26.0174 134.925 26.2271C134.479 24.4597 133.43 22.8864 131.945 21.7579C130.459 20.6294 128.624 20.0106 126.73 20.0001C124.836 19.9896 122.993 20.588 121.494 21.7C119.995 22.812 118.927 24.3735 118.46 26.1359C117.747 25.9806 117.008 25.9682 116.289 26.0993C115.571 26.2305 114.888 26.5024 114.284 26.8981C113.679 27.2939 113.166 27.805 112.777 28.3995C112.388 28.994 112.13 29.6592 112.02 30.3535C111.91 31.0479 111.951 31.7565 112.139 32.4352C112.327 33.1139 112.659 33.748 113.114 34.2981C113.568 34.8482 114.136 35.3024 114.782 35.6324C115.428 35.9624 116.137 36.1611 116.866 36.2161L136.751 36.2243Z" stroke="#1B3342" stroke-width="0.821882" stroke-linejoin="round"/>
</g>
<g filter="url(#filter1_d)">
<path d="M39.6826 122.27C39.2673 122.25 38.8613 122.153 38.4916 121.984C38.1218 121.815 37.7967 121.578 37.5378 121.29C37.2788 121.001 37.0919 120.668 36.9893 120.31C36.8867 119.953 36.8708 119.581 36.9427 119.218C37.0145 118.854 37.1725 118.509 37.4062 118.204C37.6399 117.899 37.9439 117.642 38.2982 117.448C38.6524 117.255 39.0489 117.131 39.4615 117.084C39.874 117.036 40.2932 117.067 40.6912 117.174C40.9375 116.273 41.517 115.471 42.3372 114.896C43.1574 114.321 44.1713 114.005 45.2172 114C46.2632 113.995 47.2811 114.3 48.1088 114.867C48.9364 115.433 49.5263 116.229 49.7843 117.128C50.1782 117.048 50.5864 117.042 50.9832 117.109C51.38 117.176 51.7571 117.314 52.0908 117.516C52.4245 117.718 52.7077 117.978 52.9228 118.281C53.1378 118.584 53.2801 118.923 53.3407 119.277C53.4014 119.631 53.379 119.992 53.2751 120.338C53.1712 120.684 52.988 121.007 52.7369 121.288C52.4857 121.568 52.1721 121.8 51.8155 121.968C51.4589 122.136 51.067 122.237 50.6643 122.265L39.6826 122.27Z" fill="white"/>
<path d="M39.6826 122.27C39.2673 122.25 38.8613 122.153 38.4916 121.984C38.1218 121.815 37.7967 121.578 37.5378 121.29C37.2788 121.001 37.0919 120.668 36.9893 120.31C36.8867 119.953 36.8708 119.581 36.9427 119.218C37.0145 118.854 37.1725 118.509 37.4062 118.204C37.6399 117.899 37.9439 117.642 38.2982 117.448C38.6524 117.255 39.0489 117.131 39.4615 117.084C39.874 117.036 40.2932 117.067 40.6912 117.174C40.9375 116.273 41.517 115.471 42.3372 114.896C43.1574 114.321 44.1713 114.005 45.2172 114C46.2632 113.995 47.2811 114.3 48.1088 114.867C48.9364 115.433 49.5263 116.229 49.7843 117.128C50.1782 117.048 50.5864 117.042 50.9832 117.109C51.38 117.176 51.7571 117.314 52.0908 117.516C52.4245 117.718 52.7077 117.978 52.9228 118.281C53.1378 118.584 53.2801 118.923 53.3407 119.277C53.4014 119.631 53.379 119.992 53.2751 120.338C53.1712 120.684 52.988 121.007 52.7369 121.288C52.4857 121.568 52.1721 121.8 51.8155 121.968C51.4589 122.136 51.067 122.237 50.6643 122.265L39.6826 122.27Z" stroke="#1B3342" stroke-width="0.821882" stroke-linejoin="round"/>
</g>
<path d="M102.968 240.513L223.84 230.007L294.062 248.767L294.386 253.543L173.513 264.049L103.292 245.29L102.968 240.513Z" fill="white" stroke="#1B3342" stroke-width="0.743146" stroke-linejoin="round"/>
<path d="M106.111 240.886L224.536 234.24L206.426 163.194L90.6699 168.359L106.111 240.886Z" fill="white" stroke="#1B3342" stroke-width="0.743146" stroke-linejoin="round"/>
<path d="M153.712 168.193C153.728 168.431 153.673 168.669 153.553 168.878C153.433 169.087 153.252 169.258 153.033 169.372C152.814 169.486 152.566 169.538 152.317 169.521C152.068 169.504 151.83 169.419 151.63 169.277C151.43 169.134 151.277 168.94 151.189 168.717C151.101 168.494 151.081 168.251 151.133 168.018C151.184 167.785 151.304 167.57 151.479 167.4C151.654 167.23 151.876 167.112 152.119 167.059C152.487 167.01 152.861 167.101 153.159 167.313C153.457 167.526 153.656 167.842 153.712 168.193V168.193Z" fill="#405391"/>
<path d="M91.1906 168.329L206.947 163.163L91.1906 168.329L106.632 240.855L103.363 240.542L89 170.531L91.1906 168.329Z" fill="white"/>
<path d="M91.1906 168.329L206.947 163.163L91.1906 168.329ZM91.1906 168.329L106.632 240.855L103.363 240.542L89 170.531L91.1906 168.329Z" stroke="#1B3342" stroke-width="0.743146" stroke-linejoin="round"/>
<path d="M99.7314 171.565L200.967 166.999L214.448 223.145L112.81 231.869L99.7314 171.565Z" fill="#22CDB8" stroke="#1B3342" stroke-width="0.743146" stroke-miterlimit="10"/>
<path d="M103.317 240.419L173.539 259.178L294.411 248.672L224.189 229.912L103.317 240.419Z" fill="white" stroke="#1B3342" stroke-width="0.743146" stroke-linejoin="round"/>
<path d="M154.933 251.195L119.932 241.844L223.373 232.853L257.371 241.935L154.933 251.195Z" fill="white" stroke="#1B3342" stroke-width="0.743146" stroke-linejoin="round"/>
<path d="M127.608 243.932L231.417 235.039" stroke="#1B3342" stroke-width="0.743146" stroke-linejoin="round"/>
<path d="M136.108 246.186L239.917 237.294" stroke="#1B3342" stroke-width="0.743146" stroke-linejoin="round"/>
<path d="M144.826 248.537L248.634 239.644" stroke="#1B3342" stroke-width="0.743146" stroke-linejoin="round"/>
<path d="M132.661 240.976L166.957 250.098" stroke="#1B3342" stroke-width="0.743146" stroke-linejoin="round"/>
<path d="M144.044 239.914L178.339 249.038" stroke="#1B3342" stroke-width="0.743146" stroke-linecap="round" stroke-linejoin="round"/>
<path d="M154.052 239.083L188.348 248.205" stroke="#405391" stroke-width="0.743146" stroke-linecap="round" stroke-linejoin="round"/>
<path d="M164.012 238.154L198.307 247.277" stroke="#405391" stroke-width="0.743146" stroke-linecap="round" stroke-linejoin="round"/>
<path d="M173.977 237.227L208.272 246.349" stroke="#405391" stroke-width="0.743146" stroke-linecap="round" stroke-linejoin="round"/>
<path d="M184.39 236.418L218.233 245.42" stroke="#405391" stroke-width="0.743146" stroke-linecap="round" stroke-linejoin="round"/>
<path d="M194.312 235.479L228.496 244.573" stroke="#405391" stroke-width="0.743146" stroke-linecap="round" stroke-linejoin="round"/>
<path d="M204.449 234.598L238.471 243.648" stroke="#405391" stroke-width="0.743146" stroke-linecap="round" stroke-linejoin="round"/>
<path d="M214.753 233.76L248.421 242.716" stroke="#405391" stroke-width="0.743146" stroke-linecap="round" stroke-linejoin="round"/>
<path d="M155.261 180.864L174.114 179.651L192.967 178.439C193.111 178.432 193.254 178.48 193.37 178.573C193.485 178.665 193.568 178.798 193.603 178.949L197.358 195.086C197.38 195.18 197.382 195.279 197.365 195.375C197.348 195.47 197.312 195.561 197.259 195.64C197.206 195.72 197.138 195.786 197.059 195.834C196.98 195.883 196.892 195.912 196.801 195.92L165.755 198.36C165.617 198.373 159.148 198.938 158.972 199.054L160.624 198.806C160.035 198.909 159.436 198.926 158.842 198.857L154.667 181.663C154.649 181.567 154.652 181.469 154.674 181.375C154.695 181.281 154.736 181.193 154.792 181.117C154.849 181.041 154.92 180.979 155.001 180.935C155.081 180.892 155.17 180.867 155.261 180.864Z" fill="white" stroke="#1B3342" stroke-width="0.743146" stroke-linejoin="round"/>
<path d="M158.629 197.563L197.252 194.707L203.744 218.726L201.926 218.911L200.146 219.093L165.832 221.78L158.629 197.563Z" fill="#1B3342" stroke="#1B3342" stroke-width="0.743146" stroke-linejoin="round"/>
<path d="M109.078 182.909L151.551 181.176L163.224 223.146L119.013 226.748L109.078 182.909Z" fill="#1B3342" stroke="#1B3342" stroke-width="0.743146" stroke-linejoin="round"/>
<path d="M120.139 190.868L137.252 189.864" stroke="white" stroke-width="0.743146" stroke-linecap="round" stroke-linejoin="round"/>
<path d="M121.132 194.097L138.245 193.093" stroke="white" stroke-width="0.743146" stroke-linecap="round" stroke-linejoin="round"/>
<path d="M122.374 197.823L139.487 196.818" stroke="white" stroke-width="0.743146" stroke-linecap="round" stroke-linejoin="round"/>
<path d="M120.139 202.294L137.252 201.289" stroke="#1EE7C5" stroke-width="0.743146" stroke-linecap="round" stroke-linejoin="round"/>
<path d="M124.112 204.778L141.226 203.773" stroke="white" stroke-width="0.743146" stroke-linecap="round" stroke-linejoin="round"/>
<path d="M125.105 208.007L142.219 207.002" stroke="white" stroke-width="0.743146" stroke-linecap="round" stroke-linejoin="round"/>
<path d="M181.684 186.156L187.434 185.758" stroke="#1B3342" stroke-width="0.743146" stroke-linecap="round" stroke-linejoin="round"/>
<path d="M183.939 188.092L189.691 187.694" stroke="#1B3342" stroke-width="0.743146" stroke-linecap="round" stroke-linejoin="round"/>
<path d="M168.658 202.235L190.003 200.765" stroke="white" stroke-width="0.743146" stroke-linecap="round" stroke-linejoin="round"/>
<path d="M169.859 205.777L191.201 204.27" stroke="white" stroke-width="0.743146" stroke-linecap="round" stroke-linejoin="round"/>
<path d="M172.309 213.883L193.654 212.425" stroke="white" stroke-width="0.743146" stroke-linecap="round" stroke-linejoin="round"/>
<path d="M174.484 188.583C174.89 190.284 173.989 191.931 172.473 192.263C170.956 192.594 169.397 191.484 168.991 189.783C168.585 188.083 169.486 186.44 171.002 186.105C172.519 185.77 174.081 186.883 174.484 188.583Z" fill="white" stroke="#1B3342" stroke-width="0.743146" stroke-linejoin="round"/>
<path d="M180.651 196.035C180.462 196.612 176.087 196.551 173.978 196.743C172.429 196.883 165.04 197.512 165.059 197.235C165.177 195.494 170.952 192.088 172.508 192.071C174.997 192.042 181.195 194.371 180.651 196.035Z" fill="white" stroke="#1B3342" stroke-width="0.743146" stroke-linejoin="round"/>
<path d="M287.152 125.602C280.772 115.126 283.219 93.0748 283.219 93.0748L281.785 94.3298C288.178 78.3417 282.829 71.882 282.829 71.882C267.049 49.4208 243.434 64.2698 243.434 64.2698C243.434 64.2698 226.11 66.9172 232.517 86.7243C232.906 88.0919 233.108 89.5021 233.117 90.9194C233.066 91.097 230.387 100.492 229.438 102.254C228.749 103.533 232.218 105.295 234.227 106.187C238.714 124.937 239.723 124.271 239.723 124.271C247.652 124.631 253.968 123.393 259.085 121.193C259.79 124.72 260.511 128.514 260.511 128.514C262.216 141.423 243.164 149.727 243.164 149.727L279.322 162.79L315.251 140.866C315.251 140.866 294.931 138.37 287.152 125.602Z" fill="#FFCFCF" stroke="#33313B" stroke-width="0.743146" stroke-miterlimit="10"/>
<path d="M314.295 146.792C314.295 146.792 312.714 138.619 311.866 167.184C311.073 193.925 310.76 221.987 310.76 221.987C299.953 222.645 289.346 225.079 279.403 229.18L268.909 233.351C268.909 233.351 296.15 247.783 315.54 253.544C333.395 258.848 335.071 245.812 332.941 214.126C332.943 214.126 322.787 149.048 314.295 146.792Z" fill="#FFCFCF" stroke="#405391" stroke-width="0.743146" stroke-linejoin="round"/>
<path d="M242.335 57.0034C242.335 57.0034 219.574 68.6152 232.602 80.2737L248.069 65.4879L242.335 57.0034Z" fill="#405391"/>
<path d="M276.364 112.636C276.364 112.636 281.48 112.506 284.54 119.134C284.54 119.134 281.182 111.609 287.04 105.383L276.364 112.636Z" fill="#121F27"/>
<path d="M242.335 57.0035C242.335 57.0035 214.496 83.0831 231.18 75.7726C266.042 60.5068 264.254 98.9791 264.254 98.9791C264.254 98.9791 269.056 94.7944 267.284 99.1745L276.367 112.636C276.367 112.636 295.776 105.616 296.815 82.2286C297.162 74.3312 289.04 38.1154 242.335 57.0035Z" fill="#121F27"/>
<path d="M254.284 72.4729C254.808 76.4666 254.284 92.3975 261.647 93.5677C269.01 94.7379 260.381 73.5555 260.381 73.5555L254.284 72.4729Z" fill="#121F27"/>
<path d="M231.293 158.083C222.48 195.984 218.398 235.139 218.398 235.139C207.219 232.17 195.89 229.74 184.456 227.857L166.405 223.22C165.821 222.965 159.564 220.206 157.532 218.283C155.4 216.266 154.227 221.819 157.579 224.356C158.424 224.992 159.234 225.668 160.007 226.381L155.657 227.029C154.91 227.139 154.213 227.457 153.653 227.942C150.624 230.568 140.743 239.294 142.615 239.837C143.121 239.968 143.652 239.99 144.168 239.901C140.791 242.569 140.522 245.351 141.469 245.445C142.882 245.585 144.67 244.616 146.449 243.238C144.887 244.966 142.953 248.788 145.114 248.693C148.022 248.565 150.459 246.404 152.779 242.749C152.779 242.749 152.207 243.697 152.46 243.48L150.737 246.149C152.634 247.746 154.664 249.192 156.806 250.473C159.242 251.78 160.669 246.964 157.22 244.983C158.212 243.892 158.975 242.63 159.468 241.263C159.468 241.263 169.153 245.741 174.103 242.193L177.339 242.491C185.8 247.558 228.765 266.028 234.649 265.609C248.017 264.655 250.558 239.513 257.022 184.561C257.024 184.563 235.245 141.088 231.293 158.083Z" fill="#FFCFCF" stroke="#1B3342" stroke-width="0.743146" stroke-linejoin="round"/>
<path d="M217.958 235.07C217.958 235.07 213.796 237.189 212.957 243.074" stroke="#1B3342" stroke-width="0.743146" stroke-miterlimit="10"/>
<path d="M324.161 214.186C331.05 213.093 342.176 209.453 342.184 209.414C342.184 209.414 337.918 158.003 324.359 142.781C323.67 141.369 321.388 138.431 314.116 137.404C311.957 137.099 309.834 136.719 307.804 136.301C300.689 134.837 294.895 132.803 293.239 131.798C293.239 131.798 293.249 131.86 293.26 131.951C293.222 131.929 293.171 131.905 293.137 131.885C293.32 132.878 293.257 133.899 292.953 134.865C292.905 135.007 292.858 135.151 292.797 135.296C292.772 135.357 292.743 135.42 292.715 135.482C292.607 135.723 292.483 135.957 292.343 136.182C290.117 139.687 275.386 141.104 260.658 133.656C260.658 133.656 235.357 147.38 228.616 152.14C218.267 173.226 213.823 220.844 213.823 218.632C213.823 218.03 234.91 228.596 248.61 229.171C248.688 232.907 245.257 280.111 245.257 280.111C245.257 280.111 304.839 283.02 331.24 269.59C331.24 269.59 320.835 236.443 322.059 227.192C322.207 226.102 323.869 216.886 324.161 214.186Z" fill="url(#paint0_linear)" stroke="#33313B" stroke-width="0.743146" stroke-miterlimit="10"/>
<path d="M244.776 56.6982C244.776 56.6982 215.596 50.1894 217.432 57.3713C219.267 64.5533 226.815 70.825 226.815 70.825C226.815 70.825 218.215 70.6192 222.729 74.7949C227.243 78.9706 231.017 78.6586 231.017 78.6586L244.776 56.6982Z" fill="#121F27"/>
<path d="M259.003 120.876C259.003 120.876 262.005 120.153 267.509 115.579" stroke="#33313B" stroke-width="0.743146" stroke-miterlimit="10"/>
<path d="M264.383 87.0672C264.383 87.0672 262.354 51.1055 242.596 55.5197" stroke="white" stroke-width="1.48629" stroke-miterlimit="10"/>
<path d="M276.162 97.4117C276.612 90.7376 271.457 84.987 264.649 84.5674C257.841 84.1478 251.957 89.218 251.508 95.8921C251.058 102.566 256.213 108.317 263.021 108.736C269.829 109.156 275.713 104.086 276.162 97.4117Z" fill="#22CDB8" stroke="#1B3342" stroke-width="0.743146" stroke-miterlimit="10"/>
<path d="M272.168 96.9923C271.845 101.787 267.83 105.443 263.2 105.156C258.57 104.87 255.078 100.753 255.402 95.9588C255.725 91.1649 259.74 87.5085 264.37 87.7946C269 88.0806 272.492 92.1984 272.168 96.9923Z" fill="white" stroke="#121316" stroke-width="0.743146" stroke-miterlimit="10"/>
<path d="M236.721 93.1776C236.794 93.4283 236.938 93.6545 237.138 93.8309C237.337 94.0072 237.585 94.1265 237.852 94.1752C238.119 94.224 238.395 94.2003 238.648 94.1068C238.902 94.0133 239.123 93.8538 239.287 93.6463C239.451 93.4388 239.55 93.1915 239.575 92.9326C239.599 92.6737 239.547 92.4134 239.425 92.1812C239.303 91.949 239.115 91.7542 238.883 91.6188C238.651 91.4834 238.384 91.4129 238.112 91.4152C237.686 91.479 237.303 91.6986 237.044 92.0274C236.784 92.3563 236.669 92.7687 236.721 93.1776V93.1776Z" fill="#1B3342"/>
<path d="M243.589 88.0954C242.562 86.8886 241.147 86.0408 239.564 85.6844C238.143 85.2423 236.745 84.8076 236.146 85.4399C235.972 85.6594 235.872 85.9242 235.86 86.1991C235.847 86.4741 235.922 86.7462 236.075 86.9794C236.504 87.608 237.467 87.585 238.364 87.6742C241.852 88.0211 243.846 90.0206 244.242 89.5317C244.468 89.2486 243.895 88.4967 243.589 88.0954Z" fill="#1B3342"/>
<path d="M237.057 110.552C237.057 110.552 240.884 110.404 243.378 107.958" stroke="#1B3342" stroke-width="0.743146" stroke-miterlimit="10"/>
<path d="M222.459 51.4859C226.154 50.6961 230.003 50.8717 233.603 51.9942C237.202 53.1168 240.42 55.145 242.918 57.8661" stroke="#121F27" stroke-width="0.743146" stroke-miterlimit="10"/>
<path d="M291.408 58.2585L290.523 66.8328C290.523 66.8328 292.833 62.5828 297.408 65.4538" stroke="#1B3342" stroke-width="0.743146" stroke-miterlimit="10"/>
<path d="M233.92 67.558C233.92 67.558 224.172 80.7331 229.146 80.7093C236.655 80.6692 244.083 71.3325 242.722 70.8473C241.361 70.3621 233.92 67.558 233.92 67.558Z" fill="#121F27"/>
<path d="M146.058 243.092L149.878 235.352L154.014 232.218" fill="#FFCFCF"/>
<path d="M146.058 243.092L149.878 235.352L154.014 232.218" stroke="#1B3342" stroke-width="0.743146" stroke-miterlimit="10"/>
<path d="M143.856 239.833L148.281 235.039" stroke="#1B3342" stroke-width="0.743146" stroke-miterlimit="10"/>
<path d="M159.603 233.175L154.663 236.528L152.067 243.336" fill="#FFCFCF"/>
<path d="M159.603 233.175L154.663 236.528L152.067 243.336" stroke="#1B3342" stroke-width="0.743146" stroke-linejoin="round"/>
<path d="M228.621 152.144C228.621 152.144 260.082 144.7 259.383 182.816L257.938 228.512C253.988 229.209 249.953 229.369 245.956 228.986" stroke="#33313B" stroke-width="0.743146" stroke-miterlimit="10"/>
<path d="M322.986 161.707C322.986 161.707 329.582 176.97 329.698 190.388C329.761 197.595 324.153 214.275 324.153 214.275" stroke="#33313B" stroke-width="0.743146" stroke-miterlimit="10"/>
<path d="M159.613 226.236L165.008 225.494" stroke="#1B3342" stroke-width="0.743146" stroke-linejoin="round"/>
<path d="M115.911 187.731L133.03 186.806" stroke="#1EE7C5" stroke-width="0.743146" stroke-linecap="round" stroke-linejoin="round"/>
<path d="M50.1446 233.364C57.4608 233.364 63.3917 232.482 63.3917 231.393C63.3917 230.305 57.4608 229.423 50.1446 229.423C42.8284 229.423 36.8975 230.305 36.8975 231.393C36.8975 232.482 42.8284 233.364 50.1446 233.364Z" fill="#0D71B2"/>
<path d="M46.8427 255H53.4462C55.4019 254.937 57.3455 254.681 59.2461 254.236L62.9178 231.471H62.8778C62.8778 232.517 57.1765 233.365 50.1448 233.365C43.113 233.365 37.4111 232.517 37.4111 231.471H37.3711L41.0428 254.236C42.9434 254.681 44.887 254.937 46.8427 255Z" fill="#1B3342" stroke="#1B3342" stroke-width="0.637019" stroke-linejoin="round"/>
<path d="M31.4997 204.323C30.0389 204.319 28.5969 204.638 27.2863 205.255C25.9758 205.872 24.8323 206.771 23.9454 207.881C23.0584 208.992 22.452 210.283 22.1736 211.655C21.8952 213.026 21.9523 214.441 22.3405 215.788C22.6418 215.644 22.9738 215.568 23.3107 215.566C23.7959 215.565 24.268 215.716 24.655 215.996C25.0421 216.276 25.3227 216.669 25.4542 217.116C25.5856 217.563 25.5607 218.038 25.3831 218.47C25.2055 218.902 24.885 219.267 24.4706 219.508C25.5328 220.628 26.8707 221.477 28.3629 221.978C29.8551 222.478 31.4544 222.614 33.0155 222.373C34.5766 222.133 36.0502 221.523 37.3024 220.599C38.5546 219.676 39.5459 218.468 40.1862 217.085C40.8265 215.702 41.0955 214.188 40.9689 212.68C40.8423 211.173 40.324 209.719 39.4611 208.452C38.5982 207.184 37.4181 206.143 36.0278 205.423C34.6374 204.702 33.081 204.325 31.4997 204.326V204.323Z" fill="#1EE6C5" stroke="#1B3342" stroke-width="0.637019" stroke-miterlimit="10"/>
<path d="M38.6424 210.762C38.6424 211.01 38.5655 211.253 38.4215 211.459C38.2775 211.665 38.0728 211.825 37.8333 211.92C37.5938 212.015 37.3303 212.04 37.0761 211.992C36.8218 211.943 36.5883 211.824 36.4051 211.648C36.2218 211.473 36.0971 211.25 36.0466 211.006C35.9961 210.763 36.0222 210.511 36.1214 210.282C36.2207 210.053 36.3888 209.857 36.6044 209.72C36.82 209.582 37.0734 209.509 37.3326 209.509C37.68 209.509 38.0132 209.641 38.2588 209.876C38.5044 210.111 38.6424 210.43 38.6424 210.762V210.762Z" fill="white" stroke="#1B3342" stroke-width="0.637019" stroke-linejoin="round"/>
<path d="M72.2647 212.546C75.2369 208.411 74.1419 202.755 69.819 199.912C65.4961 197.069 59.5822 198.117 56.6101 202.251C53.6379 206.386 54.7329 212.042 59.0558 214.885C63.3787 217.728 69.2925 216.681 72.2647 212.546Z" fill="#1EE6C5" stroke="#1B3342" stroke-width="0.637019" stroke-miterlimit="10"/>
<path d="M63.8593 207.51C63.8593 207.51 50.1954 215.105 51.3307 230.269" stroke="#1B3342" stroke-width="0.637019" stroke-linejoin="round"/>
<path d="M45.7467 204.553C47.084 205.815 48.7826 206.669 50.6276 207.008C52.4725 207.347 54.3811 207.154 56.1119 206.456C57.8427 205.757 59.318 204.583 60.3512 203.082C61.3845 201.582 61.9293 199.821 61.9167 198.025C61.9041 196.228 61.3348 194.475 60.2806 192.987C59.2265 191.5 57.7349 190.345 55.9945 189.669C54.254 188.992 52.343 188.824 50.5029 189.187C48.6628 189.549 46.9764 190.425 45.6568 191.704C44.7805 192.553 44.0877 193.559 43.618 194.665C43.1483 195.77 42.9108 196.953 42.9192 198.146C42.9275 199.339 43.1815 200.519 43.6667 201.619C44.1518 202.718 44.8586 203.715 45.7467 204.553Z" fill="#1EE6C5" stroke="#1B3342" stroke-width="0.637019" stroke-miterlimit="10"/>
<path d="M51.9754 198.545C51.9754 198.545 42.4752 221.012 51.2336 232.291" stroke="#1B3342" stroke-width="0.637019" stroke-linejoin="round"/>
<path d="M32.0156 213.411C32.0156 213.411 46.9574 218.325 48.9211 233.41" stroke="#1B3342" stroke-width="0.637019" stroke-linejoin="round"/>
<path d="M60.986 211.263C62.4468 211.258 63.8888 211.577 65.1993 212.194C66.5099 212.812 67.6534 213.71 68.5403 214.821C69.4273 215.931 70.0337 217.222 70.3121 218.594C70.5905 219.965 70.5334 221.38 70.1452 222.727C69.8439 222.583 69.5119 222.507 69.175 222.505C68.6898 222.504 68.2177 222.656 67.8307 222.935C67.4436 223.215 67.163 223.609 67.0315 224.055C66.9001 224.502 66.925 224.978 67.1026 225.409C67.2802 225.841 67.6007 226.206 68.0151 226.447C66.9529 227.567 65.615 228.416 64.1228 228.917C62.6305 229.417 61.0313 229.553 59.4702 229.313C57.909 229.072 56.4355 228.462 55.1833 227.539C53.931 226.615 52.9398 225.407 52.2995 224.024C51.6592 222.641 51.3902 221.127 51.5168 219.62C51.6434 218.112 52.1617 216.659 53.0246 215.391C53.8875 214.124 55.0676 213.082 56.4579 212.362C57.8483 211.641 59.4047 211.264 60.986 211.265V211.263Z" fill="#1EE6C5" stroke="#1B3342" stroke-width="0.637019" stroke-miterlimit="10"/>
<path d="M53.875 217.759C53.875 218.007 53.9519 218.249 54.0959 218.456C54.2398 218.662 54.4445 218.822 54.684 218.917C54.9234 219.012 55.1869 219.037 55.4411 218.989C55.6953 218.94 55.9288 218.821 56.1121 218.646C56.2954 218.47 56.4202 218.247 56.4707 218.004C56.5213 217.761 56.4954 217.509 56.3962 217.28C56.297 217.051 56.129 216.855 55.9135 216.717C55.698 216.579 55.4446 216.506 55.1855 216.506C54.8379 216.506 54.5046 216.638 54.2588 216.873C54.0131 217.108 53.875 217.427 53.875 217.759V217.759Z" fill="white" stroke="#1B3342" stroke-width="0.637019" stroke-linejoin="round"/>
<path d="M63.0669 218.364C63.0669 218.364 52.5186 222.377 49.9297 232.901" stroke="#1B3342" stroke-width="0.637019" stroke-linejoin="round"/>
<defs>
<filter id="filter0_d" x="110.171" y="19.5891" width="33.4112" height="19.8027" filterUnits="userSpaceOnUse" color-interpolation-filters="sRGB">
<feFlood flood-opacity="0" result="BackgroundImageFix"/>
<feColorMatrix in="SourceAlpha" type="matrix" values="0 0 0 0 0 0 0 0 0 0 0 0 0 0 0 0 0 0 127 0"/>
<feOffset dy="1.37827"/>
<feGaussianBlur stdDeviation="0.689137"/>
<feColorMatrix type="matrix" values="0 0 0 0 0 0 0 0 0 0 0 0 0 0 0 0 0 0 0.25 0"/>
<feBlend mode="normal" in2="BackgroundImageFix" result="effect1_dropShadow"/>
<feBlend mode="normal" in="SourceGraphic" in2="effect1_dropShadow" result="shape"/>
</filter>
<filter id="filter1_d" x="35.109" y="113.589" width="20.054" height="11.8481" filterUnits="userSpaceOnUse" color-interpolation-filters="sRGB">
<feFlood flood-opacity="0" result="BackgroundImageFix"/>
<feColorMatrix in="SourceAlpha" type="matrix" values="0 0 0 0 0 0 0 0 0 0 0 0 0 0 0 0 0 0 127 0"/>
<feOffset dy="1.37827"/>
<feGaussianBlur stdDeviation="0.689137"/>
<feColorMatrix type="matrix" values="0 0 0 0 0 0 0 0 0 0 0 0 0 0 0 0 0 0 0.25 0"/>
<feBlend mode="normal" in2="BackgroundImageFix" result="effect1_dropShadow"/>
<feBlend mode="normal" in="SourceGraphic" in2="effect1_dropShadow" result="shape"/>
</filter>
<linearGradient id="paint0_linear" x1="278.003" y1="131.798" x2="278.003" y2="280.377" gradientUnits="userSpaceOnUse">
<stop stop-color="#379BE7"/>
<stop offset="1" stop-color="#1DE9C4"/>
</linearGradient>
</defs>
</svg>
