<svg width="703" height="815" viewBox="0 0 703 815" fill="none" xmlns="http://www.w3.org/2000/svg">
<path d="M224.677 714.866C277.77 714.866 320.811 690.02 320.811 659.37C320.811 628.721 277.77 603.874 224.677 603.874C171.584 603.874 128.543 628.721 128.543 659.37C128.543 690.02 171.584 714.866 224.677 714.866Z" fill="#E0E0E0"/>
<path d="M446.87 633.446C513.531 597.492 553.067 541.455 535.175 508.282C517.284 475.109 448.74 477.363 382.079 513.317C315.418 549.27 275.883 605.308 293.774 638.48C311.666 671.653 380.209 669.399 446.87 633.446Z" fill="#E0E0E0"/>
<path d="M513.199 554.643C526.529 538.756 547.409 528.404 570.888 522.287C594.082 516.265 598.236 501.988 582.864 497.374C565.448 492.123 543.715 501.758 529.695 515.169C505.283 538.539 502.211 556.388 502.211 556.388L513.199 554.643Z" fill="#27DEBF"/>
<path opacity="0.15" d="M513.199 554.643C526.529 538.756 547.409 528.404 570.888 522.287C594.082 516.265 598.236 501.988 582.864 497.374C565.448 492.123 543.715 501.758 529.695 515.169C505.283 538.539 502.211 556.388 502.211 556.388L513.199 554.643Z" fill="black"/>
<path d="M506.338 553.682C506.24 553.702 506.139 553.702 506.041 553.682C505.961 553.643 505.889 553.588 505.83 553.522C505.771 553.455 505.726 553.377 505.697 553.293C505.668 553.209 505.656 553.12 505.661 553.031C505.667 552.942 505.69 552.855 505.729 552.775C525.514 512.178 569.332 502.191 579.941 502.949C580.118 502.963 580.283 503.046 580.399 503.18C580.516 503.314 580.575 503.489 580.563 503.666C580.546 503.844 580.46 504.009 580.324 504.125C580.188 504.241 580.011 504.3 579.833 504.289C569.44 503.504 526.42 513.396 506.947 553.37C506.881 553.47 506.79 553.551 506.683 553.605C506.577 553.659 506.458 553.686 506.338 553.682V553.682Z" fill="white"/>
<path d="M502.211 558.865C502.212 559.517 502.386 560.158 502.715 560.722C503.044 561.286 503.516 561.752 504.084 562.074C504.652 562.396 505.295 562.561 505.948 562.554C506.6 562.546 507.239 562.366 507.8 562.031C520.195 554.818 538.275 550.826 567.532 559.162C583.094 563.587 590.753 560.624 594.028 554.291C597.682 547.254 589.968 540.447 581.172 537.24C551.225 526.292 524.201 533.762 502.211 555.603V558.865Z" fill="#27DEBF"/>
<path d="M503.932 559.446C503.835 559.448 503.74 559.43 503.652 559.392C503.563 559.355 503.483 559.3 503.417 559.23C503.292 559.101 503.223 558.929 503.223 558.749C503.223 558.57 503.292 558.398 503.417 558.269C529.278 535.156 569.333 539.662 584.49 548.675C584.643 548.765 584.755 548.912 584.801 549.085C584.846 549.257 584.822 549.44 584.733 549.595C584.64 549.749 584.49 549.861 584.316 549.907C584.141 549.952 583.956 549.928 583.799 549.838C568.914 541.002 529.67 536.604 504.324 559.311C504.209 559.393 504.073 559.44 503.932 559.446V559.446Z" fill="white"/>
<path d="M212.877 612.751C201.51 595.403 181.996 582.655 159.397 573.818C137.096 565.104 134.646 550.448 150.452 547.66C168.369 544.507 188.816 556.646 201.158 571.613C222.647 597.703 223.581 615.823 223.581 615.823L212.877 612.751Z" fill="#27DEBF"/>
<path opacity="0.15" d="M212.877 612.751C201.51 595.403 181.996 582.655 159.397 573.818C137.096 565.104 134.646 550.448 150.452 547.66C168.369 544.507 188.816 556.646 201.158 571.613C222.647 597.703 223.581 615.823 223.581 615.823L212.877 612.751Z" fill="black"/>
<path d="M219.754 612.643C219.852 612.662 219.954 612.662 220.052 612.643C220.221 612.581 220.359 612.457 220.437 612.295C220.516 612.133 220.528 611.947 220.471 611.777C205.586 569.136 163.311 554.048 152.647 553.588C152.47 553.58 152.297 553.643 152.165 553.762C152.034 553.881 151.954 554.046 151.944 554.224C151.94 554.403 152.005 554.578 152.125 554.711C152.246 554.845 152.414 554.927 152.593 554.941C163.013 555.374 204.557 570.273 219.186 612.264C219.238 612.372 219.319 612.464 219.419 612.53C219.519 612.597 219.634 612.636 219.754 612.643Z" fill="white"/>
<path d="M223.678 614.997C223.572 615.959 223.219 616.877 222.655 617.663C222.091 618.449 221.334 619.076 220.456 619.484C219.579 619.892 218.611 620.067 217.647 619.992C216.682 619.918 215.753 619.595 214.949 619.057C203.474 611.371 186.383 606.377 158.384 610.938C142.416 613.495 135.163 609.584 132.673 602.967C129.885 595.551 138.356 589.719 147.463 587.567C178.493 580.233 204.448 590.842 223.705 615.106L223.678 614.997Z" fill="#27DEBF"/>
<path d="M221.538 618.638C221.633 618.651 221.729 618.644 221.82 618.615C221.912 618.587 221.995 618.54 222.066 618.475C222.191 618.347 222.261 618.174 222.261 617.995C222.261 617.816 222.191 617.643 222.066 617.515C199.061 591.519 158.802 591.262 142.685 598.42C142.52 598.494 142.391 598.63 142.326 598.799C142.262 598.968 142.267 599.155 142.34 599.32C142.414 599.485 142.55 599.615 142.719 599.679C142.888 599.744 143.075 599.739 143.24 599.665C159.032 592.642 198.547 592.899 221.051 618.408C221.11 618.48 221.184 618.538 221.269 618.578C221.353 618.618 221.445 618.638 221.538 618.638V618.638Z" fill="white"/>
<g filter="url(#filter0_d)">
<path d="M126.759 711.469C4.41351 640.83 4.41351 526.292 126.759 455.707C249.105 385.123 447.476 385.069 569.863 455.707C692.249 526.346 692.209 640.884 569.863 711.469C447.517 782.054 249.119 782.121 126.759 711.469Z" fill="#F5F5F5"/>
</g>
<g filter="url(#filter1_d)">
<path d="M525.338 303.563L525.121 303.455L473.536 273.765L473.225 273.616C449.124 261.437 416.971 265.104 382.382 287.46C312.907 332.387 259.968 435.801 264.136 518.443C266.207 559.622 282.094 587.864 306.087 600.287L306.29 600.395L357.888 630.099L358.132 630.234C382.233 642.413 414.413 638.8 449.029 616.417C518.504 571.49 571.442 468.076 567.275 385.434C565.231 344.228 549.344 315.986 525.338 303.563Z" fill="url(#paint0_radial)"/>
<path d="M356.117 629.137L306.358 600.368L306.115 600.219C282.122 587.769 266.248 559.527 264.164 518.402C262.31 481.54 271.824 440.578 289.064 402.538L289.402 401.699L340.663 432.228C323.395 470.268 313.909 511.23 315.763 548.092C317.725 588.405 332.976 616.309 356.117 629.137Z" fill="#1B3342"/>
<path d="M449.056 616.39C518.531 571.463 571.47 468.048 567.302 385.406C563.134 302.764 503.429 272.208 433.954 317.136C364.479 362.063 311.527 465.477 315.695 548.106C319.863 630.734 379.581 661.317 449.056 616.39Z" fill="url(#paint1_radial)"/>
<path d="M507.894 297.148L420.814 476.547L402.071 456.248C396.483 450.43 388.835 447.035 380.772 446.793C372.708 446.552 364.871 449.482 358.944 454.956C353.017 460.429 349.473 468.008 349.073 476.066C348.673 484.124 351.45 492.017 356.806 498.05L406.185 551.543C411.615 557.442 419.14 560.979 427.147 561.395C427.715 561.395 428.284 561.395 428.852 561.395C430.346 561.393 431.839 561.285 433.318 561.07C438.288 560.346 443.006 558.416 447.059 555.449C451.111 552.481 454.376 548.566 456.566 544.046L556.435 338.354C546.191 315.512 529.14 301.357 507.894 297.148Z" fill="#1B3342"/>
<path d="M578.616 238.066C578.075 237.755 577.507 237.457 576.938 237.187C570.556 234.094 563.207 233.659 556.505 235.978C549.802 238.297 544.293 243.18 541.186 249.555L430.383 477.792L424.077 471.026C422.257 469.037 420.139 467.343 417.798 466.005C414.496 464.111 400.45 455.978 398.176 454.665C392.635 451.459 386.128 450.347 379.836 451.53C373.544 452.712 367.885 456.112 363.887 461.111C359.888 466.111 357.814 472.378 358.042 478.776C358.271 485.174 360.785 491.278 365.13 495.979L414.51 549.459C416.361 551.468 418.511 553.18 420.883 554.534C424.104 556.361 438.097 564.48 440.397 565.806C443.579 567.649 447.107 568.816 450.76 569.234C454.413 569.653 458.113 569.313 461.629 568.238C465.146 567.162 468.402 565.373 471.196 562.983C473.99 560.593 476.261 557.652 477.868 554.344L608.956 284.334C611.903 278.248 612.441 271.273 610.46 264.808C608.48 258.343 604.129 252.865 598.279 249.474L578.616 238.066Z" fill="#27DEBF"/>
<path opacity="0.15" d="M578.616 238.066C578.075 237.755 577.507 237.457 576.938 237.187C570.556 234.094 563.207 233.659 556.505 235.978C549.802 238.297 544.293 243.18 541.186 249.555L430.383 477.792L424.077 471.026C422.257 469.037 420.139 467.343 417.798 466.005C414.496 464.111 400.45 455.978 398.176 454.665C392.635 451.459 386.128 450.347 379.836 451.53C373.544 452.712 367.885 456.112 363.887 461.111C359.888 466.111 357.814 472.378 358.042 478.776C358.271 485.174 360.785 491.278 365.13 495.979L414.51 549.459C416.361 551.468 418.511 553.18 420.883 554.534C424.104 556.361 438.097 564.48 440.397 565.806C443.579 567.649 447.107 568.816 450.76 569.234C454.413 569.653 458.113 569.313 461.629 568.238C465.146 567.162 468.402 565.373 471.196 562.983C473.99 560.593 476.261 557.652 477.868 554.344L608.956 284.334C611.903 278.248 612.441 271.273 610.46 264.808C608.48 258.343 604.129 252.865 598.279 249.474L578.616 238.066Z" fill="black"/>
<path opacity="0.15" d="M440.328 565.752C438.054 564.399 424.089 556.28 420.828 554.48C418.456 553.125 416.306 551.414 414.454 549.405L365.074 495.926C362.897 493.55 361.168 490.799 359.973 487.806L379.608 499.133C380.799 502.134 382.538 504.888 384.737 507.252L434.103 560.732C435.919 562.703 438.017 564.395 440.328 565.752V565.752Z" fill="black"/>
<path opacity="0.15" d="M567.032 252.668C564.453 254.983 562.348 257.777 560.835 260.895L446.865 495.655L430.383 477.792L541.186 249.555C542.696 246.431 544.806 243.636 547.397 241.328L567.032 252.668Z" fill="black"/>
<path d="M596.584 248.527C590.2 245.441 582.854 245.011 576.154 247.329C569.453 249.647 563.944 254.525 560.831 260.895L446.862 495.655L424.087 470.972C419.213 466.021 412.603 463.161 405.658 462.998C398.712 462.835 391.976 465.382 386.875 470.099C381.775 474.816 378.71 481.333 378.331 488.271C377.952 495.208 380.287 502.02 384.843 507.265L434.209 560.759C437.164 563.956 440.855 566.383 444.961 567.831C449.067 569.278 453.465 569.701 457.771 569.064C462.078 568.427 466.165 566.748 469.675 564.173C473.186 561.599 476.016 558.206 477.919 554.29L609.006 284.279C612.095 277.89 612.522 270.536 610.193 263.833C607.864 257.129 602.969 251.624 596.584 248.527Z" fill="url(#paint2_linear)"/>
</g>
<path d="M222.77 274.915C212.445 274.915 205.381 277.622 198.047 288.042C191.28 297.623 172.822 329.559 172.822 329.559C172.822 329.559 159.29 301.791 157.937 296.256C156.583 290.721 156.665 288.258 157.937 285.85C159.799 283.003 160.967 279.758 161.347 276.377C161.875 269.719 163.499 264.022 162.01 263.832C157.883 263.602 157.72 268.907 155.555 272.033C155.28 272.335 154.938 272.568 154.556 272.712C154.174 272.857 153.764 272.91 153.358 272.866C152.952 272.823 152.562 272.684 152.219 272.462C151.877 272.24 151.592 271.94 151.387 271.587C150.48 269.733 150.968 266.688 150.535 264.496C150.652 263.276 150.846 262.064 151.116 260.869C152.68 261.15 154.276 261.196 155.853 261.004C157.639 263.805 158.857 264.983 161.347 263.846C161.672 263.332 160.278 259.786 158.64 257.08C158.395 256.666 157.996 256.365 157.531 256.241C154.529 255.481 151.396 255.393 148.356 255.984C148.126 256.007 147.903 256.077 147.701 256.189C147.499 256.3 147.321 256.451 147.179 256.633C146.036 258.307 145.126 260.128 144.472 262.046C144.296 262.628 143.755 262.615 143.619 262.114C142.266 255.578 142.266 246.295 142.266 241.951C142.266 238.527 137.273 237.986 137.097 242.884C136.8 249.457 136.913 256.042 137.435 262.601C137.435 263.196 136.84 263.481 136.596 262.831C135.73 260.517 133.606 253.521 132.712 241.45C132.469 238.202 127.218 237.674 127.299 242.235C127.505 250.32 128.557 258.362 130.439 266.228C130.601 266.796 130.074 267.297 129.681 266.647C127.218 261.9 125.25 256.912 123.808 251.762C122.685 247.837 117.448 248.839 118.395 253.724C120.033 262.479 122.631 273.549 126.515 281.465C130.656 289.923 134.228 294.158 136.285 300.803C138.342 307.447 146.854 345.081 155.961 359.75C163.093 371.252 171.253 370.183 180.035 364.121C188.818 358.058 220.199 314.335 220.199 314.335L222.77 274.915Z" fill="#DE9898"/>
<path d="M172.824 329.546C172.824 329.546 177.222 337.002 177.899 342.97C179.017 337.176 177.905 331.173 174.786 326.163L172.824 329.546Z" fill="#B47575"/>
<path d="M224.96 274.916C219.71 274.374 213.174 274.199 205.893 278.786C198.613 283.374 196.069 289.761 192.537 295.35C189.005 300.939 176.799 320.736 176.799 320.736C176.799 320.736 181.278 339.533 199.087 343.403L225.759 307.217L224.96 274.916Z" fill="#1B3342"/>
<path d="M248.876 605.417C250.23 605.241 252.029 609.855 252.057 611.357C252.084 612.859 250.568 616.094 248.579 619.125C245.92 622.733 243.716 626.656 242.016 630.803C240.486 634.971 239.079 637.705 234.816 643.158C230.08 649.234 218.956 659.397 202.068 654.985C197.941 653.903 195.884 652.604 194.382 651.102C193.723 650.436 193.263 649.599 193.055 648.685C192.847 647.772 192.899 646.818 193.204 645.932L248.876 605.417Z" fill="#263238"/>
<path d="M215.694 600.139V600.287C215.501 601.551 215.537 602.839 215.802 604.09C216.267 607.817 215.936 611.599 214.833 615.189C213.73 618.779 211.879 622.094 209.402 624.916C207.049 627.372 204.393 629.519 201.499 631.304C192.946 636.717 192.026 640.411 193.23 645.932C196.099 652.36 215.491 656.271 226.642 646.703C231.453 642.969 235.131 637.969 237.265 632.264C238.883 628.178 240.763 624.2 242.894 620.356C245.046 616.296 249.133 611.722 249.254 607.541C249.322 605.24 247.049 600.964 244.843 597.446C242.813 594.211 240.716 591.14 238.889 591.491L239.403 593.318C237.874 594.902 235.668 595.497 234.342 597.378C232.691 599.665 232.745 602.791 231.73 605.362C231.697 605.494 231.635 605.618 231.548 605.723C231.462 605.828 231.353 605.913 231.229 605.971C231.086 605.995 230.94 605.972 230.81 605.907C230.681 605.841 230.577 605.735 230.512 605.606C230.402 605.34 230.351 605.054 230.363 604.767L230.241 600.829C230.302 600.072 230.102 599.317 229.673 598.691C228.618 597.5 226.019 597.635 224.571 597.581C222.622 597.596 220.676 597.714 218.739 597.933C218.068 597.866 217.395 598.044 216.844 598.434C216.291 598.867 215.889 599.463 215.694 600.139V600.139Z" fill="url(#paint3_radial)"/>
<path d="M187.032 521.462C191.538 536.28 212.608 587.581 213.867 590.667L218.062 600.843C220.824 601.751 223.784 601.878 226.614 601.208C227.061 606.12 227.805 613.82 228.089 617.704C228.198 622.21 228.59 627.786 227.616 632.238C226.79 636.027 225.829 640.005 225.112 643.808C224.801 645.486 224.49 647.178 224.233 648.869C223.796 650.641 223.943 652.506 224.652 654.187C225.084 654.921 225.654 655.565 226.33 656.082C229.336 658.443 233.135 659.557 236.939 659.194C238.951 659.098 240.898 658.452 242.569 657.327C245.844 654.986 246.994 650.913 248.658 647.448C250.472 643.7 249.89 643.28 250.012 639.261C250.12 636.446 250.905 629.301 252.028 621.832C253.151 614.362 257.996 588.109 260.323 561.951C261.272 550.332 261.272 538.656 260.323 527.037C278.808 476.819 287.036 446.953 289.458 430.281C291.908 413.339 290.73 407.276 290.419 397.546L200.524 399.712C193.325 446.182 180.983 501.597 187.032 521.462Z" fill="#9E6767"/>
<path d="M185.623 484.383C187.477 467.306 200.252 401.66 200.252 401.66H290.81C290.81 401.66 291.392 414.259 291.23 420.051C291.068 425.842 289.2 436.411 285.966 449.822C282.732 463.232 270.742 501.082 268.374 506.658C266.006 512.233 261.608 528.404 261.608 528.404C263.827 558.771 258.049 586.025 253.718 622.251C253.718 622.251 252.46 627.136 239.631 626.175C227.154 625.228 224.637 620.627 224.637 620.627L223.812 589.381C223.812 589.381 217.046 591.465 212.986 590.518C212.986 590.518 186.178 524.331 184.879 520.352C183.58 516.374 183.77 501.461 185.623 484.383Z" fill="#27DEBF"/>
<path opacity="0.45" d="M185.623 484.383C187.477 467.306 200.252 401.66 200.252 401.66H290.81C290.81 401.66 291.392 414.259 291.23 420.051C291.068 425.842 289.2 436.411 285.966 449.822C282.732 463.232 270.742 501.082 268.374 506.658C266.006 512.233 261.608 528.404 261.608 528.404C263.827 558.771 258.049 586.025 253.718 622.251C253.718 622.251 252.46 627.136 239.631 626.175C227.154 625.228 224.637 620.627 224.637 620.627L223.812 589.381C223.812 589.381 217.046 591.465 212.986 590.518C212.986 590.518 186.178 524.331 184.879 520.352C183.58 516.374 183.77 501.461 185.623 484.383Z" fill="url(#paint4_linear)"/>
<path opacity="0.2" d="M224.043 444.449C211.215 432.892 208.359 423.69 208.359 423.69C214.809 430.957 222.446 437.075 230.945 441.783C230.945 441.783 218.766 506.089 219.659 519.31C220.552 532.531 223.813 589.381 223.813 589.381C223.813 589.922 215.18 529.256 214.923 524.425C214.341 511.637 224.043 444.449 224.043 444.449Z" fill="black"/>
<path d="M252.228 654.444C253.487 654.81 253.324 658.572 252.756 659.979C251.348 662.435 249.353 664.504 246.951 666.001C243.43 668.399 240.493 671.558 238.358 675.244C234.883 680.558 230.287 685.048 224.893 688.397C217.708 692.474 209.24 693.659 201.211 691.712C192.713 689.304 191.928 687.22 191.996 684.013L252.228 654.444Z" fill="#263238"/>
<path d="M225.976 634.768C223.743 645.594 219.86 653.551 210.861 660.236C203.689 665.568 198.492 668.275 192.768 673.024C190.346 675.054 190.143 679.371 191.997 684.026C195.867 687.125 201.361 688.911 208.736 688.898C216.991 688.898 220.157 687.423 224.894 684.189C227.22 682.598 229.387 680.785 231.362 678.776C235.327 674.797 238.128 669.885 240.943 666.732C243.758 663.579 249.996 660.358 251.769 656.556C252.743 654.472 252.337 649.641 251.688 645.527C251.092 641.751 252.243 635.12 250.429 634.701L250.172 637.407C250.023 638.016 249.644 638.327 248.372 638.761C247.229 639.008 246.05 639.041 244.895 638.855C244.484 638.707 244.037 638.691 243.617 638.81C243.197 638.929 242.825 639.177 242.553 639.518C241.336 640.953 241.011 642.983 239.441 644.173C239.34 644.262 239.219 644.327 239.089 644.363C239.029 644.397 238.96 644.413 238.891 644.411C238.822 644.409 238.755 644.387 238.697 644.349C238.655 644.284 238.627 644.21 238.615 644.133C238.604 644.056 238.608 643.978 238.629 643.903L239.076 639.843C239.13 639.439 239.13 639.029 239.076 638.625C238.991 638.248 238.826 637.894 238.593 637.585C238.359 637.277 238.062 637.023 237.722 636.839C236.583 636.176 235.358 635.67 234.082 635.337C232.754 634.976 231.395 634.745 230.022 634.647C228.676 634.474 227.31 634.515 225.976 634.768Z" fill="url(#paint5_radial)"/>
<path d="M282.638 278.8C282.638 278.8 286.36 283.915 289.405 294.457C293.111 311.77 295.015 329.42 295.088 347.125C295.088 371.036 291.867 409.78 291.867 409.78C264.113 423.691 219.348 415.463 199.645 401.89C200.443 397.587 201.12 374.961 202.676 360.035C203.718 334.431 204.584 321.021 204.76 309.627C205.125 286.865 216.452 275.106 225.058 274.93L246.791 275.268L282.638 278.8Z" fill="url(#paint6_linear)"/>
<path d="M289.484 402.756C285.357 406.152 277.305 412.675 275.776 415.963C274.071 419.725 273.069 425.436 271.919 427.574C270.769 429.712 272.501 430.795 274.883 430.024C277.264 429.252 278.685 427.236 280.526 422.31C282.366 417.384 287.481 413.528 287.481 413.528L289.484 402.756Z" fill="#C57C7C"/>
<path d="M274.411 447.047C275.399 448.956 277.699 448.969 279.824 449.131C282.414 449.428 285.038 449.132 287.497 448.265C290.451 447.412 293.043 445.61 294.872 443.137C296.956 440.132 297.497 436.37 298.688 432.92C301.178 425.68 308.593 420.456 309.811 412.784C310.312 409.617 310.312 405.882 311.165 403.92C311.692 402.756 323.885 381.767 328.242 372.674C332.41 363.932 335.536 359.818 331.747 349.317C327.958 338.816 315.062 301.859 305.928 289.017C300.758 281.736 292.544 279.652 282.584 278.8C275.006 298.53 283.816 318.923 283.816 318.923L303.925 357.599C303.925 357.599 296.13 384.23 291.259 399.035C289.905 403.094 287.199 405.693 284.1 410.253C282.747 412.229 279.688 415.666 278.606 417.818C277.253 420.524 277.253 422.31 276.576 426.14C275.52 432.243 273.883 446.141 274.411 447.047Z" fill="#DE9898"/>
<path d="M281.569 278.691C286.806 278.894 294.33 279.788 298.823 282.061C303.316 284.334 306.442 287.136 311.611 297.501C316.78 307.867 324.345 328.003 324.345 328.003C324.345 328.003 321.842 343.2 297.808 347.138L281.569 317.191C281.569 317.191 274.329 298.53 281.569 278.691Z" fill="#1B3342"/>
<path d="M219.13 230.327C219.84 231.611 220.455 232.945 220.971 234.319C221.771 236.113 222.794 237.8 224.015 239.339C227.128 242.925 231.499 245.551 235.491 248.095C237.9 249.637 240.66 251.085 243.61 250.666C246.56 250.246 249.849 250.882 252.893 251.153L263.543 252.114L262.948 263.305C262.948 263.305 264.301 260.342 266.074 256.796C267.617 253.751 274.085 238.311 274.112 238.243C277.319 230.597 281.122 220.394 277.292 212.356C276.422 210.376 274.968 208.71 273.124 207.579C273.495 206.343 273.615 205.046 273.476 203.763C273.263 201.942 272.645 200.191 271.666 198.641C270.687 197.091 269.372 195.78 267.82 194.804C264.789 192.756 261.372 191.347 257.779 190.664C253.013 189.567 248.135 189.027 243.245 189.053C238.453 189.199 233.682 189.747 228.982 190.691C226.36 191.175 223.704 191.451 221.038 191.516C219.89 191.591 218.737 191.537 217.601 191.354C216.189 190.932 214.802 190.43 213.447 189.852C213.329 189.802 213.202 189.777 213.075 189.777C212.947 189.777 212.82 189.802 212.702 189.852C212.595 189.923 212.504 190.017 212.436 190.127C212.369 190.236 212.326 190.36 212.31 190.488C211.958 192.177 211.973 193.922 212.353 195.606C212.734 197.289 213.471 198.871 214.516 200.244C213.907 200.161 213.314 199.988 212.757 199.73C212.124 199.437 211.513 199.098 210.93 198.715C209.936 198.049 209.066 197.216 208.359 196.252C208.261 196.101 208.112 195.991 207.939 195.941C207.668 195.941 207.452 196.131 207.289 196.347C206.559 197.433 206.062 198.659 205.829 199.947C205.596 201.235 205.633 202.557 205.936 203.83C206.533 206.386 207.74 208.759 209.455 210.746C208.618 212.097 208.135 213.637 208.05 215.223C207.965 216.81 208.281 218.393 208.967 219.826C209.569 221.097 210.379 222.258 211.363 223.263C212.581 224.508 214.069 225.523 215.301 226.687C216.713 227.749 217.998 228.97 219.13 230.327Z" fill="#1B3342"/>
<path d="M251.567 211.679C251.527 213.7 251.787 215.716 252.338 217.661C252.98 219.369 254.014 220.903 255.356 222.14C256.874 223.428 258.277 224.845 259.551 226.375C260.925 228.758 261.731 231.425 261.905 234.17C261.913 234.979 262.102 235.775 262.458 236.501C262.814 237.227 263.328 237.864 263.962 238.365C266.858 240.165 268.59 236.687 270.133 234.982C272.122 233.142 278.036 230.922 280.769 237.174C283.598 243.67 278.374 252.276 273.624 253.603C265.437 255.89 263.651 250.314 263.651 250.314L262.081 279.544C257.467 288.3 246.614 291.087 239.482 289.693C233.325 288.489 229.942 284.172 235.734 277.92L236.045 269.016C236.045 269.016 228.656 269.896 225.097 269.219C219.157 268.109 216.22 263.062 214.61 256.553C212.052 246.092 210.875 235.09 214.055 211.531C215.503 210.732 221.362 215.292 230.294 215.901C237.634 216.419 244.98 214.961 251.567 211.679V211.679Z" fill="#DE9898"/>
<path d="M235.993 268.988C235.993 268.988 249.39 266.742 254.126 264.415C256.906 263.076 259.217 260.93 260.757 258.257C259.966 260.956 258.641 263.469 256.86 265.646C253.314 269.882 235.871 272.534 235.871 272.534L235.993 268.988Z" fill="#C57C7C"/>
<path d="M242.961 222.14L249.199 224.048C249.438 223.195 249.337 222.284 248.918 221.504C248.5 220.725 247.795 220.138 246.953 219.866C246.542 219.746 246.11 219.709 245.684 219.759C245.259 219.809 244.847 219.944 244.475 220.156C244.102 220.368 243.776 220.653 243.516 220.994C243.256 221.335 243.067 221.724 242.961 222.14V222.14Z" fill="#263238"/>
<path d="M240.796 251.694L231.607 254.807C231.786 255.421 232.087 255.993 232.491 256.489C232.895 256.985 233.395 257.394 233.96 257.693C234.525 257.992 235.145 258.175 235.782 258.23C236.42 258.285 237.062 258.212 237.67 258.014C238.906 257.568 239.922 256.661 240.505 255.483C241.088 254.305 241.192 252.948 240.796 251.694V251.694Z" fill="#874C4C"/>
<path d="M240.05 253.941C238.85 253.942 237.685 254.341 236.737 255.076C235.789 255.811 235.112 256.839 234.812 258.001C235.74 258.305 236.74 258.305 237.668 258.001C238.524 257.698 239.281 257.167 239.858 256.466C240.435 255.765 240.81 254.92 240.943 254.022C240.648 253.968 240.349 253.941 240.05 253.941V253.941Z" fill="#F28F8F"/>
<path d="M215.111 223.128L221.458 222.302C221.41 221.892 221.28 221.494 221.076 221.135C220.872 220.775 220.597 220.459 220.27 220.207C219.942 219.955 219.567 219.771 219.166 219.666C218.766 219.561 218.349 219.537 217.94 219.596C217.103 219.704 216.341 220.133 215.813 220.792C215.286 221.45 215.034 222.288 215.111 223.128V223.128Z" fill="#263238"/>
<path d="M218.237 234.008C218.213 234.345 218.257 234.683 218.366 235.002C218.474 235.322 218.646 235.616 218.871 235.869C219.095 236.121 219.368 236.326 219.673 236.471C219.977 236.616 220.308 236.699 220.646 236.714C220.981 236.718 221.315 236.655 221.626 236.53C221.938 236.405 222.222 236.219 222.462 235.984C222.702 235.749 222.893 235.469 223.025 235.16C223.157 234.851 223.227 234.52 223.23 234.184C223.254 233.847 223.21 233.509 223.101 233.189C222.992 232.87 222.821 232.575 222.596 232.323C222.372 232.071 222.099 231.866 221.794 231.721C221.49 231.575 221.159 231.493 220.821 231.477C220.486 231.474 220.152 231.536 219.841 231.661C219.529 231.787 219.245 231.972 219.005 232.207C218.765 232.442 218.574 232.722 218.442 233.031C218.31 233.34 218.24 233.672 218.237 234.008V234.008Z" fill="#263238"/>
<path d="M242.148 234.008C242.151 234.499 242.299 234.978 242.572 235.386C242.845 235.794 243.232 236.113 243.685 236.302C244.138 236.492 244.637 236.544 245.119 236.452C245.602 236.361 246.047 236.129 246.398 235.787C246.75 235.444 246.994 235.006 247.098 234.526C247.203 234.046 247.164 233.546 246.986 233.088C246.809 232.63 246.5 232.235 246.1 231.951C245.699 231.667 245.224 231.507 244.733 231.491C244.057 231.484 243.406 231.744 242.921 232.216C242.437 232.688 242.159 233.332 242.148 234.008V234.008Z" fill="#263238"/>
<path d="M231.606 232.235L231.132 249.638L221.43 246.823L230.483 232.086C230.864 232.05 231.248 232.101 231.606 232.235Z" fill="#C58787"/>
<path d="M478.1 212.826C551.759 212.826 611.471 168.317 611.471 113.413C611.471 58.5087 551.759 14 478.1 14C404.441 14 344.728 58.5087 344.728 113.413C344.728 168.317 404.441 212.826 478.1 212.826Z" fill="url(#paint7_linear)"/>
<path d="M371.655 170.916C370.899 184.243 357.652 208.077 333.713 216.87C333.393 216.985 333.124 217.184 332.944 217.437C332.764 217.69 332.683 217.985 332.71 218.28C332.738 218.575 332.874 218.854 333.1 219.08C333.325 219.305 333.628 219.464 333.965 219.535C347.65 222.116 361.922 221.241 375.03 217.018C388.139 212.795 399.514 205.408 407.76 195.762L371.655 170.916Z" fill="url(#paint8_linear)"/>
<g filter="url(#filter2_d)">
<path d="M249.059 113.502L241.481 115.789L236 97.4795L243.565 95.2061L249.059 113.502Z" fill="#F2F2F2"/>
<path d="M272.769 97.2492C272.832 97.9919 272.658 98.7354 272.271 99.3727C271.885 100.01 271.306 100.508 270.618 100.795C271.11 101.354 271.475 102.015 271.687 102.73C272.12 104.083 270.969 106.045 268.682 106.79L251.32 112.013L246.219 95.0028C246.219 95.0028 249.155 87.4924 249.304 86.3557C249.453 85.2189 247.721 81.051 247.477 80.2661C247.234 79.4812 250.048 78.4528 252.268 79.3459C252.784 79.5754 253.245 79.9121 253.621 80.3338C254.419 81.1839 255.089 82.1457 255.61 83.1891C256.347 84.6761 256.709 86.3206 256.666 87.9795L267.18 84.7724C267.906 84.5098 268.701 84.5098 269.427 84.7724C269.902 84.9601 270.32 85.2674 270.642 85.6645C270.963 86.0616 271.176 86.5351 271.261 87.0389C271.345 87.5427 271.298 88.0597 271.123 88.5399C270.949 89.0201 270.654 89.447 270.266 89.7793C270.892 89.734 271.515 89.9 272.035 90.2509C272.555 90.6018 272.942 91.1172 273.135 91.7145C273.295 92.4088 273.21 93.1374 272.894 93.7763C272.579 94.4152 272.052 94.9251 271.402 95.2193C272.104 95.6929 272.594 96.4208 272.769 97.2492Z" fill="#F2F2F2"/>
<path d="M605.429 421.891L595.699 419.55L601.369 396.085L611.085 398.413L605.429 421.891Z" fill="#E0E0E0"/>
<path d="M641.656 419.252C641.252 420.102 640.589 420.802 639.763 421.252C638.936 421.702 637.988 421.878 637.055 421.756C637.231 422.679 637.207 423.629 636.988 424.543C636.555 426.37 634.078 427.71 631.155 426.993L608.881 421.58L614.131 399.779C614.131 399.779 622.129 393.46 623.009 392.309C623.888 391.159 624.646 385.543 624.89 384.501C625.133 383.459 628.855 384.163 630.709 386.558C631.159 387.14 631.473 387.815 631.629 388.534C631.957 389.966 632.076 391.438 631.981 392.905C631.834 395 631.184 397.028 630.086 398.818L643.537 402.066C644.492 402.268 645.344 402.8 645.946 403.568C646.279 404.007 646.516 404.511 646.639 405.047C646.763 405.584 646.771 406.141 646.663 406.681C646.483 407.392 646.107 408.039 645.579 408.548C645.05 409.057 644.39 409.409 643.673 409.563C644.384 409.912 644.958 410.49 645.302 411.204C645.646 411.918 645.739 412.727 645.567 413.501C645.293 414.356 644.733 415.092 643.982 415.584C643.231 416.077 642.334 416.297 641.44 416.207C641.905 417.156 641.983 418.248 641.656 419.252V419.252Z" fill="#E0E0E0"/>
<path d="M113.961 407.844L124.584 411.051L132.27 385.421L121.661 382.214L113.961 407.844Z" fill="#E0E0E0"/>
<path d="M80.7635 385.083C80.6749 386.124 80.9195 387.166 81.462 388.058C82.0044 388.951 82.8166 389.648 83.7812 390.049C83.0992 390.836 82.5919 391.758 82.2927 392.756C81.6837 394.745 83.3076 397.411 86.4877 398.358L110.846 405.679L117.964 381.822C117.964 381.822 113.837 371.293 113.634 369.642C113.431 367.992 115.866 362.227 116.191 361.117C116.462 360.224 112.592 358.587 109.425 359.845C108.672 360.14 107.996 360.603 107.449 361.198C106.325 362.407 105.385 363.775 104.662 365.258C103.625 367.36 103.114 369.681 103.173 372.024L88.5582 367.613C87.5276 367.274 86.41 367.312 85.4051 367.721C84.7391 367.983 84.1524 368.413 83.7022 368.97C83.252 369.526 82.9538 370.19 82.8366 370.896C82.7193 371.602 82.7871 372.326 83.0333 372.999C83.2795 373.671 83.6957 374.267 84.2413 374.731C83.3581 374.655 82.4753 374.881 81.7377 375.373C81.0001 375.865 80.4514 376.593 80.1816 377.437C79.9567 378.412 80.0748 379.434 80.5161 380.331C80.9574 381.228 81.6949 381.946 82.6039 382.363C81.6767 383.012 81.0215 383.981 80.7635 385.083Z" fill="#E0E0E0"/>
</g>
<path d="M422.119 78.2276V74.6875H405.523V97.4219H409.745V88.7179H420.723V85.1453H409.745V78.2276H422.119ZM430.424 93.8818V87.6136H441.402V84.1385H430.424V78.2276H442.798V74.6875H426.202V97.4219H443.253V93.8818H430.424ZM452.182 93.8818V87.6136H463.159V84.1385H452.182V78.2276H464.556V74.6875H447.96V97.4219H465.011V93.8818H452.182ZM469.717 97.4219H485.826V93.8493H473.939V74.6875H469.717V97.4219ZM489.16 97.4219H493.382V74.6875H489.16V97.4219ZM515.542 74.6875V90.0819L503.006 74.6875H499.531V97.4219H503.72V82.0275L516.257 97.4219H519.732V74.6875H515.542ZM541.348 92.875C539.887 93.7194 538.295 94.0442 536.671 94.0442C531.865 94.0442 528.454 90.6665 528.454 86.0547C528.454 81.3454 531.865 78.0652 536.704 78.0652C539.14 78.0652 541.186 78.8771 542.972 80.6634L545.635 78.0652C543.492 75.6294 540.309 74.3628 536.509 74.3628C529.396 74.3628 524.2 79.2669 524.2 86.0547C524.2 92.8425 529.396 97.7467 536.444 97.7467C539.659 97.7467 542.972 96.7723 545.343 94.8561V85.7949H541.348V92.875ZM387.629 137.877C391.818 137.877 395.196 136.35 397.405 133.59L393.312 129.887C391.883 131.608 390.13 132.55 387.954 132.55C384.219 132.55 381.621 129.952 381.621 126.055C381.621 122.157 384.219 119.559 387.954 119.559C390.13 119.559 391.883 120.501 393.312 122.222L397.405 118.52C395.196 115.759 391.818 114.233 387.629 114.233C380.419 114.233 375.125 119.137 375.125 126.055C375.125 132.972 380.419 137.877 387.629 137.877ZM411.261 137.877C418.536 137.877 423.894 132.875 423.894 126.055C423.894 119.234 418.536 114.233 411.261 114.233C403.986 114.233 398.627 119.234 398.627 126.055C398.627 132.875 403.986 137.877 411.261 137.877ZM411.261 132.55C407.818 132.55 405.122 129.984 405.122 126.055C405.122 122.125 407.818 119.559 411.261 119.559C414.703 119.559 417.399 122.125 417.399 126.055C417.399 129.984 414.703 132.55 411.261 132.55ZM442.592 114.688V126.802L432.556 114.688H427.262V137.422H433.563V125.308L443.599 137.422H448.893V114.688H442.592ZM470.059 114.688L463.758 129.497L457.587 114.688H450.637L460.348 137.422H466.681L476.424 114.688H470.059ZM477.755 137.422H484.186V114.688H477.755V137.422ZM504.09 114.688V126.802L494.055 114.688H488.761V137.422H495.061V125.308L505.097 137.422H510.391V114.688H504.09ZM526.261 137.877C530.451 137.877 533.829 136.35 536.037 133.59L531.945 129.887C530.516 131.608 528.762 132.55 526.586 132.55C522.851 132.55 520.253 129.952 520.253 126.055C520.253 122.157 522.851 119.559 526.586 119.559C528.762 119.559 530.516 120.501 531.945 122.222L536.037 118.52C533.829 115.759 530.451 114.233 526.261 114.233C519.051 114.233 513.758 119.137 513.758 126.055C513.758 132.972 519.051 137.877 526.261 137.877ZM545.27 132.453V128.296H555.371V123.489H545.27V119.657H556.735V114.688H538.904V137.422H557.157V132.453H545.27ZM560.725 137.422H571.475C579.01 137.422 584.174 133.037 584.174 126.055C584.174 119.072 579.01 114.688 571.475 114.688H560.725V137.422ZM567.156 132.29V119.819H571.216C575.08 119.819 577.679 122.125 577.679 126.055C577.679 129.984 575.08 132.29 571.216 132.29H567.156ZM459.285 169.887H463.41C463.41 166.055 468.963 165.568 468.963 160.274C468.963 156.539 465.78 154.363 461.006 154.363C456.947 154.363 454.024 155.857 452.205 158.325L455.355 160.371C456.492 158.78 458.246 157.87 460.649 157.87C463.15 157.87 464.709 159.104 464.709 160.923C464.709 164.171 459.285 165.08 459.285 169.887ZM461.364 177.649C462.857 177.649 463.929 176.513 463.929 175.116C463.929 173.719 462.857 172.615 461.364 172.615C459.837 172.615 458.765 173.719 458.765 175.116C458.765 176.513 459.837 177.649 461.364 177.649ZM477.427 169.887H481.551C481.551 166.055 487.105 165.568 487.105 160.274C487.105 156.539 483.922 154.363 479.148 154.363C475.088 154.363 472.165 155.857 470.347 158.325L473.497 160.371C474.634 158.78 476.387 157.87 478.791 157.87C481.292 157.87 482.851 159.104 482.851 160.923C482.851 164.171 477.427 165.08 477.427 169.887ZM479.505 177.649C480.999 177.649 482.071 176.513 482.071 175.116C482.071 173.719 480.999 172.615 479.505 172.615C477.979 172.615 476.907 173.719 476.907 175.116C476.907 176.513 477.979 177.649 479.505 177.649ZM495.569 169.887H499.693C499.693 166.055 505.247 165.568 505.247 160.274C505.247 156.539 502.064 154.363 497.29 154.363C493.23 154.363 490.307 155.857 488.488 158.325L491.639 160.371C492.775 158.78 494.529 157.87 496.933 157.87C499.433 157.87 500.992 159.104 500.992 160.923C500.992 164.171 495.569 165.08 495.569 169.887ZM497.647 177.649C499.141 177.649 500.213 176.513 500.213 175.116C500.213 173.719 499.141 172.615 497.647 172.615C496.121 172.615 495.049 173.719 495.049 175.116C495.049 176.513 496.121 177.649 497.647 177.649Z" fill="white"/>
<defs>
<filter id="filter0_d" x="7.93531" y="387.863" width="691.593" height="426.639" filterUnits="userSpaceOnUse" color-interpolation-filters="sRGB">
<feFlood flood-opacity="0" result="BackgroundImageFix"/>
<feColorMatrix in="SourceAlpha" type="matrix" values="0 0 0 0 0 0 0 0 0 0 0 0 0 0 0 0 0 0 127 0"/>
<feOffset dx="5.41294" dy="17.5921"/>
<feGaussianBlur stdDeviation="16.2388"/>
<feColorMatrix type="matrix" values="0 0 0 0 0 0 0 0 0 0 0 0 0 0 0 0 0 0 0.3 0"/>
<feBlend mode="normal" in2="BackgroundImageFix" result="effect1_dropShadow"/>
<feBlend mode="normal" in="SourceGraphic" in2="effect1_dropShadow" result="shape"/>
</filter>
<filter id="filter1_d" x="184.065" y="156.019" width="483.094" height="537.934" filterUnits="userSpaceOnUse" color-interpolation-filters="sRGB">
<feFlood flood-opacity="0" result="BackgroundImageFix"/>
<feColorMatrix in="SourceAlpha" type="matrix" values="0 0 0 0 0 0 0 0 0 0 0 0 0 0 0 0 0 0 127 0"/>
<feOffset dx="-12.1791" dy="-10.8259"/>
<feGaussianBlur stdDeviation="33.8309"/>
<feColorMatrix type="matrix" values="0 0 0 0 1 0 0 0 0 1 0 0 0 0 1 0 0 0 0.06 0"/>
<feBlend mode="normal" in2="BackgroundImageFix" result="effect1_dropShadow"/>
<feBlend mode="normal" in="SourceGraphic" in2="effect1_dropShadow" result="shape"/>
</filter>
<filter id="filter2_d" x="0.229456" y="0.512378" width="701.992" height="483.513" filterUnits="userSpaceOnUse" color-interpolation-filters="sRGB">
<feFlood flood-opacity="0" result="BackgroundImageFix"/>
<feColorMatrix in="SourceAlpha" type="matrix" values="0 0 0 0 0 0 0 0 0 0 0 0 0 0 0 0 0 0 127 0"/>
<feOffset dx="-12.1791" dy="-10.8259"/>
<feGaussianBlur stdDeviation="33.8309"/>
<feColorMatrix type="matrix" values="0 0 0 0 0 0 0 0 0 0 0 0 0 0 0 0 0 0 0.25 0"/>
<feBlend mode="normal" in2="BackgroundImageFix" result="effect1_dropShadow"/>
<feBlend mode="normal" in="SourceGraphic" in2="effect1_dropShadow" result="shape"/>
</filter>
<radialGradient id="paint0_radial" cx="0" cy="0" r="1" gradientUnits="userSpaceOnUse" gradientTransform="translate(415.705 451.933) rotate(90) scale(185.184 151.799)">
<stop stop-color="#335063"/>
<stop offset="1" stop-color="#1B3342"/>
</radialGradient>
<radialGradient id="paint1_radial" cx="0" cy="0" r="1" gradientUnits="userSpaceOnUse" gradientTransform="translate(406.457 499.809) rotate(75.682) scale(141.696 104.838)">
<stop stop-color="#335063"/>
<stop offset="1" stop-color="#1B3342"/>
</radialGradient>
<linearGradient id="paint2_linear" x1="494.984" y1="245.855" x2="494.984" y2="569.352" gradientUnits="userSpaceOnUse">
<stop stop-color="#379BE7"/>
<stop offset="1" stop-color="#1DE9C4"/>
</linearGradient>
<radialGradient id="paint3_radial" cx="0" cy="0" r="1" gradientUnits="userSpaceOnUse" gradientTransform="translate(221.029 621.952) rotate(90) scale(30.4883 28.2266)">
<stop stop-color="#335063"/>
<stop offset="1" stop-color="#1B3342"/>
</radialGradient>
<linearGradient id="paint4_linear" x1="225.8" y1="451.77" x2="237.651" y2="626.301" gradientUnits="userSpaceOnUse">
<stop stop-color="#379BE7"/>
<stop offset="1" stop-color="#1DE9C4"/>
</linearGradient>
<radialGradient id="paint5_radial" cx="0" cy="0" r="1" gradientUnits="userSpaceOnUse" gradientTransform="translate(221.554 661.72) rotate(90) scale(27.178 30.7964)">
<stop stop-color="#335063"/>
<stop offset="1" stop-color="#1B3342"/>
</radialGradient>
<linearGradient id="paint6_linear" x1="247.454" y1="292.765" x2="233.245" y2="413.203" gradientUnits="userSpaceOnUse">
<stop stop-color="#AEFFF1"/>
<stop offset="1" stop-color="#BCE0FC"/>
</linearGradient>
<linearGradient id="paint7_linear" x1="472.088" y1="14" x2="472.088" y2="220.986" gradientUnits="userSpaceOnUse">
<stop stop-color="#379BE7"/>
<stop offset="1" stop-color="#1DE9C4"/>
</linearGradient>
<linearGradient id="paint8_linear" x1="472.088" y1="14" x2="472.088" y2="220.986" gradientUnits="userSpaceOnUse">
<stop stop-color="#379BE7"/>
<stop offset="1" stop-color="#1DE9C4"/>
</linearGradient>
</defs>
</svg>
