<svg width="37" height="36" viewBox="0 0 37 36" fill="none" xmlns="http://www.w3.org/2000/svg">
<g clip-path="url(#clip0)">
<path d="M30.9551 0H6.95508C5.36378 0 3.83766 0.632141 2.71244 1.75736C1.58722 2.88258 0.955078 4.4087 0.955078 6L0.955078 30C0.955078 31.5913 1.58722 33.1174 2.71244 34.2426C3.83766 35.3679 5.36378 36 6.95508 36H30.9551C32.5464 36 34.0725 35.3679 35.1977 34.2426C36.3229 33.1174 36.9551 31.5913 36.9551 30V6C36.9551 4.4087 36.3229 2.88258 35.1977 1.75736C34.0725 0.632141 32.5464 0 30.9551 0V0ZM33.9551 30C33.9551 30.7956 33.639 31.5587 33.0764 32.1213C32.5138 32.6839 31.7507 33 30.9551 33H6.95508C6.15943 33 5.39637 32.6839 4.83376 32.1213C4.27115 31.5587 3.95508 30.7956 3.95508 30V6C3.95508 5.20435 4.27115 4.44129 4.83376 3.87868C5.39637 3.31607 6.15943 3 6.95508 3H30.9551C31.7507 3 32.5138 3.31607 33.0764 3.87868C33.639 4.44129 33.9551 5.20435 33.9551 6V30Z" fill="#E0E0E0"/>
<path d="M18.9551 9C17.175 9 15.435 9.52784 13.9549 10.5168C12.4749 11.5057 11.3214 12.9113 10.6402 14.5558C9.95898 16.2004 9.78075 18.01 10.128 19.7558C10.4753 21.5016 11.3324 23.1053 12.5911 24.364C13.8498 25.6226 15.4534 26.4798 17.1993 26.8271C18.9451 27.1743 20.7547 26.9961 22.3992 26.3149C24.0438 25.6337 25.4494 24.4802 26.4383 23.0001C27.4272 21.5201 27.9551 19.78 27.9551 18C27.9551 15.613 27.0069 13.3239 25.319 11.636C23.6312 9.94821 21.342 9 18.9551 9ZM18.9551 24C17.7684 24 16.6084 23.6481 15.6217 22.9888C14.635 22.3295 13.8659 21.3925 13.4118 20.2961C12.9577 19.1997 12.8389 17.9933 13.0704 16.8295C13.3019 15.6656 13.8733 14.5965 14.7124 13.7574C15.5516 12.9182 16.6207 12.3468 17.7845 12.1153C18.9484 11.8838 20.1548 12.0026 21.2512 12.4567C22.3475 12.9108 23.2846 13.6799 23.9439 14.6666C24.6032 15.6533 24.9551 16.8133 24.9551 18C24.9551 19.5913 24.3229 21.1174 23.1977 22.2426C22.0725 23.3679 20.5464 24 18.9551 24Z" fill="#E0E0E0"/>
<path d="M28.7061 10.5005C29.9487 10.5005 30.9561 9.49313 30.9561 8.25049C30.9561 7.00785 29.9487 6.00049 28.7061 6.00049C27.4634 6.00049 26.4561 7.00785 26.4561 8.25049C26.4561 9.49313 27.4634 10.5005 28.7061 10.5005Z" fill="#E0E0E0"/>
</g>
<defs>
<clipPath id="clip0">
<rect width="36" height="36" fill="white" transform="translate(0.955078)"/>
</clipPath>
</defs>
</svg>
