<svg width="37" height="37" viewBox="0 0 37 37" fill="none" xmlns="http://www.w3.org/2000/svg">
<g clip-path="url(#clip0)">
<path d="M12.0006 14H9.71484V25.4286H12.0006V14Z" fill="#E0E0E0"/>
<path d="M9.71484 9.9993C9.71484 10.6305 10.2265 11.1422 10.8577 11.1422C11.4889 11.1422 12.0006 10.6305 12.0006 9.9993C12.0006 9.36812 11.4889 8.85645 10.8577 8.85645C10.2265 8.85645 9.71484 9.36812 9.71484 9.9993Z" fill="#E0E0E0"/>
<path d="M17.7154 21.1429V19.7143C17.7154 17.9714 19.1154 16.5714 20.8583 16.5714C22.6011 16.5714 24.0011 17.9714 24.0011 19.7143V25.4286H26.2868V19.7143C26.2868 16.7143 23.8583 14.2857 20.8583 14.2857C19.6868 14.2857 18.6011 14.6571 17.7154 15.2857V14H15.4297V19.7143V21.1429V25.4286H17.7154V21.1429Z" fill="#E0E0E0"/>
<path d="M36.002 3.91355C36.002 1.90991 34.3777 0.285645 32.374 0.285645H3.62986C1.62622 0.285645 0.00195312 1.90991 0.00195312 3.91355V32.6577C0.00195312 34.6614 1.62622 36.2856 3.62986 36.2856H32.374C34.3777 36.2856 36.002 34.6614 36.002 32.6577V3.91355ZM33.7162 30.372C33.7162 32.3757 32.092 33.9999 30.0883 33.9999H5.91557C3.91193 33.9999 2.28767 32.3757 2.28767 30.372V6.19926C2.28767 4.19563 3.91194 2.57136 5.91557 2.57136H30.0883C32.092 2.57136 33.7162 4.19563 33.7162 6.19927V30.372Z" fill="#E0E0E0"/>
</g>
<defs>
<clipPath id="clip0">
<rect x="0.00195312" width="36" height="36.2857" fill="white"/>
</clipPath>
</defs>
</svg>
