<svg width="355" height="404" viewBox="0 0 355 404" fill="none" xmlns="http://www.w3.org/2000/svg">
<g filter="url(#filter0_d)">
<rect x="14" y="123.5" width="326.25" height="262.5" rx="6" fill="white"/>
</g>
<g filter="url(#filter1_d)">
<path opacity="0.19" d="M176.222 152.529C201.526 152.529 222.038 148.869 222.038 144.355C222.038 139.841 201.526 136.182 176.222 136.182C150.919 136.182 130.407 139.841 130.407 144.355C130.407 148.869 150.919 152.529 176.222 152.529Z" fill="#272425"/>
<path d="M177.571 147.08C209.202 147.08 234.843 121.438 234.843 89.8073C234.843 58.1767 209.202 32.535 177.571 32.535C145.94 32.535 120.299 58.1767 120.299 89.8073C120.299 121.438 145.94 147.08 177.571 147.08Z" fill="white"/>
<path d="M177.688 10.439H176.188V63.314H177.688V10.439Z" fill="#583C1C"/>
<path d="M177.617 12.0678C177.617 12.0678 191.083 10.6981 190.163 13.3053C189.243 15.9125 198.742 16.1628 203.242 14.9129C203.242 14.9129 202.242 18.9125 201.242 24.4119C200.242 29.9113 184.994 26.6619 186.244 24.4119C187.494 22.1619 177.68 23.162 177.68 23.162L177.617 12.0678Z" fill="#A22330"/>
<path d="M158.942 96.1292C151.442 78.7854 178.723 69.6917 191.754 80.9417" stroke="#A22330" stroke-width="0.9375" stroke-dasharray="3 1.5"/>
<path d="M206.795 87.405L174.047 152.427H239.543L206.795 87.405Z" fill="#1C87F1"/>
<path opacity="0.14" d="M239.543 152.613L206.795 87.5914V152.613H239.543Z" fill="#272425"/>
<path d="M177.082 59.2727V153.258H216.87L177.082 59.2727Z" fill="#1C87F1"/>
<path d="M144.825 85.0133L112.077 150.035H177.573L144.825 85.0133Z" fill="#136DC7"/>
<path opacity="0.14" d="M177.573 150.035L144.825 85.0133V150.035H177.573Z" fill="#272425"/>
<path d="M177.033 44.939C176.159 44.9388 175.293 45.1097 174.486 45.4418C173.678 45.774 172.944 46.2609 172.326 46.8748C171.708 47.4887 171.218 48.2175 170.883 49.0196C170.549 49.8217 170.377 50.6814 170.377 51.5495C170.377 55.1997 177.033 63.314 177.033 63.314C177.033 63.314 180.056 59.6274 182.023 56.1081C182.98 54.4059 183.689 52.74 183.689 51.5495C183.689 49.7964 182.988 48.1152 181.739 46.8756C180.491 45.6359 178.798 44.9393 177.033 44.939ZM177.033 54.5678C176.232 54.5731 175.459 54.2732 174.873 53.7297C174.288 53.1863 173.934 52.4407 173.885 51.6463C173.836 50.8519 174.095 50.069 174.61 49.4587C175.124 48.8484 175.855 48.457 176.651 48.3651C177.447 48.2731 178.248 48.4876 178.89 48.9645C179.531 49.4413 179.965 50.1442 180.1 50.9286C180.236 51.713 180.064 52.5192 179.62 53.1816C179.176 53.8439 178.493 54.312 177.711 54.4895C177.489 54.5422 177.262 54.5685 177.033 54.5678Z" fill="#0491EC"/>
<path d="M182.002 56.1173C180.039 59.6322 177.021 63.3136 177.021 63.3136C177.021 63.3136 170.377 55.2101 170.377 51.5648C170.376 50.5825 170.597 49.6125 171.022 48.7256C171.447 47.8387 172.066 47.0574 172.833 46.4386C173.085 47.6328 173.495 48.9991 174.151 50.3183C173.955 50.7869 173.879 51.2962 173.93 51.801C173.98 52.3057 174.155 52.7904 174.439 53.2118C174.723 53.6333 175.107 53.9786 175.558 54.2171C176.008 54.4556 176.511 54.5798 177.021 54.5788C177.249 54.5795 177.477 54.5533 177.698 54.5006C178.858 55.2882 180.275 55.867 182.002 56.1173Z" fill="#0C6DAC"/>
<path d="M106.819 136.25C106.129 136.25 105.445 136.386 104.808 136.65C104.17 136.914 103.591 137.301 103.103 137.789C102.615 138.277 102.228 138.856 101.964 139.493C101.7 140.131 101.564 140.814 101.564 141.504C101.564 144.406 106.819 150.858 106.819 150.858C106.819 150.858 112.073 144.406 112.073 141.504C112.073 140.111 111.52 138.774 110.534 137.789C109.549 136.803 108.212 136.25 106.819 136.25ZM106.819 143.907C106.333 143.907 105.858 143.763 105.454 143.493C105.05 143.223 104.735 142.839 104.549 142.39C104.364 141.942 104.315 141.448 104.41 140.971C104.504 140.495 104.738 140.057 105.082 139.714C105.425 139.37 105.863 139.136 106.34 139.041C106.816 138.947 107.31 138.995 107.759 139.181C108.208 139.367 108.591 139.682 108.861 140.086C109.131 140.49 109.275 140.965 109.275 141.451C109.275 142.102 109.016 142.727 108.556 143.187C108.095 143.648 107.47 143.907 106.819 143.907Z" fill="#11486B"/>
<path d="M176.97 59.0157L137.074 153.255H177.078V59.2704L176.97 59.0157Z" fill="#1C87F1"/>
<path opacity="0.14" d="M177.078 59.2692V153.254H216.866L177.078 59.2692Z" fill="#000911"/>
<path d="M178.251 62.2809C203.001 78.8747 182.564 115.906 160.064 97.0623" stroke="#A22330" stroke-width="0.9375" stroke-dasharray="3 1.5"/>
<path d="M107.096 153.218C119.783 157.655 152.827 159.836 183.502 133.061C214.177 106.286 202.096 87.4677 192.221 81.4052" stroke="#A22330" stroke-width="0.9375" stroke-dasharray="3 1.5"/>
</g>
<path d="M93.2603 187.966C95.4563 187.966 97.2743 187.174 98.4623 185.716L96.5903 183.988C95.7443 184.978 94.6823 185.482 93.4223 185.482C91.0643 185.482 89.3903 183.826 89.3903 181.45C89.3903 179.074 91.0643 177.418 93.4223 177.418C94.6823 177.418 95.7443 177.922 96.5903 178.894L98.4623 177.166C97.2743 175.726 95.4563 174.934 93.2783 174.934C89.3543 174.934 86.4383 177.652 86.4383 181.45C86.4383 185.248 89.3543 187.966 93.2603 187.966ZM104.508 187.894C107.586 187.894 109.818 185.824 109.818 182.908C109.818 179.992 107.586 177.922 104.508 177.922C101.43 177.922 99.1795 179.992 99.1795 182.908C99.1795 185.824 101.43 187.894 104.508 187.894ZM104.508 185.59C103.104 185.59 102.024 184.582 102.024 182.908C102.024 181.234 103.104 180.226 104.508 180.226C105.912 180.226 106.974 181.234 106.974 182.908C106.974 184.582 105.912 185.59 104.508 185.59ZM117.58 177.922C116.266 177.922 115.132 178.372 114.376 179.2V178.066H111.694V187.75H114.502V182.962C114.502 181.18 115.474 180.352 116.824 180.352C118.066 180.352 118.786 181.072 118.786 182.638V187.75H121.594V182.206C121.594 179.254 119.866 177.922 117.58 177.922ZM127.398 187.894C130.296 187.894 131.97 186.616 131.97 184.816C131.97 181 126.12 182.602 126.12 180.946C126.12 180.442 126.66 180.046 127.92 180.046C128.802 180.046 129.756 180.226 130.71 180.766L131.646 178.768C130.728 178.228 129.252 177.922 127.92 177.922C125.094 177.922 123.438 179.218 123.438 181.054C123.438 184.924 129.288 183.304 129.288 184.888C129.288 185.428 128.802 185.77 127.506 185.77C126.318 185.77 125.004 185.392 124.14 184.834L123.204 186.85C124.104 187.444 125.76 187.894 127.398 187.894ZM139.192 185.302C138.886 185.536 138.472 185.662 138.058 185.662C137.302 185.662 136.852 185.212 136.852 184.384V180.442H139.264V178.282H136.852V175.924H134.044V178.282H132.55V180.442H134.044V184.42C134.044 186.724 135.376 187.894 137.662 187.894C138.526 187.894 139.372 187.696 139.948 187.282L139.192 185.302ZM145.431 177.922C143.883 177.922 142.317 178.336 141.255 179.092L142.263 181.054C142.965 180.496 144.027 180.154 145.053 180.154C146.565 180.154 147.285 180.856 147.285 182.062H145.053C142.101 182.062 140.895 183.25 140.895 184.96C140.895 186.634 142.245 187.894 144.513 187.894C145.935 187.894 146.943 187.426 147.465 186.544V187.75H150.093V182.224C150.093 179.29 148.383 177.922 145.431 177.922ZM145.215 186.004C144.225 186.004 143.631 185.536 143.631 184.834C143.631 184.186 144.045 183.7 145.359 183.7H147.285V184.69C146.961 185.572 146.151 186.004 145.215 186.004ZM158.52 177.922C157.206 177.922 156.072 178.372 155.316 179.2V178.066H152.634V187.75H155.442V182.962C155.442 181.18 156.414 180.352 157.764 180.352C159.006 180.352 159.726 181.072 159.726 182.638V187.75H162.534V182.206C162.534 179.254 160.806 177.922 158.52 177.922ZM170.569 185.302C170.263 185.536 169.849 185.662 169.435 185.662C168.679 185.662 168.229 185.212 168.229 184.384V180.442H170.641V178.282H168.229V175.924H165.421V178.282H163.927V180.442H165.421V184.42C165.421 186.724 166.753 187.894 169.039 187.894C169.903 187.894 170.749 187.696 171.325 187.282L170.569 185.302ZM181.905 177.922C180.357 177.922 178.791 178.336 177.729 179.092L178.737 181.054C179.439 180.496 180.501 180.154 181.527 180.154C183.039 180.154 183.759 180.856 183.759 182.062H181.527C178.575 182.062 177.369 183.25 177.369 184.96C177.369 186.634 178.719 187.894 180.987 187.894C182.409 187.894 183.417 187.426 183.939 186.544V187.75H186.567V182.224C186.567 179.29 184.857 177.922 181.905 177.922ZM181.689 186.004C180.699 186.004 180.105 185.536 180.105 184.834C180.105 184.186 180.519 183.7 181.833 183.7H183.759V184.69C183.435 185.572 182.625 186.004 181.689 186.004ZM192.367 187.894C195.265 187.894 196.939 186.616 196.939 184.816C196.939 181 191.089 182.602 191.089 180.946C191.089 180.442 191.629 180.046 192.889 180.046C193.771 180.046 194.725 180.226 195.679 180.766L196.615 178.768C195.697 178.228 194.221 177.922 192.889 177.922C190.062 177.922 188.406 179.218 188.406 181.054C188.406 184.924 194.257 183.304 194.257 184.888C194.257 185.428 193.771 185.77 192.475 185.77C191.287 185.77 189.973 185.392 189.109 184.834L188.173 186.85C189.073 187.444 190.729 187.894 192.367 187.894ZM201.929 187.894C204.827 187.894 206.501 186.616 206.501 184.816C206.501 181 200.651 182.602 200.651 180.946C200.651 180.442 201.191 180.046 202.451 180.046C203.333 180.046 204.287 180.226 205.241 180.766L206.177 178.768C205.259 178.228 203.783 177.922 202.451 177.922C199.625 177.922 197.969 179.218 197.969 181.054C197.969 184.924 203.819 183.304 203.819 184.888C203.819 185.428 203.333 185.77 202.037 185.77C200.849 185.77 199.535 185.392 198.671 184.834L197.735 186.85C198.635 187.444 200.291 187.894 201.929 187.894ZM209.638 176.716C210.682 176.716 211.384 176.032 211.384 175.096C211.384 174.232 210.682 173.584 209.638 173.584C208.594 173.584 207.892 174.268 207.892 175.15C207.892 176.032 208.594 176.716 209.638 176.716ZM208.234 187.75H211.042V178.066H208.234V187.75ZM216.906 187.894C219.804 187.894 221.478 186.616 221.478 184.816C221.478 181 215.628 182.602 215.628 180.946C215.628 180.442 216.168 180.046 217.428 180.046C218.31 180.046 219.264 180.226 220.218 180.766L221.154 178.768C220.236 178.228 218.76 177.922 217.428 177.922C214.602 177.922 212.946 179.218 212.946 181.054C212.946 184.924 218.796 183.304 218.796 184.888C218.796 185.428 218.31 185.77 217.014 185.77C215.826 185.77 214.512 185.392 213.648 184.834L212.712 186.85C213.612 187.444 215.268 187.894 216.906 187.894ZM228.7 185.302C228.394 185.536 227.98 185.662 227.566 185.662C226.81 185.662 226.36 185.212 226.36 184.384V180.442H228.772V178.282H226.36V175.924H223.552V178.282H222.058V180.442H223.552V184.42C223.552 186.724 224.884 187.894 227.17 187.894C228.034 187.894 228.88 187.696 229.456 187.282L228.7 185.302ZM234.938 177.922C233.39 177.922 231.824 178.336 230.762 179.092L231.77 181.054C232.472 180.496 233.534 180.154 234.56 180.154C236.072 180.154 236.792 180.856 236.792 182.062H234.56C231.608 182.062 230.402 183.25 230.402 184.96C230.402 186.634 231.752 187.894 234.02 187.894C235.442 187.894 236.45 187.426 236.972 186.544V187.75H239.6V182.224C239.6 179.29 237.89 177.922 234.938 177.922ZM234.722 186.004C233.732 186.004 233.138 185.536 233.138 184.834C233.138 184.186 233.552 183.7 234.866 183.7H236.792V184.69C236.468 185.572 235.658 186.004 234.722 186.004ZM248.028 177.922C246.714 177.922 245.58 178.372 244.824 179.2V178.066H242.142V187.75H244.95V182.962C244.95 181.18 245.922 180.352 247.272 180.352C248.514 180.352 249.234 181.072 249.234 182.638V187.75H252.042V182.206C252.042 179.254 250.314 177.922 248.028 177.922ZM259.372 187.894C261.406 187.894 263.008 186.994 263.71 185.446L261.532 184.258C261.01 185.194 260.236 185.59 259.354 185.59C257.932 185.59 256.816 184.6 256.816 182.908C256.816 181.216 257.932 180.226 259.354 180.226C260.236 180.226 261.01 180.64 261.532 181.558L263.71 180.388C263.008 178.804 261.406 177.922 259.372 177.922C256.222 177.922 253.972 179.992 253.972 182.908C253.972 185.824 256.222 187.894 259.372 187.894ZM274.69 182.944C274.69 179.83 272.494 177.922 269.65 177.922C266.698 177.922 264.484 180.01 264.484 182.908C264.484 185.788 266.662 187.894 270.01 187.894C271.756 187.894 273.106 187.354 274.006 186.328L272.512 184.708C271.846 185.338 271.108 185.644 270.082 185.644C268.606 185.644 267.58 184.906 267.31 183.7H274.636C274.654 183.466 274.69 183.16 274.69 182.944ZM269.668 180.046C270.928 180.046 271.846 180.838 272.044 182.062H267.274C267.472 180.82 268.39 180.046 269.668 180.046ZM114.302 207.302C113.996 207.536 113.582 207.662 113.168 207.662C112.412 207.662 111.962 207.212 111.962 206.384V202.442H114.374V200.282H111.962V197.924H109.154V200.282H107.66V202.442H109.154V206.42C109.154 208.724 110.486 209.894 112.772 209.894C113.636 209.894 114.482 209.696 115.058 209.282L114.302 207.302ZM122.52 199.922C121.278 199.922 120.198 200.318 119.442 201.074V196.394H116.634V209.75H119.442V204.962C119.442 203.18 120.414 202.352 121.764 202.352C123.006 202.352 123.726 203.072 123.726 204.638V209.75H126.534V204.206C126.534 201.254 124.806 199.922 122.52 199.922ZM131.761 201.344V200.066H129.079V209.75H131.887V205.178C131.887 203.324 132.913 202.478 134.461 202.478C134.677 202.478 134.857 202.496 135.091 202.514V199.922C133.597 199.922 132.445 200.408 131.761 201.344ZM141.281 209.894C144.359 209.894 146.591 207.824 146.591 204.908C146.591 201.992 144.359 199.922 141.281 199.922C138.203 199.922 135.953 201.992 135.953 204.908C135.953 207.824 138.203 209.894 141.281 209.894ZM141.281 207.59C139.877 207.59 138.797 206.582 138.797 204.908C138.797 203.234 139.877 202.226 141.281 202.226C142.685 202.226 143.747 203.234 143.747 204.908C143.747 206.582 142.685 207.59 141.281 207.59ZM155.416 200.066V204.854C155.416 206.636 154.48 207.464 153.184 207.464C151.942 207.464 151.222 206.744 151.222 205.124V200.066H148.414V205.538C148.414 208.526 150.124 209.894 152.554 209.894C153.742 209.894 154.822 209.444 155.56 208.598V209.75H158.224V200.066H155.416ZM168.151 200.066V201.308C167.413 200.372 166.297 199.922 164.947 199.922C162.265 199.922 160.105 201.776 160.105 204.602C160.105 207.428 162.265 209.282 164.947 209.282C166.207 209.282 167.269 208.886 168.007 208.076V208.49C168.007 210.236 167.143 211.136 165.163 211.136C163.921 211.136 162.571 210.704 161.743 210.038L160.627 212.054C161.761 212.936 163.543 213.386 165.379 213.386C168.871 213.386 170.815 211.73 170.815 208.13V200.066H168.151ZM165.505 206.978C164.029 206.978 162.949 206.024 162.949 204.602C162.949 203.18 164.029 202.226 165.505 202.226C166.981 202.226 168.043 203.18 168.043 204.602C168.043 206.024 166.981 206.978 165.505 206.978ZM179.315 199.922C178.073 199.922 176.993 200.318 176.237 201.074V196.394H173.429V209.75H176.237V204.962C176.237 203.18 177.209 202.352 178.559 202.352C179.801 202.352 180.521 203.072 180.521 204.638V209.75H183.329V204.206C183.329 201.254 181.601 199.922 179.315 199.922ZM190.588 209.894C193.666 209.894 195.898 207.824 195.898 204.908C195.898 201.992 193.666 199.922 190.588 199.922C187.51 199.922 185.26 201.992 185.26 204.908C185.26 207.824 187.51 209.894 190.588 209.894ZM190.588 207.59C189.184 207.59 188.104 206.582 188.104 204.908C188.104 203.234 189.184 202.226 190.588 202.226C191.992 202.226 193.054 203.234 193.054 204.908C193.054 206.582 191.992 207.59 190.588 207.59ZM204.723 200.066V204.854C204.723 206.636 203.787 207.464 202.491 207.464C201.249 207.464 200.529 206.744 200.529 205.124V200.066H197.721V205.538C197.721 208.526 199.431 209.894 201.861 209.894C203.049 209.894 204.129 209.444 204.867 208.598V209.75H207.531V200.066H204.723ZM215.622 207.302C215.316 207.536 214.902 207.662 214.488 207.662C213.732 207.662 213.282 207.212 213.282 206.384V202.442H215.694V200.282H213.282V197.924H210.474V200.282H208.98V202.442H210.474V206.42C210.474 208.724 211.806 209.894 214.092 209.894C214.956 209.894 215.802 209.696 216.378 209.282L215.622 207.302ZM228.542 207.302C228.236 207.536 227.822 207.662 227.408 207.662C226.652 207.662 226.202 207.212 226.202 206.384V202.442H228.614V200.282H226.202V197.924H223.394V200.282H221.9V202.442H223.394V206.42C223.394 208.724 224.726 209.894 227.012 209.894C227.876 209.894 228.722 209.696 229.298 209.282L228.542 207.302ZM236.76 199.922C235.518 199.922 234.438 200.318 233.682 201.074V196.394H230.874V209.75H233.682V204.962C233.682 203.18 234.654 202.352 236.004 202.352C237.246 202.352 237.966 203.072 237.966 204.638V209.75H240.774V204.206C240.774 201.254 239.046 199.922 236.76 199.922ZM252.911 204.944C252.911 201.83 250.715 199.922 247.871 199.922C244.919 199.922 242.705 202.01 242.705 204.908C242.705 207.788 244.883 209.894 248.231 209.894C249.977 209.894 251.327 209.354 252.227 208.328L250.733 206.708C250.067 207.338 249.329 207.644 248.303 207.644C246.827 207.644 245.801 206.906 245.531 205.7H252.857C252.875 205.466 252.911 205.16 252.911 204.944ZM247.889 202.046C249.149 202.046 250.067 202.838 250.265 204.062H245.495C245.693 202.82 246.611 202.046 247.889 202.046ZM147.27 220.716C148.314 220.716 149.016 220.032 149.016 219.096C149.016 218.232 148.314 217.584 147.27 217.584C146.226 217.584 145.524 218.268 145.524 219.15C145.524 220.032 146.226 220.716 147.27 220.716ZM145.02 235.386C147.36 235.386 148.674 233.964 148.674 231.732V222.066H145.866V231.75C145.866 232.704 145.416 233.154 144.714 233.154C144.246 233.154 143.832 233.028 143.526 232.812L142.77 234.846C143.31 235.224 144.156 235.386 145.02 235.386ZM155.868 231.894C158.946 231.894 161.178 229.824 161.178 226.908C161.178 223.992 158.946 221.922 155.868 221.922C152.79 221.922 150.54 223.992 150.54 226.908C150.54 229.824 152.79 231.894 155.868 231.894ZM155.868 229.59C154.464 229.59 153.384 228.582 153.384 226.908C153.384 225.234 154.464 224.226 155.868 224.226C157.272 224.226 158.334 225.234 158.334 226.908C158.334 228.582 157.272 229.59 155.868 229.59ZM170.273 222.066V226.854C170.273 228.636 169.337 229.464 168.041 229.464C166.799 229.464 166.079 228.744 166.079 227.124V222.066H163.271V227.538C163.271 230.526 164.981 231.894 167.411 231.894C168.599 231.894 169.679 231.444 170.417 230.598V231.75H173.081V222.066H170.273ZM178.364 223.344V222.066H175.682V231.75H178.49V227.178C178.49 225.324 179.516 224.478 181.064 224.478C181.28 224.478 181.46 224.496 181.694 224.514V221.922C180.2 221.922 179.048 222.408 178.364 223.344ZM189.25 221.922C187.936 221.922 186.802 222.372 186.046 223.2V222.066H183.364V231.75H186.172V226.962C186.172 225.18 187.144 224.352 188.494 224.352C189.736 224.352 190.456 225.072 190.456 226.638V231.75H193.264V226.206C193.264 223.254 191.536 221.922 189.25 221.922ZM205.4 226.944C205.4 223.83 203.204 221.922 200.36 221.922C197.408 221.922 195.194 224.01 195.194 226.908C195.194 229.788 197.372 231.894 200.72 231.894C202.466 231.894 203.816 231.354 204.716 230.328L203.222 228.708C202.556 229.338 201.818 229.644 200.792 229.644C199.316 229.644 198.29 228.906 198.02 227.7H205.346C205.364 227.466 205.4 227.16 205.4 226.944ZM200.378 224.046C201.638 224.046 202.556 224.838 202.754 226.062H197.984C198.182 224.82 199.1 224.046 200.378 224.046ZM214.006 222.066L211.27 228.636L208.552 222.066H205.654L209.848 231.822L209.812 231.912C209.434 232.776 209.002 233.118 208.228 233.118C207.67 233.118 207.076 232.884 206.644 232.506L205.618 234.504C206.248 235.062 207.328 235.386 208.318 235.386C210.064 235.386 211.396 234.684 212.332 232.344L216.706 222.066H214.006Z" fill="#136DC7"/>
<path d="M83.1637 266.5H84.7387L79.9687 256H78.4837L73.7287 266.5H75.2737L76.4287 263.875H82.0087L83.1637 266.5ZM76.9537 262.675L79.2187 257.53L81.4837 262.675H76.9537ZM88.3017 266.59C90.4167 266.59 91.7367 265.675 91.7367 264.235C91.7367 261.145 86.6967 262.675 86.6967 260.8C86.6967 260.17 87.3117 259.705 88.5717 259.705C89.3517 259.705 90.1467 259.87 90.8667 260.335L91.4817 259.195C90.7917 258.745 89.6217 258.475 88.5867 258.475C86.5467 258.475 85.2717 259.435 85.2717 260.86C85.2717 264.025 90.2967 262.48 90.2967 264.265C90.2967 264.94 89.7417 265.345 88.4067 265.345C87.3717 265.345 86.2917 265 85.6167 264.52L85.0167 265.66C85.6767 266.185 86.9817 266.59 88.3017 266.59ZM95.8164 266.59C97.9314 266.59 99.2514 265.675 99.2514 264.235C99.2514 261.145 94.2114 262.675 94.2114 260.8C94.2114 260.17 94.8264 259.705 96.0864 259.705C96.8664 259.705 97.6614 259.87 98.3814 260.335L98.9964 259.195C98.3064 258.745 97.1364 258.475 96.1014 258.475C94.0614 258.475 92.7864 259.435 92.7864 260.86C92.7864 264.025 97.8114 262.48 97.8114 264.265C97.8114 264.94 97.2564 265.345 95.9214 265.345C94.8864 265.345 93.8064 265 93.1314 264.52L92.5314 265.66C93.1914 266.185 94.4964 266.59 95.8164 266.59ZM101.771 257.02C102.341 257.02 102.746 256.6 102.746 256.06C102.746 255.55 102.326 255.145 101.771 255.145C101.216 255.145 100.796 255.565 100.796 256.09C100.796 256.615 101.216 257.02 101.771 257.02ZM101.051 266.5H102.491V258.55H101.051V266.5ZM107.52 266.59C109.635 266.59 110.955 265.675 110.955 264.235C110.955 261.145 105.915 262.675 105.915 260.8C105.915 260.17 106.53 259.705 107.79 259.705C108.57 259.705 109.365 259.87 110.085 260.335L110.7 259.195C110.01 258.745 108.84 258.475 107.805 258.475C105.765 258.475 104.49 259.435 104.49 260.86C104.49 264.025 109.515 262.48 109.515 264.265C109.515 264.94 108.96 265.345 107.625 265.345C106.59 265.345 105.51 265 104.835 264.52L104.235 265.66C104.895 266.185 106.2 266.59 107.52 266.59ZM116.775 265C116.475 265.24 116.07 265.375 115.65 265.375C114.855 265.375 114.405 264.895 114.405 264.04V259.735H116.685V258.55H114.405V256.81H112.965V258.55H111.615V259.735H112.965V264.1C112.965 265.705 113.88 266.59 115.485 266.59C116.13 266.59 116.79 266.41 117.225 266.035L116.775 265ZM121.861 258.475C120.586 258.475 119.401 258.835 118.576 259.495L119.176 260.575C119.791 260.05 120.751 259.72 121.696 259.72C123.121 259.72 123.826 260.425 123.826 261.64V261.925H121.546C119.176 261.925 118.351 262.975 118.351 264.25C118.351 265.63 119.491 266.59 121.291 266.59C122.536 266.59 123.421 266.17 123.901 265.45V266.5H125.266V261.7C125.266 259.525 124.036 258.475 121.861 258.475ZM121.531 265.48C120.436 265.48 119.776 264.985 119.776 264.19C119.776 263.515 120.181 262.96 121.606 262.96H123.826V264.07C123.466 264.985 122.611 265.48 121.531 265.48ZM132.176 258.475C130.916 258.475 129.896 258.94 129.311 259.75V258.55H127.931V266.5H129.371V262.405C129.371 260.68 130.361 259.765 131.891 259.765C133.256 259.765 134.036 260.53 134.036 262.09V266.5H135.476V261.925C135.476 259.585 134.111 258.475 132.176 258.475ZM141.65 266.59C143.075 266.59 144.26 265.99 144.89 264.88L143.795 264.19C143.285 264.97 142.505 265.33 141.635 265.33C140.075 265.33 138.905 264.25 138.905 262.525C138.905 260.83 140.075 259.735 141.635 259.735C142.505 259.735 143.285 260.095 143.795 260.875L144.89 260.17C144.26 259.06 143.075 258.475 141.65 258.475C139.205 258.475 137.45 260.155 137.45 262.525C137.45 264.895 139.205 266.59 141.65 266.59ZM153.822 262.57C153.822 260.125 152.187 258.475 149.892 258.475C147.597 258.475 145.902 260.17 145.902 262.525C145.902 264.895 147.612 266.59 150.177 266.59C151.497 266.59 152.592 266.14 153.312 265.3L152.517 264.37C151.932 265.015 151.152 265.33 150.222 265.33C148.647 265.33 147.522 264.4 147.342 263.005H153.792C153.807 262.87 153.822 262.69 153.822 262.57ZM149.892 259.69C151.287 259.69 152.292 260.635 152.442 261.97H147.342C147.492 260.62 148.512 259.69 149.892 259.69ZM163.87 265C163.57 265.24 163.165 265.375 162.745 265.375C161.95 265.375 161.5 264.895 161.5 264.04V259.735H163.78V258.55H161.5V256.81H160.06V258.55H158.71V259.735H160.06V264.1C160.06 265.705 160.975 266.59 162.58 266.59C163.225 266.59 163.885 266.41 164.32 266.035L163.87 265ZM170.306 258.475C169.091 258.475 168.101 258.91 167.501 259.675V255.37H166.061V266.5H167.501V262.405C167.501 260.68 168.491 259.765 170.021 259.765C171.386 259.765 172.166 260.53 172.166 262.09V266.5H173.606V261.925C173.606 259.585 172.241 258.475 170.306 258.475ZM177.651 259.885V258.55H176.271V266.5H177.711V262.54C177.711 260.8 178.671 259.855 180.216 259.855C180.321 259.855 180.426 259.855 180.546 259.87V258.475C179.151 258.475 178.161 258.955 177.651 259.885ZM185.652 266.59C188.037 266.59 189.777 264.895 189.777 262.525C189.777 260.155 188.037 258.475 185.652 258.475C183.267 258.475 181.512 260.155 181.512 262.525C181.512 264.895 183.267 266.59 185.652 266.59ZM185.652 265.33C184.122 265.33 182.967 264.22 182.967 262.525C182.967 260.83 184.122 259.735 185.652 259.735C187.182 259.735 188.322 260.83 188.322 262.525C188.322 264.22 187.182 265.33 185.652 265.33ZM197.739 258.55V262.66C197.739 264.37 196.779 265.3 195.279 265.3C193.914 265.3 193.134 264.52 193.134 262.96V258.55H191.694V263.125C191.694 265.465 193.059 266.59 195.114 266.59C196.239 266.59 197.229 266.125 197.814 265.3V266.5H199.179V258.55H197.739ZM208.16 258.55V259.78C207.485 258.91 206.405 258.475 205.22 258.475C202.925 258.475 201.185 260.02 201.185 262.315C201.185 264.61 202.925 266.17 205.22 266.17C206.36 266.17 207.395 265.765 208.085 264.94V265.57C208.085 267.37 207.23 268.24 205.355 268.24C204.185 268.24 203.03 267.835 202.295 267.205L201.605 268.315C202.475 269.095 203.945 269.5 205.4 269.5C208.1 269.5 209.525 268.225 209.525 265.42V258.55H208.16ZM205.385 264.91C203.78 264.91 202.64 263.845 202.64 262.315C202.64 260.77 203.78 259.735 205.385 259.735C206.975 259.735 208.115 260.77 208.115 262.315C208.115 263.845 206.975 264.91 205.385 264.91ZM216.522 258.475C215.307 258.475 214.317 258.91 213.717 259.675V255.37H212.277V266.5H213.717V262.405C213.717 260.68 214.707 259.765 216.237 259.765C217.602 259.765 218.382 260.53 218.382 262.09V266.5H219.822V261.925C219.822 259.585 218.457 258.475 216.522 258.475ZM229.41 258.475C228.135 258.475 226.95 258.835 226.125 259.495L226.725 260.575C227.34 260.05 228.3 259.72 229.245 259.72C230.67 259.72 231.375 260.425 231.375 261.64V261.925H229.095C226.725 261.925 225.9 262.975 225.9 264.25C225.9 265.63 227.04 266.59 228.84 266.59C230.085 266.59 230.97 266.17 231.45 265.45V266.5H232.815V261.7C232.815 259.525 231.585 258.475 229.41 258.475ZM229.08 265.48C227.985 265.48 227.325 264.985 227.325 264.19C227.325 263.515 227.73 262.96 229.155 262.96H231.375V264.07C231.015 264.985 230.16 265.48 229.08 265.48ZM235.48 266.5H236.92V255.37H235.48V266.5ZM239.669 266.5H241.109V255.37H239.669V266.5ZM253.512 258.55L250.767 264.91L247.992 258.55H246.492L250.002 266.485L249.747 267.04C249.357 267.955 248.922 268.27 248.232 268.27C247.692 268.27 247.197 268.06 246.807 267.685L246.192 268.765C246.687 269.245 247.467 269.5 248.232 269.5C249.447 269.5 250.362 268.975 251.067 267.295L254.922 258.55H253.512ZM259.451 266.59C261.836 266.59 263.576 264.895 263.576 262.525C263.576 260.155 261.836 258.475 259.451 258.475C257.066 258.475 255.311 260.155 255.311 262.525C255.311 264.895 257.066 266.59 259.451 266.59ZM259.451 265.33C257.921 265.33 256.766 264.22 256.766 262.525C256.766 260.83 257.921 259.735 259.451 259.735C260.981 259.735 262.121 260.83 262.121 262.525C262.121 264.22 260.981 265.33 259.451 265.33ZM271.538 258.55V262.66C271.538 264.37 270.578 265.3 269.078 265.3C267.713 265.3 266.933 264.52 266.933 262.96V258.55H265.493V263.125C265.493 265.465 266.858 266.59 268.913 266.59C270.038 266.59 271.028 266.125 271.613 265.3V266.5H272.978V258.55H271.538ZM277.099 259.885V258.55H275.719V266.5H277.159V262.54C277.159 260.8 278.119 259.855 279.664 259.855C279.769 259.855 279.874 259.855 279.994 259.87V258.475C278.599 258.475 277.609 258.955 277.099 259.885ZM51.6279 284.59C53.0529 284.59 54.2379 283.99 54.8679 282.88L53.7729 282.19C53.2629 282.97 52.4829 283.33 51.6129 283.33C50.0529 283.33 48.8829 282.25 48.8829 280.525C48.8829 278.83 50.0529 277.735 51.6129 277.735C52.4829 277.735 53.2629 278.095 53.7729 278.875L54.8679 278.17C54.2379 277.06 53.0529 276.475 51.6279 276.475C49.1829 276.475 47.4279 278.155 47.4279 280.525C47.4279 282.895 49.1829 284.59 51.6279 284.59ZM60.02 284.59C62.405 284.59 64.145 282.895 64.145 280.525C64.145 278.155 62.405 276.475 60.02 276.475C57.635 276.475 55.88 278.155 55.88 280.525C55.88 282.895 57.635 284.59 60.02 284.59ZM60.02 283.33C58.49 283.33 57.335 282.22 57.335 280.525C57.335 278.83 58.49 277.735 60.02 277.735C61.55 277.735 62.69 278.83 62.69 280.525C62.69 282.22 61.55 283.33 60.02 283.33ZM66.1365 284.5H67.5765V273.37H66.1365V284.5ZM70.3259 284.5H71.7659V273.37H70.3259V284.5ZM81.7004 280.57C81.7004 278.125 80.0654 276.475 77.7704 276.475C75.4754 276.475 73.7804 278.17 73.7804 280.525C73.7804 282.895 75.4904 284.59 78.0554 284.59C79.3754 284.59 80.4704 284.14 81.1904 283.3L80.3954 282.37C79.8104 283.015 79.0304 283.33 78.1004 283.33C76.5254 283.33 75.4004 282.4 75.2204 281.005H81.6704C81.6854 280.87 81.7004 280.69 81.7004 280.57ZM77.7704 277.69C79.1654 277.69 80.1704 278.635 80.3204 279.97H75.2204C75.3704 278.62 76.3904 277.69 77.7704 277.69ZM89.94 276.55V277.78C89.265 276.91 88.185 276.475 87 276.475C84.705 276.475 82.965 278.02 82.965 280.315C82.965 282.61 84.705 284.17 87 284.17C88.14 284.17 89.175 283.765 89.865 282.94V283.57C89.865 285.37 89.01 286.24 87.135 286.24C85.965 286.24 84.81 285.835 84.075 285.205L83.385 286.315C84.255 287.095 85.725 287.5 87.18 287.5C89.88 287.5 91.305 286.225 91.305 283.42V276.55H89.94ZM87.165 282.91C85.56 282.91 84.42 281.845 84.42 280.315C84.42 278.77 85.56 277.735 87.165 277.735C88.755 277.735 89.895 278.77 89.895 280.315C89.895 281.845 88.755 282.91 87.165 282.91ZM101.241 280.57C101.241 278.125 99.6064 276.475 97.3114 276.475C95.0164 276.475 93.3214 278.17 93.3214 280.525C93.3214 282.895 95.0314 284.59 97.5964 284.59C98.9164 284.59 100.011 284.14 100.731 283.3L99.9364 282.37C99.3514 283.015 98.5714 283.33 97.6414 283.33C96.0664 283.33 94.9414 282.4 94.7614 281.005H101.211C101.226 280.87 101.241 280.69 101.241 280.57ZM97.3114 277.69C98.7064 277.69 99.7114 278.635 99.8614 279.97H94.7614C94.9114 278.62 95.9314 277.69 97.3114 277.69ZM114.454 280.57C114.454 278.125 112.819 276.475 110.524 276.475C108.229 276.475 106.534 278.17 106.534 280.525C106.534 282.895 108.244 284.59 110.809 284.59C112.129 284.59 113.224 284.14 113.944 283.3L113.149 282.37C112.564 283.015 111.784 283.33 110.854 283.33C109.279 283.33 108.154 282.4 107.974 281.005H114.424C114.439 280.87 114.454 280.69 114.454 280.57ZM110.524 277.69C111.919 277.69 112.924 278.635 113.074 279.97H107.974C108.124 278.62 109.144 277.69 110.524 277.69ZM120.699 276.475C119.439 276.475 118.419 276.94 117.834 277.75V276.55H116.454V284.5H117.894V280.405C117.894 278.68 118.884 277.765 120.414 277.765C121.779 277.765 122.559 278.53 122.559 280.09V284.5H123.999V279.925C123.999 277.585 122.634 276.475 120.699 276.475ZM132.768 273.37V277.75C132.108 276.895 131.118 276.475 129.993 276.475C127.668 276.475 125.973 278.095 125.973 280.525C125.973 282.955 127.668 284.59 129.993 284.59C131.163 284.59 132.183 284.14 132.828 283.24V284.5H134.208V273.37H132.768ZM130.113 283.33C128.583 283.33 127.428 282.22 127.428 280.525C127.428 278.83 128.583 277.735 130.113 277.735C131.628 277.735 132.783 278.83 132.783 280.525C132.783 282.22 131.628 283.33 130.113 283.33ZM144.117 280.57C144.117 278.125 142.482 276.475 140.187 276.475C137.892 276.475 136.197 278.17 136.197 280.525C136.197 282.895 137.907 284.59 140.472 284.59C141.792 284.59 142.887 284.14 143.607 283.3L142.812 282.37C142.227 283.015 141.447 283.33 140.517 283.33C138.942 283.33 137.817 282.4 137.637 281.005H144.087C144.102 280.87 144.117 280.69 144.117 280.57ZM140.187 277.69C141.582 277.69 142.587 278.635 142.737 279.97H137.637C137.787 278.62 138.807 277.69 140.187 277.69ZM148.792 276.475C147.517 276.475 146.332 276.835 145.507 277.495L146.107 278.575C146.722 278.05 147.682 277.72 148.627 277.72C150.052 277.72 150.757 278.425 150.757 279.64V279.925H148.477C146.107 279.925 145.282 280.975 145.282 282.25C145.282 283.63 146.422 284.59 148.222 284.59C149.467 284.59 150.352 284.17 150.832 283.45V284.5H152.197V279.7C152.197 277.525 150.967 276.475 148.792 276.475ZM148.462 283.48C147.367 283.48 146.707 282.985 146.707 282.19C146.707 281.515 147.112 280.96 148.537 280.96H150.757V282.07C150.397 282.985 149.542 283.48 148.462 283.48ZM160.341 276.55L157.551 282.925L154.821 276.55H153.321L156.801 284.5H158.271L161.751 276.55H160.341ZM166.28 284.59C168.665 284.59 170.405 282.895 170.405 280.525C170.405 278.155 168.665 276.475 166.28 276.475C163.895 276.475 162.14 278.155 162.14 280.525C162.14 282.895 163.895 284.59 166.28 284.59ZM166.28 283.33C164.75 283.33 163.595 282.22 163.595 280.525C163.595 278.83 164.75 277.735 166.28 277.735C167.81 277.735 168.95 278.83 168.95 280.525C168.95 282.22 167.81 283.33 166.28 283.33ZM178.366 276.55V280.66C178.366 282.37 177.406 283.3 175.906 283.3C174.541 283.3 173.761 282.52 173.761 280.96V276.55H172.321V281.125C172.321 283.465 173.686 284.59 175.741 284.59C176.866 284.59 177.856 284.125 178.441 283.3V284.5H179.806V276.55H178.366ZM183.928 277.885V276.55H182.548V284.5H183.988V280.54C183.988 278.8 184.948 277.855 186.493 277.855C186.598 277.855 186.703 277.855 186.823 277.87V276.475C185.428 276.475 184.438 276.955 183.928 277.885ZM189.089 278.53C189.629 278.53 190.079 278.095 190.079 277.495C190.079 276.895 189.629 276.475 189.089 276.475C188.534 276.475 188.069 276.895 188.069 277.495C188.069 278.095 188.534 278.53 189.089 278.53ZM189.089 284.59C189.629 284.59 190.079 284.155 190.079 283.555C190.079 282.955 189.629 282.535 189.089 282.535C188.534 282.535 188.069 282.955 188.069 283.555C188.069 284.155 188.534 284.59 189.089 284.59ZM201.076 284.62C202.711 284.62 204.121 284.05 205.081 282.97L204.106 282.025C203.296 282.88 202.306 283.285 201.151 283.285C198.781 283.285 197.026 281.575 197.026 279.25C197.026 276.925 198.781 275.215 201.151 275.215C202.306 275.215 203.296 275.605 204.106 276.46L205.081 275.515C204.121 274.435 202.711 273.88 201.091 273.88C197.896 273.88 195.526 276.145 195.526 279.25C195.526 282.355 197.896 284.62 201.076 284.62ZM210.079 284.59C212.464 284.59 214.204 282.895 214.204 280.525C214.204 278.155 212.464 276.475 210.079 276.475C207.694 276.475 205.939 278.155 205.939 280.525C205.939 282.895 207.694 284.59 210.079 284.59ZM210.079 283.33C208.549 283.33 207.394 282.22 207.394 280.525C207.394 278.83 208.549 277.735 210.079 277.735C211.609 277.735 212.749 278.83 212.749 280.525C212.749 282.22 211.609 283.33 210.079 283.33ZM222.255 273.37V277.75C221.595 276.895 220.605 276.475 219.48 276.475C217.155 276.475 215.46 278.095 215.46 280.525C215.46 282.955 217.155 284.59 219.48 284.59C220.65 284.59 221.67 284.14 222.315 283.24V284.5H223.695V273.37H222.255ZM219.6 283.33C218.07 283.33 216.915 282.22 216.915 280.525C216.915 278.83 218.07 277.735 219.6 277.735C221.115 277.735 222.27 278.83 222.27 280.525C222.27 282.22 221.115 283.33 219.6 283.33ZM227.14 275.02C227.71 275.02 228.115 274.6 228.115 274.06C228.115 273.55 227.695 273.145 227.14 273.145C226.585 273.145 226.165 273.565 226.165 274.09C226.165 274.615 226.585 275.02 227.14 275.02ZM226.42 284.5H227.86V276.55H226.42V284.5ZM230.609 284.5H232.049V273.37H230.609V284.5ZM240.424 276.55L237.679 282.91L234.904 276.55H233.404L236.914 284.485L236.659 285.04C236.269 285.955 235.834 286.27 235.144 286.27C234.604 286.27 234.109 286.06 233.719 285.685L233.104 286.765C233.599 287.245 234.379 287.5 235.144 287.5C236.359 287.5 237.274 286.975 237.979 285.295L241.834 276.55H240.424ZM247.417 283C247.117 283.24 246.712 283.375 246.292 283.375C245.497 283.375 245.047 282.895 245.047 282.04V277.735H247.327V276.55H245.047V274.81H243.607V276.55H242.257V277.735H243.607V282.1C243.607 283.705 244.522 284.59 246.127 284.59C246.772 284.59 247.432 284.41 247.867 284.035L247.417 283ZM250.328 275.02C250.898 275.02 251.303 274.6 251.303 274.06C251.303 273.55 250.883 273.145 250.328 273.145C249.773 273.145 249.353 273.565 249.353 274.09C249.353 274.615 249.773 275.02 250.328 275.02ZM249.608 284.5H251.048V276.55H249.608V284.5ZM257.263 284.59C258.688 284.59 259.873 283.99 260.503 282.88L259.408 282.19C258.898 282.97 258.118 283.33 257.248 283.33C255.688 283.33 254.518 282.25 254.518 280.525C254.518 278.83 255.688 277.735 257.248 277.735C258.118 277.735 258.898 278.095 259.408 278.875L260.503 278.17C259.873 277.06 258.688 276.475 257.263 276.475C254.818 276.475 253.063 278.155 253.063 280.525C253.063 282.895 254.818 284.59 257.263 284.59ZM264.647 284.59C266.762 284.59 268.082 283.675 268.082 282.235C268.082 279.145 263.042 280.675 263.042 278.8C263.042 278.17 263.657 277.705 264.917 277.705C265.697 277.705 266.492 277.87 267.212 278.335L267.827 277.195C267.137 276.745 265.967 276.475 264.932 276.475C262.892 276.475 261.617 277.435 261.617 278.86C261.617 282.025 266.642 280.48 266.642 282.265C266.642 282.94 266.087 283.345 264.752 283.345C263.717 283.345 262.637 283 261.962 282.52L261.362 283.66C262.022 284.185 263.327 284.59 264.647 284.59ZM274.63 275.02C275.2 275.02 275.605 274.6 275.605 274.06C275.605 273.55 275.185 273.145 274.63 273.145C274.075 273.145 273.655 273.565 273.655 274.09C273.655 274.615 274.075 275.02 274.63 275.02ZM273.91 284.5H275.35V276.55H273.91V284.5ZM280.379 284.59C282.494 284.59 283.814 283.675 283.814 282.235C283.814 279.145 278.774 280.675 278.774 278.8C278.774 278.17 279.389 277.705 280.649 277.705C281.429 277.705 282.224 277.87 282.944 278.335L283.559 277.195C282.869 276.745 281.699 276.475 280.664 276.475C278.624 276.475 277.349 277.435 277.349 278.86C277.349 282.025 282.374 280.48 282.374 282.265C282.374 282.94 281.819 283.345 280.484 283.345C279.449 283.345 278.369 283 277.694 282.52L277.094 283.66C277.754 284.185 279.059 284.59 280.379 284.59ZM292.537 276.475C291.262 276.475 290.077 276.835 289.252 277.495L289.852 278.575C290.467 278.05 291.427 277.72 292.372 277.72C293.797 277.72 294.502 278.425 294.502 279.64V279.925H292.222C289.852 279.925 289.027 280.975 289.027 282.25C289.027 283.63 290.167 284.59 291.967 284.59C293.212 284.59 294.097 284.17 294.577 283.45V284.5H295.942V279.7C295.942 277.525 294.712 276.475 292.537 276.475ZM292.207 283.48C291.112 283.48 290.452 282.985 290.452 282.19C290.452 281.515 290.857 280.96 292.282 280.96H294.502V282.07C294.142 282.985 293.287 283.48 292.207 283.48ZM302.852 276.475C301.592 276.475 300.572 276.94 299.987 277.75V276.55H298.607V284.5H300.047V280.405C300.047 278.68 301.037 277.765 302.567 277.765C303.932 277.765 304.712 278.53 304.712 280.09V284.5H306.152V279.925C306.152 277.585 304.787 276.475 302.852 276.475ZM59.3855 294.475C58.1105 294.475 56.9255 294.835 56.1005 295.495L56.7005 296.575C57.3155 296.05 58.2755 295.72 59.2205 295.72C60.6455 295.72 61.3505 296.425 61.3505 297.64V297.925H59.0705C56.7005 297.925 55.8755 298.975 55.8755 300.25C55.8755 301.63 57.0155 302.59 58.8155 302.59C60.0605 302.59 60.9455 302.17 61.4255 301.45V302.5H62.7905V297.7C62.7905 295.525 61.5605 294.475 59.3855 294.475ZM59.0555 301.48C57.9605 301.48 57.3005 300.985 57.3005 300.19C57.3005 299.515 57.7055 298.96 59.1305 298.96H61.3505V300.07C60.9905 300.985 60.1355 301.48 59.0555 301.48ZM65.4553 302.5H66.8953V291.37H65.4553V302.5ZM69.6448 302.5H71.0848V291.37H69.6448V302.5ZM73.3242 299.005H77.3592V297.76H73.3242V299.005ZM80.2964 293.02C80.8664 293.02 81.2714 292.6 81.2714 292.06C81.2714 291.55 80.8514 291.145 80.2964 291.145C79.7414 291.145 79.3214 291.565 79.3214 292.09C79.3214 292.615 79.7414 293.02 80.2964 293.02ZM79.5764 302.5H81.0164V294.55H79.5764V302.5ZM88.0109 294.475C86.7509 294.475 85.7309 294.94 85.1459 295.75V294.55H83.7659V302.5H85.2059V298.405C85.2059 296.68 86.1959 295.765 87.7259 295.765C89.0909 295.765 89.8709 296.53 89.8709 298.09V302.5H91.3109V297.925C91.3109 295.585 89.9459 294.475 88.0109 294.475ZM93.4658 299.005H97.5008V297.76H93.4658V299.005ZM103.27 302.59C105.655 302.59 107.395 300.895 107.395 298.525C107.395 296.155 105.655 294.475 103.27 294.475C100.885 294.475 99.1295 296.155 99.1295 298.525C99.1295 300.895 100.885 302.59 103.27 302.59ZM103.27 301.33C101.74 301.33 100.585 300.22 100.585 298.525C100.585 296.83 101.74 295.735 103.27 295.735C104.8 295.735 105.94 296.83 105.94 298.525C105.94 300.22 104.8 301.33 103.27 301.33ZM113.631 294.475C112.371 294.475 111.351 294.94 110.766 295.75V294.55H109.386V302.5H110.826V298.405C110.826 296.68 111.816 295.765 113.346 295.765C114.711 295.765 115.491 296.53 115.491 298.09V302.5H116.931V297.925C116.931 295.585 115.566 294.475 113.631 294.475ZM126.825 298.57C126.825 296.125 125.19 294.475 122.895 294.475C120.6 294.475 118.905 296.17 118.905 298.525C118.905 300.895 120.615 302.59 123.18 302.59C124.5 302.59 125.595 302.14 126.315 301.3L125.52 300.37C124.935 301.015 124.155 301.33 123.225 301.33C121.65 301.33 120.525 300.4 120.345 299.005H126.795C126.81 298.87 126.825 298.69 126.825 298.57ZM122.895 295.69C124.29 295.69 125.295 296.635 125.445 297.97H120.345C120.495 296.62 121.515 295.69 122.895 295.69ZM135.133 302.59C137.248 302.59 138.568 301.675 138.568 300.235C138.568 297.145 133.528 298.675 133.528 296.8C133.528 296.17 134.143 295.705 135.403 295.705C136.183 295.705 136.978 295.87 137.698 296.335L138.313 295.195C137.623 294.745 136.453 294.475 135.418 294.475C133.378 294.475 132.103 295.435 132.103 296.86C132.103 300.025 137.128 298.48 137.128 300.265C137.128 300.94 136.573 301.345 135.238 301.345C134.203 301.345 133.123 301 132.448 300.52L131.848 301.66C132.508 302.185 133.813 302.59 135.133 302.59ZM143.772 302.59C146.157 302.59 147.897 300.895 147.897 298.525C147.897 296.155 146.157 294.475 143.772 294.475C141.387 294.475 139.632 296.155 139.632 298.525C139.632 300.895 141.387 302.59 143.772 302.59ZM143.772 301.33C142.242 301.33 141.087 300.22 141.087 298.525C141.087 296.83 142.242 295.735 143.772 295.735C145.302 295.735 146.442 296.83 146.442 298.525C146.442 300.22 145.302 301.33 143.772 301.33ZM155.859 294.55V298.66C155.859 300.37 154.899 301.3 153.399 301.3C152.034 301.3 151.254 300.52 151.254 298.96V294.55H149.814V299.125C149.814 301.465 151.179 302.59 153.234 302.59C154.359 302.59 155.349 302.125 155.934 301.3V302.5H157.299V294.55H155.859ZM161.42 295.885V294.55H160.04V302.5H161.48V298.54C161.48 296.8 162.44 295.855 163.985 295.855C164.09 295.855 164.195 295.855 164.315 295.87V294.475C162.92 294.475 161.93 294.955 161.42 295.885ZM169.482 302.59C170.907 302.59 172.092 301.99 172.722 300.88L171.627 300.19C171.117 300.97 170.337 301.33 169.467 301.33C167.907 301.33 166.737 300.25 166.737 298.525C166.737 296.83 167.907 295.735 169.467 295.735C170.337 295.735 171.117 296.095 171.627 296.875L172.722 296.17C172.092 295.06 170.907 294.475 169.482 294.475C167.037 294.475 165.282 296.155 165.282 298.525C165.282 300.895 167.037 302.59 169.482 302.59ZM181.654 298.57C181.654 296.125 180.019 294.475 177.724 294.475C175.429 294.475 173.734 296.17 173.734 298.525C173.734 300.895 175.444 302.59 178.009 302.59C179.329 302.59 180.424 302.14 181.144 301.3L180.349 300.37C179.764 301.015 178.984 301.33 178.054 301.33C176.479 301.33 175.354 300.4 175.174 299.005H181.624C181.639 298.87 181.654 298.69 181.654 298.57ZM177.724 295.69C179.119 295.69 180.124 296.635 180.274 297.97H175.174C175.324 296.62 176.344 295.69 177.724 295.69ZM188.402 293.02C188.972 293.02 189.377 292.6 189.377 292.06C189.377 291.55 188.957 291.145 188.402 291.145C187.847 291.145 187.427 291.565 187.427 292.09C187.427 292.615 187.847 293.02 188.402 293.02ZM187.682 302.5H189.122V294.55H187.682V302.5ZM196.116 294.475C194.856 294.475 193.836 294.94 193.251 295.75V294.55H191.871V302.5H193.311V298.405C193.311 296.68 194.301 295.765 195.831 295.765C197.196 295.765 197.976 296.53 197.976 298.09V302.5H199.416V297.925C199.416 295.585 198.051 294.475 196.116 294.475ZM209.515 302.59C211.9 302.59 213.64 300.895 213.64 298.525C213.64 296.155 211.9 294.475 209.515 294.475C207.13 294.475 205.375 296.155 205.375 298.525C205.375 300.895 207.13 302.59 209.515 302.59ZM209.515 301.33C207.985 301.33 206.83 300.22 206.83 298.525C206.83 296.83 207.985 295.735 209.515 295.735C211.045 295.735 212.185 296.83 212.185 298.525C212.185 300.22 211.045 301.33 209.515 301.33ZM219.876 294.475C218.616 294.475 217.596 294.94 217.011 295.75V294.55H215.631V302.5H217.071V298.405C217.071 296.68 218.061 295.765 219.591 295.765C220.956 295.765 221.736 296.53 221.736 298.09V302.5H223.176V297.925C223.176 295.585 221.811 294.475 219.876 294.475ZM225.841 302.5H227.281V291.37H225.841V302.5ZM230.751 293.02C231.321 293.02 231.726 292.6 231.726 292.06C231.726 291.55 231.306 291.145 230.751 291.145C230.196 291.145 229.776 291.565 229.776 292.09C229.776 292.615 230.196 293.02 230.751 293.02ZM230.031 302.5H231.471V294.55H230.031V302.5ZM238.465 294.475C237.205 294.475 236.185 294.94 235.6 295.75V294.55H234.22V302.5H235.66V298.405C235.66 296.68 236.65 295.765 238.18 295.765C239.545 295.765 240.325 296.53 240.325 298.09V302.5H241.765V297.925C241.765 295.585 240.4 294.475 238.465 294.475ZM251.659 298.57C251.659 296.125 250.024 294.475 247.729 294.475C245.434 294.475 243.739 296.17 243.739 298.525C243.739 300.895 245.449 302.59 248.014 302.59C249.334 302.59 250.429 302.14 251.149 301.3L250.354 300.37C249.769 301.015 248.989 301.33 248.059 301.33C246.484 301.33 245.359 300.4 245.179 299.005H251.629C251.644 298.87 251.659 298.69 251.659 298.57ZM247.729 295.69C249.124 295.69 250.129 296.635 250.279 297.97H245.179C245.329 296.62 246.349 295.69 247.729 295.69ZM264.872 298.57C264.872 296.125 263.237 294.475 260.942 294.475C258.647 294.475 256.952 296.17 256.952 298.525C256.952 300.895 258.662 302.59 261.227 302.59C262.547 302.59 263.642 302.14 264.362 301.3L263.567 300.37C262.982 301.015 262.202 301.33 261.272 301.33C259.697 301.33 258.572 300.4 258.392 299.005H264.842C264.857 298.87 264.872 298.69 264.872 298.57ZM260.942 295.69C262.337 295.69 263.342 296.635 263.492 297.97H258.392C258.542 296.62 259.562 295.69 260.942 295.69ZM272.35 294.55L269.56 300.925L266.83 294.55H265.33L268.81 302.5H270.28L273.76 294.55H272.35ZM282.069 298.57C282.069 296.125 280.434 294.475 278.139 294.475C275.844 294.475 274.149 296.17 274.149 298.525C274.149 300.895 275.859 302.59 278.424 302.59C279.744 302.59 280.839 302.14 281.559 301.3L280.764 300.37C280.179 301.015 279.399 301.33 278.469 301.33C276.894 301.33 275.769 300.4 275.589 299.005H282.039C282.054 298.87 282.069 298.69 282.069 298.57ZM278.139 295.69C279.534 295.69 280.539 296.635 280.689 297.97H275.589C275.739 296.62 276.759 295.69 278.139 295.69ZM288.314 294.475C287.054 294.475 286.034 294.94 285.449 295.75V294.55H284.069V302.5H285.509V298.405C285.509 296.68 286.499 295.765 288.029 295.765C289.394 295.765 290.174 296.53 290.174 298.09V302.5H291.614V297.925C291.614 295.585 290.249 294.475 288.314 294.475ZM298.299 301C297.999 301.24 297.594 301.375 297.174 301.375C296.379 301.375 295.929 300.895 295.929 300.04V295.735H298.209V294.55H295.929V292.81H294.489V294.55H293.139V295.735H294.489V300.1C294.489 301.705 295.404 302.59 297.009 302.59C297.654 302.59 298.314 302.41 298.749 302.035L298.299 301ZM59.5068 312.475C58.1568 312.475 57.0468 313.045 56.4468 313.945C55.9218 312.955 54.9018 312.475 53.6868 312.475C52.4868 312.475 51.5118 312.925 50.9418 313.735V312.55H49.5618V320.5H51.0018V316.405C51.0018 314.68 51.9468 313.765 53.3868 313.765C54.6918 313.765 55.4418 314.53 55.4418 316.09V320.5H56.8818V316.405C56.8818 314.68 57.8268 313.765 59.2668 313.765C60.5718 313.765 61.3218 314.53 61.3218 316.09V320.5H62.7618V315.925C62.7618 313.585 61.4418 312.475 59.5068 312.475ZM68.3064 312.475C67.0314 312.475 65.8464 312.835 65.0214 313.495L65.6214 314.575C66.2364 314.05 67.1964 313.72 68.1414 313.72C69.5664 313.72 70.2714 314.425 70.2714 315.64V315.925H67.9914C65.6214 315.925 64.7964 316.975 64.7964 318.25C64.7964 319.63 65.9364 320.59 67.7364 320.59C68.9814 320.59 69.8664 320.17 70.3464 319.45V320.5H71.7114V315.7C71.7114 313.525 70.4814 312.475 68.3064 312.475ZM67.9764 319.48C66.8814 319.48 66.2214 318.985 66.2214 318.19C66.2214 317.515 66.6264 316.96 68.0514 316.96H70.2714V318.07C69.9114 318.985 69.0564 319.48 67.9764 319.48ZM78.6212 312.475C77.3612 312.475 76.3412 312.94 75.7562 313.75V312.55H74.3762V320.5H75.8162V316.405C75.8162 314.68 76.8062 313.765 78.3362 313.765C79.7012 313.765 80.4812 314.53 80.4812 316.09V320.5H81.9212V315.925C81.9212 313.585 80.5562 312.475 78.6212 312.475ZM87.4812 312.475C86.2062 312.475 85.0212 312.835 84.1962 313.495L84.7962 314.575C85.4112 314.05 86.3712 313.72 87.3162 313.72C88.7412 313.72 89.4462 314.425 89.4462 315.64V315.925H87.1662C84.7962 315.925 83.9712 316.975 83.9712 318.25C83.9712 319.63 85.1112 320.59 86.9112 320.59C88.1562 320.59 89.0412 320.17 89.5212 319.45V320.5H90.8862V315.7C90.8862 313.525 89.6562 312.475 87.4812 312.475ZM87.1512 319.48C86.0562 319.48 85.3962 318.985 85.3962 318.19C85.3962 317.515 85.8012 316.96 87.2262 316.96H89.4462V318.07C89.0862 318.985 88.2312 319.48 87.1512 319.48ZM99.835 312.55V313.78C99.16 312.91 98.08 312.475 96.895 312.475C94.6 312.475 92.86 314.02 92.86 316.315C92.86 318.61 94.6 320.17 96.895 320.17C98.035 320.17 99.07 319.765 99.76 318.94V319.57C99.76 321.37 98.905 322.24 97.03 322.24C95.86 322.24 94.705 321.835 93.97 321.205L93.28 322.315C94.15 323.095 95.62 323.5 97.075 323.5C99.775 323.5 101.2 322.225 101.2 319.42V312.55H99.835ZM97.06 318.91C95.455 318.91 94.315 317.845 94.315 316.315C94.315 314.77 95.455 313.735 97.06 313.735C98.65 313.735 99.79 314.77 99.79 316.315C99.79 317.845 98.65 318.91 97.06 318.91ZM111.136 316.57C111.136 314.125 109.501 312.475 107.206 312.475C104.911 312.475 103.216 314.17 103.216 316.525C103.216 318.895 104.926 320.59 107.491 320.59C108.811 320.59 109.906 320.14 110.626 319.3L109.831 318.37C109.246 319.015 108.466 319.33 107.536 319.33C105.961 319.33 104.836 318.4 104.656 317.005H111.106C111.121 316.87 111.136 316.69 111.136 316.57ZM107.206 313.69C108.601 313.69 109.606 314.635 109.756 315.97H104.656C104.806 314.62 105.826 313.69 107.206 313.69ZM123.081 312.475C121.731 312.475 120.621 313.045 120.021 313.945C119.496 312.955 118.476 312.475 117.261 312.475C116.061 312.475 115.086 312.925 114.516 313.735V312.55H113.136V320.5H114.576V316.405C114.576 314.68 115.521 313.765 116.961 313.765C118.266 313.765 119.016 314.53 119.016 316.09V320.5H120.456V316.405C120.456 314.68 121.401 313.765 122.841 313.765C124.146 313.765 124.896 314.53 124.896 316.09V320.5H126.336V315.925C126.336 313.585 125.016 312.475 123.081 312.475ZM136.215 316.57C136.215 314.125 134.58 312.475 132.285 312.475C129.99 312.475 128.295 314.17 128.295 316.525C128.295 318.895 130.005 320.59 132.57 320.59C133.89 320.59 134.985 320.14 135.705 319.3L134.91 318.37C134.325 319.015 133.545 319.33 132.615 319.33C131.04 319.33 129.915 318.4 129.735 317.005H136.185C136.2 316.87 136.215 316.69 136.215 316.57ZM132.285 313.69C133.68 313.69 134.685 314.635 134.835 315.97H129.735C129.885 314.62 130.905 313.69 132.285 313.69ZM142.459 312.475C141.199 312.475 140.179 312.94 139.594 313.75V312.55H138.214V320.5H139.654V316.405C139.654 314.68 140.644 313.765 142.174 313.765C143.539 313.765 144.319 314.53 144.319 316.09V320.5H145.759V315.925C145.759 313.585 144.394 312.475 142.459 312.475ZM152.444 319C152.144 319.24 151.739 319.375 151.319 319.375C150.524 319.375 150.074 318.895 150.074 318.04V313.735H152.354V312.55H150.074V310.81H148.634V312.55H147.284V313.735H148.634V318.1C148.634 319.705 149.549 320.59 151.154 320.59C151.799 320.59 152.459 320.41 152.894 320.035L152.444 319ZM155.142 318.535C154.572 318.535 154.137 318.955 154.137 319.555C154.137 320.005 154.392 320.35 154.767 320.485L154.212 322.72H155.157L155.862 320.635C156.057 320.08 156.117 319.855 156.117 319.555C156.117 318.97 155.712 318.535 155.142 318.535ZM165.118 310.465C165.538 310.465 165.928 310.615 166.228 310.84L166.663 309.745C166.258 309.43 165.658 309.28 165.043 309.28C163.348 309.28 162.418 310.3 162.418 311.845V312.55H161.068V313.735H162.418V320.5H163.858V313.735H166.138V312.55H163.828V311.86C163.828 310.945 164.263 310.465 165.118 310.465ZM170.078 313.885V312.55H168.698V320.5H170.138V316.54C170.138 314.8 171.098 313.855 172.643 313.855C172.748 313.855 172.853 313.855 172.973 313.87V312.475C171.578 312.475 170.588 312.955 170.078 313.885ZM181.859 316.57C181.859 314.125 180.224 312.475 177.929 312.475C175.634 312.475 173.939 314.17 173.939 316.525C173.939 318.895 175.649 320.59 178.214 320.59C179.534 320.59 180.629 320.14 181.349 319.3L180.554 318.37C179.969 319.015 179.189 319.33 178.259 319.33C176.684 319.33 175.559 318.4 175.379 317.005H181.829C181.844 316.87 181.859 316.69 181.859 316.57ZM177.929 313.69C179.324 313.69 180.329 314.635 180.479 315.97H175.379C175.529 314.62 176.549 313.69 177.929 313.69ZM191.044 316.57C191.044 314.125 189.409 312.475 187.114 312.475C184.819 312.475 183.124 314.17 183.124 316.525C183.124 318.895 184.834 320.59 187.399 320.59C188.719 320.59 189.814 320.14 190.534 319.3L189.739 318.37C189.154 319.015 188.374 319.33 187.444 319.33C185.869 319.33 184.744 318.4 184.564 317.005H191.014C191.029 316.87 191.044 316.69 191.044 316.57ZM187.114 313.69C188.509 313.69 189.514 314.635 189.664 315.97H184.564C184.714 314.62 185.734 313.69 187.114 313.69ZM198.452 313.885V312.55H197.072V320.5H198.512V316.54C198.512 314.8 199.472 313.855 201.017 313.855C201.122 313.855 201.227 313.855 201.347 313.87V312.475C199.952 312.475 198.962 312.955 198.452 313.885ZM210.233 316.57C210.233 314.125 208.598 312.475 206.303 312.475C204.008 312.475 202.313 314.17 202.313 316.525C202.313 318.895 204.023 320.59 206.588 320.59C207.908 320.59 209.003 320.14 209.723 319.3L208.928 318.37C208.343 319.015 207.563 319.33 206.633 319.33C205.058 319.33 203.933 318.4 203.753 317.005H210.203C210.218 316.87 210.233 316.69 210.233 316.57ZM206.303 313.69C207.698 313.69 208.703 314.635 208.853 315.97H203.753C203.903 314.62 204.923 313.69 206.303 313.69ZM214.513 320.59C216.628 320.59 217.948 319.675 217.948 318.235C217.948 315.145 212.908 316.675 212.908 314.8C212.908 314.17 213.523 313.705 214.783 313.705C215.563 313.705 216.358 313.87 217.078 314.335L217.693 313.195C217.003 312.745 215.833 312.475 214.798 312.475C212.758 312.475 211.483 313.435 211.483 314.86C211.483 318.025 216.508 316.48 216.508 318.265C216.508 318.94 215.953 319.345 214.618 319.345C213.583 319.345 212.503 319 211.828 318.52L211.228 319.66C211.888 320.185 213.193 320.59 214.513 320.59ZM223.152 320.59C225.537 320.59 227.277 318.895 227.277 316.525C227.277 314.155 225.537 312.475 223.152 312.475C220.767 312.475 219.012 314.155 219.012 316.525C219.012 318.895 220.767 320.59 223.152 320.59ZM223.152 319.33C221.622 319.33 220.467 318.22 220.467 316.525C220.467 314.83 221.622 313.735 223.152 313.735C224.682 313.735 225.822 314.83 225.822 316.525C225.822 318.22 224.682 319.33 223.152 319.33ZM235.239 312.55V316.66C235.239 318.37 234.279 319.3 232.779 319.3C231.414 319.3 230.634 318.52 230.634 316.96V312.55H229.194V317.125C229.194 319.465 230.559 320.59 232.614 320.59C233.739 320.59 234.729 320.125 235.314 319.3V320.5H236.679V312.55H235.239ZM240.8 313.885V312.55H239.42V320.5H240.86V316.54C240.86 314.8 241.82 313.855 243.365 313.855C243.47 313.855 243.575 313.855 243.695 313.87V312.475C242.3 312.475 241.31 312.955 240.8 313.885ZM248.862 320.59C250.287 320.59 251.472 319.99 252.102 318.88L251.007 318.19C250.497 318.97 249.717 319.33 248.847 319.33C247.287 319.33 246.117 318.25 246.117 316.525C246.117 314.83 247.287 313.735 248.847 313.735C249.717 313.735 250.497 314.095 251.007 314.875L252.102 314.17C251.472 313.06 250.287 312.475 248.862 312.475C246.417 312.475 244.662 314.155 244.662 316.525C244.662 318.895 246.417 320.59 248.862 320.59ZM261.034 316.57C261.034 314.125 259.399 312.475 257.104 312.475C254.809 312.475 253.114 314.17 253.114 316.525C253.114 318.895 254.824 320.59 257.389 320.59C258.709 320.59 259.804 320.14 260.524 319.3L259.729 318.37C259.144 319.015 258.364 319.33 257.434 319.33C255.859 319.33 254.734 318.4 254.554 317.005H261.004C261.019 316.87 261.034 316.69 261.034 316.57ZM257.104 313.69C258.499 313.69 259.504 314.635 259.654 315.97H254.554C254.704 314.62 255.724 313.69 257.104 313.69ZM265.313 320.59C267.428 320.59 268.748 319.675 268.748 318.235C268.748 315.145 263.708 316.675 263.708 314.8C263.708 314.17 264.323 313.705 265.583 313.705C266.363 313.705 267.158 313.87 267.878 314.335L268.493 313.195C267.803 312.745 266.633 312.475 265.598 312.475C263.558 312.475 262.283 313.435 262.283 314.86C262.283 318.025 267.308 316.48 267.308 318.265C267.308 318.94 266.753 319.345 265.418 319.345C264.383 319.345 263.303 319 262.628 318.52L262.028 319.66C262.688 320.185 263.993 320.59 265.313 320.59ZM270.908 318.535C270.338 318.535 269.903 318.955 269.903 319.555C269.903 320.005 270.158 320.35 270.533 320.485L269.978 322.72H270.923L271.628 320.635C271.823 320.08 271.883 319.855 271.883 319.555C271.883 318.97 271.478 318.535 270.908 318.535ZM280.87 312.475C279.595 312.475 278.41 312.835 277.585 313.495L278.185 314.575C278.8 314.05 279.76 313.72 280.705 313.72C282.13 313.72 282.835 314.425 282.835 315.64V315.925H280.555C278.185 315.925 277.36 316.975 277.36 318.25C277.36 319.63 278.5 320.59 280.3 320.59C281.545 320.59 282.43 320.17 282.91 319.45V320.5H284.275V315.7C284.275 313.525 283.045 312.475 280.87 312.475ZM280.54 319.48C279.445 319.48 278.785 318.985 278.785 318.19C278.785 317.515 279.19 316.96 280.615 316.96H282.835V318.07C282.475 318.985 281.62 319.48 280.54 319.48ZM291.185 312.475C289.925 312.475 288.905 312.94 288.32 313.75V312.55H286.94V320.5H288.38V316.405C288.38 314.68 289.37 313.765 290.9 313.765C292.265 313.765 293.045 314.53 293.045 316.09V320.5H294.485V315.925C294.485 313.585 293.12 312.475 291.185 312.475ZM303.254 309.37V313.75C302.594 312.895 301.604 312.475 300.479 312.475C298.154 312.475 296.459 314.095 296.459 316.525C296.459 318.955 298.154 320.59 300.479 320.59C301.649 320.59 302.669 320.14 303.314 319.24V320.5H304.694V309.37H303.254ZM300.599 319.33C299.069 319.33 297.914 318.22 297.914 316.525C297.914 314.83 299.069 313.735 300.599 313.735C302.114 313.735 303.269 314.83 303.269 316.525C303.269 318.22 302.114 319.33 300.599 319.33ZM57.707 338.59C59.132 338.59 60.317 337.99 60.947 336.88L59.852 336.19C59.342 336.97 58.562 337.33 57.692 337.33C56.132 337.33 54.962 336.25 54.962 334.525C54.962 332.83 56.132 331.735 57.692 331.735C58.562 331.735 59.342 332.095 59.852 332.875L60.947 332.17C60.317 331.06 59.132 330.475 57.707 330.475C55.262 330.475 53.507 332.155 53.507 334.525C53.507 336.895 55.262 338.59 57.707 338.59ZM65.7063 330.475C64.4313 330.475 63.2463 330.835 62.4213 331.495L63.0213 332.575C63.6363 332.05 64.5963 331.72 65.5413 331.72C66.9663 331.72 67.6713 332.425 67.6713 333.64V333.925H65.3913C63.0213 333.925 62.1963 334.975 62.1963 336.25C62.1963 337.63 63.3363 338.59 65.1363 338.59C66.3813 338.59 67.2663 338.17 67.7463 337.45V338.5H69.1113V333.7C69.1113 331.525 67.8813 330.475 65.7063 330.475ZM65.3763 337.48C64.2813 337.48 63.6213 336.985 63.6213 336.19C63.6213 335.515 64.0263 334.96 65.4513 334.96H67.6713V336.07C67.3113 336.985 66.4563 337.48 65.3763 337.48ZM73.1561 331.885V330.55H71.7761V338.5H73.2161V334.54C73.2161 332.8 74.1761 331.855 75.7211 331.855C75.8261 331.855 75.9311 331.855 76.0511 331.87V330.475C74.6561 330.475 73.6661 330.955 73.1561 331.885ZM84.9377 334.57C84.9377 332.125 83.3027 330.475 81.0077 330.475C78.7127 330.475 77.0177 332.17 77.0177 334.525C77.0177 336.895 78.7277 338.59 81.2927 338.59C82.6127 338.59 83.7077 338.14 84.4277 337.3L83.6327 336.37C83.0477 337.015 82.2677 337.33 81.3377 337.33C79.7627 337.33 78.6377 336.4 78.4577 335.005H84.9077C84.9227 334.87 84.9377 334.69 84.9377 334.57ZM81.0077 331.69C82.4027 331.69 83.4077 332.635 83.5577 333.97H78.4577C78.6077 332.62 79.6277 331.69 81.0077 331.69ZM94.1223 334.57C94.1223 332.125 92.4873 330.475 90.1923 330.475C87.8973 330.475 86.2023 332.17 86.2023 334.525C86.2023 336.895 87.9123 338.59 90.4773 338.59C91.7973 338.59 92.8923 338.14 93.6123 337.3L92.8173 336.37C92.2323 337.015 91.4523 337.33 90.5223 337.33C88.9473 337.33 87.8223 336.4 87.6423 335.005H94.0923C94.1073 334.87 94.1223 334.69 94.1223 334.57ZM90.1923 331.69C91.5873 331.69 92.5923 332.635 92.7423 333.97H87.6423C87.7923 332.62 88.8123 331.69 90.1923 331.69ZM97.5018 331.885V330.55H96.1218V338.5H97.5618V334.54C97.5618 332.8 98.5218 331.855 100.067 331.855C100.172 331.855 100.277 331.855 100.397 331.87V330.475C99.0018 330.475 98.0118 330.955 97.5018 331.885ZM107.683 331.885V330.55H106.303V338.5H107.743V334.54C107.743 332.8 108.703 331.855 110.248 331.855C110.353 331.855 110.458 331.855 110.578 331.87V330.475C109.183 330.475 108.193 330.955 107.683 331.885ZM115.684 338.59C118.069 338.59 119.809 336.895 119.809 334.525C119.809 332.155 118.069 330.475 115.684 330.475C113.299 330.475 111.544 332.155 111.544 334.525C111.544 336.895 113.299 338.59 115.684 338.59ZM115.684 337.33C114.154 337.33 112.999 336.22 112.999 334.525C112.999 332.83 114.154 331.735 115.684 331.735C117.214 331.735 118.354 332.83 118.354 334.525C118.354 336.22 117.214 337.33 115.684 337.33ZM124.622 330.475C123.347 330.475 122.162 330.835 121.337 331.495L121.937 332.575C122.552 332.05 123.512 331.72 124.457 331.72C125.882 331.72 126.587 332.425 126.587 333.64V333.925H124.307C121.937 333.925 121.112 334.975 121.112 336.25C121.112 337.63 122.252 338.59 124.052 338.59C125.297 338.59 126.182 338.17 126.662 337.45V338.5H128.027V333.7C128.027 331.525 126.797 330.475 124.622 330.475ZM124.292 337.48C123.197 337.48 122.537 336.985 122.537 336.19C122.537 335.515 122.942 334.96 124.367 334.96H126.587V336.07C126.227 336.985 125.372 337.48 124.292 337.48ZM136.796 327.37V331.75C136.136 330.895 135.146 330.475 134.021 330.475C131.696 330.475 130.001 332.095 130.001 334.525C130.001 336.955 131.696 338.59 134.021 338.59C135.191 338.59 136.211 338.14 136.856 337.24V338.5H138.236V327.37H136.796ZM134.141 337.33C132.611 337.33 131.456 336.22 131.456 334.525C131.456 332.83 132.611 331.735 134.141 331.735C135.656 331.735 136.811 332.83 136.811 334.525C136.811 336.22 135.656 337.33 134.141 337.33ZM150.906 330.475C149.556 330.475 148.446 331.045 147.846 331.945C147.321 330.955 146.301 330.475 145.086 330.475C143.886 330.475 142.911 330.925 142.341 331.735V330.55H140.961V338.5H142.401V334.405C142.401 332.68 143.346 331.765 144.786 331.765C146.091 331.765 146.841 332.53 146.841 334.09V338.5H148.281V334.405C148.281 332.68 149.226 331.765 150.666 331.765C151.971 331.765 152.721 332.53 152.721 334.09V338.5H154.161V333.925C154.161 331.585 152.841 330.475 150.906 330.475ZM159.705 330.475C158.43 330.475 157.245 330.835 156.42 331.495L157.02 332.575C157.635 332.05 158.595 331.72 159.54 331.72C160.965 331.72 161.67 332.425 161.67 333.64V333.925H159.39C157.02 333.925 156.195 334.975 156.195 336.25C156.195 337.63 157.335 338.59 159.135 338.59C160.38 338.59 161.265 338.17 161.745 337.45V338.5H163.11V333.7C163.11 331.525 161.88 330.475 159.705 330.475ZM159.375 337.48C158.28 337.48 157.62 336.985 157.62 336.19C157.62 335.515 158.025 334.96 159.45 334.96H161.67V336.07C161.31 336.985 160.455 337.48 159.375 337.48ZM169.99 330.475C168.82 330.475 167.8 330.925 167.155 331.81V330.55H165.775V341.41H167.215V337.3C167.875 338.155 168.865 338.59 169.99 338.59C172.315 338.59 174.01 336.97 174.01 334.525C174.01 332.095 172.315 330.475 169.99 330.475ZM169.87 337.33C168.355 337.33 167.2 336.22 167.2 334.525C167.2 332.845 168.355 331.735 169.87 331.735C171.4 331.735 172.555 332.845 172.555 334.525C172.555 336.22 171.4 337.33 169.87 337.33ZM184.048 337C183.748 337.24 183.343 337.375 182.923 337.375C182.128 337.375 181.678 336.895 181.678 336.04V331.735H183.958V330.55H181.678V328.81H180.238V330.55H178.888V331.735H180.238V336.1C180.238 337.705 181.153 338.59 182.758 338.59C183.403 338.59 184.063 338.41 184.498 338.035L184.048 337ZM189.38 338.59C191.765 338.59 193.505 336.895 193.505 334.525C193.505 332.155 191.765 330.475 189.38 330.475C186.995 330.475 185.24 332.155 185.24 334.525C185.24 336.895 186.995 338.59 189.38 338.59ZM189.38 337.33C187.85 337.33 186.695 336.22 186.695 334.525C186.695 332.83 187.85 331.735 189.38 331.735C190.91 331.735 192.05 332.83 192.05 334.525C192.05 336.22 190.91 337.33 189.38 337.33ZM205.765 330.55V331.78C205.09 330.91 204.01 330.475 202.825 330.475C200.53 330.475 198.79 332.02 198.79 334.315C198.79 336.61 200.53 338.17 202.825 338.17C203.965 338.17 205 337.765 205.69 336.94V337.57C205.69 339.37 204.835 340.24 202.96 340.24C201.79 340.24 200.635 339.835 199.9 339.205L199.21 340.315C200.08 341.095 201.55 341.5 203.005 341.5C205.705 341.5 207.13 340.225 207.13 337.42V330.55H205.765ZM202.99 336.91C201.385 336.91 200.245 335.845 200.245 334.315C200.245 332.77 201.385 331.735 202.99 331.735C204.58 331.735 205.72 332.77 205.72 334.315C205.72 335.845 204.58 336.91 202.99 336.91ZM215.852 330.55V334.66C215.852 336.37 214.892 337.3 213.392 337.3C212.027 337.3 211.247 336.52 211.247 334.96V330.55H209.807V335.125C209.807 337.465 211.172 338.59 213.227 338.59C214.352 338.59 215.342 338.125 215.927 337.3V338.5H217.292V330.55H215.852ZM220.753 329.02C221.323 329.02 221.728 328.6 221.728 328.06C221.728 327.55 221.308 327.145 220.753 327.145C220.198 327.145 219.778 327.565 219.778 328.09C219.778 328.615 220.198 329.02 220.753 329.02ZM220.033 338.5H221.473V330.55H220.033V338.5ZM230.282 327.37V331.75C229.622 330.895 228.632 330.475 227.507 330.475C225.182 330.475 223.487 332.095 223.487 334.525C223.487 336.955 225.182 338.59 227.507 338.59C228.677 338.59 229.697 338.14 230.342 337.24V338.5H231.722V327.37H230.282ZM227.627 337.33C226.097 337.33 224.942 336.22 224.942 334.525C224.942 332.83 226.097 331.735 227.627 331.735C229.142 331.735 230.297 332.83 230.297 334.525C230.297 336.22 229.142 337.33 227.627 337.33ZM241.632 334.57C241.632 332.125 239.997 330.475 237.702 330.475C235.407 330.475 233.712 332.17 233.712 334.525C233.712 336.895 235.422 338.59 237.987 338.59C239.307 338.59 240.402 338.14 241.122 337.3L240.327 336.37C239.742 337.015 238.962 337.33 238.032 337.33C236.457 337.33 235.332 336.4 235.152 335.005H241.602C241.617 334.87 241.632 334.69 241.632 334.57ZM237.702 331.69C239.097 331.69 240.102 332.635 240.252 333.97H235.152C235.302 332.62 236.322 331.69 237.702 331.69ZM251.125 338.59C252.55 338.59 253.735 337.99 254.365 336.88L253.27 336.19C252.76 336.97 251.98 337.33 251.11 337.33C249.55 337.33 248.38 336.25 248.38 334.525C248.38 332.83 249.55 331.735 251.11 331.735C251.98 331.735 252.76 332.095 253.27 332.875L254.365 332.17C253.735 331.06 252.55 330.475 251.125 330.475C248.68 330.475 246.925 332.155 246.925 334.525C246.925 336.895 248.68 338.59 251.125 338.59ZM259.517 338.59C261.902 338.59 263.642 336.895 263.642 334.525C263.642 332.155 261.902 330.475 259.517 330.475C257.132 330.475 255.377 332.155 255.377 334.525C255.377 336.895 257.132 338.59 259.517 338.59ZM259.517 337.33C257.987 337.33 256.832 336.22 256.832 334.525C256.832 332.83 257.987 331.735 259.517 331.735C261.047 331.735 262.187 332.83 262.187 334.525C262.187 336.22 261.047 337.33 259.517 337.33ZM265.634 338.5H267.074V327.37H265.634V338.5ZM269.823 338.5H271.263V327.37H269.823V338.5ZM281.197 334.57C281.197 332.125 279.562 330.475 277.267 330.475C274.972 330.475 273.277 332.17 273.277 334.525C273.277 336.895 274.987 338.59 277.552 338.59C278.872 338.59 279.967 338.14 280.687 337.3L279.892 336.37C279.307 337.015 278.527 337.33 277.597 337.33C276.022 337.33 274.897 336.4 274.717 335.005H281.167C281.182 334.87 281.197 334.69 281.197 334.57ZM277.267 331.69C278.662 331.69 279.667 332.635 279.817 333.97H274.717C274.867 332.62 275.887 331.69 277.267 331.69ZM289.437 330.55V331.78C288.762 330.91 287.682 330.475 286.497 330.475C284.202 330.475 282.462 332.02 282.462 334.315C282.462 336.61 284.202 338.17 286.497 338.17C287.637 338.17 288.672 337.765 289.362 336.94V337.57C289.362 339.37 288.507 340.24 286.632 340.24C285.462 340.24 284.307 339.835 283.572 339.205L282.882 340.315C283.752 341.095 285.222 341.5 286.677 341.5C289.377 341.5 290.802 340.225 290.802 337.42V330.55H289.437ZM286.662 336.91C285.057 336.91 283.917 335.845 283.917 334.315C283.917 332.77 285.057 331.735 286.662 331.735C288.252 331.735 289.392 332.77 289.392 334.315C289.392 335.845 288.252 336.91 286.662 336.91ZM300.738 334.57C300.738 332.125 299.103 330.475 296.808 330.475C294.513 330.475 292.818 332.17 292.818 334.525C292.818 336.895 294.528 338.59 297.093 338.59C298.413 338.59 299.508 338.14 300.228 337.3L299.433 336.37C298.848 337.015 298.068 337.33 297.138 337.33C295.563 337.33 294.438 336.4 294.258 335.005H300.708C300.723 334.87 300.738 334.69 300.738 334.57ZM296.808 331.69C298.203 331.69 299.208 332.635 299.358 333.97H294.258C294.408 332.62 295.428 331.69 296.808 331.69ZM145.46 356.59C147.575 356.59 148.895 355.675 148.895 354.235C148.895 351.145 143.855 352.675 143.855 350.8C143.855 350.17 144.47 349.705 145.73 349.705C146.51 349.705 147.305 349.87 148.025 350.335L148.64 349.195C147.95 348.745 146.78 348.475 145.745 348.475C143.705 348.475 142.43 349.435 142.43 350.86C142.43 354.025 147.455 352.48 147.455 354.265C147.455 354.94 146.9 355.345 145.565 355.345C144.53 355.345 143.45 355 142.775 354.52L142.175 355.66C142.835 356.185 144.14 356.59 145.46 356.59ZM154.715 355C154.415 355.24 154.01 355.375 153.59 355.375C152.795 355.375 152.345 354.895 152.345 354.04V349.735H154.625V348.55H152.345V346.81H150.905V348.55H149.555V349.735H150.905V354.1C150.905 355.705 151.82 356.59 153.425 356.59C154.07 356.59 154.73 356.41 155.165 356.035L154.715 355ZM162.876 348.55V352.66C162.876 354.37 161.916 355.3 160.416 355.3C159.051 355.3 158.271 354.52 158.271 352.96V348.55H156.831V353.125C156.831 355.465 158.196 356.59 160.251 356.59C161.376 356.59 162.366 356.125 162.951 355.3V356.5H164.316V348.55H162.876ZM173.117 345.37V349.75C172.457 348.895 171.467 348.475 170.342 348.475C168.017 348.475 166.322 350.095 166.322 352.525C166.322 354.955 168.017 356.59 170.342 356.59C171.512 356.59 172.532 356.14 173.177 355.24V356.5H174.557V345.37H173.117ZM170.462 355.33C168.932 355.33 167.777 354.22 167.777 352.525C167.777 350.83 168.932 349.735 170.462 349.735C171.977 349.735 173.132 350.83 173.132 352.525C173.132 354.22 171.977 355.33 170.462 355.33ZM184.467 352.57C184.467 350.125 182.832 348.475 180.537 348.475C178.242 348.475 176.547 350.17 176.547 352.525C176.547 354.895 178.257 356.59 180.822 356.59C182.142 356.59 183.237 356.14 183.957 355.3L183.162 354.37C182.577 355.015 181.797 355.33 180.867 355.33C179.292 355.33 178.167 354.4 177.987 353.005H184.437C184.452 352.87 184.467 352.69 184.467 352.57ZM180.537 349.69C181.932 349.69 182.937 350.635 183.087 351.97H177.987C178.137 350.62 179.157 349.69 180.537 349.69ZM190.711 348.475C189.451 348.475 188.431 348.94 187.846 349.75V348.55H186.466V356.5H187.906V352.405C187.906 350.68 188.896 349.765 190.426 349.765C191.791 349.765 192.571 350.53 192.571 352.09V356.5H194.011V351.925C194.011 349.585 192.646 348.475 190.711 348.475ZM200.696 355C200.396 355.24 199.991 355.375 199.571 355.375C198.776 355.375 198.326 354.895 198.326 354.04V349.735H200.606V348.55H198.326V346.81H196.886V348.55H195.536V349.735H196.886V354.1C196.886 355.705 197.801 356.59 199.406 356.59C200.051 356.59 200.711 356.41 201.146 356.035L200.696 355ZM205.167 356.59C207.282 356.59 208.602 355.675 208.602 354.235C208.602 351.145 203.562 352.675 203.562 350.8C203.562 350.17 204.177 349.705 205.437 349.705C206.217 349.705 207.012 349.87 207.732 350.335L208.347 349.195C207.657 348.745 206.487 348.475 205.452 348.475C203.412 348.475 202.137 349.435 202.137 350.86C202.137 354.025 207.162 352.48 207.162 354.265C207.162 354.94 206.607 355.345 205.272 355.345C204.237 355.345 203.157 355 202.482 354.52L201.882 355.66C202.542 356.185 203.847 356.59 205.167 356.59ZM210.747 356.59C211.287 356.59 211.737 356.155 211.737 355.555C211.737 354.955 211.287 354.535 210.747 354.535C210.192 354.535 209.727 354.955 209.727 355.555C209.727 356.155 210.192 356.59 210.747 356.59Z" fill="#333333"/>
<defs>
<filter id="filter0_d" x="0" y="113.5" width="354.25" height="290.5" filterUnits="userSpaceOnUse" color-interpolation-filters="sRGB">
<feFlood flood-opacity="0" result="BackgroundImageFix"/>
<feColorMatrix in="SourceAlpha" type="matrix" values="0 0 0 0 0 0 0 0 0 0 0 0 0 0 0 0 0 0 127 0"/>
<feOffset dy="4"/>
<feGaussianBlur stdDeviation="7"/>
<feColorMatrix type="matrix" values="0 0 0 0 0 0 0 0 0 0 0 0 0 0 0 0 0 0 0.15 0"/>
<feBlend mode="normal" in2="BackgroundImageFix" result="effect1_dropShadow"/>
<feBlend mode="normal" in="SourceGraphic" in2="effect1_dropShadow" result="shape"/>
</filter>
<filter id="filter1_d" x="82.5" y="-5" width="178" height="184.562" filterUnits="userSpaceOnUse" color-interpolation-filters="sRGB">
<feFlood flood-opacity="0" result="BackgroundImageFix"/>
<feColorMatrix in="SourceAlpha" type="matrix" values="0 0 0 0 0 0 0 0 0 0 0 0 0 0 0 0 0 0 127 0"/>
<feOffset dy="4"/>
<feGaussianBlur stdDeviation="7"/>
<feColorMatrix type="matrix" values="0 0 0 0 0 0 0 0 0 0 0 0 0 0 0 0 0 0 0.15 0"/>
<feBlend mode="normal" in2="BackgroundImageFix" result="effect1_dropShadow"/>
<feBlend mode="normal" in="SourceGraphic" in2="effect1_dropShadow" result="shape"/>
</filter>
</defs>
</svg>
