<svg width="28" height="19" viewBox="0 0 28 19" fill="none" xmlns="http://www.w3.org/2000/svg">
<path d="M11.2727 10.3956C11.525 10.1937 11.9311 10.1895 12.1891 10.3937L12.3985 10.5595C13.283 11.2597 14.7184 11.2586 15.6014 10.5595L15.8109 10.3937C16.0646 10.1928 16.4764 10.1948 16.7273 10.3956L26.6092 18.3011C26.8616 18.503 26.8076 18.6667 26.4838 18.6667H1.51624C1.19456 18.6667 1.13981 18.5019 1.39078 18.3011L11.2727 10.3956ZM10.3342 8.92524C10.5865 9.12495 10.585 9.4516 10.3342 9.65228L0.456782 17.5542C0.204508 17.756 0 17.6635 0 17.3383V1.32531C0 1.00426 0.205928 0.907031 0.456782 1.10562L10.3342 8.92524ZM26.478 0C26.7996 0 26.8551 0.162406 26.603 0.36192L15.1476 9.43084C14.5138 9.93259 13.488 9.93401 12.8524 9.43084L1.39696 0.36192C1.14447 0.162037 1.19832 0 1.52198 0H26.478ZM17.6658 9.65228C17.4135 9.45046 17.415 9.12383 17.6658 8.92524L27.5432 1.10562C27.7955 0.905907 28 1.00013 28 1.32531V17.3383C28 17.6594 27.7941 17.7549 27.5432 17.5542L17.6658 9.65228Z" fill="url(#paint0_linear)"/>
<defs>
<linearGradient id="paint0_linear" x1="14" y1="0" x2="14" y2="18.6667" gradientUnits="userSpaceOnUse">
<stop stop-color="#379BE7"/>
<stop offset="1" stop-color="#1DE9C4"/>
</linearGradient>
</defs>
</svg>
