<svg width="312" height="539" viewBox="0 0 312 539" fill="none" xmlns="http://www.w3.org/2000/svg">
<g clip-path="url(#clip0)">
<rect x="312" width="539" height="312" rx="4.84415" transform="rotate(90 312 0)" fill="url(#paint0_radial)"/>
<path d="M312.513 0.0541221L312.345 65.8071C297.646 65.0196 283.608 59.8876 279.894 48.9793C278.946 46.2413 277.812 43.5459 276.499 40.905C275.19 38.2762 273.673 35.7165 271.954 33.2413C264.593 20.6966 249.714 15.3264 235.802 8.0485C231.873 5.93632 228.583 3.15838 226.166 -0.0855312L312.513 0.0541221Z" fill="url(#paint1_linear)"/>
<path d="M-0.00123678 0.148605L0.167072 65.9016C14.8653 65.1141 28.9038 59.9821 32.6182 49.0738C33.566 46.3357 34.6993 43.6404 36.0132 40.9995C37.3213 38.3707 38.8391 35.8109 40.5574 33.3358C47.9186 20.7911 62.7972 15.4209 76.7102 8.14298C80.6385 6.03081 83.9291 3.25286 86.3454 0.00895121L-0.00123678 0.148605Z" fill="url(#paint2_linear)"/>
<path opacity="0.15" d="M237.419 1.12408C253.444 9.16916 270.05 15.2409 279.269 28.1514C281.398 30.7497 283.333 33.4445 285.066 36.222C286.822 39.0239 288.415 41.9286 289.805 44.8865C293.685 53.1983 302.391 58.3485 312.343 60.8734L312.33 65.8071C297.632 65.0196 283.593 59.8876 279.879 48.9793C278.931 46.2412 277.798 43.5459 276.484 40.905C275.176 38.2762 273.658 35.7164 271.94 33.2413C264.579 20.6966 249.7 15.3264 235.787 8.04848C231.864 5.93501 228.578 3.15716 226.166 -0.0855312L235.251 -0.0708387C235.946 0.335064 236.666 0.737184 237.419 1.12408Z" fill="white"/>
<path opacity="0.15" d="M75.0927 1.21857C59.068 9.26364 42.4617 15.3354 33.2422 28.2459C31.1141 30.8442 29.1785 33.5389 27.4453 36.3164C25.6894 39.1183 24.0971 42.0231 22.7067 44.981C18.8271 53.2928 10.1211 58.443 0.168871 60.9679L0.1815 65.9016C14.8797 65.1141 28.9182 59.982 32.6326 49.0738C33.5804 46.3357 34.7138 43.6403 36.0276 40.9995C37.3357 38.3707 38.8535 35.8109 40.5718 33.3358C47.933 20.7911 62.8116 15.4209 76.7246 8.14296C80.6477 6.02949 83.9333 3.25164 86.3454 0.00895121L77.2611 0.0236439C76.5655 0.429547 75.8459 0.831666 75.0927 1.21857Z" fill="white"/>
<path d="M311.517 538.753L311.349 473C296.65 473.787 282.612 478.92 278.897 489.828C277.95 492.566 276.816 495.261 275.502 497.902C274.194 500.531 272.676 503.091 270.958 505.566C263.597 518.111 248.718 523.481 234.805 530.759C230.877 532.871 227.587 535.649 225.17 538.893L311.517 538.753Z" fill="url(#paint3_linear)"/>
<path d="M0.000715825 538.753L0.169026 473C14.8672 473.787 28.9058 478.92 32.6202 489.828C33.568 492.566 34.7013 495.261 36.0151 497.902C37.3233 500.531 38.8411 503.091 40.5593 505.566C47.9205 518.111 62.7992 523.481 76.7121 530.759C80.6404 532.871 83.9311 535.649 86.3473 538.893L0.000715825 538.753Z" fill="url(#paint4_linear)"/>
<path opacity="0.15" d="M236.423 537.683C252.448 529.638 269.054 523.566 278.273 510.656C280.401 508.057 282.337 505.363 284.07 502.585C285.826 499.783 287.419 496.879 288.809 493.921C292.688 485.609 301.395 480.459 311.347 477.934L311.334 473C296.636 473.788 282.597 478.92 278.883 489.828C277.935 492.566 276.802 495.261 275.488 497.902C274.18 500.531 272.662 503.091 270.944 505.566C263.583 518.111 248.704 523.481 234.791 530.759C230.868 532.872 227.582 535.65 225.17 538.893L234.255 538.878C234.95 538.472 235.67 538.07 236.423 537.683Z" fill="white"/>
<path opacity="0.15" d="M75.0947 537.683C59.0699 529.638 42.4636 523.566 33.2442 510.656C31.1161 508.057 29.1805 505.363 27.4472 502.585C25.6913 499.783 24.0991 496.879 22.7087 493.921C18.8291 485.609 10.123 480.459 0.170824 477.934L0.183453 473C14.8817 473.788 28.9202 478.92 32.6346 489.828C33.5824 492.566 34.7157 495.261 36.0296 497.902C37.3377 500.531 38.8555 503.091 40.5737 505.566C47.935 518.111 62.8136 523.481 76.7265 530.759C80.6496 532.872 83.9352 535.65 86.3473 538.893L77.263 538.878C76.5675 538.472 75.8479 538.07 75.0947 537.683Z" fill="white"/>
<g clip-path="url(#clip1)">
<path d="M63.205 53.95C61.987 53.95 61 52.963 61 51.745V36.205C61 34.987 61.987 34 63.205 34H78.745C79.963 34 80.95 34.987 80.95 36.205C80.95 37.423 79.963 38.41 78.745 38.41H65.41V51.745C65.41 52.963 64.423 53.95 63.205 53.95Z" fill="url(#paint5_linear)"/>
</g>
<g clip-path="url(#clip2)">
<path d="M248.27 53.4749C249.488 53.4749 250.475 52.4879 250.475 51.2699V35.7299C250.475 34.5119 249.488 33.5249 248.27 33.5249H232.73C231.512 33.5249 230.525 34.5119 230.525 35.7299C230.525 36.9479 231.512 37.9349 232.73 37.9349H246.065V51.2699C246.065 52.4879 247.052 53.4749 248.27 53.4749Z" fill="url(#paint6_linear)"/>
</g>
<g clip-path="url(#clip3)">
<path d="M62.7304 285.775C61.5124 285.775 60.5254 286.762 60.5254 287.98V303.52C60.5254 304.738 61.5124 305.725 62.7304 305.725H78.2704C79.4884 305.725 80.4754 304.738 80.4754 303.52C80.4754 302.302 79.4884 301.315 78.2704 301.315H64.9354V287.98C64.9354 286.762 63.9484 285.775 62.7304 285.775Z" fill="url(#paint7_linear)"/>
</g>
<g clip-path="url(#clip4)">
<path d="M248.744 286.25C249.962 286.25 250.949 287.237 250.949 288.455V303.995C250.949 305.213 249.962 306.2 248.744 306.2H233.204C231.986 306.2 230.999 305.213 230.999 303.995C230.999 302.777 231.986 301.79 233.204 301.79H246.539V288.455C246.539 287.237 247.526 286.25 248.744 286.25Z" fill="url(#paint8_linear)"/>
</g>
<line x1="60.0002" y1="461.5" x2="250" y2="461.557" stroke="black"/>
</g>
<defs>
<radialGradient id="paint0_radial" cx="0" cy="0" r="1" gradientUnits="userSpaceOnUse" gradientTransform="translate(581.5 156) rotate(90) scale(156 269.5)">
<stop stop-color="#335063"/>
<stop offset="1" stop-color="#1B3342"/>
</radialGradient>
<linearGradient id="paint1_linear" x1="269.171" y1="65.7373" x2="269.278" y2="-0.0158048" gradientUnits="userSpaceOnUse">
<stop stop-color="#379BE7"/>
<stop offset="1" stop-color="#1DE9C4"/>
</linearGradient>
<linearGradient id="paint2_linear" x1="43.3404" y1="65.8318" x2="43.234" y2="0.078678" gradientUnits="userSpaceOnUse">
<stop stop-color="#379BE7"/>
<stop offset="1" stop-color="#1DE9C4"/>
</linearGradient>
<linearGradient id="paint3_linear" x1="268.175" y1="473.07" x2="268.282" y2="538.823" gradientUnits="userSpaceOnUse">
<stop stop-color="#379BE7"/>
<stop offset="1" stop-color="#1DE9C4"/>
</linearGradient>
<linearGradient id="paint4_linear" x1="43.3423" y1="473.07" x2="43.236" y2="538.823" gradientUnits="userSpaceOnUse">
<stop stop-color="#379BE7"/>
<stop offset="1" stop-color="#1DE9C4"/>
</linearGradient>
<linearGradient id="paint5_linear" x1="70.975" y1="34" x2="70.975" y2="53.95" gradientUnits="userSpaceOnUse">
<stop stop-color="#379BE7"/>
<stop offset="1" stop-color="#1DE9C4"/>
</linearGradient>
<linearGradient id="paint6_linear" x1="240.5" y1="33.5249" x2="240.5" y2="53.4749" gradientUnits="userSpaceOnUse">
<stop stop-color="#379BE7"/>
<stop offset="1" stop-color="#1DE9C4"/>
</linearGradient>
<linearGradient id="paint7_linear" x1="70.5004" y1="305.725" x2="70.5004" y2="285.775" gradientUnits="userSpaceOnUse">
<stop stop-color="#379BE7"/>
<stop offset="1" stop-color="#1DE9C4"/>
</linearGradient>
<linearGradient id="paint8_linear" x1="240.974" y1="306.2" x2="240.974" y2="286.25" gradientUnits="userSpaceOnUse">
<stop stop-color="#379BE7"/>
<stop offset="1" stop-color="#1DE9C4"/>
</linearGradient>
<clipPath id="clip0">
<rect x="312" width="539" height="312" rx="4.84415" transform="rotate(90 312 0)" fill="white"/>
</clipPath>
<clipPath id="clip1">
<rect width="21" height="26.25" fill="white" transform="translate(60 33)"/>
</clipPath>
<clipPath id="clip2">
<rect width="21" height="26.25" fill="white" transform="matrix(-1 0 0 1 251 33)"/>
</clipPath>
<clipPath id="clip3">
<rect width="21" height="26.25" fill="white" transform="matrix(1 0 0 -1 60 306.25)"/>
</clipPath>
<clipPath id="clip4">
<rect width="21" height="26.25" fill="white" transform="translate(251.475 306.725) rotate(-180)"/>
</clipPath>
</defs>
</svg>
