<svg width="312" height="538" viewBox="0 0 312 538" fill="none" xmlns="http://www.w3.org/2000/svg">
<g clip-path="url(#clip0)">
<rect x="312" width="538" height="312" rx="4.84415" transform="rotate(90 312 0)" fill="url(#paint0_radial)"/>
<path d="M312.513 0.0541221L312.345 65.8071C297.646 65.0196 283.608 59.8876 279.894 48.9793C278.946 46.2413 277.812 43.5459 276.499 40.905C275.19 38.2762 273.673 35.7165 271.954 33.2413C264.593 20.6966 249.714 15.3264 235.802 8.0485C231.873 5.93632 228.583 3.15838 226.166 -0.0855312L312.513 0.0541221Z" fill="url(#paint1_linear)"/>
<path d="M-0.00123678 0.148605L0.167072 65.9016C14.8653 65.1141 28.9038 59.9821 32.6182 49.0738C33.566 46.3357 34.6993 43.6404 36.0132 40.9995C37.3213 38.3707 38.8391 35.8109 40.5574 33.3358C47.9186 20.7911 62.7972 15.4209 76.7102 8.14298C80.6385 6.03081 83.9291 3.25286 86.3454 0.00895121L-0.00123678 0.148605Z" fill="url(#paint2_linear)"/>
<path opacity="0.15" d="M237.419 1.12408C253.444 9.16916 270.05 15.2409 279.269 28.1514C281.398 30.7497 283.333 33.4445 285.066 36.222C286.822 39.0239 288.415 41.9286 289.805 44.8865C293.685 53.1983 302.391 58.3485 312.343 60.8734L312.33 65.8071C297.632 65.0196 283.593 59.8876 279.879 48.9793C278.931 46.2412 277.798 43.5459 276.484 40.905C275.176 38.2762 273.658 35.7164 271.94 33.2413C264.579 20.6966 249.7 15.3264 235.787 8.04848C231.864 5.93501 228.578 3.15716 226.166 -0.0855312L235.251 -0.0708387C235.946 0.335064 236.666 0.737184 237.419 1.12408Z" fill="white"/>
<path opacity="0.15" d="M75.0927 1.21857C59.068 9.26364 42.4617 15.3354 33.2422 28.2459C31.1141 30.8442 29.1785 33.5389 27.4453 36.3164C25.6894 39.1183 24.0971 42.0231 22.7067 44.981C18.8271 53.2928 10.1211 58.443 0.168871 60.9679L0.1815 65.9016C14.8797 65.1141 28.9182 59.982 32.6326 49.0738C33.5804 46.3357 34.7138 43.6403 36.0276 40.9995C37.3357 38.3707 38.8535 35.8109 40.5718 33.3358C47.933 20.7911 62.8116 15.4209 76.7246 8.14296C80.6477 6.02949 83.9333 3.25164 86.3454 0.00895121L77.2611 0.0236439C76.5655 0.429547 75.8459 0.831666 75.0927 1.21857Z" fill="white"/>
<path d="M311.517 537.753L311.349 472C296.65 472.787 282.612 477.92 278.897 488.828C277.95 491.566 276.816 494.261 275.502 496.902C274.194 499.531 272.676 502.091 270.958 504.566C263.597 517.111 248.718 522.481 234.805 529.759C230.877 531.871 227.587 534.649 225.17 537.893L311.517 537.753Z" fill="url(#paint3_linear)"/>
<path d="M0.000715825 537.753L0.169026 472C14.8672 472.787 28.9058 477.92 32.6202 488.828C33.568 491.566 34.7013 494.261 36.0151 496.902C37.3233 499.531 38.8411 502.091 40.5593 504.566C47.9205 517.111 62.7992 522.481 76.7121 529.759C80.6404 531.871 83.9311 534.649 86.3473 537.893L0.000715825 537.753Z" fill="url(#paint4_linear)"/>
<path opacity="0.15" d="M236.423 536.683C252.448 528.638 269.054 522.566 278.273 509.656C280.401 507.057 282.337 504.363 284.07 501.585C285.826 498.783 287.419 495.879 288.809 492.921C292.688 484.609 301.395 479.459 311.347 476.934L311.334 472C296.636 472.788 282.597 477.92 278.883 488.828C277.935 491.566 276.802 494.261 275.488 496.902C274.18 499.531 272.662 502.091 270.944 504.566C263.583 517.111 248.704 522.481 234.791 529.759C230.868 531.872 227.582 534.65 225.17 537.893L234.255 537.878C234.95 537.472 235.67 537.07 236.423 536.683Z" fill="white"/>
<path opacity="0.15" d="M75.0947 536.683C59.0699 528.638 42.4636 522.566 33.2442 509.656C31.1161 507.057 29.1805 504.363 27.4472 501.585C25.6913 498.783 24.0991 495.879 22.7087 492.921C18.8291 484.609 10.123 479.459 0.170824 476.934L0.183453 472C14.8817 472.788 28.9202 477.92 32.6346 488.828C33.5824 491.566 34.7157 494.261 36.0296 496.902C37.3377 499.531 38.8555 502.091 40.5737 504.566C47.935 517.111 62.8136 522.481 76.7265 529.759C80.6496 531.872 83.9352 534.65 86.3473 537.893L77.263 537.878C76.5675 537.472 75.8479 537.07 75.0947 536.683Z" fill="white"/>
<g clip-path="url(#clip1)">
<path d="M63.205 53.95C61.987 53.95 61 52.963 61 51.745V36.205C61 34.987 61.987 34 63.205 34H78.745C79.963 34 80.95 34.987 80.95 36.205C80.95 37.423 79.963 38.41 78.745 38.41H65.41V51.745C65.41 52.963 64.423 53.95 63.205 53.95Z" fill="url(#paint5_linear)"/>
</g>
<g clip-path="url(#clip2)">
<path d="M248.27 53.4749C249.488 53.4749 250.475 52.4879 250.475 51.2699V35.7299C250.475 34.5119 249.488 33.5249 248.27 33.5249H232.73C231.512 33.5249 230.525 34.5119 230.525 35.7299C230.525 36.9479 231.512 37.9349 232.73 37.9349H246.065V51.2699C246.065 52.4879 247.052 53.4749 248.27 53.4749Z" fill="url(#paint6_linear)"/>
</g>
<g clip-path="url(#clip3)">
<path d="M62.7304 285.775C61.5124 285.775 60.5254 286.762 60.5254 287.98V303.52C60.5254 304.738 61.5124 305.725 62.7304 305.725H78.2704C79.4884 305.725 80.4754 304.738 80.4754 303.52C80.4754 302.302 79.4884 301.315 78.2704 301.315H64.9354V287.98C64.9354 286.762 63.9484 285.775 62.7304 285.775Z" fill="url(#paint7_linear)"/>
</g>
<g clip-path="url(#clip4)">
<path d="M248.744 286.25C249.962 286.25 250.949 287.237 250.949 288.455V303.995C250.949 305.213 249.962 306.2 248.744 306.2H233.204C231.986 306.2 230.999 305.213 230.999 303.995C230.999 302.777 231.986 301.79 233.204 301.79H246.539V288.455C246.539 287.237 247.526 286.25 248.744 286.25Z" fill="url(#paint8_linear)"/>
</g>
<g clip-path="url(#clip5)">
<path d="M163 491H147C145.939 491 144.922 491.421 144.172 492.172C143.421 492.922 143 493.939 143 495V511C143 512.061 143.421 513.078 144.172 513.828C144.922 514.579 145.939 515 147 515H163C164.061 515 165.078 514.579 165.828 513.828C166.579 513.078 167 512.061 167 511V495C167 493.939 166.579 492.922 165.828 492.172C165.078 491.421 164.061 491 163 491V491ZM165 511C165 511.53 164.789 512.039 164.414 512.414C164.039 512.789 163.53 513 163 513H147C146.47 513 145.961 512.789 145.586 512.414C145.211 512.039 145 511.53 145 511V495C145 494.47 145.211 493.961 145.586 493.586C145.961 493.211 146.47 493 147 493H163C163.53 493 164.039 493.211 164.414 493.586C164.789 493.961 165 494.47 165 495V511Z" fill="url(#paint9_linear)"/>
<path d="M155 497C153.813 497 152.653 497.352 151.667 498.011C150.68 498.67 149.911 499.608 149.457 500.704C149.003 501.8 148.884 503.007 149.115 504.171C149.347 505.334 149.918 506.404 150.757 507.243C151.596 508.082 152.666 508.653 153.829 508.885C154.993 509.116 156.2 508.997 157.296 508.543C158.392 508.089 159.33 507.32 159.989 506.333C160.648 505.347 161 504.187 161 503C161 501.409 160.368 499.883 159.243 498.757C158.117 497.632 156.591 497 155 497ZM155 507C154.209 507 153.436 506.765 152.778 506.326C152.12 505.886 151.607 505.262 151.304 504.531C151.002 503.8 150.923 502.996 151.077 502.22C151.231 501.444 151.612 500.731 152.172 500.172C152.731 499.612 153.444 499.231 154.22 499.077C154.996 498.923 155.8 499.002 156.531 499.304C157.262 499.607 157.886 500.12 158.326 500.778C158.765 501.436 159 502.209 159 503C159 504.061 158.579 505.078 157.828 505.828C157.078 506.579 156.061 507 155 507Z" fill="url(#paint10_linear)"/>
<path d="M161.5 498C162.328 498 163 497.328 163 496.5C163 495.672 162.328 495 161.5 495C160.672 495 160 495.672 160 496.5C160 497.328 160.672 498 161.5 498Z" fill="url(#paint11_linear)"/>
</g>
<g clip-path="url(#clip6)">
<path d="M129.993 515V514.999H129.999V506.197C129.999 501.891 129.072 498.574 124.038 498.574C121.618 498.574 119.994 499.902 119.331 501.161H119.261V498.976H114.488V514.999H119.458V507.065C119.458 504.976 119.854 502.956 122.441 502.956C124.99 502.956 125.028 505.34 125.028 507.199V515H129.993Z" fill="url(#paint12_linear)"/>
<path d="M106.396 498.977H111.372V515H106.396V498.977Z" fill="url(#paint13_linear)"/>
<path d="M108.882 491C107.291 491 106 492.291 106 493.882C106 495.473 107.291 496.791 108.882 496.791C110.473 496.791 111.764 495.473 111.764 493.882C111.763 492.291 110.472 491 108.882 491V491Z" fill="url(#paint14_linear)"/>
</g>
<g clip-path="url(#clip7)">
<path d="M204.595 495H183.405C181.527 495 180 496.466 180 498.268V512.029C180 513.831 181.527 515.297 183.405 515.297H204.595C206.473 515.297 208 513.831 208 512.029V498.268C208 496.466 206.473 495 204.595 495ZM202.964 496.097L193.992 503.059L185.021 496.097H202.964ZM203.413 514.2H184.571V501.389L193.634 508.397C193.843 508.559 194.142 508.559 194.351 508.397L203.413 501.389V514.2H203.413ZM206.857 512.029C206.857 513.226 205.842 514.2 204.595 514.2H204.556V500.243C204.556 500.031 204.43 499.839 204.231 499.748C204.033 499.657 203.797 499.683 203.626 499.815L193.992 507.265L184.358 499.815C184.187 499.683 183.952 499.657 183.753 499.748C183.555 499.839 183.429 500.031 183.429 500.243V514.2H183.405C182.158 514.2 181.143 513.226 181.143 512.029V498.268C181.143 497.133 182.055 496.199 183.213 496.105L193.633 504.191C193.738 504.272 193.865 504.313 193.992 504.313C194.12 504.313 194.247 504.272 194.351 504.191L204.773 496.104C205.937 496.191 206.857 497.128 206.857 498.268V512.029Z" fill="url(#paint15_linear)"/>
</g>
<line x1="60.0002" y1="461.5" x2="250" y2="461.557" stroke="black"/>
</g>
<defs>
<radialGradient id="paint0_radial" cx="0" cy="0" r="1" gradientUnits="userSpaceOnUse" gradientTransform="translate(581 156) rotate(90) scale(156 269)">
<stop stop-color="#335063"/>
<stop offset="1" stop-color="#1B3342"/>
</radialGradient>
<linearGradient id="paint1_linear" x1="269.171" y1="65.7373" x2="269.278" y2="-0.0158048" gradientUnits="userSpaceOnUse">
<stop stop-color="#379BE7"/>
<stop offset="1" stop-color="#1DE9C4"/>
</linearGradient>
<linearGradient id="paint2_linear" x1="43.3404" y1="65.8318" x2="43.234" y2="0.078678" gradientUnits="userSpaceOnUse">
<stop stop-color="#379BE7"/>
<stop offset="1" stop-color="#1DE9C4"/>
</linearGradient>
<linearGradient id="paint3_linear" x1="268.175" y1="472.07" x2="268.282" y2="537.823" gradientUnits="userSpaceOnUse">
<stop stop-color="#379BE7"/>
<stop offset="1" stop-color="#1DE9C4"/>
</linearGradient>
<linearGradient id="paint4_linear" x1="43.3423" y1="472.07" x2="43.236" y2="537.823" gradientUnits="userSpaceOnUse">
<stop stop-color="#379BE7"/>
<stop offset="1" stop-color="#1DE9C4"/>
</linearGradient>
<linearGradient id="paint5_linear" x1="70.975" y1="34" x2="70.975" y2="53.95" gradientUnits="userSpaceOnUse">
<stop stop-color="#379BE7"/>
<stop offset="1" stop-color="#1DE9C4"/>
</linearGradient>
<linearGradient id="paint6_linear" x1="240.5" y1="33.5249" x2="240.5" y2="53.4749" gradientUnits="userSpaceOnUse">
<stop stop-color="#379BE7"/>
<stop offset="1" stop-color="#1DE9C4"/>
</linearGradient>
<linearGradient id="paint7_linear" x1="70.5004" y1="305.725" x2="70.5004" y2="285.775" gradientUnits="userSpaceOnUse">
<stop stop-color="#379BE7"/>
<stop offset="1" stop-color="#1DE9C4"/>
</linearGradient>
<linearGradient id="paint8_linear" x1="240.974" y1="306.2" x2="240.974" y2="286.25" gradientUnits="userSpaceOnUse">
<stop stop-color="#379BE7"/>
<stop offset="1" stop-color="#1DE9C4"/>
</linearGradient>
<linearGradient id="paint9_linear" x1="155" y1="491" x2="155" y2="515" gradientUnits="userSpaceOnUse">
<stop stop-color="#379BE7"/>
<stop offset="1" stop-color="#1DE9C4"/>
</linearGradient>
<linearGradient id="paint10_linear" x1="155" y1="497" x2="155" y2="509" gradientUnits="userSpaceOnUse">
<stop stop-color="#379BE7"/>
<stop offset="1" stop-color="#1DE9C4"/>
</linearGradient>
<linearGradient id="paint11_linear" x1="161.5" y1="495" x2="161.5" y2="498" gradientUnits="userSpaceOnUse">
<stop stop-color="#379BE7"/>
<stop offset="1" stop-color="#1DE9C4"/>
</linearGradient>
<linearGradient id="paint12_linear" x1="122.244" y1="498.574" x2="122.244" y2="515" gradientUnits="userSpaceOnUse">
<stop stop-color="#379BE7"/>
<stop offset="1" stop-color="#1DE9C4"/>
</linearGradient>
<linearGradient id="paint13_linear" x1="108.884" y1="498.977" x2="108.884" y2="515" gradientUnits="userSpaceOnUse">
<stop stop-color="#379BE7"/>
<stop offset="1" stop-color="#1DE9C4"/>
</linearGradient>
<linearGradient id="paint14_linear" x1="108.882" y1="491" x2="108.882" y2="496.791" gradientUnits="userSpaceOnUse">
<stop stop-color="#379BE7"/>
<stop offset="1" stop-color="#1DE9C4"/>
</linearGradient>
<linearGradient id="paint15_linear" x1="194" y1="495" x2="194" y2="515.297" gradientUnits="userSpaceOnUse">
<stop stop-color="#379BE7"/>
<stop offset="1" stop-color="#1DE9C4"/>
</linearGradient>
<clipPath id="clip0">
<rect x="312" width="538" height="312" rx="4.84415" transform="rotate(90 312 0)" fill="white"/>
</clipPath>
<clipPath id="clip1">
<rect width="21" height="26.25" fill="white" transform="translate(60 33)"/>
</clipPath>
<clipPath id="clip2">
<rect width="21" height="26.25" fill="white" transform="matrix(-1 0 0 1 251 33)"/>
</clipPath>
<clipPath id="clip3">
<rect width="21" height="26.25" fill="white" transform="matrix(1 0 0 -1 60 306.25)"/>
</clipPath>
<clipPath id="clip4">
<rect width="21" height="26.25" fill="white" transform="translate(251.475 306.725) rotate(-180)"/>
</clipPath>
<clipPath id="clip5">
<rect width="24" height="24" fill="white" transform="translate(143 491)"/>
</clipPath>
<clipPath id="clip6">
<rect width="24" height="24" fill="white" transform="translate(106 491)"/>
</clipPath>
<clipPath id="clip7">
<rect width="28" height="20" fill="white" transform="translate(180 495)"/>
</clipPath>
</defs>
</svg>
