<svg width="198" height="154" viewBox="0 0 198 154" fill="none" xmlns="http://www.w3.org/2000/svg">
<path d="M197.216 13.1762V13.4015V13.6275V13.8539V14.081V14.3086V14.5368V14.7655V14.9948V15.2246V15.455V15.6859V15.9174V16.1494V16.3819V16.615V16.8486V17.0828V17.3175V17.5527V17.7884V18.0247V18.2615V18.4988V18.7366V18.9749V19.2138V19.4531V19.693V19.9334V20.1742V20.4156V20.6575V20.8998V21.1427V21.386V21.6299V21.8742V22.119V22.3643V22.6101V22.8563V23.103V23.3502V23.5979V23.846V24.0946V24.3436V24.5931V24.8431V25.0935V25.3444V25.5957V25.8475V26.0997V26.3524V26.6055V26.8591V27.1131V27.3675V27.6223V27.8776V28.1333V28.3895V28.646V28.903V29.1604V29.4182V29.6764V29.9351V30.1941V30.4536V30.7134V30.9737V31.2344V31.4954V31.7569V32.0187V32.281V32.5436V32.8066V33.07V33.3337V33.5979V33.8624V34.1273V34.3926V34.6582V34.9243V35.1906V35.4574V35.7245V35.9919V36.2597V36.5279V36.7964V37.0652V37.3344V37.604V37.8739V38.1441V38.4147V38.6856V38.9568V39.2284V39.5003V39.7725V40.045V40.3179V40.591V40.8645V41.1383V41.4124V41.6869V41.9616V42.2366V42.512V42.7876V43.0635V43.3397V43.6162V43.8931V44.1701V44.4475V44.7252V45.0031V45.2813V45.5598V45.8386V46.1176V46.3969V46.6765V46.9563V47.2365V47.5168V47.7974V48.0783V48.3594V48.6408V48.9224V49.2043V49.4864V49.7687V50.0513V50.3341V50.6172V50.9005V51.184V51.4678V51.7517V52.0359V52.3203V52.6049V52.8898V53.1748V53.4601V53.7456V54.0313V54.3171V54.6032V54.8895V55.176V55.4627V55.7495V56.0366V56.3238V56.6112V56.8988V57.1866V57.4746V57.7627V58.0511V58.3395V58.6282V58.917V59.206V59.4951V59.7844V60.0739V60.3635V60.6533V60.9432V61.2332V61.5234V61.8138V62.1043V62.3949V62.6857V62.9766V63.2676V63.5587V63.85V64.1414V64.433V64.7246V65.0164V65.3082V65.6002V65.8923V66.1845V66.4768V66.7693V67.0618V67.3544V67.6471V67.9399V68.2328V68.5258V68.8188V69.112V69.4052V69.6985V69.9919V70.2854V70.5789V70.8726V71.1662V71.46V71.7538V72.0476V72.3416V72.6355V72.9296V73.2237V73.5178V73.812V74.1062V74.4005V74.6948V74.9891V75.2835V75.5779V75.8724V76.1668V76.4613V76.7559V77.0504V77.345V77.6395V77.9341V78.2287V78.5233V78.818V79.1126V79.4072V79.7018V79.9965V80.2911V80.5857V80.8803V81.1749V81.4695V81.764V82.0586V82.3531V82.6476V82.9421V83.2365V83.5309V83.8253V84.1196V84.4139V84.7082V85.0024V85.2966V85.5908V85.8848V86.1789V86.4729V86.7668V87.0607V87.3545V87.6482V87.9419V88.2355V88.529V88.8225V89.1159V89.4092V89.7025V89.9956V90.2887V90.5817V90.8746V91.1674V91.4601V91.7527V92.0452V92.3376V92.63V92.9222V93.2143V93.5063V93.7981V94.0899V94.3816V94.6731V94.9645V95.2558V95.5469V95.838V96.1289V96.4196V96.7103V97.0008V97.2911V97.5813V97.8714V98.1613V98.4511V98.7407V99.0302V99.3195V99.6086V99.8976V100.186V100.475V100.764V101.052V101.34V101.628V101.916V102.203V102.491V102.778V103.065V103.352V103.639V103.925V104.211V104.498V104.783V105.069V105.355V105.64V105.925V106.21V106.494V106.779V107.063V107.347V107.631V107.914V108.198V108.481V108.763V109.046V109.328V109.611V109.892V110.174V110.455V110.737V111.017V111.298V111.578V111.859V112.138V112.418V112.697V112.976V113.255V113.534V113.812V114.09V114.367V114.645V114.922V115.199V115.475V115.752V116.027V116.303V116.578V116.853V117.128V117.403V117.677V117.951V118.224V118.497V118.77V119.043V119.315V119.587V119.858V120.13V120.4V120.671V120.941V121.211V121.481V121.75V122.019V122.287V122.556V122.823V123.091V123.358V123.625V123.891V124.157V124.423V124.688V124.953V125.217V125.482V125.745V126.009V126.272V126.535V126.797V127.059V127.32V127.581V127.842V128.102V128.362V128.621V128.88V129.139V129.397V129.655V129.913V130.17V130.426V130.682V130.938V131.193V131.448V131.703V131.957V132.21V132.463V132.716V132.968V133.22V133.471V133.722V133.973V134.223V134.472V134.721V134.97V135.218V135.466V135.713V135.96V136.206V136.452V136.697V136.942V137.186V137.43V137.673V137.916V138.159V138.401V138.642V138.883V139.123V139.363V139.602V139.841V140.08V140.317V140.555V140.792V141.028V141.264V141.499V141.734V141.968V142.201V142.434V142.667V142.899V143.131V143.362V143.592V143.822V144.051V144.28V144.508V144.736V144.963V145.189V145.415V145.64V145.865V146.09V146.313V146.536V146.759V146.981V147.202V147.423V147.643V147.862V148.081V148.3V148.518V148.735V148.951V149.167V149.383V149.597V149.812V150.025V150.238V150.45V150.662V150.873C197.216 152.169 196.166 153.216 194.866 153.215C184.573 153.207 174.464 153.161 164.464 153.115C142.828 153.016 121.707 152.92 100.356 153.216H100.16H99.9591H99.758H99.5568H99.3557H99.1545H98.9533H98.7521H98.5509H98.3497H98.1484H97.9471H97.7458H97.5445H97.3431H97.1418H96.9404H96.739H96.5376H96.3362H96.1348H95.9333H95.7319H95.5304H95.3289H95.1274H94.9259H94.7244H94.5229H94.3213H94.1198H93.9182H93.7166H93.515H93.3134H93.1118H92.9102H92.7086H92.507H92.3053H92.1037H91.902H91.7004H91.4987H91.297H91.0954H90.8937H90.692H90.4903H90.2886H90.0869H89.8852H89.6835H89.4818H89.2801H89.0784H88.8767H88.675H88.4733H88.2716H88.0699H87.8682H87.6665H87.4648H87.2631H87.0614H86.8597H86.658H86.4563H86.2546H86.053H85.8513H85.6496H85.448H85.2463H85.0447H84.843H84.6414H84.4398H84.2382H84.0365H83.8349H83.6333H83.4318H83.2302H83.0286H82.8271H82.6255H82.424H82.2225H82.021H81.8195H81.618H81.4166H81.2151H81.0137H80.8123H80.6108H80.4095H80.2081H80.0067H79.8054H79.6041H79.4027H79.2015H79.0002H78.7989H78.5977H78.3965H78.1953H77.9941H77.793H77.5918H77.3907H77.1896H76.9885H76.7875H76.5865H76.3855H76.1845H75.9835H75.7826H75.5817H75.3808H75.18H74.9791H74.7783H74.5776H74.3768H74.1761H73.9754H73.7747H73.5741H73.3735H73.1729H72.9724H72.7718H72.5714H72.3709H72.1705H71.9701H71.7697H71.5694H71.3691H71.1688H70.9686H70.7684H70.5682H70.3681H70.168H69.968H69.7679H69.568H69.368H69.1681H68.9682H68.7684H68.5686H68.3688H68.1691H67.9694H67.7698H67.5702H67.3707H67.1711H66.9717H66.7722H66.5728H66.3735H66.1742H65.9749H65.7757H65.5765H65.3774H65.1783H64.9792H64.7803H64.5813H64.3824H64.1835H63.9847H63.786H63.5873H63.3886H63.19H62.9914H62.7929H62.5944H62.396H62.1976H61.9993H61.8011H61.6028H61.4047H61.2066H61.0085H60.8105H60.6126H60.4147H60.2168H60.019H59.8213H59.6236H59.426H59.2285H59.031H58.8335H58.6361H58.4388H58.2415H58.0443H57.8471H57.65H57.453H57.256H57.0591H56.8623H56.6655H56.4687H56.2721H56.0755H55.8789H55.6824H55.486H55.2897H55.0934H54.8972H54.701H54.5049H54.3089H54.1129H53.9171H53.7212H53.5255H53.3298H53.1342H52.9386H52.7431H52.5477H52.3524H52.1571H51.9619H51.7668H51.5717H51.3767H51.1818H50.987H50.7922H50.5975H50.4029H50.2084H50.0139H49.8195H49.6252H49.4309H49.2368H49.0427H48.8486H48.6547H48.4608H48.2671H48.0734H47.8797H47.6862H47.4927H47.2993H47.106H46.9128H46.7197H46.5266H46.3336H46.1407H45.9479H45.7552H45.5625H45.37H45.1775H44.9851H44.7928H44.6006H44.4084H44.2164H44.0244H43.8325H43.6407H43.449H43.2574H43.0659H42.8745H42.6831H42.4919H42.3007H42.1096H41.9186H41.7277H41.5369H41.3462H41.1556H40.9651H40.7746H40.5843H40.394H40.2039H40.0138H39.8239H39.634H39.4442H39.2546H39.065H38.8755H38.6861H38.4969H38.3077H38.1186H37.9296H37.7407H37.5519H37.3632H37.1746H36.9862H36.7978H36.6095H36.4213H36.2332H36.0452H35.8574H35.6696H35.4819H35.2944H35.1069H34.9196H34.7323H34.5452H34.3582H34.1712H33.9844H33.7977H33.6111H33.4246H33.2382H33.0519H32.8658H32.6797H32.4938H32.3079H32.1222H31.9366H31.7511H31.5657H31.3804H31.1953H31.0102H30.8253H30.6404H30.4557H30.2711H30.0867H29.9023H29.7181H29.5339H29.3499H29.166H28.9822H28.7986H28.615H28.4316H28.2483H28.0651H27.8821H27.6991H27.5163H27.3336H27.151H26.9685H26.7862H26.604H26.4219H26.2399H26.0581H25.8764H25.6948H25.5133H25.332H25.1507H24.9697H24.7887H24.6078H24.4271H24.2466H24.0661H23.8858H23.7056H23.5255H23.3456H23.1658H22.9861H22.8065H22.6271H22.4478H22.2687H22.0896H21.9108H21.732H21.5534H21.3749H21.1965H21.0183H20.8402H20.6623H20.4845H20.3068H20.1292H19.9518H19.7746H19.5975H19.4205H19.2436H19.0669H18.8903H18.7139H18.5376H18.3614H18.1854H18.0096H17.8338H17.6582H17.4828H17.3075H17.1323H16.9573H16.7824H16.6077H16.4331H16.2587H16.0844H15.9103H15.7363H15.5624H15.3887H15.2151H15.0417H14.8685H14.6954H14.5224H14.3496H14.1769H14.0044H13.832H13.6598H13.4878H13.3158H13.1441H12.9725H12.801H12.6297H12.4586H12.2876H12.1168H11.9461H11.7755H11.6052H11.4349H11.2649H11.095H10.9252H10.7556H10.5862H10.4169H10.2478H10.0789H9.91008H9.74144H9.57297H9.40465H9.2365H9.06851H8.90067H8.73301H8.5655H8.39816H8.23098H8.06396H7.89711H7.73042H7.5639H7.39754H7.23135H7.06532H6.89946H6.73377H6.56824H6.40288H6.23769H6.07267H5.90782H5.74314H5.57862H5.41428H5.2501H5.0861H4.92227H4.75861H4.59512H4.4318H4.26865H4.10568H3.94289H3.78026H3.61781H3.45554H3.29343H3.13151C1.83501 153.216 0.783756 152.163 0.783756 150.862V150.557V150.252V149.948V149.643V149.338V149.034V148.729V148.425V148.121V147.817V147.513V147.209V146.905V146.601V146.297V145.994V145.69V145.387V145.083V144.78V144.477V144.174V143.871V143.568V143.265V142.963V142.66V142.358V142.055V141.753V141.451V141.149V140.847V140.545V140.243V139.941V139.64V139.338V139.037V138.735V138.434V138.133V137.832V137.531V137.23V136.93V136.629V136.328V136.028V135.728V135.427V135.127V134.827V134.527V134.228V133.928V133.628V133.329V133.029V132.73V132.431V132.132V131.833V131.534V131.235V130.937V130.638V130.34V130.041V129.743V129.445V129.147V128.849V128.551V128.254V127.956V127.659V127.361V127.064V126.767V126.47V126.173V125.876V125.58V125.283V124.987V124.69V124.394V124.098V123.802V123.506V123.211V122.915V122.619V122.324V122.029V121.734V121.438V121.144V120.849V120.554V120.259V119.965V119.671V119.376V119.082V118.788V118.495V118.201V117.907V117.614V117.32V117.027V116.734V116.441V116.148V115.855V115.563V115.27V114.978V114.685V114.393V114.101V113.809V113.518V113.226V112.935V112.643V112.352V112.061V111.77V111.479V111.188V110.898V110.607V110.317V110.027V109.736V109.446V109.157V108.867V108.577V108.288V107.999V107.709V107.42V107.132V106.843V106.554V106.266V105.977V105.689V105.401V105.113V104.825V104.537V104.25V103.962V103.675V103.388V103.101V102.814V102.527V102.241V101.954V101.668V101.382V101.096V100.81V100.524V100.239V99.9531V99.6677V99.3825V99.0975V98.8126V98.5278V98.2432V97.9587V97.6744V97.3902V97.1062V96.8223V96.5385V96.2549V95.9714V95.6881V95.4049V95.1219V94.839V94.5563V94.2737V93.9913V93.709V93.4269V93.1449V92.863V92.5813V92.2998V92.0184V91.7372V91.4561V91.1751V90.8943V90.6137V90.3332V90.0529V89.7727V89.4927V89.2128V88.9331V88.6535V88.3741V88.0949V87.8158V87.5368V87.258V86.9794V86.7009V86.4226V86.1444V85.8664V85.5886V85.3109V85.0334V84.756V84.4788V84.2017V83.9248V83.6481V83.3715V83.0951V82.8188V82.5427V82.2668V81.991V81.7154V81.44V81.1647V80.8896V80.6146V80.3398V80.0652V79.7907V79.5164V79.2423V78.9683V78.6945V78.4209V78.1474V77.8741V77.601V77.328V77.0552V76.7825V76.5101V76.2378V75.9656V75.6937V75.4219V75.1503V74.8788V74.6075V74.3364V74.0655V73.7947V73.5241V73.2537V72.9834V72.7133V72.4434V72.1737V71.9041V71.6347V71.3655V71.0965V70.8276V70.5589V70.2904V70.0221V69.7539V69.4859V69.2181V68.9505V68.683V68.4158V68.1487V67.8818V67.615V67.3484V67.0821V66.8159V66.5498V66.284V66.0183V65.7529V65.4876V65.2224V64.9575V64.6928V64.4282V64.1638V63.8996V63.6356V63.3717V63.1081V62.8446V62.5813V62.3182V62.0553V61.7926V61.5301V61.2677V61.0055V60.7436V60.4818V60.2202V59.9588V59.6975V59.4365V59.1756V58.915V58.6545V58.3942V58.1341V57.8742V57.6145V57.355V57.0957V56.8366V56.5776V56.3189V56.0603V55.8019V55.5438V55.2858V55.028V54.7704V54.513V54.2558V53.9988V53.742V53.4854V53.229V52.9728V52.7168V52.461V52.2053V51.9499V51.6947V51.4397V51.1848V50.9302V50.6758V50.4215V50.1675V49.9137V49.6601V49.4066V49.1534V48.9004V48.6476V48.3949V48.1425V47.8903V47.6383V47.3865V47.1349V46.8835V46.6323V46.3813V46.1305V45.88V45.6296V45.3794V45.1295V44.8797V44.6302V44.3808V44.1317V43.8828V43.6341V43.3856V43.1373V42.8892V42.6414V42.3937V42.1462V41.899V41.652V41.4052V41.1586V40.9122V40.666V40.42V40.1743V39.9287V39.6834V39.4383V39.1934V38.9487V38.7042V38.46V38.2159V37.9721V37.7285V37.4851V37.242V36.999V36.7563V36.5138V36.2715V36.0294V35.7875V35.5459V35.3045V35.0633V34.8223V34.5815V34.341V34.1006V33.8605V33.6207V33.381V33.1416V32.9024V32.6634V32.4246V32.1861V31.9478V31.7097V31.4718V31.2342V30.9968V30.7596V30.5226V30.2859V30.0494V29.8131V29.577V29.3412V29.1056V28.8702V28.6351V28.4002V28.1655V27.931V27.6968V27.4628V27.2291V26.9955V26.7622V26.5291V26.2963V26.0637V25.8313V25.5992V25.3673V25.1356V24.9042V24.673V24.442V24.2112V23.9807V23.7505V23.5204V23.2906V23.0611V22.8318V22.6027V22.3738V22.1452V21.9168V21.6887V21.4608V21.2332V21.0057V20.7786V20.5516V20.3249V20.0985V19.8722V19.6463V19.4205V19.195V18.9698V18.7448V18.52V18.2955V18.0712V17.8472V17.6234V17.3998V17.1765V16.9535V16.7307V16.5081V16.2858V16.0637V15.8419V15.6203V15.399V15.1779V14.957V14.7365V14.5161V14.296V14.0762V13.8566V13.6372V13.4182V13.1993C0.783756 12.0483 1.61796 11.0704 2.75832 10.8853L64.3604 0.886756C64.7088 0.830214 64.8378 0.908515 64.8879 0.96395C65.2959 1.41512 65.896 2.25891 66.6871 3.42699C67.0057 3.89738 67.3569 4.42273 67.7341 4.98696C68.2672 5.78441 68.8522 6.65952 69.4704 7.56687C71.5999 10.6925 74.2523 14.3946 77.2067 17.6248C83.9176 24.9622 92.6455 28.4015 101.511 28.2783C110.466 28.1539 117.836 23.3752 124.346 15.9369C128.953 10.6725 132.73 5.04818 134.529 2.23707C135.061 1.40541 136.028 0.966683 136.984 1.12649L195.253 10.8741C196.391 11.0645 197.216 12.0325 197.216 13.1762Z" fill="url(#paint0_radial)" stroke="white" stroke-width="1.56751"/>
<defs>
<radialGradient id="paint0_radial" cx="0" cy="0" r="1" gradientUnits="userSpaceOnUse" gradientTransform="translate(99 77) rotate(90) scale(77 99)">
<stop stop-color="#335063"/>
<stop offset="1" stop-color="#1B3342"/>
</radialGradient>
</defs>
</svg>
