<svg width="28" height="20" viewBox="0 0 28 20" fill="none" xmlns="http://www.w3.org/2000/svg">
<g clip-path="url(#clip0)">
<path d="M24.5953 0H3.40473C1.52737 0 0 1.46621 0 3.26836V17.0289C0 18.8311 1.52737 20.2973 3.40473 20.2973H24.5953C26.4727 20.2973 28 18.8311 28 17.0289V3.26836C28 1.46621 26.4727 0 24.5953 0ZM22.9639 1.09705L13.9923 8.05868L5.02064 1.09705H22.9639ZM23.4131 19.2002H4.57144V6.38883L13.6338 13.3968C13.843 13.5586 14.1415 13.5586 14.3508 13.3968L23.4131 6.38883V19.2002H23.4131ZM26.8571 17.0289C26.8571 18.2261 25.8425 19.2001 24.5953 19.2001H24.5561V5.24254C24.5561 5.03134 24.4298 4.83893 24.2313 4.74774C24.0326 4.6565 23.7974 4.68291 23.6261 4.81536L13.9923 12.2652L4.35843 4.81536C4.18704 4.68291 3.95166 4.6565 3.75331 4.74774C3.5548 4.83893 3.42852 5.03134 3.42852 5.24254V19.2001H3.40468C2.15753 19.2002 1.14286 18.2261 1.14286 17.0289V3.26836C1.14286 2.13304 2.05548 1.199 3.21338 1.10545L13.6331 9.19074C13.7378 9.27206 13.8651 9.31269 13.9923 9.31269C14.1195 9.31269 14.2467 9.27206 14.3515 9.19074L24.7725 1.10434C25.9371 1.19149 26.8571 2.12842 26.8571 3.2683V17.0289Z" fill="url(#paint0_linear)"/>
</g>
<defs>
<linearGradient id="paint0_linear" x1="14" y1="0" x2="14" y2="20.2973" gradientUnits="userSpaceOnUse">
<stop stop-color="#379BE7"/>
<stop offset="1" stop-color="#1DE9C4"/>
</linearGradient>
<clipPath id="clip0">
<rect width="28" height="20" fill="white"/>
</clipPath>
</defs>
</svg>
