<svg width="200" height="228" viewBox="0 0 200 228" fill="none" xmlns="http://www.w3.org/2000/svg">
<g filter="url(#filter0_d)">
<path d="M99.9634 195.927C147.44 195.927 185.927 157.44 185.927 109.963C185.927 62.487 147.44 23.9999 99.9634 23.9999C52.4871 23.9999 14 62.487 14 109.963C14 157.44 52.4871 195.927 99.9634 195.927Z" fill="white"/>
<path d="M166.6 36.7048C167.305 37.0862 167.976 37.5114 168.61 37.9813L168.255 38.4605C168.871 38.9163 169.451 39.4154 169.994 39.9587C170.538 40.502 171.037 41.082 171.493 41.6975L171.972 41.3427C172.442 41.9772 172.867 42.6477 173.248 43.3525L172.724 43.6363C173.432 44.9448 173.986 46.3811 174.388 47.9362L174.966 47.7868C175.16 48.5398 175.32 49.3184 175.446 50.1216L174.857 50.2137C175.086 51.6806 175.199 53.2357 175.196 54.8722L175.792 54.8731C175.791 55.6507 175.764 56.4453 175.713 57.256L175.117 57.2179C175.021 58.7208 174.837 60.2826 174.567 61.8984L175.155 61.9968C175.026 62.7696 174.877 63.5539 174.709 64.3493L174.126 64.2262C173.812 65.7113 173.431 67.2368 172.983 68.799L173.556 68.9632C173.34 69.7167 173.109 70.4784 172.863 71.2477L172.295 71.066C171.827 72.5287 171.304 74.0203 170.726 75.5381L171.284 75.75C171.005 76.4832 170.714 77.2224 170.41 77.967L169.858 77.7419C169.274 79.1734 168.645 80.6261 167.97 82.0976L168.512 82.3461C168.184 83.0611 167.846 83.7803 167.497 84.5037L166.96 84.2448C166.286 85.643 165.573 87.0567 164.821 88.484L165.348 88.7618C164.98 89.4609 164.603 90.1632 164.216 90.8684L163.694 90.5819C162.946 91.9471 162.163 93.3236 161.348 94.7098L161.862 95.0122C161.46 95.6945 161.051 96.3791 160.633 97.0658L160.124 96.7561C159.311 98.092 158.469 99.436 157.596 100.787L158.097 101.11C157.671 101.771 157.237 102.433 156.796 103.096L156.3 102.766C155.433 104.071 154.539 105.381 153.619 106.696L154.107 107.038C153.653 107.687 153.192 108.336 152.725 108.987L152.241 108.639C151.326 109.913 150.386 111.191 149.422 112.471L149.899 112.829C149.423 113.461 148.942 114.093 148.454 114.725L147.982 114.362C147.023 115.606 146.041 116.853 145.038 118.099L145.502 118.473C145.005 119.09 144.503 119.707 143.996 120.324L143.535 119.946C142.536 121.161 141.516 122.376 140.475 123.59L140.928 123.978C140.413 124.579 139.893 125.18 139.368 125.78L138.919 125.388C137.882 126.573 136.826 127.758 135.752 128.939L136.193 129.341C135.659 129.928 135.12 130.515 134.576 131.101L134.139 130.695C133.067 131.851 131.977 133.005 130.869 134.155L131.299 134.569C130.75 135.138 130.197 135.707 129.64 136.275L129.214 135.857C128.658 136.423 128.098 136.989 127.534 137.553C126.97 138.117 126.404 138.678 125.838 139.233L126.256 139.659C125.688 140.216 125.119 140.769 124.55 141.318L124.136 140.888C122.986 141.996 121.832 143.086 120.676 144.158L121.081 144.596C120.495 145.139 119.909 145.678 119.321 146.212L118.92 145.771C117.739 146.845 116.554 147.901 115.369 148.938L115.761 149.387C115.161 149.912 114.56 150.432 113.959 150.947L113.571 150.494C112.357 151.535 111.142 152.555 109.927 153.554L110.305 154.015C109.688 154.522 109.071 155.024 108.454 155.521L108.08 155.057C106.834 156.06 105.587 157.042 104.342 158.001L104.706 158.473C104.074 158.961 103.442 159.442 102.81 159.918L102.451 159.442C101.172 160.405 99.8944 161.345 98.6202 162.26L98.968 162.744C98.3173 163.211 97.6675 163.672 97.0187 164.126L96.6767 163.638C95.3622 164.558 94.0519 165.452 92.7471 166.319L93.077 166.816C92.4136 167.256 91.7516 167.69 91.0911 168.116L90.7676 167.616C89.4169 168.488 88.0729 169.33 86.737 170.143L87.0467 170.652C86.36 171.07 85.6754 171.479 84.9931 171.881L84.6907 171.367C83.3045 172.182 81.928 172.965 80.5629 173.713L80.8494 174.236C80.1441 174.622 79.4419 174.999 78.7427 175.368L78.4649 174.84C77.0376 175.592 75.6239 176.305 74.2257 176.979L74.4846 177.516C73.7613 177.865 73.042 178.203 72.327 178.531L72.0785 177.989C70.607 178.664 69.1544 179.293 67.7228 179.877L67.9479 180.429C67.2033 180.733 66.4642 181.024 65.7309 181.303L65.519 180.746C64.0012 181.323 62.5096 181.846 61.0469 182.314L61.2286 182.882C60.4593 183.128 59.6977 183.359 58.9442 183.575L58.7799 183.002C57.2177 183.45 55.6922 183.831 54.2071 184.145L54.3302 184.728C53.5348 184.896 52.7505 185.045 51.9778 185.174L51.8794 184.586C50.2635 184.856 48.7017 185.04 47.1988 185.137L47.2369 185.732C46.4262 185.783 45.6316 185.81 44.854 185.811L44.8531 185.215C43.2167 185.218 41.6616 185.105 40.1946 184.876L40.1025 185.465C39.2994 185.339 38.5207 185.18 37.7677 184.985L37.9171 184.407C36.362 184.005 34.9258 183.451 33.6172 182.743L33.3335 183.267C32.6286 182.886 31.9581 182.461 31.3236 181.991L31.6785 181.512C31.063 181.056 30.4829 180.557 29.9396 180.013C29.3963 179.47 28.8972 178.89 28.4414 178.275L27.9623 178.629C27.4924 177.995 27.0671 177.324 26.6858 176.62L27.2102 176.336C26.5022 175.027 25.9482 173.591 25.5456 172.036L24.9684 172.185C24.7735 171.432 24.6135 170.654 24.488 169.85L25.0771 169.758C24.8478 168.291 24.7354 166.736 24.7379 165.1L24.1416 165.099C24.1428 164.321 24.1695 163.527 24.2214 162.716L24.8164 162.754C24.9126 161.251 25.0967 159.689 25.3671 158.074L24.7791 157.975C24.9084 157.203 25.0571 156.418 25.225 155.623L25.8084 155.746C26.1218 154.261 26.5031 152.735 26.9508 151.173L26.3776 151.009C26.5936 150.255 26.8248 149.494 27.071 148.724L27.6389 148.906C28.107 147.443 28.6302 145.952 29.2074 144.434L28.6501 144.222C28.929 143.489 29.2203 142.75 29.5239 142.005L30.076 142.23C30.6596 140.799 31.2892 139.346 31.9639 137.875L31.4219 137.626C31.7497 136.911 32.088 136.192 32.4367 135.468L32.9738 135.727C33.6479 134.329 34.3612 132.915 35.113 131.488L34.5854 131.21C34.9537 130.511 35.331 129.809 35.7174 129.104L36.2403 129.39C36.9883 128.025 37.7705 126.648 38.5862 125.262L38.0723 124.96C38.4738 124.278 38.8833 123.593 39.3009 122.906L39.8103 123.216C40.6226 121.88 41.4651 120.536 42.3375 119.185L41.8366 118.862C42.2632 118.201 42.6968 117.539 43.1374 116.876L43.6341 117.206C44.5007 115.901 45.3945 114.591 46.315 113.276L45.8267 112.934C46.281 112.286 46.7418 111.636 47.209 110.985L47.6934 111.333C48.6082 110.059 49.5478 108.781 50.5115 107.502L50.0352 107.143C50.5109 106.511 50.9924 105.879 51.4796 105.247L51.952 105.611C52.911 104.366 53.8926 103.12 54.8964 101.873L54.4319 101.499C54.9286 100.882 55.4308 100.265 55.9382 99.6477L56.3987 100.026C57.3981 98.8111 58.4183 97.5959 59.4589 96.3817L59.0061 95.9938C59.5212 95.3928 60.0412 94.7921 60.5661 94.1917L61.0149 94.5842C62.0516 93.3986 63.1075 92.2145 64.1823 91.0327L63.7412 90.6316C64.2753 90.0443 64.8141 89.4576 65.3574 88.8716L65.7946 89.277C66.8669 88.1206 67.957 86.967 69.0647 85.817L68.6353 85.4034C69.1839 84.8338 69.7369 84.2651 70.294 83.6974L70.7196 84.115C71.2754 83.5486 71.8355 82.9833 72.3999 82.4189C72.9642 81.8546 73.5295 81.2945 74.0959 80.7387L73.6783 80.3131C74.246 79.756 74.8147 79.203 75.3843 78.6544L75.7979 79.0838C76.9479 77.9761 78.1015 76.886 79.2579 75.8138L78.8525 75.3765C79.4385 74.8332 80.0252 74.2944 80.6125 73.7603L81.0136 74.2014C82.1954 73.1266 83.3795 72.0707 84.5651 71.034L84.1726 70.5852C84.773 70.0603 85.3737 69.5403 85.9747 69.0252L86.3626 69.478C87.5768 68.4374 88.792 67.4172 90.0073 66.4178L89.6286 65.9573C90.2457 65.4499 90.8628 64.9477 91.4798 64.451L91.8537 64.9154C93.1004 63.9117 94.3467 62.9301 95.5915 61.9711L95.2276 61.4987C95.8601 61.0114 96.4922 60.5299 97.1238 60.0543L97.4824 60.5306C98.7621 59.5669 100.04 58.6273 101.314 57.7124L100.966 57.2281C101.617 56.7609 102.266 56.3001 102.915 55.8458L103.257 56.3341C104.572 55.4136 105.882 54.5198 107.187 53.6532L106.857 53.1565C107.52 52.7159 108.182 52.2823 108.843 51.8557L109.166 52.3566C110.517 51.4842 111.861 50.6416 113.197 49.8294L112.887 49.3199C113.574 48.9024 114.258 48.4929 114.941 48.0914L115.243 48.6053C116.629 47.7896 118.006 47.0074 119.371 46.2594L119.085 45.7365C119.79 45.3501 120.492 44.9727 121.191 44.6045L121.469 45.132C122.896 44.3803 124.31 43.667 125.708 42.9929L125.449 42.4558C126.173 42.1071 126.892 41.7688 127.607 41.441L127.855 41.9829C129.327 41.3083 130.78 40.6787 132.211 40.0951L131.986 39.543C132.731 39.2394 133.47 38.948 134.203 38.6692L134.415 39.2265C135.933 38.6493 137.424 38.1261 138.887 37.6579L138.705 37.0901C139.475 36.8438 140.236 36.6127 140.99 36.3967L141.154 36.9699C142.716 36.5222 144.242 36.1409 145.727 35.8274L145.604 35.2441C146.399 35.0762 147.183 34.9275 147.956 34.7981L148.055 35.3862C149.67 35.1158 151.232 34.9317 152.735 34.8355L152.697 34.2405C153.508 34.1886 154.302 34.1619 155.08 34.1607L155.081 34.7569C156.717 34.7544 158.272 34.8669 159.739 35.0962L159.831 34.5071C160.635 34.6326 161.413 34.7926 162.166 34.9875L162.017 35.5647C163.572 35.9673 165.008 36.5212 166.317 37.2292L166.6 36.7048Z" stroke="#136DC7" stroke-width="1.19247" stroke-dasharray="4.77 2.38"/>
<path d="M173.332 176.592C172.93 177.293 172.487 177.963 172.002 178.599L171.528 178.238C171.057 178.856 170.547 179.442 169.995 179.993C169.443 180.545 168.858 181.056 168.24 181.526L168.601 182C167.964 182.485 167.295 182.928 166.593 183.33L166.297 182.813C164.98 183.568 163.544 184.176 161.997 184.641L162.168 185.212C161.413 185.438 160.633 185.631 159.83 185.791L159.714 185.206C158.232 185.5 156.666 185.679 155.02 185.744L155.044 186.34C154.256 186.371 153.452 186.377 152.631 186.358L152.645 185.762C151.117 185.725 149.531 185.6 147.89 185.387L147.813 185.978C147.033 185.877 146.241 185.757 145.438 185.617L145.54 185.029C144.025 184.765 142.468 184.431 140.875 184.029L140.729 184.607C139.958 184.412 139.179 184.202 138.392 183.976L138.557 183.403C137.067 182.975 135.548 182.491 134.003 181.951L133.807 182.514C133.056 182.252 132.298 181.976 131.536 181.688L131.747 181.13C130.287 180.578 128.805 179.979 127.305 179.333L127.07 179.881C126.337 179.565 125.6 179.239 124.859 178.901L125.106 178.359C123.679 177.709 122.237 177.019 120.781 176.288L120.514 176.821C119.798 176.462 119.079 176.093 118.357 175.715L118.634 175.187C117.241 174.457 115.837 173.692 114.423 172.891L114.129 173.41C113.435 173.017 112.739 172.616 112.04 172.206L112.342 171.692C110.978 170.892 109.607 170.06 108.229 169.198L107.912 169.703C107.238 169.281 106.562 168.851 105.884 168.414L106.208 167.913C104.877 167.054 103.542 166.167 102.203 165.253L101.867 165.745C101.204 165.292 100.541 164.833 99.8774 164.367L100.22 163.879C98.9224 162.969 97.6218 162.032 96.3196 161.07L95.9654 161.55C95.3233 161.075 94.6808 160.595 94.0381 160.108L94.3979 159.633C93.1314 158.674 91.8638 157.692 90.5963 156.686L90.2258 157.154C89.5978 156.655 88.97 156.152 88.3423 155.642L88.718 155.179C87.4832 154.177 86.2489 153.153 85.0163 152.107L84.6306 152.562C84.0208 152.045 83.4113 151.522 82.8024 150.995L83.1929 150.544C81.9898 149.501 80.7888 148.439 79.5907 147.356L79.1909 147.798C78.5953 147.26 78.0005 146.717 77.4065 146.169L77.8108 145.731C76.6393 144.65 75.4712 143.55 74.3073 142.432L73.8942 142.862C73.3178 142.308 72.7424 141.749 72.1682 141.187L72.5855 140.761C72.0127 140.199 71.441 139.633 70.8706 139.063C70.3002 138.492 69.7342 137.921 69.1727 137.348L68.7469 137.765C68.184 137.191 67.6256 136.616 67.0717 136.039L67.5017 135.626C66.3834 134.462 65.2837 133.294 64.2029 132.123L63.7646 132.527C63.2166 131.933 62.6735 131.338 62.1352 130.743L62.5776 130.343C61.4948 129.145 60.432 127.944 59.3894 126.741L58.9388 127.131C58.4111 126.522 57.8886 125.913 57.3714 125.303L57.8261 124.917C56.7806 123.684 55.7565 122.45 54.7543 121.215L54.2913 121.591C53.7819 120.963 53.278 120.336 52.7799 119.708L53.247 119.337C52.2414 118.07 51.259 116.802 50.3004 115.535L49.825 115.895C49.3385 115.253 48.8581 114.61 48.3838 113.968L48.8634 113.614C47.9015 112.312 46.9649 111.011 46.0542 109.713L45.5661 110.056C45.1002 109.392 44.641 108.729 44.1885 108.067L44.6808 107.73C43.766 106.391 42.8791 105.056 42.0207 103.726L41.5197 104.049C41.0826 103.372 40.6528 102.696 40.2305 102.021L40.7358 101.705C39.8731 100.327 39.0415 98.9552 38.2416 97.5915L37.7273 97.8932C37.3176 97.1947 36.9163 96.4983 36.5233 95.8041L37.0421 95.5104C36.2418 94.0968 35.4764 92.6926 34.7466 91.2995L34.2184 91.5762C33.8402 90.8543 33.4715 90.1353 33.1123 89.4194L33.6452 89.1521C32.9149 87.6964 32.2245 86.2541 31.5748 84.8273L31.0322 85.0743C30.6948 84.3334 30.3684 83.5965 30.0529 82.8639L30.6005 82.6281C29.9546 81.1281 29.3552 79.6469 28.8033 78.1868L28.2456 78.3976C27.9573 77.635 27.6819 76.8779 27.4194 76.1268L27.9823 75.9301C27.4425 74.3852 26.9581 72.8663 26.5303 71.3764L25.9572 71.541C25.7314 70.7543 25.5211 69.9754 25.3265 69.2047L25.9046 69.0588C25.5025 67.4655 25.1686 65.9089 24.9043 64.393L24.3169 64.4954C24.1769 63.6925 24.0562 62.9005 23.955 62.12L24.5462 62.0433C24.3335 60.4028 24.2081 58.816 24.1718 57.2879L23.5757 57.3021C23.5562 56.4818 23.5619 55.6773 23.5933 54.8897L24.189 54.9134C24.2545 53.2678 24.4334 51.7011 24.7274 50.2198L24.1426 50.1037C24.3021 49.3004 24.495 48.5204 24.7217 47.7651L25.2928 47.9365C25.7571 46.3896 26.3654 44.9535 27.1205 43.6367L26.6032 43.3401C27.0054 42.6387 27.4484 41.9689 27.933 41.3324L28.4075 41.6935C28.8778 41.0756 29.3885 40.4902 29.9402 39.9386C30.4918 39.3869 31.0772 38.8762 31.6951 38.4058L31.334 37.9314C31.9706 37.4468 32.6403 37.0037 33.3417 36.6016L33.6383 37.1188C34.9552 36.3638 36.3912 35.7554 37.9381 35.2912L37.7667 34.7201C38.5221 34.4934 39.302 34.3005 40.1054 34.141L40.2215 34.7258C41.7027 34.4317 43.2694 34.2529 44.915 34.1874L44.8913 33.5917C45.679 33.5603 46.4834 33.5546 47.3038 33.5741L47.2896 34.1702C48.8176 34.2065 50.4045 34.3319 52.0449 34.5446L52.1216 33.9533C52.9022 34.0546 53.6942 34.1753 54.497 34.3153L54.3946 34.9026C55.9105 35.1669 57.4671 35.5008 59.0604 35.903L59.2063 35.3249C59.977 35.5195 60.7559 35.7298 61.5426 35.9556L61.378 36.5287C62.8679 36.9565 64.3868 37.4409 65.9317 37.9807L66.1284 37.4178C66.8795 37.6803 67.6366 37.9557 68.3992 38.244L68.1884 38.8017C69.6485 39.3536 71.1298 39.9529 72.6297 40.5989L72.8655 40.0512C73.5981 40.3667 74.335 40.6932 75.0759 41.0306L74.8289 41.5732C76.2557 42.2229 77.698 42.9133 79.1537 43.6436L79.4211 43.1107C80.1369 43.4699 80.8559 43.8386 81.5778 44.2168L81.3011 44.7449C82.6942 45.4748 84.0984 46.2402 85.512 47.0405L85.8057 46.5216C86.4999 46.9147 87.1964 47.316 87.8948 47.7257L87.5931 48.24C88.9569 49.0398 90.3285 49.8715 91.7064 50.7342L92.0228 50.2288C92.6974 50.6512 93.3734 51.081 94.0507 51.5181L93.7274 52.0191C95.0576 52.8775 96.3929 53.7644 97.732 54.6792L98.0683 54.1869C98.7306 54.6393 99.3937 55.0986 100.058 55.5645L99.7151 56.0525C101.013 56.9633 102.313 57.8998 103.615 58.8618L103.97 58.3822C104.612 58.8565 105.254 59.3369 105.897 59.8233L105.537 60.2988C106.804 61.2574 108.071 62.2398 109.339 63.2454L109.709 62.7783C110.337 63.2764 110.965 63.7803 111.593 64.2897L111.217 64.7527C112.452 65.7549 113.686 66.7789 114.919 67.8244L115.304 67.3697C115.914 67.887 116.524 68.4095 117.133 68.9372L116.742 69.3878C117.945 70.4303 119.146 71.4932 120.344 72.5759L120.744 72.1336C121.34 72.6719 121.935 73.215 122.529 73.763L122.124 74.2012C123.296 75.282 124.464 76.3818 125.628 77.5L126.041 77.0701C126.617 77.624 127.193 78.1824 127.767 78.7453L127.35 79.1711C127.922 79.7326 128.494 80.2985 129.064 80.869C129.635 81.4394 130.201 82.0111 130.762 82.5839L131.188 82.1665C131.751 82.7408 132.309 83.3162 132.863 83.8926L132.433 84.3057C133.552 85.4696 134.651 86.6377 135.732 87.8092L136.17 87.4049C136.718 87.9989 137.262 88.5937 137.8 89.1893L137.357 89.5891C138.44 90.7871 139.503 91.9882 140.546 93.1913L140.996 92.8008C141.524 93.4097 142.046 94.0192 142.564 94.629L142.109 95.0147C143.154 96.2473 144.179 97.4816 145.181 98.7164L145.644 98.3407C146.153 98.9684 146.657 99.5962 147.155 100.224L146.688 100.595C147.694 101.862 148.676 103.13 149.635 104.396L150.11 104.036C150.597 104.679 151.077 105.322 151.551 105.964L151.072 106.318C152.034 107.62 152.97 108.921 153.881 110.218L154.369 109.876C154.835 110.54 155.294 111.203 155.747 111.865L155.254 112.201C156.169 113.541 157.056 114.876 157.914 116.206L158.415 115.883C158.852 116.56 159.282 117.236 159.705 117.911L159.199 118.227C160.062 119.605 160.894 120.977 161.693 122.34L162.208 122.039C162.617 122.737 163.019 123.433 163.412 124.128L162.893 124.421C163.693 125.835 164.459 127.239 165.188 128.632L165.717 128.356C166.095 129.078 166.464 129.797 166.823 130.512L166.29 130.78C167.02 132.235 167.711 133.678 168.36 135.105L168.903 134.857C169.24 135.598 169.567 136.335 169.882 137.068L169.335 137.304C169.98 138.804 170.58 140.285 171.132 141.745L171.689 141.534C171.978 142.297 172.253 143.054 172.516 143.805L171.953 144.002C172.493 145.547 172.977 147.065 173.405 148.555L173.978 148.391C174.204 149.178 174.414 149.956 174.609 150.727L174.03 150.873C174.433 152.466 174.766 154.023 175.031 155.539L175.618 155.436C175.758 156.239 175.879 157.031 175.98 157.812L175.389 157.889C175.602 159.529 175.727 161.116 175.763 162.644L176.359 162.63C176.379 163.45 176.373 164.254 176.342 165.042L175.746 165.018C175.681 166.664 175.502 168.231 175.208 169.712L175.792 169.828C175.633 170.631 175.44 171.411 175.213 172.167L174.642 171.995C174.178 173.542 173.57 174.978 172.815 176.295L173.332 176.592Z" stroke="#0D71B2" stroke-width="1.19247" stroke-dasharray="4.77 2.38"/>
<path d="M97.8743 11.0143C98.6655 10.8164 99.463 10.6667 100.266 10.5663L100.34 11.158C101.12 11.0605 101.906 11.0112 102.697 11.0112C103.487 11.0112 104.273 11.0605 105.053 11.158L105.127 10.5663C105.93 10.6667 106.728 10.8164 107.519 11.0143L107.374 11.5927C108.873 11.9676 110.351 12.521 111.806 13.2455L112.072 12.7118C112.787 13.068 113.495 13.464 114.197 13.8988L113.883 14.4056C115.186 15.2137 116.468 16.1609 117.726 17.2411L118.114 16.7888C118.72 17.3091 119.319 17.8591 119.911 18.438L119.494 18.8644C120.598 19.9431 121.679 21.1255 122.736 22.4071L123.196 22.0277C123.703 22.6425 124.204 23.2793 124.699 23.9377L124.223 24.2959C125.16 25.5423 126.075 26.8679 126.967 28.269L127.47 27.9488C127.901 28.6257 128.326 29.3198 128.746 30.0306L128.233 30.3337C129.029 31.6824 129.804 33.0926 130.558 34.5614L131.089 34.2892C131.456 35.0062 131.819 35.7368 132.176 36.4808L131.639 36.7388C132.32 38.1587 132.982 39.628 133.624 41.1443L134.173 40.9121C134.487 41.656 134.797 42.411 135.101 43.1769L134.547 43.3971C135.132 44.8676 135.697 46.3786 136.243 47.9281L136.805 47.7301C137.073 48.4913 137.337 49.2617 137.595 50.0409L137.029 50.2285C137.53 51.7389 138.012 53.2832 138.475 54.8596L139.047 54.6916C139.273 55.4625 139.495 56.241 139.712 57.0269L139.138 57.1857C139.563 58.7245 139.97 60.292 140.359 61.8866L140.938 61.7455C141.129 62.5281 141.315 63.3172 141.496 64.1126L140.915 64.2453C141.271 65.8038 141.609 67.3867 141.929 68.9926L142.514 68.876C142.673 69.6716 142.827 70.4727 142.977 71.2792L142.39 71.388C142.682 72.9619 142.957 74.5567 143.214 76.1712L143.803 76.0775C143.929 76.8728 144.051 77.6728 144.169 78.4774L143.579 78.5638C143.812 80.1511 144.027 81.7563 144.225 83.3783L144.817 83.3062C144.915 84.1105 145.009 84.9188 145.098 85.7311L144.505 85.7963C144.681 87.3928 144.84 89.0046 144.981 90.6307L145.575 90.5791C145.645 91.3834 145.71 92.1911 145.772 93.0022L145.177 93.0471C145.299 94.6504 145.403 96.2668 145.49 97.8955L146.085 97.8637C146.129 98.6736 146.168 99.4865 146.203 100.302L145.607 100.328C145.675 101.936 145.727 103.555 145.761 105.185L146.358 105.172C146.375 105.979 146.387 106.789 146.396 107.601L145.8 107.608C145.808 108.418 145.813 109.23 145.813 110.045C145.813 110.86 145.808 111.672 145.8 112.482L146.396 112.488C146.387 113.3 146.375 114.11 146.358 114.917L145.761 114.905C145.727 116.534 145.675 118.154 145.607 119.762L146.203 119.787C146.168 120.603 146.129 121.416 146.085 122.226L145.49 122.194C145.403 123.823 145.299 125.439 145.177 127.043L145.772 127.087C145.71 127.899 145.645 128.706 145.575 129.511L144.981 129.459C144.84 131.085 144.681 132.697 144.505 134.293L145.098 134.359C145.009 135.171 144.915 135.979 144.817 136.783L144.225 136.711C144.027 138.333 143.812 139.939 143.579 141.526L144.169 141.612C144.051 142.417 143.929 143.217 143.803 144.012L143.214 143.918C142.957 145.533 142.682 147.128 142.39 148.702L142.977 148.81C142.827 149.617 142.673 150.418 142.514 151.214L141.929 151.097C141.609 152.703 141.271 154.286 140.915 155.844L141.496 155.977C141.315 156.772 141.129 157.562 140.938 158.344L140.359 158.203C139.97 159.798 139.563 161.365 139.138 162.904L139.712 163.063C139.495 163.849 139.273 164.627 139.047 165.398L138.475 165.23C138.012 166.806 137.53 168.351 137.029 169.861L137.595 170.049C137.337 170.828 137.073 171.598 136.805 172.36L136.243 172.161C135.697 173.711 135.132 175.222 134.547 176.692L135.101 176.913C134.797 177.679 134.487 178.434 134.173 179.178L133.624 178.945C132.982 180.462 132.32 181.931 131.639 183.351L132.176 183.609C131.819 184.353 131.456 185.083 131.089 185.8L130.558 185.528C129.804 186.997 129.029 188.407 128.233 189.756L128.746 190.059C128.326 190.77 127.901 191.464 127.47 192.141L126.967 191.821C126.075 193.222 125.16 194.547 124.223 195.794L124.699 196.152C124.204 196.81 123.703 197.447 123.196 198.062L122.736 197.683C121.679 198.964 120.598 200.147 119.494 201.225L119.911 201.652C119.319 202.231 118.72 202.781 118.114 203.301L117.726 202.849C116.468 203.929 115.186 204.876 113.883 205.684L114.197 206.191C113.495 206.626 112.787 207.022 112.072 207.378L111.806 206.844C110.351 207.569 108.873 208.122 107.374 208.497L107.519 209.075C106.728 209.273 105.93 209.423 105.127 209.523L105.053 208.932C104.273 209.029 103.487 209.078 102.697 209.078C101.906 209.078 101.12 209.029 100.34 208.932L100.266 209.523C99.463 209.423 98.6655 209.273 97.8743 209.075L98.019 208.497C96.5205 208.122 95.0419 207.569 93.5873 206.844L93.3215 207.378C92.6064 207.022 91.8979 206.626 91.1965 206.191L91.5106 205.684C90.2069 204.876 88.9248 203.929 87.6677 202.849L87.2791 203.301C86.6737 202.781 86.0746 202.231 85.4823 201.652L85.8991 201.225C84.7956 200.147 83.714 198.964 82.657 197.683L82.197 198.062C81.69 197.447 81.1889 196.81 80.694 196.152L81.1706 195.794C80.2337 194.547 79.3182 193.222 78.4261 191.821L77.9232 192.141C77.4922 191.464 77.0668 190.77 76.6472 190.059L77.1607 189.756C76.3645 188.407 75.5889 186.997 74.8352 185.528L74.3047 185.8C73.9368 185.083 73.5742 184.353 73.217 183.609L73.7545 183.351C73.0728 181.931 72.4108 180.462 71.7696 178.945L71.2204 179.178C70.9058 178.434 70.5963 177.679 70.2919 176.913L70.8459 176.692C70.2615 175.222 69.696 173.711 69.1503 172.161L68.5879 172.36C68.3199 171.598 68.0566 170.828 67.7983 170.049L68.3643 169.861C67.8636 168.351 67.3813 166.806 66.9183 165.23L66.3462 165.398C66.1198 164.627 65.898 163.849 65.6808 163.063L66.2555 162.904C65.8304 161.365 65.4232 159.798 65.0347 158.203L64.4554 158.344C64.2647 157.562 64.0785 156.772 63.8969 155.977L64.4781 155.844C64.1222 154.286 63.7839 152.703 63.4638 151.097L62.8791 151.214C62.7205 150.418 62.5664 149.617 62.4167 148.81L63.003 148.702C62.711 147.128 62.4363 145.533 62.1795 143.918L61.5907 144.012C61.4641 143.217 61.3419 142.417 61.2241 141.612L61.814 141.526C61.5815 139.939 61.3662 138.333 61.1684 136.711L60.5765 136.783C60.4784 135.979 60.3847 135.171 60.2953 134.359L60.888 134.293C60.7123 132.697 60.5536 131.085 60.4123 129.459L59.8183 129.511C59.7484 128.706 59.6828 127.899 59.6214 127.087L60.216 127.042C60.0947 125.439 59.9903 123.823 59.9032 122.194L59.3078 122.226C59.2645 121.416 59.2254 120.603 59.1907 119.787L59.7864 119.762C59.7179 118.154 59.6663 116.534 59.6318 114.905L59.0357 114.917C59.0187 114.11 59.0058 113.3 58.9973 112.488L59.5935 112.482C59.5849 111.672 59.5806 110.86 59.5806 110.045C59.5806 109.23 59.5849 108.418 59.5935 107.608L58.9973 107.601C59.0058 106.789 59.0187 105.979 59.0357 105.172L59.6318 105.185C59.6663 103.555 59.7179 101.936 59.7864 100.328L59.1907 100.302C59.2254 99.4865 59.2645 98.6736 59.3078 97.8636L59.9032 97.8955C59.9903 96.2668 60.0947 94.6504 60.216 93.0471L59.6214 93.0022C59.6828 92.1911 59.7484 91.3833 59.8183 90.5791L60.4123 90.6307C60.5536 89.0046 60.7123 87.3927 60.888 85.7963L60.2953 85.7311C60.3847 84.9188 60.4784 84.1104 60.5765 83.3062L61.1684 83.3783C61.3662 81.7563 61.5815 80.1511 61.814 78.5638L61.2241 78.4774C61.3419 77.6728 61.4641 76.8728 61.5907 76.0775L62.1795 76.1712C62.4363 74.5567 62.711 72.9619 63.003 71.388L62.4167 71.2792C62.5664 70.4727 62.7205 69.6716 62.8791 68.876L63.4638 68.9926C63.7839 67.3867 64.1222 65.8038 64.4781 64.2453L63.8969 64.1126C64.0785 63.3172 64.2647 62.5281 64.4554 61.7455L65.0347 61.8866C65.4232 60.292 65.8304 58.7245 66.2555 57.1857L65.6808 57.027C65.898 56.2411 66.1198 55.4625 66.3462 54.6916L66.9183 54.8596C67.3813 53.2832 67.8636 51.7389 68.3643 50.2286L67.7983 50.0409C68.0566 49.2617 68.3199 48.4913 68.5879 47.7301L69.1503 47.9281C69.696 46.3786 70.2615 44.8676 70.8459 43.3971L70.2919 43.1769C70.5963 42.411 70.9058 41.656 71.2204 40.9121L71.7696 41.1443C72.4108 39.628 73.0728 38.1587 73.7545 36.7388L73.217 36.4808C73.5742 35.7368 73.9368 35.0061 74.3047 34.2892L74.8352 34.5614C75.5889 33.0926 76.3645 31.6823 77.1607 30.3337L76.6472 30.0306C77.0668 29.3198 77.4922 28.6257 77.9232 27.9488L78.4261 28.269C79.3182 26.8679 80.2337 25.5423 81.1706 24.2959L80.694 23.9377C81.1889 23.2793 81.69 22.6425 82.197 22.0277L82.657 22.4071C83.714 21.1255 84.7956 19.9431 85.8991 18.8644L85.4823 18.438C86.0746 17.8591 86.6737 17.3091 87.2791 16.7888L87.6677 17.2411C88.9248 16.1609 90.2069 15.2137 91.5107 14.4056L91.1965 13.8988C91.898 13.464 92.6064 13.068 93.3215 12.7118L93.5873 13.2455C95.0419 12.521 96.5205 11.9675 98.019 11.5927L97.8743 11.0143Z" stroke="#136DC7" stroke-width="1.19247" stroke-dasharray="4.77 2.38"/>
<circle cx="53.818" cy="110.04" r="18.2067" fill="#1C87F1"/>
<circle cx="53.741" cy="110.214" r="16.0984" fill="#136DC7"/>
<circle cx="53.6193" cy="110.315" r="13.2365" fill="white"/>
<circle cx="132.012" cy="42.9755" r="24.2762" fill="#1C87F1"/>
<circle cx="132.045" cy="43.021" r="20.4295" fill="#136DC7"/>
<circle cx="132.083" cy="180.672" r="20.8683" fill="#1C87F1"/>
<circle cx="132.323" cy="180.673" r="18.0064" fill="#136DC7"/>
<circle cx="132.323" cy="180.673" r="13.952" fill="#FBFDFF"/>
<circle cx="72.5701" cy="39.974" r="11.2322" fill="#136DC7"/>
<circle cx="72.5559" cy="40.0564" r="9.51687" fill="#0096CF"/>
<circle cx="72.5776" cy="40.0789" r="8.10882" fill="white"/>
<circle cx="131.942" cy="42.9174" r="16.4791" fill="white"/>
<ellipse cx="150.209" cy="109.957" rx="13.475" ry="13.5942" fill="#1C87F1"/>
<circle cx="150.351" cy="109.98" r="11.2322" fill="#136DC7"/>
<circle cx="150.327" cy="110.197" r="9.53979" fill="#FBFDFF"/>
<g style="mix-blend-mode:multiply">
<g style="mix-blend-mode:multiply">
<path d="M148.353 43.0534C148.356 46.2986 147.397 49.472 145.596 52.1718C143.796 54.8717 141.235 56.9769 138.237 58.2209C135.24 59.465 131.941 59.792 128.758 59.1608C125.575 58.5295 122.65 56.9682 120.354 54.6744C118.059 52.3806 116.495 49.4575 115.861 46.2748C115.227 43.0921 115.551 39.7928 116.793 36.7944C118.034 33.7961 120.137 31.2333 122.836 29.4304C125.534 27.6275 128.707 26.6655 131.952 26.666C136.299 26.6667 140.468 28.3931 143.543 31.4657C146.619 34.5384 148.349 38.7062 148.353 43.0534Z" fill="#F9B233" fill-opacity="0.5"/>
</g>
<g style="mix-blend-mode:multiply">
<path d="M133.563 50.822H130.336V52.7413H133.563V50.822Z" fill="#F8BB94"/>
</g>
<g style="mix-blend-mode:multiply">
<path d="M130.521 52.2524C130.899 51.8769 131.4 51.651 131.932 51.6164C132.393 51.5831 133.179 51.6831 133.424 51.2025C133.458 51.1342 133.506 51.0736 133.565 51.0248V50.822H130.338V52.4885C130.393 52.4053 130.454 52.3264 130.521 52.2524Z" fill="#C6C6C6"/>
</g>
<g style="mix-blend-mode:multiply">
<path d="M140.028 44.6634C140.038 44.9596 139.96 45.2521 139.802 45.5034C139.645 45.7546 139.416 45.9531 139.145 46.0735C138.874 46.1938 138.574 46.2305 138.282 46.1788C137.99 46.1272 137.72 45.9895 137.507 45.7835C137.294 45.5775 137.147 45.3125 137.085 45.0226C137.024 44.7326 137.05 44.4308 137.161 44.156C137.272 43.8811 137.463 43.6456 137.708 43.4798C137.954 43.3139 138.244 43.2252 138.54 43.2251C138.732 43.2218 138.923 43.2563 139.102 43.3268C139.281 43.3973 139.444 43.5024 139.582 43.6359C139.72 43.7695 139.831 43.929 139.908 44.1053C139.984 44.2815 140.025 44.4712 140.028 44.6634Z" fill="#F8BB94"/>
</g>
<g style="mix-blend-mode:multiply">
<g style="mix-blend-mode:multiply">
<path d="M138.732 43.8581C138.766 43.8551 138.799 43.8551 138.832 43.8581C138.923 43.8594 139.012 43.8763 139.096 43.9081C139.225 43.9539 139.336 44.0394 139.413 44.1524C139.433 44.1854 139.452 44.2197 139.468 44.2551C139.482 44.2912 139.49 44.3301 139.502 44.369L139.515 44.4884C139.515 44.5273 139.515 44.5661 139.515 44.6078C139.508 44.6833 139.492 44.7578 139.468 44.8299C139.446 44.9008 139.415 44.9688 139.377 45.0326C139.311 45.1483 139.215 45.2442 139.099 45.3103C139.054 45.3358 139.007 45.3554 138.957 45.3686C138.919 45.3782 138.88 45.3847 138.841 45.388H138.741L138.832 45.3519C138.86 45.3519 138.893 45.3186 138.93 45.3019C138.968 45.277 139.004 45.2492 139.038 45.2186C139.077 45.1837 139.113 45.1446 139.143 45.102C139.178 45.0557 139.207 45.0054 139.229 44.9521C139.283 44.8367 139.316 44.7125 139.327 44.5856V44.4912V44.4023C139.327 44.3745 139.327 44.344 139.307 44.3162L139.274 44.2385C139.22 44.1445 139.144 44.0653 139.052 44.008C138.982 43.962 138.908 43.9238 138.83 43.8942C138.798 43.8792 138.766 43.8671 138.732 43.8581Z" fill="#DADADA"/>
</g>
</g>
<g style="mix-blend-mode:multiply">
<path d="M138.926 44.7329C138.919 44.7786 138.899 44.8214 138.868 44.8561C138.838 44.8909 138.798 44.9161 138.754 44.9289C138.709 44.9417 138.662 44.9415 138.618 44.9282C138.573 44.915 138.534 44.8893 138.504 44.8543C138.474 44.8192 138.454 44.7762 138.448 44.7305C138.441 44.6847 138.448 44.638 138.467 44.596C138.487 44.554 138.518 44.5184 138.557 44.4934C138.595 44.4684 138.641 44.4552 138.687 44.4552C138.755 44.4609 138.819 44.4932 138.863 44.5451C138.908 44.5971 138.93 44.6645 138.926 44.7329Z" fill="#DADADA"/>
</g>
<g style="mix-blend-mode:multiply">
<path d="M124.077 44.6633C124.067 44.9597 124.146 45.2523 124.303 45.5036C124.461 45.7549 124.69 45.9534 124.961 46.0737C125.232 46.194 125.533 46.2305 125.825 46.1786C126.117 46.1267 126.387 45.9888 126.6 45.7825C126.813 45.5762 126.959 45.311 127.021 45.0208C127.082 44.7307 127.055 44.4288 126.944 44.154C126.832 43.8792 126.641 43.6439 126.395 43.4784C126.149 43.3129 125.859 43.2246 125.563 43.225C125.175 43.2191 124.801 43.3672 124.522 43.6369C124.244 43.9065 124.084 44.2757 124.077 44.6633Z" fill="#F8BB94"/>
</g>
<g style="mix-blend-mode:multiply">
<g style="mix-blend-mode:multiply">
<path d="M125.369 43.8581C125.335 43.8551 125.302 43.8551 125.269 43.8581C125.18 43.8594 125.091 43.8763 125.008 43.9081C124.879 43.9539 124.768 44.0394 124.691 44.1524C124.671 44.1854 124.652 44.2197 124.636 44.2551C124.622 44.2912 124.611 44.3301 124.6 44.369V44.4884C124.6 44.5273 124.6 44.5661 124.6 44.6078C124.607 44.683 124.622 44.7574 124.644 44.8299C124.668 44.9003 124.698 44.9682 124.736 45.0326C124.802 45.1478 124.898 45.2435 125.013 45.3103C125.058 45.3364 125.107 45.356 125.158 45.3686C125.195 45.378 125.233 45.3845 125.272 45.388H125.369L125.28 45.3519C125.249 45.3519 125.219 45.3186 125.183 45.3019C125.144 45.2777 125.108 45.2498 125.074 45.2186C125.034 45.1844 124.999 45.1452 124.969 45.102C124.934 45.0552 124.904 45.005 124.88 44.9521C124.855 44.8952 124.834 44.8368 124.816 44.7771C124.797 44.7149 124.787 44.6505 124.786 44.5856V44.4912V44.4023C124.786 44.3745 124.786 44.344 124.805 44.3162C124.825 44.2885 124.825 44.2635 124.838 44.2385C124.891 44.1447 124.967 44.0655 125.058 44.008C125.128 43.9631 125.202 43.9249 125.28 43.8942C125.309 43.8801 125.338 43.868 125.369 43.8581Z" fill="#DADADA"/>
</g>
</g>
<g style="mix-blend-mode:multiply">
<path d="M125.18 44.7329C125.187 44.7793 125.206 44.823 125.237 44.8586C125.267 44.8942 125.308 44.9203 125.353 44.9337C125.398 44.9471 125.445 44.9473 125.49 44.9342C125.536 44.9211 125.576 44.8953 125.607 44.8599C125.637 44.8245 125.657 44.781 125.664 44.7346C125.671 44.6881 125.664 44.6407 125.645 44.598C125.625 44.5554 125.594 44.5192 125.554 44.4939C125.515 44.4685 125.469 44.4551 125.422 44.4552C125.353 44.4602 125.289 44.4922 125.244 44.5442C125.199 44.5962 125.176 44.6641 125.18 44.7329Z" fill="#DADADA"/>
</g>
<g style="mix-blend-mode:multiply">
<path d="M138.54 42.7701C138.54 47.6502 136.249 51.0777 131.952 51.0777C127.655 51.0777 125.369 47.6502 125.369 42.7701C125.369 37.89 127.747 33.932 132.035 33.932C136.324 33.932 138.54 37.8872 138.54 42.7701Z" fill="#F8BB94"/>
</g>
<g style="mix-blend-mode:multiply">
<path d="M130.402 52.6606C130.402 52.6606 126.308 53.2023 124.847 54.4744C123.386 55.7465 123.722 54.5161 123.184 57.0797L127.072 58.7462L131.933 59.5795L136.377 59.024L140.682 57.0797C140.143 54.5161 140.571 55.7715 139.074 54.4744C137.577 53.1773 133.519 52.6606 133.519 52.6606H130.402Z" fill="#F8BB94"/>
</g>
<g style="mix-blend-mode:multiply">
<path d="M128.83 52.9412C128.83 52.9412 126.308 53.2023 124.839 54.4744C123.739 55.2744 122.35 56.802 123.739 57.2187L125.545 58.1908L127.628 58.8852L129.711 59.3018L131.655 59.4407L134.155 59.3018L136.099 58.8852L137.766 58.4685L139.432 57.6353C141.515 56.802 140.563 55.7715 139.065 54.4744C137.568 53.1773 135.091 52.9439 135.091 52.9439L131.952 56.0575L128.83 52.9412Z" fill="#373C47"/>
</g>
<g style="mix-blend-mode:multiply">
<path d="M125.181 40.0829L125.419 44.0659L126.003 44.2298C125.489 37.7998 128.877 36.3277 128.877 36.3277L129.813 32.3031C128.978 32.2832 128.151 32.4857 127.419 32.8897C126.687 33.2938 126.076 33.885 125.647 34.6029C125.647 34.6029 124.592 35.6889 125.181 40.0829Z" fill="#432918"/>
</g>
<g style="mix-blend-mode:multiply">
<path d="M125.211 40.599C125.211 40.599 125.091 40.0962 124.988 39.3408C124.933 38.9602 124.883 38.5075 124.841 38.0464C124.822 37.8076 124.794 37.5631 124.78 37.3159C124.78 37.191 124.78 37.066 124.758 36.9382V36.8438V36.5355C124.765 36.3993 124.781 36.2637 124.808 36.1299C124.825 35.9942 124.855 35.8603 124.897 35.73C124.913 35.6661 124.93 35.6022 124.949 35.5383L125.022 35.355C125.069 35.2354 125.122 35.1185 125.183 35.005C125.238 34.8967 125.3 34.7919 125.369 34.6912C125.431 34.5952 125.497 34.5025 125.569 34.4134C125.694 34.2404 125.835 34.0787 125.988 33.9301C126.113 33.8029 126.245 33.6842 126.385 33.5746C126.508 33.4746 126.624 33.3996 126.719 33.3357C126.817 33.2702 126.92 33.2117 127.027 33.1608C126.738 33.4664 126.476 33.7952 126.241 34.144C126.188 34.219 126.135 34.2995 126.085 34.3857C126.029 34.4709 125.977 34.559 125.93 34.6495C125.876 34.7392 125.826 34.8319 125.783 34.9273C125.736 35.0273 125.686 35.1245 125.647 35.23C125.601 35.3337 125.563 35.4404 125.533 35.5494C125.495 35.6588 125.464 35.77 125.438 35.8827C125.408 35.9928 125.387 36.1052 125.374 36.2188C125.353 36.3343 125.341 36.4513 125.338 36.5688V36.7577V36.8299V36.9243C125.338 37.0493 125.338 37.1743 125.338 37.2993C125.338 37.5493 125.338 37.7965 125.338 38.0325C125.338 38.5103 125.338 38.9547 125.311 39.3352C125.286 40.0879 125.211 40.599 125.211 40.599Z" fill="#2A1807"/>
</g>
<g style="mix-blend-mode:multiply">
<path d="M128.486 36.5636C128.486 36.5636 130.519 40.0744 137.052 39.8966C137.052 39.8966 135.83 38.4523 136.438 37.7663C136.438 37.7635 130.114 34.7554 128.486 36.5636Z" fill="#C6C6C6"/>
</g>
<g style="mix-blend-mode:multiply">
<path d="M138.671 40.8636L138.424 44.8466L137.843 45.0105C138.354 38.5805 134.966 37.1112 134.966 37.1112L134.021 33.0866C134.857 33.0664 135.683 33.2685 136.415 33.672C137.147 34.0756 137.759 34.6662 138.188 35.3836C138.188 35.3836 139.257 36.4696 138.671 40.8636Z" fill="#432918"/>
</g>
<path d="M127.414 32.8957C127.414 32.8957 128.356 30.9819 131.725 30.4598C131.725 30.4598 137.335 29.7848 139.124 33.6789C139.124 33.6789 140.03 35.551 139.702 38.8507C139.702 38.8507 139.363 37.3647 138.444 36.8731C138.444 36.8731 138.288 38.6285 135.866 37.548C135.866 37.548 135.483 38.2674 136.327 39.5478C136.327 39.5478 128.486 39.5478 127.414 32.8957Z" fill="#432918"/>
<g style="mix-blend-mode:multiply">
<path d="M127.414 32.8958C127.492 32.7121 127.592 32.5386 127.711 32.3791C127.844 32.1913 127.995 32.0164 128.161 31.857C128.253 31.757 128.364 31.6709 128.475 31.5792C128.586 31.4876 128.717 31.3876 128.856 31.3015C129.149 31.0996 129.46 30.9257 129.786 30.7821C130.144 30.6173 130.516 30.4844 130.897 30.3849C131.094 30.321 131.303 30.2905 131.508 30.2432L131.666 30.2099L131.841 30.1877L132.164 30.1655C132.6 30.1405 133.038 30.1405 133.475 30.1655C133.911 30.1985 134.345 30.2569 134.774 30.3404C135.192 30.4257 135.601 30.5446 135.999 30.696C136.374 30.8372 136.735 31.0129 137.077 31.2209C137.383 31.4072 137.669 31.625 137.93 31.8709C138.15 32.0759 138.35 32.303 138.524 32.5486C138.659 32.7353 138.778 32.9332 138.88 33.1402C138.946 33.2708 139.004 33.4053 139.055 33.5429L139.11 33.6874L139.027 33.5568C138.971 33.4707 138.894 33.3457 138.78 33.1985C138.649 33.019 138.507 32.8492 138.352 32.6902C138.265 32.5926 138.172 32.4999 138.074 32.4125C137.965 32.3137 137.85 32.221 137.73 32.1347C137.462 31.9351 137.178 31.7586 136.88 31.607C136.546 31.441 136.201 31.2999 135.847 31.1848C135.465 31.0679 135.076 30.9751 134.683 30.9071C134.274 30.833 133.861 30.7829 133.447 30.7571C133.033 30.7266 132.617 30.7182 132.203 30.7321L131.9 30.746H131.764L131.614 30.771C131.416 30.8071 131.216 30.8237 131.03 30.8737C130.663 30.9516 130.301 31.0537 129.947 31.1793L129.7 31.2709C129.619 31.3042 129.542 31.3376 129.467 31.3737C129.316 31.4353 129.168 31.5048 129.025 31.582C128.774 31.7175 128.532 31.8706 128.303 32.0403C128.124 32.1713 127.955 32.3152 127.797 32.4708C127.694 32.5711 127.596 32.6778 127.506 32.7902C127.473 32.8238 127.443 32.859 127.414 32.8958Z" fill="#2A1807"/>
</g>
</g>
<g style="mix-blend-mode:multiply">
<g style="mix-blend-mode:multiply">
<path d="M150.403 119.713C155.695 119.713 159.985 115.423 159.985 110.131C159.985 104.838 155.695 100.548 150.403 100.548C145.111 100.548 140.82 104.838 140.82 110.131C140.82 115.423 145.111 119.713 150.403 119.713Z" fill="#F08046" fill-opacity="0.5"/>
</g>
<g style="mix-blend-mode:multiply">
<path d="M151.348 114.667H149.463V115.788H151.348V114.667Z" fill="#F8BB94"/>
</g>
<g style="mix-blend-mode:multiply">
<path d="M149.57 115.504C149.791 115.285 150.083 115.153 150.394 115.133C150.663 115.113 151.122 115.17 151.267 114.89C151.286 114.85 151.314 114.815 151.348 114.787V114.667H149.463V115.641C149.494 115.592 149.53 115.546 149.57 115.504Z" fill="#C6C6C6"/>
</g>
<g style="mix-blend-mode:multiply">
<path d="M155.121 111.07C155.127 111.244 155.081 111.415 154.99 111.562C154.898 111.708 154.764 111.825 154.606 111.895C154.448 111.966 154.272 111.987 154.102 111.957C153.931 111.927 153.773 111.847 153.649 111.727C153.524 111.607 153.438 111.452 153.402 111.282C153.366 111.113 153.381 110.937 153.446 110.776C153.511 110.615 153.622 110.478 153.766 110.381C153.909 110.284 154.078 110.232 154.252 110.232C154.364 110.23 154.475 110.25 154.58 110.291C154.684 110.332 154.78 110.393 154.86 110.471C154.941 110.549 155.006 110.642 155.05 110.745C155.095 110.848 155.119 110.958 155.121 111.07Z" fill="#F8BB94"/>
</g>
<g style="mix-blend-mode:multiply">
<g style="mix-blend-mode:multiply">
<path d="M154.368 110.605C154.388 110.603 154.407 110.603 154.427 110.605C154.48 110.606 154.532 110.616 154.581 110.635C154.656 110.662 154.72 110.711 154.766 110.777C154.779 110.796 154.787 110.817 154.798 110.838C154.81 110.859 154.813 110.882 154.819 110.905V110.974C154.819 110.997 154.819 111.02 154.819 111.043C154.815 111.087 154.806 111.131 154.792 111.174C154.779 111.215 154.761 111.255 154.738 111.292C154.701 111.361 154.644 111.417 154.576 111.454C154.549 111.47 154.521 111.482 154.492 111.49L154.425 111.502H154.365L154.419 111.479C154.435 111.479 154.454 111.461 154.476 111.45C154.497 111.435 154.519 111.419 154.539 111.403C154.561 111.382 154.582 111.359 154.6 111.334C154.62 111.307 154.637 111.278 154.651 111.247C154.666 111.214 154.679 111.18 154.688 111.145C154.699 111.108 154.705 111.071 154.707 111.033V110.978V110.924C154.707 110.908 154.707 110.892 154.696 110.875C154.685 110.859 154.685 110.843 154.677 110.828C154.645 110.774 154.601 110.727 154.547 110.694C154.506 110.668 154.462 110.646 154.417 110.627L154.368 110.605Z" fill="#DADADA"/>
</g>
</g>
<g style="mix-blend-mode:multiply">
<path d="M154.479 111.112C154.476 111.139 154.464 111.165 154.446 111.185C154.429 111.206 154.405 111.221 154.379 111.229C154.353 111.237 154.325 111.237 154.298 111.23C154.272 111.222 154.248 111.207 154.23 111.186C154.212 111.165 154.201 111.14 154.197 111.113C154.193 111.086 154.197 111.058 154.208 111.033C154.22 111.008 154.238 110.987 154.261 110.972C154.284 110.957 154.311 110.95 154.338 110.95C154.378 110.955 154.414 110.974 154.44 111.004C154.466 111.034 154.48 111.072 154.479 111.112Z" fill="#DADADA"/>
</g>
<g style="mix-blend-mode:multiply">
<path d="M145.807 111.07C145.801 111.244 145.847 111.415 145.938 111.562C146.03 111.708 146.164 111.825 146.322 111.895C146.48 111.966 146.656 111.987 146.826 111.957C146.997 111.927 147.155 111.847 147.28 111.727C147.404 111.607 147.49 111.452 147.526 111.282C147.562 111.113 147.547 110.937 147.482 110.776C147.417 110.615 147.306 110.478 147.163 110.381C147.019 110.284 146.85 110.232 146.677 110.232C146.564 110.23 146.453 110.25 146.348 110.291C146.244 110.332 146.149 110.393 146.068 110.471C145.987 110.549 145.923 110.642 145.878 110.745C145.833 110.848 145.809 110.958 145.807 111.07Z" fill="#F8BB94"/>
</g>
<g style="mix-blend-mode:multiply">
<g style="mix-blend-mode:multiply">
<path d="M146.561 110.601C146.541 110.599 146.521 110.599 146.501 110.601C146.448 110.603 146.397 110.613 146.348 110.632C146.273 110.658 146.209 110.708 146.163 110.773C146.15 110.792 146.142 110.813 146.131 110.834C146.123 110.856 146.116 110.878 146.111 110.901V110.971C146.111 110.993 146.111 111.016 146.111 111.039C146.116 111.084 146.125 111.128 146.139 111.17C146.152 111.212 146.17 111.252 146.192 111.289C146.231 111.356 146.287 111.413 146.355 111.451C146.381 111.467 146.409 111.479 146.439 111.487L146.505 111.498H146.565L146.512 111.475C146.492 111.467 146.473 111.457 146.455 111.446C146.433 111.432 146.412 111.416 146.392 111.399C146.369 111.379 146.348 111.356 146.33 111.331C146.311 111.303 146.293 111.274 146.278 111.243C146.264 111.21 146.252 111.176 146.241 111.141C146.232 111.104 146.226 111.067 146.223 111.029V110.974V110.92C146.223 110.904 146.231 110.888 146.235 110.872C146.259 110.795 146.312 110.73 146.382 110.69C146.424 110.665 146.467 110.643 146.512 110.624L146.561 110.601Z" fill="#DADADA"/>
</g>
</g>
<g style="mix-blend-mode:multiply">
<path d="M146.45 111.112C146.453 111.139 146.465 111.165 146.483 111.185C146.5 111.206 146.524 111.221 146.55 111.229C146.576 111.237 146.604 111.237 146.631 111.23C146.657 111.222 146.681 111.207 146.699 111.186C146.717 111.165 146.728 111.14 146.732 111.113C146.736 111.086 146.732 111.058 146.721 111.033C146.709 111.008 146.691 110.987 146.668 110.972C146.645 110.957 146.618 110.95 146.591 110.95C146.55 110.953 146.513 110.971 146.487 111.002C146.46 111.032 146.447 111.072 146.45 111.112Z" fill="#DADADA"/>
</g>
<g style="mix-blend-mode:multiply">
<path d="M154.253 109.962C154.253 112.812 152.915 114.815 150.405 114.815C147.895 114.815 146.555 112.812 146.555 109.962C146.555 107.111 147.944 104.799 150.449 104.799C152.954 104.799 154.253 107.113 154.253 109.962Z" fill="#F8BB94"/>
</g>
<g style="mix-blend-mode:multiply">
<path d="M148.225 115.983C148.225 115.983 148.483 115.875 147.539 116.173C147.799 118.523 147.348 119.296 147.348 119.296L148.736 119.712L150.354 119.851L152.069 119.712L153.542 119.296C152.944 117.303 153.542 116.271 153.542 116.271L152.971 116.063C152.971 116.063 152.919 118.925 150.354 118.727C150.365 118.727 148.144 118.944 148.225 115.983Z" fill="#00B1C3"/>
</g>
<g style="mix-blend-mode:multiply">
<path d="M149.092 104.707C149.092 104.707 146.334 104.801 145.805 109.162C145.805 109.162 145.291 112.752 147.032 115.814C147.838 115.704 148.654 115.681 149.466 115.744V114.711C149.466 114.711 146.855 114.253 146.888 110.846C146.888 110.846 146.905 106.91 148.908 106.162L149.092 104.707Z" fill="#732400"/>
</g>
<g style="mix-blend-mode:multiply">
<path d="M151.717 104.707C151.717 104.707 154.843 104.66 155.372 109.02C155.372 109.02 155.643 111.94 153.777 115.816C152.971 115.707 152.155 115.683 151.344 115.747V114.713C151.344 114.713 153.954 114.254 153.92 110.847C153.92 110.847 153.904 106.91 151.9 106.162L151.717 104.707Z" fill="#732400"/>
</g>
<path d="M147.984 105.816C148.596 106.683 149.424 107.376 150.385 107.825C151.347 108.275 152.409 108.466 153.466 108.38L154.197 110.236L154.919 110.536C154.919 110.536 156.014 110.231 154.878 105.816C154.878 105.816 153.705 102.586 149.465 103.545C149.462 103.545 147.35 103.928 147.984 105.816Z" fill="#732400"/>
<g style="mix-blend-mode:multiply">
<path d="M149.5 115.741C149.5 115.741 147.11 116.065 146.255 116.802C145.4 117.539 145.58 116.826 145.266 118.324L146.255 118.879L147.627 119.435L149.015 119.713H150.404H151.793L153.182 119.435L154.566 118.879L155.681 118.185C155.367 116.687 155.44 117.56 154.566 116.802C153.691 116.044 151.321 115.741 151.321 115.741H149.5Z" fill="#F8BB94"/>
</g>
</g>
<g style="mix-blend-mode:multiply">
<g style="mix-blend-mode:saturation">
<path d="M146.348 180.665C146.348 183.437 145.526 186.146 143.986 188.451C142.447 190.755 140.258 192.551 137.697 193.612C135.137 194.672 132.319 194.95 129.601 194.409C126.882 193.868 124.385 192.533 122.426 190.573C120.466 188.613 119.132 186.116 118.591 183.398C118.051 180.679 118.329 177.862 119.39 175.301C120.451 172.741 122.247 170.552 124.552 169.013C126.857 167.473 129.566 166.652 132.338 166.652C136.054 166.653 139.617 168.13 142.245 170.757C144.872 173.385 146.348 176.949 146.348 180.665Z" fill="#E74645" fill-opacity="0.5"/>
</g>
<g style="mix-blend-mode:multiply">
<path d="M133.59 187.325H130.836V188.964H133.59V187.325Z" fill="#F8BB94"/>
</g>
<g style="mix-blend-mode:multiply">
<path d="M130.992 188.549C131.315 188.228 131.743 188.035 132.197 188.008C132.591 187.977 133.262 188.062 133.471 187.652C133.5 187.594 133.54 187.542 133.59 187.5V187.325H130.836V188.748C130.883 188.678 130.935 188.611 130.992 188.549Z" fill="#C6C6C6"/>
</g>
<g style="mix-blend-mode:multiply">
<path d="M139.114 182.064C139.123 182.318 139.056 182.568 138.922 182.783C138.788 182.998 138.593 183.167 138.361 183.271C138.13 183.374 137.873 183.406 137.624 183.362C137.374 183.318 137.143 183.2 136.961 183.025C136.779 182.849 136.653 182.622 136.6 182.375C136.547 182.127 136.57 181.869 136.665 181.634C136.759 181.399 136.922 181.198 137.132 181.056C137.342 180.914 137.589 180.838 137.843 180.838C138.174 180.832 138.494 180.958 138.732 181.188C138.971 181.418 139.108 181.733 139.114 182.064Z" fill="#F8BB94"/>
</g>
<g style="mix-blend-mode:multiply">
<g style="mix-blend-mode:multiply">
<path d="M138.004 181.385C138.032 181.383 138.061 181.383 138.089 181.385C138.166 181.388 138.242 181.403 138.315 181.43C138.425 181.469 138.519 181.542 138.585 181.639C138.602 181.665 138.616 181.695 138.632 181.726L138.661 181.824L138.673 181.926C138.673 181.959 138.673 181.992 138.673 182.028C138.666 182.092 138.653 182.156 138.632 182.217C138.613 182.278 138.586 182.336 138.554 182.39C138.497 182.489 138.415 182.571 138.317 182.628C138.279 182.649 138.238 182.666 138.196 182.677L138.096 182.694H138.011L138.089 182.661C138.118 182.648 138.146 182.634 138.172 182.618C138.205 182.599 138.236 182.575 138.265 182.549C138.298 182.52 138.329 182.486 138.355 182.45C138.384 182.41 138.409 182.367 138.428 182.322C138.452 182.274 138.47 182.224 138.483 182.172C138.498 182.119 138.508 182.064 138.511 182.009V181.928V181.852C138.511 181.826 138.511 181.802 138.493 181.778C138.474 181.755 138.476 181.733 138.466 181.712C138.42 181.631 138.355 181.563 138.277 181.513C138.217 181.475 138.153 181.443 138.087 181.418C138.06 181.404 138.033 181.393 138.004 181.385Z" fill="#DADADA"/>
</g>
</g>
<g style="mix-blend-mode:multiply">
<path d="M138.168 182.128C138.162 182.167 138.145 182.203 138.119 182.233C138.094 182.262 138.06 182.284 138.022 182.295C137.984 182.306 137.944 182.306 137.906 182.295C137.868 182.284 137.834 182.262 137.808 182.232C137.783 182.203 137.766 182.166 137.76 182.127C137.754 182.088 137.76 182.048 137.776 182.012C137.792 181.976 137.818 181.946 137.851 181.924C137.884 181.903 137.922 181.891 137.962 181.891C138.021 181.895 138.075 181.922 138.114 181.967C138.153 182.011 138.172 182.069 138.168 182.128Z" fill="#DADADA"/>
</g>
<g style="mix-blend-mode:multiply">
<path d="M125.487 182.066C125.478 182.319 125.545 182.57 125.679 182.785C125.814 183 126.009 183.169 126.24 183.273C126.472 183.376 126.729 183.407 126.979 183.363C127.228 183.319 127.459 183.202 127.641 183.025C127.823 182.849 127.949 182.623 128.001 182.375C128.054 182.127 128.031 181.869 127.936 181.634C127.841 181.399 127.678 181.198 127.468 181.057C127.257 180.915 127.01 180.84 126.756 180.84C126.425 180.835 126.106 180.961 125.868 181.191C125.63 181.421 125.493 181.735 125.487 182.066Z" fill="#F8BB94"/>
</g>
<g style="mix-blend-mode:multiply">
<g style="mix-blend-mode:multiply">
<path d="M126.591 181.385C126.562 181.383 126.534 181.383 126.505 181.385C126.429 181.388 126.354 181.404 126.282 181.43C126.172 181.469 126.078 181.542 126.012 181.639C125.993 181.666 125.977 181.696 125.964 181.727C125.953 181.757 125.943 181.791 125.934 181.824V181.926C125.934 181.959 125.934 181.992 125.934 182.028C125.939 182.092 125.952 182.156 125.972 182.218C125.992 182.278 126.019 182.335 126.05 182.391C126.107 182.489 126.189 182.571 126.287 182.628C126.326 182.65 126.367 182.667 126.41 182.678L126.508 182.694H126.591L126.515 182.661C126.455 182.63 126.4 182.589 126.353 182.54C126.319 182.511 126.289 182.477 126.263 182.44C126.234 182.4 126.209 182.357 126.187 182.312C126.166 182.264 126.148 182.214 126.133 182.163C126.117 182.11 126.108 182.055 126.104 181.999V181.919V181.843C126.104 181.817 126.104 181.793 126.121 181.769C126.138 181.746 126.138 181.724 126.149 181.703C126.195 181.622 126.259 181.554 126.337 181.504C126.397 181.466 126.46 181.434 126.527 181.409C126.547 181.4 126.569 181.392 126.591 181.385Z" fill="#DADADA"/>
</g>
</g>
<g style="mix-blend-mode:multiply">
<path d="M126.43 182.128C126.436 182.167 126.452 182.205 126.479 182.235C126.505 182.266 126.539 182.288 126.577 182.299C126.616 182.311 126.657 182.311 126.695 182.3C126.734 182.288 126.768 182.266 126.794 182.236C126.821 182.206 126.838 182.169 126.844 182.129C126.849 182.089 126.843 182.049 126.827 182.013C126.81 181.976 126.783 181.945 126.75 181.924C126.716 181.902 126.677 181.89 126.637 181.891C126.578 181.895 126.523 181.922 126.484 181.967C126.446 182.011 126.426 182.069 126.43 182.128Z" fill="#DADADA"/>
</g>
<g style="mix-blend-mode:multiply">
<path d="M137.843 180.448C137.843 184.619 135.888 187.547 132.215 187.547C128.542 187.547 126.592 184.619 126.592 180.448C126.592 176.277 128.623 172.9 132.286 172.9C135.95 172.9 137.843 176.279 137.843 180.448Z" fill="#F8BB94"/>
</g>
<g style="mix-blend-mode:multiply">
<path d="M130.891 188.898C130.891 188.898 127.394 189.361 126.146 190.448C124.898 191.534 125.033 190.154 124.572 192.343L126.378 193.316L128.183 194.01L129.711 194.427L130.266 194.566L132.21 194.704L134.155 194.566L136.238 194.149L138.043 193.454L139.849 192.482C139.381 190.283 139.57 191.556 138.289 190.448C137.008 189.34 133.544 188.898 133.544 188.898H130.891Z" fill="#F8BB94"/>
</g>
<g style="mix-blend-mode:multiply">
<path d="M135.233 189.216C136.308 189.453 137.617 189.866 138.289 190.448C139.57 191.556 139.154 190.816 139.849 192.482L138.289 193.454L136.377 194.149L134.294 194.565L132.21 194.704L130.127 194.565L128.044 194.01L126.378 193.316L124.572 192.35C125.406 190.677 124.857 191.556 126.138 190.448C126.829 189.85 128.196 189.442 129.285 189.195L132.215 192.35L135.233 189.216Z" fill="#881719"/>
</g>
<g style="mix-blend-mode:multiply">
<path d="M130.294 172.761C130.294 172.761 126.261 172.899 125.487 179.274C125.487 179.274 125.338 184.753 125.338 191.23C125.338 191.23 126.261 189.609 130.835 188.905V187.391C130.835 187.391 127.02 186.719 127.065 181.732C127.065 181.732 127.091 175.974 130.019 174.882L130.294 172.761Z" fill="#432918"/>
</g>
<g style="mix-blend-mode:multiply">
<path d="M134.135 172.763C134.135 172.763 138.717 172.526 139.488 178.908C139.488 178.908 139.578 184.567 139.115 191.296C139.115 191.296 137.844 189.481 133.592 188.906V187.393C133.592 187.393 137.407 186.721 137.357 181.734C137.357 181.734 137.333 175.975 134.403 174.884L134.135 172.763Z" fill="#432918"/>
</g>
<path d="M131.588 178.908L132.157 176.06V178.908H134.985L135.46 176.898L135.935 178.908H139.479C139.478 177.674 139.354 176.443 139.107 175.235C139.107 175.235 138.158 170.791 131.514 171.185C131.514 171.185 125.908 171.185 125.502 178.908H131.588Z" fill="#432918"/>
</g>
<g style="mix-blend-mode:multiply">
<g style="mix-blend-mode:multiply">
<path d="M66.9377 110.269C66.9377 112.906 66.1557 115.484 64.6908 117.676C63.2258 119.869 61.1437 121.578 58.7075 122.587C56.2714 123.596 53.5908 123.86 51.0046 123.345C48.4184 122.831 46.0429 121.561 44.1783 119.697C42.3138 117.832 41.044 115.457 40.5296 112.87C40.0152 110.284 40.2792 107.604 41.2883 105.167C42.2974 102.731 44.0062 100.649 46.1986 99.1841C48.3911 97.7192 50.9687 96.9373 53.6056 96.9373C57.1414 96.9373 60.5325 98.3419 63.0328 100.842C65.533 103.342 66.9377 106.733 66.9377 110.269Z" fill="#E74645" fill-opacity="0.5"/>
</g>
<g style="mix-blend-mode:multiply">
<path d="M55.214 116.566H52.5918V118.125H55.214V116.566Z" fill="#F8BB94"/>
</g>
<g style="mix-blend-mode:multiply">
<path d="M54.2527 117.914C53.7021 117.741 53.2417 117.395 53.1718 116.786C53.1631 116.71 53.1708 116.633 53.1943 116.56H52.5918V118.12H55.214V117.923C54.899 118.01 54.5661 118.007 54.2527 117.914Z" fill="#DADADA"/>
</g>
<g style="mix-blend-mode:multiply">
<path d="M60.4652 111.561C60.4738 111.802 60.4102 112.04 60.2826 112.244C60.155 112.449 59.9692 112.611 59.749 112.709C59.5289 112.807 59.2845 112.837 59.0471 112.795C58.8097 112.754 58.5902 112.642 58.4167 112.475C58.2432 112.307 58.1237 112.092 58.0735 111.856C58.0232 111.62 58.0445 111.375 58.1347 111.152C58.2248 110.928 58.3797 110.736 58.5794 110.602C58.7792 110.467 59.0147 110.395 59.2557 110.394C59.4118 110.391 59.5669 110.419 59.7122 110.476C59.8575 110.533 59.9901 110.618 60.1025 110.727C60.2148 110.835 60.3047 110.965 60.3669 111.108C60.4292 111.251 60.4626 111.405 60.4652 111.561Z" fill="#F8BB94"/>
</g>
<g style="mix-blend-mode:multiply">
<g style="mix-blend-mode:multiply">
<path d="M59.4141 110.91C59.4411 110.908 59.4683 110.908 59.4953 110.91C59.5725 110.911 59.6489 110.925 59.721 110.953C59.8255 110.989 59.9157 111.058 59.9782 111.149C59.9963 111.176 60.0076 111.206 60.0234 111.233C60.0392 111.26 60.0414 111.296 60.0504 111.328V111.425C60.0504 111.456 60.0504 111.488 60.0504 111.519C60.0444 111.581 60.0315 111.643 60.0121 111.702C59.9937 111.759 59.9687 111.814 59.9376 111.865C59.8848 111.959 59.8066 112.037 59.7119 112.09C59.6748 112.111 59.6355 112.127 59.5946 112.138C59.5637 112.147 59.5319 112.152 59.4998 112.153H59.4186L59.493 112.124C59.5179 112.124 59.5427 112.097 59.572 112.083C59.6026 112.063 59.6319 112.041 59.66 112.018C59.6909 111.989 59.7195 111.957 59.7458 111.923C59.773 111.885 59.7972 111.844 59.818 111.801C59.8373 111.754 59.8538 111.706 59.8677 111.657C59.8838 111.607 59.8929 111.554 59.8947 111.501V111.427V111.352C59.8947 111.33 59.8834 111.307 59.8767 111.282C59.8696 111.261 59.8605 111.239 59.8496 111.219C59.8081 111.143 59.7475 111.078 59.6736 111.032C59.6155 110.996 59.5543 110.965 59.4908 110.939L59.4141 110.91Z" fill="#DADADA"/>
</g>
</g>
<g style="mix-blend-mode:multiply">
<path d="M59.5643 111.617C59.5587 111.654 59.5425 111.689 59.5177 111.717C59.4929 111.745 59.4606 111.766 59.4244 111.776C59.3883 111.787 59.35 111.786 59.314 111.776C59.278 111.765 59.2458 111.744 59.2213 111.715C59.1968 111.687 59.181 111.652 59.1757 111.615C59.1705 111.578 59.1761 111.54 59.1917 111.506C59.2074 111.471 59.2326 111.442 59.2642 111.422C59.2958 111.402 59.3326 111.391 59.3702 111.391C59.4255 111.396 59.4766 111.423 59.5128 111.465C59.549 111.507 59.5674 111.561 59.5643 111.617Z" fill="#DADADA"/>
</g>
<g style="mix-blend-mode:multiply">
<path d="M47.5047 111.561C47.4961 111.802 47.5597 112.04 47.6873 112.244C47.815 112.449 48.0007 112.611 48.2209 112.709C48.441 112.807 48.6854 112.837 48.9228 112.795C49.1602 112.754 49.3797 112.642 49.5532 112.475C49.7267 112.307 49.8462 112.092 49.8965 111.856C49.9467 111.62 49.9254 111.375 49.8352 111.152C49.7451 110.928 49.5902 110.736 49.3905 110.602C49.1907 110.467 48.9553 110.395 48.7142 110.394C48.5582 110.391 48.403 110.419 48.2577 110.476C48.1124 110.533 47.9798 110.618 47.8674 110.727C47.7551 110.835 47.6652 110.965 47.603 111.108C47.5407 111.251 47.5073 111.405 47.5047 111.561Z" fill="#F8BB94"/>
</g>
<g style="mix-blend-mode:multiply">
<g style="mix-blend-mode:multiply">
<path d="M48.5587 110.91C48.5309 110.908 48.503 110.908 48.4752 110.91C48.4026 110.912 48.3309 110.927 48.2631 110.953C48.1585 110.989 48.0683 111.058 48.0058 111.149C47.9878 111.176 47.9765 111.206 47.9607 111.233C47.9496 111.264 47.9405 111.295 47.9336 111.328V111.425C47.9336 111.456 47.9336 111.488 47.9336 111.519C47.94 111.581 47.9521 111.642 47.9697 111.702C47.9879 111.759 48.0137 111.814 48.0464 111.865C48.0993 111.959 48.1774 112.037 48.2721 112.09C48.309 112.111 48.3484 112.127 48.3894 112.138C48.4196 112.146 48.4506 112.152 48.482 112.153H48.5655L48.491 112.124C48.4684 112.124 48.4413 112.097 48.412 112.083C48.3811 112.064 48.3517 112.042 48.324 112.018C48.2925 111.989 48.2638 111.957 48.2382 111.923C48.2101 111.886 48.1867 111.845 48.1683 111.801C48.1465 111.755 48.1284 111.706 48.1141 111.657C48.1013 111.606 48.0922 111.554 48.087 111.501V111.427V111.352C48.0936 111.329 48.0989 111.306 48.1028 111.282C48.1028 111.262 48.1186 111.239 48.1299 111.219C48.1736 111.143 48.2347 111.079 48.3082 111.032C48.3658 110.996 48.4262 110.965 48.4887 110.939L48.5587 110.91Z" fill="#DADADA"/>
</g>
</g>
<g style="mix-blend-mode:multiply">
<path d="M48.4028 111.617C48.4084 111.654 48.4246 111.689 48.4494 111.717C48.4742 111.745 48.5066 111.766 48.5427 111.776C48.5788 111.787 48.6171 111.786 48.6531 111.776C48.6891 111.765 48.7213 111.744 48.7458 111.715C48.7703 111.687 48.7861 111.652 48.7914 111.615C48.7966 111.578 48.7911 111.54 48.7754 111.506C48.7597 111.471 48.7345 111.442 48.7029 111.422C48.6713 111.402 48.6345 111.391 48.5969 111.391C48.5414 111.396 48.4899 111.422 48.4536 111.464C48.4173 111.506 48.3991 111.561 48.4028 111.617Z" fill="#DADADA"/>
</g>
<g style="mix-blend-mode:multiply">
<path d="M59.2582 110.022C59.2582 113.988 57.3981 116.773 53.9036 116.773C50.4092 116.773 48.5469 113.988 48.5469 110.022C48.5469 106.055 50.4792 102.839 53.9646 102.839C57.45 102.839 59.2582 106.055 59.2582 110.022Z" fill="#F8BB94"/>
</g>
<g style="mix-blend-mode:multiply">
<path d="M52.6441 118.061C52.6441 118.061 49.319 118.512 48.1293 119.535C46.9397 120.557 47.2368 119.715 46.7988 121.799L48.6042 122.771L50.4096 123.187L52.0761 123.585H54.0204H55.8258L57.9089 123.048L59.4366 122.354L60.9642 121.382C60.5263 119.298 60.9084 120.591 59.6917 119.535C58.4749 118.478 55.1769 118.061 55.1769 118.061H52.6441Z" fill="#F8BB94"/>
</g>
<g style="mix-blend-mode:multiply">
<path d="M51.6396 118.232C51.6396 118.232 49.319 118.501 48.1225 119.535C46.9261 120.569 47.2368 119.715 46.7988 121.798L49.993 123.048L51.9372 123.585H54.0204H55.9647L57.7701 123.048L59.4366 122.354L60.9642 121.382C60.5263 119.298 60.9084 120.582 59.6849 119.535C58.6736 118.672 56.4026 118.28 56.4026 118.28L55.1611 118.054H52.6441L51.6396 118.232Z" fill="white"/>
</g>
<g style="mix-blend-mode:multiply">
<path d="M53.2805 120.087C53.2919 120.07 53.3065 120.054 53.3234 120.042L53.2805 120.087L52.8516 123.584H54.9554L54.5265 120.087L54.8223 118.884C54.8802 118.802 54.9137 118.704 54.9189 118.604C54.9241 118.503 54.9008 118.403 54.8516 118.315C54.8089 118.243 54.7521 118.179 54.6847 118.129C54.6173 118.078 54.5405 118.042 54.4588 118.022C54.1947 117.979 53.9261 117.969 53.6597 117.995C53.546 117.978 53.4299 117.99 53.3219 118.029C53.2139 118.069 53.1175 118.134 53.0412 118.22C52.9592 118.309 52.9103 118.423 52.9024 118.543C52.8946 118.664 52.9285 118.783 52.9983 118.882L53.2805 120.087Z" fill="#E74645"/>
</g>
<g style="mix-blend-mode:multiply">
<path d="M53.2422 119.9C53.2422 119.9 54.1133 119.492 54.5307 120.087C54.3378 119.991 54.1249 119.94 53.909 119.94C53.6931 119.94 53.4802 119.991 53.2873 120.087L53.2422 119.9Z" fill="#C6C6C6"/>
</g>
<g style="mix-blend-mode:multiply">
<path d="M51.6396 118.232C51.6396 118.232 49.319 118.5 48.1225 119.534C46.9261 120.568 47.2368 119.714 46.7988 121.798L48.6042 122.77L50.2707 123.187L52.0761 123.584H53.9037L55.8258 123.442L57.7701 123.048L59.4366 122.353L60.9642 121.381C60.5263 119.298 60.9084 120.582 59.6849 119.534C58.6736 118.672 56.4026 118.279 56.4026 118.279L53.9037 123.442L51.6396 118.232Z" fill="#0D3953"/>
</g>
<g style="mix-blend-mode:multiply">
<path d="M51.6617 118.268L53.8942 123.442L51.5195 121.909L52.0545 120.99L49.4043 118.799C49.4043 118.799 50.9145 118.216 51.6617 118.268Z" fill="#031D2D"/>
</g>
<g style="mix-blend-mode:multiply">
<path d="M56.4032 118.279L53.9043 123.441L56.2768 121.908L55.7441 120.99L58.3987 118.798C58.3987 118.798 57.1594 118.227 56.4032 118.279Z" fill="#031D2D"/>
</g>
<g style="mix-blend-mode:multiply">
<path d="M51.1719 118.277L53.1803 119.676L53.0133 118.977L51.1719 118.277Z" fill="#B2B2B2"/>
</g>
<g style="mix-blend-mode:multiply">
<path d="M56.8213 118.301L54.6211 119.703L54.8129 118.888L56.8213 118.301Z" fill="#B2B2B2"/>
</g>
<g style="mix-blend-mode:multiply">
<path d="M52.5913 117.597L51.1719 118.276L52.8508 119.278L54.0243 117.983L52.5913 117.597Z" fill="white"/>
</g>
<g style="mix-blend-mode:multiply">
<path d="M52.5651 118.094C52.6623 117.996 52.778 117.918 52.9055 117.866C53.033 117.814 53.1697 117.788 53.3076 117.789L52.5854 117.597L51.166 118.274L52.4343 119.03C52.3455 118.883 52.3101 118.709 52.3339 118.539C52.3577 118.368 52.4394 118.211 52.5651 118.094Z" fill="#DADADA"/>
</g>
<g style="mix-blend-mode:multiply">
<path d="M55.431 117.597L56.8505 118.276L55.1715 119.278L53.998 117.983L55.431 117.597Z" fill="white"/>
</g>
<g style="mix-blend-mode:multiply">
<path d="M55.4534 118.094C55.3561 117.996 55.2403 117.919 55.1129 117.866C54.9854 117.814 54.8487 117.788 54.7109 117.789L55.4331 117.597L56.8502 118.274L55.5843 119.03C55.6722 118.882 55.7071 118.709 55.6833 118.539C55.6595 118.369 55.5784 118.212 55.4534 118.094Z" fill="#DADADA"/>
</g>
<path d="M48.5633 110.987L49.1051 111.532L49.2089 107.161C49.2089 107.161 49.245 104.904 51.6537 104.904C53.0754 105.529 54.6813 105.593 56.1481 105.082C56.1481 105.082 58.4055 104.728 58.6674 107.064L58.6583 111.617L59.234 110.908L59.2656 110.315C59.4796 108.738 59.4796 107.14 59.2656 105.563C59.2656 105.563 58.8141 102.432 55.9833 101.902C55.9833 101.902 51.3647 100.712 49.4166 103.622C48.946 104.252 48.6066 104.971 48.4186 105.735C48.2305 106.5 48.1976 107.294 48.3218 108.071L48.5633 110.987Z" fill="#956000"/>
</g>
<g style="mix-blend-mode:multiply">
<g style="mix-blend-mode:multiply">
<path d="M73.0483 48.4719C77.6504 48.242 81.1948 44.3249 80.9649 39.7227C80.735 35.1206 76.8178 31.5762 72.2157 31.8061C67.6136 32.036 64.0692 35.9532 64.2991 40.5553C64.529 45.1575 68.4462 48.7018 73.0483 48.4719Z" fill="#1DB2A8" fill-opacity="0.5"/>
</g>
<g style="mix-blend-mode:multiply">
<path d="M73.4496 44.0892H71.8086V45.0651H73.4496V44.0892Z" fill="#F8BB94"/>
</g>
<g style="mix-blend-mode:multiply">
<path d="M71.9032 44.8196C72.0945 44.6282 72.3491 44.5132 72.6192 44.4962C72.8536 44.4779 73.2533 44.5287 73.379 44.2844C73.3963 44.2499 73.4203 44.2192 73.4496 44.194V44.0909H71.8086V44.9383C71.8362 44.8958 71.8679 44.8561 71.9032 44.8196Z" fill="#C6C6C6"/>
</g>
<g style="mix-blend-mode:multiply">
<path d="M76.7361 40.9587C76.7412 41.1094 76.7011 41.2582 76.6211 41.3859C76.5411 41.5137 76.4247 41.6147 76.2869 41.6759C76.1491 41.7371 75.9962 41.7558 75.8477 41.7295C75.6992 41.7032 75.562 41.6332 75.4536 41.5284C75.3452 41.4236 75.2705 41.2889 75.2392 41.1414C75.2078 40.9939 75.2213 40.8404 75.2777 40.7006C75.3342 40.5608 75.4311 40.4411 75.5561 40.3567C75.6811 40.2724 75.8284 40.2272 75.9792 40.2272C76.0769 40.2255 76.174 40.2431 76.265 40.2789C76.3559 40.3148 76.4389 40.3682 76.5092 40.4361C76.5795 40.5041 76.6357 40.5852 76.6746 40.6748C76.7136 40.7645 76.7345 40.861 76.7361 40.9587Z" fill="#F8BB94"/>
</g>
<g style="mix-blend-mode:multiply">
<g style="mix-blend-mode:multiply">
<path d="M76.0781 40.5524C76.095 40.5509 76.1121 40.5509 76.129 40.5524C76.1747 40.5538 76.22 40.5624 76.2631 40.5778C76.3286 40.6011 76.385 40.6447 76.4241 40.7021C76.4347 40.7189 76.4441 40.7364 76.4524 40.7544C76.4595 40.7732 76.4652 40.7926 76.4693 40.8123L76.4764 40.873C76.4764 40.8928 76.4764 40.9125 76.4764 40.9337C76.4726 40.9721 76.4645 41.01 76.4524 41.0467C76.4409 41.0827 76.4252 41.1173 76.4058 41.1498C76.3723 41.2087 76.3235 41.2575 76.2645 41.291C76.2413 41.3038 76.2167 41.3137 76.1911 41.3207C76.1721 41.3254 76.1527 41.3288 76.1332 41.3306H76.0809L76.1276 41.3122C76.1417 41.3122 76.1572 41.2952 76.177 41.2868C76.1967 41.2745 76.2151 41.2603 76.2321 41.2444C76.2517 41.2268 76.2697 41.2074 76.2857 41.1865C76.303 41.162 76.3182 41.136 76.3309 41.1088C76.3438 41.0801 76.3542 41.0504 76.362 41.0199C76.3713 40.9881 76.377 40.9554 76.3789 40.9224V40.8758V40.8292C76.3789 40.8151 76.3719 40.7996 76.369 40.7854C76.3662 40.7713 76.3592 40.7586 76.3521 40.7459C76.3251 40.6978 76.2862 40.6574 76.2391 40.6287C76.204 40.6056 76.1666 40.5862 76.1276 40.5708L76.0781 40.5524Z" fill="#DADADA"/>
</g>
</g>
<g style="mix-blend-mode:multiply">
<path d="M76.176 40.9941C76.1725 41.0174 76.1624 41.0391 76.1468 41.0568C76.1313 41.0745 76.1111 41.0873 76.0885 41.0938C76.0659 41.1003 76.0419 41.1002 76.0194 41.0935C75.9968 41.0868 75.9767 41.0737 75.9614 41.0559C75.946 41.038 75.9361 41.0162 75.9328 40.9929C75.9296 40.9696 75.933 40.9459 75.9428 40.9245C75.9527 40.9031 75.9684 40.885 75.9882 40.8723C76.008 40.8596 76.031 40.8529 76.0545 40.8529C76.0893 40.8558 76.1215 40.8722 76.1442 40.8986C76.1669 40.9251 76.1783 40.9594 76.176 40.9941Z" fill="#DADADA"/>
</g>
<g style="mix-blend-mode:multiply">
<path d="M68.6254 40.9587C68.6204 41.1094 68.6604 41.2582 68.7405 41.3859C68.8205 41.5137 68.9369 41.6147 69.0747 41.6759C69.2125 41.7371 69.3654 41.7558 69.5138 41.7295C69.6623 41.7032 69.7996 41.6332 69.908 41.5284C70.0164 41.4236 70.0911 41.2889 70.1224 41.1414C70.1537 40.9939 70.1403 40.8404 70.0838 40.7006C70.0273 40.5608 69.9304 40.4411 69.8054 40.3567C69.6805 40.2724 69.5332 40.2272 69.3824 40.2272C69.2846 40.2255 69.1875 40.2431 69.0966 40.2789C69.0056 40.3148 68.9227 40.3682 68.8524 40.4361C68.7821 40.5041 68.7259 40.5852 68.6869 40.6748C68.648 40.7645 68.6271 40.861 68.6254 40.9587Z" fill="#F8BB94"/>
</g>
<g style="mix-blend-mode:multiply">
<g style="mix-blend-mode:multiply">
<path d="M69.2852 40.5524C69.2683 40.5509 69.2512 40.5509 69.2343 40.5524C69.1886 40.5538 69.1433 40.5624 69.1002 40.5778C69.0347 40.6011 68.9783 40.6447 68.9392 40.7021C68.9286 40.7189 68.9192 40.7364 68.9109 40.7544C68.9039 40.7727 68.8982 40.7925 68.8926 40.8123V40.873C68.8926 40.8928 68.8926 40.9125 68.8926 40.9337C68.8964 40.9721 68.9044 41.01 68.9166 41.0467C68.9274 41.083 68.9431 41.1177 68.9632 41.1498C68.9967 41.2087 69.0455 41.2575 69.1044 41.291C69.1276 41.3038 69.1523 41.3137 69.1778 41.3207C69.1973 41.3256 69.2172 41.3289 69.2372 41.3306H69.288L69.2414 41.3122C69.2259 41.3122 69.2103 41.2952 69.192 41.2868C69.1723 41.2745 69.1538 41.2603 69.1369 41.2444C69.1169 41.2272 69.0989 41.2078 69.0832 41.1865C69.0659 41.162 69.0508 41.136 69.038 41.1088C69.0252 41.0801 69.0148 41.0504 69.007 41.0199C68.9979 40.988 68.9917 40.9554 68.9886 40.9224V40.8758V40.8292C68.9886 40.8151 68.9886 40.7996 68.9985 40.7854C69.0084 40.7713 69.0084 40.7586 69.0154 40.7459C69.0424 40.6978 69.0813 40.6574 69.1284 40.6287C69.1635 40.6056 69.2009 40.5862 69.24 40.5708L69.2852 40.5524Z" fill="#DADADA"/>
</g>
</g>
<g style="mix-blend-mode:multiply">
<path d="M69.1917 40.9941C69.1952 41.0174 69.2053 41.0391 69.2208 41.0568C69.2364 41.0745 69.2566 41.0873 69.2792 41.0938C69.3018 41.1003 69.3258 41.1002 69.3483 41.0935C69.3709 41.0868 69.391 41.0737 69.4063 41.0559C69.4217 41.038 69.4316 41.0162 69.4349 40.9929C69.4381 40.9696 69.4347 40.9459 69.4248 40.9245C69.415 40.9031 69.3993 40.885 69.3795 40.8723C69.3597 40.8596 69.3367 40.8529 69.3132 40.8529C69.2784 40.8558 69.2462 40.8722 69.2235 40.8986C69.2008 40.9251 69.1894 40.9594 69.1917 40.9941Z" fill="#DADADA"/>
</g>
<g style="mix-blend-mode:multiply">
<path d="M75.9791 39.995C75.9791 42.4771 74.8151 44.2204 72.6282 44.2204C70.4414 44.2204 69.2773 42.4771 69.2773 39.995C69.2773 37.5129 70.4852 35.4999 72.6678 35.4999C74.8504 35.4999 75.9791 37.5129 75.9791 39.995Z" fill="#F8BB94"/>
</g>
<g style="mix-blend-mode:multiply">
<path d="M71.8411 45.0251C71.8411 45.0251 69.7602 45.3077 69.0157 45.9476C68.2712 46.5876 68.6002 45.6365 68.3262 46.9404L69.0157 47.4959L70.4093 47.9125L71.3814 48.3292H72.6313H73.8812L74.9922 47.9125L76.9365 46.9404C76.661 45.6365 77.0143 46.6074 76.2515 45.9476C75.4886 45.2879 73.4261 45.0251 73.4261 45.0251H71.8411Z" fill="#F8BB94"/>
</g>
<g style="mix-blend-mode:multiply">
<path d="M74.2231 45.1694C74.2231 45.1694 75.4945 45.3008 76.2475 45.9478C77.0004 46.5948 76.9367 46.9324 76.9367 46.9324L74.9924 47.9129L73.8814 48.1907L72.6988 48.3296L71.3817 48.1907L70.2706 47.9129L69.0117 47.4963L68.1875 46.9324C68.463 45.6285 68.2489 46.6075 69.0117 45.9478C69.7746 45.288 71.0417 45.168 71.0417 45.168C71.0417 45.168 70.7592 46.9479 72.6988 46.9324C72.6988 46.9324 74.298 46.996 74.2231 45.1694Z" fill="#1A7290"/>
</g>
<g style="mix-blend-mode:multiply">
<path d="M71.3094 45.1157C71.3151 45.1461 71.3151 45.1772 71.3094 45.2075C71.3094 45.2188 71.219 45.8531 71.5834 46.2727C71.8137 46.5383 72.1923 46.6711 72.7023 46.6668H72.715C73.0491 46.6655 73.3708 46.5402 73.6177 46.3151C73.8663 46.0636 73.9822 45.6172 73.961 45.1157L74.495 45.209C74.5119 45.8433 74.3424 46.3391 73.9907 46.6937C73.6459 47.0168 73.1917 47.1975 72.7192 47.1994H72.6783C72.0143 47.1994 71.5086 47.0031 71.1752 46.6174C70.7387 46.1117 70.7514 45.4421 70.7712 45.2047L71.3094 45.1157Z" fill="#054153"/>
</g>
<g style="mix-blend-mode:multiply">
<path d="M69.1922 38.6284L69.3123 40.6542L69.609 40.7376C69.3476 37.4672 71.0711 36.7199 71.0711 36.7199L71.5528 34.6729C71.1278 34.6627 70.7077 34.7654 70.3354 34.9707C69.9631 35.176 69.652 35.4764 69.4338 35.8412C69.4338 35.8412 68.8871 36.3936 69.1922 38.6284Z" fill="#732400"/>
</g>
<g style="mix-blend-mode:multiply">
<path d="M69.2039 38.8919C69.2039 38.8919 69.1474 38.6362 69.0979 38.252C69.0711 38.0585 69.0471 37.8282 69.0259 37.5937C69.0174 37.4722 69.0033 37.3479 68.9976 37.2207C68.9976 37.1586 68.9892 37.0936 68.9863 37.03V36.982V36.9227V36.8252C68.9892 36.7569 68.9973 36.6889 69.0103 36.6218C69.0193 36.5533 69.034 36.4858 69.0541 36.4198C69.064 36.3873 69.0711 36.3534 69.0824 36.3223L69.1191 36.229C69.1415 36.1685 69.1679 36.1095 69.1982 36.0525C69.2251 35.9963 69.2558 35.942 69.2901 35.89C69.321 35.8412 69.3545 35.7941 69.3904 35.7487C69.4536 35.6611 69.524 35.5789 69.6008 35.5029C69.6633 35.4375 69.7303 35.3766 69.8014 35.3207C69.8548 35.2768 69.9104 35.2358 69.9681 35.1978C70.0179 35.1639 70.0698 35.1333 70.1235 35.106C69.9752 35.2595 69.8396 35.4248 69.7181 35.6004C69.689 35.6398 69.6621 35.6809 69.6376 35.7233C69.6107 35.7657 69.5825 35.8095 69.557 35.8575C69.5316 35.9055 69.5048 35.9507 69.4808 35.9988C69.4567 36.0468 69.4313 36.1005 69.4115 36.1542C69.3875 36.2068 69.3672 36.2611 69.3508 36.3166C69.3324 36.3731 69.3155 36.4296 69.3028 36.4876C69.2875 36.5442 69.2762 36.6017 69.2689 36.6599C69.2592 36.7193 69.2535 36.7792 69.2519 36.8393V36.9354V36.9721V37.0117C69.2519 37.0766 69.2519 37.1402 69.259 37.2038C69.259 37.3309 69.259 37.4552 69.259 37.5767C69.259 37.8183 69.259 38.0443 69.2491 38.2393C69.2364 38.632 69.2039 38.8919 69.2039 38.8919Z" fill="#511800"/>
</g>
<g style="mix-blend-mode:multiply">
<path d="M76.0461 39.0262L75.9261 41.0519L75.6294 41.1353C75.9303 36.7743 74.3043 36.7009 74.3043 36.7009L73.6855 35.0706C74.1106 35.0604 74.5307 35.1632 74.903 35.3684C75.2752 35.5737 75.5864 35.8741 75.8046 36.2389C75.8046 36.2389 76.347 36.7913 76.0461 39.0262Z" fill="#732400"/>
</g>
<path d="M71.0876 36.7074C71.0876 36.7074 72.9707 35.9671 74.9104 36.9574L75.0587 35.4572C75.0587 35.4572 74.6787 32.5357 70.8658 33.4667C71.1134 33.5796 71.3429 33.7286 71.5468 33.9089C71.5468 33.9089 70.079 33.8072 69.4277 35.1435C69.4277 35.1435 70.4166 34.813 71.219 35.0263C71.2218 35.0334 70.0239 35.8202 71.0876 36.7074Z" fill="#732400"/>
<g style="mix-blend-mode:multiply">
<path d="M75.0584 35.4578C75.0376 35.385 75.0131 35.3133 74.9849 35.243C74.8688 34.9366 74.7048 34.6505 74.499 34.3954C74.4077 34.2866 74.3096 34.1837 74.2051 34.0875C74.0908 33.988 73.9684 33.8983 73.8393 33.8191C73.705 33.7371 73.5631 33.6685 73.4155 33.6142C73.3426 33.5846 73.268 33.5591 73.1923 33.5379C73.1176 33.5145 73.0416 33.4952 72.9648 33.48C72.8148 33.4466 72.6629 33.4225 72.5099 33.408C72.4351 33.3995 72.3687 33.3967 72.2896 33.3924C72.2104 33.3882 72.1483 33.3825 72.0762 33.3854C71.935 33.3854 71.8036 33.3854 71.6821 33.3938C71.5606 33.4023 71.4476 33.408 71.3473 33.4164C71.247 33.4249 71.1594 33.432 71.0888 33.4405C70.9475 33.4574 70.8613 33.4645 70.8613 33.4645C70.8613 33.4645 70.939 33.4348 71.0775 33.3896C71.1603 33.3605 71.2448 33.336 71.3303 33.3161C71.4292 33.2907 71.5394 33.261 71.6637 33.2413C71.7259 33.2314 71.7909 33.2173 71.8587 33.2088L72.0678 33.1862C72.1398 33.1777 72.209 33.1777 72.291 33.1735C72.3691 33.1692 72.4474 33.1692 72.5255 33.1735C72.6067 33.1749 72.6878 33.1806 72.7684 33.1904C72.852 33.1972 72.9351 33.2095 73.0171 33.2271C73.1857 33.2597 73.3512 33.3069 73.5115 33.3684C73.6727 33.4311 73.827 33.5101 73.9721 33.6043C74.1126 33.6949 74.2428 33.8006 74.3605 33.9194C74.5674 34.1285 74.7345 34.3736 74.8536 34.6426C74.9367 34.8295 74.9965 35.026 75.0316 35.2275C75.0468 35.3034 75.0558 35.3804 75.0584 35.4578Z" fill="#511800"/>
</g>
</g>
</g>
<defs>
<filter id="filter0_d" x="-14" y="0" width="228" height="228" filterUnits="userSpaceOnUse" color-interpolation-filters="sRGB">
<feFlood flood-opacity="0" result="BackgroundImageFix"/>
<feColorMatrix in="SourceAlpha" type="matrix" values="0 0 0 0 0 0 0 0 0 0 0 0 0 0 0 0 0 0 127 0"/>
<feOffset dy="4"/>
<feGaussianBlur stdDeviation="7"/>
<feColorMatrix type="matrix" values="0 0 0 0 0 0 0 0 0 0 0 0 0 0 0 0 0 0 0.15 0"/>
<feBlend mode="normal" in2="BackgroundImageFix" result="effect1_dropShadow"/>
<feBlend mode="normal" in="SourceGraphic" in2="effect1_dropShadow" result="shape"/>
</filter>
</defs>
</svg>
