<svg width="217" height="223" viewBox="0 0 217 223" fill="none" xmlns="http://www.w3.org/2000/svg">
<g filter="url(#filter0_d)">
<path opacity="0.19" d="M114.296 199.705C148.033 199.705 175.383 194.826 175.383 188.807C175.383 182.789 148.033 177.91 114.296 177.91C80.5586 177.91 53.209 182.789 53.209 188.807C53.209 194.826 80.5586 199.705 114.296 199.705Z" fill="#272425"/>
<path d="M115 201C163.601 201 203 161.601 203 113C203 64.3989 163.601 25 115 25C66.3989 25 27 64.3989 27 113C27 161.601 66.3989 201 115 201Z" fill="white"/>
<path d="M116.252 10.2522H114.252V80.7522H116.252V10.2522Z" fill="#583C1C"/>
<path d="M116.156 12.4239C116.156 12.4239 134.11 10.5976 132.884 14.0739C131.658 17.5501 144.323 17.8839 150.322 16.2174C150.322 16.2174 148.989 21.5501 147.656 28.8826C146.322 36.2151 125.992 31.8826 127.658 28.8826C129.325 25.8826 116.24 27.2161 116.24 27.2161L116.156 12.4239Z" fill="#A22330"/>
<path d="M91.2555 124.506C81.2555 101.381 117.63 89.256 135.005 104.256" stroke="#A22330" stroke-width="1.25" stroke-dasharray="4 2"/>
<path d="M155.06 112.874L111.396 199.569H198.725L155.06 112.874Z" fill="#1C87F1"/>
<path opacity="0.14" d="M198.725 199.818L155.061 113.122V199.818H198.725Z" fill="#272425"/>
<path d="M115.443 75.3639V200.677H168.494L115.443 75.3639Z" fill="#1C87F1"/>
<path d="M72.4335 109.685L28.7695 196.38H116.098L72.4335 109.685Z" fill="#136DC7"/>
<path opacity="0.14" d="M116.098 196.38L72.4336 109.685V196.38H116.098Z" fill="#272425"/>
<path d="M115.377 56.252C114.211 56.2517 113.057 56.4795 111.98 56.9224C110.903 57.3653 109.925 58.0145 109.101 58.833C108.277 59.6515 107.623 60.6233 107.177 61.6928C106.731 62.7622 106.502 63.9085 106.502 65.066C106.502 69.9329 115.377 80.7519 115.377 80.7519C115.377 80.7519 119.408 75.8366 122.03 71.1442C123.306 68.8745 124.252 66.6533 124.252 65.066C124.251 62.7285 123.316 60.4869 121.652 58.8341C119.988 57.1812 117.73 56.2525 115.377 56.252ZM115.377 69.0905C114.308 69.0974 113.278 68.6975 112.497 67.973C111.716 67.2484 111.245 66.2543 111.179 65.1951C111.114 64.1358 111.46 63.092 112.146 62.2782C112.832 61.4645 113.805 60.9427 114.867 60.8201C115.928 60.6975 116.997 60.9835 117.852 61.6193C118.708 62.255 119.285 63.1922 119.467 64.2381C119.648 65.284 119.418 66.359 118.826 67.2421C118.233 68.1253 117.323 68.7493 116.281 68.986C115.985 69.0563 115.681 69.0914 115.377 69.0905Z" fill="#0491EC"/>
<path d="M122.002 71.1564C119.385 75.843 115.361 80.7515 115.361 80.7515C115.361 80.7515 106.502 69.9467 106.502 65.0863C106.501 63.7766 106.795 62.4833 107.361 61.3008C107.928 60.1183 108.753 59.0765 109.777 58.2515C110.113 59.8437 110.659 61.6655 111.533 63.4244C111.273 64.0492 111.172 64.7283 111.239 65.4013C111.306 66.0743 111.539 66.7205 111.918 67.2825C112.296 67.8444 112.809 68.3048 113.409 68.6228C114.01 68.9408 114.681 69.1064 115.361 69.1051C115.665 69.106 115.968 69.071 116.264 69.0008C117.81 70.0509 119.7 70.8226 122.002 71.1564Z" fill="#0C6DAC"/>
<path d="M21.7577 178C20.8377 178 19.9267 178.181 19.0767 178.533C18.2267 178.885 17.4543 179.401 16.8038 180.052C16.1533 180.702 15.6372 181.475 15.2852 182.325C14.9331 183.175 14.7519 184.086 14.752 185.006C14.752 188.875 21.7577 197.477 21.7577 197.477C21.7577 197.477 28.7637 188.875 28.7637 185.006C28.7637 183.148 28.0255 181.366 26.7117 180.052C25.3978 178.738 23.6158 178 21.7577 178ZM21.7577 188.209C21.11 188.209 20.4768 188.017 19.9382 187.657C19.3996 187.297 18.9799 186.786 18.732 186.188C18.4841 185.589 18.4193 184.931 18.5456 184.295C18.672 183.66 18.9839 183.076 19.4419 182.618C19.8999 182.16 20.4835 181.849 21.1188 181.722C21.7541 181.596 22.4126 181.661 23.011 181.909C23.6094 182.156 24.1209 182.576 24.4807 183.115C24.8406 183.653 25.0327 184.287 25.0327 184.934C25.0327 185.803 24.6876 186.636 24.0735 187.25C23.4593 187.864 22.6263 188.209 21.7577 188.209Z" fill="#11486B"/>
<path d="M115.294 75.0211L62.0996 200.674H115.437V75.3606L115.294 75.0211Z" fill="#2EB5DB"/>
<path opacity="0.14" d="M115.438 75.359V200.672H168.488L115.438 75.359Z" fill="#000911"/>
<path d="M117.003 79.3746C150.003 101.5 122.753 150.875 92.7527 125.75" stroke="#A22330" stroke-width="1.25" stroke-dasharray="4 2"/>
<path d="M22.127 200.623C39.0436 206.54 83.1019 209.448 124.002 173.748C164.902 138.048 148.794 112.957 135.627 104.873" stroke="#A22330" stroke-width="1.25" stroke-dasharray="4 2"/>
</g>
<defs>
<filter id="filter0_d" x="-6" y="-7" width="228" height="236.75" filterUnits="userSpaceOnUse" color-interpolation-filters="sRGB">
<feFlood flood-opacity="0" result="BackgroundImageFix"/>
<feColorMatrix in="SourceAlpha" type="matrix" values="0 0 0 0 0 0 0 0 0 0 0 0 0 0 0 0 0 0 127 0"/>
<feOffset dy="4"/>
<feGaussianBlur stdDeviation="7"/>
<feColorMatrix type="matrix" values="0 0 0 0 0 0 0 0 0 0 0 0 0 0 0 0 0 0 0.15 0"/>
<feBlend mode="normal" in2="BackgroundImageFix" result="effect1_dropShadow"/>
<feBlend mode="normal" in="SourceGraphic" in2="effect1_dropShadow" result="shape"/>
</filter>
</defs>
</svg>
