<svg width="266" height="207" viewBox="0 0 266 207" fill="none" xmlns="http://www.w3.org/2000/svg">
<path d="M262.309 14.6085C263.839 14.8643 264.947 16.1648 264.947 17.7013V18.004V18.3075V18.6118V18.9168V19.2226V19.5291V19.8364V20.1444V20.4532V20.7627V21.0729V21.3839V21.6956V22.008V22.3211V22.635V22.9495V23.2648V23.5808V23.8975V24.2149V24.533V24.8518V25.1713V25.4915V25.8124V26.1339V26.4562V26.7791V27.1027V27.427V27.7519V28.0775V28.4038V28.7307V29.0582V29.3865V29.7154V30.0449V30.375V30.7059V31.0373V31.3694V31.7021V32.0354V32.3694V32.704V33.0392V33.375V33.7114V34.0485V34.3861V34.7244V35.0632V35.4027V35.7427V36.0833V36.4245V36.7663V37.1087V37.4517V37.7952V38.1393V38.484V38.8292V39.175V39.5214V39.8683V40.2157V40.5638V40.9123V41.2614V41.6111V41.9612V42.312V42.6632V43.015V43.3673V43.7201V44.0734V44.4273V44.7816V45.1365V45.4919V45.8478V46.2041V46.561V46.9184V47.2762V47.6346V47.9934V48.3527V48.7125V49.0727V49.4335V49.7947V50.1563V50.5184V50.881V51.244V51.6075V51.9715V52.3358V52.7007V53.0659V53.4316V53.7978V54.1643V54.5313V54.8987V55.2666V55.6348V56.0035V56.3726V56.7421V57.1119V57.4822V57.8529V58.224V58.5955V58.9674V59.3396V59.7122V60.0853V60.4587V60.8324V61.2066V61.5811V61.9559V62.3312V62.7068V63.0827V63.459V63.8356V64.2126V64.59V64.9676V65.3456V65.724V66.1026V66.4816V66.8609V67.2406V67.6205V68.0008V68.3814V68.7623V69.1435V69.525V69.9068V70.2888V70.6712V71.0539V71.4368V71.8201V72.2036V72.5874V72.9714V73.3558V73.7404V74.1252V74.5104V74.8958V75.2814V75.6673V76.0534V76.4398V76.8264V77.2133V77.6004V77.9877V78.3753V78.763V79.1511V79.5393V79.9277V80.3164V80.7053V81.0943V81.4836V81.8731V82.2628V82.6526V83.0427V83.433V83.8234V84.214V84.6048V84.9958V85.3869V85.7782V86.1697V86.5614V86.9532V87.3451V87.7373V88.1295V88.5219V88.9145V89.3072V89.7V90.093V90.4861V90.8794V91.2727V91.6662V92.0598V92.4535V92.8474V93.2413V93.6353V94.0295V94.4238V94.8181V95.2125V95.6071V96.0017V96.3964V96.7912V97.1861V97.581V97.976V98.3711V98.7663V99.1615V99.5567V99.9521V100.347V100.743V101.138V101.534V101.929V102.325V102.721V103.116V103.512V103.908V104.304V104.699V105.095V105.491V105.887V106.282V106.678V107.074V107.47V107.866V108.262V108.657V109.053V109.449V109.845V110.24V110.636V111.032V111.427V111.823V112.218V112.614V113.009V113.405V113.8V114.195V114.59V114.986V115.381V115.776V116.171V116.565V116.96V117.355V117.75V118.144V118.539V118.933V119.327V119.721V120.115V120.509V120.903V121.297V121.69V122.084V122.477V122.871V123.264V123.657V124.049V124.442V124.835V125.227V125.619V126.012V126.404V126.795V127.187V127.578V127.97V128.361V128.752V129.143V129.533V129.924V130.314V130.704V131.094V131.484V131.873V132.262V132.652V133.04V133.429V133.818V134.206V134.594V134.982V135.369V135.757V136.144V136.53V136.917V137.303V137.69V138.076V138.461V138.847V139.232V139.617V140.001V140.386V140.77V141.153V141.537V141.92V142.303V142.686V143.068V143.45V143.832V144.214V144.595V144.976V145.356V145.737V146.117V146.496V146.876V147.255V147.633V148.012V148.39V148.767V149.145V149.522V149.898V150.275V150.65V151.026V151.401V151.776V152.151V152.525V152.899V153.272V153.645V154.018V154.39V154.762V155.133V155.504V155.875V156.245V156.615V156.985V157.354V157.723V158.091V158.459V158.826V159.193V159.56V159.926V160.292V160.657V161.022V161.386V161.75V162.114V162.477V162.839V163.201V163.563V163.924V164.285V164.645V165.005V165.364V165.723V166.082V166.439V166.797V167.154V167.51V167.866V168.221V168.576V168.931V169.285V169.638V169.991V170.343V170.695V171.046V171.397V171.747V172.097V172.446V172.794V173.142V173.49V173.837V174.183V174.529V174.874V175.219V175.563V175.907V176.25V176.592V176.934V177.275V177.616V177.956V178.295V178.634V178.972V179.31V179.647V179.984V180.319V180.655V180.989V181.323V181.657V181.989V182.321V182.653V182.984V183.314V183.643V183.972V184.301V184.628V184.955V185.281V185.607V185.932V186.256V186.58V186.903V187.225V187.547V187.868V188.188V188.507V188.826V189.144V189.462V189.778V190.094V190.41V190.724V191.038V191.351V191.664V191.975V192.286V192.597V192.906V193.215V193.523V193.83V194.137V194.443V194.748V195.052V195.356V195.658V195.96V196.262V196.562V196.862V197.161V197.459V197.756V198.053V198.348V198.643V198.938V199.231V199.524V199.815V200.106V200.396V200.686V200.974V201.262V201.549V201.835V202.12V202.404V202.688C264.947 204.429 263.536 205.836 261.789 205.834C247.962 205.823 234.38 205.761 220.946 205.7C191.88 205.567 163.504 205.437 134.821 205.836H134.559H134.288H134.018H133.748H133.478H133.208H132.937H132.667H132.397H132.126H131.856H131.585H131.315H131.045H130.774H130.504H130.233H129.963H129.692H129.421H129.151H128.88H128.61H128.339H128.068H127.797H127.527H127.256H126.985H126.714H126.444H126.173H125.902H125.631H125.36H125.09H124.819H124.548H124.277H124.006H123.735H123.464H123.193H122.922H122.652H122.381H122.11H121.839H121.568H121.297H121.026H120.755H120.484H120.213H119.942H119.671H119.4H119.129H118.858H118.587H118.316H118.045H117.774H117.503H117.232H116.961H116.69H116.419H116.148H115.877H115.607H115.336H115.065H114.794H114.523H114.252H113.981H113.71H113.439H113.168H112.898H112.627H112.356H112.085H111.814H111.544H111.273H111.002H110.731H110.461H110.19H109.919H109.648H109.378H109.107H108.837H108.566H108.295H108.025H107.754H107.484H107.213H106.943H106.672H106.402H106.132H105.861H105.591H105.321H105.05H104.78H104.51H104.24H103.969H103.699H103.429H103.159H102.889H102.619H102.349H102.079H101.809H101.539H101.269H100.999H100.73H100.46H100.19H99.9204H99.6507H99.3811H99.1115H98.842H98.5725H98.303H98.0336H97.7642H97.4949H97.2255H96.9563H96.6871H96.4179H96.1488H95.8797H95.6106H95.3416H95.0727H94.8038H94.5349H94.2661H93.9974H93.7287H93.46H93.1914H92.9228H92.6543H92.3858H92.1174H91.8491H91.5807H91.3125H91.0443H90.7761H90.508H90.24H89.972H89.7041H89.4362H89.1684H88.9007H88.6329H88.3653H88.0977H87.8302H87.5628H87.2954H87.028H86.7607H86.4935H86.2264H85.9593H85.6923H85.4253H85.1584H84.8916H84.6248H84.3581H84.0915H83.8249H83.5584H83.292H83.0257H82.7594H82.4931H82.227H81.9609H81.6949H81.429H81.1631H80.8974H80.6316H80.366H80.1004H79.835H79.5695H79.3042H79.039H78.7738H78.5087H78.2436H77.9787H77.7138H77.4491H77.1843H76.9197H76.6552H76.3907H76.1263H75.862H75.5978H75.3337H75.0697H74.8057H74.5418H74.2781H74.0144H73.7507H73.4872H73.2238H72.9604H72.6972H72.434H72.1709H71.908H71.6451H71.3823H71.1196H70.8569H70.5944H70.332H70.0696H69.8074H69.5453H69.2832H69.0213H68.7594H68.4977H68.236H67.9744H67.713H67.4516H67.1904H66.9292H66.6682H66.4072H66.1463H65.8856H65.6249H65.3644H65.104H64.8436H64.5834H64.3233H64.0633H63.8034H63.5436H63.2839H63.0243H62.7648H62.5054H62.2462H61.987H61.728H61.4691H61.2103H60.9516H60.693H60.4345H60.1762H59.9179H59.6598H59.4018H59.1439H58.8861H58.6285H58.3709H58.1135H57.8562H57.599H57.342H57.085H56.8282H56.5715H56.3149H56.0585H55.8021H55.5459H55.2898H55.0339H54.778H54.5223H54.2668H54.0113H53.756H53.5008H53.2457H52.9908H52.7359H52.4813H52.2267H51.9723H51.718H51.4638H51.2098H50.9559H50.7022H50.4485H50.195H49.9417H49.6885H49.4354H49.1824H48.9296H48.677H48.4244H48.172H47.9198H47.6677H47.4157H47.1638H46.9122H46.6606H46.4092H46.1579H45.9068H45.6558H45.405H45.1543H44.9038H44.6534H44.4031H44.153H43.903H43.6532H43.4036H43.1541H42.9047H42.6555H42.4064H42.1575H41.9088H41.6602H41.4117H41.1634H40.9153H40.6673H40.4195H40.1718H39.9243H39.6769H39.4297H39.1826H38.9357H38.689H38.4424H38.196H37.9497H37.7036H37.4577H37.2119H36.9663H36.7209H36.4756H36.2305H35.9855H35.7407H35.4961H35.2516H35.0073H34.7632H34.5192H34.2755H34.0318H33.7884H33.5451H33.302H33.059H32.8163H32.5737H32.3312H32.089H31.8469H31.605H31.3632H31.1217H30.8803H30.6391H30.398H30.1572H29.9165H29.676H29.4357H29.1955H28.9555H28.7158H28.4762H28.2367H27.9975H27.7584H27.5195H27.2808H27.0423H26.804H26.5658H26.3279H26.0901H25.8525H25.6151H25.3779H25.1409H24.904H24.6674H24.4309H24.1947H23.9586H23.7227H23.487H23.2515H23.0162H22.781H22.5461H22.3114H22.0768H21.8425H21.6084H21.3744H21.1406H20.9071H20.6737H20.4406H20.2076H19.9748H19.7423H19.5099H19.2777H19.0458H18.814H18.5824H18.3511H18.1199H17.889H17.6582H17.4277H17.1973H16.9672H16.7373H16.5076H16.2781H16.0488H15.8197H15.5908H15.3621H15.1336H14.9054H14.6773H14.4495H14.2219H13.9945H13.7673H13.5403H13.3135H13.087H12.8607H12.6345H12.4086H12.1829H11.9575H11.7322H11.5072H11.2824H11.0578H10.8334H10.6092H10.3853H10.1616H9.93811H9.71484H9.49179H9.26897H9.04638H8.824H8.60185H8.37993H8.15824H7.93677H7.71553H7.49451H7.27373H7.05317H6.83284H6.61274H6.39287H6.17324H5.95383H5.73466H5.51572H5.29701H5.07853H4.86029H4.64228H4.42451H4.20698C2.46521 205.836 1.05292 204.421 1.05292 202.673V202.264V201.854V201.445V201.035V200.626V200.217V199.808V199.399V198.991V198.582V198.174V197.765V197.357V196.949V196.541V196.133V195.725V195.318V194.91V194.503V194.095V193.688V193.281V192.874V192.468V192.061V191.655V191.248V190.842V190.436V190.03V189.624V189.218V188.813V188.407V188.002V187.597V187.192V186.787V186.382V185.977V185.573V185.168V184.764V184.36V183.956V183.552V183.148V182.745V182.341V181.938V181.535V181.132V180.729V180.326V179.923V179.521V179.118V178.716V178.314V177.912V177.51V177.109V176.707V176.306V175.905V175.504V175.103V174.702V174.301V173.901V173.501V173.1V172.7V172.3V171.901V171.501V171.102V170.702V170.303V169.904V169.505V169.107V168.708V168.31V167.911V167.513V167.115V166.718V166.32V165.923V165.525V165.128V164.731V164.334V163.937V163.541V163.145V162.748V162.352V161.956V161.561V161.165V160.77V160.374V159.979V159.584V159.19V158.795V158.4V158.006V157.612V157.218V156.824V156.431V156.037V155.644V155.251V154.858V154.465V154.072V153.68V153.288V152.895V152.503V152.112V151.72V151.329V150.937V150.546V150.155V149.765V149.374V148.984V148.593V148.203V147.813V147.424V147.034V146.645V146.255V145.866V145.478V145.089V144.701V144.312V143.924V143.536V143.148V142.761V142.373V141.986V141.599V141.212V140.826V140.439V140.053V139.667V139.281V138.895V138.509V138.124V137.739V137.354V136.969V136.584V136.2V135.815V135.431V135.048V134.664V134.28V133.897V133.514V133.131V132.748V132.366V131.983V131.601V131.219V130.837V130.456V130.074V129.693V129.312V128.931V128.551V128.17V127.79V127.41V127.03V126.65V126.271V125.892V125.513V125.134V124.755V124.377V123.999V123.621V123.243V122.865V122.488V122.111V121.734V121.357V120.98V120.604V120.227V119.852V119.476V119.1V118.725V118.35V117.975V117.6V117.225V116.851V116.477V116.103V115.729V115.356V114.983V114.61V114.237V113.864V113.492V113.119V112.747V112.376V112.004V111.633V111.262V110.891V110.52V110.15V109.779V109.409V109.039V108.67V108.3V107.931V107.562V107.194V106.825V106.457V106.089V105.721V105.353V104.986V104.619V104.252V103.885V103.518V103.152V102.786V102.42V102.055V101.689V101.324V100.959V100.595V100.23V99.866V99.502V99.1382V98.7747V98.4114V98.0483V97.6855V97.3229V96.9605V96.5984V96.2365V95.8748V95.5134V95.1522V94.7912V94.4305V94.07V93.7097V93.3497V92.9899V92.6304V92.2711V91.912V91.5532V91.1946V90.8363V90.4781V90.1203V89.7627V89.4053V89.0481V88.6912V88.3346V87.9782V87.622V87.2661V86.9104V86.555V86.1998V85.8448V85.4902V85.1357V84.7815V84.4276V84.0739V83.7204V83.3672V83.0142V82.6615V82.3091V81.9569V81.6049V81.2532V80.9018V80.5506V80.1996V79.849V79.4985V79.1483V78.7984V78.4487V78.0993V77.7502V77.4013V77.0526V76.7042V76.3561V76.0082V75.6606V75.3133V74.9662V74.6193V74.2728V73.9265V73.5804V73.2346V72.8891V72.5438V72.1988V71.8541V71.5096V71.1654V70.8215V70.4778V70.1344V69.7912V69.4483V69.1057V68.7634V68.4213V68.0795V67.738V67.3967V67.0557V66.715V66.3745V66.0343V65.6944V65.3547V65.0154V64.6762V64.3374V63.9989V63.6606V63.3226V62.9848V62.6474V62.3102V61.9733V61.6366V61.3003V60.9642V60.6284V60.2929V59.9577V59.6227V59.288V58.9536V58.6195V58.2856V57.9521V57.6188V57.2858V56.9531V56.6206V56.2885V55.9566V55.625V55.2937V54.9627V54.632V54.3016V53.9714V53.6415V53.312V52.9827V52.6537V52.325V51.9965V51.6684V51.3405V51.013V50.6857V50.3587V50.0321V49.7057V49.3796V49.0538V48.7283V48.403V48.0781V47.7535V47.4291V47.1051V46.7814V46.4579V46.1348V45.8119V45.4894V45.1671V44.8451V44.5235V44.2021V43.8811V43.5603V43.2398V42.9197V42.5998V42.2803V41.961V41.6421V41.3234V41.0051V40.687V40.3693V40.0519V39.7347V39.4179V39.1014V38.7852V38.4693V38.1537V37.8384V37.5234V37.2088V36.8944V36.5804V36.2666V35.9532V35.6401V35.3273V35.0148V34.7026V34.3908V34.0792V33.768V33.457V33.1464V32.8361V32.5261V32.2165V31.9071V31.5981V31.2894V30.981V30.6729V30.3651V30.0577V29.7506V29.4438V29.1373V28.8311V28.5253V28.2198V27.9146V27.6097V27.3051V27.0009V26.697V26.3934V26.0901V25.7872V25.4846V25.1823V24.8804V24.5787V24.2774V23.9764V23.6758V23.3755V23.0755V22.7758V22.4765V22.1775V21.8788V21.5805V21.2825V20.9848V20.6874V20.3904V20.0938V19.7974V19.5014V19.2057V18.9104V18.6154V18.3207V18.0263V17.7323C1.05292 16.186 2.17363 14.8723 3.70563 14.6236L86.464 1.19122C86.932 1.11526 87.1053 1.22046 87.1726 1.29492C87.7208 1.90104 88.5269 3.03462 89.5897 4.60386C90.0178 5.23598 90.4898 5.94197 90.9967 6.70022C91.7128 7.77137 92.4986 8.9468 93.3289 10.1655C96.1898 14.3646 99.753 19.3382 103.722 23.6777C112.738 33.535 124.463 38.1555 136.373 37.99C148.404 37.8228 158.305 31.403 167.051 21.4102C173.241 14.3378 178.314 6.78183 180.73 3.00528C181.445 1.888 182.745 1.2986 184.029 1.5133L262.309 14.6085Z" fill="url(#paint0_radial)" stroke="white" stroke-width="2.10585"/>
<defs>
<radialGradient id="paint0_radial" cx="0" cy="0" r="1" gradientUnits="userSpaceOnUse" gradientTransform="translate(133 103.444) rotate(90) scale(103.444 133)">
<stop stop-color="#335063"/>
<stop offset="1" stop-color="#1B3342"/>
</radialGradient>
</defs>
</svg>
