<svg width="25" height="25" viewBox="0 0 25 25" fill="none" xmlns="http://www.w3.org/2000/svg">
<g clip-path="url(#clip0)">
<path d="M20.492 0.0341797H4.15153C3.06808 0.0341797 2.02902 0.464575 1.26291 1.23068C0.496802 1.99679 0.0664063 3.03586 0.0664062 4.1193L0.0664063 20.4598C0.0664063 21.5432 0.496802 22.5823 1.26291 23.3484C2.02902 24.1145 3.06808 24.5449 4.15153 24.5449H20.492C21.5754 24.5449 22.6145 24.1145 23.3806 23.3484C24.1467 22.5823 24.5771 21.5432 24.5771 20.4598V4.1193C24.5771 3.03586 24.1467 1.99679 23.3806 1.23068C22.6145 0.464575 21.5754 0.0341797 20.492 0.0341797V0.0341797ZM22.5346 20.4598C22.5346 21.0015 22.3194 21.521 21.9363 21.9041C21.5533 22.2871 21.0337 22.5023 20.492 22.5023H4.15153C3.6098 22.5023 3.09027 22.2871 2.70722 21.9041C2.32416 21.521 2.10897 21.0015 2.10897 20.4598V4.1193C2.10897 3.57758 2.32416 3.05805 2.70722 2.67499C3.09027 2.29194 3.6098 2.07674 4.15153 2.07674H20.492C21.0337 2.07674 21.5533 2.29194 21.9363 2.67499C22.3194 3.05805 22.5346 3.57758 22.5346 4.1193V20.4598Z" fill="url(#paint0_linear)"/>
<path d="M12.321 6.16162C11.1091 6.16162 9.92438 6.521 8.91668 7.19432C7.90899 7.86764 7.12359 8.82465 6.6598 9.94434C6.19601 11.064 6.07467 12.2961 6.3111 13.4847C6.54754 14.6734 7.13115 15.7653 7.98812 16.6222C8.84509 17.4792 9.93694 18.0628 11.1256 18.2992C12.3142 18.5357 13.5463 18.4143 14.666 17.9505C15.7857 17.4867 16.7427 16.7013 17.416 15.6937C18.0893 14.686 18.4487 13.5012 18.4487 12.2893C18.4487 10.6641 17.8031 9.10554 16.654 7.95638C15.5048 6.80721 13.9462 6.16162 12.321 6.16162ZM12.321 16.3744C11.5131 16.3744 10.7233 16.1348 10.0515 15.686C9.37968 15.2371 8.85608 14.5991 8.54688 13.8526C8.23769 13.1061 8.15679 12.2848 8.31442 11.4923C8.47204 10.6999 8.86111 9.972 9.43243 9.40068C10.0037 8.82937 10.7316 8.4403 11.5241 8.28267C12.3165 8.12505 13.1379 8.20595 13.8843 8.51514C14.6308 8.82433 15.2688 9.34793 15.7177 10.0197C16.1666 10.6915 16.4062 11.4813 16.4062 12.2893C16.4062 13.3727 15.9758 14.4118 15.2097 15.1779C14.4435 15.944 13.4045 16.3744 12.321 16.3744Z" fill="url(#paint1_linear)"/>
<path d="M18.9616 7.18322C19.8077 7.18322 20.4935 6.49736 20.4935 5.6513C20.4935 4.80525 19.8077 4.11938 18.9616 4.11938C18.1156 4.11938 17.4297 4.80525 17.4297 5.6513C17.4297 6.49736 18.1156 7.18322 18.9616 7.18322Z" fill="url(#paint2_linear)"/>
</g>
<defs>
<linearGradient id="paint0_linear" x1="12.3218" y1="0.0341797" x2="12.3218" y2="24.5449" gradientUnits="userSpaceOnUse">
<stop stop-color="#AEFFF1"/>
<stop offset="1" stop-color="#D0EBFF"/>
</linearGradient>
<linearGradient id="paint1_linear" x1="12.321" y1="6.16162" x2="12.321" y2="18.417" gradientUnits="userSpaceOnUse">
<stop stop-color="#AEFFF1"/>
<stop offset="1" stop-color="#D0EBFF"/>
</linearGradient>
<linearGradient id="paint2_linear" x1="18.9616" y1="4.11938" x2="18.9616" y2="7.18322" gradientUnits="userSpaceOnUse">
<stop stop-color="#AEFFF1"/>
<stop offset="1" stop-color="#D0EBFF"/>
</linearGradient>
<clipPath id="clip0">
<rect width="24.5107" height="24.5107" fill="white" transform="translate(0.0664062 0.0341797)"/>
</clipPath>
</defs>
</svg>
