<svg width="346" height="397" viewBox="0 0 346 397" fill="none" xmlns="http://www.w3.org/2000/svg">
<g clip-path="url(#clip0)">
<path d="M136.277 351.493C160.707 351.493 180.512 340.06 180.512 325.957C180.512 311.854 160.707 300.422 136.277 300.422C111.847 300.422 92.043 311.854 92.043 325.957C92.043 340.06 111.847 351.493 136.277 351.493Z" fill="#E0E0E0"/>
<path d="M238.516 314.029C269.189 297.485 287.38 271.701 279.148 256.437C270.915 241.173 239.376 242.21 208.703 258.753C178.03 275.297 159.839 301.082 168.071 316.345C176.304 331.609 207.843 330.572 238.516 314.029Z" fill="#E0E0E0"/>
<path d="M269.038 277.768C275.171 270.458 284.779 265.695 295.582 262.88C306.254 260.109 308.166 253.54 301.092 251.417C293.079 249.001 283.079 253.434 276.628 259.605C265.395 270.359 263.981 278.572 263.981 278.572L269.038 277.768Z" fill="#27DEBF"/>
<path opacity="0.15" d="M269.038 277.768C275.171 270.458 284.779 265.695 295.582 262.88C306.254 260.109 308.166 253.54 301.092 251.417C293.079 249.001 283.079 253.434 276.628 259.605C265.395 270.359 263.981 278.572 263.981 278.572L269.038 277.768Z" fill="black"/>
<path d="M265.879 277.326C265.834 277.336 265.788 277.336 265.742 277.326C265.706 277.308 265.673 277.283 265.646 277.253C265.618 277.222 265.598 277.186 265.584 277.147C265.571 277.109 265.565 277.068 265.568 277.027C265.571 276.986 265.581 276.946 265.599 276.909C274.703 258.229 294.865 253.634 299.746 253.982C299.828 253.989 299.904 254.027 299.957 254.089C300.011 254.15 300.038 254.231 300.033 254.312C300.025 254.394 299.985 254.47 299.923 254.524C299.86 254.577 299.779 254.604 299.697 254.599C294.915 254.238 275.12 258.789 266.16 277.183C266.129 277.229 266.087 277.266 266.038 277.291C265.989 277.316 265.934 277.328 265.879 277.326V277.326Z" fill="white"/>
<path d="M263.98 279.711C263.981 280.011 264.061 280.306 264.212 280.566C264.364 280.825 264.581 281.04 264.842 281.188C265.104 281.336 265.4 281.412 265.7 281.409C266 281.405 266.294 281.322 266.552 281.168C272.256 277.849 280.575 276.012 294.037 279.848C301.197 281.884 304.722 280.521 306.229 277.606C307.91 274.369 304.361 271.237 300.313 269.761C286.534 264.723 274.099 268.161 263.98 278.21V279.711Z" fill="#27DEBF"/>
<path d="M264.771 279.978C264.727 279.979 264.683 279.971 264.643 279.954C264.602 279.936 264.565 279.911 264.535 279.879C264.477 279.82 264.445 279.74 264.445 279.658C264.445 279.575 264.477 279.496 264.535 279.437C276.434 268.802 294.865 270.875 301.839 275.022C301.91 275.064 301.961 275.131 301.982 275.211C302.003 275.29 301.992 275.374 301.951 275.445C301.908 275.517 301.839 275.568 301.759 275.589C301.679 275.61 301.593 275.599 301.521 275.558C294.672 271.492 276.615 269.468 264.952 279.916C264.899 279.954 264.836 279.976 264.771 279.978V279.978Z" fill="white"/>
<path d="M130.849 304.505C125.619 296.523 116.64 290.657 106.242 286.591C95.9799 282.581 94.8529 275.838 102.126 274.555C110.37 273.104 119.778 278.689 125.457 285.576C135.345 297.581 135.775 305.919 135.775 305.919L130.849 304.505Z" fill="#27DEBF"/>
<path opacity="0.15" d="M130.849 304.505C125.619 296.523 116.64 290.657 106.242 286.591C95.9799 282.581 94.8529 275.838 102.126 274.555C110.37 273.104 119.778 278.689 125.457 285.576C135.345 297.581 135.775 305.919 135.775 305.919L130.849 304.505Z" fill="black"/>
<path d="M134.012 304.455C134.057 304.464 134.103 304.464 134.149 304.455C134.226 304.427 134.29 304.37 134.326 304.295C134.362 304.221 134.368 304.135 134.342 304.057C127.492 284.436 108.04 277.494 103.133 277.282C103.052 277.279 102.972 277.307 102.912 277.362C102.851 277.417 102.814 277.493 102.81 277.575C102.808 277.657 102.838 277.738 102.893 277.799C102.949 277.861 103.026 277.898 103.109 277.905C107.903 278.104 127.019 284.96 133.75 304.281C133.774 304.331 133.811 304.373 133.857 304.404C133.903 304.434 133.956 304.452 134.012 304.455Z" fill="white"/>
<path d="M135.818 305.539C135.769 305.981 135.607 306.404 135.348 306.765C135.088 307.127 134.74 307.416 134.336 307.603C133.932 307.791 133.487 307.872 133.043 307.837C132.599 307.803 132.172 307.655 131.802 307.407C126.522 303.87 118.657 301.572 105.774 303.671C98.4269 304.848 95.0894 303.048 93.9437 300.003C92.661 296.591 96.5589 293.907 100.749 292.917C115.027 289.542 126.97 294.424 135.831 305.589L135.818 305.539Z" fill="#27DEBF"/>
<path d="M134.834 307.214C134.878 307.22 134.922 307.217 134.964 307.204C135.006 307.191 135.044 307.169 135.077 307.139C135.134 307.08 135.166 307.001 135.166 306.918C135.166 306.836 135.134 306.756 135.077 306.697C124.492 294.736 105.967 294.617 98.5512 297.911C98.4752 297.945 98.4158 298.008 98.386 298.085C98.3562 298.163 98.3585 298.249 98.3924 298.325C98.4262 298.401 98.4889 298.461 98.5665 298.49C98.6442 298.52 98.7305 298.518 98.8065 298.484C106.073 295.252 124.255 295.371 134.61 307.108C134.637 307.141 134.671 307.168 134.71 307.186C134.749 307.205 134.791 307.214 134.834 307.214V307.214Z" fill="white"/>
<g filter="url(#filter0_d)">
<path d="M91.2216 349.929C34.9261 317.426 34.9261 264.723 91.2216 232.245C147.517 199.767 238.794 199.742 295.108 232.245C351.422 264.748 351.404 317.451 295.108 349.929C238.813 382.408 147.523 382.439 91.2216 349.929Z" fill="#F5F5F5"/>
</g>
<g filter="url(#filter1_d)">
<path d="M274.623 162.238L274.523 162.189L250.787 148.527L250.644 148.459C239.554 142.855 224.759 144.542 208.844 154.829C176.876 175.501 152.517 223.086 154.435 261.112C155.388 280.06 162.698 293.055 173.738 298.771L173.831 298.821L197.573 312.488L197.686 312.551C208.775 318.155 223.582 316.492 239.51 306.193C271.478 285.521 295.837 237.936 293.919 199.91C292.979 180.95 285.669 167.955 274.623 162.238Z" fill="url(#paint0_radial)"/>
<path d="M196.758 312.046L173.863 298.808L173.751 298.74C162.711 293.011 155.407 280.016 154.448 261.093C153.595 244.131 157.972 225.283 165.905 207.78L166.061 207.394L189.648 221.441C181.702 238.945 177.337 257.793 178.19 274.754C179.093 293.304 186.111 306.143 196.758 312.046Z" fill="#1B3342"/>
<path d="M239.523 306.181C271.49 285.508 295.849 237.924 293.931 199.897C292.014 161.871 264.541 147.811 232.574 168.484C200.606 189.156 176.241 236.741 178.159 274.761C180.076 312.781 207.555 326.853 239.523 306.181Z" fill="url(#paint1_radial)"/>
<path d="M266.596 159.287L226.528 241.834L217.904 232.494C215.332 229.817 211.813 228.255 208.103 228.144C204.392 228.033 200.786 229.381 198.059 231.899C195.332 234.418 193.701 237.905 193.517 241.613C193.333 245.321 194.611 248.953 197.075 251.729L219.797 276.343C222.295 279.057 225.758 280.684 229.442 280.876C229.703 280.876 229.965 280.876 230.226 280.876C230.914 280.875 231.601 280.825 232.281 280.726C234.568 280.393 236.739 279.505 238.604 278.14C240.469 276.774 241.971 274.973 242.979 272.893L288.932 178.247C284.218 167.737 276.372 161.224 266.596 159.287Z" fill="#1B3342"/>
<path d="M299.137 132.101C298.888 131.958 298.627 131.821 298.365 131.697C295.428 130.274 292.047 130.074 288.963 131.141C285.879 132.208 283.344 134.454 281.914 137.388L230.93 242.407L228.028 239.294C227.191 238.379 226.216 237.6 225.139 236.984C223.62 236.112 217.157 232.37 216.11 231.766C213.561 230.291 210.567 229.779 207.672 230.323C204.777 230.867 202.173 232.432 200.333 234.732C198.493 237.032 197.539 239.916 197.644 242.86C197.749 245.804 198.906 248.612 200.905 250.776L223.626 275.384C224.478 276.308 225.467 277.096 226.559 277.719C228.041 278.559 234.479 282.295 235.538 282.906C237.002 283.753 238.625 284.29 240.306 284.483C241.987 284.675 243.69 284.519 245.307 284.024C246.925 283.53 248.424 282.706 249.709 281.607C250.995 280.507 252.04 279.153 252.779 277.632L313.097 153.391C314.453 150.59 314.701 147.381 313.79 144.406C312.878 141.431 310.876 138.911 308.184 137.351L299.137 132.101Z" fill="#27DEBF"/>
<path opacity="0.15" d="M299.137 132.101C298.888 131.958 298.627 131.821 298.365 131.697C295.428 130.274 292.047 130.074 288.963 131.141C285.879 132.208 283.344 134.454 281.914 137.388L230.93 242.407L228.028 239.294C227.191 238.379 226.216 237.6 225.139 236.984C223.62 236.112 217.157 232.37 216.11 231.766C213.561 230.291 210.567 229.779 207.672 230.323C204.777 230.867 202.173 232.432 200.333 234.732C198.493 237.032 197.539 239.916 197.644 242.86C197.749 245.804 198.906 248.612 200.905 250.776L223.626 275.384C224.478 276.308 225.467 277.096 226.559 277.719C228.041 278.559 234.479 282.295 235.538 282.906C237.002 283.753 238.625 284.29 240.306 284.483C241.987 284.675 243.69 284.519 245.307 284.024C246.925 283.53 248.424 282.706 249.709 281.607C250.995 280.507 252.04 279.153 252.779 277.632L313.097 153.391C314.453 150.59 314.701 147.381 313.79 144.406C312.878 141.431 310.876 138.911 308.184 137.351L299.137 132.101Z" fill="black"/>
<path opacity="0.15" d="M235.507 282.881C234.461 282.258 228.035 278.522 226.535 277.694C225.443 277.07 224.454 276.283 223.602 275.359L200.881 250.751C199.879 249.658 199.083 248.392 198.533 247.015L207.568 252.227C208.116 253.608 208.916 254.875 209.928 255.963L232.643 280.571C233.479 281.477 234.444 282.256 235.507 282.881V282.881Z" fill="black"/>
<path opacity="0.15" d="M293.808 138.82C292.621 139.885 291.652 141.171 290.956 142.606L238.515 250.626L230.931 242.407L281.915 137.388C282.61 135.95 283.581 134.664 284.773 133.602L293.808 138.82Z" fill="black"/>
<path d="M307.406 136.915C304.468 135.495 301.088 135.297 298.005 136.363C294.922 137.43 292.387 139.674 290.955 142.606L238.514 250.626L228.034 239.269C225.791 236.991 222.75 235.675 219.554 235.6C216.358 235.525 213.259 236.697 210.912 238.867C208.565 241.038 207.155 244.037 206.98 247.229C206.806 250.421 207.88 253.555 209.977 255.969L232.692 280.583C234.052 282.054 235.75 283.171 237.639 283.837C239.528 284.503 241.552 284.698 243.534 284.404C245.515 284.111 247.395 283.339 249.011 282.154C250.626 280.969 251.928 279.408 252.804 277.607L313.122 153.365C314.543 150.426 314.74 147.042 313.668 143.957C312.596 140.873 310.344 138.34 307.406 136.915Z" fill="url(#paint2_linear)"/>
</g>
<path d="M135.4 149.057C130.649 149.057 127.399 150.302 124.024 155.097C120.911 159.505 112.417 174.2 112.417 174.2C112.417 174.2 106.191 161.423 105.568 158.876C104.945 156.329 104.983 155.196 105.568 154.088C106.425 152.778 106.963 151.285 107.137 149.729C107.38 146.666 108.127 144.044 107.442 143.957C105.543 143.851 105.468 146.292 104.472 147.73C104.346 147.869 104.188 147.976 104.013 148.043C103.837 148.11 103.648 148.134 103.461 148.114C103.274 148.094 103.095 148.03 102.937 147.928C102.78 147.825 102.649 147.687 102.554 147.525C102.137 146.672 102.361 145.271 102.162 144.262C102.216 143.701 102.306 143.143 102.43 142.593C103.149 142.723 103.884 142.744 104.609 142.656C105.431 143.945 105.992 144.486 107.137 143.963C107.287 143.727 106.645 142.095 105.892 140.85C105.779 140.659 105.595 140.521 105.381 140.464C104 140.114 102.558 140.074 101.16 140.346C101.054 140.356 100.951 140.388 100.858 140.44C100.765 140.491 100.683 140.561 100.618 140.644C100.092 141.415 99.6733 142.252 99.3726 143.135C99.2916 143.403 99.0425 143.397 98.9803 143.166C98.3576 140.159 98.3576 135.887 98.3576 133.888C98.3576 132.313 96.06 132.064 95.979 134.318C95.8425 137.342 95.8945 140.372 96.1347 143.39C96.1347 143.664 95.8607 143.795 95.7486 143.496C95.3501 142.431 94.3725 139.212 93.9616 133.658C93.8495 132.164 91.4335 131.921 91.4709 134.019C91.5655 137.74 92.0497 141.44 92.9155 145.059C92.9902 145.321 92.7474 145.551 92.5668 145.252C91.4333 143.068 90.5277 140.773 89.8644 138.403C89.3476 136.597 86.9379 137.058 87.3737 139.306C88.1272 143.334 89.3227 148.428 91.1097 152.07C93.0151 155.962 94.6589 157.911 95.6054 160.968C96.5519 164.026 100.468 181.342 104.659 188.092C107.94 193.384 111.695 192.893 115.736 190.103C119.777 187.313 134.217 167.195 134.217 167.195L135.4 149.057Z" fill="#DE9898"/>
<path d="M112.418 174.194C112.418 174.194 114.442 177.625 114.753 180.371C115.267 177.705 114.756 174.943 113.321 172.637L112.418 174.194Z" fill="#B47575"/>
<path d="M136.409 149.057C133.993 148.808 130.985 148.727 127.635 150.837C124.285 152.948 123.115 155.887 121.49 158.459C119.865 161.031 114.248 170.14 114.248 170.14C114.248 170.14 116.309 178.789 124.503 180.57L136.776 163.92L136.409 149.057Z" fill="#1B3342"/>
<path d="M147.411 301.132C148.034 301.051 148.862 303.174 148.874 303.865C148.887 304.556 148.189 306.044 147.274 307.439C146.051 309.1 145.036 310.904 144.254 312.813C143.55 314.731 142.903 315.989 140.941 318.498C138.762 321.294 133.644 325.97 125.873 323.94C123.974 323.442 123.027 322.844 122.336 322.153C122.033 321.846 121.821 321.461 121.726 321.041C121.63 320.621 121.654 320.182 121.794 319.774L147.411 301.132Z" fill="#263238"/>
<path d="M132.144 298.703V298.771C132.055 299.353 132.072 299.946 132.194 300.521C132.408 302.236 132.256 303.976 131.748 305.628C131.241 307.28 130.389 308.805 129.249 310.104C128.167 311.234 126.945 312.222 125.613 313.043C121.677 315.534 121.254 317.234 121.808 319.774C123.128 322.732 132.051 324.531 137.182 320.129C139.396 318.41 141.088 316.11 142.07 313.485C142.814 311.605 143.68 309.774 144.66 308.006C145.65 306.138 147.531 304.033 147.587 302.109C147.618 301.05 146.572 299.083 145.557 297.464C144.623 295.976 143.658 294.562 142.817 294.724L143.054 295.565C142.35 296.293 141.335 296.567 140.725 297.433C139.965 298.485 139.99 299.923 139.523 301.106C139.508 301.167 139.479 301.224 139.439 301.272C139.4 301.321 139.349 301.36 139.293 301.387C139.227 301.398 139.159 301.387 139.1 301.357C139.041 301.327 138.992 301.278 138.963 301.219C138.912 301.096 138.888 300.965 138.894 300.832L138.838 299.021C138.866 298.672 138.774 298.325 138.577 298.037C138.091 297.489 136.895 297.551 136.229 297.526C135.332 297.533 134.437 297.587 133.545 297.688C133.237 297.657 132.927 297.739 132.674 297.918C132.419 298.118 132.234 298.392 132.144 298.703V298.703Z" fill="url(#paint3_radial)"/>
<path d="M118.955 262.501C121.029 269.319 130.724 292.925 131.303 294.344L133.233 299.027C134.504 299.445 135.866 299.503 137.169 299.195C137.374 301.455 137.716 304.998 137.847 306.785C137.897 308.859 138.078 311.424 137.629 313.473C137.249 315.216 136.807 317.047 136.477 318.797C136.334 319.569 136.191 320.347 136.073 321.125C135.872 321.941 135.939 322.799 136.266 323.573C136.464 323.91 136.726 324.206 137.038 324.444C138.421 325.531 140.169 326.043 141.919 325.876C142.845 325.832 143.741 325.535 144.51 325.017C146.017 323.94 146.546 322.066 147.312 320.472C148.146 318.747 147.878 318.554 147.934 316.704C147.984 315.409 148.345 312.122 148.862 308.685C149.379 305.247 151.608 293.168 152.679 281.131C153.116 275.785 153.116 270.413 152.679 265.067C161.185 241.959 164.971 228.217 166.085 220.546C167.212 212.75 166.671 209.96 166.527 205.483L125.163 206.48C121.851 227.862 116.172 253.36 118.955 262.501Z" fill="#9E6767"/>
<path d="M118.308 245.44C119.161 237.582 125.039 207.376 125.039 207.376H166.708C166.708 207.376 166.976 213.173 166.901 215.838C166.827 218.503 165.967 223.366 164.479 229.537C162.991 235.708 157.474 253.124 156.385 255.689C155.295 258.254 153.271 265.695 153.271 265.695C154.292 279.668 151.634 292.209 149.641 308.877C149.641 308.877 149.062 311.125 143.159 310.683C137.418 310.247 136.26 308.13 136.26 308.13L135.88 293.753C135.88 293.753 132.767 294.712 130.899 294.276C130.899 294.276 118.564 263.821 117.966 261.99C117.368 260.16 117.455 253.298 118.308 245.44Z" fill="#27DEBF"/>
<path opacity="0.45" d="M118.308 245.44C119.161 237.582 125.039 207.376 125.039 207.376H166.708C166.708 207.376 166.976 213.173 166.901 215.838C166.827 218.503 165.967 223.366 164.479 229.537C162.991 235.708 157.474 253.124 156.385 255.689C155.295 258.254 153.271 265.695 153.271 265.695C154.292 279.668 151.634 292.209 149.641 308.877C149.641 308.877 149.062 311.125 143.159 310.683C137.418 310.247 136.26 308.13 136.26 308.13L135.88 293.753C135.88 293.753 132.767 294.712 130.899 294.276C130.899 294.276 118.564 263.821 117.966 261.99C117.368 260.16 117.455 253.298 118.308 245.44Z" fill="url(#paint4_linear)"/>
<path opacity="0.2" d="M135.985 227.065C130.082 221.747 128.769 217.513 128.769 217.513C131.736 220.857 135.25 223.672 139.161 225.838C139.161 225.838 133.557 255.427 133.968 261.511C134.379 267.594 135.879 293.753 135.879 293.753C135.879 294.002 131.907 266.088 131.788 263.865C131.521 257.98 135.985 227.065 135.985 227.065Z" fill="black"/>
<path d="M148.956 323.69C149.535 323.859 149.46 325.59 149.199 326.237C148.551 327.367 147.633 328.319 146.528 329.008C144.907 330.111 143.556 331.565 142.574 333.261C140.975 335.706 138.86 337.772 136.378 339.313C133.072 341.189 129.175 341.735 125.481 340.839C121.571 339.73 121.21 338.771 121.241 337.296L148.956 323.69Z" fill="#263238"/>
<path d="M136.875 314.637C135.848 319.618 134.061 323.28 129.92 326.356C126.62 328.809 124.229 330.054 121.595 332.24C120.48 333.174 120.387 335.16 121.24 337.302C123.021 338.728 125.549 339.55 128.942 339.544C132.741 339.544 134.198 338.865 136.377 337.377C137.448 336.645 138.444 335.811 139.353 334.886C141.178 333.055 142.467 330.795 143.762 329.344C145.057 327.894 147.927 326.412 148.743 324.662C149.192 323.703 149.005 321.48 148.706 319.587C148.432 317.85 148.961 314.799 148.127 314.606L148.008 315.851C147.94 316.131 147.766 316.275 147.18 316.474C146.654 316.588 146.112 316.603 145.58 316.517C145.391 316.449 145.186 316.442 144.992 316.496C144.799 316.551 144.628 316.665 144.503 316.822C143.942 317.483 143.793 318.417 143.071 318.964C143.024 319.005 142.969 319.035 142.909 319.052C142.881 319.067 142.849 319.075 142.818 319.074C142.786 319.073 142.755 319.063 142.728 319.045C142.709 319.015 142.696 318.981 142.691 318.946C142.685 318.911 142.688 318.874 142.697 318.84L142.903 316.972C142.927 316.786 142.927 316.598 142.903 316.412C142.863 316.238 142.788 316.075 142.68 315.933C142.573 315.791 142.436 315.674 142.28 315.59C141.755 315.284 141.192 315.052 140.605 314.898C139.994 314.733 139.368 314.626 138.737 314.581C138.117 314.501 137.489 314.52 136.875 314.637Z" fill="url(#paint5_radial)"/>
<path d="M162.947 150.844C162.947 150.844 164.659 153.198 166.06 158.048C167.766 166.014 168.642 174.136 168.676 182.282C168.676 193.285 167.194 211.112 167.194 211.112C154.423 217.513 133.825 213.727 124.759 207.482C125.126 205.502 125.438 195.091 126.154 188.223C126.633 176.442 127.032 170.271 127.112 165.028C127.281 154.555 132.492 149.144 136.453 149.063L146.453 149.219L162.947 150.844Z" fill="url(#paint6_linear)"/>
<path d="M166.098 207.881C164.198 209.444 160.494 212.445 159.79 213.958C159.005 215.689 158.545 218.317 158.015 219.3C157.486 220.284 158.283 220.782 159.379 220.427C160.475 220.072 161.129 219.145 161.976 216.878C162.822 214.612 165.176 212.837 165.176 212.837L166.098 207.881Z" fill="#C57C7C"/>
<path d="M159.161 228.26C159.616 229.138 160.674 229.145 161.652 229.219C162.844 229.356 164.051 229.22 165.182 228.821C166.542 228.428 167.735 227.599 168.576 226.461C169.535 225.079 169.784 223.348 170.332 221.76C171.478 218.428 174.89 216.025 175.45 212.494C175.681 211.037 175.681 209.319 176.073 208.416C176.316 207.88 181.926 198.223 183.931 194.039C185.849 190.016 187.287 188.123 185.544 183.291C183.8 178.459 177.866 161.454 173.663 155.545C171.285 152.195 167.505 151.236 162.922 150.844C159.435 159.923 163.489 169.306 163.489 169.306L172.742 187.102C172.742 187.102 169.155 199.356 166.913 206.168C166.291 208.036 165.045 209.232 163.62 211.33C162.997 212.239 161.59 213.821 161.092 214.811C160.469 216.056 160.469 216.878 160.158 218.64C159.672 221.448 158.918 227.843 159.161 228.26Z" fill="#DE9898"/>
<path d="M162.455 150.794C164.865 150.888 168.327 151.299 170.394 152.345C172.461 153.391 173.9 154.68 176.278 159.449C178.657 164.219 182.138 173.484 182.138 173.484C182.138 173.484 180.986 180.477 169.927 182.289L162.455 168.509C162.455 168.509 159.124 159.923 162.455 150.794Z" fill="#1B3342"/>
<path d="M133.725 128.54C134.052 129.131 134.335 129.745 134.572 130.377C134.94 131.202 135.411 131.979 135.973 132.687C137.405 134.337 139.416 135.545 141.253 136.716C142.362 137.425 143.632 138.092 144.989 137.899C146.347 137.706 147.86 137.998 149.261 138.123L154.161 138.565L153.887 143.714C153.887 143.714 154.51 142.351 155.326 140.719C156.035 139.318 159.012 132.214 159.024 132.183C160.5 128.664 162.25 123.97 160.487 120.271C160.087 119.36 159.418 118.593 158.57 118.073C158.74 117.504 158.795 116.907 158.732 116.317C158.634 115.479 158.349 114.674 157.898 113.96C157.448 113.247 156.843 112.644 156.129 112.195C154.734 111.252 153.162 110.604 151.509 110.289C149.316 109.785 147.071 109.536 144.821 109.549C142.616 109.616 140.421 109.868 138.258 110.302C137.052 110.525 135.83 110.652 134.603 110.682C134.075 110.716 133.544 110.691 133.022 110.607C132.372 110.413 131.734 110.182 131.11 109.916C131.056 109.893 130.997 109.881 130.939 109.881C130.88 109.881 130.822 109.893 130.767 109.916C130.718 109.949 130.676 109.992 130.645 110.042C130.614 110.093 130.594 110.15 130.587 110.209C130.425 110.986 130.432 111.789 130.607 112.563C130.782 113.338 131.121 114.066 131.602 114.698C131.322 114.66 131.049 114.58 130.792 114.461C130.501 114.327 130.22 114.17 129.952 113.994C129.495 113.688 129.094 113.305 128.769 112.861C128.724 112.792 128.655 112.741 128.576 112.718C128.451 112.718 128.351 112.805 128.277 112.905C127.941 113.404 127.712 113.969 127.605 114.561C127.498 115.154 127.514 115.762 127.654 116.348C127.929 117.524 128.484 118.616 129.273 119.53C128.888 120.152 128.666 120.86 128.627 121.59C128.588 122.32 128.733 123.049 129.049 123.708C129.326 124.293 129.698 124.827 130.151 125.29C130.711 125.862 131.396 126.329 131.963 126.865C132.613 127.354 133.204 127.916 133.725 128.54Z" fill="#1B3342"/>
<path d="M148.651 119.959C148.633 120.889 148.752 121.817 149.006 122.712C149.301 123.498 149.777 124.204 150.394 124.773C151.093 125.365 151.739 126.017 152.324 126.722C152.957 127.818 153.328 129.045 153.408 130.308C153.411 130.68 153.498 131.047 153.662 131.381C153.826 131.715 154.062 132.008 154.354 132.238C155.687 133.067 156.484 131.466 157.194 130.682C158.109 129.835 160.83 128.814 162.088 131.69C163.389 134.679 160.986 138.639 158.8 139.25C155.033 140.302 154.211 137.737 154.211 137.737L153.489 151.186C151.365 155.215 146.372 156.498 143.09 155.856C140.257 155.302 138.7 153.316 141.365 150.439L141.509 146.342C141.509 146.342 138.109 146.747 136.471 146.435C133.738 145.925 132.387 143.602 131.646 140.607C130.469 135.794 129.927 130.732 131.39 119.891C132.057 119.524 134.753 121.622 138.862 121.902C142.24 122.14 145.62 121.469 148.651 119.959V119.959Z" fill="#DE9898"/>
<path d="M141.484 146.33C141.484 146.33 147.648 145.296 149.828 144.225C151.106 143.609 152.17 142.622 152.879 141.392C152.515 142.634 151.905 143.79 151.085 144.792C149.454 146.741 141.428 147.961 141.428 147.961L141.484 146.33Z" fill="#C57C7C"/>
<path d="M144.69 124.773L147.561 125.651C147.671 125.258 147.624 124.839 147.432 124.48C147.239 124.122 146.915 123.851 146.527 123.727C146.338 123.671 146.139 123.654 145.944 123.677C145.748 123.7 145.558 123.762 145.387 123.86C145.215 123.957 145.065 124.089 144.946 124.245C144.826 124.402 144.739 124.582 144.69 124.773V124.773Z" fill="#263238"/>
<path d="M143.694 138.372L139.466 139.804C139.548 140.087 139.686 140.35 139.872 140.578C140.058 140.806 140.288 140.995 140.548 141.132C140.808 141.27 141.094 141.354 141.387 141.379C141.68 141.404 141.975 141.371 142.255 141.28C142.824 141.075 143.292 140.657 143.56 140.115C143.828 139.573 143.876 138.948 143.694 138.372V138.372Z" fill="#874C4C"/>
<path d="M143.352 139.405C142.8 139.406 142.264 139.589 141.828 139.927C141.392 140.266 141.08 140.739 140.942 141.273C141.369 141.413 141.829 141.413 142.256 141.273C142.65 141.134 142.999 140.89 143.264 140.567C143.53 140.245 143.702 139.856 143.763 139.443C143.627 139.418 143.49 139.405 143.352 139.405V139.405Z" fill="#F28F8F"/>
<path d="M131.876 125.227L134.797 124.847C134.775 124.658 134.715 124.476 134.621 124.31C134.527 124.145 134.401 123.999 134.25 123.883C134.099 123.767 133.926 123.683 133.742 123.634C133.558 123.586 133.366 123.575 133.178 123.602C132.793 123.652 132.442 123.849 132.199 124.152C131.957 124.455 131.841 124.841 131.876 125.227V125.227Z" fill="#263238"/>
<path d="M133.313 130.234C133.302 130.389 133.323 130.544 133.373 130.691C133.423 130.838 133.502 130.974 133.605 131.09C133.708 131.206 133.834 131.3 133.974 131.367C134.114 131.434 134.267 131.472 134.422 131.479C134.576 131.481 134.73 131.452 134.873 131.394C135.017 131.337 135.147 131.251 135.258 131.143C135.368 131.035 135.456 130.906 135.517 130.764C135.577 130.622 135.609 130.469 135.611 130.315C135.622 130.16 135.602 130.004 135.552 129.857C135.502 129.71 135.423 129.575 135.319 129.458C135.216 129.342 135.091 129.248 134.95 129.181C134.81 129.115 134.658 129.076 134.503 129.069C134.348 129.068 134.195 129.097 134.051 129.154C133.908 129.212 133.777 129.297 133.667 129.405C133.556 129.513 133.468 129.642 133.408 129.784C133.347 129.927 133.315 130.079 133.313 130.234V130.234Z" fill="#263238"/>
<path d="M144.317 130.233C144.319 130.459 144.386 130.68 144.512 130.867C144.638 131.055 144.816 131.202 145.025 131.289C145.233 131.376 145.462 131.4 145.684 131.358C145.906 131.316 146.111 131.209 146.273 131.052C146.435 130.894 146.547 130.692 146.595 130.471C146.643 130.251 146.625 130.021 146.543 129.81C146.462 129.599 146.32 129.417 146.136 129.287C145.951 129.156 145.733 129.082 145.507 129.075C145.196 129.072 144.896 129.192 144.673 129.409C144.45 129.626 144.322 129.922 144.317 130.233V130.233Z" fill="#263238"/>
<path d="M139.466 129.418L139.248 137.426L134.783 136.131L138.949 129.35C139.124 129.333 139.301 129.356 139.466 129.418Z" fill="#C58787"/>
<path d="M252.886 120.486C286.779 120.486 314.255 100.007 314.255 74.7432C314.255 49.4799 286.779 29 252.886 29C218.993 29 191.518 49.4799 191.518 74.7432C191.518 100.007 218.993 120.486 252.886 120.486Z" fill="url(#paint7_linear)"/>
<path d="M203.907 101.202C203.56 107.334 197.464 118.301 186.449 122.347C186.302 122.4 186.178 122.492 186.095 122.608C186.013 122.725 185.975 122.86 185.988 122.996C186.001 123.132 186.063 123.26 186.167 123.364C186.271 123.468 186.41 123.541 186.565 123.574C192.862 124.761 199.429 124.359 205.461 122.416C211.492 120.472 216.727 117.073 220.521 112.635L203.907 101.202Z" fill="url(#paint8_linear)"/>
<g filter="url(#filter2_d)">
<path d="M319.642 118.973L316.155 120.025L313.633 111.601L317.114 110.555L319.642 118.973Z" fill="#E0E0E0"/>
<path d="M330.551 111.495C330.58 111.837 330.5 112.179 330.322 112.472C330.144 112.765 329.877 112.994 329.561 113.126C329.787 113.384 329.955 113.688 330.053 114.017C330.252 114.639 329.723 115.542 328.67 115.885L320.681 118.288L318.334 110.461C318.334 110.461 319.685 107.006 319.754 106.482C319.822 105.959 319.025 104.042 318.913 103.68C318.801 103.319 320.096 102.846 321.117 103.257C321.355 103.363 321.567 103.518 321.74 103.712C322.107 104.103 322.416 104.545 322.655 105.025C322.994 105.71 323.161 106.466 323.141 107.23L327.979 105.754C328.313 105.633 328.679 105.633 329.013 105.754C329.231 105.84 329.424 105.982 329.572 106.164C329.72 106.347 329.818 106.565 329.857 106.797C329.895 107.029 329.874 107.267 329.793 107.488C329.713 107.708 329.577 107.905 329.399 108.058C329.687 108.037 329.973 108.113 330.213 108.275C330.452 108.436 330.63 108.673 330.719 108.948C330.793 109.268 330.754 109.603 330.608 109.897C330.463 110.191 330.221 110.426 329.922 110.561C330.245 110.779 330.47 111.114 330.551 111.495Z" fill="#E0E0E0"/>
<path d="M311.472 216.685L306.995 215.608L309.604 204.811L314.075 205.882L311.472 216.685Z" fill="#E0E0E0"/>
<path d="M328.141 215.471C327.955 215.862 327.65 216.185 327.269 216.392C326.889 216.599 326.453 216.68 326.024 216.623C326.104 217.048 326.094 217.485 325.992 217.906C325.793 218.747 324.654 219.363 323.309 219.033L313.06 216.542L315.476 206.511C315.476 206.511 319.155 203.603 319.56 203.074C319.965 202.545 320.314 199.961 320.426 199.481C320.538 199.002 322.25 199.326 323.103 200.428C323.31 200.695 323.455 201.006 323.527 201.337C323.678 201.996 323.732 202.673 323.689 203.348C323.621 204.312 323.322 205.245 322.817 206.069L329.006 207.563C329.445 207.657 329.838 207.901 330.114 208.255C330.268 208.456 330.377 208.688 330.434 208.935C330.49 209.182 330.494 209.438 330.444 209.687C330.361 210.014 330.189 210.312 329.946 210.546C329.702 210.78 329.399 210.942 329.068 211.013C329.396 211.173 329.66 211.439 329.818 211.768C329.976 212.097 330.019 212.469 329.94 212.825C329.814 213.219 329.556 213.557 329.211 213.784C328.865 214.01 328.452 214.111 328.041 214.07C328.255 214.507 328.291 215.009 328.141 215.471V215.471Z" fill="#E0E0E0"/>
<path d="M85.332 210.222L90.22 211.697L93.7567 199.904L88.875 198.428L85.332 210.222Z" fill="#E0E0E0"/>
<path d="M70.0573 199.748C70.0165 200.227 70.129 200.707 70.3786 201.118C70.6282 201.528 71.0019 201.849 71.4458 202.034C71.132 202.396 70.8985 202.82 70.7609 203.279C70.4807 204.194 71.2279 205.421 72.6911 205.857L83.8992 209.225L87.1744 198.248C87.1744 198.248 85.2753 193.403 85.1819 192.644C85.0885 191.884 86.2093 189.232 86.3587 188.721C86.4833 188.31 84.7024 187.557 83.2454 188.136C82.8989 188.271 82.588 188.484 82.3363 188.758C81.8189 189.314 81.3866 189.944 81.0536 190.626C80.5765 191.593 80.3414 192.662 80.3686 193.74L73.6438 191.71C73.1696 191.554 72.6554 191.571 72.193 191.76C71.8865 191.88 71.6166 192.078 71.4094 192.334C71.2023 192.59 71.0651 192.896 71.0111 193.221C70.9572 193.545 70.9884 193.879 71.1017 194.188C71.215 194.497 71.4065 194.772 71.6575 194.985C71.2511 194.95 70.8449 195.054 70.5055 195.281C70.1661 195.507 69.9136 195.842 69.7895 196.23C69.686 196.679 69.7404 197.149 69.9434 197.562C70.1465 197.975 70.4858 198.305 70.9041 198.497C70.4775 198.796 70.176 199.241 70.0573 199.748Z" fill="#E0E0E0"/>
</g>
<path d="M227.229 57.8294V56.2005H219.593V66.6614H221.536V62.6564H226.587V61.0125H221.536V57.8294H227.229ZM231.051 65.0325V62.1483H236.102V60.5493H231.051V57.8294H236.744V56.2005H229.108V66.6614H236.954V65.0325H231.051ZM241.062 65.0325V62.1483H246.113V60.5493H241.062V57.8294H246.756V56.2005H239.119V66.6614H246.965V65.0325H241.062ZM249.131 66.6614H256.543V65.0175H251.073V56.2005H249.131V66.6614ZM258.077 66.6614H260.019V56.2005H258.077V66.6614ZM270.216 56.2005V63.284L264.448 56.2005H262.849V66.6614H264.777V59.5779L270.545 66.6614H272.144V56.2005H270.216ZM282.09 64.5692C281.418 64.9578 280.686 65.1072 279.938 65.1072C277.727 65.1072 276.158 63.553 276.158 61.431C276.158 59.2641 277.727 57.7547 279.953 57.7547C281.074 57.7547 282.016 58.1283 282.838 58.9502L284.063 57.7547C283.077 56.6339 281.612 56.0511 279.864 56.0511C276.591 56.0511 274.2 58.3077 274.2 61.431C274.2 64.5543 276.591 66.8108 279.834 66.8108C281.313 66.8108 282.838 66.3625 283.929 65.4808V61.3114H282.09V64.5692ZM211.359 84.8706C213.287 84.8706 214.841 84.1682 215.857 82.898L213.974 81.1944C213.317 81.9864 212.51 82.4198 211.509 82.4198C209.79 82.4198 208.594 81.2242 208.594 79.431C208.594 77.6377 209.79 76.4421 211.509 76.4421C212.51 76.4421 213.317 76.8755 213.974 77.6676L215.857 75.9639C214.841 74.6937 213.287 73.9913 211.359 73.9913C208.041 73.9913 205.606 76.2479 205.606 79.431C205.606 82.614 208.041 84.8706 211.359 84.8706ZM222.233 84.8706C225.58 84.8706 228.046 82.5692 228.046 79.431C228.046 76.2927 225.58 73.9913 222.233 73.9913C218.885 73.9913 216.42 76.2927 216.42 79.431C216.42 82.5692 218.885 84.8706 222.233 84.8706ZM222.233 82.4198C220.649 82.4198 219.408 81.2392 219.408 79.431C219.408 77.6227 220.649 76.4421 222.233 76.4421C223.817 76.4421 225.057 77.6227 225.057 79.431C225.057 81.2392 223.817 82.4198 222.233 82.4198ZM236.649 74.2005V79.7747L232.032 74.2005H229.596V84.6614H232.495V79.0872L237.113 84.6614H239.549V74.2005H236.649ZM249.288 74.2005L246.389 81.015L243.549 74.2005H240.351L244.819 84.6614H247.734L252.217 74.2005H249.288ZM252.829 84.6614H255.788V74.2005H252.829V84.6614ZM264.947 74.2005V79.7747L260.329 74.2005H257.893V84.6614H260.792V79.0872L265.41 84.6614H267.846V74.2005H264.947ZM275.149 84.8706C277.076 84.8706 278.631 84.1682 279.647 82.898L277.764 81.1944C277.106 81.9864 276.299 82.4198 275.298 82.4198C273.579 82.4198 272.384 81.2242 272.384 79.431C272.384 77.6377 273.579 76.4421 275.298 76.4421C276.299 76.4421 277.106 76.8755 277.764 77.6676L279.647 75.9639C278.631 74.6937 277.076 73.9913 275.149 73.9913C271.831 73.9913 269.395 76.2479 269.395 79.431C269.395 82.614 271.831 84.8706 275.149 84.8706ZM283.895 82.3749V80.4621H288.543V78.2504H283.895V76.487H289.17V74.2005H280.966V84.6614H289.365V82.3749H283.895ZM291.007 84.6614H295.953C299.42 84.6614 301.796 82.6439 301.796 79.431C301.796 76.218 299.42 74.2005 295.953 74.2005H291.007V84.6614ZM293.965 82.3002V76.5617H295.833C297.612 76.5617 298.807 77.6227 298.807 79.431C298.807 81.2392 297.612 82.3002 295.833 82.3002H293.965ZM244.33 99.1944H246.228C246.228 97.431 248.784 97.2068 248.784 94.7709C248.784 93.0524 247.319 92.0511 245.122 92.0511C243.254 92.0511 241.909 92.7385 241.073 93.8743L242.522 94.8158C243.045 94.0835 243.852 93.6651 244.958 93.6651C246.109 93.6651 246.826 94.2329 246.826 95.0698C246.826 96.5642 244.33 96.9826 244.33 99.1944ZM245.287 102.766C245.974 102.766 246.467 102.243 246.467 101.6C246.467 100.958 245.974 100.45 245.287 100.45C244.584 100.45 244.091 100.958 244.091 101.6C244.091 102.243 244.584 102.766 245.287 102.766ZM252.678 99.1944H254.576C254.576 97.431 257.131 97.2068 257.131 94.7709C257.131 93.0524 255.667 92.0511 253.47 92.0511C251.602 92.0511 250.257 92.7385 249.42 93.8743L250.87 94.8158C251.393 94.0835 252.2 93.6651 253.306 93.6651C254.456 93.6651 255.174 94.2329 255.174 95.0698C255.174 96.5642 252.678 96.9826 252.678 99.1944ZM253.634 102.766C254.322 102.766 254.815 102.243 254.815 101.6C254.815 100.958 254.322 100.45 253.634 100.45C252.932 100.45 252.439 100.958 252.439 101.6C252.439 102.243 252.932 102.766 253.634 102.766ZM261.026 99.1944H262.924C262.924 97.431 265.479 97.2068 265.479 94.7709C265.479 93.0524 264.015 92.0511 261.818 92.0511C259.95 92.0511 258.605 92.7385 257.768 93.8743L259.217 94.8158C259.741 94.0835 260.548 93.6651 261.653 93.6651C262.804 93.6651 263.521 94.2329 263.521 95.0698C263.521 96.5642 261.026 96.9826 261.026 99.1944ZM261.982 102.766C262.67 102.766 263.163 102.243 263.163 101.6C263.163 100.958 262.67 100.45 261.982 100.45C261.28 100.45 260.787 100.958 260.787 101.6C260.787 102.243 261.28 102.766 261.982 102.766Z" fill="white"/>
</g>
<defs>
<filter id="filter0_d" x="36.5466" y="201.028" width="318.225" height="196.311" filterUnits="userSpaceOnUse" color-interpolation-filters="sRGB">
<feFlood flood-opacity="0" result="BackgroundImageFix"/>
<feColorMatrix in="SourceAlpha" type="matrix" values="0 0 0 0 0 0 0 0 0 0 0 0 0 0 0 0 0 0 127 0"/>
<feOffset dx="2.49067" dy="8.09469"/>
<feGaussianBlur stdDeviation="7.47202"/>
<feColorMatrix type="matrix" values="0 0 0 0 0 0 0 0 0 0 0 0 0 0 0 0 0 0 0.3 0"/>
<feBlend mode="normal" in2="BackgroundImageFix" result="effect1_dropShadow"/>
<feBlend mode="normal" in="SourceGraphic" in2="effect1_dropShadow" result="shape"/>
</filter>
<filter id="filter1_d" x="117.592" y="94.3486" width="222.288" height="247.521" filterUnits="userSpaceOnUse" color-interpolation-filters="sRGB">
<feFlood flood-opacity="0" result="BackgroundImageFix"/>
<feColorMatrix in="SourceAlpha" type="matrix" values="0 0 0 0 0 0 0 0 0 0 0 0 0 0 0 0 0 0 127 0"/>
<feOffset dx="-5.60402" dy="-4.98135"/>
<feGaussianBlur stdDeviation="15.5667"/>
<feColorMatrix type="matrix" values="0 0 0 0 1 0 0 0 0 1 0 0 0 0 1 0 0 0 0.06 0"/>
<feBlend mode="normal" in2="BackgroundImageFix" result="effect1_dropShadow"/>
<feBlend mode="normal" in="SourceGraphic" in2="effect1_dropShadow" result="shape"/>
</filter>
<filter id="filter2_d" x="33.0008" y="66.9831" width="323.284" height="178.293" filterUnits="userSpaceOnUse" color-interpolation-filters="sRGB">
<feFlood flood-opacity="0" result="BackgroundImageFix"/>
<feColorMatrix in="SourceAlpha" type="matrix" values="0 0 0 0 0 0 0 0 0 0 0 0 0 0 0 0 0 0 127 0"/>
<feOffset dx="-5.60402" dy="-4.98135"/>
<feGaussianBlur stdDeviation="15.5667"/>
<feColorMatrix type="matrix" values="0 0 0 0 0 0 0 0 0 0 0 0 0 0 0 0 0 0 0.25 0"/>
<feBlend mode="normal" in2="BackgroundImageFix" result="effect1_dropShadow"/>
<feBlend mode="normal" in="SourceGraphic" in2="effect1_dropShadow" result="shape"/>
</filter>
<radialGradient id="paint0_radial" cx="0" cy="0" r="1" gradientUnits="userSpaceOnUse" gradientTransform="translate(224.177 230.508) rotate(90) scale(85.2092 69.8479)">
<stop stop-color="#335063"/>
<stop offset="1" stop-color="#1B3342"/>
</radialGradient>
<radialGradient id="paint1_radial" cx="0" cy="0" r="1" gradientUnits="userSpaceOnUse" gradientTransform="translate(219.921 252.538) rotate(75.682) scale(65.199 48.2394)">
<stop stop-color="#335063"/>
<stop offset="1" stop-color="#1B3342"/>
</radialGradient>
<linearGradient id="paint2_linear" x1="260.656" y1="135.685" x2="260.656" y2="284.537" gradientUnits="userSpaceOnUse">
<stop stop-color="#379BE7"/>
<stop offset="1" stop-color="#1DE9C4"/>
</linearGradient>
<radialGradient id="paint3_radial" cx="0" cy="0" r="1" gradientUnits="userSpaceOnUse" gradientTransform="translate(134.599 308.74) rotate(90) scale(14.0287 12.988)">
<stop stop-color="#335063"/>
<stop offset="1" stop-color="#1B3342"/>
</radialGradient>
<linearGradient id="paint4_linear" x1="136.795" y1="230.434" x2="142.248" y2="310.741" gradientUnits="userSpaceOnUse">
<stop stop-color="#379BE7"/>
<stop offset="1" stop-color="#1DE9C4"/>
</linearGradient>
<radialGradient id="paint5_radial" cx="0" cy="0" r="1" gradientUnits="userSpaceOnUse" gradientTransform="translate(134.84 327.038) rotate(90) scale(12.5055 14.1704)">
<stop stop-color="#335063"/>
<stop offset="1" stop-color="#1B3342"/>
</radialGradient>
<linearGradient id="paint6_linear" x1="146.758" y1="157.27" x2="140.22" y2="212.687" gradientUnits="userSpaceOnUse">
<stop stop-color="#AEFFF1"/>
<stop offset="1" stop-color="#BCE0FC"/>
</linearGradient>
<linearGradient id="paint7_linear" x1="250.12" y1="29" x2="250.12" y2="124.241" gradientUnits="userSpaceOnUse">
<stop stop-color="#379BE7"/>
<stop offset="1" stop-color="#1DE9C4"/>
</linearGradient>
<linearGradient id="paint8_linear" x1="250.12" y1="29" x2="250.12" y2="124.241" gradientUnits="userSpaceOnUse">
<stop stop-color="#379BE7"/>
<stop offset="1" stop-color="#1DE9C4"/>
</linearGradient>
<clipPath id="clip0">
<rect width="346" height="397" fill="white"/>
</clipPath>
</defs>
</svg>
