<svg width="360" height="541" viewBox="0 0 360 541" fill="none" xmlns="http://www.w3.org/2000/svg">
<rect width="360" height="541" fill="url(#paint0_radial)"/>
<g clip-path="url(#clip0)">
<path d="M122.63 371.232C147.06 371.232 166.864 359.799 166.864 345.696C166.864 331.593 147.06 320.16 122.63 320.16C98.1999 320.16 78.3955 331.593 78.3955 345.696C78.3955 359.799 98.1999 371.232 122.63 371.232Z" fill="#E0E0E0"/>
<path d="M224.868 333.767C255.541 317.224 273.733 291.439 265.5 276.175C257.268 260.912 225.729 261.949 195.056 278.492C164.383 295.036 146.191 320.82 154.424 336.084C162.656 351.348 194.195 350.311 224.868 333.767Z" fill="#E0E0E0"/>
<path d="M255.39 297.507C261.523 290.197 271.131 285.434 281.934 282.619C292.607 279.848 294.519 273.279 287.445 271.156C279.431 268.74 269.431 273.173 262.98 279.344C251.747 290.097 250.334 298.31 250.334 298.31L255.39 297.507Z" fill="#27DEBF"/>
<path opacity="0.15" d="M255.39 297.507C261.523 290.197 271.131 285.434 281.934 282.619C292.607 279.848 294.519 273.279 287.445 271.156C279.431 268.74 269.431 273.173 262.98 279.344C251.747 290.097 250.334 298.31 250.334 298.31L255.39 297.507Z" fill="black"/>
<path d="M252.232 297.065C252.187 297.074 252.14 297.074 252.095 297.065C252.058 297.047 252.025 297.022 251.998 296.991C251.971 296.961 251.95 296.925 251.937 296.886C251.923 296.847 251.918 296.806 251.921 296.766C251.923 296.725 251.934 296.685 251.952 296.648C261.055 277.968 281.217 273.372 286.099 273.721C286.18 273.728 286.256 273.766 286.31 273.827C286.363 273.889 286.391 273.97 286.385 274.051C286.377 274.133 286.338 274.209 286.275 274.262C286.212 274.316 286.131 274.343 286.049 274.338C281.267 273.976 261.472 278.528 252.512 296.922C252.482 296.968 252.44 297.005 252.391 297.03C252.342 297.055 252.287 297.067 252.232 297.065V297.065Z" fill="white"/>
<path d="M250.333 299.45C250.333 299.75 250.413 300.045 250.565 300.304C250.716 300.564 250.934 300.778 251.195 300.926C251.456 301.075 251.752 301.151 252.052 301.147C252.353 301.144 252.647 301.061 252.905 300.907C258.608 297.588 266.927 295.751 280.389 299.587C287.55 301.623 291.074 300.259 292.581 297.345C294.262 294.107 290.713 290.975 286.666 289.5C272.886 284.462 260.451 287.899 250.333 297.949V299.45Z" fill="#27DEBF"/>
<path d="M251.124 299.717C251.08 299.718 251.036 299.71 250.995 299.692C250.954 299.675 250.918 299.65 250.887 299.618C250.83 299.558 250.798 299.479 250.798 299.397C250.798 299.314 250.83 299.235 250.887 299.176C262.787 288.54 281.218 290.614 288.191 294.761C288.262 294.802 288.314 294.87 288.335 294.949C288.356 295.029 288.344 295.113 288.304 295.184C288.261 295.255 288.192 295.307 288.112 295.328C288.031 295.349 287.946 295.337 287.874 295.296C281.025 291.23 262.967 289.207 251.305 299.655C251.252 299.693 251.189 299.714 251.124 299.717V299.717Z" fill="white"/>
<path d="M117.202 324.244C111.972 316.261 102.993 310.396 92.5941 306.33C82.3325 302.32 81.2054 295.576 88.4782 294.294C96.7223 292.843 106.131 298.428 111.81 305.315C121.698 317.32 122.127 325.657 122.127 325.657L117.202 324.244Z" fill="#27DEBF"/>
<path opacity="0.15" d="M117.202 324.244C111.972 316.261 102.993 310.396 92.5941 306.33C82.3325 302.32 81.2054 295.576 88.4782 294.294C96.7223 292.843 106.131 298.428 111.81 305.315C121.698 317.32 122.127 325.657 122.127 325.657L117.202 324.244Z" fill="black"/>
<path d="M120.364 324.194C120.409 324.203 120.456 324.203 120.501 324.194C120.579 324.166 120.642 324.108 120.679 324.034C120.715 323.96 120.72 323.874 120.694 323.796C113.845 304.175 94.3926 297.232 89.486 297.021C89.4044 297.017 89.3248 297.046 89.2642 297.101C89.2037 297.156 89.167 297.232 89.1622 297.313C89.1604 297.396 89.1903 297.477 89.2459 297.538C89.3015 297.599 89.3785 297.637 89.4611 297.643C94.2556 297.843 113.372 304.698 120.103 324.02C120.127 324.069 120.164 324.112 120.21 324.142C120.256 324.173 120.309 324.191 120.364 324.194Z" fill="white"/>
<path d="M122.171 325.278C122.122 325.72 121.96 326.143 121.7 326.504C121.441 326.866 121.092 327.154 120.688 327.342C120.285 327.53 119.84 327.61 119.396 327.576C118.952 327.542 118.524 327.393 118.154 327.146C112.874 323.609 105.01 321.311 92.1269 323.41C84.7795 324.586 81.442 322.787 80.2962 319.742C79.0135 316.33 82.9115 313.646 87.102 312.656C101.38 309.281 113.323 314.163 122.183 325.327L122.171 325.278Z" fill="#27DEBF"/>
<path d="M121.187 326.953C121.23 326.959 121.274 326.955 121.316 326.942C121.358 326.929 121.397 326.907 121.429 326.878C121.487 326.819 121.519 326.739 121.519 326.657C121.519 326.574 121.487 326.495 121.429 326.436C110.844 314.474 92.3197 314.356 84.9037 317.65C84.8277 317.684 84.7683 317.746 84.7386 317.824C84.7088 317.902 84.7111 317.988 84.7449 318.064C84.7788 318.14 84.8414 318.199 84.9191 318.229C84.9967 318.259 85.083 318.257 85.159 318.223C92.4255 314.991 110.607 315.11 120.962 326.847C120.99 326.88 121.024 326.907 121.062 326.925C121.101 326.944 121.144 326.953 121.187 326.953V326.953Z" fill="white"/>
<g filter="url(#filter0_d)">
<path d="M77.5742 369.668C21.2787 337.165 21.2787 284.462 77.5742 251.984C133.87 219.505 225.147 219.481 281.461 251.984C337.775 284.487 337.756 337.19 281.461 369.668C225.165 402.147 133.876 402.178 77.5742 369.668Z" fill="#F5F5F5"/>
</g>
<g filter="url(#filter1_d)">
<path d="M260.975 181.977L260.875 181.927L237.139 168.266L236.996 168.198C225.906 162.594 211.112 164.281 195.196 174.567C163.229 195.24 138.87 242.824 140.788 280.851C141.74 299.799 149.05 312.794 160.09 318.51L160.184 318.56L183.926 332.227L184.038 332.289C195.128 337.893 209.935 336.231 225.863 325.932C257.831 305.259 282.189 257.675 280.272 219.649C279.331 200.688 272.021 187.693 260.975 181.977Z" fill="url(#paint1_radial)"/>
<path d="M183.111 331.785L160.215 318.547L160.103 318.478C149.063 312.75 141.759 299.755 140.801 280.832C139.948 263.87 144.325 245.022 152.258 227.519L152.413 227.133L176 241.18C168.055 258.683 163.69 277.532 164.543 294.493C165.446 313.042 172.463 325.882 183.111 331.785Z" fill="#1B3342"/>
<path d="M225.875 325.919C257.843 305.247 282.202 257.662 280.284 219.636C278.366 181.61 250.894 167.55 218.926 188.222C186.958 208.895 162.593 256.479 164.511 294.499C166.429 332.52 193.907 346.592 225.875 325.919Z" fill="url(#paint2_radial)"/>
<path d="M252.949 179.026L212.88 261.573L204.256 252.233C201.685 249.556 198.166 247.994 194.456 247.883C190.745 247.771 187.139 249.12 184.412 251.638C181.685 254.157 180.054 257.644 179.87 261.352C179.686 265.059 180.964 268.691 183.428 271.467L206.149 296.081C208.648 298.796 212.11 300.423 215.794 300.614C216.056 300.614 216.317 300.614 216.579 300.614C217.267 300.614 217.953 300.564 218.634 300.465C220.921 300.132 223.092 299.244 224.956 297.879C226.821 296.513 228.323 294.712 229.331 292.632L275.284 197.986C270.571 187.476 262.725 180.962 252.949 179.026Z" fill="#1B3342"/>
<path d="M285.49 151.84C285.241 151.697 284.979 151.56 284.718 151.436C281.781 150.012 278.399 149.812 275.315 150.879C272.231 151.946 269.696 154.193 268.267 157.127L217.283 262.146L214.381 259.033C213.543 258.118 212.569 257.338 211.492 256.723C209.972 255.851 203.509 252.109 202.463 251.505C199.913 250.029 196.919 249.518 194.024 250.062C191.129 250.606 188.525 252.17 186.685 254.471C184.845 256.771 183.891 259.655 183.996 262.599C184.101 265.543 185.258 268.351 187.257 270.515L209.979 295.123C210.83 296.047 211.82 296.835 212.911 297.458C214.393 298.298 220.832 302.034 221.89 302.644C223.354 303.492 224.978 304.029 226.659 304.222C228.339 304.414 230.042 304.258 231.66 303.763C233.278 303.268 234.776 302.445 236.062 301.345C237.348 300.245 238.393 298.892 239.132 297.37L299.45 173.129C300.806 170.329 301.053 167.12 300.142 164.145C299.231 161.17 297.229 158.65 294.537 157.089L285.49 151.84Z" fill="#27DEBF"/>
<path opacity="0.15" d="M285.49 151.84C285.241 151.697 284.979 151.56 284.718 151.436C281.781 150.012 278.399 149.812 275.315 150.879C272.231 151.946 269.696 154.193 268.267 157.127L217.283 262.146L214.381 259.033C213.543 258.118 212.569 257.338 211.492 256.723C209.972 255.851 203.509 252.109 202.463 251.505C199.913 250.029 196.919 249.518 194.024 250.062C191.129 250.606 188.525 252.17 186.685 254.471C184.845 256.771 183.891 259.655 183.996 262.599C184.101 265.543 185.258 268.351 187.257 270.515L209.979 295.123C210.83 296.047 211.82 296.835 212.911 297.458C214.393 298.298 220.832 302.034 221.89 302.644C223.354 303.492 224.978 304.029 226.659 304.222C228.339 304.414 230.042 304.258 231.66 303.763C233.278 303.268 234.776 302.445 236.062 301.345C237.348 300.245 238.393 298.892 239.132 297.37L299.45 173.129C300.806 170.329 301.053 167.12 300.142 164.145C299.231 161.17 297.229 158.65 294.537 157.089L285.49 151.84Z" fill="black"/>
<path opacity="0.15" d="M221.86 302.619C220.814 301.997 214.388 298.261 212.887 297.433C211.796 296.809 210.807 296.022 209.954 295.098L187.233 270.49C186.231 269.396 185.436 268.131 184.886 266.754L193.921 271.965C194.468 273.346 195.269 274.613 196.281 275.701L218.996 300.309C219.831 301.216 220.797 301.995 221.86 302.619V302.619Z" fill="black"/>
<path opacity="0.15" d="M280.16 158.559C278.973 159.624 278.005 160.91 277.308 162.344L224.867 270.365L217.283 262.146L268.267 157.126C268.962 155.689 269.933 154.403 271.125 153.341L280.16 158.559Z" fill="black"/>
<path d="M293.758 156.653C290.821 155.234 287.441 155.035 284.358 156.102C281.274 157.169 278.739 159.413 277.307 162.344L224.866 270.365L214.387 259.008C212.144 256.729 209.103 255.414 205.907 255.339C202.711 255.264 199.611 256.436 197.264 258.606C194.917 260.777 193.507 263.775 193.333 266.967C193.158 270.159 194.233 273.294 196.329 275.708L219.044 300.322C220.404 301.793 222.102 302.91 223.992 303.576C225.881 304.242 227.904 304.436 229.886 304.143C231.868 303.85 233.748 303.077 235.363 301.893C236.979 300.708 238.281 299.147 239.156 297.345L299.474 173.104C300.896 170.164 301.092 166.78 300.02 163.696C298.949 160.611 296.696 158.078 293.758 156.653Z" fill="url(#paint3_linear)"/>
</g>
<path d="M121.753 168.795C117.002 168.795 113.751 170.041 110.377 174.835C107.263 179.244 98.77 193.939 98.77 193.939C98.77 193.939 92.5433 181.162 91.9206 178.615C91.298 176.068 91.3353 174.935 91.9206 173.827C92.7776 172.517 93.3151 171.024 93.4898 169.468C93.7326 166.404 94.4798 163.783 93.7949 163.696C91.8957 163.59 91.821 166.031 90.8247 167.469C90.6982 167.608 90.5407 167.715 90.3651 167.782C90.1894 167.848 90.0005 167.873 89.8137 167.853C89.627 167.833 89.4475 167.769 89.29 167.667C89.1324 167.564 89.0012 167.426 88.9069 167.264C88.4897 166.411 88.7139 165.01 88.5146 164.001C88.5686 163.44 88.6581 162.882 88.7824 162.332C89.5017 162.462 90.2363 162.483 90.9617 162.394C91.7837 163.683 92.3441 164.225 93.4898 163.702C93.6392 163.465 92.9979 161.834 92.2444 160.589C92.1313 160.398 91.948 160.26 91.7338 160.203C90.3525 159.853 88.9109 159.812 87.5121 160.084C87.4064 160.095 87.3039 160.127 87.2108 160.179C87.1178 160.23 87.036 160.299 86.9704 160.383C86.4447 161.153 86.0258 161.991 85.7251 162.874C85.6441 163.142 85.3951 163.135 85.3328 162.905C84.7101 159.897 84.7101 155.626 84.7101 153.627C84.7101 152.052 82.4125 151.803 82.3315 154.057C82.195 157.081 82.247 160.111 82.4872 163.129C82.4872 163.403 82.2132 163.534 82.1012 163.235C81.7027 162.17 80.7251 158.951 80.3141 153.397C80.202 151.902 77.7861 151.66 77.8234 153.758C77.9181 157.478 78.4023 161.178 79.268 164.798C79.3427 165.059 79.0999 165.29 78.9193 164.991C77.7858 162.807 76.8802 160.511 76.2169 158.142C75.7001 156.336 73.2904 156.797 73.7263 159.044C74.4797 163.073 75.6752 168.167 77.4623 171.809C79.3676 175.701 81.0115 177.65 81.9579 180.707C82.9044 183.764 86.821 201.081 91.0115 207.831C94.293 213.123 98.0477 212.631 102.089 209.842C106.13 207.052 120.57 186.934 120.57 186.934L121.753 168.795Z" fill="#DE9898"/>
<path d="M98.7705 193.933C98.7705 193.933 100.794 197.364 101.106 200.11C101.62 197.444 101.108 194.681 99.6734 192.376L98.7705 193.933Z" fill="#B47575"/>
<path d="M122.761 168.795C120.345 168.546 117.338 168.465 113.988 170.576C110.638 172.687 109.467 175.626 107.842 178.198C106.217 180.769 100.601 189.879 100.601 189.879C100.601 189.879 102.662 198.528 110.856 200.309L123.129 183.659L122.761 168.795Z" fill="#1B3342"/>
<path d="M133.763 320.87C134.386 320.789 135.214 322.913 135.227 323.604C135.239 324.295 134.542 325.783 133.627 327.178C132.403 328.838 131.389 330.643 130.607 332.552C129.903 334.469 129.255 335.727 127.294 338.237C125.115 341.032 119.996 345.709 112.225 343.679C110.326 343.181 109.38 342.583 108.689 341.892C108.385 341.585 108.174 341.2 108.078 340.78C107.982 340.359 108.006 339.921 108.147 339.513L133.763 320.87Z" fill="#263238"/>
<path d="M118.497 318.442V318.51C118.408 319.092 118.425 319.684 118.547 320.26C118.76 321.975 118.608 323.715 118.101 325.367C117.593 327.019 116.741 328.544 115.602 329.843C114.519 330.973 113.297 331.96 111.965 332.782C108.03 335.272 107.607 336.972 108.161 339.513C109.481 342.471 118.404 344.27 123.534 339.868C125.748 338.149 127.441 335.849 128.422 333.224C129.167 331.344 130.032 329.513 131.013 327.744C132.003 325.876 133.883 323.772 133.939 321.848C133.97 320.789 132.924 318.822 131.909 317.203C130.975 315.714 130.01 314.301 129.17 314.463L129.406 315.303C128.703 316.032 127.688 316.306 127.077 317.171C126.318 318.224 126.343 319.662 125.876 320.845C125.86 320.906 125.832 320.963 125.792 321.011C125.752 321.06 125.702 321.099 125.645 321.125C125.579 321.136 125.512 321.126 125.453 321.096C125.393 321.066 125.345 321.017 125.315 320.957C125.264 320.835 125.241 320.703 125.247 320.571L125.191 318.759C125.219 318.411 125.126 318.064 124.929 317.775C124.443 317.228 123.248 317.29 122.582 317.265C121.685 317.272 120.789 317.326 119.898 317.427C119.589 317.396 119.28 317.478 119.026 317.657C118.772 317.857 118.587 318.131 118.497 318.442V318.442Z" fill="url(#paint4_radial)"/>
<path d="M105.308 282.24C107.381 289.058 117.076 312.664 117.656 314.083L119.586 318.766C120.857 319.184 122.219 319.242 123.521 318.934C123.727 321.194 124.069 324.737 124.2 326.524C124.25 328.598 124.43 331.163 123.982 333.212C123.602 334.955 123.16 336.786 122.83 338.535C122.687 339.308 122.543 340.086 122.425 340.864C122.224 341.679 122.292 342.538 122.618 343.311C122.817 343.649 123.079 343.945 123.39 344.183C124.773 345.269 126.521 345.782 128.272 345.615C129.198 345.571 130.094 345.273 130.862 344.756C132.369 343.679 132.898 341.804 133.664 340.21C134.499 338.486 134.231 338.293 134.287 336.443C134.337 335.148 134.698 331.86 135.215 328.423C135.732 324.986 137.961 312.906 139.032 300.87C139.468 295.524 139.468 290.151 139.032 284.805C147.537 261.698 151.323 247.956 152.438 240.285C153.565 232.489 153.023 229.699 152.88 225.222L111.516 226.218C108.203 247.601 102.525 273.099 105.308 282.24Z" fill="#9E6767"/>
<path d="M104.661 265.179C105.514 257.321 111.392 227.115 111.392 227.115H153.061C153.061 227.115 153.329 232.912 153.254 235.577C153.179 238.242 152.32 243.105 150.832 249.276C149.344 255.446 143.827 272.862 142.737 275.428C141.647 277.993 139.624 285.434 139.624 285.434C140.645 299.407 137.986 311.947 135.994 328.616C135.994 328.616 135.414 330.864 129.512 330.422C123.771 329.986 122.612 327.869 122.612 327.869L122.233 313.492C122.233 313.492 119.119 314.451 117.251 314.015C117.251 314.015 104.916 283.56 104.318 281.729C103.721 279.899 103.808 273.037 104.661 265.179Z" fill="#27DEBF"/>
<path opacity="0.45" d="M104.661 265.179C105.514 257.321 111.392 227.115 111.392 227.115H153.061C153.061 227.115 153.329 232.912 153.254 235.577C153.179 238.242 152.32 243.105 150.832 249.276C149.344 255.446 143.827 272.862 142.737 275.428C141.647 277.993 139.624 285.434 139.624 285.434C140.645 299.407 137.986 311.947 135.994 328.616C135.994 328.616 135.414 330.864 129.512 330.422C123.771 329.986 122.612 327.869 122.612 327.869L122.233 313.492C122.233 313.492 119.119 314.451 117.251 314.015C117.251 314.015 104.916 283.56 104.318 281.729C103.721 279.899 103.808 273.037 104.661 265.179Z" fill="url(#paint5_linear)"/>
<path opacity="0.2" d="M122.338 246.804C116.435 241.486 115.121 237.252 115.121 237.252C118.089 240.595 121.603 243.41 125.513 245.577C125.513 245.577 119.909 275.166 120.32 281.25C120.731 287.333 122.232 313.492 122.232 313.492C122.232 313.741 118.259 285.826 118.141 283.603C117.873 277.719 122.338 246.804 122.338 246.804Z" fill="black"/>
<path d="M135.308 343.429C135.888 343.597 135.813 345.328 135.551 345.976C134.903 347.106 133.986 348.058 132.88 348.747C131.26 349.85 129.909 351.304 128.926 353C127.327 355.445 125.213 357.511 122.731 359.052C119.425 360.928 115.528 361.473 111.834 360.578C107.924 359.469 107.562 358.51 107.593 357.035L135.308 343.429Z" fill="#263238"/>
<path d="M123.228 334.376C122.2 339.357 120.413 343.018 116.272 346.094C112.972 348.548 110.581 349.793 107.947 351.979C106.833 352.913 106.739 354.899 107.592 357.041C109.373 358.467 111.901 359.289 115.295 359.282C119.093 359.282 120.55 358.604 122.73 357.116C123.8 356.384 124.797 355.55 125.706 354.625C127.53 352.794 128.819 350.534 130.114 349.083C131.41 347.632 134.28 346.15 135.096 344.401C135.544 343.442 135.357 341.219 135.058 339.326C134.784 337.589 135.314 334.538 134.479 334.345L134.361 335.59C134.292 335.87 134.118 336.013 133.533 336.213C133.007 336.327 132.464 336.341 131.933 336.256C131.744 336.188 131.538 336.18 131.345 336.235C131.152 336.29 130.98 336.404 130.855 336.561C130.295 337.221 130.146 338.155 129.423 338.703C129.377 338.744 129.321 338.774 129.261 338.79C129.234 338.806 129.202 338.814 129.17 338.813C129.138 338.811 129.107 338.802 129.081 338.784C129.061 338.754 129.049 338.72 129.043 338.685C129.038 338.649 129.04 338.613 129.05 338.579L129.255 336.711C129.28 336.525 129.28 336.336 129.255 336.15C129.216 335.977 129.14 335.814 129.033 335.672C128.925 335.53 128.789 335.413 128.632 335.328C128.108 335.023 127.545 334.791 126.957 334.637C126.346 334.471 125.721 334.365 125.089 334.32C124.47 334.24 123.841 334.259 123.228 334.376Z" fill="url(#paint6_radial)"/>
<path d="M149.3 170.583C149.3 170.583 151.012 172.936 152.413 177.787C154.118 185.753 154.995 193.874 155.028 202.021C155.028 213.024 153.546 230.851 153.546 230.851C140.775 237.252 120.177 233.466 111.111 227.221C111.479 225.24 111.79 214.829 112.506 207.961C112.986 196.18 113.384 190.01 113.465 184.767C113.633 174.294 118.845 168.883 122.805 168.802L132.805 168.957L149.3 170.583Z" fill="url(#paint7_linear)"/>
<path d="M152.45 227.619C150.551 229.182 146.846 232.184 146.142 233.697C145.358 235.428 144.897 238.055 144.368 239.039C143.839 240.023 144.636 240.521 145.732 240.166C146.827 239.811 147.481 238.883 148.328 236.617C149.175 234.35 151.529 232.576 151.529 232.576L152.45 227.619Z" fill="#C57C7C"/>
<path d="M145.514 247.999C145.968 248.877 147.027 248.883 148.004 248.958C149.196 249.095 150.404 248.958 151.535 248.56C152.895 248.167 154.087 247.338 154.929 246.2C155.887 244.817 156.137 243.086 156.684 241.499C157.83 238.167 161.242 235.764 161.803 232.233C162.033 230.776 162.033 229.058 162.425 228.155C162.668 227.619 168.279 217.962 170.284 213.777C172.201 209.755 173.64 207.862 171.896 203.03C170.153 198.198 164.219 181.193 160.016 175.284C157.637 171.934 153.858 170.975 149.275 170.583C145.788 179.661 149.841 189.045 149.841 189.045L159.094 206.841C159.094 206.841 155.508 219.095 153.266 225.907C152.643 227.775 151.398 228.97 149.972 231.069C149.349 231.978 147.942 233.559 147.444 234.55C146.821 235.795 146.821 236.617 146.51 238.379C146.024 241.187 145.271 247.582 145.514 247.999Z" fill="#DE9898"/>
<path d="M148.808 170.533C151.217 170.626 154.679 171.037 156.747 172.083C158.814 173.129 160.252 174.418 162.631 179.188C165.01 183.958 168.49 193.223 168.49 193.223C168.49 193.223 167.338 200.216 156.28 202.028L148.808 188.248C148.808 188.248 145.476 179.661 148.808 170.533Z" fill="#1B3342"/>
<path d="M120.078 148.279C120.404 148.869 120.687 149.483 120.924 150.116C121.293 150.941 121.764 151.717 122.325 152.426C123.758 154.076 125.769 155.284 127.606 156.454C128.714 157.164 129.984 157.83 131.342 157.637C132.699 157.444 134.212 157.737 135.613 157.862L140.514 158.304L140.24 163.453C140.24 163.453 140.862 162.089 141.678 160.458C142.388 159.057 145.364 151.952 145.377 151.921C146.852 148.403 148.602 143.708 146.84 140.01C146.439 139.099 145.77 138.332 144.922 137.812C145.093 137.243 145.148 136.646 145.084 136.056C144.986 135.218 144.701 134.412 144.251 133.699C143.8 132.986 143.196 132.382 142.481 131.934C141.087 130.991 139.515 130.343 137.861 130.028C135.668 129.524 133.424 129.275 131.174 129.287C128.969 129.355 126.773 129.607 124.611 130.041C123.404 130.264 122.182 130.391 120.956 130.421C120.427 130.455 119.897 130.43 119.374 130.346C118.724 130.152 118.086 129.921 117.462 129.655C117.408 129.632 117.35 129.62 117.291 129.62C117.232 129.62 117.174 129.632 117.12 129.655C117.071 129.688 117.029 129.731 116.998 129.781C116.966 129.832 116.947 129.888 116.939 129.947C116.777 130.725 116.784 131.528 116.959 132.302C117.134 133.077 117.474 133.805 117.954 134.437C117.674 134.399 117.401 134.319 117.145 134.2C116.854 134.065 116.573 133.909 116.304 133.733C115.847 133.427 115.447 133.043 115.121 132.6C115.076 132.53 115.008 132.48 114.928 132.457C114.804 132.457 114.704 132.544 114.629 132.643C114.293 133.143 114.064 133.707 113.957 134.3C113.85 134.893 113.867 135.501 114.007 136.087C114.281 137.263 114.837 138.354 115.626 139.269C115.241 139.89 115.019 140.599 114.979 141.329C114.94 142.059 115.085 142.787 115.401 143.447C115.678 144.032 116.051 144.566 116.504 145.028C117.064 145.601 117.749 146.068 118.316 146.604C118.965 147.093 119.557 147.655 120.078 148.279Z" fill="#1B3342"/>
<path d="M135.003 139.698C134.985 140.628 135.105 141.556 135.358 142.45C135.654 143.236 136.129 143.942 136.747 144.511C137.445 145.104 138.091 145.756 138.677 146.46C139.309 147.557 139.68 148.784 139.76 150.047C139.764 150.419 139.851 150.785 140.015 151.119C140.178 151.453 140.415 151.747 140.707 151.977C142.039 152.805 142.836 151.205 143.546 150.421C144.462 149.574 147.183 148.553 148.44 151.429C149.742 154.418 147.338 158.378 145.153 158.988C141.386 160.041 140.564 157.475 140.564 157.475L139.841 170.925C137.718 174.954 132.724 176.236 129.443 175.595C126.61 175.041 125.053 173.055 127.718 170.178L127.861 166.081C127.861 166.081 124.461 166.485 122.824 166.174C120.09 165.663 118.739 163.341 117.998 160.346C116.821 155.533 116.28 150.47 117.743 139.63C118.409 139.262 121.105 141.361 125.215 141.641C128.593 141.879 131.972 141.208 135.003 139.698V139.698Z" fill="#DE9898"/>
<path d="M127.836 166.068C127.836 166.068 134.001 165.035 136.18 163.964C137.459 163.348 138.522 162.36 139.231 161.131C138.867 162.373 138.257 163.529 137.438 164.53C135.806 166.479 127.78 167.7 127.78 167.7L127.836 166.068Z" fill="#C57C7C"/>
<path d="M131.043 144.511L133.913 145.389C134.023 144.997 133.977 144.578 133.784 144.219C133.592 143.86 133.267 143.59 132.88 143.465C132.691 143.41 132.492 143.393 132.296 143.416C132.1 143.439 131.911 143.501 131.739 143.599C131.568 143.696 131.418 143.827 131.298 143.984C131.179 144.141 131.092 144.32 131.043 144.511V144.511Z" fill="#263238"/>
<path d="M130.046 158.111L125.818 159.543C125.901 159.825 126.039 160.088 126.225 160.317C126.411 160.545 126.641 160.733 126.901 160.871C127.161 161.009 127.446 161.093 127.739 161.118C128.033 161.143 128.328 161.109 128.608 161.018C129.177 160.813 129.644 160.396 129.912 159.854C130.181 159.312 130.228 158.687 130.046 158.111V158.111Z" fill="#874C4C"/>
<path d="M129.705 159.144C129.153 159.144 128.617 159.328 128.181 159.666C127.744 160.004 127.433 160.478 127.295 161.012C127.722 161.152 128.182 161.152 128.609 161.012C129.003 160.873 129.351 160.629 129.617 160.306C129.882 159.984 130.055 159.595 130.116 159.181C129.98 159.157 129.842 159.144 129.705 159.144V159.144Z" fill="#F28F8F"/>
<path d="M118.229 144.966L121.149 144.586C121.127 144.397 121.067 144.214 120.973 144.049C120.879 143.883 120.753 143.738 120.602 143.622C120.452 143.506 120.279 143.421 120.095 143.373C119.911 143.325 119.719 143.314 119.53 143.341C119.145 143.391 118.795 143.588 118.552 143.891C118.309 144.194 118.193 144.579 118.229 144.966V144.966Z" fill="#263238"/>
<path d="M119.666 149.973C119.655 150.128 119.675 150.283 119.725 150.43C119.775 150.577 119.854 150.713 119.958 150.829C120.061 150.945 120.186 151.039 120.327 151.106C120.467 151.173 120.619 151.211 120.774 151.218C120.929 151.22 121.082 151.191 121.226 151.133C121.369 151.075 121.5 150.99 121.61 150.882C121.721 150.774 121.809 150.645 121.869 150.503C121.93 150.361 121.962 150.208 121.964 150.054C121.975 149.899 121.954 149.743 121.904 149.596C121.854 149.449 121.775 149.313 121.672 149.197C121.569 149.081 121.443 148.987 121.303 148.92C121.163 148.853 121.01 148.815 120.855 148.808C120.701 148.807 120.547 148.835 120.404 148.893C120.261 148.951 120.13 149.036 120.019 149.144C119.909 149.252 119.821 149.381 119.76 149.523C119.7 149.665 119.668 149.818 119.666 149.973V149.973Z" fill="#263238"/>
<path d="M130.67 149.972C130.671 150.198 130.739 150.418 130.865 150.606C130.991 150.794 131.169 150.941 131.377 151.028C131.586 151.115 131.815 151.139 132.037 151.097C132.259 151.055 132.464 150.948 132.626 150.79C132.787 150.633 132.899 150.431 132.947 150.21C132.995 149.989 132.978 149.759 132.896 149.549C132.814 149.338 132.672 149.156 132.488 149.025C132.304 148.895 132.085 148.821 131.859 148.814C131.548 148.81 131.248 148.93 131.026 149.147C130.803 149.364 130.675 149.661 130.67 149.972V149.972Z" fill="#263238"/>
<path d="M125.818 149.157L125.6 157.165L121.136 155.869L125.301 149.089C125.477 149.072 125.653 149.095 125.818 149.157Z" fill="#C58787"/>
<path d="M239.239 140.225C273.132 140.225 300.608 119.745 300.608 94.482C300.608 69.2187 273.132 48.7388 239.239 48.7388C205.346 48.7388 177.87 69.2187 177.87 94.482C177.87 119.745 205.346 140.225 239.239 140.225Z" fill="url(#paint8_linear)"/>
<path d="M190.26 120.941C189.912 127.073 183.817 138.04 172.802 142.086C172.655 142.139 172.531 142.231 172.448 142.347C172.365 142.463 172.328 142.599 172.34 142.735C172.353 142.87 172.416 142.999 172.519 143.103C172.623 143.207 172.762 143.28 172.918 143.312C179.214 144.5 185.781 144.097 191.813 142.154C197.845 140.211 203.079 136.812 206.873 132.373L190.26 120.941Z" fill="url(#paint9_linear)"/>
<g filter="url(#filter2_d)">
<path d="M305.994 138.712L302.507 139.764L299.985 131.34L303.466 130.293L305.994 138.712Z" fill="#E0E0E0"/>
<path d="M316.903 131.234C316.932 131.575 316.852 131.918 316.674 132.211C316.496 132.504 316.23 132.733 315.913 132.865C316.14 133.123 316.308 133.427 316.405 133.756C316.604 134.378 316.075 135.281 315.023 135.624L307.034 138.027L304.687 130.2C304.687 130.2 306.038 126.744 306.106 126.221C306.175 125.698 305.378 123.78 305.266 123.419C305.154 123.058 306.449 122.585 307.47 122.996C307.707 123.101 307.92 123.256 308.093 123.45C308.46 123.842 308.768 124.284 309.008 124.764C309.347 125.448 309.514 126.205 309.494 126.968L314.332 125.493C314.666 125.372 315.031 125.372 315.365 125.493C315.584 125.579 315.776 125.721 315.924 125.903C316.072 126.086 316.17 126.304 316.209 126.536C316.248 126.767 316.226 127.005 316.146 127.226C316.066 127.447 315.93 127.644 315.751 127.797C316.039 127.776 316.326 127.852 316.565 128.014C316.805 128.175 316.983 128.412 317.071 128.687C317.145 129.007 317.106 129.342 316.961 129.636C316.816 129.93 316.573 130.164 316.274 130.3C316.597 130.518 316.823 130.853 316.903 131.234Z" fill="#E0E0E0"/>
<path d="M297.825 236.424L293.348 235.347L295.957 224.55L300.427 225.621L297.825 236.424Z" fill="#E0E0E0"/>
<path d="M314.493 235.21C314.307 235.601 314.002 235.923 313.622 236.13C313.242 236.337 312.805 236.418 312.376 236.362C312.457 236.787 312.446 237.224 312.345 237.645C312.146 238.485 311.006 239.102 309.661 238.772L299.412 236.281L301.828 226.25C301.828 226.25 305.508 223.342 305.913 222.813C306.318 222.283 306.666 219.699 306.778 219.22C306.89 218.74 308.603 219.064 309.456 220.166C309.663 220.434 309.807 220.745 309.879 221.076C310.03 221.735 310.085 222.412 310.041 223.087C309.974 224.051 309.674 224.984 309.169 225.808L315.359 227.302C315.798 227.395 316.19 227.64 316.467 227.993C316.62 228.195 316.729 228.427 316.786 228.674C316.843 228.921 316.847 229.177 316.797 229.425C316.714 229.753 316.541 230.05 316.298 230.285C316.055 230.519 315.751 230.681 315.421 230.752C315.748 230.912 316.013 231.178 316.171 231.507C316.329 231.835 316.372 232.208 316.293 232.564C316.166 232.957 315.909 233.296 315.563 233.522C315.218 233.749 314.805 233.85 314.394 233.809C314.608 234.245 314.643 234.748 314.493 235.21V235.21Z" fill="#E0E0E0"/>
<path d="M71.6846 229.96L76.5725 231.436L80.1093 219.643L75.2276 218.167L71.6846 229.96Z" fill="#E0E0E0"/>
<path d="M56.4098 219.487C56.369 219.966 56.4816 220.446 56.7312 220.856C56.9808 221.267 57.3545 221.588 57.7983 221.772C57.4845 222.134 57.2511 222.559 57.1134 223.018C56.8332 223.933 57.5804 225.16 59.0437 225.596L70.2517 228.964L73.527 217.987C73.527 217.987 71.6278 213.142 71.5344 212.383C71.441 211.623 72.5618 208.97 72.7113 208.46C72.8358 208.049 71.055 207.295 69.5979 207.874C69.2515 208.01 68.9406 208.223 68.6888 208.497C68.1714 209.053 67.7392 209.683 67.4061 210.365C66.929 211.332 66.694 212.401 66.7212 213.478L59.9964 211.449C59.5222 211.293 59.0079 211.31 58.5455 211.498C58.2391 211.619 57.9691 211.817 57.762 212.073C57.5548 212.329 57.4176 212.634 57.3637 212.959C57.3097 213.284 57.3409 213.618 57.4542 213.927C57.5675 214.236 57.759 214.511 58.01 214.724C57.6036 214.689 57.1974 214.793 56.858 215.019C56.5186 215.246 56.2662 215.581 56.142 215.969C56.0385 216.418 56.0929 216.888 56.296 217.301C56.499 217.714 56.8383 218.044 57.2566 218.236C56.83 218.534 56.5285 218.98 56.4098 219.487Z" fill="#E0E0E0"/>
</g>
<path d="M213.582 77.5682V75.9393H205.945V86.4001H207.888V82.3951H212.939V80.7513H207.888V77.5682H213.582ZM217.403 84.7712V81.887H222.454V80.288H217.403V77.5682H223.097V75.9393H215.461V86.4001H223.306V84.7712H217.403ZM227.415 84.7712V81.887H232.466V80.288H227.415V77.5682H233.108V75.9393H225.472V86.4001H233.318V84.7712H227.415ZM235.483 86.4001H242.896V84.7563H237.426V75.9393H235.483V86.4001ZM244.429 86.4001H246.372V75.9393H244.429V86.4001ZM256.569 75.9393V83.0228L250.8 75.9393H249.201V86.4001H251.129V79.3167L256.898 86.4001H258.497V75.9393H256.569ZM268.443 84.308C267.77 84.6965 267.038 84.846 266.291 84.846C264.079 84.846 262.51 83.2918 262.51 81.1697C262.51 79.0028 264.079 77.4935 266.306 77.4935C267.427 77.4935 268.368 77.8671 269.19 78.689L270.416 77.4935C269.429 76.3727 267.965 75.7899 266.216 75.7899C262.944 75.7899 260.552 78.0464 260.552 81.1697C260.552 84.293 262.944 86.5496 266.186 86.5496C267.666 86.5496 269.19 86.1013 270.281 85.2196V81.0502H268.443V84.308ZM197.712 104.609C199.639 104.609 201.194 103.907 202.21 102.637L200.327 100.933C199.669 101.725 198.862 102.159 197.861 102.159C196.142 102.159 194.947 100.963 194.947 99.1697C194.947 97.3764 196.142 96.1809 197.861 96.1809C198.862 96.1809 199.669 96.6143 200.327 97.4063L202.21 95.7027C201.194 94.4325 199.639 93.7301 197.712 93.7301C194.394 93.7301 191.958 95.9866 191.958 99.1697C191.958 102.353 194.394 104.609 197.712 104.609ZM208.585 104.609C211.933 104.609 214.399 102.308 214.399 99.1697C214.399 96.0315 211.933 93.7301 208.585 93.7301C205.238 93.7301 202.772 96.0315 202.772 99.1697C202.772 102.308 205.238 104.609 208.585 104.609ZM208.585 102.159C207.001 102.159 205.761 100.978 205.761 99.1697C205.761 97.3615 207.001 96.1809 208.585 96.1809C210.169 96.1809 211.41 97.3615 211.41 99.1697C211.41 100.978 210.169 102.159 208.585 102.159ZM223.002 93.9393V99.5134L218.384 93.9393H215.948V104.4H218.848V98.826L223.465 104.4H225.901V93.9393H223.002ZM235.64 93.9393L232.741 100.754L229.902 93.9393H226.704L231.172 104.4H234.086L238.569 93.9393H235.64ZM239.182 104.4H242.141V93.9393H239.182V104.4ZM251.299 93.9393V99.5134L246.682 93.9393H244.246V104.4H247.145V98.826L251.763 104.4H254.198V93.9393H251.299ZM261.501 104.609C263.429 104.609 264.983 103.907 265.999 102.637L264.116 100.933C263.459 101.725 262.652 102.159 261.651 102.159C259.932 102.159 258.736 100.963 258.736 99.1697C258.736 97.3764 259.932 96.1809 261.651 96.1809C262.652 96.1809 263.459 96.6143 264.116 97.4063L265.999 95.7027C264.983 94.4325 263.429 93.7301 261.501 93.7301C258.184 93.7301 255.748 95.9866 255.748 99.1697C255.748 102.353 258.184 104.609 261.501 104.609ZM270.248 102.114V100.201H274.895V97.9891H270.248V96.2258H275.523V93.9393H267.319V104.4H275.717V102.114H270.248ZM277.359 104.4H282.306C285.773 104.4 288.149 102.383 288.149 99.1697C288.149 95.9568 285.773 93.9393 282.306 93.9393H277.359V104.4ZM280.318 102.039V96.3005H282.186C283.964 96.3005 285.16 97.3615 285.16 99.1697C285.16 100.978 283.964 102.039 282.186 102.039H280.318ZM230.683 118.933H232.581C232.581 117.17 235.136 116.946 235.136 114.51C235.136 112.791 233.672 111.79 231.475 111.79C229.607 111.79 228.262 112.477 227.425 113.613L228.875 114.555C229.398 113.822 230.205 113.404 231.311 113.404C232.461 113.404 233.179 113.972 233.179 114.809C233.179 116.303 230.683 116.721 230.683 118.933ZM231.639 122.505C232.327 122.505 232.82 121.982 232.82 121.339C232.82 120.697 232.327 120.188 231.639 120.188C230.937 120.188 230.444 120.697 230.444 121.339C230.444 121.982 230.937 122.505 231.639 122.505ZM239.031 118.933H240.929C240.929 117.17 243.484 116.946 243.484 114.51C243.484 112.791 242.019 111.79 239.823 111.79C237.955 111.79 236.61 112.477 235.773 113.613L237.222 114.555C237.745 113.822 238.552 113.404 239.658 113.404C240.809 113.404 241.526 113.972 241.526 114.809C241.526 116.303 239.031 116.721 239.031 118.933ZM239.987 122.505C240.674 122.505 241.168 121.982 241.168 121.339C241.168 120.697 240.674 120.188 239.987 120.188C239.285 120.188 238.792 120.697 238.792 121.339C238.792 121.982 239.285 122.505 239.987 122.505ZM247.378 118.933H249.276C249.276 117.17 251.832 116.946 251.832 114.51C251.832 112.791 250.367 111.79 248.17 111.79C246.302 111.79 244.957 112.477 244.12 113.613L245.57 114.555C246.093 113.822 246.9 113.404 248.006 113.404C249.157 113.404 249.874 113.972 249.874 114.809C249.874 116.303 247.378 116.721 247.378 118.933ZM248.335 122.505C249.022 122.505 249.515 121.982 249.515 121.339C249.515 120.697 249.022 120.188 248.335 120.188C247.632 120.188 247.139 120.697 247.139 121.339C247.139 121.982 247.632 122.505 248.335 122.505Z" fill="white"/>
</g>
<defs>
<filter id="filter0_d" x="22.8992" y="220.766" width="318.225" height="196.311" filterUnits="userSpaceOnUse" color-interpolation-filters="sRGB">
<feFlood flood-opacity="0" result="BackgroundImageFix"/>
<feColorMatrix in="SourceAlpha" type="matrix" values="0 0 0 0 0 0 0 0 0 0 0 0 0 0 0 0 0 0 127 0"/>
<feOffset dx="2.49067" dy="8.09469"/>
<feGaussianBlur stdDeviation="7.47202"/>
<feColorMatrix type="matrix" values="0 0 0 0 0 0 0 0 0 0 0 0 0 0 0 0 0 0 0.3 0"/>
<feBlend mode="normal" in2="BackgroundImageFix" result="effect1_dropShadow"/>
<feBlend mode="normal" in="SourceGraphic" in2="effect1_dropShadow" result="shape"/>
</filter>
<filter id="filter1_d" x="103.944" y="114.087" width="222.288" height="247.521" filterUnits="userSpaceOnUse" color-interpolation-filters="sRGB">
<feFlood flood-opacity="0" result="BackgroundImageFix"/>
<feColorMatrix in="SourceAlpha" type="matrix" values="0 0 0 0 0 0 0 0 0 0 0 0 0 0 0 0 0 0 127 0"/>
<feOffset dx="-5.60402" dy="-4.98135"/>
<feGaussianBlur stdDeviation="15.5667"/>
<feColorMatrix type="matrix" values="0 0 0 0 1 0 0 0 0 1 0 0 0 0 1 0 0 0 0.06 0"/>
<feBlend mode="normal" in2="BackgroundImageFix" result="effect1_dropShadow"/>
<feBlend mode="normal" in="SourceGraphic" in2="effect1_dropShadow" result="shape"/>
</filter>
<filter id="filter2_d" x="19.3534" y="86.7219" width="323.284" height="178.293" filterUnits="userSpaceOnUse" color-interpolation-filters="sRGB">
<feFlood flood-opacity="0" result="BackgroundImageFix"/>
<feColorMatrix in="SourceAlpha" type="matrix" values="0 0 0 0 0 0 0 0 0 0 0 0 0 0 0 0 0 0 127 0"/>
<feOffset dx="-5.60402" dy="-4.98135"/>
<feGaussianBlur stdDeviation="15.5667"/>
<feColorMatrix type="matrix" values="0 0 0 0 0 0 0 0 0 0 0 0 0 0 0 0 0 0 0.25 0"/>
<feBlend mode="normal" in2="BackgroundImageFix" result="effect1_dropShadow"/>
<feBlend mode="normal" in="SourceGraphic" in2="effect1_dropShadow" result="shape"/>
</filter>
<radialGradient id="paint0_radial" cx="0" cy="0" r="1" gradientUnits="userSpaceOnUse" gradientTransform="translate(180 270.5) rotate(90) scale(270.5 180)">
<stop stop-color="#335063"/>
<stop offset="1" stop-color="#1B3342"/>
</radialGradient>
<radialGradient id="paint1_radial" cx="0" cy="0" r="1" gradientUnits="userSpaceOnUse" gradientTransform="translate(210.53 250.247) rotate(90) scale(85.2092 69.8479)">
<stop stop-color="#335063"/>
<stop offset="1" stop-color="#1B3342"/>
</radialGradient>
<radialGradient id="paint2_radial" cx="0" cy="0" r="1" gradientUnits="userSpaceOnUse" gradientTransform="translate(206.274 272.276) rotate(75.682) scale(65.199 48.2394)">
<stop stop-color="#335063"/>
<stop offset="1" stop-color="#1B3342"/>
</radialGradient>
<linearGradient id="paint3_linear" x1="247.009" y1="155.424" x2="247.009" y2="304.276" gradientUnits="userSpaceOnUse">
<stop stop-color="#379BE7"/>
<stop offset="1" stop-color="#1DE9C4"/>
</linearGradient>
<radialGradient id="paint4_radial" cx="0" cy="0" r="1" gradientUnits="userSpaceOnUse" gradientTransform="translate(120.952 328.479) rotate(90) scale(14.0287 12.988)">
<stop stop-color="#335063"/>
<stop offset="1" stop-color="#1B3342"/>
</radialGradient>
<linearGradient id="paint5_linear" x1="123.148" y1="250.172" x2="128.6" y2="330.48" gradientUnits="userSpaceOnUse">
<stop stop-color="#379BE7"/>
<stop offset="1" stop-color="#1DE9C4"/>
</linearGradient>
<radialGradient id="paint6_radial" cx="0" cy="0" r="1" gradientUnits="userSpaceOnUse" gradientTransform="translate(121.193 346.777) rotate(90) scale(12.5055 14.1704)">
<stop stop-color="#335063"/>
<stop offset="1" stop-color="#1B3342"/>
</radialGradient>
<linearGradient id="paint7_linear" x1="133.11" y1="177.009" x2="126.572" y2="232.426" gradientUnits="userSpaceOnUse">
<stop stop-color="#AEFFF1"/>
<stop offset="1" stop-color="#BCE0FC"/>
</linearGradient>
<linearGradient id="paint8_linear" x1="236.473" y1="48.7388" x2="236.473" y2="143.98" gradientUnits="userSpaceOnUse">
<stop stop-color="#379BE7"/>
<stop offset="1" stop-color="#1DE9C4"/>
</linearGradient>
<linearGradient id="paint9_linear" x1="236.473" y1="48.7388" x2="236.473" y2="143.98" gradientUnits="userSpaceOnUse">
<stop stop-color="#379BE7"/>
<stop offset="1" stop-color="#1DE9C4"/>
</linearGradient>
<clipPath id="clip0">
<rect width="345.581" height="383.564" fill="white" transform="translate(6.70898 29.436)"/>
</clipPath>
</defs>
</svg>
