<svg width="926" height="740" viewBox="0 0 926 740" fill="none" xmlns="http://www.w3.org/2000/svg">
<line y1="623.136" x2="315" y2="623.136" stroke="#1B3342"/>
<path d="M156.596 610.275L544.554 576.554L769.944 636.765L770.983 652.095L383.023 685.816L157.635 625.604L156.596 610.275Z" fill="white" stroke="#1B3342" stroke-width="2.38525" stroke-linejoin="round"/>
<path d="M166.675 611.469L546.782 590.14L488.655 362.104L117.115 378.683L166.675 611.469Z" fill="white" stroke="#1B3342" stroke-width="2.38525" stroke-linejoin="round"/>
<path d="M319.462 378.152C319.515 378.915 319.338 379.678 318.952 380.348C318.566 381.019 317.987 381.57 317.285 381.935C316.582 382.301 315.784 382.467 314.986 382.413C314.187 382.358 313.422 382.087 312.78 381.629C312.138 381.172 311.647 380.549 311.364 379.833C311.081 379.117 311.019 378.338 311.184 377.589C311.349 376.84 311.735 376.152 312.297 375.607C312.858 375.061 313.571 374.68 314.351 374.51C315.532 374.352 316.731 374.646 317.688 375.327C318.645 376.009 319.282 377.024 319.462 378.152V378.152Z" fill="#405391"/>
<path d="M118.791 378.586L490.33 362.007L118.791 378.586L168.351 611.372L157.862 610.366L111.76 385.654L118.791 378.586Z" fill="white"/>
<path d="M118.791 378.586L490.33 362.007L118.791 378.586ZM118.791 378.586L168.351 611.372L157.862 610.366L111.76 385.654L118.791 378.586Z" stroke="#1B3342" stroke-width="2.38525" stroke-linejoin="round"/>
<path d="M146.203 388.972L471.135 374.318L514.404 554.529L188.181 582.529L146.203 388.972Z" fill="#22CDB8" stroke="#1B3342" stroke-width="2.38525" stroke-miterlimit="10"/>
<path d="M157.717 609.97L383.104 670.182L771.062 636.46L545.675 576.249L157.717 609.97Z" fill="white" stroke="#1B3342" stroke-width="2.38525" stroke-linejoin="round"/>
<path d="M323.381 644.558L211.039 614.545L543.051 585.686L652.175 614.838L323.381 644.558Z" fill="white" stroke="#1B3342" stroke-width="2.38525" stroke-linejoin="round"/>
<path d="M235.678 621.248L568.867 592.704" stroke="#1B3342" stroke-width="2.38525" stroke-linejoin="round"/>
<path d="M262.959 628.482L596.151 599.94" stroke="#1B3342" stroke-width="2.38525" stroke-linejoin="round"/>
<path d="M290.945 636.027L624.135 607.483" stroke="#1B3342" stroke-width="2.38525" stroke-linejoin="round"/>
<path d="M251.9 611.759L361.979 641.039" stroke="#1B3342" stroke-width="2.38525" stroke-linejoin="round"/>
<path d="M288.432 608.351L398.507 637.635" stroke="#1B3342" stroke-width="2.38525" stroke-linecap="round" stroke-linejoin="round"/>
<path d="M320.551 605.682L430.629 634.963" stroke="#405391" stroke-width="2.38525" stroke-linecap="round" stroke-linejoin="round"/>
<path d="M352.529 602.703L462.605 631.984" stroke="#405391" stroke-width="2.38525" stroke-linecap="round" stroke-linejoin="round"/>
<path d="M384.502 599.725L494.578 629.006" stroke="#405391" stroke-width="2.38525" stroke-linecap="round" stroke-linejoin="round"/>
<path d="M417.932 597.13L526.556 626.024" stroke="#405391" stroke-width="2.38525" stroke-linecap="round" stroke-linejoin="round"/>
<path d="M449.773 594.116L559.495 623.303" stroke="#405391" stroke-width="2.38525" stroke-linecap="round" stroke-linejoin="round"/>
<path d="M482.316 591.287L591.514 620.334" stroke="#405391" stroke-width="2.38525" stroke-linecap="round" stroke-linejoin="round"/>
<path d="M515.383 588.597L623.446 617.344" stroke="#405391" stroke-width="2.38525" stroke-linecap="round" stroke-linejoin="round"/>
<path d="M324.432 418.819L384.944 414.927L445.455 411.036C445.92 411.015 446.376 411.167 446.748 411.465C447.12 411.764 447.384 412.191 447.496 412.674L459.549 464.467C459.619 464.771 459.628 465.087 459.573 465.394C459.518 465.702 459.402 465.993 459.232 466.247C459.062 466.502 458.843 466.714 458.589 466.869C458.336 467.025 458.054 467.119 457.763 467.146L358.113 474.977C357.673 475.019 336.91 476.832 336.343 477.203L341.647 476.408C339.756 476.738 337.832 476.793 335.928 476.572L322.524 421.384C322.47 421.078 322.477 420.763 322.547 420.461C322.616 420.158 322.746 419.875 322.927 419.632C323.109 419.388 323.337 419.189 323.597 419.049C323.856 418.909 324.141 418.83 324.432 418.819Z" fill="white" stroke="#1B3342" stroke-width="2.38525" stroke-linejoin="round"/>
<path d="M335.244 472.419L459.21 463.251L480.049 540.343L474.215 540.939L468.5 541.523L358.363 550.147L335.244 472.419Z" fill="#1B3342" stroke="#1B3342" stroke-width="2.38525" stroke-linejoin="round"/>
<path d="M176.201 425.384L312.524 419.823L349.992 554.532L208.089 566.092L176.201 425.384Z" fill="#1B3342" stroke="#1B3342" stroke-width="2.38525" stroke-linejoin="round"/>
<path d="M211.701 450.93L266.629 447.706" stroke="white" stroke-width="2.38525" stroke-linecap="round" stroke-linejoin="round"/>
<path d="M214.89 461.294L269.819 458.07" stroke="white" stroke-width="2.38525" stroke-linecap="round" stroke-linejoin="round"/>
<path d="M218.876 473.252L273.805 470.028" stroke="white" stroke-width="2.38525" stroke-linecap="round" stroke-linejoin="round"/>
<path d="M211.701 487.604L266.629 484.378" stroke="#1EE7C5" stroke-width="2.38525" stroke-linecap="round" stroke-linejoin="round"/>
<path d="M224.456 495.574L279.385 492.35" stroke="white" stroke-width="2.38525" stroke-linecap="round" stroke-linejoin="round"/>
<path d="M227.646 505.94L282.574 502.713" stroke="white" stroke-width="2.38525" stroke-linecap="round" stroke-linejoin="round"/>
<path d="M409.242 435.806L427.7 434.528" stroke="#1B3342" stroke-width="2.38525" stroke-linecap="round" stroke-linejoin="round"/>
<path d="M416.484 442.018L434.945 440.743" stroke="#1B3342" stroke-width="2.38525" stroke-linecap="round" stroke-linejoin="round"/>
<path d="M367.432 487.414L435.942 482.695" stroke="white" stroke-width="2.38525" stroke-linecap="round" stroke-linejoin="round"/>
<path d="M371.291 498.781L439.793 493.946" stroke="white" stroke-width="2.38525" stroke-linecap="round" stroke-linejoin="round"/>
<path d="M379.151 524.799L447.663 520.12" stroke="white" stroke-width="2.38525" stroke-linecap="round" stroke-linejoin="round"/>
<path d="M386.136 443.597C387.441 449.056 384.548 454.343 379.681 455.406C374.814 456.47 369.81 452.907 368.506 447.448C367.202 441.99 370.094 436.717 374.961 435.641C379.828 434.566 384.842 438.14 386.136 443.597Z" fill="white" stroke="#1B3342" stroke-width="2.38525" stroke-linejoin="round"/>
<path d="M405.927 467.515C405.321 469.365 391.279 469.17 384.509 469.785C379.538 470.236 355.821 472.253 355.881 471.366C356.26 465.779 374.798 454.847 379.792 454.789C387.778 454.696 407.673 462.173 405.927 467.515Z" fill="white" stroke="#1B3342" stroke-width="2.38525" stroke-linejoin="round"/>
<path d="M747.761 241.449C727.281 207.823 735.137 137.046 735.137 137.046L730.534 141.074C751.055 89.7578 733.885 69.0242 733.885 69.0242C683.236 -3.06864 607.438 44.5919 607.438 44.5919C607.438 44.5919 551.837 53.0889 572.4 116.663C573.649 121.053 574.297 125.579 574.324 130.128C574.162 130.698 565.563 160.854 562.516 166.508C560.307 170.612 571.44 176.269 577.887 179.133C592.289 239.314 595.53 237.175 595.53 237.175C620.98 238.332 641.25 234.359 657.674 227.297C659.936 238.615 662.252 250.795 662.252 250.795C667.722 292.228 606.573 318.881 606.573 318.881L722.628 360.808L837.95 290.44C837.95 290.44 772.727 282.429 747.761 241.449Z" fill="#FFCFCF" stroke="#33313B" stroke-width="2.38525" stroke-miterlimit="10"/>
<path d="M834.884 309.46C834.884 309.46 829.81 283.227 827.087 374.913C824.542 460.743 823.537 550.81 823.537 550.81C788.851 552.924 754.805 560.735 722.891 573.9L689.211 587.286C689.211 587.286 776.645 633.608 838.881 652.098C896.19 669.123 901.568 627.281 894.732 525.579C894.737 525.579 862.141 316.7 834.884 309.46Z" fill="#FFCFCF" stroke="#405391" stroke-width="2.38525" stroke-linejoin="round"/>
<path d="M603.914 21.2692C603.914 21.2692 530.859 58.539 572.672 95.9591L622.317 48.5014L603.914 21.2692Z" fill="#405391"/>
<path d="M713.133 199.83C713.133 199.83 729.554 199.415 739.375 220.687C739.375 220.687 728.597 196.534 747.399 176.552L713.133 199.83Z" fill="#121F27"/>
<path d="M603.913 21.2691C603.913 21.2691 514.559 104.976 568.111 81.5119C680.005 32.5135 674.268 155.997 674.268 155.997C674.268 155.997 689.679 142.565 683.992 156.624L713.144 199.83C713.144 199.83 775.442 177.298 778.776 102.233C779.89 76.8853 753.822 -39.3552 603.913 21.2691Z" fill="#121F27"/>
<path d="M642.264 70.921C643.944 83.7394 642.264 134.872 665.895 138.628C689.527 142.384 661.834 74.3957 661.834 74.3957L642.264 70.921Z" fill="#121F27"/>
<path d="M568.472 345.699C540.182 467.351 527.082 593.023 527.082 593.023C491.2 583.496 454.84 575.696 418.141 569.652L360.201 554.768C358.328 553.95 338.245 545.096 331.722 538.924C324.88 532.449 321.113 550.271 331.874 558.415C334.584 560.455 337.185 562.625 339.666 564.916L325.703 566.995C323.306 567.348 321.07 568.366 319.273 569.924C309.549 578.354 277.836 606.362 283.842 608.105C285.468 608.525 287.172 608.594 288.829 608.308C277.991 616.871 277.125 625.803 280.165 626.103C284.7 626.551 290.44 623.444 296.15 619.02C291.135 624.565 284.93 636.835 291.866 636.529C301.199 636.119 309.02 629.182 316.465 617.451C316.465 617.451 314.63 620.492 315.443 619.798L309.913 628.364C316.002 633.488 322.516 638.129 329.393 642.241C337.212 646.436 341.793 630.978 330.722 624.62C333.905 621.12 336.354 617.067 337.935 612.681C337.935 612.681 369.022 627.052 384.91 615.667L395.297 616.621C422.452 632.885 560.356 692.169 579.243 690.822C622.148 687.76 630.304 607.065 651.051 430.687C651.058 430.694 581.155 291.154 568.472 345.699Z" fill="#FFCFCF" stroke="#1B3342" stroke-width="2.38525" stroke-linejoin="round"/>
<path d="M525.671 592.802C525.671 592.802 512.312 599.604 509.619 618.492" stroke="#1B3342" stroke-width="2.38525" stroke-miterlimit="10"/>
<path d="M866.551 525.771C888.662 522.266 924.371 510.582 924.396 510.456C924.396 510.456 910.705 345.444 867.187 296.586C864.975 292.055 857.65 282.623 834.307 279.327C827.378 278.349 820.564 277.128 814.049 275.788C791.212 271.09 772.614 264.56 767.301 261.336C767.301 261.336 767.331 261.534 767.368 261.827C767.246 261.756 767.082 261.679 766.972 261.613C767.56 264.801 767.358 268.078 766.381 271.178C766.229 271.636 766.077 272.096 765.882 272.561C765.8 272.759 765.708 272.96 765.618 273.16C765.272 273.933 764.873 274.683 764.424 275.406C757.28 286.656 709.999 291.203 662.726 267.298C662.726 267.298 581.518 311.348 559.883 326.625C526.667 394.304 512.402 547.142 512.402 540.044C512.402 538.11 580.084 572.025 624.056 573.871C624.306 585.861 613.295 737.371 613.295 737.371C613.295 737.371 804.534 746.707 889.27 703.6C889.27 703.6 855.874 597.211 859.804 567.517C860.278 564.019 865.611 534.44 866.551 525.771Z" fill="url(#paint0_linear)" stroke="#33313B" stroke-width="2.38525" stroke-miterlimit="10"/>
<path d="M611.743 20.289C611.743 20.289 518.086 -0.60197 523.978 22.4496C529.869 45.5012 554.095 65.6315 554.095 65.6315C554.095 65.6315 526.491 64.9709 540.98 78.3735C555.469 91.7762 567.581 90.7746 567.581 90.7746L611.743 20.289Z" fill="#121F27"/>
<path d="M657.412 226.279C657.412 226.279 667.046 223.959 684.714 209.278" stroke="#33313B" stroke-width="2.38525" stroke-miterlimit="10"/>
<path d="M674.684 117.764C674.684 117.764 668.172 2.33869 604.754 16.5069" stroke="white" stroke-width="4.7705" stroke-miterlimit="10"/>
<path d="M712.491 150.966C713.934 129.545 697.39 111.087 675.537 109.74C653.685 108.393 634.8 124.667 633.357 146.089C631.914 167.51 648.459 185.968 670.311 187.315C692.163 188.662 711.048 172.388 712.491 150.966Z" fill="#22CDB8" stroke="#1B3342" stroke-width="2.38525" stroke-miterlimit="10"/>
<path d="M699.672 149.62C698.635 165.009 685.746 176.742 670.886 175.824C656.026 174.906 644.818 161.69 645.856 146.303C646.893 130.916 659.781 119.18 674.641 120.098C689.501 121.017 700.709 134.233 699.672 149.62Z" fill="white" stroke="#121316" stroke-width="2.38525" stroke-miterlimit="10"/>
<path d="M585.891 137.376C586.123 138.181 586.586 138.907 587.227 139.473C587.868 140.039 588.662 140.422 589.519 140.578C590.376 140.735 591.262 140.659 592.076 140.359C592.89 140.059 593.6 139.546 594.125 138.88C594.651 138.214 594.971 137.421 595.049 136.59C595.128 135.759 594.961 134.923 594.569 134.178C594.176 133.433 593.574 132.807 592.829 132.373C592.084 131.938 591.227 131.712 590.354 131.719C588.989 131.924 587.759 132.629 586.927 133.684C586.094 134.74 585.723 136.064 585.891 137.376V137.376Z" fill="#1B3342"/>
<path d="M607.938 121.064C604.644 117.191 600.101 114.469 595.02 113.325C590.46 111.906 585.972 110.511 584.049 112.541C583.492 113.245 583.172 114.095 583.131 114.978C583.091 115.86 583.332 116.734 583.823 117.482C585.199 119.5 588.291 119.426 591.168 119.712C602.365 120.826 608.766 127.243 610.035 125.674C610.761 124.765 608.92 122.352 607.938 121.064Z" fill="#1B3342"/>
<path d="M586.973 193.143C586.973 193.143 599.257 192.666 607.263 184.815" stroke="#1B3342" stroke-width="2.38525" stroke-miterlimit="10"/>
<path d="M540.117 3.55954C551.977 1.02453 564.331 1.58807 575.885 5.1911C587.438 8.79413 597.766 15.3039 605.784 24.0379" stroke="#121F27" stroke-width="2.38525" stroke-miterlimit="10"/>
<path d="M761.422 25.2972L758.582 52.818C758.582 52.818 765.995 39.1769 780.678 48.3918" stroke="#1B3342" stroke-width="2.38525" stroke-miterlimit="10"/>
<path d="M576.907 55.1455C576.907 55.1455 545.62 97.433 561.585 97.3567C585.686 97.2279 609.527 67.2604 605.159 65.7031C600.79 64.1458 576.907 55.1455 576.907 55.1455Z" fill="#121F27"/>
<path d="M294.895 618.553L307.157 593.708L320.431 583.648" fill="#FFCFCF"/>
<path d="M294.895 618.553L307.157 593.708L320.431 583.648" stroke="#1B3342" stroke-width="2.38525" stroke-miterlimit="10"/>
<path d="M287.826 608.089L302.028 592.705" stroke="#1B3342" stroke-width="2.38525" stroke-miterlimit="10"/>
<path d="M338.375 586.722L322.518 597.483L314.188 619.335" fill="#FFCFCF"/>
<path d="M338.375 586.722L322.518 597.483L314.188 619.335" stroke="#1B3342" stroke-width="2.38525" stroke-linejoin="round"/>
<path d="M559.898 326.639C559.898 326.639 660.879 302.746 658.635 425.087L653.997 571.753C641.316 573.991 628.368 574.504 615.537 573.274" stroke="#33313B" stroke-width="2.38525" stroke-miterlimit="10"/>
<path d="M862.775 357.334C862.775 357.334 883.946 406.321 884.318 449.388C884.52 472.521 866.52 526.06 866.52 526.06" stroke="#33313B" stroke-width="2.38525" stroke-miterlimit="10"/>
<path d="M338.404 564.448L355.721 562.068" stroke="#1B3342" stroke-width="2.38525" stroke-linejoin="round"/>
<path d="M198.136 440.86L253.082 437.89" stroke="#1EE7C5" stroke-width="2.38525" stroke-linecap="round" stroke-linejoin="round"/>
<g filter="url(#filter0_d)">
<path d="M65.0116 591.077C80.0915 591.077 92.3162 589.259 92.3162 587.016C92.3162 584.773 80.0915 582.954 65.0116 582.954C49.9317 582.954 37.707 584.773 37.707 587.016C37.707 589.259 49.9317 591.077 65.0116 591.077Z" fill="#0D71B2"/>
<path d="M58.2061 635.674H71.8172C75.8482 635.544 79.8543 635.016 83.7717 634.098L91.3397 587.176H91.2574C91.2574 589.333 79.506 591.08 65.0124 591.08C50.5187 591.08 38.766 589.333 38.766 587.176H38.6836L46.2516 634.098C50.1691 635.016 54.1752 635.544 58.2061 635.674Z" fill="#1B3342" stroke="#1B3342" stroke-width="1.31301" stroke-linejoin="round"/>
<path d="M26.5806 531.22C23.5696 531.211 20.5973 531.868 17.8961 533.141C15.1948 534.413 12.8379 536.266 11.0098 538.554C9.18157 540.842 7.93168 543.504 7.3578 546.331C6.78393 549.158 6.90164 552.074 7.70177 554.85C8.32292 554.553 9.00713 554.397 9.70151 554.393C10.7016 554.392 11.6747 554.703 12.4725 555.28C13.2702 555.857 13.8487 556.667 14.1197 557.588C14.3906 558.509 14.3392 559.489 13.9731 560.379C13.6071 561.269 12.9466 562.021 12.0924 562.518C14.2817 564.827 17.0394 566.577 20.1151 567.609C23.1908 568.64 26.4871 568.921 29.7049 568.425C32.9226 567.929 35.9599 566.672 38.5409 564.768C41.122 562.864 43.1651 560.374 44.4849 557.524C45.8046 554.673 46.3591 551.553 46.0981 548.446C45.8371 545.338 44.7689 542.342 42.9903 539.73C41.2118 537.117 38.7793 534.971 35.9136 533.486C33.0479 532.001 29.8398 531.224 26.5806 531.226V531.22Z" fill="#1EE6C5" stroke="#1B3342" stroke-width="1.31301" stroke-miterlimit="10"/>
<path d="M41.3026 544.492C41.3026 545.003 41.1441 545.503 40.8473 545.927C40.5504 546.352 40.1285 546.683 39.6348 546.879C39.1412 547.074 38.598 547.126 38.074 547.026C37.55 546.926 37.0688 546.68 36.6911 546.318C36.3134 545.957 36.0562 545.496 35.9521 544.995C35.848 544.494 35.9018 543.974 36.1064 543.502C36.3111 543.03 36.6575 542.627 37.1018 542.343C37.5462 542.059 38.0686 541.908 38.6028 541.908C39.319 541.909 40.0057 542.181 40.5119 542.666C41.0182 543.15 41.3026 543.807 41.3026 544.492V544.492Z" fill="white" stroke="#1B3342" stroke-width="1.31301" stroke-linejoin="round"/>
<path d="M110.605 548.168C116.731 539.646 114.474 527.987 105.564 522.128C96.654 516.268 84.4646 518.427 78.3384 526.949C72.2123 535.472 74.4693 547.131 83.3795 552.99C92.2898 558.85 104.479 556.691 110.605 548.168Z" fill="#1EE6C5" stroke="#1B3342" stroke-width="1.31301" stroke-miterlimit="10"/>
<path d="M93.2782 537.788C93.2782 537.788 65.1144 553.443 67.4546 584.699" stroke="#1B3342" stroke-width="1.31301" stroke-linejoin="round"/>
<path d="M55.9457 531.693C58.7021 534.294 62.2031 536.055 66.006 536.754C69.8088 537.452 73.7427 537.056 77.3102 535.615C80.8777 534.175 83.9185 531.755 86.0482 528.662C88.1779 525.569 89.3008 521.941 89.2749 518.237C89.2489 514.534 88.0754 510.921 85.9026 507.855C83.7298 504.789 80.6554 502.409 77.0681 501.014C73.4808 499.62 69.5417 499.274 65.749 500.021C61.9563 500.767 58.4802 502.573 55.7604 505.209C53.9542 506.96 52.5263 509.034 51.5581 511.312C50.5899 513.59 50.1004 516.029 50.1176 518.488C50.1348 520.947 50.6584 523.379 51.6584 525.645C52.6584 527.911 54.1152 529.966 55.9457 531.693Z" fill="#1EE6C5" stroke="#1B3342" stroke-width="1.31301" stroke-miterlimit="10"/>
<path d="M68.7836 519.31C68.7836 519.31 49.2021 565.618 67.2546 588.865" stroke="#1B3342" stroke-width="1.31301" stroke-linejoin="round"/>
<path d="M27.6426 549.952C27.6426 549.952 58.4402 560.08 62.4877 591.173" stroke="#1B3342" stroke-width="1.31301" stroke-linejoin="round"/>
<path d="M87.3577 545.523C90.3687 545.514 93.341 546.171 96.0422 547.443C98.7435 548.716 101.1 550.568 102.929 552.857C104.757 555.145 106.007 557.807 106.581 560.634C107.154 563.461 107.037 566.377 106.237 569.153C105.615 568.856 104.931 568.7 104.237 568.696C103.237 568.694 102.264 569.006 101.466 569.583C100.668 570.159 100.09 570.97 99.8186 571.891C99.5477 572.812 99.5992 573.792 99.9652 574.682C100.331 575.572 100.992 576.323 101.846 576.821C99.6566 579.13 96.8989 580.88 93.8232 581.912C90.7475 582.943 87.4512 583.223 84.2334 582.727C81.0157 582.231 77.9784 580.974 75.3974 579.071C72.8163 577.167 70.7732 574.677 69.4535 571.827C68.1337 568.976 67.5792 565.856 67.8402 562.748C68.1012 559.641 69.1694 556.645 70.948 554.033C72.7265 551.42 75.159 549.274 78.0247 547.789C80.8904 546.304 84.0985 545.527 87.3577 545.528V545.523Z" fill="#1EE6C5" stroke="#1B3342" stroke-width="1.31301" stroke-miterlimit="10"/>
<path d="M72.6992 558.914C72.6992 559.425 72.8576 559.924 73.1544 560.349C73.4512 560.774 73.8731 561.105 74.3666 561.301C74.8602 561.496 75.4033 561.547 75.9273 561.448C76.4512 561.348 76.9325 561.102 77.3103 560.741C77.688 560.379 77.9453 559.919 78.0495 559.418C78.1537 558.917 78.1002 558.397 77.8958 557.925C77.6913 557.453 77.3452 557.05 76.901 556.766C76.4568 556.482 75.9345 556.33 75.4003 556.33C74.6839 556.33 73.9969 556.603 73.4904 557.087C72.9838 557.572 72.6992 558.229 72.6992 558.914V558.914Z" fill="white" stroke="#1B3342" stroke-width="1.31301" stroke-linejoin="round"/>
<path d="M91.6445 560.161C91.6445 560.161 69.9027 568.431 64.5664 590.123" stroke="#1B3342" stroke-width="1.31301" stroke-linejoin="round"/>
</g>
<defs>
<filter id="filter0_d" x="0.34375" y="493.98" width="116.379" height="145.35" filterUnits="userSpaceOnUse" color-interpolation-filters="sRGB">
<feFlood flood-opacity="0" result="BackgroundImageFix"/>
<feColorMatrix in="SourceAlpha" type="matrix" values="0 0 0 0 0 0 0 0 0 0 0 0 0 0 0 0 0 0 127 0"/>
<feOffset dx="-2" dy="-1"/>
<feGaussianBlur stdDeviation="2"/>
<feColorMatrix type="matrix" values="0 0 0 0 1 0 0 0 0 1 0 0 0 0 1 0 0 0 0.03 0"/>
<feBlend mode="normal" in2="BackgroundImageFix" result="effect1_dropShadow"/>
<feBlend mode="normal" in="SourceGraphic" in2="effect1_dropShadow" result="shape"/>
</filter>
<linearGradient id="paint0_linear" x1="718.399" y1="261.336" x2="718.399" y2="738.224" gradientUnits="userSpaceOnUse">
<stop stop-color="#379BE7"/>
<stop offset="1" stop-color="#1DE9C4"/>
</linearGradient>
</defs>
</svg>
