<svg width="164" height="59" viewBox="0 0 164 59" fill="none" xmlns="http://www.w3.org/2000/svg">
<g filter="url(#filter0_d)">
<path d="M93.7933 49.1631C96.4561 49.0517 99.0585 48.4968 101.429 47.5352C103.799 46.5735 105.883 45.227 107.543 43.5845C109.203 41.942 110.402 40.041 111.059 38.007C111.717 35.9729 111.819 33.8522 111.358 31.7849C110.897 29.7177 109.885 27.7508 108.387 26.0144C106.889 24.278 104.94 22.8115 102.669 21.7118C100.397 20.6121 97.8557 19.9042 95.2112 19.6349C92.5667 19.3655 89.8795 19.541 87.3275 20.1495C85.7486 15.0201 82.0342 10.4542 76.776 7.17912C71.5178 3.90404 65.0184 2.10824 58.3132 2.07779C51.6079 2.04734 45.0826 3.78399 39.7768 7.01109C34.4709 10.2382 30.6898 14.7701 29.0358 19.8848C26.5103 19.4342 23.894 19.398 21.35 19.7787C18.806 20.1593 16.389 20.9485 14.2497 22.097C12.1105 23.2456 10.2948 24.7288 8.9162 26.4542C7.53758 28.1796 6.62548 30.11 6.23686 32.1252C5.84825 34.1403 5.99143 36.1969 6.65748 38.1666C7.32353 40.1362 8.49816 41.9767 10.1081 43.5732C11.718 45.1696 13.7287 46.4878 16.0146 47.4455C18.3005 48.4032 20.8126 48.9798 23.3942 49.1393L93.7933 49.1631Z" fill="white"/>
<path d="M93.7933 49.1631C96.4561 49.0517 99.0585 48.4968 101.429 47.5352C103.799 46.5735 105.883 45.227 107.543 43.5845C109.203 41.942 110.402 40.041 111.059 38.007C111.717 35.9729 111.819 33.8522 111.358 31.7849C110.897 29.7177 109.885 27.7508 108.387 26.0144C106.889 24.278 104.94 22.8115 102.669 21.7118C100.397 20.6121 97.8557 19.9042 95.2112 19.6349C92.5667 19.3655 89.8795 19.541 87.3275 20.1495C85.7486 15.0201 82.0342 10.4542 76.776 7.17912C71.5178 3.90404 65.0184 2.10824 58.3132 2.07779C51.6079 2.04734 45.0826 3.78399 39.7768 7.01109C34.4709 10.2382 30.6898 14.7701 29.0358 19.8848C26.5103 19.4342 23.894 19.398 21.35 19.7787C18.806 20.1593 16.389 20.9485 14.2497 22.097C12.1105 23.2456 10.2948 24.7288 8.9162 26.4542C7.53758 28.1796 6.62548 30.11 6.23686 32.1252C5.84825 34.1403 5.99143 36.1969 6.65748 38.1666C7.32353 40.1362 8.49816 41.9767 10.1081 43.5732C11.718 45.1696 13.7287 46.4878 16.0146 47.4455C18.3005 48.4032 20.8126 48.9798 23.3942 49.1393L93.7933 49.1631Z" stroke="#1B3342" stroke-width="2.38525" stroke-linejoin="round"/>
</g>
<path d="M149.455 48C151.325 47.9223 153.152 47.5335 154.816 46.8593C156.481 46.1851 157.944 45.2408 159.11 44.0889C160.276 42.9369 161.117 41.6035 161.579 40.1769C162.041 38.7502 162.112 37.2626 161.789 35.8126C161.465 34.3626 160.754 32.983 159.702 31.7651C158.651 30.5472 157.282 29.5187 155.687 28.7476C154.092 27.9765 152.307 27.4803 150.451 27.2918C148.594 27.1033 146.707 27.2268 144.916 27.6542C143.802 24.0612 141.192 20.8642 137.502 18.5713C133.812 16.2785 129.253 15.0215 124.55 15.0003C119.847 14.979 115.27 16.1947 111.547 18.454C107.823 20.7133 105.167 23.8865 104.001 27.4692C102.229 27.1546 100.394 27.1304 98.6097 27.3981C96.8254 27.6657 95.1303 28.2195 93.6301 29.0249C92.1299 29.8303 90.8568 30.87 89.89 32.0793C88.9233 33.2886 88.2837 34.6415 88.0111 36.0537C87.7385 37.4659 87.8388 38.907 88.3056 40.2874C88.7724 41.6678 89.5958 42.9578 90.7245 44.077C91.8532 45.1961 93.2629 46.1205 94.8658 46.7924C96.4687 47.4644 98.2305 47.8695 100.041 47.9826L149.455 48Z" fill="white" stroke="#1B3342" stroke-width="2.38525" stroke-linejoin="round"/>
<defs>
<filter id="filter0_d" x="0.830078" y="0.884766" width="116.003" height="57.471" filterUnits="userSpaceOnUse" color-interpolation-filters="sRGB">
<feFlood flood-opacity="0" result="BackgroundImageFix"/>
<feColorMatrix in="SourceAlpha" type="matrix" values="0 0 0 0 0 0 0 0 0 0 0 0 0 0 0 0 0 0 127 0"/>
<feOffset dy="4"/>
<feGaussianBlur stdDeviation="2"/>
<feColorMatrix type="matrix" values="0 0 0 0 0 0 0 0 0 0 0 0 0 0 0 0 0 0 0.25 0"/>
<feBlend mode="normal" in2="BackgroundImageFix" result="effect1_dropShadow"/>
<feBlend mode="normal" in="SourceGraphic" in2="effect1_dropShadow" result="shape"/>
</filter>
</defs>
</svg>
