<svg width="19" height="15" viewBox="0 0 19 15" fill="none" xmlns="http://www.w3.org/2000/svg">
<path d="M17.0098 7.85709C17.0098 9.01551 16.5733 10.1479 15.7557 11.1111C14.938 12.0743 13.7758 12.8251 12.416 13.2684C11.0563 13.7117 9.56009 13.8277 8.1166 13.6017C6.67311 13.3757 5.34719 12.8178 4.30649 11.9987C3.2658 11.1796 2.55708 10.1359 2.26996 8.99975C1.98283 7.86358 2.13013 6.68593 2.69335 5.61568C3.25657 4.54544 4.21037 3.63068 5.4341 2.9871C6.65783 2.34351 8.09652 2 9.56829 2C10.5456 1.99969 11.5135 2.15099 12.4165 2.44522C13.3195 2.73946 14.14 3.17087 14.8311 3.71481C15.5222 4.25876 16.0702 4.90456 16.4441 5.61532C16.8179 6.32608 17.0102 7.08783 17.0098 7.85709Z" fill="white" stroke="white" stroke-width="2.38525" stroke-linejoin="round"/>
</svg>
