<svg width="18" height="15" viewBox="0 0 18 15" fill="none" xmlns="http://www.w3.org/2000/svg">
<path d="M16.7852 7.38555C16.7858 8.54465 16.3497 9.67782 15.532 10.6418C14.7142 11.6057 13.5514 12.3571 12.191 12.8009C10.8306 13.2447 9.33357 13.361 7.88922 13.1349C6.44487 12.9089 5.11821 12.3508 4.07691 11.5312C3.03561 10.7116 2.32651 9.66731 2.03937 8.53046C1.75222 7.39362 1.89995 6.21529 2.46378 5.14452C3.0276 4.07374 3.98214 3.15862 5.20683 2.51496C6.43152 1.87129 7.87125 1.52797 9.34387 1.52844C11.3174 1.52844 13.2101 2.14553 14.6056 3.24394C16.0012 4.34236 16.7852 5.83215 16.7852 7.38555Z" fill="white" stroke="#405391" stroke-width="2.38525" stroke-linejoin="round"/>
</svg>
