<svg width="1440" height="1072" viewBox="0 0 1440 1072" fill="none" xmlns="http://www.w3.org/2000/svg">
<g clip-path="url(#clip0)">
<path d="M-201.024 56.8711C-280.694 234.873 -161.538 433.919 -130.537 485.731C180.2 1004.85 1241.28 1140.8 1561.15 728.44C1711.1 535.138 1694.31 226.321 1557.63 23.9107C1200.19 -505.395 -13.8223 -361.374 -201.024 56.8711Z" fill="url(#paint0_radial)"/>
<path d="M560.834 169.386C560.835 170.545 560.476 171.678 559.803 172.642C559.13 173.606 558.173 174.357 557.054 174.801C555.934 175.245 554.702 175.361 553.514 175.135C552.325 174.909 551.233 174.351 550.376 173.531C549.519 172.712 548.936 171.667 548.7 170.53C548.463 169.394 548.585 168.215 549.049 167.145C549.513 166.074 550.298 165.159 551.306 164.515C552.314 163.871 553.499 163.528 554.711 163.528C556.335 163.528 557.892 164.146 559.041 165.244C560.189 166.342 560.834 167.832 560.834 169.386Z" fill="white" stroke="#405391" stroke-width="2.38525" stroke-linejoin="round"/>
<path d="M520.46 826.666C520.46 827.825 520.101 828.957 519.428 829.92C518.755 830.884 517.799 831.634 516.68 832.078C515.561 832.521 514.33 832.637 513.142 832.411C511.954 832.185 510.863 831.627 510.006 830.808C509.15 829.989 508.567 828.945 508.331 827.809C508.094 826.673 508.215 825.495 508.679 824.425C509.142 823.355 509.927 822.44 510.934 821.796C511.941 821.153 513.125 820.809 514.337 820.809C515.96 820.81 517.518 821.427 518.666 822.525C519.814 823.624 520.46 825.113 520.46 826.666Z" fill="white" stroke="#405391" stroke-width="2.38525" stroke-linejoin="round"/>
<path d="M1385.64 589.901C1385.64 591.059 1385.28 592.192 1384.61 593.155C1383.94 594.118 1382.98 594.869 1381.86 595.312C1380.74 595.755 1379.51 595.871 1378.32 595.645C1377.13 595.419 1376.04 594.862 1375.19 594.043C1374.33 593.223 1373.75 592.18 1373.51 591.044C1373.27 589.907 1373.4 588.73 1373.86 587.66C1374.32 586.589 1375.11 585.675 1376.11 585.031C1377.12 584.387 1378.31 584.044 1379.52 584.044C1381.14 584.044 1382.7 584.662 1383.85 585.76C1384.99 586.858 1385.64 588.348 1385.64 589.901Z" fill="white" stroke="#405391" stroke-width="2.38525" stroke-linejoin="round"/>
<path d="M1438.25 141.857C1438.25 143.016 1437.89 144.148 1437.22 145.111C1436.54 146.074 1435.59 146.825 1434.47 147.268C1433.35 147.712 1432.12 147.828 1430.93 147.602C1429.74 147.376 1428.65 146.818 1427.79 145.999C1426.94 145.18 1426.35 144.136 1426.12 143C1425.88 141.864 1426 140.686 1426.47 139.616C1426.93 138.545 1427.71 137.631 1428.72 136.987C1429.73 136.344 1430.91 136 1432.12 136C1432.93 136 1433.72 136.151 1434.47 136.445C1435.21 136.739 1435.89 137.171 1436.45 137.715C1437.02 138.259 1437.47 138.905 1437.78 139.615C1438.09 140.326 1438.25 141.088 1438.25 141.857Z" fill="white" stroke="white" stroke-width="2.38525" stroke-linejoin="round"/>
<path d="M1446.69 374C1448.22 373.922 1449.73 373.534 1451.1 372.859C1452.47 372.185 1453.67 371.241 1454.63 370.089C1455.59 368.937 1456.28 367.604 1456.66 366.177C1457.04 364.75 1457.1 363.263 1456.84 361.813C1456.57 360.363 1455.98 358.983 1455.12 357.765C1454.25 356.547 1453.13 355.519 1451.81 354.748C1450.5 353.976 1449.03 353.48 1447.51 353.292C1445.98 353.103 1444.43 353.227 1442.95 353.654C1442.03 350.061 1439.89 346.864 1436.85 344.571C1433.81 342.279 1430.06 341.022 1426.19 341C1422.32 340.979 1418.56 342.195 1415.49 344.454C1412.43 346.713 1410.24 349.887 1409.28 353.469C1407.82 353.155 1406.31 353.13 1404.84 353.398C1403.38 353.666 1401.98 354.22 1400.75 355.025C1399.51 355.83 1398.46 356.87 1397.67 358.079C1396.87 359.289 1396.35 360.641 1396.12 362.054C1395.9 363.466 1395.98 364.907 1396.37 366.287C1396.75 367.668 1397.43 368.958 1398.36 370.077C1399.28 371.196 1400.45 372.12 1401.76 372.792C1403.08 373.464 1404.53 373.87 1406.02 373.983L1446.69 374Z" fill="white" stroke="#1B3342" stroke-width="2.38525" stroke-linejoin="round"/>
<path d="M730.759 329C731.541 328.958 732.305 328.746 733.001 328.378C733.697 328.01 734.309 327.495 734.796 326.867C735.284 326.238 735.636 325.511 735.829 324.733C736.022 323.955 736.052 323.143 735.917 322.352C735.781 321.561 735.484 320.809 735.044 320.145C734.604 319.48 734.032 318.919 733.365 318.499C732.698 318.078 731.952 317.807 731.175 317.705C730.399 317.602 729.61 317.669 728.86 317.902C728.395 315.942 727.303 314.199 725.76 312.948C724.217 311.697 722.31 311.012 720.343 311C718.377 310.989 716.462 311.652 714.905 312.884C713.348 314.116 712.237 315.847 711.75 317.801C711.009 317.63 710.241 317.617 709.495 317.763C708.749 317.909 708.04 318.211 707.413 318.65C706.785 319.089 706.253 319.656 705.848 320.316C705.444 320.976 705.177 321.714 705.063 322.484C704.949 323.254 704.991 324.04 705.186 324.793C705.381 325.546 705.725 326.25 706.197 326.86C706.669 327.471 707.259 327.975 707.929 328.341C708.6 328.708 709.336 328.929 710.094 328.99L730.759 329Z" fill="white" stroke="#1B3342" stroke-width="2.38525" stroke-linejoin="round"/>
<path d="M1182.69 243C1184.22 242.922 1185.73 242.534 1187.1 241.859C1188.47 241.185 1189.67 240.241 1190.63 239.089C1191.59 237.937 1192.28 236.604 1192.66 235.177C1193.04 233.75 1193.1 232.263 1192.84 230.813C1192.57 229.363 1191.98 227.983 1191.12 226.765C1190.25 225.547 1189.13 224.519 1187.81 223.748C1186.5 222.976 1185.03 222.48 1183.51 222.292C1181.98 222.103 1180.43 222.227 1178.95 222.654C1178.03 219.061 1175.89 215.864 1172.85 213.571C1169.81 211.279 1166.06 210.022 1162.19 210C1158.32 209.979 1154.56 211.195 1151.49 213.454C1148.43 215.713 1146.24 218.887 1145.28 222.469C1143.82 222.155 1142.31 222.13 1140.84 222.398C1139.38 222.666 1137.98 223.22 1136.75 224.025C1135.51 224.83 1134.46 225.87 1133.67 227.079C1132.87 228.289 1132.35 229.641 1132.12 231.054C1131.9 232.466 1131.98 233.907 1132.37 235.287C1132.75 236.668 1133.43 237.958 1134.36 239.077C1135.28 240.196 1136.45 241.12 1137.76 241.792C1139.08 242.464 1140.53 242.87 1142.02 242.983L1182.69 243Z" fill="white" stroke="#1B3342" stroke-width="2.38525" stroke-linejoin="round"/>
<path d="M642.256 332C641.323 331.955 640.41 331.731 639.58 331.343C638.749 330.955 638.019 330.411 637.437 329.748C636.855 329.085 636.435 328.317 636.204 327.496C635.974 326.674 635.938 325.818 636.099 324.983C636.261 324.148 636.616 323.354 637.141 322.653C637.666 321.951 638.349 321.359 639.145 320.915C639.941 320.471 640.832 320.186 641.759 320.077C642.686 319.969 643.627 320.04 644.522 320.286C645.077 318.217 646.38 316.376 648.222 315.056C650.064 313.736 652.339 313.012 654.687 313C657.034 312.988 659.319 313.688 661.177 314.989C663.036 316.289 664.362 318.116 664.944 320.179C665.828 319.998 666.744 319.984 667.635 320.138C668.526 320.292 669.372 320.611 670.121 321.075C670.869 321.539 671.505 322.137 671.987 322.834C672.47 323.53 672.789 324.309 672.925 325.122C673.061 325.935 673.011 326.765 672.778 327.559C672.545 328.354 672.134 329.097 671.571 329.741C671.007 330.386 670.304 330.918 669.504 331.305C668.704 331.692 667.824 331.925 666.92 331.99L642.256 332Z" fill="white" stroke="#1B3342" stroke-width="2.38525" stroke-linejoin="round"/>
<path d="M161.608 360C160.473 359.948 159.364 359.689 158.354 359.24C157.343 358.79 156.455 358.161 155.747 357.393C155.04 356.625 154.529 355.736 154.248 354.785C153.968 353.833 153.924 352.842 154.121 351.875C154.317 350.908 154.749 349.989 155.387 349.177C156.026 348.365 156.857 347.679 157.825 347.165C158.793 346.651 159.877 346.32 161.004 346.195C162.131 346.069 163.276 346.151 164.364 346.436C165.04 344.041 166.624 341.909 168.864 340.381C171.105 338.852 173.872 338.014 176.727 338C179.582 337.986 182.361 338.796 184.621 340.303C186.882 341.809 188.494 343.924 189.202 346.313C190.278 346.103 191.392 346.087 192.475 346.265C193.558 346.444 194.587 346.813 195.498 347.35C196.409 347.887 197.182 348.58 197.768 349.386C198.355 350.192 198.744 351.094 198.909 352.036C199.075 352.977 199.014 353.938 198.73 354.858C198.447 355.779 197.947 356.639 197.262 357.385C196.577 358.131 195.721 358.747 194.748 359.195C193.775 359.643 192.705 359.913 191.606 359.988L161.608 360Z" fill="white" stroke="#1B3342" stroke-width="2.38525" stroke-linejoin="round"/>
<path d="M60.2225 197C61.3827 196.944 62.5167 196.661 63.5495 196.17C64.5824 195.68 65.4905 194.993 66.2139 194.156C66.9374 193.318 67.4597 192.348 67.7463 191.31C68.0329 190.273 68.0772 189.191 67.8765 188.136C67.6757 187.082 67.2344 186.079 66.5817 185.193C65.9289 184.307 65.0797 183.559 64.09 182.998C63.1003 182.437 61.9927 182.077 60.8404 181.94C59.6882 181.802 58.5175 181.892 57.4057 182.203C56.7145 179.59 55.0952 177.265 52.8053 175.597C50.5153 173.93 47.6862 173.016 44.7677 173C41.8492 172.985 39.0089 173.869 36.6983 175.512C34.3877 177.155 32.7395 179.463 32.0157 182.069C30.9162 181.84 29.7773 181.822 28.67 182.017C27.5627 182.211 26.5108 182.614 25.5799 183.2C24.6489 183.786 23.8588 184.542 23.2589 185.421C22.659 186.301 22.2621 187.285 22.093 188.312C21.9238 189.339 21.986 190.387 22.2757 191.391C22.5654 192.395 23.0764 193.333 23.7768 194.147C24.4772 194.961 25.352 195.633 26.3467 196.122C27.3414 196.61 28.4347 196.905 29.5584 196.987L60.2225 197Z" fill="white" stroke="#1B3342" stroke-width="2.38525" stroke-linejoin="round"/>
<g filter="url(#filter0_d)">
<path d="M1136.88 244.163C1139.07 244.052 1141.21 243.497 1143.16 242.535C1145.12 241.574 1146.83 240.227 1148.2 238.585C1149.56 236.942 1150.55 235.041 1151.09 233.007C1151.63 230.973 1151.72 228.852 1151.34 226.785C1150.96 224.718 1150.12 222.751 1148.89 221.014C1147.66 219.278 1146.05 217.811 1144.19 216.712C1142.32 215.612 1140.22 214.904 1138.05 214.635C1135.87 214.366 1133.66 214.541 1131.56 215.15C1130.26 210.02 1127.2 205.454 1122.88 202.179C1118.55 198.904 1113.2 197.108 1107.68 197.078C1102.17 197.047 1096.8 198.784 1092.43 202.011C1088.06 205.238 1084.95 209.77 1083.59 214.885C1081.51 214.434 1079.36 214.398 1077.27 214.779C1075.17 215.159 1073.18 215.948 1071.42 217.097C1069.66 218.246 1068.17 219.729 1067.03 221.454C1065.9 223.18 1065.15 225.11 1064.83 227.125C1064.51 229.14 1064.63 231.197 1065.18 233.167C1065.72 235.136 1066.69 236.977 1068.02 238.573C1069.34 240.17 1071 241.488 1072.88 242.446C1074.76 243.403 1076.82 243.98 1078.95 244.139L1136.88 244.163Z" fill="white"/>
<path d="M1136.88 244.163C1139.07 244.052 1141.21 243.497 1143.16 242.535C1145.12 241.574 1146.83 240.227 1148.2 238.585C1149.56 236.942 1150.55 235.041 1151.09 233.007C1151.63 230.973 1151.72 228.852 1151.34 226.785C1150.96 224.718 1150.12 222.751 1148.89 221.014C1147.66 219.278 1146.05 217.811 1144.19 216.712C1142.32 215.612 1140.22 214.904 1138.05 214.635C1135.87 214.366 1133.66 214.541 1131.56 215.15C1130.26 210.02 1127.2 205.454 1122.88 202.179C1118.55 198.904 1113.2 197.108 1107.68 197.078C1102.17 197.047 1096.8 198.784 1092.43 202.011C1088.06 205.238 1084.95 209.77 1083.59 214.885C1081.51 214.434 1079.36 214.398 1077.27 214.779C1075.17 215.159 1073.18 215.948 1071.42 217.097C1069.66 218.246 1068.17 219.729 1067.03 221.454C1065.9 223.18 1065.15 225.11 1064.83 227.125C1064.51 229.14 1064.63 231.197 1065.18 233.167C1065.72 235.136 1066.69 236.977 1068.02 238.573C1069.34 240.17 1071 241.488 1072.88 242.446C1074.76 243.403 1076.82 243.98 1078.95 244.139L1136.88 244.163Z" stroke="#1B3342" stroke-width="2.38525" stroke-linejoin="round"/>
</g>
<g filter="url(#filter1_d)">
<path d="M672.111 332C670.901 331.943 669.719 331.66 668.641 331.17C667.564 330.68 666.617 329.994 665.863 329.157C665.108 328.319 664.563 327.35 664.265 326.314C663.966 325.277 663.919 324.196 664.129 323.142C664.338 322.088 664.798 321.086 665.479 320.201C666.16 319.316 667.046 318.568 668.078 318.008C669.11 317.447 670.265 317.086 671.467 316.949C672.669 316.812 673.89 316.901 675.05 317.212C675.767 314.597 677.456 312.27 679.845 310.6C682.235 308.931 685.189 308.016 688.236 308C691.283 307.985 694.249 308.87 696.66 310.515C699.072 312.16 700.79 314.47 701.542 317.077C702.689 316.847 703.878 316.828 705.035 317.022C706.191 317.216 707.289 317.619 708.261 318.204C709.234 318.79 710.059 319.546 710.685 320.425C711.312 321.304 711.726 322.288 711.903 323.316C712.08 324.343 712.015 325.391 711.712 326.395C711.409 327.399 710.875 328.337 710.144 329.151C709.412 329.964 708.498 330.636 707.459 331.125C706.42 331.613 705.279 331.907 704.106 331.988L672.111 332Z" fill="white"/>
<path d="M672.111 332C670.901 331.943 669.719 331.66 668.641 331.17C667.564 330.68 666.617 329.994 665.863 329.157C665.108 328.319 664.563 327.35 664.265 326.314C663.966 325.277 663.919 324.196 664.129 323.142C664.338 322.088 664.798 321.086 665.479 320.201C666.16 319.316 667.046 318.568 668.078 318.008C669.11 317.447 670.265 317.086 671.467 316.949C672.669 316.812 673.89 316.901 675.05 317.212C675.767 314.597 677.456 312.27 679.845 310.6C682.235 308.931 685.189 308.016 688.236 308C691.283 307.985 694.249 308.87 696.66 310.515C699.072 312.16 700.79 314.47 701.542 317.077C702.689 316.847 703.878 316.828 705.035 317.022C706.191 317.216 707.289 317.619 708.261 318.204C709.234 318.79 710.059 319.546 710.685 320.425C711.312 321.304 711.726 322.288 711.903 323.316C712.08 324.343 712.015 325.391 711.712 326.395C711.409 327.399 710.875 328.337 710.144 329.151C709.412 329.964 708.498 330.636 707.459 331.125C706.42 331.613 705.279 331.907 704.106 331.988L672.111 332Z" stroke="#1B3342" stroke-width="2.38525" stroke-linejoin="round"/>
</g>
<g filter="url(#filter2_d)">
<path d="M196.153 362C194.489 361.92 192.863 361.519 191.382 360.824C189.901 360.13 188.598 359.158 187.561 357.972C186.524 356.786 185.775 355.413 185.364 353.944C184.953 352.476 184.889 350.944 185.177 349.451C185.465 347.959 186.098 346.538 187.034 345.285C187.97 344.031 189.188 342.972 190.607 342.178C192.026 341.384 193.615 340.872 195.267 340.678C196.92 340.484 198.599 340.61 200.194 341.05C201.18 337.346 203.501 334.049 206.787 331.684C210.073 329.319 214.134 328.022 218.324 328C222.515 327.978 226.592 329.232 229.908 331.563C233.223 333.893 235.586 337.165 236.62 340.858C238.198 340.533 239.833 340.507 241.423 340.782C243.012 341.057 244.523 341.627 245.859 342.456C247.196 343.285 248.331 344.356 249.192 345.602C250.054 346.848 250.624 348.242 250.867 349.697C251.109 351.152 251.02 352.637 250.604 354.06C250.188 355.482 249.454 356.811 248.448 357.964C247.442 359.116 246.185 360.068 244.757 360.76C243.328 361.451 241.758 361.868 240.145 361.983L196.153 362Z" fill="white"/>
<path d="M196.153 362C194.489 361.92 192.863 361.519 191.382 360.824C189.901 360.13 188.598 359.158 187.561 357.972C186.524 356.786 185.775 355.413 185.364 353.944C184.953 352.476 184.889 350.944 185.177 349.451C185.465 347.959 186.098 346.538 187.034 345.285C187.97 344.031 189.188 342.972 190.607 342.178C192.026 341.384 193.615 340.872 195.267 340.678C196.92 340.484 198.599 340.61 200.194 341.05C201.18 337.346 203.501 334.049 206.787 331.684C210.073 329.319 214.134 328.022 218.324 328C222.515 327.978 226.592 329.232 229.908 331.563C233.223 333.893 235.586 337.165 236.62 340.858C238.198 340.533 239.833 340.507 241.423 340.782C243.012 341.057 244.523 341.627 245.859 342.456C247.196 343.285 248.331 344.356 249.192 345.602C250.054 346.848 250.624 348.242 250.867 349.697C251.109 351.152 251.02 352.637 250.604 354.06C250.188 355.482 249.454 356.811 248.448 357.964C247.442 359.116 246.185 360.068 244.757 360.76C243.328 361.451 241.758 361.868 240.145 361.983L196.153 362Z" stroke="#1B3342" stroke-width="2.38525" stroke-linejoin="round"/>
</g>
<line x1="560" y1="956.5" x2="875" y2="956.5" stroke="#1B3342"/>
<path d="M716.596 943.639L1104.55 909.917L1329.94 970.129L1330.98 985.459L943.023 1019.18L717.635 958.968L716.596 943.639Z" fill="white" stroke="#1B3342" stroke-width="2.38525" stroke-linejoin="round"/>
<path d="M726.675 944.833L1106.78 923.503L1048.65 695.468L677.115 712.047L726.675 944.833Z" fill="white" stroke="#1B3342" stroke-width="2.38525" stroke-linejoin="round"/>
<path d="M879.461 711.516C879.514 712.279 879.337 713.042 878.951 713.712C878.565 714.383 877.987 714.933 877.284 715.299C876.581 715.665 875.783 715.831 874.985 715.777C874.186 715.722 873.421 715.45 872.779 714.993C872.137 714.536 871.646 713.912 871.363 713.196C871.08 712.48 871.018 711.702 871.183 710.953C871.348 710.204 871.734 709.516 872.296 708.97C872.857 708.425 873.57 708.044 874.35 707.874C875.531 707.716 876.73 708.01 877.687 708.691C878.644 709.373 879.281 710.388 879.461 711.516Z" fill="#405391"/>
<path d="M678.791 711.95L1050.33 695.371L678.791 711.95L728.351 944.736L717.862 943.73L671.76 719.018L678.791 711.95Z" fill="white"/>
<path d="M678.791 711.95L1050.33 695.371L678.791 711.95ZM678.791 711.95L728.351 944.736L717.862 943.73L671.76 719.018L678.791 711.95Z" stroke="#1B3342" stroke-width="2.38525" stroke-linejoin="round"/>
<path d="M706.204 722.336L1031.14 707.682L1074.4 887.892L748.182 915.893L706.204 722.336Z" fill="#22CDB8" stroke="#1B3342" stroke-width="2.38525" stroke-miterlimit="10"/>
<path d="M717.716 943.334L943.103 1003.55L1331.06 969.824L1105.67 909.613L717.716 943.334Z" fill="white" stroke="#1B3342" stroke-width="2.38525" stroke-linejoin="round"/>
<path d="M883.38 977.922L771.038 947.909L1103.05 919.05L1212.17 948.202L883.38 977.922Z" fill="white" stroke="#1B3342" stroke-width="2.38525" stroke-linejoin="round"/>
<path d="M795.679 954.612L1128.87 926.068" stroke="#1B3342" stroke-width="2.38525" stroke-linejoin="round"/>
<path d="M822.959 961.846L1156.15 933.304" stroke="#1B3342" stroke-width="2.38525" stroke-linejoin="round"/>
<path d="M850.945 969.391L1184.13 940.847" stroke="#1B3342" stroke-width="2.38525" stroke-linejoin="round"/>
<path d="M811.9 945.122L921.979 974.403" stroke="#1B3342" stroke-width="2.38525" stroke-linejoin="round"/>
<path d="M848.432 941.715L958.507 970.998" stroke="#1B3342" stroke-width="2.38525" stroke-linecap="round" stroke-linejoin="round"/>
<path d="M880.551 939.046L990.629 968.326" stroke="#405391" stroke-width="2.38525" stroke-linecap="round" stroke-linejoin="round"/>
<path d="M912.528 936.067L1022.6 965.348" stroke="#405391" stroke-width="2.38525" stroke-linecap="round" stroke-linejoin="round"/>
<path d="M944.502 933.089L1054.58 962.369" stroke="#405391" stroke-width="2.38525" stroke-linecap="round" stroke-linejoin="round"/>
<path d="M977.931 930.494L1086.56 959.388" stroke="#405391" stroke-width="2.38525" stroke-linecap="round" stroke-linejoin="round"/>
<path d="M1009.77 927.479L1119.5 956.667" stroke="#405391" stroke-width="2.38525" stroke-linecap="round" stroke-linejoin="round"/>
<path d="M1042.32 924.651L1151.51 953.698" stroke="#405391" stroke-width="2.38525" stroke-linecap="round" stroke-linejoin="round"/>
<path d="M1075.38 921.961L1183.45 950.707" stroke="#405391" stroke-width="2.38525" stroke-linecap="round" stroke-linejoin="round"/>
<path d="M884.433 752.183L944.944 748.291L1005.46 744.4C1005.92 744.379 1006.38 744.531 1006.75 744.829C1007.12 745.128 1007.39 745.554 1007.5 746.038L1019.55 797.831C1019.62 798.134 1019.63 798.451 1019.57 798.758C1019.52 799.066 1019.4 799.357 1019.23 799.611C1019.06 799.866 1018.84 800.078 1018.59 800.233C1018.34 800.388 1018.05 800.483 1017.76 800.51L918.114 808.34C917.674 808.383 896.911 810.195 896.344 810.566L901.648 809.771C899.757 810.101 897.833 810.157 895.929 809.936L882.525 754.748C882.471 754.442 882.478 754.127 882.548 753.824C882.617 753.522 882.747 753.239 882.928 752.996C883.11 752.752 883.338 752.553 883.597 752.413C883.857 752.272 884.142 752.194 884.433 752.183Z" fill="white" stroke="#1B3342" stroke-width="2.38525" stroke-linejoin="round"/>
<path d="M895.244 805.783L1019.21 796.615L1040.05 873.707L1034.21 874.303L1028.5 874.887L918.363 883.511L895.244 805.783Z" fill="#1B3342" stroke="#1B3342" stroke-width="2.38525" stroke-linejoin="round"/>
<path d="M736.201 758.748L872.524 753.187L909.992 887.896L768.089 899.456L736.201 758.748Z" fill="#1B3342" stroke="#1B3342" stroke-width="2.38525" stroke-linejoin="round"/>
<path d="M771.701 784.294L826.63 781.07" stroke="white" stroke-width="2.38525" stroke-linecap="round" stroke-linejoin="round"/>
<path d="M774.89 794.658L829.819 791.434" stroke="white" stroke-width="2.38525" stroke-linecap="round" stroke-linejoin="round"/>
<path d="M778.876 806.616L833.805 803.392" stroke="white" stroke-width="2.38525" stroke-linecap="round" stroke-linejoin="round"/>
<path d="M771.702 820.968L826.63 817.741" stroke="#1EE7C5" stroke-width="2.38525" stroke-linecap="round" stroke-linejoin="round"/>
<path d="M784.456 828.938L839.385 825.714" stroke="white" stroke-width="2.38525" stroke-linecap="round" stroke-linejoin="round"/>
<path d="M787.646 839.304L842.574 836.077" stroke="white" stroke-width="2.38525" stroke-linecap="round" stroke-linejoin="round"/>
<path d="M969.242 769.17L987.7 767.892" stroke="#1B3342" stroke-width="2.38525" stroke-linecap="round" stroke-linejoin="round"/>
<path d="M976.484 775.382L994.945 774.106" stroke="#1B3342" stroke-width="2.38525" stroke-linecap="round" stroke-linejoin="round"/>
<path d="M927.432 820.778L995.942 816.059" stroke="white" stroke-width="2.38525" stroke-linecap="round" stroke-linejoin="round"/>
<path d="M931.292 832.145L999.794 827.31" stroke="white" stroke-width="2.38525" stroke-linecap="round" stroke-linejoin="round"/>
<path d="M939.151 858.163L1007.66 853.484" stroke="white" stroke-width="2.38525" stroke-linecap="round" stroke-linejoin="round"/>
<path d="M946.136 776.961C947.441 782.42 944.548 787.707 939.681 788.77C934.814 789.834 929.81 786.271 928.506 780.812C927.202 775.353 930.094 770.081 934.961 769.005C939.828 767.93 944.842 771.504 946.136 776.961Z" fill="white" stroke="#1B3342" stroke-width="2.38525" stroke-linejoin="round"/>
<path d="M965.928 800.879C965.322 802.729 951.28 802.534 944.51 803.149C939.539 803.6 915.822 805.617 915.882 804.73C916.261 799.143 934.799 788.211 939.793 788.153C947.779 788.06 967.673 795.537 965.928 800.879Z" fill="white" stroke="#1B3342" stroke-width="2.38525" stroke-linejoin="round"/>
<path d="M1307.76 574.812C1287.28 541.187 1295.14 470.41 1295.14 470.41L1290.53 474.438C1311.05 423.122 1293.89 402.388 1293.89 402.388C1243.24 330.295 1167.44 377.956 1167.44 377.956C1167.44 377.956 1111.84 386.453 1132.4 450.027C1133.65 454.416 1134.3 458.943 1134.32 463.492C1134.16 464.062 1125.56 494.218 1122.52 499.872C1120.31 503.976 1131.44 509.633 1137.89 512.497C1152.29 572.678 1155.53 570.539 1155.53 570.539C1180.98 571.696 1201.25 567.722 1217.67 560.661C1219.94 571.979 1222.25 584.159 1222.25 584.159C1227.72 625.592 1166.57 652.245 1166.57 652.245L1282.63 694.172L1397.95 623.804C1397.95 623.804 1332.73 615.793 1307.76 574.812Z" fill="#FFCFCF" stroke="#33313B" stroke-width="2.38525" stroke-miterlimit="10"/>
<path d="M1394.88 642.824C1394.88 642.824 1389.81 616.591 1387.09 708.277C1384.54 794.107 1383.54 884.174 1383.54 884.174C1348.85 886.288 1314.81 894.099 1282.89 907.264L1249.21 920.65C1249.21 920.65 1336.64 966.972 1398.88 985.462C1456.19 1002.49 1461.57 960.645 1454.73 858.943C1454.74 858.943 1422.14 650.064 1394.88 642.824Z" fill="#FFCFCF" stroke="#405391" stroke-width="2.38525" stroke-linejoin="round"/>
<path d="M1163.91 354.633C1163.91 354.633 1090.86 391.903 1132.67 429.323L1182.32 381.865L1163.91 354.633Z" fill="#405391"/>
<path d="M1273.13 533.194C1273.13 533.194 1289.55 532.779 1299.38 554.051C1299.38 554.051 1288.6 529.898 1307.4 509.915L1273.13 533.194Z" fill="#121F27"/>
<path d="M1163.91 354.633C1163.91 354.633 1074.56 438.34 1128.11 414.876C1240 365.877 1234.27 489.361 1234.27 489.361C1234.27 489.361 1249.68 475.929 1243.99 489.988L1273.14 533.193C1273.14 533.193 1335.44 510.662 1338.78 435.597C1339.89 410.249 1313.82 294.009 1163.91 354.633Z" fill="#121F27"/>
<path d="M1202.26 404.285C1203.95 417.103 1202.26 468.236 1225.9 471.992C1249.53 475.748 1221.83 407.76 1221.83 407.76L1202.26 404.285Z" fill="#121F27"/>
<path d="M1128.47 679.063C1100.18 800.715 1087.08 926.387 1087.08 926.387C1051.2 916.86 1014.84 909.06 978.141 903.016L920.201 888.132C918.328 887.314 898.245 878.46 891.722 872.288C884.88 865.813 881.113 883.635 891.874 891.779C894.584 893.819 897.185 895.989 899.666 898.28L885.703 900.359C883.306 900.712 881.07 901.73 879.273 903.288C869.549 911.718 837.836 939.725 843.842 941.469C845.468 941.889 847.172 941.958 848.829 941.671C837.991 950.235 837.125 959.166 840.165 959.467C844.7 959.915 850.44 956.808 856.15 952.384C851.135 957.929 844.93 970.199 851.866 969.893C861.199 969.483 869.02 962.546 876.465 950.815C876.465 950.815 874.63 953.855 875.443 953.161L869.913 961.728C876.002 966.852 882.516 971.493 889.393 975.605C897.212 979.8 901.793 964.341 890.722 957.984C893.905 954.484 896.354 950.431 897.935 946.045C897.935 946.045 929.022 960.416 944.91 949.031L955.297 949.985C982.452 966.249 1120.36 1025.53 1139.24 1024.19C1182.15 1021.12 1190.3 940.429 1211.05 764.051C1211.06 764.058 1141.16 624.518 1128.47 679.063Z" fill="#FFCFCF" stroke="#1B3342" stroke-width="2.38525" stroke-linejoin="round"/>
<path d="M1085.67 926.166C1085.67 926.166 1072.31 932.968 1069.62 951.856" stroke="#1B3342" stroke-width="2.38525" stroke-miterlimit="10"/>
<path d="M1426.55 859.135C1448.66 855.629 1484.37 843.946 1484.4 843.82C1484.4 843.82 1470.71 678.808 1427.19 629.95C1424.98 625.419 1417.65 615.987 1394.31 612.691C1387.38 611.713 1380.56 610.492 1374.05 609.152C1351.21 604.454 1332.61 597.924 1327.3 594.7C1327.3 594.7 1327.33 594.898 1327.37 595.191C1327.25 595.12 1327.08 595.043 1326.97 594.977C1327.56 598.165 1327.36 601.442 1326.38 604.542C1326.23 605 1326.08 605.46 1325.88 605.925C1325.8 606.123 1325.71 606.324 1325.62 606.524C1325.27 607.297 1324.87 608.047 1324.42 608.77C1317.28 620.019 1270 624.567 1222.73 600.662C1222.73 600.662 1141.52 644.712 1119.88 659.989C1086.67 727.668 1072.4 880.505 1072.4 873.408C1072.4 871.474 1140.08 905.389 1184.06 907.234C1184.31 919.225 1173.3 1070.73 1173.3 1070.73C1173.3 1070.73 1364.53 1080.07 1449.27 1036.96C1449.27 1036.96 1415.87 930.575 1419.8 900.881C1420.28 897.383 1425.61 867.804 1426.55 859.135Z" fill="url(#paint1_linear)" stroke="#33313B" stroke-width="2.38525" stroke-miterlimit="10"/>
<path d="M1171.74 353.653C1171.74 353.653 1078.08 332.762 1083.98 355.814C1089.87 378.865 1114.09 398.995 1114.09 398.995C1114.09 398.995 1086.49 398.335 1100.98 411.737C1115.47 425.14 1127.58 424.138 1127.58 424.138L1171.74 353.653Z" fill="#121F27"/>
<path d="M1217.41 559.643C1217.41 559.643 1227.05 557.322 1244.71 542.642" stroke="#33313B" stroke-width="2.38525" stroke-miterlimit="10"/>
<path d="M1234.68 451.128C1234.68 451.128 1228.17 335.703 1164.75 349.871" stroke="white" stroke-width="4.7705" stroke-miterlimit="10"/>
<path d="M1272.49 484.33C1273.93 462.908 1257.39 444.451 1235.54 443.104C1213.69 441.757 1194.8 458.031 1193.36 479.453C1191.91 500.874 1208.46 519.332 1230.31 520.679C1252.16 522.025 1271.05 505.752 1272.49 484.33Z" fill="#22CDB8" stroke="#1B3342" stroke-width="2.38525" stroke-miterlimit="10"/>
<path d="M1259.67 482.984C1258.64 498.373 1245.75 510.106 1230.89 509.188C1216.03 508.27 1204.82 495.053 1205.86 479.667C1206.89 464.28 1219.78 452.544 1234.64 453.462C1249.5 454.38 1260.71 467.597 1259.67 482.984Z" fill="white" stroke="#121316" stroke-width="2.38525" stroke-miterlimit="10"/>
<path d="M1145.89 470.74C1146.12 471.545 1146.59 472.271 1147.23 472.837C1147.87 473.403 1148.66 473.785 1149.52 473.942C1150.38 474.099 1151.26 474.023 1152.08 473.722C1152.89 473.422 1153.6 472.91 1154.13 472.244C1154.65 471.578 1154.97 470.785 1155.05 469.954C1155.13 469.123 1154.96 468.287 1154.57 467.542C1154.18 466.797 1153.57 466.171 1152.83 465.737C1152.08 465.302 1151.23 465.076 1150.36 465.083C1148.99 465.288 1147.76 465.993 1146.93 467.048C1146.09 468.104 1145.72 469.428 1145.89 470.74Z" fill="#1B3342"/>
<path d="M1167.94 454.428C1164.64 450.554 1160.1 447.833 1155.02 446.689C1150.46 445.27 1145.97 443.875 1144.05 445.905C1143.49 446.609 1143.17 447.459 1143.13 448.341C1143.09 449.224 1143.33 450.098 1143.82 450.846C1145.2 452.863 1148.29 452.79 1151.17 453.076C1162.37 454.189 1168.77 460.607 1170.03 459.038C1170.76 458.129 1168.92 455.716 1167.94 454.428Z" fill="#1B3342"/>
<path d="M1146.97 526.507C1146.97 526.507 1159.26 526.03 1167.26 518.179" stroke="#1B3342" stroke-width="2.38525" stroke-miterlimit="10"/>
<path d="M1100.12 336.923C1111.98 334.388 1124.33 334.952 1135.88 338.555C1147.44 342.158 1157.77 348.668 1165.78 357.402" stroke="#121F27" stroke-width="2.38525" stroke-miterlimit="10"/>
<path d="M1321.42 358.661L1318.58 386.182C1318.58 386.182 1326 372.541 1340.68 381.756" stroke="#1B3342" stroke-width="2.38525" stroke-miterlimit="10"/>
<path d="M1136.91 388.509C1136.91 388.509 1105.62 430.797 1121.58 430.721C1145.69 430.592 1169.53 400.624 1165.16 399.067C1160.79 397.51 1136.91 388.509 1136.91 388.509Z" fill="#121F27"/>
<path d="M854.894 951.916L867.156 927.071L880.43 917.012" fill="#FFCFCF"/>
<path d="M854.894 951.916L867.156 927.071L880.43 917.012" stroke="#1B3342" stroke-width="2.38525" stroke-miterlimit="10"/>
<path d="M847.825 941.453L862.027 926.069" stroke="#1B3342" stroke-width="2.38525" stroke-miterlimit="10"/>
<path d="M898.375 920.086L882.518 930.847L874.188 952.699" fill="#FFCFCF"/>
<path d="M898.375 920.086L882.518 930.847L874.188 952.699" stroke="#1B3342" stroke-width="2.38525" stroke-linejoin="round"/>
<path d="M1119.9 660.003C1119.9 660.003 1220.88 636.11 1218.63 758.451L1214 905.117C1201.32 907.355 1188.37 907.867 1175.54 906.638" stroke="#33313B" stroke-width="2.38525" stroke-miterlimit="10"/>
<path d="M1422.78 690.698C1422.78 690.698 1443.95 739.684 1444.32 782.752C1444.52 805.884 1426.52 859.424 1426.52 859.424" stroke="#33313B" stroke-width="2.38525" stroke-miterlimit="10"/>
<path d="M898.405 897.812L915.721 895.432" stroke="#1B3342" stroke-width="2.38525" stroke-linejoin="round"/>
<path d="M758.136 774.223L813.082 771.253" stroke="#1EE7C5" stroke-width="2.38525" stroke-linecap="round" stroke-linejoin="round"/>
<g filter="url(#filter3_d)">
<path d="M625.012 924.441C640.092 924.441 652.316 922.623 652.316 920.38C652.316 918.136 640.092 916.318 625.012 916.318C609.932 916.318 597.707 918.136 597.707 920.38C597.707 922.623 609.932 924.441 625.012 924.441Z" fill="#0D71B2"/>
<path d="M618.205 969.037H631.816C635.847 968.907 639.853 968.38 643.771 967.462L651.339 920.54H651.256C651.256 922.697 639.505 924.444 625.011 924.444C610.518 924.444 598.765 922.697 598.765 920.54H598.683L606.251 967.462C610.168 968.38 614.174 968.907 618.205 969.037Z" fill="#1B3342" stroke="#1B3342" stroke-width="1.31301" stroke-linejoin="round"/>
<path d="M586.581 864.584C583.57 864.575 580.597 865.232 577.896 866.505C575.195 867.777 572.838 869.629 571.01 871.918C569.182 874.206 567.932 876.868 567.358 879.695C566.784 882.522 566.902 885.438 567.702 888.214C568.323 887.917 569.007 887.761 569.702 887.757C570.702 887.756 571.675 888.067 572.472 888.644C573.27 889.221 573.849 890.031 574.12 890.952C574.391 891.873 574.339 892.853 573.973 893.743C573.607 894.633 572.947 895.384 572.092 895.882C574.282 898.191 577.039 899.941 580.115 900.973C583.191 902.004 586.487 902.285 589.705 901.789C592.923 901.292 595.96 900.035 598.541 898.132C601.122 896.228 603.165 893.738 604.485 890.888C605.805 888.037 606.359 884.917 606.098 881.809C605.837 878.702 604.769 875.706 602.99 873.094C601.212 870.481 598.779 868.335 595.914 866.85C593.048 865.365 589.84 864.588 586.581 864.59V864.584Z" fill="#1EE6C5" stroke="#1B3342" stroke-width="1.31301" stroke-miterlimit="10"/>
<path d="M601.302 877.856C601.302 878.367 601.143 878.866 600.846 879.291C600.549 879.716 600.127 880.047 599.634 880.243C599.14 880.438 598.597 880.489 598.073 880.39C597.549 880.29 597.068 880.044 596.69 879.682C596.312 879.321 596.055 878.86 595.951 878.359C595.847 877.858 595.901 877.338 596.105 876.866C596.31 876.394 596.656 875.991 597.101 875.707C597.545 875.423 598.068 875.272 598.602 875.272C599.318 875.273 600.005 875.545 600.511 876.03C601.017 876.514 601.302 877.171 601.302 877.856Z" fill="white" stroke="#1B3342" stroke-width="1.31301" stroke-linejoin="round"/>
<path d="M670.605 881.532C676.731 873.01 674.474 861.351 665.564 855.491C656.654 849.632 644.465 851.791 638.338 860.313C632.212 868.836 634.469 880.494 643.38 886.354C652.29 892.213 664.479 890.055 670.605 881.532Z" fill="#1EE6C5" stroke="#1B3342" stroke-width="1.31301" stroke-miterlimit="10"/>
<path d="M653.278 871.152C653.278 871.152 625.114 886.807 627.455 918.063" stroke="#1B3342" stroke-width="1.31301" stroke-linejoin="round"/>
<path d="M615.946 865.057C618.702 867.658 622.203 869.419 626.006 870.118C629.809 870.816 633.743 870.42 637.31 868.979C640.878 867.539 643.918 865.119 646.048 862.026C648.178 858.933 649.301 855.305 649.275 851.601C649.249 847.898 648.075 844.285 645.903 841.219C643.73 838.153 640.655 835.773 637.068 834.378C633.481 832.984 629.542 832.638 625.749 833.385C621.956 834.131 618.48 835.937 615.76 838.573C613.954 840.324 612.526 842.397 611.558 844.676C610.59 846.954 610.1 849.393 610.118 851.852C610.135 854.311 610.658 856.743 611.658 859.009C612.658 861.275 614.115 863.33 615.946 865.057Z" fill="#1EE6C5" stroke="#1B3342" stroke-width="1.31301" stroke-miterlimit="10"/>
<path d="M628.783 852.674C628.783 852.674 609.201 898.981 627.254 922.229" stroke="#1B3342" stroke-width="1.31301" stroke-linejoin="round"/>
<path d="M587.643 883.316C587.643 883.316 618.44 893.444 622.488 924.537" stroke="#1B3342" stroke-width="1.31301" stroke-linejoin="round"/>
<path d="M647.357 878.887C650.368 878.878 653.34 879.535 656.041 880.807C658.742 882.08 661.099 883.932 662.928 886.22C664.756 888.509 666.006 891.171 666.58 893.998C667.153 896.825 667.036 899.74 666.236 902.517C665.614 902.22 664.93 902.064 664.236 902.06C663.236 902.058 662.263 902.37 661.465 902.946C660.667 903.523 660.089 904.334 659.818 905.255C659.547 906.175 659.598 907.156 659.964 908.046C660.33 908.936 660.991 909.687 661.845 910.185C659.656 912.494 656.898 914.244 653.822 915.275C650.747 916.307 647.45 916.587 644.232 916.091C641.015 915.595 637.977 914.338 635.396 912.435C632.815 910.531 630.772 908.041 629.452 905.191C628.133 902.34 627.578 899.22 627.839 896.112C628.1 893.005 629.168 890.009 630.947 887.396C632.726 884.784 635.158 882.638 638.024 881.153C640.889 879.668 644.097 878.891 647.357 878.892V878.887Z" fill="#1EE6C5" stroke="#1B3342" stroke-width="1.31301" stroke-miterlimit="10"/>
<path d="M632.699 892.278C632.699 892.789 632.858 893.288 633.154 893.713C633.451 894.138 633.873 894.469 634.367 894.665C634.86 894.86 635.403 894.911 635.927 894.812C636.451 894.712 636.933 894.466 637.31 894.105C637.688 893.743 637.945 893.283 638.05 892.782C638.154 892.281 638.1 891.761 637.896 891.289C637.691 890.817 637.345 890.414 636.901 890.13C636.457 889.846 635.935 889.694 635.4 889.694C634.684 889.694 633.997 889.966 633.49 890.451C632.984 890.935 632.699 891.593 632.699 892.278Z" fill="white" stroke="#1B3342" stroke-width="1.31301" stroke-linejoin="round"/>
<path d="M651.645 893.524C651.645 893.524 629.903 901.795 624.566 923.487" stroke="#1B3342" stroke-width="1.31301" stroke-linejoin="round"/>
</g>
</g>
<defs>
<filter id="filter0_d" x="1059.46" y="195.885" width="97.3001" height="57.471" filterUnits="userSpaceOnUse" color-interpolation-filters="sRGB">
<feFlood flood-opacity="0" result="BackgroundImageFix"/>
<feColorMatrix in="SourceAlpha" type="matrix" values="0 0 0 0 0 0 0 0 0 0 0 0 0 0 0 0 0 0 127 0"/>
<feOffset dy="4"/>
<feGaussianBlur stdDeviation="2"/>
<feColorMatrix type="matrix" values="0 0 0 0 0 0 0 0 0 0 0 0 0 0 0 0 0 0 0.25 0"/>
<feBlend mode="normal" in2="BackgroundImageFix" result="effect1_dropShadow"/>
<feBlend mode="normal" in="SourceGraphic" in2="effect1_dropShadow" result="shape"/>
</filter>
<filter id="filter1_d" x="658.808" y="306.807" width="58.3852" height="34.3853" filterUnits="userSpaceOnUse" color-interpolation-filters="sRGB">
<feFlood flood-opacity="0" result="BackgroundImageFix"/>
<feColorMatrix in="SourceAlpha" type="matrix" values="0 0 0 0 0 0 0 0 0 0 0 0 0 0 0 0 0 0 127 0"/>
<feOffset dy="4"/>
<feGaussianBlur stdDeviation="2"/>
<feColorMatrix type="matrix" values="0 0 0 0 0 0 0 0 0 0 0 0 0 0 0 0 0 0 0.25 0"/>
<feBlend mode="normal" in2="BackgroundImageFix" result="effect1_dropShadow"/>
<feBlend mode="normal" in="SourceGraphic" in2="effect1_dropShadow" result="shape"/>
</filter>
<filter id="filter2_d" x="179.808" y="326.807" width="76.3852" height="44.3852" filterUnits="userSpaceOnUse" color-interpolation-filters="sRGB">
<feFlood flood-opacity="0" result="BackgroundImageFix"/>
<feColorMatrix in="SourceAlpha" type="matrix" values="0 0 0 0 0 0 0 0 0 0 0 0 0 0 0 0 0 0 127 0"/>
<feOffset dy="4"/>
<feGaussianBlur stdDeviation="2"/>
<feColorMatrix type="matrix" values="0 0 0 0 0 0 0 0 0 0 0 0 0 0 0 0 0 0 0.25 0"/>
<feBlend mode="normal" in2="BackgroundImageFix" result="effect1_dropShadow"/>
<feBlend mode="normal" in="SourceGraphic" in2="effect1_dropShadow" result="shape"/>
</filter>
<filter id="filter3_d" x="560.344" y="827.344" width="116.378" height="145.35" filterUnits="userSpaceOnUse" color-interpolation-filters="sRGB">
<feFlood flood-opacity="0" result="BackgroundImageFix"/>
<feColorMatrix in="SourceAlpha" type="matrix" values="0 0 0 0 0 0 0 0 0 0 0 0 0 0 0 0 0 0 127 0"/>
<feOffset dx="-2" dy="-1"/>
<feGaussianBlur stdDeviation="2"/>
<feColorMatrix type="matrix" values="0 0 0 0 1 0 0 0 0 1 0 0 0 0 1 0 0 0 0.03 0"/>
<feBlend mode="normal" in2="BackgroundImageFix" result="effect1_dropShadow"/>
<feBlend mode="normal" in="SourceGraphic" in2="effect1_dropShadow" result="shape"/>
</filter>
<radialGradient id="paint0_radial" cx="0" cy="0" r="1" gradientUnits="userSpaceOnUse" gradientTransform="translate(719.505 326.327) rotate(90) scale(644.327 947.505)">
<stop stop-color="#335063"/>
<stop offset="1" stop-color="#1B3342"/>
</radialGradient>
<linearGradient id="paint1_linear" x1="1278.4" y1="594.7" x2="1278.4" y2="1071.59" gradientUnits="userSpaceOnUse">
<stop stop-color="#379BE7"/>
<stop offset="1" stop-color="#1DE9C4"/>
</linearGradient>
<clipPath id="clip0">
<rect width="1440" height="1072" fill="white"/>
</clipPath>
</defs>
</svg>
